<?xml version="1.0" encoding="UTF-8" standalone="no"?>
<!DOCTYPE svg PUBLIC "-//W3C//DTD SVG 1.1//EN"
 "http://www.w3.org/Graphics/SVG/1.1/DTD/svg11.dtd">
<!-- Generated by graphviz version 2.40.1 (20161225.0304)
 -->
<!-- Title: inheritance84fa49c5e0 Pages: 1 -->
<svg width="576pt" height="21pt"
 viewBox="0.00 0.00 576.00 21.32" xmlns="http://www.w3.org/2000/svg" xmlns:xlink="http://www.w3.org/1999/xlink">
<g id="graph0" class="graph" transform="scale(.3331 .3331) rotate(0) translate(4 60)">
<title>inheritance84fa49c5e0</title>
<polygon fill="#ffffff" stroke="transparent" points="-4,4 -4,-60 1725,-60 1725,4 -4,4"/>
<!-- pyGHDL.dom.DOMMixin -->
<g id="node1" class="node">
<title>pyGHDL.dom.DOMMixin</title>
<g id="a_node1"><a xlink:href="../pyGHDL.dom.html#pyGHDL.dom.DOMMixin" xlink:title="pyGHDL.dom.DOMMixin" target="_top">
<polygon fill="none" stroke="#000000" stroke-width=".5" points="1392,-56 1258,-56 1258,-37 1392,-37 1392,-56"/>
<text text-anchor="middle" x="1325" y="-44" font-family="Vera Sans, DejaVu Sans, Liberation Sans, Arial, Helvetica, sans" font-size="10.00" fill="#000000">pyGHDL.dom.DOMMixin</text>
</a>
</g>
</g>
<!-- pyGHDL.dom.Literal.PhysicalFloatingLiteral -->
<g id="node2" class="node">
<title>pyGHDL.dom.Literal.PhysicalFloatingLiteral</title>
<g id="a_node2"><a xlink:href="../pyGHDL/pyGHDL.dom.Literal.html#pyGHDL.dom.Literal.PhysicalFloatingLiteral" xlink:title="pyGHDL.dom.Literal.PhysicalFloatingLiteral" target="_top">
<polygon fill="none" stroke="#000000" stroke-width=".5" points="1721,-37 1493,-37 1493,-18 1721,-18 1721,-37"/>
<text text-anchor="middle" x="1607" y="-25" font-family="Vera Sans, DejaVu Sans, Liberation Sans, Arial, Helvetica, sans" font-size="10.00" fill="#000000">pyGHDL.dom.Literal.PhysicalFloatingLiteral</text>
</a>
</g>
</g>
<!-- pyGHDL.dom.DOMMixin&#45;&gt;pyGHDL.dom.Literal.PhysicalFloatingLiteral -->
<g id="edge2" class="edge">
<title>pyGHDL.dom.DOMMixin&#45;&gt;pyGHDL.dom.Literal.PhysicalFloatingLiteral</title>
<path fill="none" stroke="#000000" stroke-width=".5" d="M1392.1878,-41.9732C1420.7956,-40.0457 1455.049,-37.7378 1487.7102,-35.5373"/>
<polygon fill="#000000" stroke="#000000" stroke-width=".5" points="1488.0663,-37.2673 1492.9373,-35.1851 1487.8309,-33.7752 1488.0663,-37.2673"/>
</g>
<!-- pyVHDLModel.SyntaxModel.PhysicalFloatingLiteral -->
<g id="node3" class="node">
<title>pyVHDLModel.SyntaxModel.PhysicalFloatingLiteral</title>
<polygon fill="none" stroke="#000000" stroke-width=".5" points="1457,-19 1193,-19 1193,0 1457,0 1457,-19"/>
<text text-anchor="middle" x="1325" y="-7" font-family="Vera Sans, DejaVu Sans, Liberation Sans, Arial, Helvetica, sans" font-size="10.00" fill="#000000">pyVHDLModel.SyntaxModel.PhysicalFloatingLiteral</text>
</g>
<!-- pyVHDLModel.SyntaxModel.PhysicalFloatingLiteral&#45;&gt;pyGHDL.dom.Literal.PhysicalFloatingLiteral -->
<g id="edge1" class="edge">
<title>pyVHDLModel.SyntaxModel.PhysicalFloatingLiteral&#45;&gt;pyGHDL.dom.Literal.PhysicalFloatingLiteral</title>
<path fill="none" stroke="#000000" stroke-width=".5" d="M1457.3301,-17.9466C1467.4445,-18.5922 1477.6186,-19.2416 1487.6432,-19.8815"/>
<polygon fill="#000000" stroke="#000000" stroke-width=".5" points="1487.7693,-21.643 1492.8706,-20.2151 1487.9923,-18.1501 1487.7693,-21.643"/>
</g>
<!-- pyVHDLModel.ModelEntity -->
<g id="node4" class="node">
<title>pyVHDLModel.ModelEntity</title>
<g id="a_node4"><a xlink:title="``ModelEntity`` is the base class for all classes in the VHDL language model,">
<polygon fill="none" stroke="#000000" stroke-width=".5" points="146,-19 0,-19 0,0 146,0 146,-19"/>
<text text-anchor="middle" x="73" y="-7" font-family="Vera Sans, DejaVu Sans, Liberation Sans, Arial, Helvetica, sans" font-size="10.00" fill="#000000">pyVHDLModel.ModelEntity</text>
</a>
</g>
</g>
<!-- pyVHDLModel.SyntaxModel.BaseExpression -->
<g id="node5" class="node">
<title>pyVHDLModel.SyntaxModel.BaseExpression</title>
<g id="a_node5"><a xlink:title="A ``BaseExpression`` is a base&#45;class for all expressions.">
<polygon fill="none" stroke="#000000" stroke-width=".5" points="413,-19 182,-19 182,0 413,0 413,-19"/>
<text text-anchor="middle" x="297.5" y="-7" font-family="Vera Sans, DejaVu Sans, Liberation Sans, Arial, Helvetica, sans" font-size="10.00" fill="#000000">pyVHDLModel.SyntaxModel.BaseExpression</text>
</a>
</g>
</g>
<!-- pyVHDLModel.ModelEntity&#45;&gt;pyVHDLModel.SyntaxModel.BaseExpression -->
<g id="edge3" class="edge">
<title>pyVHDLModel.ModelEntity&#45;&gt;pyVHDLModel.SyntaxModel.BaseExpression</title>
<path fill="none" stroke="#000000" stroke-width=".5" d="M146.1991,-9.5C155.9857,-9.5 166.2247,-9.5 176.5627,-9.5"/>
<polygon fill="#000000" stroke="#000000" stroke-width=".5" points="176.6441,-11.2501 181.644,-9.5 176.644,-7.7501 176.6441,-11.2501"/>
</g>
<!-- pyVHDLModel.SyntaxModel.Literal -->
<g id="node6" class="node">
<title>pyVHDLModel.SyntaxModel.Literal</title>
<g id="a_node6"><a xlink:title="A ``Literal`` is a base&#45;class for all literals.">
<polygon fill="none" stroke="#000000" stroke-width=".5" points="634,-19 449,-19 449,0 634,0 634,-19"/>
<text text-anchor="middle" x="541.5" y="-7" font-family="Vera Sans, DejaVu Sans, Liberation Sans, Arial, Helvetica, sans" font-size="10.00" fill="#000000">pyVHDLModel.SyntaxModel.Literal</text>
</a>
</g>
</g>
<!-- pyVHDLModel.SyntaxModel.BaseExpression&#45;&gt;pyVHDLModel.SyntaxModel.Literal -->
<g id="edge4" class="edge">
<title>pyVHDLModel.SyntaxModel.BaseExpression&#45;&gt;pyVHDLModel.SyntaxModel.Literal</title>
<path fill="none" stroke="#000000" stroke-width=".5" d="M413.0691,-9.5C423.2436,-9.5 433.478,-9.5 443.4881,-9.5"/>
<polygon fill="#000000" stroke="#000000" stroke-width=".5" points="443.7009,-11.2501 448.7008,-9.5 443.7008,-7.7501 443.7009,-11.2501"/>
</g>
<!-- pyVHDLModel.SyntaxModel.NumericLiteral -->
<g id="node7" class="node">
<title>pyVHDLModel.SyntaxModel.NumericLiteral</title>
<g id="a_node7"><a xlink:title="A ``NumericLiteral`` is a base&#45;class for all numeric literals.">
<polygon fill="none" stroke="#000000" stroke-width=".5" points="896,-19 670,-19 670,0 896,0 896,-19"/>
<text text-anchor="middle" x="783" y="-7" font-family="Vera Sans, DejaVu Sans, Liberation Sans, Arial, Helvetica, sans" font-size="10.00" fill="#000000">pyVHDLModel.SyntaxModel.NumericLiteral</text>
</a>
</g>
</g>
<!-- pyVHDLModel.SyntaxModel.Literal&#45;&gt;pyVHDLModel.SyntaxModel.NumericLiteral -->
<g id="edge5" class="edge">
<title>pyVHDLModel.SyntaxModel.Literal&#45;&gt;pyVHDLModel.SyntaxModel.NumericLiteral</title>
<path fill="none" stroke="#000000" stroke-width=".5" d="M634.1795,-9.5C644.2389,-9.5 654.5734,-9.5 664.8823,-9.5"/>
<polygon fill="#000000" stroke="#000000" stroke-width=".5" points="664.9397,-11.2501 669.9396,-9.5 664.9396,-7.7501 664.9397,-11.2501"/>
</g>
<!-- pyVHDLModel.SyntaxModel.PhysicalLiteral -->
<g id="node8" class="node">
<title>pyVHDLModel.SyntaxModel.PhysicalLiteral</title>
<polygon fill="none" stroke="#000000" stroke-width=".5" points="1157,-19 932,-19 932,0 1157,0 1157,-19"/>
<text text-anchor="middle" x="1044.5" y="-7" font-family="Vera Sans, DejaVu Sans, Liberation Sans, Arial, Helvetica, sans" font-size="10.00" fill="#000000">pyVHDLModel.SyntaxModel.PhysicalLiteral</text>
</g>
<!-- pyVHDLModel.SyntaxModel.NumericLiteral&#45;&gt;pyVHDLModel.SyntaxModel.PhysicalLiteral -->
<g id="edge7" class="edge">
<title>pyVHDLModel.SyntaxModel.NumericLiteral&#45;&gt;pyVHDLModel.SyntaxModel.PhysicalLiteral</title>
<path fill="none" stroke="#000000" stroke-width=".5" d="M896.1768,-9.5C906.3784,-9.5 916.7253,-9.5 926.9631,-9.5"/>
<polygon fill="#000000" stroke="#000000" stroke-width=".5" points="926.9791,-11.2501 931.979,-9.5 926.979,-7.7501 926.9791,-11.2501"/>
</g>
<!-- pyVHDLModel.SyntaxModel.PhysicalLiteral&#45;&gt;pyVHDLModel.SyntaxModel.PhysicalFloatingLiteral -->
<g id="edge6" class="edge">
<title>pyVHDLModel.SyntaxModel.PhysicalLiteral&#45;&gt;pyVHDLModel.SyntaxModel.PhysicalFloatingLiteral</title>
<path fill="none" stroke="#000000" stroke-width=".5" d="M1157.3776,-9.5C1167.4512,-9.5 1177.7208,-9.5 1187.9675,-9.5"/>
<polygon fill="#000000" stroke="#000000" stroke-width=".5" points="1187.9949,-11.2501 1192.9948,-9.5 1187.9948,-7.7501 1187.9949,-11.2501"/>
</g>
</g>
</svg>
