<?xml version="1.0" encoding="UTF-8" standalone="no"?>
<!DOCTYPE svg PUBLIC "-//W3C//DTD SVG 1.1//EN"
 "http://www.w3.org/Graphics/SVG/1.1/DTD/svg11.dtd">
<!-- Generated by graphviz version 2.40.1 (20161225.0304)
 -->
<!-- Title: inheritancebac45984bc Pages: 1 -->
<svg width="576pt" height="23pt"
 viewBox="0.00 0.00 576.00 23.23" xmlns="http://www.w3.org/2000/svg" xmlns:xlink="http://www.w3.org/1999/xlink">
<g id="graph0" class="graph" transform="scale(.3629 .3629) rotate(0) translate(4 60)">
<title>inheritancebac45984bc</title>
<polygon fill="#ffffff" stroke="transparent" points="-4,4 -4,-60 1583,-60 1583,4 -4,4"/>
<!-- pyGHDL.dom.DOMMixin -->
<g id="node1" class="node">
<title>pyGHDL.dom.DOMMixin</title>
<g id="a_node1"><a xlink:href="../pyGHDL.dom.html#pyGHDL.dom.DOMMixin" xlink:title="pyGHDL.dom.DOMMixin" target="_top">
<polygon fill="none" stroke="#000000" stroke-width=".5" points="1207,-56 1073,-56 1073,-37 1207,-37 1207,-56"/>
<text text-anchor="middle" x="1140" y="-44" font-family="Vera Sans, DejaVu Sans, Liberation Sans, Arial, Helvetica, sans" font-size="10.00" fill="#000000">pyGHDL.dom.DOMMixin</text>
</a>
</g>
</g>
<!-- pyGHDL.dom.Expression.ConcatenationExpression -->
<g id="node2" class="node">
<title>pyGHDL.dom.Expression.ConcatenationExpression</title>
<g id="a_node2"><a xlink:href="../pyGHDL/pyGHDL.dom.Expression.html#pyGHDL.dom.Expression.ConcatenationExpression" xlink:title="pyGHDL.dom.Expression.ConcatenationExpression" target="_top">
<polygon fill="none" stroke="#000000" stroke-width=".5" points="1579,-37 1315,-37 1315,-18 1579,-18 1579,-37"/>
<text text-anchor="middle" x="1447" y="-25" font-family="Vera Sans, DejaVu Sans, Liberation Sans, Arial, Helvetica, sans" font-size="10.00" fill="#000000">pyGHDL.dom.Expression.ConcatenationExpression</text>
</a>
</g>
</g>
<!-- pyGHDL.dom.DOMMixin&#45;&gt;pyGHDL.dom.Expression.ConcatenationExpression -->
<g id="edge2" class="edge">
<title>pyGHDL.dom.DOMMixin&#45;&gt;pyGHDL.dom.Expression.ConcatenationExpression</title>
<path fill="none" stroke="#000000" stroke-width=".5" d="M1207.3725,-42.3304C1237.4858,-40.4667 1274.1378,-38.1983 1309.627,-36.0019"/>
<polygon fill="#000000" stroke="#000000" stroke-width=".5" points="1309.9715,-37.734 1314.8538,-35.6784 1309.7552,-34.2407 1309.9715,-37.734"/>
</g>
<!-- pyVHDLModel.SyntaxModel.ConcatenationExpression -->
<g id="node3" class="node">
<title>pyVHDLModel.SyntaxModel.ConcatenationExpression</title>
<polygon fill="none" stroke="#000000" stroke-width=".5" points="1279,-19 1001,-19 1001,0 1279,0 1279,-19"/>
<text text-anchor="middle" x="1140" y="-7" font-family="Vera Sans, DejaVu Sans, Liberation Sans, Arial, Helvetica, sans" font-size="10.00" fill="#000000">pyVHDLModel.SyntaxModel.ConcatenationExpression</text>
</g>
<!-- pyVHDLModel.SyntaxModel.ConcatenationExpression&#45;&gt;pyGHDL.dom.Expression.ConcatenationExpression -->
<g id="edge1" class="edge">
<title>pyVHDLModel.SyntaxModel.ConcatenationExpression&#45;&gt;pyGHDL.dom.Expression.ConcatenationExpression</title>
<path fill="none" stroke="#000000" stroke-width=".5" d="M1279.1281,-17.6573C1289.3535,-18.2569 1299.6648,-18.8615 1309.8782,-19.4603"/>
<polygon fill="#000000" stroke="#000000" stroke-width=".5" points="1309.7895,-21.208 1314.8834,-19.7537 1309.9944,-17.714 1309.7895,-21.208"/>
</g>
<!-- pyVHDLModel.ModelEntity -->
<g id="node4" class="node">
<title>pyVHDLModel.ModelEntity</title>
<g id="a_node4"><a xlink:title="``ModelEntity`` is the base class for all classes in the VHDL language model,">
<polygon fill="none" stroke="#000000" stroke-width=".5" points="146,-19 0,-19 0,0 146,0 146,-19"/>
<text text-anchor="middle" x="73" y="-7" font-family="Vera Sans, DejaVu Sans, Liberation Sans, Arial, Helvetica, sans" font-size="10.00" fill="#000000">pyVHDLModel.ModelEntity</text>
</a>
</g>
</g>
<!-- pyVHDLModel.SyntaxModel.BaseExpression -->
<g id="node7" class="node">
<title>pyVHDLModel.SyntaxModel.BaseExpression</title>
<g id="a_node7"><a xlink:title="A ``BaseExpression`` is a base&#45;class for all expressions.">
<polygon fill="none" stroke="#000000" stroke-width=".5" points="413,-19 182,-19 182,0 413,0 413,-19"/>
<text text-anchor="middle" x="297.5" y="-7" font-family="Vera Sans, DejaVu Sans, Liberation Sans, Arial, Helvetica, sans" font-size="10.00" fill="#000000">pyVHDLModel.SyntaxModel.BaseExpression</text>
</a>
</g>
</g>
<!-- pyVHDLModel.ModelEntity&#45;&gt;pyVHDLModel.SyntaxModel.BaseExpression -->
<g id="edge4" class="edge">
<title>pyVHDLModel.ModelEntity&#45;&gt;pyVHDLModel.SyntaxModel.BaseExpression</title>
<path fill="none" stroke="#000000" stroke-width=".5" d="M146.1991,-9.5C155.9857,-9.5 166.2247,-9.5 176.5627,-9.5"/>
<polygon fill="#000000" stroke="#000000" stroke-width=".5" points="176.6441,-11.2501 181.644,-9.5 176.644,-7.7501 176.6441,-11.2501"/>
</g>
<!-- pyVHDLModel.SyntaxModel.AddingExpression -->
<g id="node5" class="node">
<title>pyVHDLModel.SyntaxModel.AddingExpression</title>
<g id="a_node5"><a xlink:title="A ``AddingExpression`` is a base&#45;class for all adding expressions.">
<polygon fill="none" stroke="#000000" stroke-width=".5" points="965,-19 724,-19 724,0 965,0 965,-19"/>
<text text-anchor="middle" x="844.5" y="-7" font-family="Vera Sans, DejaVu Sans, Liberation Sans, Arial, Helvetica, sans" font-size="10.00" fill="#000000">pyVHDLModel.SyntaxModel.AddingExpression</text>
</a>
</g>
</g>
<!-- pyVHDLModel.SyntaxModel.AddingExpression&#45;&gt;pyVHDLModel.SyntaxModel.ConcatenationExpression -->
<g id="edge6" class="edge">
<title>pyVHDLModel.SyntaxModel.AddingExpression&#45;&gt;pyVHDLModel.SyntaxModel.ConcatenationExpression</title>
<path fill="none" stroke="#000000" stroke-width=".5" d="M965.1174,-9.5C975.2662,-9.5 985.5918,-9.5 995.8938,-9.5"/>
<polygon fill="#000000" stroke="#000000" stroke-width=".5" points="995.9484,-11.2501 1000.9484,-9.5 995.9484,-7.7501 995.9484,-11.2501"/>
</g>
<!-- pyVHDLModel.SyntaxModel.BinaryExpression -->
<g id="node6" class="node">
<title>pyVHDLModel.SyntaxModel.BinaryExpression</title>
<g id="a_node6"><a xlink:title="A ``BinaryExpression`` is a base&#45;class for all binary expressions.">
<polygon fill="none" stroke="#000000" stroke-width=".5" points="688,-19 449,-19 449,0 688,0 688,-19"/>
<text text-anchor="middle" x="568.5" y="-7" font-family="Vera Sans, DejaVu Sans, Liberation Sans, Arial, Helvetica, sans" font-size="10.00" fill="#000000">pyVHDLModel.SyntaxModel.BinaryExpression</text>
</a>
</g>
</g>
<!-- pyVHDLModel.SyntaxModel.BinaryExpression&#45;&gt;pyVHDLModel.SyntaxModel.AddingExpression -->
<g id="edge3" class="edge">
<title>pyVHDLModel.SyntaxModel.BinaryExpression&#45;&gt;pyVHDLModel.SyntaxModel.AddingExpression</title>
<path fill="none" stroke="#000000" stroke-width=".5" d="M688.3535,-9.5C698.388,-9.5 708.5529,-9.5 718.6307,-9.5"/>
<polygon fill="#000000" stroke="#000000" stroke-width=".5" points="718.8918,-11.2501 723.8917,-9.5 718.8917,-7.7501 718.8918,-11.2501"/>
</g>
<!-- pyVHDLModel.SyntaxModel.BaseExpression&#45;&gt;pyVHDLModel.SyntaxModel.BinaryExpression -->
<g id="edge5" class="edge">
<title>pyVHDLModel.SyntaxModel.BaseExpression&#45;&gt;pyVHDLModel.SyntaxModel.BinaryExpression</title>
<path fill="none" stroke="#000000" stroke-width=".5" d="M413.2145,-9.5C423.3522,-9.5 433.6409,-9.5 443.8471,-9.5"/>
<polygon fill="#000000" stroke="#000000" stroke-width=".5" points="443.8497,-11.2501 448.8497,-9.5 443.8496,-7.7501 443.8497,-11.2501"/>
</g>
</g>
</svg>
