<?xml version="1.0" encoding="UTF-8" standalone="no"?>
<!DOCTYPE svg PUBLIC "-//W3C//DTD SVG 1.1//EN"
 "http://www.w3.org/Graphics/SVG/1.1/DTD/svg11.dtd">
<!-- Generated by graphviz version 2.40.1 (20161225.0304)
 -->
<!-- Title: inheritancec4822c4574 Pages: 1 -->
<svg width="576pt" height="55pt"
 viewBox="0.00 0.00 576.00 54.61" xmlns="http://www.w3.org/2000/svg" xmlns:xlink="http://www.w3.org/1999/xlink">
<g id="graph0" class="graph" transform="scale(.8533 .8533) rotate(0) translate(4 60)">
<title>inheritancec4822c4574</title>
<polygon fill="#ffffff" stroke="transparent" points="-4,4 -4,-60 671,-60 671,4 -4,4"/>
<!-- pyGHDL.dom.DOMMixin -->
<g id="node1" class="node">
<title>pyGHDL.dom.DOMMixin</title>
<g id="a_node1"><a xlink:href="../pyGHDL.dom.html#pyGHDL.dom.DOMMixin" xlink:title="pyGHDL.dom.DOMMixin" target="_top">
<polygon fill="none" stroke="#000000" stroke-width=".5" points="397,-56 263,-56 263,-37 397,-37 397,-56"/>
<text text-anchor="middle" x="330" y="-44" font-family="Vera Sans, DejaVu Sans, Liberation Sans, Arial, Helvetica, sans" font-size="10.00" fill="#000000">pyGHDL.dom.DOMMixin</text>
</a>
</g>
</g>
<!-- pyGHDL.dom.Names.IndexedName -->
<g id="node2" class="node">
<title>pyGHDL.dom.Names.IndexedName</title>
<g id="a_node2"><a xlink:href="../pyGHDL/pyGHDL.dom.Names.html#pyGHDL.dom.Names.IndexedName" xlink:title="pyGHDL.dom.Names.IndexedName" target="_top">
<polygon fill="none" stroke="#000000" stroke-width=".5" points="667,-37 477,-37 477,-18 667,-18 667,-37"/>
<text text-anchor="middle" x="572" y="-25" font-family="Vera Sans, DejaVu Sans, Liberation Sans, Arial, Helvetica, sans" font-size="10.00" fill="#000000">pyGHDL.dom.Names.IndexedName</text>
</a>
</g>
</g>
<!-- pyGHDL.dom.DOMMixin&#45;&gt;pyGHDL.dom.Names.IndexedName -->
<g id="edge2" class="edge">
<title>pyGHDL.dom.DOMMixin&#45;&gt;pyGHDL.dom.Names.IndexedName</title>
<path fill="none" stroke="#000000" stroke-width=".5" d="M397.0891,-41.2327C420.1693,-39.4206 446.539,-37.3502 471.681,-35.3763"/>
<polygon fill="#000000" stroke="#000000" stroke-width=".5" points="471.8441,-37.119 476.6917,-34.9829 471.5701,-33.6297 471.8441,-37.119"/>
</g>
<!-- pyVHDLModel.SyntaxModel.IndexedName -->
<g id="node3" class="node">
<title>pyVHDLModel.SyntaxModel.IndexedName</title>
<polygon fill="none" stroke="#000000" stroke-width=".5" points="441,-19 219,-19 219,0 441,0 441,-19"/>
<text text-anchor="middle" x="330" y="-7" font-family="Vera Sans, DejaVu Sans, Liberation Sans, Arial, Helvetica, sans" font-size="10.00" fill="#000000">pyVHDLModel.SyntaxModel.IndexedName</text>
</g>
<!-- pyVHDLModel.SyntaxModel.IndexedName&#45;&gt;pyGHDL.dom.Names.IndexedName -->
<g id="edge1" class="edge">
<title>pyVHDLModel.SyntaxModel.IndexedName&#45;&gt;pyGHDL.dom.Names.IndexedName</title>
<path fill="none" stroke="#000000" stroke-width=".5" d="M441.0841,-17.7625C451.2418,-18.518 461.4934,-19.2805 471.5498,-20.0285"/>
<polygon fill="#000000" stroke="#000000" stroke-width=".5" points="471.6733,-21.7924 476.7894,-20.4182 471.933,-18.3021 471.6733,-21.7924"/>
</g>
<!-- pyVHDLModel.SyntaxModel.Name -->
<g id="node4" class="node">
<title>pyVHDLModel.SyntaxModel.Name</title>
<g id="a_node4"><a xlink:title="``Name`` is the base class for all *names* in the VHDL language model.">
<polygon fill="none" stroke="#000000" stroke-width=".5" points="183,-19 0,-19 0,0 183,0 183,-19"/>
<text text-anchor="middle" x="91.5" y="-7" font-family="Vera Sans, DejaVu Sans, Liberation Sans, Arial, Helvetica, sans" font-size="10.00" fill="#000000">pyVHDLModel.SyntaxModel.Name</text>
</a>
</g>
</g>
<!-- pyVHDLModel.SyntaxModel.Name&#45;&gt;pyVHDLModel.SyntaxModel.IndexedName -->
<g id="edge3" class="edge">
<title>pyVHDLModel.SyntaxModel.Name&#45;&gt;pyVHDLModel.SyntaxModel.IndexedName</title>
<path fill="none" stroke="#000000" stroke-width=".5" d="M183.0282,-9.5C193.0755,-9.5 203.4007,-9.5 213.6966,-9.5"/>
<polygon fill="#000000" stroke="#000000" stroke-width=".5" points="213.7473,-11.2501 218.7473,-9.5 213.7473,-7.7501 213.7473,-11.2501"/>
</g>
</g>
</svg>
