<?xml version="1.0" encoding="UTF-8" standalone="no"?>
<!DOCTYPE svg PUBLIC "-//W3C//DTD SVG 1.1//EN"
 "http://www.w3.org/Graphics/SVG/1.1/DTD/svg11.dtd">
<!-- Generated by graphviz version 2.40.1 (20161225.0304)
 -->
<!-- Title: inheritance3761b947bb Pages: 1 -->
<svg width="576pt" height="20pt"
 viewBox="0.00 0.00 576.00 19.68" xmlns="http://www.w3.org/2000/svg" xmlns:xlink="http://www.w3.org/1999/xlink">
<g id="graph0" class="graph" transform="scale(.3075 .3075) rotate(0) translate(4 60)">
<title>inheritance3761b947bb</title>
<polygon fill="#ffffff" stroke="transparent" points="-4,4 -4,-60 1869,-60 1869,4 -4,4"/>
<!-- pyGHDL.dom.DOMMixin -->
<g id="node1" class="node">
<title>pyGHDL.dom.DOMMixin</title>
<g id="a_node1"><a xlink:href="../pyGHDL.dom.html#pyGHDL.dom.DOMMixin" xlink:title="pyGHDL.dom.DOMMixin" target="_top">
<polygon fill="none" stroke="#000000" stroke-width=".5" points="1488.5,-56 1354.5,-56 1354.5,-37 1488.5,-37 1488.5,-56"/>
<text text-anchor="middle" x="1421.5" y="-44" font-family="Vera Sans, DejaVu Sans, Liberation Sans, Arial, Helvetica, sans" font-size="10.00" fill="#000000">pyGHDL.dom.DOMMixin</text>
</a>
</g>
</g>
<!-- pyGHDL.dom.Expression.ShiftRightLogicExpression -->
<g id="node2" class="node">
<title>pyGHDL.dom.Expression.ShiftRightLogicExpression</title>
<g id="a_node2"><a xlink:href="../pyGHDL/pyGHDL.dom.Expression.html#pyGHDL.dom.Expression.ShiftRightLogicExpression" xlink:title="pyGHDL.dom.Expression.ShiftRightLogicExpression" target="_top">
<polygon fill="none" stroke="#000000" stroke-width=".5" points="1865,-37 1598,-37 1598,-18 1865,-18 1865,-37"/>
<text text-anchor="middle" x="1731.5" y="-25" font-family="Vera Sans, DejaVu Sans, Liberation Sans, Arial, Helvetica, sans" font-size="10.00" fill="#000000">pyGHDL.dom.Expression.ShiftRightLogicExpression</text>
</a>
</g>
</g>
<!-- pyGHDL.dom.DOMMixin&#45;&gt;pyGHDL.dom.Expression.ShiftRightLogicExpression -->
<g id="edge2" class="edge">
<title>pyGHDL.dom.DOMMixin&#45;&gt;pyGHDL.dom.Expression.ShiftRightLogicExpression</title>
<path fill="none" stroke="#000000" stroke-width=".5" d="M1488.7654,-42.3773C1519.2312,-40.51 1556.4398,-38.2295 1592.4831,-36.0204"/>
<polygon fill="#000000" stroke="#000000" stroke-width=".5" points="1592.9081,-37.7477 1597.7916,-35.695 1592.6939,-34.2543 1592.9081,-37.7477"/>
</g>
<!-- pyVHDLModel.SyntaxModel.ShiftRightLogicExpression -->
<g id="node3" class="node">
<title>pyVHDLModel.SyntaxModel.ShiftRightLogicExpression</title>
<polygon fill="none" stroke="#000000" stroke-width=".5" points="1562,-19 1281,-19 1281,0 1562,0 1562,-19"/>
<text text-anchor="middle" x="1421.5" y="-7" font-family="Vera Sans, DejaVu Sans, Liberation Sans, Arial, Helvetica, sans" font-size="10.00" fill="#000000">pyVHDLModel.SyntaxModel.ShiftRightLogicExpression</text>
</g>
<!-- pyVHDLModel.SyntaxModel.ShiftRightLogicExpression&#45;&gt;pyGHDL.dom.Expression.ShiftRightLogicExpression -->
<g id="edge1" class="edge">
<title>pyVHDLModel.SyntaxModel.ShiftRightLogicExpression&#45;&gt;pyGHDL.dom.Expression.ShiftRightLogicExpression</title>
<path fill="none" stroke="#000000" stroke-width=".5" d="M1562.4401,-17.6836C1572.519,-18.2688 1582.6779,-18.8587 1592.7444,-19.4432"/>
<polygon fill="#000000" stroke="#000000" stroke-width=".5" points="1592.9061,-21.2055 1597.9991,-19.7483 1593.109,-17.7114 1592.9061,-21.2055"/>
</g>
<!-- pyVHDLModel.ModelEntity -->
<g id="node4" class="node">
<title>pyVHDLModel.ModelEntity</title>
<g id="a_node4"><a xlink:title="``ModelEntity`` is the base class for all classes in the VHDL language model,">
<polygon fill="none" stroke="#000000" stroke-width=".5" points="146,-19 0,-19 0,0 146,0 146,-19"/>
<text text-anchor="middle" x="73" y="-7" font-family="Vera Sans, DejaVu Sans, Liberation Sans, Arial, Helvetica, sans" font-size="10.00" fill="#000000">pyVHDLModel.ModelEntity</text>
</a>
</g>
</g>
<!-- pyVHDLModel.SyntaxModel.BaseExpression -->
<g id="node5" class="node">
<title>pyVHDLModel.SyntaxModel.BaseExpression</title>
<g id="a_node5"><a xlink:title="A ``BaseExpression`` is a base&#45;class for all expressions.">
<polygon fill="none" stroke="#000000" stroke-width=".5" points="413,-19 182,-19 182,0 413,0 413,-19"/>
<text text-anchor="middle" x="297.5" y="-7" font-family="Vera Sans, DejaVu Sans, Liberation Sans, Arial, Helvetica, sans" font-size="10.00" fill="#000000">pyVHDLModel.SyntaxModel.BaseExpression</text>
</a>
</g>
</g>
<!-- pyVHDLModel.ModelEntity&#45;&gt;pyVHDLModel.SyntaxModel.BaseExpression -->
<g id="edge3" class="edge">
<title>pyVHDLModel.ModelEntity&#45;&gt;pyVHDLModel.SyntaxModel.BaseExpression</title>
<path fill="none" stroke="#000000" stroke-width=".5" d="M146.1991,-9.5C155.9857,-9.5 166.2247,-9.5 176.5627,-9.5"/>
<polygon fill="#000000" stroke="#000000" stroke-width=".5" points="176.6441,-11.2501 181.644,-9.5 176.644,-7.7501 176.6441,-11.2501"/>
</g>
<!-- pyVHDLModel.SyntaxModel.BinaryExpression -->
<g id="node6" class="node">
<title>pyVHDLModel.SyntaxModel.BinaryExpression</title>
<g id="a_node6"><a xlink:title="A ``BinaryExpression`` is a base&#45;class for all binary expressions.">
<polygon fill="none" stroke="#000000" stroke-width=".5" points="688,-19 449,-19 449,0 688,0 688,-19"/>
<text text-anchor="middle" x="568.5" y="-7" font-family="Vera Sans, DejaVu Sans, Liberation Sans, Arial, Helvetica, sans" font-size="10.00" fill="#000000">pyVHDLModel.SyntaxModel.BinaryExpression</text>
</a>
</g>
</g>
<!-- pyVHDLModel.SyntaxModel.BaseExpression&#45;&gt;pyVHDLModel.SyntaxModel.BinaryExpression -->
<g id="edge4" class="edge">
<title>pyVHDLModel.SyntaxModel.BaseExpression&#45;&gt;pyVHDLModel.SyntaxModel.BinaryExpression</title>
<path fill="none" stroke="#000000" stroke-width=".5" d="M413.2145,-9.5C423.3522,-9.5 433.6409,-9.5 443.8471,-9.5"/>
<polygon fill="#000000" stroke="#000000" stroke-width=".5" points="443.8497,-11.2501 448.8497,-9.5 443.8496,-7.7501 443.8497,-11.2501"/>
</g>
<!-- pyVHDLModel.SyntaxModel.ShiftExpression -->
<g id="node7" class="node">
<title>pyVHDLModel.SyntaxModel.ShiftExpression</title>
<g id="a_node7"><a xlink:title="A ``ShiftExpression`` is a base&#45;class for all shifting expressions.">
<polygon fill="none" stroke="#000000" stroke-width=".5" points="954,-19 724,-19 724,0 954,0 954,-19"/>
<text text-anchor="middle" x="839" y="-7" font-family="Vera Sans, DejaVu Sans, Liberation Sans, Arial, Helvetica, sans" font-size="10.00" fill="#000000">pyVHDLModel.SyntaxModel.ShiftExpression</text>
</a>
</g>
</g>
<!-- pyVHDLModel.SyntaxModel.BinaryExpression&#45;&gt;pyVHDLModel.SyntaxModel.ShiftExpression -->
<g id="edge5" class="edge">
<title>pyVHDLModel.SyntaxModel.BinaryExpression&#45;&gt;pyVHDLModel.SyntaxModel.ShiftExpression</title>
<path fill="none" stroke="#000000" stroke-width=".5" d="M688.3265,-9.5C698.3147,-9.5 708.4166,-9.5 718.4104,-9.5"/>
<polygon fill="#000000" stroke="#000000" stroke-width=".5" points="718.6255,-11.2501 723.6255,-9.5 718.6255,-7.7501 718.6255,-11.2501"/>
</g>
<!-- pyVHDLModel.SyntaxModel.ShiftLogicExpression -->
<g id="node8" class="node">
<title>pyVHDLModel.SyntaxModel.ShiftLogicExpression</title>
<polygon fill="none" stroke="#000000" stroke-width=".5" points="1245,-19 990,-19 990,0 1245,0 1245,-19"/>
<text text-anchor="middle" x="1117.5" y="-7" font-family="Vera Sans, DejaVu Sans, Liberation Sans, Arial, Helvetica, sans" font-size="10.00" fill="#000000">pyVHDLModel.SyntaxModel.ShiftLogicExpression</text>
</g>
<!-- pyVHDLModel.SyntaxModel.ShiftExpression&#45;&gt;pyVHDLModel.SyntaxModel.ShiftLogicExpression -->
<g id="edge6" class="edge">
<title>pyVHDLModel.SyntaxModel.ShiftExpression&#45;&gt;pyVHDLModel.SyntaxModel.ShiftLogicExpression</title>
<path fill="none" stroke="#000000" stroke-width=".5" d="M954.287,-9.5C964.2265,-9.5 974.334,-9.5 984.3986,-9.5"/>
<polygon fill="#000000" stroke="#000000" stroke-width=".5" points="984.6567,-11.2501 989.6567,-9.5 984.6567,-7.7501 984.6567,-11.2501"/>
</g>
<!-- pyVHDLModel.SyntaxModel.ShiftLogicExpression&#45;&gt;pyVHDLModel.SyntaxModel.ShiftRightLogicExpression -->
<g id="edge7" class="edge">
<title>pyVHDLModel.SyntaxModel.ShiftLogicExpression&#45;&gt;pyVHDLModel.SyntaxModel.ShiftRightLogicExpression</title>
<path fill="none" stroke="#000000" stroke-width=".5" d="M1245.102,-9.5C1255.2955,-9.5 1265.6393,-9.5 1275.9435,-9.5"/>
<polygon fill="#000000" stroke="#000000" stroke-width=".5" points="1275.9979,-11.2501 1280.9979,-9.5 1275.9979,-7.7501 1275.9979,-11.2501"/>
</g>
</g>
</svg>
