<?xml version="1.0" encoding="UTF-8" standalone="no"?>
<!DOCTYPE svg PUBLIC "-//W3C//DTD SVG 1.1//EN"
 "http://www.w3.org/Graphics/SVG/1.1/DTD/svg11.dtd">
<!-- Generated by graphviz version 2.40.1 (20161225.0304)
 -->
<!-- Title: inheritance189dbf21a2 Pages: 1 -->
<svg width="576pt" height="36pt"
 viewBox="0.00 0.00 576.00 36.07" xmlns="http://www.w3.org/2000/svg" xmlns:xlink="http://www.w3.org/1999/xlink">
<g id="graph0" class="graph" transform="scale(.5636 .5636) rotate(0) translate(4 60)">
<title>inheritance189dbf21a2</title>
<polygon fill="#ffffff" stroke="transparent" points="-4,4 -4,-60 1018,-60 1018,4 -4,4"/>
<!-- pyGHDL.dom.Concurrent.GenericAssociationItem -->
<g id="node1" class="node">
<title>pyGHDL.dom.Concurrent.GenericAssociationItem</title>
<g id="a_node1"><a xlink:href="../pyGHDL/pyGHDL.dom.Concurrent.html#pyGHDL.dom.Concurrent.GenericAssociationItem" xlink:title="pyGHDL.dom.Concurrent.GenericAssociationItem" target="_top">
<polygon fill="none" stroke="#000000" stroke-width=".5" points="1014,-37 757,-37 757,-18 1014,-18 1014,-37"/>
<text text-anchor="middle" x="885.5" y="-25" font-family="Vera Sans, DejaVu Sans, Liberation Sans, Arial, Helvetica, sans" font-size="10.00" fill="#000000">pyGHDL.dom.Concurrent.GenericAssociationItem</text>
</a>
</g>
</g>
<!-- pyVHDLModel.SyntaxModel.GenericAssociationItem -->
<g id="node2" class="node">
<title>pyVHDLModel.SyntaxModel.GenericAssociationItem</title>
<polygon fill="none" stroke="#000000" stroke-width=".5" points="721,-56 451,-56 451,-37 721,-37 721,-56"/>
<text text-anchor="middle" x="586" y="-44" font-family="Vera Sans, DejaVu Sans, Liberation Sans, Arial, Helvetica, sans" font-size="10.00" fill="#000000">pyVHDLModel.SyntaxModel.GenericAssociationItem</text>
</g>
<!-- pyVHDLModel.SyntaxModel.GenericAssociationItem&#45;&gt;pyGHDL.dom.Concurrent.GenericAssociationItem -->
<g id="edge1" class="edge">
<title>pyVHDLModel.SyntaxModel.GenericAssociationItem&#45;&gt;pyGHDL.dom.Concurrent.GenericAssociationItem</title>
<path fill="none" stroke="#000000" stroke-width=".5" d="M721.2923,-37.9172C731.3249,-37.2807 741.4449,-36.6387 751.4699,-36.0027"/>
<polygon fill="#000000" stroke="#000000" stroke-width=".5" points="751.8236,-37.7339 756.7027,-35.6708 751.6019,-34.2409 751.8236,-37.7339"/>
</g>
<!-- pyGHDL.dom.DOMMixin -->
<g id="node3" class="node">
<title>pyGHDL.dom.DOMMixin</title>
<g id="a_node3"><a xlink:href="../pyGHDL.dom.html#pyGHDL.dom.DOMMixin" xlink:title="pyGHDL.dom.DOMMixin" target="_top">
<polygon fill="none" stroke="#000000" stroke-width=".5" points="653,-19 519,-19 519,0 653,0 653,-19"/>
<text text-anchor="middle" x="586" y="-7" font-family="Vera Sans, DejaVu Sans, Liberation Sans, Arial, Helvetica, sans" font-size="10.00" fill="#000000">pyGHDL.dom.DOMMixin</text>
</a>
</g>
</g>
<!-- pyGHDL.dom.DOMMixin&#45;&gt;pyGHDL.dom.Concurrent.GenericAssociationItem -->
<g id="edge2" class="edge">
<title>pyGHDL.dom.DOMMixin&#45;&gt;pyGHDL.dom.Concurrent.GenericAssociationItem</title>
<path fill="none" stroke="#000000" stroke-width=".5" d="M653.2136,-13.5396C682.3914,-15.2931 717.6486,-17.4121 751.7819,-19.4635"/>
<polygon fill="#000000" stroke="#000000" stroke-width=".5" points="751.7129,-21.2124 756.8089,-19.7656 751.9229,-17.7187 751.7129,-21.2124"/>
</g>
<!-- pyVHDLModel.ModelEntity -->
<g id="node4" class="node">
<title>pyVHDLModel.ModelEntity</title>
<g id="a_node4"><a xlink:title="``ModelEntity`` is the base class for all classes in the VHDL language model,">
<polygon fill="none" stroke="#000000" stroke-width=".5" points="146,-56 0,-56 0,-37 146,-37 146,-56"/>
<text text-anchor="middle" x="73" y="-44" font-family="Vera Sans, DejaVu Sans, Liberation Sans, Arial, Helvetica, sans" font-size="10.00" fill="#000000">pyVHDLModel.ModelEntity</text>
</a>
</g>
</g>
<!-- pyVHDLModel.SyntaxModel.AssociationItem -->
<g id="node5" class="node">
<title>pyVHDLModel.SyntaxModel.AssociationItem</title>
<polygon fill="none" stroke="#000000" stroke-width=".5" points="415,-56 182,-56 182,-37 415,-37 415,-56"/>
<text text-anchor="middle" x="298.5" y="-44" font-family="Vera Sans, DejaVu Sans, Liberation Sans, Arial, Helvetica, sans" font-size="10.00" fill="#000000">pyVHDLModel.SyntaxModel.AssociationItem</text>
</g>
<!-- pyVHDLModel.ModelEntity&#45;&gt;pyVHDLModel.SyntaxModel.AssociationItem -->
<g id="edge3" class="edge">
<title>pyVHDLModel.ModelEntity&#45;&gt;pyVHDLModel.SyntaxModel.AssociationItem</title>
<path fill="none" stroke="#000000" stroke-width=".5" d="M146.2134,-46.5C156.0495,-46.5 166.3452,-46.5 176.7438,-46.5"/>
<polygon fill="#000000" stroke="#000000" stroke-width=".5" points="176.8552,-48.2501 181.8552,-46.5 176.8552,-44.7501 176.8552,-48.2501"/>
</g>
<!-- pyVHDLModel.SyntaxModel.AssociationItem&#45;&gt;pyVHDLModel.SyntaxModel.GenericAssociationItem -->
<g id="edge4" class="edge">
<title>pyVHDLModel.SyntaxModel.AssociationItem&#45;&gt;pyVHDLModel.SyntaxModel.GenericAssociationItem</title>
<path fill="none" stroke="#000000" stroke-width=".5" d="M415.0228,-46.5C425.1889,-46.5 435.5435,-46.5 445.8732,-46.5"/>
<polygon fill="#000000" stroke="#000000" stroke-width=".5" points="445.9413,-48.2501 450.9412,-46.5 445.9412,-44.7501 445.9413,-48.2501"/>
</g>
</g>
</svg>
