<?xml version="1.0" encoding="UTF-8" standalone="no"?>
<!DOCTYPE svg PUBLIC "-//W3C//DTD SVG 1.1//EN"
 "http://www.w3.org/Graphics/SVG/1.1/DTD/svg11.dtd">
<!-- Generated by graphviz version 2.40.1 (20161225.0304)
 -->
<!-- Title: inheritancec9368e6409 Pages: 1 -->
<svg width="576pt" height="37pt"
 viewBox="0.00 0.00 576.00 37.28" xmlns="http://www.w3.org/2000/svg" xmlns:xlink="http://www.w3.org/1999/xlink">
<g id="graph0" class="graph" transform="scale(.4546 .4546) rotate(0) translate(4 78)">
<title>inheritancec9368e6409</title>
<polygon fill="#ffffff" stroke="transparent" points="-4,4 -4,-78 1263,-78 1263,4 -4,4"/>
<!-- pyGHDL.dom.DOMMixin -->
<g id="node1" class="node">
<title>pyGHDL.dom.DOMMixin</title>
<g id="a_node1"><a xlink:href="../pyGHDL.dom.html#pyGHDL.dom.DOMMixin" xlink:title="pyGHDL.dom.DOMMixin" target="_top">
<polygon fill="none" stroke="#000000" stroke-width=".5" points="927.5,-74 793.5,-74 793.5,-55 927.5,-55 927.5,-74"/>
<text text-anchor="middle" x="860.5" y="-62" font-family="Vera Sans, DejaVu Sans, Liberation Sans, Arial, Helvetica, sans" font-size="10.00" fill="#000000">pyGHDL.dom.DOMMixin</text>
</a>
</g>
</g>
<!-- pyGHDL.dom.Expression.ParenthesisExpression -->
<g id="node2" class="node">
<title>pyGHDL.dom.Expression.ParenthesisExpression</title>
<g id="a_node2"><a xlink:href="../pyGHDL/pyGHDL.dom.Expression.html#pyGHDL.dom.Expression.ParenthesisExpression" xlink:title="pyGHDL.dom.Expression.ParenthesisExpression" target="_top">
<polygon fill="none" stroke="#000000" stroke-width=".5" points="1259,-55 1009,-55 1009,-36 1259,-36 1259,-55"/>
<text text-anchor="middle" x="1134" y="-43" font-family="Vera Sans, DejaVu Sans, Liberation Sans, Arial, Helvetica, sans" font-size="10.00" fill="#000000">pyGHDL.dom.Expression.ParenthesisExpression</text>
</a>
</g>
</g>
<!-- pyGHDL.dom.DOMMixin&#45;&gt;pyGHDL.dom.Expression.ParenthesisExpression -->
<g id="edge2" class="edge">
<title>pyGHDL.dom.DOMMixin&#45;&gt;pyGHDL.dom.Expression.ParenthesisExpression</title>
<path fill="none" stroke="#000000" stroke-width=".5" d="M927.7559,-59.8277C950.7394,-58.2311 977.2897,-56.3866 1003.5311,-54.5637"/>
<polygon fill="#000000" stroke="#000000" stroke-width=".5" points="1003.9074,-56.2918 1008.7741,-54.1994 1003.6648,-52.8002 1003.9074,-56.2918"/>
</g>
<!-- pyVHDLModel.SyntaxModel.SubExpression -->
<g id="node3" class="node">
<title>pyVHDLModel.SyntaxModel.SubExpression</title>
<polygon fill="none" stroke="#000000" stroke-width=".5" points="973,-37 748,-37 748,-18 973,-18 973,-37"/>
<text text-anchor="middle" x="860.5" y="-25" font-family="Vera Sans, DejaVu Sans, Liberation Sans, Arial, Helvetica, sans" font-size="10.00" fill="#000000">pyVHDLModel.SyntaxModel.SubExpression</text>
</g>
<!-- pyVHDLModel.SyntaxModel.SubExpression&#45;&gt;pyGHDL.dom.Expression.ParenthesisExpression -->
<g id="edge1" class="edge">
<title>pyVHDLModel.SyntaxModel.SubExpression&#45;&gt;pyGHDL.dom.Expression.ParenthesisExpression</title>
<path fill="none" stroke="#000000" stroke-width=".5" d="M973.322,-34.9252C983.221,-35.5767 993.2926,-36.2396 1003.3207,-36.8995"/>
<polygon fill="#000000" stroke="#000000" stroke-width=".5" points="1003.4554,-38.6621 1008.5596,-37.2443 1003.6853,-35.1697 1003.4554,-38.6621"/>
</g>
<!-- pyVHDLModel.ModelEntity -->
<g id="node4" class="node">
<title>pyVHDLModel.ModelEntity</title>
<g id="a_node4"><a xlink:title="``ModelEntity`` is the base class for all classes in the VHDL language model,">
<polygon fill="none" stroke="#000000" stroke-width=".5" points="146,-19 0,-19 0,0 146,0 146,-19"/>
<text text-anchor="middle" x="73" y="-7" font-family="Vera Sans, DejaVu Sans, Liberation Sans, Arial, Helvetica, sans" font-size="10.00" fill="#000000">pyVHDLModel.ModelEntity</text>
</a>
</g>
</g>
<!-- pyVHDLModel.SyntaxModel.BaseExpression -->
<g id="node5" class="node">
<title>pyVHDLModel.SyntaxModel.BaseExpression</title>
<g id="a_node5"><a xlink:title="A ``BaseExpression`` is a base&#45;class for all expressions.">
<polygon fill="none" stroke="#000000" stroke-width=".5" points="413,-19 182,-19 182,0 413,0 413,-19"/>
<text text-anchor="middle" x="297.5" y="-7" font-family="Vera Sans, DejaVu Sans, Liberation Sans, Arial, Helvetica, sans" font-size="10.00" fill="#000000">pyVHDLModel.SyntaxModel.BaseExpression</text>
</a>
</g>
</g>
<!-- pyVHDLModel.ModelEntity&#45;&gt;pyVHDLModel.SyntaxModel.BaseExpression -->
<g id="edge3" class="edge">
<title>pyVHDLModel.ModelEntity&#45;&gt;pyVHDLModel.SyntaxModel.BaseExpression</title>
<path fill="none" stroke="#000000" stroke-width=".5" d="M146.1991,-9.5C155.9857,-9.5 166.2247,-9.5 176.5627,-9.5"/>
<polygon fill="#000000" stroke="#000000" stroke-width=".5" points="176.6441,-11.2501 181.644,-9.5 176.644,-7.7501 176.6441,-11.2501"/>
</g>
<!-- pyVHDLModel.SyntaxModel.UnaryExpression -->
<g id="node8" class="node">
<title>pyVHDLModel.SyntaxModel.UnaryExpression</title>
<g id="a_node8"><a xlink:title="A ``UnaryExpression`` is a base&#45;class for all unary expressions.">
<polygon fill="none" stroke="#000000" stroke-width=".5" points="698.5,-19 462.5,-19 462.5,0 698.5,0 698.5,-19"/>
<text text-anchor="middle" x="580.5" y="-7" font-family="Vera Sans, DejaVu Sans, Liberation Sans, Arial, Helvetica, sans" font-size="10.00" fill="#000000">pyVHDLModel.SyntaxModel.UnaryExpression</text>
</a>
</g>
</g>
<!-- pyVHDLModel.SyntaxModel.BaseExpression&#45;&gt;pyVHDLModel.SyntaxModel.UnaryExpression -->
<g id="edge7" class="edge">
<title>pyVHDLModel.SyntaxModel.BaseExpression&#45;&gt;pyVHDLModel.SyntaxModel.UnaryExpression</title>
<path fill="none" stroke="#000000" stroke-width=".5" d="M413.0151,-9.5C427.4439,-9.5 442.2459,-9.5 456.7931,-9.5"/>
<polygon fill="#000000" stroke="#000000" stroke-width=".5" points="457.1399,-11.2501 462.1399,-9.5 457.1398,-7.7501 457.1399,-11.2501"/>
</g>
<!-- pyVHDLModel.SyntaxModel.ParenthesisExpression -->
<g id="node6" class="node">
<title>pyVHDLModel.SyntaxModel.ParenthesisExpression</title>
<polygon fill="none" stroke="#000000" stroke-width=".5" points="712,-56 449,-56 449,-37 712,-37 712,-56"/>
<text text-anchor="middle" x="580.5" y="-44" font-family="Vera Sans, DejaVu Sans, Liberation Sans, Arial, Helvetica, sans" font-size="10.00" fill="#000000">pyVHDLModel.SyntaxModel.ParenthesisExpression</text>
</g>
<!-- pyVHDLModel.SyntaxModel.ParenthesisExpression&#45;&gt;pyVHDLModel.SyntaxModel.SubExpression -->
<g id="edge6" class="edge">
<title>pyVHDLModel.SyntaxModel.ParenthesisExpression&#45;&gt;pyVHDLModel.SyntaxModel.SubExpression</title>
<path fill="none" stroke="#000000" stroke-width=".5" d="M712.301,-37.5564C722.4472,-36.8679 732.651,-36.1755 742.6983,-35.4937"/>
<polygon fill="#000000" stroke="#000000" stroke-width=".5" points="743.067,-37.2228 747.937,-35.1382 742.8299,-33.7308 743.067,-37.2228"/>
</g>
<!-- pyVHDLModel.SyntaxModel.Protocol -->
<g id="node7" class="node">
<title>pyVHDLModel.SyntaxModel.Protocol</title>
<polygon fill="none" stroke="#000000" stroke-width=".5" points="394.5,-56 200.5,-56 200.5,-37 394.5,-37 394.5,-56"/>
<text text-anchor="middle" x="297.5" y="-44" font-family="Vera Sans, DejaVu Sans, Liberation Sans, Arial, Helvetica, sans" font-size="10.00" fill="#000000">pyVHDLModel.SyntaxModel.Protocol</text>
</g>
<!-- pyVHDLModel.SyntaxModel.Protocol&#45;&gt;pyVHDLModel.SyntaxModel.ParenthesisExpression -->
<g id="edge4" class="edge">
<title>pyVHDLModel.SyntaxModel.Protocol&#45;&gt;pyVHDLModel.SyntaxModel.ParenthesisExpression</title>
<path fill="none" stroke="#000000" stroke-width=".5" d="M394.8925,-46.5C410.6863,-46.5 427.2947,-46.5 443.8154,-46.5"/>
<polygon fill="#000000" stroke="#000000" stroke-width=".5" points="443.9387,-48.2501 448.9387,-46.5 443.9387,-44.7501 443.9387,-48.2501"/>
</g>
<!-- pyVHDLModel.SyntaxModel.UnaryExpression&#45;&gt;pyVHDLModel.SyntaxModel.SubExpression -->
<g id="edge5" class="edge">
<title>pyVHDLModel.SyntaxModel.UnaryExpression&#45;&gt;pyVHDLModel.SyntaxModel.SubExpression</title>
<path fill="none" stroke="#000000" stroke-width=".5" d="M698.8394,-17.1075C713.3287,-18.039 728.1353,-18.9908 742.6179,-19.9219"/>
<polygon fill="#000000" stroke="#000000" stroke-width=".5" points="742.8358,-21.6894 747.9378,-20.2639 743.0604,-18.1966 742.8358,-21.6894"/>
</g>
</g>
</svg>
