<?xml version="1.0" encoding="UTF-8" standalone="no"?>
<!DOCTYPE svg PUBLIC "-//W3C//DTD SVG 1.1//EN"
 "http://www.w3.org/Graphics/SVG/1.1/DTD/svg11.dtd">
<!-- Generated by graphviz version 2.40.1 (20161225.0304)
 -->
<!-- Title: inheritanceec0550a951 Pages: 1 -->
<svg width="576pt" height="52pt"
 viewBox="0.00 0.00 576.00 52.36" xmlns="http://www.w3.org/2000/svg" xmlns:xlink="http://www.w3.org/1999/xlink">
<g id="graph0" class="graph" transform="scale(.5236 .5236) rotate(0) translate(4 96)">
<title>inheritanceec0550a951</title>
<polygon fill="#ffffff" stroke="transparent" points="-4,4 -4,-96 1096,-96 1096,4 -4,4"/>
<!-- pyGHDL.dom.DOMMixin -->
<g id="node1" class="node">
<title>pyGHDL.dom.DOMMixin</title>
<g id="a_node1"><a xlink:href="../pyGHDL.dom.html#pyGHDL.dom.DOMMixin" xlink:title="pyGHDL.dom.DOMMixin" target="_top">
<polygon fill="none" stroke="#000000" stroke-width=".5" points="807.5,-92 673.5,-92 673.5,-73 807.5,-73 807.5,-92"/>
<text text-anchor="middle" x="740.5" y="-80" font-family="Vera Sans, DejaVu Sans, Liberation Sans, Arial, Helvetica, sans" font-size="10.00" fill="#000000">pyGHDL.dom.DOMMixin</text>
</a>
</g>
</g>
<!-- pyGHDL.dom.DesignUnit.Configuration -->
<g id="node2" class="node">
<title>pyGHDL.dom.DesignUnit.Configuration</title>
<g id="a_node2"><a xlink:href="../pyGHDL/pyGHDL.dom.DesignUnit.html#pyGHDL.dom.DesignUnit.Configuration" xlink:title="pyGHDL.dom.DesignUnit.Configuration" target="_top">
<polygon fill="none" stroke="#000000" stroke-width=".5" points="1092,-73 886,-73 886,-54 1092,-54 1092,-73"/>
<text text-anchor="middle" x="989" y="-61" font-family="Vera Sans, DejaVu Sans, Liberation Sans, Arial, Helvetica, sans" font-size="10.00" fill="#000000">pyGHDL.dom.DesignUnit.Configuration</text>
</a>
</g>
</g>
<!-- pyGHDL.dom.DOMMixin&#45;&gt;pyGHDL.dom.DesignUnit.Configuration -->
<g id="edge2" class="edge">
<title>pyGHDL.dom.DOMMixin&#45;&gt;pyGHDL.dom.DesignUnit.Configuration</title>
<path fill="none" stroke="#000000" stroke-width=".5" d="M807.7477,-77.3583C830.158,-75.6449 855.727,-73.6899 880.4529,-71.7994"/>
<polygon fill="#000000" stroke="#000000" stroke-width=".5" points="880.8629,-73.5232 885.7149,-71.397 880.596,-70.0334 880.8629,-73.5232"/>
</g>
<!-- pyVHDLModel.SyntaxModel.Configuration -->
<g id="node3" class="node">
<title>pyVHDLModel.SyntaxModel.Configuration</title>
<polygon fill="none" stroke="#000000" stroke-width=".5" points="850,-55 631,-55 631,-36 850,-36 850,-55"/>
<text text-anchor="middle" x="740.5" y="-43" font-family="Vera Sans, DejaVu Sans, Liberation Sans, Arial, Helvetica, sans" font-size="10.00" fill="#000000">pyVHDLModel.SyntaxModel.Configuration</text>
</g>
<!-- pyVHDLModel.SyntaxModel.Configuration&#45;&gt;pyGHDL.dom.DesignUnit.Configuration -->
<g id="edge1" class="edge">
<title>pyVHDLModel.SyntaxModel.Configuration&#45;&gt;pyGHDL.dom.DesignUnit.Configuration</title>
<path fill="none" stroke="#000000" stroke-width=".5" d="M850.2191,-53.4475C860.2945,-54.1773 870.4992,-54.9164 880.5632,-55.6454"/>
<polygon fill="#000000" stroke="#000000" stroke-width=".5" points="880.6984,-57.4097 885.8118,-56.0256 880.9513,-53.9189 880.6984,-57.4097"/>
</g>
<!-- pyVHDLModel.DesignUnit -->
<g id="node4" class="node">
<title>pyVHDLModel.DesignUnit</title>
<g id="a_node4"><a xlink:title="A ``DesignUnit`` is a base&#45;class for all design units.">
<polygon fill="none" stroke="#000000" stroke-width=".5" points="330,-37 188,-37 188,-18 330,-18 330,-37"/>
<text text-anchor="middle" x="259" y="-25" font-family="Vera Sans, DejaVu Sans, Liberation Sans, Arial, Helvetica, sans" font-size="10.00" fill="#000000">pyVHDLModel.DesignUnit</text>
</a>
</g>
</g>
<!-- pyVHDLModel.PrimaryUnit -->
<g id="node8" class="node">
<title>pyVHDLModel.PrimaryUnit</title>
<g id="a_node8"><a xlink:title="A ``PrimaryUnit`` is a base&#45;class for all primary units.">
<polygon fill="none" stroke="#000000" stroke-width=".5" points="553.5,-37 407.5,-37 407.5,-18 553.5,-18 553.5,-37"/>
<text text-anchor="middle" x="480.5" y="-25" font-family="Vera Sans, DejaVu Sans, Liberation Sans, Arial, Helvetica, sans" font-size="10.00" fill="#000000">pyVHDLModel.PrimaryUnit</text>
</a>
</g>
</g>
<!-- pyVHDLModel.DesignUnit&#45;&gt;pyVHDLModel.PrimaryUnit -->
<g id="edge5" class="edge">
<title>pyVHDLModel.DesignUnit&#45;&gt;pyVHDLModel.PrimaryUnit</title>
<path fill="none" stroke="#000000" stroke-width=".5" d="M330.3032,-27.5C353.2305,-27.5 378.7521,-27.5 402.1565,-27.5"/>
<polygon fill="#000000" stroke="#000000" stroke-width=".5" points="402.4284,-29.2501 407.4283,-27.5 402.4283,-25.7501 402.4284,-29.2501"/>
</g>
<!-- pyVHDLModel.ModelEntity -->
<g id="node5" class="node">
<title>pyVHDLModel.ModelEntity</title>
<g id="a_node5"><a xlink:title="``ModelEntity`` is the base class for all classes in the VHDL language model,">
<polygon fill="none" stroke="#000000" stroke-width=".5" points="149,-56 3,-56 3,-37 149,-37 149,-56"/>
<text text-anchor="middle" x="76" y="-44" font-family="Vera Sans, DejaVu Sans, Liberation Sans, Arial, Helvetica, sans" font-size="10.00" fill="#000000">pyVHDLModel.ModelEntity</text>
</a>
</g>
</g>
<!-- pyVHDLModel.ModelEntity&#45;&gt;pyVHDLModel.DesignUnit -->
<g id="edge3" class="edge">
<title>pyVHDLModel.ModelEntity&#45;&gt;pyVHDLModel.DesignUnit</title>
<path fill="none" stroke="#000000" stroke-width=".5" d="M149.1154,-38.9088C160.1661,-37.7614 171.59,-36.5754 182.7058,-35.4213"/>
<polygon fill="#000000" stroke="#000000" stroke-width=".5" points="182.9964,-37.1506 187.789,-34.8935 182.6349,-33.6693 182.9964,-37.1506"/>
</g>
<!-- pyVHDLModel.NamedEntity -->
<g id="node6" class="node">
<title>pyVHDLModel.NamedEntity</title>
<g id="a_node6"><a xlink:title="A ``NamedEntity`` is a mixin class for all VHDL entities that have identifiers.">
<polygon fill="none" stroke="#000000" stroke-width=".5" points="152,-19 0,-19 0,0 152,0 152,-19"/>
<text text-anchor="middle" x="76" y="-7" font-family="Vera Sans, DejaVu Sans, Liberation Sans, Arial, Helvetica, sans" font-size="10.00" fill="#000000">pyVHDLModel.NamedEntity</text>
</a>
</g>
</g>
<!-- pyVHDLModel.NamedEntity&#45;&gt;pyVHDLModel.DesignUnit -->
<g id="edge4" class="edge">
<title>pyVHDLModel.NamedEntity&#45;&gt;pyVHDLModel.DesignUnit</title>
<path fill="none" stroke="#000000" stroke-width=".5" d="M152.0187,-16.9772C162.23,-17.9816 172.7064,-19.0121 182.9189,-20.0166"/>
<polygon fill="#000000" stroke="#000000" stroke-width=".5" points="182.7614,-21.7595 187.9087,-20.5074 183.1041,-18.2763 182.7614,-21.7595"/>
</g>
<!-- pyVHDLModel.MixinDesignUnitWithContext -->
<g id="node7" class="node">
<title>pyVHDLModel.MixinDesignUnitWithContext</title>
<polygon fill="none" stroke="#000000" stroke-width=".5" points="595,-74 366,-74 366,-55 595,-55 595,-74"/>
<text text-anchor="middle" x="480.5" y="-62" font-family="Vera Sans, DejaVu Sans, Liberation Sans, Arial, Helvetica, sans" font-size="10.00" fill="#000000">pyVHDLModel.MixinDesignUnitWithContext</text>
</g>
<!-- pyVHDLModel.MixinDesignUnitWithContext&#45;&gt;pyVHDLModel.SyntaxModel.Configuration -->
<g id="edge7" class="edge">
<title>pyVHDLModel.MixinDesignUnitWithContext&#45;&gt;pyVHDLModel.SyntaxModel.Configuration</title>
<path fill="none" stroke="#000000" stroke-width=".5" d="M595.2966,-56.111C605.375,-55.3745 615.5769,-54.629 625.6556,-53.8925"/>
<polygon fill="#000000" stroke="#000000" stroke-width=".5" points="626.0545,-55.6181 630.9136,-53.5082 625.7994,-52.1274 626.0545,-55.6181"/>
</g>
<!-- pyVHDLModel.PrimaryUnit&#45;&gt;pyVHDLModel.SyntaxModel.Configuration -->
<g id="edge6" class="edge">
<title>pyVHDLModel.PrimaryUnit&#45;&gt;pyVHDLModel.SyntaxModel.Configuration</title>
<path fill="none" stroke="#000000" stroke-width=".5" d="M553.6164,-32.5619C575.912,-34.1054 600.9883,-35.8415 625.3588,-37.5287"/>
<polygon fill="#000000" stroke="#000000" stroke-width=".5" points="625.4383,-39.2883 630.5472,-37.8879 625.68,-35.7966 625.4383,-39.2883"/>
</g>
</g>
</svg>
