<?xml version="1.0" encoding="UTF-8" standalone="no"?>
<!DOCTYPE svg PUBLIC "-//W3C//DTD SVG 1.1//EN"
 "http://www.w3.org/Graphics/SVG/1.1/DTD/svg11.dtd">
<!-- Generated by graphviz version 2.40.1 (20161225.0304)
 -->
<!-- Title: inheritance1472ae11f6 Pages: 1 -->
<svg width="576pt" height="57pt"
 viewBox="0.00 0.00 576.00 56.89" xmlns="http://www.w3.org/2000/svg" xmlns:xlink="http://www.w3.org/1999/xlink">
<g id="graph0" class="graph" transform="scale(.8889 .8889) rotate(0) translate(4 60)">
<title>inheritance1472ae11f6</title>
<polygon fill="#ffffff" stroke="transparent" points="-4,4 -4,-60 644,-60 644,4 -4,4"/>
<!-- pyGHDL.dom.DOMMixin -->
<g id="node1" class="node">
<title>pyGHDL.dom.DOMMixin</title>
<g id="a_node1"><a xlink:href="../pyGHDL.dom.html#pyGHDL.dom.DOMMixin" xlink:title="pyGHDL.dom.DOMMixin" target="_top">
<polygon fill="none" stroke="#000000" stroke-width=".5" points="390.5,-56 256.5,-56 256.5,-37 390.5,-37 390.5,-56"/>
<text text-anchor="middle" x="323.5" y="-44" font-family="Vera Sans, DejaVu Sans, Liberation Sans, Arial, Helvetica, sans" font-size="10.00" fill="#000000">pyGHDL.dom.DOMMixin</text>
</a>
</g>
</g>
<!-- pyGHDL.dom.Names.OpenName -->
<g id="node2" class="node">
<title>pyGHDL.dom.Names.OpenName</title>
<g id="a_node2"><a xlink:href="../pyGHDL/pyGHDL.dom.Names.html#pyGHDL.dom.Names.OpenName" xlink:title="pyGHDL.dom.Names.OpenName" target="_top">
<polygon fill="none" stroke="#000000" stroke-width=".5" points="640,-37 464,-37 464,-18 640,-18 640,-37"/>
<text text-anchor="middle" x="552" y="-25" font-family="Vera Sans, DejaVu Sans, Liberation Sans, Arial, Helvetica, sans" font-size="10.00" fill="#000000">pyGHDL.dom.Names.OpenName</text>
</a>
</g>
</g>
<!-- pyGHDL.dom.DOMMixin&#45;&gt;pyGHDL.dom.Names.OpenName -->
<g id="edge2" class="edge">
<title>pyGHDL.dom.DOMMixin&#45;&gt;pyGHDL.dom.Names.OpenName</title>
<path fill="none" stroke="#000000" stroke-width=".5" d="M390.5136,-40.9278C411.816,-39.1564 435.7777,-37.164 458.5917,-35.267"/>
<polygon fill="#000000" stroke="#000000" stroke-width=".5" points="458.9088,-36.9968 463.7466,-34.8384 458.6188,-33.5088 458.9088,-36.9968"/>
</g>
<!-- pyVHDLModel.SyntaxModel.OpenName -->
<g id="node3" class="node">
<title>pyVHDLModel.SyntaxModel.OpenName</title>
<polygon fill="none" stroke="#000000" stroke-width=".5" points="428,-19 219,-19 219,0 428,0 428,-19"/>
<text text-anchor="middle" x="323.5" y="-7" font-family="Vera Sans, DejaVu Sans, Liberation Sans, Arial, Helvetica, sans" font-size="10.00" fill="#000000">pyVHDLModel.SyntaxModel.OpenName</text>
</g>
<!-- pyVHDLModel.SyntaxModel.OpenName&#45;&gt;pyGHDL.dom.Names.OpenName -->
<g id="edge1" class="edge">
<title>pyVHDLModel.SyntaxModel.OpenName&#45;&gt;pyGHDL.dom.Names.OpenName</title>
<path fill="none" stroke="#000000" stroke-width=".5" d="M428.0536,-17.7362C438.2607,-18.5402 448.5719,-19.3525 458.6579,-20.147"/>
<polygon fill="#000000" stroke="#000000" stroke-width=".5" points="458.788,-21.9126 463.91,-20.5607 459.0629,-18.4234 458.788,-21.9126"/>
</g>
<!-- pyVHDLModel.SyntaxModel.Name -->
<g id="node4" class="node">
<title>pyVHDLModel.SyntaxModel.Name</title>
<g id="a_node4"><a xlink:title="``Name`` is the base class for all *names* in the VHDL language model.">
<polygon fill="none" stroke="#000000" stroke-width=".5" points="183,-19 0,-19 0,0 183,0 183,-19"/>
<text text-anchor="middle" x="91.5" y="-7" font-family="Vera Sans, DejaVu Sans, Liberation Sans, Arial, Helvetica, sans" font-size="10.00" fill="#000000">pyVHDLModel.SyntaxModel.Name</text>
</a>
</g>
</g>
<!-- pyVHDLModel.SyntaxModel.Name&#45;&gt;pyVHDLModel.SyntaxModel.OpenName -->
<g id="edge3" class="edge">
<title>pyVHDLModel.SyntaxModel.Name&#45;&gt;pyVHDLModel.SyntaxModel.OpenName</title>
<path fill="none" stroke="#000000" stroke-width=".5" d="M183.1925,-9.5C193.2063,-9.5 203.4731,-9.5 213.676,-9.5"/>
<polygon fill="#000000" stroke="#000000" stroke-width=".5" points="213.6782,-11.2501 218.6782,-9.5 213.6781,-7.7501 213.6782,-11.2501"/>
</g>
</g>
</svg>
