<?xml version="1.0" encoding="UTF-8" standalone="no"?>
<!DOCTYPE svg PUBLIC "-//W3C//DTD SVG 1.1//EN"
 "http://www.w3.org/Graphics/SVG/1.1/DTD/svg11.dtd">
<!-- Generated by graphviz version 2.40.1 (20161225.0304)
 -->
<!-- Title: inheritance605eaafe46 Pages: 1 -->
<svg width="576pt" height="48pt"
 viewBox="0.00 0.00 576.00 47.68" xmlns="http://www.w3.org/2000/svg" xmlns:xlink="http://www.w3.org/1999/xlink">
<g id="graph0" class="graph" transform="scale(.4768 .4768) rotate(0) translate(4 96)">
<title>inheritance605eaafe46</title>
<polygon fill="#ffffff" stroke="transparent" points="-4,4 -4,-96 1204,-96 1204,4 -4,4"/>
<!-- pyGHDL.dom.DOMMixin -->
<g id="node1" class="node">
<title>pyGHDL.dom.DOMMixin</title>
<g id="a_node1"><a xlink:href="../pyGHDL.dom.html#pyGHDL.dom.DOMMixin" xlink:title="pyGHDL.dom.DOMMixin" target="_top">
<polygon fill="none" stroke="#000000" stroke-width=".5" points="905.5,-92 771.5,-92 771.5,-73 905.5,-73 905.5,-92"/>
<text text-anchor="middle" x="838.5" y="-80" font-family="Vera Sans, DejaVu Sans, Liberation Sans, Arial, Helvetica, sans" font-size="10.00" fill="#000000">pyGHDL.dom.DOMMixin</text>
</a>
</g>
</g>
<!-- pyGHDL.dom.Sequential.WaitStatement -->
<g id="node2" class="node">
<title>pyGHDL.dom.Sequential.WaitStatement</title>
<g id="a_node2"><a xlink:href="../pyGHDL/pyGHDL.dom.Sequential.html#pyGHDL.dom.Sequential.WaitStatement" xlink:title="pyGHDL.dom.Sequential.WaitStatement" target="_top">
<polygon fill="none" stroke="#000000" stroke-width=".5" points="1200,-73 988,-73 988,-54 1200,-54 1200,-73"/>
<text text-anchor="middle" x="1094" y="-61" font-family="Vera Sans, DejaVu Sans, Liberation Sans, Arial, Helvetica, sans" font-size="10.00" fill="#000000">pyGHDL.dom.Sequential.WaitStatement</text>
</a>
</g>
</g>
<!-- pyGHDL.dom.DOMMixin&#45;&gt;pyGHDL.dom.Sequential.WaitStatement -->
<g id="edge2" class="edge">
<title>pyGHDL.dom.DOMMixin&#45;&gt;pyGHDL.dom.Sequential.WaitStatement</title>
<path fill="none" stroke="#000000" stroke-width=".5" d="M905.6296,-77.508C929.1935,-75.7557 956.3396,-73.737 982.5546,-71.7875"/>
<polygon fill="#000000" stroke="#000000" stroke-width=".5" points="982.9274,-73.5147 987.7838,-71.3987 982.6678,-70.0244 982.9274,-73.5147"/>
</g>
<!-- pyVHDLModel.SyntaxModel.WaitStatement -->
<g id="node3" class="node">
<title>pyVHDLModel.SyntaxModel.WaitStatement</title>
<polygon fill="none" stroke="#000000" stroke-width=".5" points="952,-55 725,-55 725,-36 952,-36 952,-55"/>
<text text-anchor="middle" x="838.5" y="-43" font-family="Vera Sans, DejaVu Sans, Liberation Sans, Arial, Helvetica, sans" font-size="10.00" fill="#000000">pyVHDLModel.SyntaxModel.WaitStatement</text>
</g>
<!-- pyVHDLModel.SyntaxModel.WaitStatement&#45;&gt;pyGHDL.dom.Sequential.WaitStatement -->
<g id="edge1" class="edge">
<title>pyVHDLModel.SyntaxModel.WaitStatement&#45;&gt;pyGHDL.dom.Sequential.WaitStatement</title>
<path fill="none" stroke="#000000" stroke-width=".5" d="M952.0539,-53.4999C962.1549,-54.2115 972.3757,-54.9316 982.4595,-55.642"/>
<polygon fill="#000000" stroke="#000000" stroke-width=".5" points="982.6082,-57.4067 987.7189,-56.0125 982.8543,-53.9153 982.6082,-57.4067"/>
</g>
<!-- pyVHDLModel.LabeledEntity -->
<g id="node4" class="node">
<title>pyVHDLModel.LabeledEntity</title>
<g id="a_node4"><a xlink:title="A ``LabeledEntity`` is a mixin class for all VHDL entities that can have">
<polygon fill="none" stroke="#000000" stroke-width=".5" points="155,-56 0,-56 0,-37 155,-37 155,-56"/>
<text text-anchor="middle" x="77.5" y="-44" font-family="Vera Sans, DejaVu Sans, Liberation Sans, Arial, Helvetica, sans" font-size="10.00" fill="#000000">pyVHDLModel.LabeledEntity</text>
</a>
</g>
</g>
<!-- pyVHDLModel.SyntaxModel.Statement -->
<g id="node8" class="node">
<title>pyVHDLModel.SyntaxModel.Statement</title>
<polygon fill="none" stroke="#000000" stroke-width=".5" points="396,-37 191,-37 191,-18 396,-18 396,-37"/>
<text text-anchor="middle" x="293.5" y="-25" font-family="Vera Sans, DejaVu Sans, Liberation Sans, Arial, Helvetica, sans" font-size="10.00" fill="#000000">pyVHDLModel.SyntaxModel.Statement</text>
</g>
<!-- pyVHDLModel.LabeledEntity&#45;&gt;pyVHDLModel.SyntaxModel.Statement -->
<g id="edge5" class="edge">
<title>pyVHDLModel.LabeledEntity&#45;&gt;pyVHDLModel.SyntaxModel.Statement</title>
<path fill="none" stroke="#000000" stroke-width=".5" d="M155.1758,-39.6674C165.154,-38.7897 175.5079,-37.8789 185.8575,-36.9686"/>
<polygon fill="#000000" stroke="#000000" stroke-width=".5" points="186.1088,-38.7033 190.9362,-36.5218 185.802,-35.2168 186.1088,-38.7033"/>
</g>
<!-- pyVHDLModel.ModelEntity -->
<g id="node5" class="node">
<title>pyVHDLModel.ModelEntity</title>
<g id="a_node5"><a xlink:title="``ModelEntity`` is the base class for all classes in the VHDL language model,">
<polygon fill="none" stroke="#000000" stroke-width=".5" points="150.5,-19 4.5,-19 4.5,0 150.5,0 150.5,-19"/>
<text text-anchor="middle" x="77.5" y="-7" font-family="Vera Sans, DejaVu Sans, Liberation Sans, Arial, Helvetica, sans" font-size="10.00" fill="#000000">pyVHDLModel.ModelEntity</text>
</a>
</g>
</g>
<!-- pyVHDLModel.ModelEntity&#45;&gt;pyVHDLModel.SyntaxModel.Statement -->
<g id="edge4" class="edge">
<title>pyVHDLModel.ModelEntity&#45;&gt;pyVHDLModel.SyntaxModel.Statement</title>
<path fill="none" stroke="#000000" stroke-width=".5" d="M150.6277,-15.594C161.9793,-16.5399 173.9067,-17.5339 185.8288,-18.5274"/>
<polygon fill="#000000" stroke="#000000" stroke-width=".5" points="185.8081,-20.2817 190.9362,-18.953 186.0988,-16.7937 185.8081,-20.2817"/>
</g>
<!-- pyVHDLModel.SyntaxModel.MixinConditional -->
<g id="node6" class="node">
<title>pyVHDLModel.SyntaxModel.MixinConditional</title>
<g id="a_node6"><a xlink:title="A ``BaseConditional`` is a mixin&#45;class for all statements with a condition.">
<polygon fill="none" stroke="#000000" stroke-width=".5" points="678.5,-74 442.5,-74 442.5,-55 678.5,-55 678.5,-74"/>
<text text-anchor="middle" x="560.5" y="-62" font-family="Vera Sans, DejaVu Sans, Liberation Sans, Arial, Helvetica, sans" font-size="10.00" fill="#000000">pyVHDLModel.SyntaxModel.MixinConditional</text>
</a>
</g>
</g>
<!-- pyVHDLModel.SyntaxModel.MixinConditional&#45;&gt;pyVHDLModel.SyntaxModel.WaitStatement -->
<g id="edge7" class="edge">
<title>pyVHDLModel.SyntaxModel.MixinConditional&#45;&gt;pyVHDLModel.SyntaxModel.WaitStatement</title>
<path fill="none" stroke="#000000" stroke-width=".5" d="M678.8001,-56.4147C692.2379,-55.4963 705.9398,-54.5599 719.388,-53.6407"/>
<polygon fill="#000000" stroke="#000000" stroke-width=".5" points="719.8599,-55.3627 724.7289,-53.2757 719.6211,-51.8708 719.8599,-55.3627"/>
</g>
<!-- pyVHDLModel.SyntaxModel.SequentialStatement -->
<g id="node7" class="node">
<title>pyVHDLModel.SyntaxModel.SequentialStatement</title>
<g id="a_node7"><a xlink:title="A ``SequentialStatement`` is a base&#45;class for all sequential statements.">
<polygon fill="none" stroke="#000000" stroke-width=".5" points="689,-37 432,-37 432,-18 689,-18 689,-37"/>
<text text-anchor="middle" x="560.5" y="-25" font-family="Vera Sans, DejaVu Sans, Liberation Sans, Arial, Helvetica, sans" font-size="10.00" fill="#000000">pyVHDLModel.SyntaxModel.SequentialStatement</text>
</a>
</g>
</g>
<!-- pyVHDLModel.SyntaxModel.SequentialStatement&#45;&gt;pyVHDLModel.SyntaxModel.WaitStatement -->
<g id="edge6" class="edge">
<title>pyVHDLModel.SyntaxModel.SequentialStatement&#45;&gt;pyVHDLModel.SyntaxModel.WaitStatement</title>
<path fill="none" stroke="#000000" stroke-width=".5" d="M689.3274,-35.8413C699.3661,-36.4913 709.4759,-37.1459 719.446,-37.7915"/>
<polygon fill="#000000" stroke="#000000" stroke-width=".5" points="719.5431,-39.5513 724.6458,-38.1281 719.7693,-36.0586 719.5431,-39.5513"/>
</g>
<!-- pyVHDLModel.SyntaxModel.Statement&#45;&gt;pyVHDLModel.SyntaxModel.SequentialStatement -->
<g id="edge3" class="edge">
<title>pyVHDLModel.SyntaxModel.Statement&#45;&gt;pyVHDLModel.SyntaxModel.SequentialStatement</title>
<path fill="none" stroke="#000000" stroke-width=".5" d="M396.3473,-27.5C406.3207,-27.5 416.5354,-27.5 426.752,-27.5"/>
<polygon fill="#000000" stroke="#000000" stroke-width=".5" points="426.7666,-29.2501 431.7666,-27.5 426.7665,-25.7501 426.7666,-29.2501"/>
</g>
</g>
</svg>
