<?xml version="1.0" encoding="UTF-8" standalone="no"?>
<!DOCTYPE svg PUBLIC "-//W3C//DTD SVG 1.1//EN"
 "http://www.w3.org/Graphics/SVG/1.1/DTD/svg11.dtd">
<!-- Generated by graphviz version 2.40.1 (20161225.0304)
 -->
<!-- Title: inheritanced1c51ecd68 Pages: 1 -->
<svg width="576pt" height="36pt"
 viewBox="0.00 0.00 576.00 36.45" xmlns="http://www.w3.org/2000/svg" xmlns:xlink="http://www.w3.org/1999/xlink">
<g id="graph0" class="graph" transform="scale(.3609 .3609) rotate(0) translate(4 97)">
<title>inheritanced1c51ecd68</title>
<polygon fill="#ffffff" stroke="transparent" points="-4,4 -4,-97 1592,-97 1592,4 -4,4"/>
<!-- pyGHDL.dom.DOMMixin -->
<g id="node1" class="node">
<title>pyGHDL.dom.DOMMixin</title>
<g id="a_node1"><a xlink:href="../pyGHDL.dom.html#pyGHDL.dom.DOMMixin" xlink:title="pyGHDL.dom.DOMMixin" target="_top">
<polygon fill="none" stroke="#000000" stroke-width=".5" points="1346.5,-93 1212.5,-93 1212.5,-74 1346.5,-74 1346.5,-93"/>
<text text-anchor="middle" x="1279.5" y="-81" font-family="Vera Sans, DejaVu Sans, Liberation Sans, Arial, Helvetica, sans" font-size="10.00" fill="#000000">pyGHDL.dom.DOMMixin</text>
</a>
</g>
</g>
<!-- pyGHDL.dom.Type.IntegerType -->
<g id="node2" class="node">
<title>pyGHDL.dom.Type.IntegerType</title>
<g id="a_node2"><a xlink:href="../pyGHDL/pyGHDL.dom.Type.html#pyGHDL.dom.Type.IntegerType" xlink:title="pyGHDL.dom.Type.IntegerType" target="_top">
<polygon fill="none" stroke="#000000" stroke-width=".5" points="1588,-74 1421,-74 1421,-55 1588,-55 1588,-74"/>
<text text-anchor="middle" x="1504.5" y="-62" font-family="Vera Sans, DejaVu Sans, Liberation Sans, Arial, Helvetica, sans" font-size="10.00" fill="#000000">pyGHDL.dom.Type.IntegerType</text>
</a>
</g>
</g>
<!-- pyGHDL.dom.DOMMixin&#45;&gt;pyGHDL.dom.Type.IntegerType -->
<g id="edge2" class="edge">
<title>pyGHDL.dom.DOMMixin&#45;&gt;pyGHDL.dom.Type.IntegerType</title>
<path fill="none" stroke="#000000" stroke-width=".5" d="M1346.7026,-77.8251C1368.3723,-75.9952 1392.7338,-73.938 1415.7125,-71.9976"/>
<polygon fill="#000000" stroke="#000000" stroke-width=".5" points="1416.0657,-73.7241 1420.9007,-71.5595 1415.7711,-70.2365 1416.0657,-73.7241"/>
</g>
<!-- pyVHDLModel.SyntaxModel.IntegerType -->
<g id="node3" class="node">
<title>pyVHDLModel.SyntaxModel.IntegerType</title>
<polygon fill="none" stroke="#000000" stroke-width=".5" points="1385,-56 1174,-56 1174,-37 1385,-37 1385,-56"/>
<text text-anchor="middle" x="1279.5" y="-44" font-family="Vera Sans, DejaVu Sans, Liberation Sans, Arial, Helvetica, sans" font-size="10.00" fill="#000000">pyVHDLModel.SyntaxModel.IntegerType</text>
</g>
<!-- pyVHDLModel.SyntaxModel.IntegerType&#45;&gt;pyGHDL.dom.Type.IntegerType -->
<g id="edge1" class="edge">
<title>pyVHDLModel.SyntaxModel.IntegerType&#45;&gt;pyGHDL.dom.Type.IntegerType</title>
<path fill="none" stroke="#000000" stroke-width=".5" d="M1385.0825,-54.9466C1395.2915,-55.7633 1405.5768,-56.5861 1415.6004,-57.388"/>
<polygon fill="#000000" stroke="#000000" stroke-width=".5" points="1415.6927,-59.1509 1420.8164,-57.8053 1415.9719,-55.6621 1415.6927,-59.1509"/>
</g>
<!-- pyVHDLModel.ModelEntity -->
<g id="node4" class="node">
<title>pyVHDLModel.ModelEntity</title>
<g id="a_node4"><a xlink:title="``ModelEntity`` is the base class for all classes in the VHDL language model,">
<polygon fill="none" stroke="#000000" stroke-width=".5" points="149,-75 3,-75 3,-56 149,-56 149,-75"/>
<text text-anchor="middle" x="76" y="-63" font-family="Vera Sans, DejaVu Sans, Liberation Sans, Arial, Helvetica, sans" font-size="10.00" fill="#000000">pyVHDLModel.ModelEntity</text>
</a>
</g>
</g>
<!-- pyVHDLModel.SyntaxModel.BaseType -->
<g id="node6" class="node">
<title>pyVHDLModel.SyntaxModel.BaseType</title>
<g id="a_node6"><a xlink:title="``BaseType`` is the base class of all type entities in this model.">
<polygon fill="none" stroke="#000000" stroke-width=".5" points="388,-56 188,-56 188,-37 388,-37 388,-56"/>
<text text-anchor="middle" x="288" y="-44" font-family="Vera Sans, DejaVu Sans, Liberation Sans, Arial, Helvetica, sans" font-size="10.00" fill="#000000">pyVHDLModel.SyntaxModel.BaseType</text>
</a>
</g>
</g>
<!-- pyVHDLModel.ModelEntity&#45;&gt;pyVHDLModel.SyntaxModel.BaseType -->
<g id="edge3" class="edge">
<title>pyVHDLModel.ModelEntity&#45;&gt;pyVHDLModel.SyntaxModel.BaseType</title>
<path fill="none" stroke="#000000" stroke-width=".5" d="M149.2552,-58.9347C160.0491,-57.9673 171.3454,-56.9549 182.632,-55.9434"/>
<polygon fill="#000000" stroke="#000000" stroke-width=".5" points="182.9915,-57.6682 187.8153,-55.4788 182.679,-54.1822 182.9915,-57.6682"/>
</g>
<!-- pyVHDLModel.NamedEntity -->
<g id="node5" class="node">
<title>pyVHDLModel.NamedEntity</title>
<g id="a_node5"><a xlink:title="A ``NamedEntity`` is a mixin class for all VHDL entities that have identifiers.">
<polygon fill="none" stroke="#000000" stroke-width=".5" points="152,-38 0,-38 0,-19 152,-19 152,-38"/>
<text text-anchor="middle" x="76" y="-26" font-family="Vera Sans, DejaVu Sans, Liberation Sans, Arial, Helvetica, sans" font-size="10.00" fill="#000000">pyVHDLModel.NamedEntity</text>
</a>
</g>
</g>
<!-- pyVHDLModel.NamedEntity&#45;&gt;pyVHDLModel.SyntaxModel.BaseType -->
<g id="edge4" class="edge">
<title>pyVHDLModel.NamedEntity&#45;&gt;pyVHDLModel.SyntaxModel.BaseType</title>
<path fill="none" stroke="#000000" stroke-width=".5" d="M152.2374,-34.973C162.1327,-35.8132 172.4047,-36.6853 182.6683,-37.5567"/>
<polygon fill="#000000" stroke="#000000" stroke-width=".5" points="182.5743,-39.305 187.7045,-37.9843 182.8705,-35.8175 182.5743,-39.305"/>
</g>
<!-- pyVHDLModel.SyntaxModel.FullType -->
<g id="node8" class="node">
<title>pyVHDLModel.SyntaxModel.FullType</title>
<polygon fill="none" stroke="#000000" stroke-width=".5" points="617,-56 424,-56 424,-37 617,-37 617,-56"/>
<text text-anchor="middle" x="520.5" y="-44" font-family="Vera Sans, DejaVu Sans, Liberation Sans, Arial, Helvetica, sans" font-size="10.00" fill="#000000">pyVHDLModel.SyntaxModel.FullType</text>
</g>
<!-- pyVHDLModel.SyntaxModel.BaseType&#45;&gt;pyVHDLModel.SyntaxModel.FullType -->
<g id="edge5" class="edge">
<title>pyVHDLModel.SyntaxModel.BaseType&#45;&gt;pyVHDLModel.SyntaxModel.FullType</title>
<path fill="none" stroke="#000000" stroke-width=".5" d="M388.2879,-46.5C398.3351,-46.5 408.5445,-46.5 418.6082,-46.5"/>
<polygon fill="#000000" stroke="#000000" stroke-width=".5" points="418.8559,-48.2501 423.8559,-46.5 418.8558,-44.7501 418.8559,-48.2501"/>
</g>
<!-- pyVHDLModel.SyntaxModel.DiscreteType -->
<g id="node7" class="node">
<title>pyVHDLModel.SyntaxModel.DiscreteType</title>
<g id="a_node7"><a xlink:title="A ``DiscreteType`` is a mixin class for all discrete types.">
<polygon fill="none" stroke="#000000" stroke-width=".5" points="1125,-93 908,-93 908,-74 1125,-74 1125,-93"/>
<text text-anchor="middle" x="1016.5" y="-81" font-family="Vera Sans, DejaVu Sans, Liberation Sans, Arial, Helvetica, sans" font-size="10.00" fill="#000000">pyVHDLModel.SyntaxModel.DiscreteType</text>
</a>
</g>
</g>
<!-- pyVHDLModel.SyntaxModel.DiscreteType&#45;&gt;pyVHDLModel.SyntaxModel.IntegerType -->
<g id="edge8" class="edge">
<title>pyVHDLModel.SyntaxModel.DiscreteType&#45;&gt;pyVHDLModel.SyntaxModel.IntegerType</title>
<path fill="none" stroke="#000000" stroke-width=".5" d="M1084.229,-73.9716C1121.663,-68.7052 1168.1942,-62.159 1206.4436,-56.7779"/>
<polygon fill="#000000" stroke="#000000" stroke-width=".5" points="1206.8365,-58.4899 1211.5439,-56.0604 1206.3488,-55.0241 1206.8365,-58.4899"/>
</g>
<!-- pyVHDLModel.SyntaxModel.ScalarType -->
<g id="node11" class="node">
<title>pyVHDLModel.SyntaxModel.ScalarType</title>
<g id="a_node11"><a xlink:title="A ``ScalarType`` is a base&#45;class for all scalar types.">
<polygon fill="none" stroke="#000000" stroke-width=".5" points="859,-56 653,-56 653,-37 859,-37 859,-56"/>
<text text-anchor="middle" x="756" y="-44" font-family="Vera Sans, DejaVu Sans, Liberation Sans, Arial, Helvetica, sans" font-size="10.00" fill="#000000">pyVHDLModel.SyntaxModel.ScalarType</text>
</a>
</g>
</g>
<!-- pyVHDLModel.SyntaxModel.FullType&#45;&gt;pyVHDLModel.SyntaxModel.ScalarType -->
<g id="edge10" class="edge">
<title>pyVHDLModel.SyntaxModel.FullType&#45;&gt;pyVHDLModel.SyntaxModel.ScalarType</title>
<path fill="none" stroke="#000000" stroke-width=".5" d="M617.3064,-46.5C627.2453,-46.5 637.39,-46.5 647.4447,-46.5"/>
<polygon fill="#000000" stroke="#000000" stroke-width=".5" points="647.6929,-48.2501 652.6929,-46.5 647.6929,-44.7501 647.6929,-48.2501"/>
</g>
<!-- pyVHDLModel.SyntaxModel.RangedScalarType -->
<g id="node9" class="node">
<title>pyVHDLModel.SyntaxModel.RangedScalarType</title>
<g id="a_node9"><a xlink:title="A ``RangedScalarType`` is a base&#45;class for all scalar types with a range.">
<polygon fill="none" stroke="#000000" stroke-width=".5" points="1138,-56 895,-56 895,-37 1138,-37 1138,-56"/>
<text text-anchor="middle" x="1016.5" y="-44" font-family="Vera Sans, DejaVu Sans, Liberation Sans, Arial, Helvetica, sans" font-size="10.00" fill="#000000">pyVHDLModel.SyntaxModel.RangedScalarType</text>
</a>
</g>
</g>
<!-- pyVHDLModel.SyntaxModel.RangedScalarType&#45;&gt;pyVHDLModel.SyntaxModel.IntegerType -->
<g id="edge6" class="edge">
<title>pyVHDLModel.SyntaxModel.RangedScalarType&#45;&gt;pyVHDLModel.SyntaxModel.IntegerType</title>
<path fill="none" stroke="#000000" stroke-width=".5" d="M1138.3763,-46.5C1148.4455,-46.5 1158.5903,-46.5 1168.5729,-46.5"/>
<polygon fill="#000000" stroke="#000000" stroke-width=".5" points="1168.7771,-48.2501 1173.7771,-46.5 1168.777,-44.7501 1168.7771,-48.2501"/>
</g>
<!-- pyVHDLModel.SyntaxModel.NumericType -->
<g id="node10" class="node">
<title>pyVHDLModel.SyntaxModel.NumericType</title>
<g id="a_node10"><a xlink:title="A ``NumericType`` is a mixin class for all numeric types.">
<polygon fill="none" stroke="#000000" stroke-width=".5" points="1125.5,-19 907.5,-19 907.5,0 1125.5,0 1125.5,-19"/>
<text text-anchor="middle" x="1016.5" y="-7" font-family="Vera Sans, DejaVu Sans, Liberation Sans, Arial, Helvetica, sans" font-size="10.00" fill="#000000">pyVHDLModel.SyntaxModel.NumericType</text>
</a>
</g>
</g>
<!-- pyVHDLModel.SyntaxModel.NumericType&#45;&gt;pyVHDLModel.SyntaxModel.IntegerType -->
<g id="edge7" class="edge">
<title>pyVHDLModel.SyntaxModel.NumericType&#45;&gt;pyVHDLModel.SyntaxModel.IntegerType</title>
<path fill="none" stroke="#000000" stroke-width=".5" d="M1084.229,-19.0284C1121.663,-24.2948 1168.1942,-30.841 1206.4436,-36.2221"/>
<polygon fill="#000000" stroke="#000000" stroke-width=".5" points="1206.3488,-37.9759 1211.5439,-36.9396 1206.8365,-34.5101 1206.3488,-37.9759"/>
</g>
<!-- pyVHDLModel.SyntaxModel.ScalarType&#45;&gt;pyVHDLModel.SyntaxModel.RangedScalarType -->
<g id="edge9" class="edge">
<title>pyVHDLModel.SyntaxModel.ScalarType&#45;&gt;pyVHDLModel.SyntaxModel.RangedScalarType</title>
<path fill="none" stroke="#000000" stroke-width=".5" d="M859.3306,-46.5C869.3408,-46.5 879.5727,-46.5 889.7758,-46.5"/>
<polygon fill="#000000" stroke="#000000" stroke-width=".5" points="889.7812,-48.2501 894.7812,-46.5 889.7812,-44.7501 889.7812,-48.2501"/>
</g>
</g>
</svg>
