<?xml version="1.0" encoding="UTF-8" standalone="no"?>
<!DOCTYPE svg PUBLIC "-//W3C//DTD SVG 1.1//EN"
 "http://www.w3.org/Graphics/SVG/1.1/DTD/svg11.dtd">
<!-- Generated by graphviz version 2.40.1 (20161225.0304)
 -->
<!-- Title: inheritance5d44514f2b Pages: 1 -->
<svg width="576pt" height="43pt"
 viewBox="0.00 0.00 576.00 42.67" xmlns="http://www.w3.org/2000/svg" xmlns:xlink="http://www.w3.org/1999/xlink">
<g id="graph0" class="graph" transform="scale(.6667 .6667) rotate(0) translate(4 60)">
<title>inheritance5d44514f2b</title>
<polygon fill="#ffffff" stroke="transparent" points="-4,4 -4,-60 860,-60 860,4 -4,4"/>
<!-- pyGHDL.dom.DOMMixin -->
<g id="node1" class="node">
<title>pyGHDL.dom.DOMMixin</title>
<g id="a_node1"><a xlink:href="../pyGHDL.dom.html#pyGHDL.dom.DOMMixin" xlink:title="pyGHDL.dom.DOMMixin" target="_top">
<polygon fill="none" stroke="#000000" stroke-width=".5" points="591,-56 457,-56 457,-37 591,-37 591,-56"/>
<text text-anchor="middle" x="524" y="-44" font-family="Vera Sans, DejaVu Sans, Liberation Sans, Arial, Helvetica, sans" font-size="10.00" fill="#000000">pyGHDL.dom.DOMMixin</text>
</a>
</g>
</g>
<!-- pyGHDL.dom.DesignUnit.UseClause -->
<g id="node2" class="node">
<title>pyGHDL.dom.DesignUnit.UseClause</title>
<g id="a_node2"><a xlink:href="../pyGHDL/pyGHDL.dom.DesignUnit.html#pyGHDL.dom.DesignUnit.UseClause" xlink:title="pyGHDL.dom.DesignUnit.UseClause" target="_top">
<polygon fill="none" stroke="#000000" stroke-width=".5" points="856,-37 663,-37 663,-18 856,-18 856,-37"/>
<text text-anchor="middle" x="759.5" y="-25" font-family="Vera Sans, DejaVu Sans, Liberation Sans, Arial, Helvetica, sans" font-size="10.00" fill="#000000">pyGHDL.dom.DesignUnit.UseClause</text>
</a>
</g>
</g>
<!-- pyGHDL.dom.DOMMixin&#45;&gt;pyGHDL.dom.DesignUnit.UseClause -->
<g id="edge2" class="edge">
<title>pyGHDL.dom.DOMMixin&#45;&gt;pyGHDL.dom.DesignUnit.UseClause</title>
<path fill="none" stroke="#000000" stroke-width=".5" d="M591.1697,-41.0808C611.8981,-39.4084 635.2085,-37.5278 657.7248,-35.7112"/>
<polygon fill="#000000" stroke="#000000" stroke-width=".5" points="657.9755,-37.4467 662.8185,-35.3002 657.6939,-33.9581 657.9755,-37.4467"/>
</g>
<!-- pyVHDLModel.SyntaxModel.UseClause -->
<g id="node3" class="node">
<title>pyVHDLModel.SyntaxModel.UseClause</title>
<polygon fill="none" stroke="#000000" stroke-width=".5" points="627,-19 421,-19 421,0 627,0 627,-19"/>
<text text-anchor="middle" x="524" y="-7" font-family="Vera Sans, DejaVu Sans, Liberation Sans, Arial, Helvetica, sans" font-size="10.00" fill="#000000">pyVHDLModel.SyntaxModel.UseClause</text>
</g>
<!-- pyVHDLModel.SyntaxModel.UseClause&#45;&gt;pyGHDL.dom.DesignUnit.UseClause -->
<g id="edge1" class="edge">
<title>pyVHDLModel.SyntaxModel.UseClause&#45;&gt;pyGHDL.dom.DesignUnit.UseClause</title>
<path fill="none" stroke="#000000" stroke-width=".5" d="M627.2937,-17.3951C637.3969,-18.1673 647.6442,-18.9505 657.732,-19.7216"/>
<polygon fill="#000000" stroke="#000000" stroke-width=".5" points="657.8723,-21.4873 662.9912,-20.1235 658.1391,-17.9975 657.8723,-21.4873"/>
</g>
<!-- pyVHDLModel.ModelEntity -->
<g id="node4" class="node">
<title>pyVHDLModel.ModelEntity</title>
<g id="a_node4"><a xlink:title="``ModelEntity`` is the base class for all classes in the VHDL language model,">
<polygon fill="none" stroke="#000000" stroke-width=".5" points="146,-19 0,-19 0,0 146,0 146,-19"/>
<text text-anchor="middle" x="73" y="-7" font-family="Vera Sans, DejaVu Sans, Liberation Sans, Arial, Helvetica, sans" font-size="10.00" fill="#000000">pyVHDLModel.ModelEntity</text>
</a>
</g>
</g>
<!-- pyVHDLModel.SyntaxModel.Reference -->
<g id="node5" class="node">
<title>pyVHDLModel.SyntaxModel.Reference</title>
<polygon fill="none" stroke="#000000" stroke-width=".5" points="385,-19 182,-19 182,0 385,0 385,-19"/>
<text text-anchor="middle" x="283.5" y="-7" font-family="Vera Sans, DejaVu Sans, Liberation Sans, Arial, Helvetica, sans" font-size="10.00" fill="#000000">pyVHDLModel.SyntaxModel.Reference</text>
</g>
<!-- pyVHDLModel.ModelEntity&#45;&gt;pyVHDLModel.SyntaxModel.Reference -->
<g id="edge3" class="edge">
<title>pyVHDLModel.ModelEntity&#45;&gt;pyVHDLModel.SyntaxModel.Reference</title>
<path fill="none" stroke="#000000" stroke-width=".5" d="M146.0319,-9.5C155.9304,-9.5 166.2497,-9.5 176.5903,-9.5"/>
<polygon fill="#000000" stroke="#000000" stroke-width=".5" points="176.6666,-11.2501 181.6666,-9.5 176.6666,-7.7501 176.6666,-11.2501"/>
</g>
<!-- pyVHDLModel.SyntaxModel.Reference&#45;&gt;pyVHDLModel.SyntaxModel.UseClause -->
<g id="edge4" class="edge">
<title>pyVHDLModel.SyntaxModel.Reference&#45;&gt;pyVHDLModel.SyntaxModel.UseClause</title>
<path fill="none" stroke="#000000" stroke-width=".5" d="M385.1451,-9.5C395.1887,-9.5 405.4097,-9.5 415.5187,-9.5"/>
<polygon fill="#000000" stroke="#000000" stroke-width=".5" points="415.7934,-11.2501 420.7934,-9.5 415.7933,-7.7501 415.7934,-11.2501"/>
</g>
</g>
</svg>
