<?xml version="1.0" encoding="UTF-8" standalone="no"?>
<!DOCTYPE svg PUBLIC "-//W3C//DTD SVG 1.1//EN"
 "http://www.w3.org/Graphics/SVG/1.1/DTD/svg11.dtd">
<!-- Generated by graphviz version 2.40.1 (20161225.0304)
 -->
<!-- Title: inheritance48c7bbe1d0 Pages: 1 -->
<svg width="576pt" height="30pt"
 viewBox="0.00 0.00 576.00 30.29" xmlns="http://www.w3.org/2000/svg" xmlns:xlink="http://www.w3.org/1999/xlink">
<g id="graph0" class="graph" transform="scale(.4733 .4733) rotate(0) translate(4 60)">
<title>inheritance48c7bbe1d0</title>
<polygon fill="#ffffff" stroke="transparent" points="-4,4 -4,-60 1213,-60 1213,4 -4,4"/>
<!-- pyGHDL.dom.DOMMixin -->
<g id="node1" class="node">
<title>pyGHDL.dom.DOMMixin</title>
<g id="a_node1"><a xlink:href="../pyGHDL.dom.html#pyGHDL.dom.DOMMixin" xlink:title="pyGHDL.dom.DOMMixin" target="_top">
<polygon fill="none" stroke="#000000" stroke-width=".5" points="874,-56 740,-56 740,-37 874,-37 874,-56"/>
<text text-anchor="middle" x="807" y="-44" font-family="Vera Sans, DejaVu Sans, Liberation Sans, Arial, Helvetica, sans" font-size="10.00" fill="#000000">pyGHDL.dom.DOMMixin</text>
</a>
</g>
</g>
<!-- pyGHDL.dom.Symbol.SimpleSubtypeSymbol -->
<g id="node2" class="node">
<title>pyGHDL.dom.Symbol.SimpleSubtypeSymbol</title>
<g id="a_node2"><a xlink:href="../pyGHDL/pyGHDL.dom.Symbol.html#pyGHDL.dom.Symbol.SimpleSubtypeSymbol" xlink:title="pyGHDL.dom.Symbol.SimpleSubtypeSymbol" target="_top">
<polygon fill="none" stroke="#000000" stroke-width=".5" points="1209,-37 975,-37 975,-18 1209,-18 1209,-37"/>
<text text-anchor="middle" x="1092" y="-25" font-family="Vera Sans, DejaVu Sans, Liberation Sans, Arial, Helvetica, sans" font-size="10.00" fill="#000000">pyGHDL.dom.Symbol.SimpleSubtypeSymbol</text>
</a>
</g>
</g>
<!-- pyGHDL.dom.DOMMixin&#45;&gt;pyGHDL.dom.Symbol.SimpleSubtypeSymbol -->
<g id="edge2" class="edge">
<title>pyGHDL.dom.DOMMixin&#45;&gt;pyGHDL.dom.Symbol.SimpleSubtypeSymbol</title>
<path fill="none" stroke="#000000" stroke-width=".5" d="M874.1801,-42.0213C902.6885,-40.1208 936.841,-37.8439 969.5547,-35.663"/>
<polygon fill="#000000" stroke="#000000" stroke-width=".5" points="969.9191,-37.3927 974.7916,-35.3139 969.6862,-33.9005 969.9191,-37.3927"/>
</g>
<!-- pyVHDLModel.SyntaxModel.SimpleSubtypeSymbol -->
<g id="node3" class="node">
<title>pyVHDLModel.SyntaxModel.SimpleSubtypeSymbol</title>
<polygon fill="none" stroke="#000000" stroke-width=".5" points="939,-19 675,-19 675,0 939,0 939,-19"/>
<text text-anchor="middle" x="807" y="-7" font-family="Vera Sans, DejaVu Sans, Liberation Sans, Arial, Helvetica, sans" font-size="10.00" fill="#000000">pyVHDLModel.SyntaxModel.SimpleSubtypeSymbol</text>
</g>
<!-- pyVHDLModel.SyntaxModel.SimpleSubtypeSymbol&#45;&gt;pyGHDL.dom.Symbol.SimpleSubtypeSymbol -->
<g id="edge1" class="edge">
<title>pyVHDLModel.SyntaxModel.SimpleSubtypeSymbol&#45;&gt;pyGHDL.dom.Symbol.SimpleSubtypeSymbol</title>
<path fill="none" stroke="#000000" stroke-width=".5" d="M939.0713,-17.8413C949.332,-18.4894 959.6653,-19.142 969.8567,-19.7857"/>
<polygon fill="#000000" stroke="#000000" stroke-width=".5" points="969.747,-21.5322 974.8474,-20.1009 969.9677,-18.0391 969.747,-21.5322"/>
</g>
<!-- pyVHDLModel.ModelEntity -->
<g id="node4" class="node">
<title>pyVHDLModel.ModelEntity</title>
<g id="a_node4"><a xlink:title="``ModelEntity`` is the base class for all classes in the VHDL language model,">
<polygon fill="none" stroke="#000000" stroke-width=".5" points="146,-19 0,-19 0,0 146,0 146,-19"/>
<text text-anchor="middle" x="73" y="-7" font-family="Vera Sans, DejaVu Sans, Liberation Sans, Arial, Helvetica, sans" font-size="10.00" fill="#000000">pyVHDLModel.ModelEntity</text>
</a>
</g>
</g>
<!-- pyVHDLModel.SyntaxModel.Symbol -->
<g id="node6" class="node">
<title>pyVHDLModel.SyntaxModel.Symbol</title>
<polygon fill="none" stroke="#000000" stroke-width=".5" points="373,-19 182,-19 182,0 373,0 373,-19"/>
<text text-anchor="middle" x="277.5" y="-7" font-family="Vera Sans, DejaVu Sans, Liberation Sans, Arial, Helvetica, sans" font-size="10.00" fill="#000000">pyVHDLModel.SyntaxModel.Symbol</text>
</g>
<!-- pyVHDLModel.ModelEntity&#45;&gt;pyVHDLModel.SyntaxModel.Symbol -->
<g id="edge5" class="edge">
<title>pyVHDLModel.ModelEntity&#45;&gt;pyVHDLModel.SyntaxModel.Symbol</title>
<path fill="none" stroke="#000000" stroke-width=".5" d="M146.2516,-9.5C156.1992,-9.5 166.5459,-9.5 176.8707,-9.5"/>
<polygon fill="#000000" stroke="#000000" stroke-width=".5" points="176.9356,-11.2501 181.9356,-9.5 176.9355,-7.7501 176.9356,-11.2501"/>
</g>
<!-- pyVHDLModel.SyntaxModel.SubtypeSymbol -->
<g id="node5" class="node">
<title>pyVHDLModel.SyntaxModel.SubtypeSymbol</title>
<polygon fill="none" stroke="#000000" stroke-width=".5" points="639,-19 409,-19 409,0 639,0 639,-19"/>
<text text-anchor="middle" x="524" y="-7" font-family="Vera Sans, DejaVu Sans, Liberation Sans, Arial, Helvetica, sans" font-size="10.00" fill="#000000">pyVHDLModel.SyntaxModel.SubtypeSymbol</text>
</g>
<!-- pyVHDLModel.SyntaxModel.SubtypeSymbol&#45;&gt;pyVHDLModel.SyntaxModel.SimpleSubtypeSymbol -->
<g id="edge3" class="edge">
<title>pyVHDLModel.SyntaxModel.SubtypeSymbol&#45;&gt;pyVHDLModel.SyntaxModel.SimpleSubtypeSymbol</title>
<path fill="none" stroke="#000000" stroke-width=".5" d="M639.1069,-9.5C649.2331,-9.5 659.5461,-9.5 669.8287,-9.5"/>
<polygon fill="#000000" stroke="#000000" stroke-width=".5" points="669.8731,-11.2501 674.8731,-9.5 669.8731,-7.7501 669.8731,-11.2501"/>
</g>
<!-- pyVHDLModel.SyntaxModel.Symbol&#45;&gt;pyVHDLModel.SyntaxModel.SubtypeSymbol -->
<g id="edge4" class="edge">
<title>pyVHDLModel.SyntaxModel.Symbol&#45;&gt;pyVHDLModel.SyntaxModel.SubtypeSymbol</title>
<path fill="none" stroke="#000000" stroke-width=".5" d="M373.1561,-9.5C383.1579,-9.5 393.4153,-9.5 403.646,-9.5"/>
<polygon fill="#000000" stroke="#000000" stroke-width=".5" points="403.6651,-11.2501 408.665,-9.5 403.665,-7.7501 403.6651,-11.2501"/>
</g>
</g>
</svg>
