<?xml version="1.0" encoding="UTF-8" standalone="no"?>
<!DOCTYPE svg PUBLIC "-//W3C//DTD SVG 1.1//EN"
 "http://www.w3.org/Graphics/SVG/1.1/DTD/svg11.dtd">
<!-- Generated by graphviz version 2.40.1 (20161225.0304)
 -->
<!-- Title: inheritance6b2bdc7358 Pages: 1 -->
<svg width="576pt" height="45pt"
 viewBox="0.00 0.00 576.00 44.55" xmlns="http://www.w3.org/2000/svg" xmlns:xlink="http://www.w3.org/1999/xlink">
<g id="graph0" class="graph" transform="scale(.441 .441) rotate(0) translate(4 97)">
<title>inheritance6b2bdc7358</title>
<polygon fill="#ffffff" stroke="transparent" points="-4,4 -4,-97 1302,-97 1302,4 -4,4"/>
<!-- pyGHDL.dom.Concurrent.ConcurrentProcedureCall -->
<g id="node1" class="node">
<title>pyGHDL.dom.Concurrent.ConcurrentProcedureCall</title>
<g id="a_node1"><a xlink:href="../pyGHDL/pyGHDL.dom.Concurrent.html#pyGHDL.dom.Concurrent.ConcurrentProcedureCall" xlink:title="pyGHDL.dom.Concurrent.ConcurrentProcedureCall" target="_top">
<polygon fill="none" stroke="#000000" stroke-width=".5" points="1298,-37 1037,-37 1037,-18 1298,-18 1298,-37"/>
<text text-anchor="middle" x="1167.5" y="-25" font-family="Vera Sans, DejaVu Sans, Liberation Sans, Arial, Helvetica, sans" font-size="10.00" fill="#000000">pyGHDL.dom.Concurrent.ConcurrentProcedureCall</text>
</a>
</g>
</g>
<!-- pyVHDLModel.SyntaxModel.ConcurrentProcedureCall -->
<g id="node2" class="node">
<title>pyVHDLModel.SyntaxModel.ConcurrentProcedureCall</title>
<polygon fill="none" stroke="#000000" stroke-width=".5" points="1001,-56 726,-56 726,-37 1001,-37 1001,-56"/>
<text text-anchor="middle" x="863.5" y="-44" font-family="Vera Sans, DejaVu Sans, Liberation Sans, Arial, Helvetica, sans" font-size="10.00" fill="#000000">pyVHDLModel.SyntaxModel.ConcurrentProcedureCall</text>
</g>
<!-- pyVHDLModel.SyntaxModel.ConcurrentProcedureCall&#45;&gt;pyGHDL.dom.Concurrent.ConcurrentProcedureCall -->
<g id="edge1" class="edge">
<title>pyVHDLModel.SyntaxModel.ConcurrentProcedureCall&#45;&gt;pyGHDL.dom.Concurrent.ConcurrentProcedureCall</title>
<path fill="none" stroke="#000000" stroke-width=".5" d="M1001.2686,-37.8895C1011.302,-37.2624 1021.4189,-36.6301 1031.4423,-36.0036"/>
<polygon fill="#000000" stroke="#000000" stroke-width=".5" points="1031.7934,-37.7352 1036.6744,-35.6766 1031.575,-34.242 1031.7934,-37.7352"/>
</g>
<!-- pyGHDL.dom.DOMMixin -->
<g id="node3" class="node">
<title>pyGHDL.dom.DOMMixin</title>
<g id="a_node3"><a xlink:href="../pyGHDL.dom.html#pyGHDL.dom.DOMMixin" xlink:title="pyGHDL.dom.DOMMixin" target="_top">
<polygon fill="none" stroke="#000000" stroke-width=".5" points="930.5,-19 796.5,-19 796.5,0 930.5,0 930.5,-19"/>
<text text-anchor="middle" x="863.5" y="-7" font-family="Vera Sans, DejaVu Sans, Liberation Sans, Arial, Helvetica, sans" font-size="10.00" fill="#000000">pyGHDL.dom.DOMMixin</text>
</a>
</g>
</g>
<!-- pyGHDL.dom.DOMMixin&#45;&gt;pyGHDL.dom.Concurrent.ConcurrentProcedureCall -->
<g id="edge2" class="edge">
<title>pyGHDL.dom.DOMMixin&#45;&gt;pyGHDL.dom.Concurrent.ConcurrentProcedureCall</title>
<path fill="none" stroke="#000000" stroke-width=".5" d="M930.5904,-13.4725C960.422,-15.2388 996.6781,-17.3855 1031.7649,-19.4631"/>
<polygon fill="#000000" stroke="#000000" stroke-width=".5" points="1031.8375,-21.2203 1036.9322,-19.769 1032.0444,-17.7264 1031.8375,-21.2203"/>
</g>
<!-- pyVHDLModel.LabeledEntity -->
<g id="node4" class="node">
<title>pyVHDLModel.LabeledEntity</title>
<g id="a_node4"><a xlink:title="A ``LabeledEntity`` is a mixin class for all VHDL entities that can have">
<polygon fill="none" stroke="#000000" stroke-width=".5" points="155,-93 0,-93 0,-74 155,-74 155,-93"/>
<text text-anchor="middle" x="77.5" y="-81" font-family="Vera Sans, DejaVu Sans, Liberation Sans, Arial, Helvetica, sans" font-size="10.00" fill="#000000">pyVHDLModel.LabeledEntity</text>
</a>
</g>
</g>
<!-- pyVHDLModel.SyntaxModel.Statement -->
<g id="node8" class="node">
<title>pyVHDLModel.SyntaxModel.Statement</title>
<polygon fill="none" stroke="#000000" stroke-width=".5" points="396,-74 191,-74 191,-55 396,-55 396,-74"/>
<text text-anchor="middle" x="293.5" y="-62" font-family="Vera Sans, DejaVu Sans, Liberation Sans, Arial, Helvetica, sans" font-size="10.00" fill="#000000">pyVHDLModel.SyntaxModel.Statement</text>
</g>
<!-- pyVHDLModel.LabeledEntity&#45;&gt;pyVHDLModel.SyntaxModel.Statement -->
<g id="edge7" class="edge">
<title>pyVHDLModel.LabeledEntity&#45;&gt;pyVHDLModel.SyntaxModel.Statement</title>
<path fill="none" stroke="#000000" stroke-width=".5" d="M155.1758,-76.6674C165.154,-75.7897 175.5079,-74.8789 185.8575,-73.9686"/>
<polygon fill="#000000" stroke="#000000" stroke-width=".5" points="186.1088,-75.7033 190.9362,-73.5218 185.802,-72.2168 186.1088,-75.7033"/>
</g>
<!-- pyVHDLModel.ModelEntity -->
<g id="node5" class="node">
<title>pyVHDLModel.ModelEntity</title>
<g id="a_node5"><a xlink:title="``ModelEntity`` is the base class for all classes in the VHDL language model,">
<polygon fill="none" stroke="#000000" stroke-width=".5" points="150.5,-56 4.5,-56 4.5,-37 150.5,-37 150.5,-56"/>
<text text-anchor="middle" x="77.5" y="-44" font-family="Vera Sans, DejaVu Sans, Liberation Sans, Arial, Helvetica, sans" font-size="10.00" fill="#000000">pyVHDLModel.ModelEntity</text>
</a>
</g>
</g>
<!-- pyVHDLModel.ModelEntity&#45;&gt;pyVHDLModel.SyntaxModel.Statement -->
<g id="edge6" class="edge">
<title>pyVHDLModel.ModelEntity&#45;&gt;pyVHDLModel.SyntaxModel.Statement</title>
<path fill="none" stroke="#000000" stroke-width=".5" d="M150.6277,-52.594C161.9793,-53.5399 173.9067,-54.5339 185.8288,-55.5274"/>
<polygon fill="#000000" stroke="#000000" stroke-width=".5" points="185.8081,-57.2817 190.9362,-55.953 186.0988,-53.7937 185.8081,-57.2817"/>
</g>
<!-- pyVHDLModel.SyntaxModel.ConcurrentStatement -->
<g id="node6" class="node">
<title>pyVHDLModel.SyntaxModel.ConcurrentStatement</title>
<g id="a_node6"><a xlink:title="A ``ConcurrentStatement`` is a base&#45;class for all concurrent statements.">
<polygon fill="none" stroke="#000000" stroke-width=".5" points="690,-74 432,-74 432,-55 690,-55 690,-74"/>
<text text-anchor="middle" x="561" y="-62" font-family="Vera Sans, DejaVu Sans, Liberation Sans, Arial, Helvetica, sans" font-size="10.00" fill="#000000">pyVHDLModel.SyntaxModel.ConcurrentStatement</text>
</a>
</g>
</g>
<!-- pyVHDLModel.SyntaxModel.ConcurrentStatement&#45;&gt;pyVHDLModel.SyntaxModel.ConcurrentProcedureCall -->
<g id="edge3" class="edge">
<title>pyVHDLModel.SyntaxModel.ConcurrentStatement&#45;&gt;pyVHDLModel.SyntaxModel.ConcurrentProcedureCall</title>
<path fill="none" stroke="#000000" stroke-width=".5" d="M690.1647,-56.8142C700.1472,-56.2202 710.2609,-55.6184 720.3267,-55.0194"/>
<polygon fill="#000000" stroke="#000000" stroke-width=".5" points="720.698,-56.7505 725.5852,-54.7065 720.49,-53.2567 720.698,-56.7505"/>
</g>
<!-- pyVHDLModel.SyntaxModel.ProcedureCall -->
<g id="node7" class="node">
<title>pyVHDLModel.SyntaxModel.ProcedureCall</title>
<polygon fill="none" stroke="#000000" stroke-width=".5" points="671.5,-37 450.5,-37 450.5,-18 671.5,-18 671.5,-37"/>
<text text-anchor="middle" x="561" y="-25" font-family="Vera Sans, DejaVu Sans, Liberation Sans, Arial, Helvetica, sans" font-size="10.00" fill="#000000">pyVHDLModel.SyntaxModel.ProcedureCall</text>
</g>
<!-- pyVHDLModel.SyntaxModel.ProcedureCall&#45;&gt;pyVHDLModel.SyntaxModel.ConcurrentProcedureCall -->
<g id="edge4" class="edge">
<title>pyVHDLModel.SyntaxModel.ProcedureCall&#45;&gt;pyVHDLModel.SyntaxModel.ConcurrentProcedureCall</title>
<path fill="none" stroke="#000000" stroke-width=".5" d="M671.9222,-34.467C687.8146,-35.4652 704.3478,-36.5037 720.7474,-37.5337"/>
<polygon fill="#000000" stroke="#000000" stroke-width=".5" points="720.7319,-39.2861 725.8318,-37.8531 720.9514,-35.793 720.7319,-39.2861"/>
</g>
<!-- pyVHDLModel.SyntaxModel.Statement&#45;&gt;pyVHDLModel.SyntaxModel.ConcurrentStatement -->
<g id="edge5" class="edge">
<title>pyVHDLModel.SyntaxModel.Statement&#45;&gt;pyVHDLModel.SyntaxModel.ConcurrentStatement</title>
<path fill="none" stroke="#000000" stroke-width=".5" d="M396.1575,-64.5C406.1602,-64.5 416.4086,-64.5 426.6617,-64.5"/>
<polygon fill="#000000" stroke="#000000" stroke-width=".5" points="426.6943,-66.2501 431.6943,-64.5 426.6942,-62.7501 426.6943,-66.2501"/>
</g>
</g>
</svg>
