<?xml version="1.0" encoding="UTF-8" standalone="no"?>
<!DOCTYPE svg PUBLIC "-//W3C//DTD SVG 1.1//EN"
 "http://www.w3.org/Graphics/SVG/1.1/DTD/svg11.dtd">
<!-- Generated by graphviz version 2.40.1 (20161225.0304)
 -->
<!-- Title: inheritancededccd7a28 Pages: 1 -->
<svg width="576pt" height="56pt"
 viewBox="0.00 0.00 576.00 56.09" xmlns="http://www.w3.org/2000/svg" xmlns:xlink="http://www.w3.org/1999/xlink">
<g id="graph0" class="graph" transform="scale(.5609 .5609) rotate(0) translate(4 96)">
<title>inheritancededccd7a28</title>
<polygon fill="#ffffff" stroke="transparent" points="-4,4 -4,-96 1023,-96 1023,4 -4,4"/>
<!-- pyGHDL.dom.DOMMixin -->
<g id="node1" class="node">
<title>pyGHDL.dom.DOMMixin</title>
<g id="a_node1"><a xlink:href="../pyGHDL.dom.html#pyGHDL.dom.DOMMixin" xlink:title="pyGHDL.dom.DOMMixin" target="_top">
<polygon fill="none" stroke="#000000" stroke-width=".5" points="789,-92 655,-92 655,-73 789,-73 789,-92"/>
<text text-anchor="middle" x="722" y="-80" font-family="Vera Sans, DejaVu Sans, Liberation Sans, Arial, Helvetica, sans" font-size="10.00" fill="#000000">pyGHDL.dom.DOMMixin</text>
</a>
</g>
</g>
<!-- pyGHDL.dom.DesignUnit.Entity -->
<g id="node2" class="node">
<title>pyGHDL.dom.DesignUnit.Entity</title>
<g id="a_node2"><a xlink:href="../pyGHDL/pyGHDL.dom.DesignUnit.html#pyGHDL.dom.DesignUnit.Entity" xlink:title="pyGHDL.dom.DesignUnit.Entity" target="_top">
<polygon fill="none" stroke="#000000" stroke-width=".5" points="1019,-73 849,-73 849,-54 1019,-54 1019,-73"/>
<text text-anchor="middle" x="934" y="-61" font-family="Vera Sans, DejaVu Sans, Liberation Sans, Arial, Helvetica, sans" font-size="10.00" fill="#000000">pyGHDL.dom.DesignUnit.Entity</text>
</a>
</g>
</g>
<!-- pyGHDL.dom.DOMMixin&#45;&gt;pyGHDL.dom.DesignUnit.Entity -->
<g id="edge2" class="edge">
<title>pyGHDL.dom.DOMMixin&#45;&gt;pyGHDL.dom.DesignUnit.Entity</title>
<path fill="none" stroke="#000000" stroke-width=".5" d="M789.0781,-76.4883C806.3758,-74.938 825.2793,-73.2438 843.5525,-71.6061"/>
<polygon fill="#000000" stroke="#000000" stroke-width=".5" points="843.8641,-73.3353 848.6879,-71.1459 843.5516,-69.8493 843.8641,-73.3353"/>
</g>
<!-- pyVHDLModel.SyntaxModel.Entity -->
<g id="node3" class="node">
<title>pyVHDLModel.SyntaxModel.Entity</title>
<polygon fill="none" stroke="#000000" stroke-width=".5" points="813,-55 631,-55 631,-36 813,-36 813,-55"/>
<text text-anchor="middle" x="722" y="-43" font-family="Vera Sans, DejaVu Sans, Liberation Sans, Arial, Helvetica, sans" font-size="10.00" fill="#000000">pyVHDLModel.SyntaxModel.Entity</text>
</g>
<!-- pyVHDLModel.SyntaxModel.Entity&#45;&gt;pyGHDL.dom.DesignUnit.Entity -->
<g id="edge1" class="edge">
<title>pyVHDLModel.SyntaxModel.Entity&#45;&gt;pyGHDL.dom.DesignUnit.Entity</title>
<path fill="none" stroke="#000000" stroke-width=".5" d="M813.1374,-53.2381C823.3604,-54.1061 833.7716,-54.99 843.9804,-55.8568"/>
<polygon fill="#000000" stroke="#000000" stroke-width=".5" points="843.8438,-57.6014 848.974,-56.2808 844.14,-54.114 843.8438,-57.6014"/>
</g>
<!-- pyVHDLModel.DesignUnit -->
<g id="node4" class="node">
<title>pyVHDLModel.DesignUnit</title>
<g id="a_node4"><a xlink:title="A ``DesignUnit`` is a base&#45;class for all design units.">
<polygon fill="none" stroke="#000000" stroke-width=".5" points="330,-37 188,-37 188,-18 330,-18 330,-37"/>
<text text-anchor="middle" x="259" y="-25" font-family="Vera Sans, DejaVu Sans, Liberation Sans, Arial, Helvetica, sans" font-size="10.00" fill="#000000">pyVHDLModel.DesignUnit</text>
</a>
</g>
</g>
<!-- pyVHDLModel.PrimaryUnit -->
<g id="node8" class="node">
<title>pyVHDLModel.PrimaryUnit</title>
<g id="a_node8"><a xlink:title="A ``PrimaryUnit`` is a base&#45;class for all primary units.">
<polygon fill="none" stroke="#000000" stroke-width=".5" points="553.5,-37 407.5,-37 407.5,-18 553.5,-18 553.5,-37"/>
<text text-anchor="middle" x="480.5" y="-25" font-family="Vera Sans, DejaVu Sans, Liberation Sans, Arial, Helvetica, sans" font-size="10.00" fill="#000000">pyVHDLModel.PrimaryUnit</text>
</a>
</g>
</g>
<!-- pyVHDLModel.DesignUnit&#45;&gt;pyVHDLModel.PrimaryUnit -->
<g id="edge5" class="edge">
<title>pyVHDLModel.DesignUnit&#45;&gt;pyVHDLModel.PrimaryUnit</title>
<path fill="none" stroke="#000000" stroke-width=".5" d="M330.3032,-27.5C353.2305,-27.5 378.7521,-27.5 402.1565,-27.5"/>
<polygon fill="#000000" stroke="#000000" stroke-width=".5" points="402.4284,-29.2501 407.4283,-27.5 402.4283,-25.7501 402.4284,-29.2501"/>
</g>
<!-- pyVHDLModel.ModelEntity -->
<g id="node5" class="node">
<title>pyVHDLModel.ModelEntity</title>
<g id="a_node5"><a xlink:title="``ModelEntity`` is the base class for all classes in the VHDL language model,">
<polygon fill="none" stroke="#000000" stroke-width=".5" points="149,-56 3,-56 3,-37 149,-37 149,-56"/>
<text text-anchor="middle" x="76" y="-44" font-family="Vera Sans, DejaVu Sans, Liberation Sans, Arial, Helvetica, sans" font-size="10.00" fill="#000000">pyVHDLModel.ModelEntity</text>
</a>
</g>
</g>
<!-- pyVHDLModel.ModelEntity&#45;&gt;pyVHDLModel.DesignUnit -->
<g id="edge3" class="edge">
<title>pyVHDLModel.ModelEntity&#45;&gt;pyVHDLModel.DesignUnit</title>
<path fill="none" stroke="#000000" stroke-width=".5" d="M149.1154,-38.9088C160.1661,-37.7614 171.59,-36.5754 182.7058,-35.4213"/>
<polygon fill="#000000" stroke="#000000" stroke-width=".5" points="182.9964,-37.1506 187.789,-34.8935 182.6349,-33.6693 182.9964,-37.1506"/>
</g>
<!-- pyVHDLModel.NamedEntity -->
<g id="node6" class="node">
<title>pyVHDLModel.NamedEntity</title>
<g id="a_node6"><a xlink:title="A ``NamedEntity`` is a mixin class for all VHDL entities that have identifiers.">
<polygon fill="none" stroke="#000000" stroke-width=".5" points="152,-19 0,-19 0,0 152,0 152,-19"/>
<text text-anchor="middle" x="76" y="-7" font-family="Vera Sans, DejaVu Sans, Liberation Sans, Arial, Helvetica, sans" font-size="10.00" fill="#000000">pyVHDLModel.NamedEntity</text>
</a>
</g>
</g>
<!-- pyVHDLModel.NamedEntity&#45;&gt;pyVHDLModel.DesignUnit -->
<g id="edge4" class="edge">
<title>pyVHDLModel.NamedEntity&#45;&gt;pyVHDLModel.DesignUnit</title>
<path fill="none" stroke="#000000" stroke-width=".5" d="M152.0187,-16.9772C162.23,-17.9816 172.7064,-19.0121 182.9189,-20.0166"/>
<polygon fill="#000000" stroke="#000000" stroke-width=".5" points="182.7614,-21.7595 187.9087,-20.5074 183.1041,-18.2763 182.7614,-21.7595"/>
</g>
<!-- pyVHDLModel.MixinDesignUnitWithContext -->
<g id="node7" class="node">
<title>pyVHDLModel.MixinDesignUnitWithContext</title>
<polygon fill="none" stroke="#000000" stroke-width=".5" points="595,-74 366,-74 366,-55 595,-55 595,-74"/>
<text text-anchor="middle" x="480.5" y="-62" font-family="Vera Sans, DejaVu Sans, Liberation Sans, Arial, Helvetica, sans" font-size="10.00" fill="#000000">pyVHDLModel.MixinDesignUnitWithContext</text>
</g>
<!-- pyVHDLModel.MixinDesignUnitWithContext&#45;&gt;pyVHDLModel.SyntaxModel.Entity -->
<g id="edge7" class="edge">
<title>pyVHDLModel.MixinDesignUnitWithContext&#45;&gt;pyVHDLModel.SyntaxModel.Entity</title>
<path fill="none" stroke="#000000" stroke-width=".5" d="M595.2383,-55.473C605.3946,-54.6739 615.6078,-53.8704 625.5895,-53.0851"/>
<polygon fill="#000000" stroke="#000000" stroke-width=".5" points="625.9393,-54.8131 630.7866,-52.6762 625.6647,-51.3239 625.9393,-54.8131"/>
</g>
<!-- pyVHDLModel.PrimaryUnit&#45;&gt;pyVHDLModel.SyntaxModel.Entity -->
<g id="edge6" class="edge">
<title>pyVHDLModel.PrimaryUnit&#45;&gt;pyVHDLModel.SyntaxModel.Entity</title>
<path fill="none" stroke="#000000" stroke-width=".5" d="M553.6133,-32.9494C576.2948,-34.64 601.6469,-36.5296 625.6556,-38.3191"/>
<polygon fill="#000000" stroke="#000000" stroke-width=".5" points="625.6407,-40.0727 630.757,-38.6993 625.901,-36.5824 625.6407,-40.0727"/>
</g>
</g>
</svg>
