<?xml version="1.0" encoding="UTF-8" standalone="no"?>
<!DOCTYPE svg PUBLIC "-//W3C//DTD SVG 1.1//EN"
 "http://www.w3.org/Graphics/SVG/1.1/DTD/svg11.dtd">
<!-- Generated by graphviz version 2.40.1 (20161225.0304)
 -->
<!-- Title: inheritance94298e98bb Pages: 1 -->
<svg width="576pt" height="37pt"
 viewBox="0.00 0.00 576.00 37.07" xmlns="http://www.w3.org/2000/svg" xmlns:xlink="http://www.w3.org/1999/xlink">
<g id="graph0" class="graph" transform="scale(.4521 .4521) rotate(0) translate(4 78)">
<title>inheritance94298e98bb</title>
<polygon fill="#ffffff" stroke="transparent" points="-4,4 -4,-78 1270,-78 1270,4 -4,4"/>
<!-- pyGHDL.dom.DOMMixin -->
<g id="node1" class="node">
<title>pyGHDL.dom.DOMMixin</title>
<g id="a_node1"><a xlink:href="../pyGHDL.dom.html#pyGHDL.dom.DOMMixin" xlink:title="pyGHDL.dom.DOMMixin" target="_top">
<polygon fill="none" stroke="#000000" stroke-width=".5" points="980.5,-74 846.5,-74 846.5,-55 980.5,-55 980.5,-74"/>
<text text-anchor="middle" x="913.5" y="-62" font-family="Vera Sans, DejaVu Sans, Liberation Sans, Arial, Helvetica, sans" font-size="10.00" fill="#000000">pyGHDL.dom.DOMMixin</text>
</a>
</g>
</g>
<!-- pyGHDL.dom.PSL.VerificationProperty -->
<g id="node2" class="node">
<title>pyGHDL.dom.PSL.VerificationProperty</title>
<g id="a_node2"><a xlink:href="../pyGHDL/pyGHDL.dom.PSL.html#pyGHDL.dom.PSL.VerificationProperty" xlink:title="pyGHDL.dom.PSL.VerificationProperty" target="_top">
<polygon fill="none" stroke="#000000" stroke-width=".5" points="1266,-55 1066,-55 1066,-36 1266,-36 1266,-55"/>
<text text-anchor="middle" x="1166" y="-43" font-family="Vera Sans, DejaVu Sans, Liberation Sans, Arial, Helvetica, sans" font-size="10.00" fill="#000000">pyGHDL.dom.PSL.VerificationProperty</text>
</a>
</g>
</g>
<!-- pyGHDL.dom.DOMMixin&#45;&gt;pyGHDL.dom.PSL.VerificationProperty -->
<g id="edge2" class="edge">
<title>pyGHDL.dom.DOMMixin&#45;&gt;pyGHDL.dom.PSL.VerificationProperty</title>
<path fill="none" stroke="#000000" stroke-width=".5" d="M980.5024,-59.4582C1005.1224,-57.6056 1033.6299,-55.4605 1060.7991,-53.4161"/>
<polygon fill="#000000" stroke="#000000" stroke-width=".5" points="1061.0008,-55.156 1065.8554,-53.0356 1060.7382,-51.6658 1061.0008,-55.156"/>
</g>
<!-- pyVHDLModel.PSLModel.VerificationProperty -->
<g id="node3" class="node">
<title>pyVHDLModel.PSLModel.VerificationProperty</title>
<polygon fill="none" stroke="#000000" stroke-width=".5" points="1030,-37 797,-37 797,-18 1030,-18 1030,-37"/>
<text text-anchor="middle" x="913.5" y="-25" font-family="Vera Sans, DejaVu Sans, Liberation Sans, Arial, Helvetica, sans" font-size="10.00" fill="#000000">pyVHDLModel.PSLModel.VerificationProperty</text>
</g>
<!-- pyVHDLModel.PSLModel.VerificationProperty&#45;&gt;pyGHDL.dom.PSL.VerificationProperty -->
<g id="edge1" class="edge">
<title>pyVHDLModel.PSLModel.VerificationProperty&#45;&gt;pyGHDL.dom.PSL.VerificationProperty</title>
<path fill="none" stroke="#000000" stroke-width=".5" d="M1030.1416,-35.815C1040.265,-36.5367 1050.4713,-37.2643 1060.498,-37.9791"/>
<polygon fill="#000000" stroke="#000000" stroke-width=".5" points="1060.6118,-39.7415 1065.7236,-38.3516 1060.8607,-36.2504 1060.6118,-39.7415"/>
</g>
<!-- pyVHDLModel.DesignUnit -->
<g id="node4" class="node">
<title>pyVHDLModel.DesignUnit</title>
<g id="a_node4"><a xlink:title="A ``DesignUnit`` is a base&#45;class for all design units.">
<polygon fill="none" stroke="#000000" stroke-width=".5" points="330,-37 188,-37 188,-18 330,-18 330,-37"/>
<text text-anchor="middle" x="259" y="-25" font-family="Vera Sans, DejaVu Sans, Liberation Sans, Arial, Helvetica, sans" font-size="10.00" fill="#000000">pyVHDLModel.DesignUnit</text>
</a>
</g>
</g>
<!-- pyVHDLModel.PrimaryUnit -->
<g id="node8" class="node">
<title>pyVHDLModel.PrimaryUnit</title>
<g id="a_node8"><a xlink:title="A ``PrimaryUnit`` is a base&#45;class for all primary units.">
<polygon fill="none" stroke="#000000" stroke-width=".5" points="512,-37 366,-37 366,-18 512,-18 512,-37"/>
<text text-anchor="middle" x="439" y="-25" font-family="Vera Sans, DejaVu Sans, Liberation Sans, Arial, Helvetica, sans" font-size="10.00" fill="#000000">pyVHDLModel.PrimaryUnit</text>
</a>
</g>
</g>
<!-- pyVHDLModel.DesignUnit&#45;&gt;pyVHDLModel.PrimaryUnit -->
<g id="edge7" class="edge">
<title>pyVHDLModel.DesignUnit&#45;&gt;pyVHDLModel.PrimaryUnit</title>
<path fill="none" stroke="#000000" stroke-width=".5" d="M330.1408,-27.5C340.0988,-27.5 350.3794,-27.5 360.4647,-27.5"/>
<polygon fill="#000000" stroke="#000000" stroke-width=".5" points="360.7182,-29.2501 365.7182,-27.5 360.7181,-25.7501 360.7182,-29.2501"/>
</g>
<!-- pyVHDLModel.ModelEntity -->
<g id="node5" class="node">
<title>pyVHDLModel.ModelEntity</title>
<g id="a_node5"><a xlink:title="``ModelEntity`` is the base class for all classes in the VHDL language model,">
<polygon fill="none" stroke="#000000" stroke-width=".5" points="149,-56 3,-56 3,-37 149,-37 149,-56"/>
<text text-anchor="middle" x="76" y="-44" font-family="Vera Sans, DejaVu Sans, Liberation Sans, Arial, Helvetica, sans" font-size="10.00" fill="#000000">pyVHDLModel.ModelEntity</text>
</a>
</g>
</g>
<!-- pyVHDLModel.ModelEntity&#45;&gt;pyVHDLModel.DesignUnit -->
<g id="edge3" class="edge">
<title>pyVHDLModel.ModelEntity&#45;&gt;pyVHDLModel.DesignUnit</title>
<path fill="none" stroke="#000000" stroke-width=".5" d="M149.1154,-38.9088C160.1661,-37.7614 171.59,-36.5754 182.7058,-35.4213"/>
<polygon fill="#000000" stroke="#000000" stroke-width=".5" points="182.9964,-37.1506 187.789,-34.8935 182.6349,-33.6693 182.9964,-37.1506"/>
</g>
<!-- pyVHDLModel.NamedEntity -->
<g id="node6" class="node">
<title>pyVHDLModel.NamedEntity</title>
<g id="a_node6"><a xlink:title="A ``NamedEntity`` is a mixin class for all VHDL entities that have identifiers.">
<polygon fill="none" stroke="#000000" stroke-width=".5" points="152,-19 0,-19 0,0 152,0 152,-19"/>
<text text-anchor="middle" x="76" y="-7" font-family="Vera Sans, DejaVu Sans, Liberation Sans, Arial, Helvetica, sans" font-size="10.00" fill="#000000">pyVHDLModel.NamedEntity</text>
</a>
</g>
</g>
<!-- pyVHDLModel.NamedEntity&#45;&gt;pyVHDLModel.DesignUnit -->
<g id="edge4" class="edge">
<title>pyVHDLModel.NamedEntity&#45;&gt;pyVHDLModel.DesignUnit</title>
<path fill="none" stroke="#000000" stroke-width=".5" d="M152.0187,-16.9772C162.23,-17.9816 172.7064,-19.0121 182.9189,-20.0166"/>
<polygon fill="#000000" stroke="#000000" stroke-width=".5" points="182.7614,-21.7595 187.9087,-20.5074 183.1041,-18.2763 182.7614,-21.7595"/>
</g>
<!-- pyVHDLModel.PSLModel.PSLPrimaryUnit -->
<g id="node7" class="node">
<title>pyVHDLModel.PSLModel.PSLPrimaryUnit</title>
<polygon fill="none" stroke="#000000" stroke-width=".5" points="761,-37 548,-37 548,-18 761,-18 761,-37"/>
<text text-anchor="middle" x="654.5" y="-25" font-family="Vera Sans, DejaVu Sans, Liberation Sans, Arial, Helvetica, sans" font-size="10.00" fill="#000000">pyVHDLModel.PSLModel.PSLPrimaryUnit</text>
</g>
<!-- pyVHDLModel.PSLModel.PSLPrimaryUnit&#45;&gt;pyVHDLModel.PSLModel.VerificationProperty -->
<g id="edge6" class="edge">
<title>pyVHDLModel.PSLModel.PSLPrimaryUnit&#45;&gt;pyVHDLModel.PSLModel.VerificationProperty</title>
<path fill="none" stroke="#000000" stroke-width=".5" d="M761.3405,-27.5C771.308,-27.5 781.4604,-27.5 791.5514,-27.5"/>
<polygon fill="#000000" stroke="#000000" stroke-width=".5" points="791.8215,-29.2501 796.8214,-27.5 791.8214,-25.7501 791.8215,-29.2501"/>
</g>
<!-- pyVHDLModel.PrimaryUnit&#45;&gt;pyVHDLModel.PSLModel.PSLPrimaryUnit -->
<g id="edge5" class="edge">
<title>pyVHDLModel.PrimaryUnit&#45;&gt;pyVHDLModel.PSLModel.PSLPrimaryUnit</title>
<path fill="none" stroke="#000000" stroke-width=".5" d="M512.2592,-27.5C522.116,-27.5 532.4034,-27.5 542.74,-27.5"/>
<polygon fill="#000000" stroke="#000000" stroke-width=".5" points="542.8167,-29.2501 547.8166,-27.5 542.8166,-25.7501 542.8167,-29.2501"/>
</g>
</g>
</svg>
