<?xml version="1.0" encoding="UTF-8" standalone="no"?>
<!DOCTYPE svg PUBLIC "-//W3C//DTD SVG 1.1//EN"
 "http://www.w3.org/Graphics/SVG/1.1/DTD/svg11.dtd">
<!-- Generated by graphviz version 2.40.1 (20161225.0304)
 -->
<!-- Title: inheritance05f221a044 Pages: 1 -->
<svg width="576pt" height="32pt"
 viewBox="0.00 0.00 576.00 31.75" xmlns="http://www.w3.org/2000/svg" xmlns:xlink="http://www.w3.org/1999/xlink">
<g id="graph0" class="graph" transform="scale(.4961 .4961) rotate(0) translate(4 60)">
<title>inheritance05f221a044</title>
<polygon fill="#ffffff" stroke="transparent" points="-4,4 -4,-60 1157,-60 1157,4 -4,4"/>
<!-- pyGHDL.dom.DOMMixin -->
<g id="node1" class="node">
<title>pyGHDL.dom.DOMMixin</title>
<g id="a_node1"><a xlink:href="../pyGHDL.dom.html#pyGHDL.dom.DOMMixin" xlink:title="pyGHDL.dom.DOMMixin" target="_top">
<polygon fill="none" stroke="#000000" stroke-width=".5" points="860,-56 726,-56 726,-37 860,-37 860,-56"/>
<text text-anchor="middle" x="793" y="-44" font-family="Vera Sans, DejaVu Sans, Liberation Sans, Arial, Helvetica, sans" font-size="10.00" fill="#000000">pyGHDL.dom.DOMMixin</text>
</a>
</g>
</g>
<!-- pyGHDL.dom.Sequential.IndexedChoice -->
<g id="node2" class="node">
<title>pyGHDL.dom.Sequential.IndexedChoice</title>
<g id="a_node2"><a xlink:href="../pyGHDL/pyGHDL.dom.Sequential.html#pyGHDL.dom.Sequential.IndexedChoice" xlink:title="pyGHDL.dom.Sequential.IndexedChoice" target="_top">
<polygon fill="none" stroke="#000000" stroke-width=".5" points="1153,-37 942,-37 942,-18 1153,-18 1153,-37"/>
<text text-anchor="middle" x="1047.5" y="-25" font-family="Vera Sans, DejaVu Sans, Liberation Sans, Arial, Helvetica, sans" font-size="10.00" fill="#000000">pyGHDL.dom.Sequential.IndexedChoice</text>
</a>
</g>
</g>
<!-- pyGHDL.dom.DOMMixin&#45;&gt;pyGHDL.dom.Sequential.IndexedChoice -->
<g id="edge2" class="edge">
<title>pyGHDL.dom.DOMMixin&#45;&gt;pyGHDL.dom.Sequential.IndexedChoice</title>
<path fill="none" stroke="#000000" stroke-width=".5" d="M860.1998,-41.4831C883.6705,-39.7309 910.6778,-37.7146 936.7456,-35.7685"/>
<polygon fill="#000000" stroke="#000000" stroke-width=".5" points="937.0896,-37.4978 941.9454,-35.3803 936.8289,-34.0075 937.0896,-37.4978"/>
</g>
<!-- pyVHDLModel.SyntaxModel.IndexedChoice -->
<g id="node3" class="node">
<title>pyVHDLModel.SyntaxModel.IndexedChoice</title>
<polygon fill="none" stroke="#000000" stroke-width=".5" points="906,-19 680,-19 680,0 906,0 906,-19"/>
<text text-anchor="middle" x="793" y="-7" font-family="Vera Sans, DejaVu Sans, Liberation Sans, Arial, Helvetica, sans" font-size="10.00" fill="#000000">pyVHDLModel.SyntaxModel.IndexedChoice</text>
</g>
<!-- pyVHDLModel.SyntaxModel.IndexedChoice&#45;&gt;pyGHDL.dom.Sequential.IndexedChoice -->
<g id="edge1" class="edge">
<title>pyVHDLModel.SyntaxModel.IndexedChoice&#45;&gt;pyGHDL.dom.Sequential.IndexedChoice</title>
<path fill="none" stroke="#000000" stroke-width=".5" d="M906.1095,-17.4999C916.1709,-18.2115 926.3517,-18.9316 936.3961,-19.642"/>
<polygon fill="#000000" stroke="#000000" stroke-width=".5" points="936.5238,-21.4053 941.6349,-20.0125 936.7708,-17.914 936.5238,-21.4053"/>
</g>
<!-- pyVHDLModel.ModelEntity -->
<g id="node4" class="node">
<title>pyVHDLModel.ModelEntity</title>
<g id="a_node4"><a xlink:title="``ModelEntity`` is the base class for all classes in the VHDL language model,">
<polygon fill="none" stroke="#000000" stroke-width=".5" points="146,-19 0,-19 0,0 146,0 146,-19"/>
<text text-anchor="middle" x="73" y="-7" font-family="Vera Sans, DejaVu Sans, Liberation Sans, Arial, Helvetica, sans" font-size="10.00" fill="#000000">pyVHDLModel.ModelEntity</text>
</a>
</g>
</g>
<!-- pyVHDLModel.SyntaxModel.Choice -->
<g id="node5" class="node">
<title>pyVHDLModel.SyntaxModel.Choice</title>
<g id="a_node5"><a xlink:title="A ``Choice`` is a base&#45;class for all choices.">
<polygon fill="none" stroke="#000000" stroke-width=".5" points="369,-19 182,-19 182,0 369,0 369,-19"/>
<text text-anchor="middle" x="275.5" y="-7" font-family="Vera Sans, DejaVu Sans, Liberation Sans, Arial, Helvetica, sans" font-size="10.00" fill="#000000">pyVHDLModel.SyntaxModel.Choice</text>
</a>
</g>
</g>
<!-- pyVHDLModel.ModelEntity&#45;&gt;pyVHDLModel.SyntaxModel.Choice -->
<g id="edge3" class="edge">
<title>pyVHDLModel.ModelEntity&#45;&gt;pyVHDLModel.SyntaxModel.Choice</title>
<path fill="none" stroke="#000000" stroke-width=".5" d="M146.1071,-9.5C156.0376,-9.5 166.3604,-9.5 176.6501,-9.5"/>
<polygon fill="#000000" stroke="#000000" stroke-width=".5" points="176.6969,-11.2501 181.6969,-9.5 176.6968,-7.7501 176.6969,-11.2501"/>
</g>
<!-- pyVHDLModel.SyntaxModel.SequentialChoice -->
<g id="node6" class="node">
<title>pyVHDLModel.SyntaxModel.SequentialChoice</title>
<g id="a_node6"><a xlink:title="A ``SequentialChoice`` is a base&#45;class for all sequential choices">
<polygon fill="none" stroke="#000000" stroke-width=".5" points="644,-19 405,-19 405,0 644,0 644,-19"/>
<text text-anchor="middle" x="524.5" y="-7" font-family="Vera Sans, DejaVu Sans, Liberation Sans, Arial, Helvetica, sans" font-size="10.00" fill="#000000">pyVHDLModel.SyntaxModel.SequentialChoice</text>
</a>
</g>
</g>
<!-- pyVHDLModel.SyntaxModel.Choice&#45;&gt;pyVHDLModel.SyntaxModel.SequentialChoice -->
<g id="edge5" class="edge">
<title>pyVHDLModel.SyntaxModel.Choice&#45;&gt;pyVHDLModel.SyntaxModel.SequentialChoice</title>
<path fill="none" stroke="#000000" stroke-width=".5" d="M369.2814,-9.5C379.2331,-9.5 389.4642,-9.5 399.6979,-9.5"/>
<polygon fill="#000000" stroke="#000000" stroke-width=".5" points="399.7208,-11.2501 404.7207,-9.5 399.7207,-7.7501 399.7208,-11.2501"/>
</g>
<!-- pyVHDLModel.SyntaxModel.SequentialChoice&#45;&gt;pyVHDLModel.SyntaxModel.IndexedChoice -->
<g id="edge4" class="edge">
<title>pyVHDLModel.SyntaxModel.SequentialChoice&#45;&gt;pyVHDLModel.SyntaxModel.IndexedChoice</title>
<path fill="none" stroke="#000000" stroke-width=".5" d="M644.2228,-9.5C654.3451,-9.5 664.5789,-9.5 674.6903,-9.5"/>
<polygon fill="#000000" stroke="#000000" stroke-width=".5" points="674.9655,-11.2501 679.9655,-9.5 674.9654,-7.7501 674.9655,-11.2501"/>
</g>
</g>
</svg>
