<?xml version="1.0" encoding="UTF-8" standalone="no"?>
<!DOCTYPE svg PUBLIC "-//W3C//DTD SVG 1.1//EN"
 "http://www.w3.org/Graphics/SVG/1.1/DTD/svg11.dtd">
<!-- Generated by graphviz version 2.40.1 (20161225.0304)
 -->
<!-- Title: inheritance43034e364b Pages: 1 -->
<svg width="576pt" height="34pt"
 viewBox="0.00 0.00 576.00 33.59" xmlns="http://www.w3.org/2000/svg" xmlns:xlink="http://www.w3.org/1999/xlink">
<g id="graph0" class="graph" transform="scale(.4097 .4097) rotate(0) translate(4 78)">
<title>inheritance43034e364b</title>
<polygon fill="#ffffff" stroke="transparent" points="-4,4 -4,-78 1402,-78 1402,4 -4,4"/>
<!-- pyGHDL.dom.DOMMixin -->
<g id="node1" class="node">
<title>pyGHDL.dom.DOMMixin</title>
<g id="a_node1"><a xlink:href="../pyGHDL.dom.html#pyGHDL.dom.DOMMixin" xlink:title="pyGHDL.dom.DOMMixin" target="_top">
<polygon fill="none" stroke="#000000" stroke-width=".5" points="999.5,-74 865.5,-74 865.5,-55 999.5,-55 999.5,-74"/>
<text text-anchor="middle" x="932.5" y="-62" font-family="Vera Sans, DejaVu Sans, Liberation Sans, Arial, Helvetica, sans" font-size="10.00" fill="#000000">pyGHDL.dom.DOMMixin</text>
</a>
</g>
</g>
<!-- pyGHDL.dom.InterfaceItem.ParameterFileInterfaceItem -->
<g id="node2" class="node">
<title>pyGHDL.dom.InterfaceItem.ParameterFileInterfaceItem</title>
<g id="a_node2"><a xlink:href="../pyGHDL/pyGHDL.dom.InterfaceItem.html#pyGHDL.dom.InterfaceItem.ParameterFileInterfaceItem" xlink:title="pyGHDL.dom.InterfaceItem.ParameterFileInterfaceItem" target="_top">
<polygon fill="none" stroke="#000000" stroke-width=".5" points="1398,-55 1112,-55 1112,-36 1398,-36 1398,-55"/>
<text text-anchor="middle" x="1255" y="-43" font-family="Vera Sans, DejaVu Sans, Liberation Sans, Arial, Helvetica, sans" font-size="10.00" fill="#000000">pyGHDL.dom.InterfaceItem.ParameterFileInterfaceItem</text>
</a>
</g>
</g>
<!-- pyGHDL.dom.DOMMixin&#45;&gt;pyGHDL.dom.InterfaceItem.ParameterFileInterfaceItem -->
<g id="edge2" class="edge">
<title>pyGHDL.dom.DOMMixin&#45;&gt;pyGHDL.dom.InterfaceItem.ParameterFileInterfaceItem</title>
<path fill="none" stroke="#000000" stroke-width=".5" d="M999.714,-60.5401C1030.896,-58.703 1069.2894,-56.4411 1106.742,-54.2346"/>
<polygon fill="#000000" stroke="#000000" stroke-width=".5" points="1106.8918,-55.9789 1111.7802,-53.9378 1106.6859,-52.4849 1106.8918,-55.9789"/>
</g>
<!-- pyVHDLModel.SyntaxModel.ParameterFileInterfaceItem -->
<g id="node3" class="node">
<title>pyVHDLModel.SyntaxModel.ParameterFileInterfaceItem</title>
<polygon fill="none" stroke="#000000" stroke-width=".5" points="1076,-37 789,-37 789,-18 1076,-18 1076,-37"/>
<text text-anchor="middle" x="932.5" y="-25" font-family="Vera Sans, DejaVu Sans, Liberation Sans, Arial, Helvetica, sans" font-size="10.00" fill="#000000">pyVHDLModel.SyntaxModel.ParameterFileInterfaceItem</text>
</g>
<!-- pyVHDLModel.SyntaxModel.ParameterFileInterfaceItem&#45;&gt;pyGHDL.dom.InterfaceItem.ParameterFileInterfaceItem -->
<g id="edge1" class="edge">
<title>pyVHDLModel.SyntaxModel.ParameterFileInterfaceItem&#45;&gt;pyGHDL.dom.InterfaceItem.ParameterFileInterfaceItem</title>
<path fill="none" stroke="#000000" stroke-width=".5" d="M1076.3012,-35.5261C1086.4777,-36.0941 1096.7481,-36.6673 1106.9475,-37.2366"/>
<polygon fill="#000000" stroke="#000000" stroke-width=".5" points="1106.8583,-38.9843 1111.9481,-37.5157 1107.0534,-35.4897 1106.8583,-38.9843"/>
</g>
<!-- pyVHDLModel.ModelEntity -->
<g id="node4" class="node">
<title>pyVHDLModel.ModelEntity</title>
<g id="a_node4"><a xlink:title="``ModelEntity`` is the base class for all classes in the VHDL language model,">
<polygon fill="none" stroke="#000000" stroke-width=".5" points="168.5,-74 22.5,-74 22.5,-55 168.5,-55 168.5,-74"/>
<text text-anchor="middle" x="95.5" y="-62" font-family="Vera Sans, DejaVu Sans, Liberation Sans, Arial, Helvetica, sans" font-size="10.00" fill="#000000">pyVHDLModel.ModelEntity</text>
</a>
</g>
</g>
<!-- pyVHDLModel.SyntaxModel.Obj -->
<g id="node7" class="node">
<title>pyVHDLModel.SyntaxModel.Obj</title>
<polygon fill="none" stroke="#000000" stroke-width=".5" points="422,-56 252,-56 252,-37 422,-37 422,-56"/>
<text text-anchor="middle" x="337" y="-44" font-family="Vera Sans, DejaVu Sans, Liberation Sans, Arial, Helvetica, sans" font-size="10.00" fill="#000000">pyVHDLModel.SyntaxModel.Obj</text>
</g>
<!-- pyVHDLModel.ModelEntity&#45;&gt;pyVHDLModel.SyntaxModel.Obj -->
<g id="edge4" class="edge">
<title>pyVHDLModel.ModelEntity&#45;&gt;pyVHDLModel.SyntaxModel.Obj</title>
<path fill="none" stroke="#000000" stroke-width=".5" d="M168.6133,-59.0506C193.2118,-57.2171 220.9514,-55.1496 246.712,-53.2295"/>
<polygon fill="#000000" stroke="#000000" stroke-width=".5" points="246.9802,-54.9645 251.8362,-52.8476 246.72,-51.4742 246.9802,-54.9645"/>
</g>
<!-- pyVHDLModel.MultipleNamedEntity -->
<g id="node5" class="node">
<title>pyVHDLModel.MultipleNamedEntity</title>
<g id="a_node5"><a xlink:title="A ``MultipleNamedEntity`` is a mixin class for all VHDL entities that declare">
<polygon fill="none" stroke="#000000" stroke-width=".5" points="191,-37 0,-37 0,-18 191,-18 191,-37"/>
<text text-anchor="middle" x="95.5" y="-25" font-family="Vera Sans, DejaVu Sans, Liberation Sans, Arial, Helvetica, sans" font-size="10.00" fill="#000000">pyVHDLModel.MultipleNamedEntity</text>
</a>
</g>
</g>
<!-- pyVHDLModel.MultipleNamedEntity&#45;&gt;pyVHDLModel.SyntaxModel.Obj -->
<g id="edge5" class="edge">
<title>pyVHDLModel.MultipleNamedEntity&#45;&gt;pyVHDLModel.SyntaxModel.Obj</title>
<path fill="none" stroke="#000000" stroke-width=".5" d="M191.2941,-35.0366C209.5907,-36.4761 228.6868,-37.9785 246.801,-39.4036"/>
<polygon fill="#000000" stroke="#000000" stroke-width=".5" points="246.7608,-41.1558 251.8827,-39.8034 247.0354,-37.6665 246.7608,-41.1558"/>
</g>
<!-- pyVHDLModel.SyntaxModel.File -->
<g id="node6" class="node">
<title>pyVHDLModel.SyntaxModel.File</title>
<polygon fill="none" stroke="#000000" stroke-width=".5" points="703,-56 533,-56 533,-37 703,-37 703,-56"/>
<text text-anchor="middle" x="618" y="-44" font-family="Vera Sans, DejaVu Sans, Liberation Sans, Arial, Helvetica, sans" font-size="10.00" fill="#000000">pyVHDLModel.SyntaxModel.File</text>
</g>
<!-- pyVHDLModel.SyntaxModel.File&#45;&gt;pyVHDLModel.SyntaxModel.ParameterFileInterfaceItem -->
<g id="edge6" class="edge">
<title>pyVHDLModel.SyntaxModel.File&#45;&gt;pyVHDLModel.SyntaxModel.ParameterFileInterfaceItem</title>
<path fill="none" stroke="#000000" stroke-width=".5" d="M703.1082,-41.3583C728.026,-39.853 756.0292,-38.1612 783.6836,-36.4905"/>
<polygon fill="#000000" stroke="#000000" stroke-width=".5" points="783.9571,-38.2273 788.8425,-36.1788 783.746,-34.7336 783.9571,-38.2273"/>
</g>
<!-- pyVHDLModel.SyntaxModel.Obj&#45;&gt;pyVHDLModel.SyntaxModel.File -->
<g id="edge3" class="edge">
<title>pyVHDLModel.SyntaxModel.Obj&#45;&gt;pyVHDLModel.SyntaxModel.File</title>
<path fill="none" stroke="#000000" stroke-width=".5" d="M422.0718,-46.5C455.3447,-46.5 493.5568,-46.5 527.3488,-46.5"/>
<polygon fill="#000000" stroke="#000000" stroke-width=".5" points="527.7328,-48.2501 532.7328,-46.5 527.7327,-44.7501 527.7328,-48.2501"/>
</g>
<!-- pyVHDLModel.SyntaxModel.InterfaceItem -->
<g id="node8" class="node">
<title>pyVHDLModel.SyntaxModel.InterfaceItem</title>
<g id="a_node8"><a xlink:title="An ``InterfaceItem`` is a base&#45;class for all mixin&#45;classes for all interface">
<polygon fill="none" stroke="#000000" stroke-width=".5" points="447,-19 227,-19 227,0 447,0 447,-19"/>
<text text-anchor="middle" x="337" y="-7" font-family="Vera Sans, DejaVu Sans, Liberation Sans, Arial, Helvetica, sans" font-size="10.00" fill="#000000">pyVHDLModel.SyntaxModel.InterfaceItem</text>
</a>
</g>
</g>
<!-- pyVHDLModel.SyntaxModel.ParameterInterfaceItem -->
<g id="node9" class="node">
<title>pyVHDLModel.SyntaxModel.ParameterInterfaceItem</title>
<g id="a_node9"><a xlink:title="A ``ParameterInterfaceItem`` is a mixin class for all parameter interface items.">
<polygon fill="none" stroke="#000000" stroke-width=".5" points="753,-19 483,-19 483,0 753,0 753,-19"/>
<text text-anchor="middle" x="618" y="-7" font-family="Vera Sans, DejaVu Sans, Liberation Sans, Arial, Helvetica, sans" font-size="10.00" fill="#000000">pyVHDLModel.SyntaxModel.ParameterInterfaceItem</text>
</a>
</g>
</g>
<!-- pyVHDLModel.SyntaxModel.InterfaceItem&#45;&gt;pyVHDLModel.SyntaxModel.ParameterInterfaceItem -->
<g id="edge8" class="edge">
<title>pyVHDLModel.SyntaxModel.InterfaceItem&#45;&gt;pyVHDLModel.SyntaxModel.ParameterInterfaceItem</title>
<path fill="none" stroke="#000000" stroke-width=".5" d="M447.2521,-9.5C457.2944,-9.5 467.5531,-9.5 477.8096,-9.5"/>
<polygon fill="#000000" stroke="#000000" stroke-width=".5" points="477.8435,-11.2501 482.8435,-9.5 477.8435,-7.7501 477.8435,-11.2501"/>
</g>
<!-- pyVHDLModel.SyntaxModel.ParameterInterfaceItem&#45;&gt;pyVHDLModel.SyntaxModel.ParameterFileInterfaceItem -->
<g id="edge7" class="edge">
<title>pyVHDLModel.SyntaxModel.ParameterInterfaceItem&#45;&gt;pyVHDLModel.SyntaxModel.ParameterFileInterfaceItem</title>
<path fill="none" stroke="#000000" stroke-width=".5" d="M753.2015,-17.2381C763.3597,-17.8195 773.6431,-18.408 783.8776,-18.9938"/>
<polygon fill="#000000" stroke="#000000" stroke-width=".5" points="783.8053,-20.7424 788.8972,-19.2811 784.0054,-17.2481 783.8053,-20.7424"/>
</g>
</g>
</svg>
