<?xml version="1.0" encoding="UTF-8" standalone="no"?>
<!DOCTYPE svg PUBLIC "-//W3C//DTD SVG 1.1//EN"
 "http://www.w3.org/Graphics/SVG/1.1/DTD/svg11.dtd">
<!-- Generated by graphviz version 2.40.1 (20161225.0304)
 -->
<!-- Title: inheritance56d7938ba6 Pages: 1 -->
<svg width="576pt" height="30pt"
 viewBox="0.00 0.00 576.00 29.71" xmlns="http://www.w3.org/2000/svg" xmlns:xlink="http://www.w3.org/1999/xlink">
<g id="graph0" class="graph" transform="scale(.4641 .4641) rotate(0) translate(4 60)">
<title>inheritance56d7938ba6</title>
<polygon fill="#ffffff" stroke="transparent" points="-4,4 -4,-60 1237,-60 1237,4 -4,4"/>
<!-- pyGHDL.dom.DOMMixin -->
<g id="node1" class="node">
<title>pyGHDL.dom.DOMMixin</title>
<g id="a_node1"><a xlink:href="../pyGHDL.dom.html#pyGHDL.dom.DOMMixin" xlink:title="pyGHDL.dom.DOMMixin" target="_top">
<polygon fill="none" stroke="#000000" stroke-width=".5" points="910.5,-56 776.5,-56 776.5,-37 910.5,-37 910.5,-56"/>
<text text-anchor="middle" x="843.5" y="-44" font-family="Vera Sans, DejaVu Sans, Liberation Sans, Arial, Helvetica, sans" font-size="10.00" fill="#000000">pyGHDL.dom.DOMMixin</text>
</a>
</g>
</g>
<!-- pyGHDL.dom.Expression.IdentityExpression -->
<g id="node2" class="node">
<title>pyGHDL.dom.Expression.IdentityExpression</title>
<g id="a_node2"><a xlink:href="../pyGHDL/pyGHDL.dom.Expression.html#pyGHDL.dom.Expression.IdentityExpression" xlink:title="pyGHDL.dom.Expression.IdentityExpression" target="_top">
<polygon fill="none" stroke="#000000" stroke-width=".5" points="1233,-37 1002,-37 1002,-18 1233,-18 1233,-37"/>
<text text-anchor="middle" x="1117.5" y="-25" font-family="Vera Sans, DejaVu Sans, Liberation Sans, Arial, Helvetica, sans" font-size="10.00" fill="#000000">pyGHDL.dom.Expression.IdentityExpression</text>
</a>
</g>
</g>
<!-- pyGHDL.dom.DOMMixin&#45;&gt;pyGHDL.dom.Expression.IdentityExpression -->
<g id="edge2" class="edge">
<title>pyGHDL.dom.DOMMixin&#45;&gt;pyGHDL.dom.Expression.IdentityExpression</title>
<path fill="none" stroke="#000000" stroke-width=".5" d="M910.5279,-41.8521C936.5127,-40.0502 967.0882,-37.93 996.6468,-35.8803"/>
<polygon fill="#000000" stroke="#000000" stroke-width=".5" points="996.8986,-37.6172 1001.7655,-35.5254 996.6564,-34.1256 996.8986,-37.6172"/>
</g>
<!-- pyVHDLModel.SyntaxModel.IdentityExpression -->
<g id="node3" class="node">
<title>pyVHDLModel.SyntaxModel.IdentityExpression</title>
<polygon fill="none" stroke="#000000" stroke-width=".5" points="966,-19 721,-19 721,0 966,0 966,-19"/>
<text text-anchor="middle" x="843.5" y="-7" font-family="Vera Sans, DejaVu Sans, Liberation Sans, Arial, Helvetica, sans" font-size="10.00" fill="#000000">pyVHDLModel.SyntaxModel.IdentityExpression</text>
</g>
<!-- pyVHDLModel.SyntaxModel.IdentityExpression&#45;&gt;pyGHDL.dom.Expression.IdentityExpression -->
<g id="edge1" class="edge">
<title>pyVHDLModel.SyntaxModel.IdentityExpression&#45;&gt;pyGHDL.dom.Expression.IdentityExpression</title>
<path fill="none" stroke="#000000" stroke-width=".5" d="M966.0746,-17.5523C976.1456,-18.2139 986.3218,-18.8825 996.3821,-19.5434"/>
<polygon fill="#000000" stroke="#000000" stroke-width=".5" points="996.5273,-21.3066 1001.6313,-19.8882 996.7568,-17.8141 996.5273,-21.3066"/>
</g>
<!-- pyVHDLModel.ModelEntity -->
<g id="node4" class="node">
<title>pyVHDLModel.ModelEntity</title>
<g id="a_node4"><a xlink:title="``ModelEntity`` is the base class for all classes in the VHDL language model,">
<polygon fill="none" stroke="#000000" stroke-width=".5" points="146,-19 0,-19 0,0 146,0 146,-19"/>
<text text-anchor="middle" x="73" y="-7" font-family="Vera Sans, DejaVu Sans, Liberation Sans, Arial, Helvetica, sans" font-size="10.00" fill="#000000">pyVHDLModel.ModelEntity</text>
</a>
</g>
</g>
<!-- pyVHDLModel.SyntaxModel.BaseExpression -->
<g id="node5" class="node">
<title>pyVHDLModel.SyntaxModel.BaseExpression</title>
<g id="a_node5"><a xlink:title="A ``BaseExpression`` is a base&#45;class for all expressions.">
<polygon fill="none" stroke="#000000" stroke-width=".5" points="413,-19 182,-19 182,0 413,0 413,-19"/>
<text text-anchor="middle" x="297.5" y="-7" font-family="Vera Sans, DejaVu Sans, Liberation Sans, Arial, Helvetica, sans" font-size="10.00" fill="#000000">pyVHDLModel.SyntaxModel.BaseExpression</text>
</a>
</g>
</g>
<!-- pyVHDLModel.ModelEntity&#45;&gt;pyVHDLModel.SyntaxModel.BaseExpression -->
<g id="edge3" class="edge">
<title>pyVHDLModel.ModelEntity&#45;&gt;pyVHDLModel.SyntaxModel.BaseExpression</title>
<path fill="none" stroke="#000000" stroke-width=".5" d="M146.1991,-9.5C155.9857,-9.5 166.2247,-9.5 176.5627,-9.5"/>
<polygon fill="#000000" stroke="#000000" stroke-width=".5" points="176.6441,-11.2501 181.644,-9.5 176.644,-7.7501 176.6441,-11.2501"/>
</g>
<!-- pyVHDLModel.SyntaxModel.UnaryExpression -->
<g id="node6" class="node">
<title>pyVHDLModel.SyntaxModel.UnaryExpression</title>
<g id="a_node6"><a xlink:title="A ``UnaryExpression`` is a base&#45;class for all unary expressions.">
<polygon fill="none" stroke="#000000" stroke-width=".5" points="685,-19 449,-19 449,0 685,0 685,-19"/>
<text text-anchor="middle" x="567" y="-7" font-family="Vera Sans, DejaVu Sans, Liberation Sans, Arial, Helvetica, sans" font-size="10.00" fill="#000000">pyVHDLModel.SyntaxModel.UnaryExpression</text>
</a>
</g>
</g>
<!-- pyVHDLModel.SyntaxModel.BaseExpression&#45;&gt;pyVHDLModel.SyntaxModel.UnaryExpression -->
<g id="edge5" class="edge">
<title>pyVHDLModel.SyntaxModel.BaseExpression&#45;&gt;pyVHDLModel.SyntaxModel.UnaryExpression</title>
<path fill="none" stroke="#000000" stroke-width=".5" d="M413.3563,-9.5C423.3182,-9.5 433.4207,-9.5 443.4401,-9.5"/>
<polygon fill="#000000" stroke="#000000" stroke-width=".5" points="443.6709,-11.2501 448.6708,-9.5 443.6708,-7.7501 443.6709,-11.2501"/>
</g>
<!-- pyVHDLModel.SyntaxModel.UnaryExpression&#45;&gt;pyVHDLModel.SyntaxModel.IdentityExpression -->
<g id="edge4" class="edge">
<title>pyVHDLModel.SyntaxModel.UnaryExpression&#45;&gt;pyVHDLModel.SyntaxModel.IdentityExpression</title>
<path fill="none" stroke="#000000" stroke-width=".5" d="M685.0629,-9.5C695.2802,-9.5 705.6479,-9.5 715.9362,-9.5"/>
<polygon fill="#000000" stroke="#000000" stroke-width=".5" points="715.9794,-11.2501 720.9794,-9.5 715.9794,-7.7501 715.9794,-11.2501"/>
</g>
</g>
</svg>
