<?xml version="1.0" encoding="UTF-8" standalone="no"?>
<!DOCTYPE svg PUBLIC "-//W3C//DTD SVG 1.1//EN"
 "http://www.w3.org/Graphics/SVG/1.1/DTD/svg11.dtd">
<!-- Generated by graphviz version 2.40.1 (20161225.0304)
 -->
<!-- Title: inheritance576d7b636b Pages: 1 -->
<svg width="576pt" height="27pt"
 viewBox="0.00 0.00 576.00 26.53" xmlns="http://www.w3.org/2000/svg" xmlns:xlink="http://www.w3.org/1999/xlink">
<g id="graph0" class="graph" transform="scale(.3196 .3196) rotate(0) translate(4 79)">
<title>inheritance576d7b636b</title>
<polygon fill="#ffffff" stroke="transparent" points="-4,4 -4,-79 1798,-79 1798,4 -4,4"/>
<!-- pyGHDL.dom.DOMMixin -->
<g id="node1" class="node">
<title>pyGHDL.dom.DOMMixin</title>
<g id="a_node1"><a xlink:href="../pyGHDL.dom.html#pyGHDL.dom.DOMMixin" xlink:title="pyGHDL.dom.DOMMixin" target="_top">
<polygon fill="none" stroke="#000000" stroke-width=".5" points="1475.5,-74 1341.5,-74 1341.5,-55 1475.5,-55 1475.5,-74"/>
<text text-anchor="middle" x="1408.5" y="-62" font-family="Vera Sans, DejaVu Sans, Liberation Sans, Arial, Helvetica, sans" font-size="10.00" fill="#000000">pyGHDL.dom.DOMMixin</text>
</a>
</g>
</g>
<!-- pyGHDL.dom.Sequential.ForLoopStatement -->
<g id="node2" class="node">
<title>pyGHDL.dom.Sequential.ForLoopStatement</title>
<g id="a_node2"><a xlink:href="../pyGHDL/pyGHDL.dom.Sequential.html#pyGHDL.dom.Sequential.ForLoopStatement" xlink:title="pyGHDL.dom.Sequential.ForLoopStatement" target="_top">
<polygon fill="none" stroke="#000000" stroke-width=".5" points="1794,-55 1566,-55 1566,-36 1794,-36 1794,-55"/>
<text text-anchor="middle" x="1680" y="-43" font-family="Vera Sans, DejaVu Sans, Liberation Sans, Arial, Helvetica, sans" font-size="10.00" fill="#000000">pyGHDL.dom.Sequential.ForLoopStatement</text>
</a>
</g>
</g>
<!-- pyGHDL.dom.DOMMixin&#45;&gt;pyGHDL.dom.Sequential.ForLoopStatement -->
<g id="edge2" class="edge">
<title>pyGHDL.dom.DOMMixin&#45;&gt;pyGHDL.dom.Sequential.ForLoopStatement</title>
<path fill="none" stroke="#000000" stroke-width=".5" d="M1475.6124,-59.8034C1501.367,-58.001 1531.5946,-55.8856 1560.7866,-53.8427"/>
<polygon fill="#000000" stroke="#000000" stroke-width=".5" points="1560.9759,-55.5839 1565.8415,-53.489 1560.7315,-52.0924 1560.9759,-55.5839"/>
</g>
<!-- pyVHDLModel.SyntaxModel.ForLoopStatement -->
<g id="node3" class="node">
<title>pyVHDLModel.SyntaxModel.ForLoopStatement</title>
<polygon fill="none" stroke="#000000" stroke-width=".5" points="1530,-37 1287,-37 1287,-18 1530,-18 1530,-37"/>
<text text-anchor="middle" x="1408.5" y="-25" font-family="Vera Sans, DejaVu Sans, Liberation Sans, Arial, Helvetica, sans" font-size="10.00" fill="#000000">pyVHDLModel.SyntaxModel.ForLoopStatement</text>
</g>
<!-- pyVHDLModel.SyntaxModel.ForLoopStatement&#45;&gt;pyGHDL.dom.Sequential.ForLoopStatement -->
<g id="edge1" class="edge">
<title>pyVHDLModel.SyntaxModel.ForLoopStatement&#45;&gt;pyGHDL.dom.Sequential.ForLoopStatement</title>
<path fill="none" stroke="#000000" stroke-width=".5" d="M1530.352,-35.5786C1540.4357,-36.2471 1550.6227,-36.9225 1560.6874,-37.5898"/>
<polygon fill="#000000" stroke="#000000" stroke-width=".5" points="1560.8334,-39.3532 1565.9383,-37.9379 1561.065,-35.8609 1560.8334,-39.3532"/>
</g>
<!-- pyVHDLModel.LabeledEntity -->
<g id="node4" class="node">
<title>pyVHDLModel.LabeledEntity</title>
<g id="a_node4"><a xlink:title="A ``LabeledEntity`` is a mixin class for all VHDL entities that can have">
<polygon fill="none" stroke="#000000" stroke-width=".5" points="155,-75 0,-75 0,-56 155,-56 155,-75"/>
<text text-anchor="middle" x="77.5" y="-63" font-family="Vera Sans, DejaVu Sans, Liberation Sans, Arial, Helvetica, sans" font-size="10.00" fill="#000000">pyVHDLModel.LabeledEntity</text>
</a>
</g>
</g>
<!-- pyVHDLModel.SyntaxModel.Statement -->
<g id="node10" class="node">
<title>pyVHDLModel.SyntaxModel.Statement</title>
<polygon fill="none" stroke="#000000" stroke-width=".5" points="396,-56 191,-56 191,-37 396,-37 396,-56"/>
<text text-anchor="middle" x="293.5" y="-44" font-family="Vera Sans, DejaVu Sans, Liberation Sans, Arial, Helvetica, sans" font-size="10.00" fill="#000000">pyVHDLModel.SyntaxModel.Statement</text>
</g>
<!-- pyVHDLModel.LabeledEntity&#45;&gt;pyVHDLModel.SyntaxModel.Statement -->
<g id="edge9" class="edge">
<title>pyVHDLModel.LabeledEntity&#45;&gt;pyVHDLModel.SyntaxModel.Statement</title>
<path fill="none" stroke="#000000" stroke-width=".5" d="M155.1758,-58.6674C165.154,-57.7897 175.5079,-56.8789 185.8575,-55.9686"/>
<polygon fill="#000000" stroke="#000000" stroke-width=".5" points="186.1088,-57.7033 190.9362,-55.5218 185.802,-54.2168 186.1088,-57.7033"/>
</g>
<!-- pyVHDLModel.ModelEntity -->
<g id="node5" class="node">
<title>pyVHDLModel.ModelEntity</title>
<g id="a_node5"><a xlink:title="``ModelEntity`` is the base class for all classes in the VHDL language model,">
<polygon fill="none" stroke="#000000" stroke-width=".5" points="150.5,-38 4.5,-38 4.5,-19 150.5,-19 150.5,-38"/>
<text text-anchor="middle" x="77.5" y="-26" font-family="Vera Sans, DejaVu Sans, Liberation Sans, Arial, Helvetica, sans" font-size="10.00" fill="#000000">pyVHDLModel.ModelEntity</text>
</a>
</g>
</g>
<!-- pyVHDLModel.ModelEntity&#45;&gt;pyVHDLModel.SyntaxModel.Statement -->
<g id="edge8" class="edge">
<title>pyVHDLModel.ModelEntity&#45;&gt;pyVHDLModel.SyntaxModel.Statement</title>
<path fill="none" stroke="#000000" stroke-width=".5" d="M150.6277,-34.594C161.9793,-35.5399 173.9067,-36.5339 185.8288,-37.5274"/>
<polygon fill="#000000" stroke="#000000" stroke-width=".5" points="185.8081,-39.2817 190.9362,-37.953 186.0988,-35.7937 185.8081,-39.2817"/>
</g>
<!-- pyVHDLModel.SyntaxModel.CompoundStatement -->
<g id="node6" class="node">
<title>pyVHDLModel.SyntaxModel.CompoundStatement</title>
<g id="a_node6"><a xlink:title="A ``CompoundStatement`` is a base&#45;class for all compound statements.">
<polygon fill="none" stroke="#000000" stroke-width=".5" points="984.5,-56 727.5,-56 727.5,-37 984.5,-37 984.5,-56"/>
<text text-anchor="middle" x="856" y="-44" font-family="Vera Sans, DejaVu Sans, Liberation Sans, Arial, Helvetica, sans" font-size="10.00" fill="#000000">pyVHDLModel.SyntaxModel.CompoundStatement</text>
</a>
</g>
</g>
<!-- pyVHDLModel.SyntaxModel.LoopStatement -->
<g id="node8" class="node">
<title>pyVHDLModel.SyntaxModel.LoopStatement</title>
<g id="a_node8"><a xlink:title="A ``LoopStatement`` is a base&#45;class for all loop statements.">
<polygon fill="none" stroke="#000000" stroke-width=".5" points="1251,-37 1023,-37 1023,-18 1251,-18 1251,-37"/>
<text text-anchor="middle" x="1137" y="-25" font-family="Vera Sans, DejaVu Sans, Liberation Sans, Arial, Helvetica, sans" font-size="10.00" fill="#000000">pyVHDLModel.SyntaxModel.LoopStatement</text>
</a>
</g>
</g>
<!-- pyVHDLModel.SyntaxModel.CompoundStatement&#45;&gt;pyVHDLModel.SyntaxModel.LoopStatement -->
<g id="edge5" class="edge">
<title>pyVHDLModel.SyntaxModel.CompoundStatement&#45;&gt;pyVHDLModel.SyntaxModel.LoopStatement</title>
<path fill="none" stroke="#000000" stroke-width=".5" d="M984.5758,-37.8063C995.6039,-37.0606 1006.7308,-36.3082 1017.682,-35.5678"/>
<polygon fill="#000000" stroke="#000000" stroke-width=".5" points="1017.8297,-37.3119 1022.7002,-35.2285 1017.5935,-33.8198 1017.8297,-37.3119"/>
</g>
<!-- pyVHDLModel.SyntaxModel.SequentialStatement -->
<g id="node7" class="node">
<title>pyVHDLModel.SyntaxModel.SequentialStatement</title>
<g id="a_node7"><a xlink:title="A ``SequentialStatement`` is a base&#45;class for all sequential statements.">
<polygon fill="none" stroke="#000000" stroke-width=".5" points="689,-56 432,-56 432,-37 689,-37 689,-56"/>
<text text-anchor="middle" x="560.5" y="-44" font-family="Vera Sans, DejaVu Sans, Liberation Sans, Arial, Helvetica, sans" font-size="10.00" fill="#000000">pyVHDLModel.SyntaxModel.SequentialStatement</text>
</a>
</g>
</g>
<!-- pyVHDLModel.SyntaxModel.SequentialStatement&#45;&gt;pyVHDLModel.SyntaxModel.CompoundStatement -->
<g id="edge3" class="edge">
<title>pyVHDLModel.SyntaxModel.SequentialStatement&#45;&gt;pyVHDLModel.SyntaxModel.CompoundStatement</title>
<path fill="none" stroke="#000000" stroke-width=".5" d="M689.251,-46.5C700.1757,-46.5 711.2414,-46.5 722.2037,-46.5"/>
<polygon fill="#000000" stroke="#000000" stroke-width=".5" points="722.2323,-48.2501 727.2322,-46.5 722.2322,-44.7501 722.2323,-48.2501"/>
</g>
<!-- pyVHDLModel.SyntaxModel.LoopStatement&#45;&gt;pyVHDLModel.SyntaxModel.ForLoopStatement -->
<g id="edge4" class="edge">
<title>pyVHDLModel.SyntaxModel.LoopStatement&#45;&gt;pyVHDLModel.SyntaxModel.ForLoopStatement</title>
<path fill="none" stroke="#000000" stroke-width=".5" d="M1251.3536,-27.5C1261.3496,-27.5 1271.5045,-27.5 1281.5939,-27.5"/>
<polygon fill="#000000" stroke="#000000" stroke-width=".5" points="1281.8629,-29.2501 1286.8629,-27.5 1281.8629,-25.7501 1281.8629,-29.2501"/>
</g>
<!-- pyVHDLModel.SyntaxModel.SequentialStatements -->
<g id="node9" class="node">
<title>pyVHDLModel.SyntaxModel.SequentialStatements</title>
<polygon fill="none" stroke="#000000" stroke-width=".5" points="987,-19 725,-19 725,0 987,0 987,-19"/>
<text text-anchor="middle" x="856" y="-7" font-family="Vera Sans, DejaVu Sans, Liberation Sans, Arial, Helvetica, sans" font-size="10.00" fill="#000000">pyVHDLModel.SyntaxModel.SequentialStatements</text>
</g>
<!-- pyVHDLModel.SyntaxModel.SequentialStatements&#45;&gt;pyVHDLModel.SyntaxModel.LoopStatement -->
<g id="edge6" class="edge">
<title>pyVHDLModel.SyntaxModel.SequentialStatements&#45;&gt;pyVHDLModel.SyntaxModel.LoopStatement</title>
<path fill="none" stroke="#000000" stroke-width=".5" d="M987.0391,-17.894C997.152,-18.5418 1007.3306,-19.1938 1017.3641,-19.8365"/>
<polygon fill="#000000" stroke="#000000" stroke-width=".5" points="1017.4949,-21.5984 1022.5965,-20.1717 1017.7187,-18.1055 1017.4949,-21.5984"/>
</g>
<!-- pyVHDLModel.SyntaxModel.Statement&#45;&gt;pyVHDLModel.SyntaxModel.SequentialStatement -->
<g id="edge7" class="edge">
<title>pyVHDLModel.SyntaxModel.Statement&#45;&gt;pyVHDLModel.SyntaxModel.SequentialStatement</title>
<path fill="none" stroke="#000000" stroke-width=".5" d="M396.3473,-46.5C406.3207,-46.5 416.5354,-46.5 426.752,-46.5"/>
<polygon fill="#000000" stroke="#000000" stroke-width=".5" points="426.7666,-48.2501 431.7666,-46.5 426.7665,-44.7501 426.7666,-48.2501"/>
</g>
</g>
</svg>
