<?xml version="1.0" encoding="UTF-8" standalone="no"?>
<!DOCTYPE svg PUBLIC "-//W3C//DTD SVG 1.1//EN"
 "http://www.w3.org/Graphics/SVG/1.1/DTD/svg11.dtd">
<!-- Generated by graphviz version 2.40.1 (20161225.0304)
 -->
<!-- Title: inheritancead6e118d80 Pages: 1 -->
<svg width="576pt" height="46pt"
 viewBox="0.00 0.00 576.00 45.74" xmlns="http://www.w3.org/2000/svg" xmlns:xlink="http://www.w3.org/1999/xlink">
<g id="graph0" class="graph" transform="scale(.3314 .3314) rotate(0) translate(4 134)">
<title>inheritancead6e118d80</title>
<polygon fill="#ffffff" stroke="transparent" points="-4,4 -4,-134 1734,-134 1734,4 -4,4"/>
<!-- pyGHDL.dom.DOMMixin -->
<g id="node1" class="node">
<title>pyGHDL.dom.DOMMixin</title>
<g id="a_node1"><a xlink:href="../pyGHDL.dom.html#pyGHDL.dom.DOMMixin" xlink:title="pyGHDL.dom.DOMMixin" target="_top">
<polygon fill="none" stroke="#000000" stroke-width=".5" points="1291,-93 1157,-93 1157,-74 1291,-74 1291,-93"/>
<text text-anchor="middle" x="1224" y="-81" font-family="Vera Sans, DejaVu Sans, Liberation Sans, Arial, Helvetica, sans" font-size="10.00" fill="#000000">pyGHDL.dom.DOMMixin</text>
</a>
</g>
</g>
<!-- pyGHDL.dom.InterfaceItem.ParameterConstantInterfaceItem -->
<g id="node2" class="node">
<title>pyGHDL.dom.InterfaceItem.ParameterConstantInterfaceItem</title>
<g id="a_node2"><a xlink:href="../pyGHDL/pyGHDL.dom.InterfaceItem.html#pyGHDL.dom.InterfaceItem.ParameterConstantInterfaceItem" xlink:title="pyGHDL.dom.InterfaceItem.ParameterConstantInterfaceItem" target="_top">
<polygon fill="none" stroke="#000000" stroke-width=".5" points="1730,-74 1417,-74 1417,-55 1730,-55 1730,-74"/>
<text text-anchor="middle" x="1573.5" y="-62" font-family="Vera Sans, DejaVu Sans, Liberation Sans, Arial, Helvetica, sans" font-size="10.00" fill="#000000">pyGHDL.dom.InterfaceItem.ParameterConstantInterfaceItem</text>
</a>
</g>
</g>
<!-- pyGHDL.dom.DOMMixin&#45;&gt;pyGHDL.dom.InterfaceItem.ParameterConstantInterfaceItem -->
<g id="edge2" class="edge">
<title>pyGHDL.dom.DOMMixin&#45;&gt;pyGHDL.dom.InterfaceItem.ParameterConstantInterfaceItem</title>
<path fill="none" stroke="#000000" stroke-width=".5" d="M1291.3871,-79.8366C1325.7926,-77.9662 1369.2635,-75.603 1411.7091,-73.2955"/>
<polygon fill="#000000" stroke="#000000" stroke-width=".5" points="1411.982,-75.0333 1416.8796,-73.0144 1411.792,-71.5385 1411.982,-75.0333"/>
</g>
<!-- pyVHDLModel.SyntaxModel.ParameterConstantInterfaceItem -->
<g id="node3" class="node">
<title>pyVHDLModel.SyntaxModel.ParameterConstantInterfaceItem</title>
<polygon fill="none" stroke="#000000" stroke-width=".5" points="1381,-56 1067,-56 1067,-37 1381,-37 1381,-56"/>
<text text-anchor="middle" x="1224" y="-44" font-family="Vera Sans, DejaVu Sans, Liberation Sans, Arial, Helvetica, sans" font-size="10.00" fill="#000000">pyVHDLModel.SyntaxModel.ParameterConstantInterfaceItem</text>
</g>
<!-- pyVHDLModel.SyntaxModel.ParameterConstantInterfaceItem&#45;&gt;pyGHDL.dom.InterfaceItem.ParameterConstantInterfaceItem -->
<g id="edge1" class="edge">
<title>pyVHDLModel.SyntaxModel.ParameterConstantInterfaceItem&#45;&gt;pyGHDL.dom.InterfaceItem.ParameterConstantInterfaceItem</title>
<path fill="none" stroke="#000000" stroke-width=".5" d="M1381.114,-54.5917C1391.3207,-55.1174 1401.6085,-55.6472 1411.8361,-56.174"/>
<polygon fill="#000000" stroke="#000000" stroke-width=".5" points="1411.7681,-57.9227 1416.8515,-56.4323 1411.9482,-54.4273 1411.7681,-57.9227"/>
</g>
<!-- pyVHDLModel.ModelEntity -->
<g id="node4" class="node">
<title>pyVHDLModel.ModelEntity</title>
<g id="a_node4"><a xlink:title="``ModelEntity`` is the base class for all classes in the VHDL language model,">
<polygon fill="none" stroke="#000000" stroke-width=".5" points="168.5,-130 22.5,-130 22.5,-111 168.5,-111 168.5,-130"/>
<text text-anchor="middle" x="95.5" y="-118" font-family="Vera Sans, DejaVu Sans, Liberation Sans, Arial, Helvetica, sans" font-size="10.00" fill="#000000">pyVHDLModel.ModelEntity</text>
</a>
</g>
</g>
<!-- pyVHDLModel.SyntaxModel.Obj -->
<g id="node7" class="node">
<title>pyVHDLModel.SyntaxModel.Obj</title>
<polygon fill="none" stroke="#000000" stroke-width=".5" points="397,-111 227,-111 227,-92 397,-92 397,-111"/>
<text text-anchor="middle" x="312" y="-99" font-family="Vera Sans, DejaVu Sans, Liberation Sans, Arial, Helvetica, sans" font-size="10.00" fill="#000000">pyVHDLModel.SyntaxModel.Obj</text>
</g>
<!-- pyVHDLModel.ModelEntity&#45;&gt;pyVHDLModel.SyntaxModel.Obj -->
<g id="edge6" class="edge">
<title>pyVHDLModel.ModelEntity&#45;&gt;pyVHDLModel.SyntaxModel.Obj</title>
<path fill="none" stroke="#000000" stroke-width=".5" d="M168.797,-114.0675C185.6952,-112.5845 203.8663,-110.9898 221.4022,-109.4508"/>
<polygon fill="#000000" stroke="#000000" stroke-width=".5" points="221.9941,-111.1557 226.8219,-108.9752 221.688,-107.6691 221.9941,-111.1557"/>
</g>
<!-- pyVHDLModel.MultipleNamedEntity -->
<g id="node5" class="node">
<title>pyVHDLModel.MultipleNamedEntity</title>
<g id="a_node5"><a xlink:title="A ``MultipleNamedEntity`` is a mixin class for all VHDL entities that declare">
<polygon fill="none" stroke="#000000" stroke-width=".5" points="191,-93 0,-93 0,-74 191,-74 191,-93"/>
<text text-anchor="middle" x="95.5" y="-81" font-family="Vera Sans, DejaVu Sans, Liberation Sans, Arial, Helvetica, sans" font-size="10.00" fill="#000000">pyVHDLModel.MultipleNamedEntity</text>
</a>
</g>
</g>
<!-- pyVHDLModel.MultipleNamedEntity&#45;&gt;pyVHDLModel.SyntaxModel.Obj -->
<g id="edge7" class="edge">
<title>pyVHDLModel.MultipleNamedEntity&#45;&gt;pyVHDLModel.SyntaxModel.Obj</title>
<path fill="none" stroke="#000000" stroke-width=".5" d="M191.0903,-91.4475C201.2187,-92.2895 211.4971,-93.1441 221.5641,-93.9811"/>
<polygon fill="#000000" stroke="#000000" stroke-width=".5" points="221.6795,-95.7466 226.8074,-94.417 221.9696,-92.2587 221.6795,-95.7466"/>
</g>
<!-- pyVHDLModel.SyntaxModel.BaseConstant -->
<g id="node6" class="node">
<title>pyVHDLModel.SyntaxModel.BaseConstant</title>
<polygon fill="none" stroke="#000000" stroke-width=".5" points="689.5,-111 468.5,-111 468.5,-92 689.5,-92 689.5,-111"/>
<text text-anchor="middle" x="579" y="-99" font-family="Vera Sans, DejaVu Sans, Liberation Sans, Arial, Helvetica, sans" font-size="10.00" fill="#000000">pyVHDLModel.SyntaxModel.BaseConstant</text>
</g>
<!-- pyVHDLModel.SyntaxModel.Constant -->
<g id="node8" class="node">
<title>pyVHDLModel.SyntaxModel.Constant</title>
<polygon fill="none" stroke="#000000" stroke-width=".5" points="994.5,-93 797.5,-93 797.5,-74 994.5,-74 994.5,-93"/>
<text text-anchor="middle" x="896" y="-81" font-family="Vera Sans, DejaVu Sans, Liberation Sans, Arial, Helvetica, sans" font-size="10.00" fill="#000000">pyVHDLModel.SyntaxModel.Constant</text>
</g>
<!-- pyVHDLModel.SyntaxModel.BaseConstant&#45;&gt;pyVHDLModel.SyntaxModel.Constant -->
<g id="edge4" class="edge">
<title>pyVHDLModel.SyntaxModel.BaseConstant&#45;&gt;pyVHDLModel.SyntaxModel.Constant</title>
<path fill="none" stroke="#000000" stroke-width=".5" d="M689.8712,-95.2045C723.0884,-93.3183 759.3824,-91.2575 792.1311,-89.3979"/>
<polygon fill="#000000" stroke="#000000" stroke-width=".5" points="792.4629,-91.132 797.3556,-89.1013 792.2644,-87.6376 792.4629,-91.132"/>
</g>
<!-- pyVHDLModel.SyntaxModel.Obj&#45;&gt;pyVHDLModel.SyntaxModel.BaseConstant -->
<g id="edge3" class="edge">
<title>pyVHDLModel.SyntaxModel.Obj&#45;&gt;pyVHDLModel.SyntaxModel.BaseConstant</title>
<path fill="none" stroke="#000000" stroke-width=".5" d="M397.2146,-101.5C418.2136,-101.5 441.0547,-101.5 463.2312,-101.5"/>
<polygon fill="#000000" stroke="#000000" stroke-width=".5" points="463.2504,-103.2501 468.2504,-101.5 463.2504,-99.7501 463.2504,-103.2501"/>
</g>
<!-- pyVHDLModel.SyntaxModel.Constant&#45;&gt;pyVHDLModel.SyntaxModel.ParameterConstantInterfaceItem -->
<g id="edge8" class="edge">
<title>pyVHDLModel.SyntaxModel.Constant&#45;&gt;pyVHDLModel.SyntaxModel.ParameterConstantInterfaceItem</title>
<path fill="none" stroke="#000000" stroke-width=".5" d="M980.4682,-73.9716C1027.6266,-68.6519 1086.3614,-62.0263 1134.3335,-56.6148"/>
<polygon fill="#000000" stroke="#000000" stroke-width=".5" points="1134.7612,-58.3278 1139.5335,-56.0282 1134.3688,-54.8498 1134.7612,-58.3278"/>
</g>
<!-- pyVHDLModel.SyntaxModel.WithDefaultExpressionMixin -->
<g id="node9" class="node">
<title>pyVHDLModel.SyntaxModel.WithDefaultExpressionMixin</title>
<g id="a_node9"><a xlink:title="A ``WithDefaultExpression`` is a mixin class for all objects declarations">
<polygon fill="none" stroke="#000000" stroke-width=".5" points="725,-74 433,-74 433,-55 725,-55 725,-74"/>
<text text-anchor="middle" x="579" y="-62" font-family="Vera Sans, DejaVu Sans, Liberation Sans, Arial, Helvetica, sans" font-size="10.00" fill="#000000">pyVHDLModel.SyntaxModel.WithDefaultExpressionMixin</text>
</a>
</g>
</g>
<!-- pyVHDLModel.SyntaxModel.WithDefaultExpressionMixin&#45;&gt;pyVHDLModel.SyntaxModel.Constant -->
<g id="edge5" class="edge">
<title>pyVHDLModel.SyntaxModel.WithDefaultExpressionMixin&#45;&gt;pyVHDLModel.SyntaxModel.Constant</title>
<path fill="none" stroke="#000000" stroke-width=".5" d="M725.4371,-73.277C747.965,-74.6272 770.8197,-75.9971 792.1668,-77.2766"/>
<polygon fill="#000000" stroke="#000000" stroke-width=".5" points="792.1751,-79.0301 797.2709,-77.5825 792.3846,-75.5364 792.1751,-79.0301"/>
</g>
<!-- pyVHDLModel.SyntaxModel.InterfaceItem -->
<g id="node10" class="node">
<title>pyVHDLModel.SyntaxModel.InterfaceItem</title>
<g id="a_node10"><a xlink:title="An ``InterfaceItem`` is a base&#45;class for all mixin&#45;classes for all interface">
<polygon fill="none" stroke="#000000" stroke-width=".5" points="689,-19 469,-19 469,0 689,0 689,-19"/>
<text text-anchor="middle" x="579" y="-7" font-family="Vera Sans, DejaVu Sans, Liberation Sans, Arial, Helvetica, sans" font-size="10.00" fill="#000000">pyVHDLModel.SyntaxModel.InterfaceItem</text>
</a>
</g>
</g>
<!-- pyVHDLModel.SyntaxModel.ParameterInterfaceItem -->
<g id="node12" class="node">
<title>pyVHDLModel.SyntaxModel.ParameterInterfaceItem</title>
<g id="a_node12"><a xlink:title="A ``ParameterInterfaceItem`` is a mixin class for all parameter interface items.">
<polygon fill="none" stroke="#000000" stroke-width=".5" points="1031,-19 761,-19 761,0 1031,0 1031,-19"/>
<text text-anchor="middle" x="896" y="-7" font-family="Vera Sans, DejaVu Sans, Liberation Sans, Arial, Helvetica, sans" font-size="10.00" fill="#000000">pyVHDLModel.SyntaxModel.ParameterInterfaceItem</text>
</a>
</g>
</g>
<!-- pyVHDLModel.SyntaxModel.InterfaceItem&#45;&gt;pyVHDLModel.SyntaxModel.ParameterInterfaceItem -->
<g id="edge11" class="edge">
<title>pyVHDLModel.SyntaxModel.InterfaceItem&#45;&gt;pyVHDLModel.SyntaxModel.ParameterInterfaceItem</title>
<path fill="none" stroke="#000000" stroke-width=".5" d="M689.4262,-9.5C710.8556,-9.5 733.5801,-9.5 755.817,-9.5"/>
<polygon fill="#000000" stroke="#000000" stroke-width=".5" points="755.8533,-11.2501 760.8533,-9.5 755.8532,-7.7501 755.8533,-11.2501"/>
</g>
<!-- pyVHDLModel.SyntaxModel.InterfaceItemWithMode -->
<g id="node11" class="node">
<title>pyVHDLModel.SyntaxModel.InterfaceItemWithMode</title>
<g id="a_node11"><a xlink:title="An ``InterfaceItemWithMode`` is a mixin&#45;class to provide a ``Mode`` to">
<polygon fill="none" stroke="#000000" stroke-width=".5" points="1030.5,-56 761.5,-56 761.5,-37 1030.5,-37 1030.5,-56"/>
<text text-anchor="middle" x="896" y="-44" font-family="Vera Sans, DejaVu Sans, Liberation Sans, Arial, Helvetica, sans" font-size="10.00" fill="#000000">pyVHDLModel.SyntaxModel.InterfaceItemWithMode</text>
</a>
</g>
</g>
<!-- pyVHDLModel.SyntaxModel.InterfaceItemWithMode&#45;&gt;pyVHDLModel.SyntaxModel.ParameterConstantInterfaceItem -->
<g id="edge10" class="edge">
<title>pyVHDLModel.SyntaxModel.InterfaceItemWithMode&#45;&gt;pyVHDLModel.SyntaxModel.ParameterConstantInterfaceItem</title>
<path fill="none" stroke="#000000" stroke-width=".5" d="M1030.8301,-46.5C1041.0797,-46.5 1051.4863,-46.5 1061.8829,-46.5"/>
<polygon fill="#000000" stroke="#000000" stroke-width=".5" points="1061.9851,-48.2501 1066.9851,-46.5 1061.9851,-44.7501 1061.9851,-48.2501"/>
</g>
<!-- pyVHDLModel.SyntaxModel.ParameterInterfaceItem&#45;&gt;pyVHDLModel.SyntaxModel.ParameterConstantInterfaceItem -->
<g id="edge9" class="edge">
<title>pyVHDLModel.SyntaxModel.ParameterInterfaceItem&#45;&gt;pyVHDLModel.SyntaxModel.ParameterConstantInterfaceItem</title>
<path fill="none" stroke="#000000" stroke-width=".5" d="M980.4682,-19.0284C1027.6266,-24.3481 1086.3614,-30.9737 1134.3335,-36.3852"/>
<polygon fill="#000000" stroke="#000000" stroke-width=".5" points="1134.3688,-38.1502 1139.5335,-36.9718 1134.7612,-34.6722 1134.3688,-38.1502"/>
</g>
</g>
</svg>
