<?xml version="1.0" encoding="UTF-8" standalone="no"?>
<!DOCTYPE svg PUBLIC "-//W3C//DTD SVG 1.1//EN"
 "http://www.w3.org/Graphics/SVG/1.1/DTD/svg11.dtd">
<!-- Generated by graphviz version 2.40.1 (20161225.0304)
 -->
<!-- Title: inheritancedb3f043219 Pages: 1 -->
<svg width="576pt" height="27pt"
 viewBox="0.00 0.00 576.00 26.75" xmlns="http://www.w3.org/2000/svg" xmlns:xlink="http://www.w3.org/1999/xlink">
<g id="graph0" class="graph" transform="scale(.418 .418) rotate(0) translate(4 60)">
<title>inheritancedb3f043219</title>
<polygon fill="#ffffff" stroke="transparent" points="-4,4 -4,-60 1374,-60 1374,4 -4,4"/>
<!-- pyGHDL.dom.DOMMixin -->
<g id="node1" class="node">
<title>pyGHDL.dom.DOMMixin</title>
<g id="a_node1"><a xlink:href="../pyGHDL.dom.html#pyGHDL.dom.DOMMixin" xlink:title="pyGHDL.dom.DOMMixin" target="_top">
<polygon fill="none" stroke="#000000" stroke-width=".5" points="1108.5,-56 974.5,-56 974.5,-37 1108.5,-37 1108.5,-56"/>
<text text-anchor="middle" x="1041.5" y="-44" font-family="Vera Sans, DejaVu Sans, Liberation Sans, Arial, Helvetica, sans" font-size="10.00" fill="#000000">pyGHDL.dom.DOMMixin</text>
</a>
</g>
</g>
<!-- pyGHDL.dom.Literal.IntegerLiteral -->
<g id="node2" class="node">
<title>pyGHDL.dom.Literal.IntegerLiteral</title>
<g id="a_node2"><a xlink:href="../pyGHDL/pyGHDL.dom.Literal.html#pyGHDL.dom.Literal.IntegerLiteral" xlink:title="pyGHDL.dom.Literal.IntegerLiteral" target="_top">
<polygon fill="none" stroke="#000000" stroke-width=".5" points="1370,-37 1187,-37 1187,-18 1370,-18 1370,-37"/>
<text text-anchor="middle" x="1278.5" y="-25" font-family="Vera Sans, DejaVu Sans, Liberation Sans, Arial, Helvetica, sans" font-size="10.00" fill="#000000">pyGHDL.dom.Literal.IntegerLiteral</text>
</a>
</g>
</g>
<!-- pyGHDL.dom.DOMMixin&#45;&gt;pyGHDL.dom.Literal.IntegerLiteral -->
<g id="edge2" class="edge">
<title>pyGHDL.dom.DOMMixin&#45;&gt;pyGHDL.dom.Literal.IntegerLiteral</title>
<path fill="none" stroke="#000000" stroke-width=".5" d="M1108.7807,-41.1062C1131.3948,-39.2932 1157.0905,-37.2333 1181.523,-35.2745"/>
<polygon fill="#000000" stroke="#000000" stroke-width=".5" points="1181.8718,-37.0023 1186.7159,-34.8582 1181.592,-33.5135 1181.8718,-37.0023"/>
</g>
<!-- pyVHDLModel.SyntaxModel.IntegerLiteral -->
<g id="node3" class="node">
<title>pyVHDLModel.SyntaxModel.IntegerLiteral</title>
<polygon fill="none" stroke="#000000" stroke-width=".5" points="1151,-19 932,-19 932,0 1151,0 1151,-19"/>
<text text-anchor="middle" x="1041.5" y="-7" font-family="Vera Sans, DejaVu Sans, Liberation Sans, Arial, Helvetica, sans" font-size="10.00" fill="#000000">pyVHDLModel.SyntaxModel.IntegerLiteral</text>
</g>
<!-- pyVHDLModel.SyntaxModel.IntegerLiteral&#45;&gt;pyGHDL.dom.Literal.IntegerLiteral -->
<g id="edge1" class="edge">
<title>pyVHDLModel.SyntaxModel.IntegerLiteral&#45;&gt;pyGHDL.dom.Literal.IntegerLiteral</title>
<path fill="none" stroke="#000000" stroke-width=".5" d="M1151.3277,-17.8413C1161.4325,-18.6088 1171.6219,-19.3827 1181.5998,-20.1405"/>
<polygon fill="#000000" stroke="#000000" stroke-width=".5" points="1181.6785,-21.9014 1186.7968,-20.5352 1181.9437,-18.4115 1181.6785,-21.9014"/>
</g>
<!-- pyVHDLModel.ModelEntity -->
<g id="node4" class="node">
<title>pyVHDLModel.ModelEntity</title>
<g id="a_node4"><a xlink:title="``ModelEntity`` is the base class for all classes in the VHDL language model,">
<polygon fill="none" stroke="#000000" stroke-width=".5" points="146,-19 0,-19 0,0 146,0 146,-19"/>
<text text-anchor="middle" x="73" y="-7" font-family="Vera Sans, DejaVu Sans, Liberation Sans, Arial, Helvetica, sans" font-size="10.00" fill="#000000">pyVHDLModel.ModelEntity</text>
</a>
</g>
</g>
<!-- pyVHDLModel.SyntaxModel.BaseExpression -->
<g id="node5" class="node">
<title>pyVHDLModel.SyntaxModel.BaseExpression</title>
<g id="a_node5"><a xlink:title="A ``BaseExpression`` is a base&#45;class for all expressions.">
<polygon fill="none" stroke="#000000" stroke-width=".5" points="413,-19 182,-19 182,0 413,0 413,-19"/>
<text text-anchor="middle" x="297.5" y="-7" font-family="Vera Sans, DejaVu Sans, Liberation Sans, Arial, Helvetica, sans" font-size="10.00" fill="#000000">pyVHDLModel.SyntaxModel.BaseExpression</text>
</a>
</g>
</g>
<!-- pyVHDLModel.ModelEntity&#45;&gt;pyVHDLModel.SyntaxModel.BaseExpression -->
<g id="edge3" class="edge">
<title>pyVHDLModel.ModelEntity&#45;&gt;pyVHDLModel.SyntaxModel.BaseExpression</title>
<path fill="none" stroke="#000000" stroke-width=".5" d="M146.1991,-9.5C155.9857,-9.5 166.2247,-9.5 176.5627,-9.5"/>
<polygon fill="#000000" stroke="#000000" stroke-width=".5" points="176.6441,-11.2501 181.644,-9.5 176.644,-7.7501 176.6441,-11.2501"/>
</g>
<!-- pyVHDLModel.SyntaxModel.Literal -->
<g id="node7" class="node">
<title>pyVHDLModel.SyntaxModel.Literal</title>
<g id="a_node7"><a xlink:title="A ``Literal`` is a base&#45;class for all literals.">
<polygon fill="none" stroke="#000000" stroke-width=".5" points="634,-19 449,-19 449,0 634,0 634,-19"/>
<text text-anchor="middle" x="541.5" y="-7" font-family="Vera Sans, DejaVu Sans, Liberation Sans, Arial, Helvetica, sans" font-size="10.00" fill="#000000">pyVHDLModel.SyntaxModel.Literal</text>
</a>
</g>
</g>
<!-- pyVHDLModel.SyntaxModel.BaseExpression&#45;&gt;pyVHDLModel.SyntaxModel.Literal -->
<g id="edge5" class="edge">
<title>pyVHDLModel.SyntaxModel.BaseExpression&#45;&gt;pyVHDLModel.SyntaxModel.Literal</title>
<path fill="none" stroke="#000000" stroke-width=".5" d="M413.0691,-9.5C423.2436,-9.5 433.478,-9.5 443.4881,-9.5"/>
<polygon fill="#000000" stroke="#000000" stroke-width=".5" points="443.7009,-11.2501 448.7008,-9.5 443.7008,-7.7501 443.7009,-11.2501"/>
</g>
<!-- pyVHDLModel.SyntaxModel.NumericLiteral -->
<g id="node6" class="node">
<title>pyVHDLModel.SyntaxModel.NumericLiteral</title>
<g id="a_node6"><a xlink:title="A ``NumericLiteral`` is a base&#45;class for all numeric literals.">
<polygon fill="none" stroke="#000000" stroke-width=".5" points="896,-19 670,-19 670,0 896,0 896,-19"/>
<text text-anchor="middle" x="783" y="-7" font-family="Vera Sans, DejaVu Sans, Liberation Sans, Arial, Helvetica, sans" font-size="10.00" fill="#000000">pyVHDLModel.SyntaxModel.NumericLiteral</text>
</a>
</g>
</g>
<!-- pyVHDLModel.SyntaxModel.NumericLiteral&#45;&gt;pyVHDLModel.SyntaxModel.IntegerLiteral -->
<g id="edge4" class="edge">
<title>pyVHDLModel.SyntaxModel.NumericLiteral&#45;&gt;pyVHDLModel.SyntaxModel.IntegerLiteral</title>
<path fill="none" stroke="#000000" stroke-width=".5" d="M896.0058,-9.5C906.0708,-9.5 916.2694,-9.5 926.3521,-9.5"/>
<polygon fill="#000000" stroke="#000000" stroke-width=".5" points="926.6129,-11.2501 931.6129,-9.5 926.6128,-7.7501 926.6129,-11.2501"/>
</g>
<!-- pyVHDLModel.SyntaxModel.Literal&#45;&gt;pyVHDLModel.SyntaxModel.NumericLiteral -->
<g id="edge6" class="edge">
<title>pyVHDLModel.SyntaxModel.Literal&#45;&gt;pyVHDLModel.SyntaxModel.NumericLiteral</title>
<path fill="none" stroke="#000000" stroke-width=".5" d="M634.1795,-9.5C644.2389,-9.5 654.5734,-9.5 664.8823,-9.5"/>
<polygon fill="#000000" stroke="#000000" stroke-width=".5" points="664.9397,-11.2501 669.9396,-9.5 664.9396,-7.7501 664.9397,-11.2501"/>
</g>
</g>
</svg>
