<?xml version="1.0" encoding="UTF-8" standalone="no"?>
<!DOCTYPE svg PUBLIC "-//W3C//DTD SVG 1.1//EN"
 "http://www.w3.org/Graphics/SVG/1.1/DTD/svg11.dtd">
<!-- Generated by graphviz version 2.40.1 (20161225.0304)
 -->
<!-- Title: inheritancef42d467a5f Pages: 1 -->
<svg width="576pt" height="54pt"
 viewBox="0.00 0.00 576.00 54.13" xmlns="http://www.w3.org/2000/svg" xmlns:xlink="http://www.w3.org/1999/xlink">
<g id="graph0" class="graph" transform="scale(.8458 .8458) rotate(0) translate(4 60)">
<title>inheritancef42d467a5f</title>
<polygon fill="#ffffff" stroke="transparent" points="-4,4 -4,-60 677,-60 677,4 -4,4"/>
<!-- pyGHDL.dom.DOMMixin -->
<g id="node1" class="node">
<title>pyGHDL.dom.DOMMixin</title>
<g id="a_node1"><a xlink:href="../pyGHDL.dom.html#pyGHDL.dom.DOMMixin" xlink:title="pyGHDL.dom.DOMMixin" target="_top">
<polygon fill="none" stroke="#000000" stroke-width=".5" points="398.5,-56 264.5,-56 264.5,-37 398.5,-37 398.5,-56"/>
<text text-anchor="middle" x="331.5" y="-44" font-family="Vera Sans, DejaVu Sans, Liberation Sans, Arial, Helvetica, sans" font-size="10.00" fill="#000000">pyGHDL.dom.DOMMixin</text>
</a>
</g>
</g>
<!-- pyGHDL.dom.Names.SelectedName -->
<g id="node2" class="node">
<title>pyGHDL.dom.Names.SelectedName</title>
<g id="a_node2"><a xlink:href="../pyGHDL/pyGHDL.dom.Names.html#pyGHDL.dom.Names.SelectedName" xlink:title="pyGHDL.dom.Names.SelectedName" target="_top">
<polygon fill="none" stroke="#000000" stroke-width=".5" points="673,-37 480,-37 480,-18 673,-18 673,-37"/>
<text text-anchor="middle" x="576.5" y="-25" font-family="Vera Sans, DejaVu Sans, Liberation Sans, Arial, Helvetica, sans" font-size="10.00" fill="#000000">pyGHDL.dom.Names.SelectedName</text>
</a>
</g>
</g>
<!-- pyGHDL.dom.DOMMixin&#45;&gt;pyGHDL.dom.Names.SelectedName -->
<g id="edge2" class="edge">
<title>pyGHDL.dom.DOMMixin&#45;&gt;pyGHDL.dom.Names.SelectedName</title>
<path fill="none" stroke="#000000" stroke-width=".5" d="M398.7714,-41.283C422.1452,-39.4704 448.9119,-37.3946 474.4572,-35.4135"/>
<polygon fill="#000000" stroke="#000000" stroke-width=".5" points="474.6989,-37.1501 479.5486,-35.0187 474.4282,-33.6606 474.6989,-37.1501"/>
</g>
<!-- pyVHDLModel.SyntaxModel.SelectedName -->
<g id="node3" class="node">
<title>pyVHDLModel.SyntaxModel.SelectedName</title>
<polygon fill="none" stroke="#000000" stroke-width=".5" points="444,-19 219,-19 219,0 444,0 444,-19"/>
<text text-anchor="middle" x="331.5" y="-7" font-family="Vera Sans, DejaVu Sans, Liberation Sans, Arial, Helvetica, sans" font-size="10.00" fill="#000000">pyVHDLModel.SyntaxModel.SelectedName</text>
</g>
<!-- pyVHDLModel.SyntaxModel.SelectedName&#45;&gt;pyGHDL.dom.Names.SelectedName -->
<g id="edge1" class="edge">
<title>pyVHDLModel.SyntaxModel.SelectedName&#45;&gt;pyGHDL.dom.Names.SelectedName</title>
<path fill="none" stroke="#000000" stroke-width=".5" d="M444.319,-17.7887C454.3719,-18.5273 464.5123,-19.2723 474.467,-20.0037"/>
<polygon fill="#000000" stroke="#000000" stroke-width=".5" points="474.5396,-21.7637 479.6544,-20.3848 474.7961,-18.2731 474.5396,-21.7637"/>
</g>
<!-- pyVHDLModel.SyntaxModel.Name -->
<g id="node4" class="node">
<title>pyVHDLModel.SyntaxModel.Name</title>
<g id="a_node4"><a xlink:title="``Name`` is the base class for all *names* in the VHDL language model.">
<polygon fill="none" stroke="#000000" stroke-width=".5" points="183,-19 0,-19 0,0 183,0 183,-19"/>
<text text-anchor="middle" x="91.5" y="-7" font-family="Vera Sans, DejaVu Sans, Liberation Sans, Arial, Helvetica, sans" font-size="10.00" fill="#000000">pyVHDLModel.SyntaxModel.Name</text>
</a>
</g>
</g>
<!-- pyVHDLModel.SyntaxModel.Name&#45;&gt;pyVHDLModel.SyntaxModel.SelectedName -->
<g id="edge3" class="edge">
<title>pyVHDLModel.SyntaxModel.Name&#45;&gt;pyVHDLModel.SyntaxModel.SelectedName</title>
<path fill="none" stroke="#000000" stroke-width=".5" d="M183.261,-9.5C193.2685,-9.5 203.5537,-9.5 213.8164,-9.5"/>
<polygon fill="#000000" stroke="#000000" stroke-width=".5" points="213.8513,-11.2501 218.8513,-9.5 213.8512,-7.7501 213.8513,-11.2501"/>
</g>
</g>
</svg>
