<?xml version="1.0" encoding="UTF-8" standalone="no"?>
<!DOCTYPE svg PUBLIC "-//W3C//DTD SVG 1.1//EN"
 "http://www.w3.org/Graphics/SVG/1.1/DTD/svg11.dtd">
<!-- Generated by graphviz version 2.40.1 (20161225.0304)
 -->
<!-- Title: inheritancece7fd6dd88 Pages: 1 -->
<svg width="576pt" height="19pt"
 viewBox="0.00 0.00 576.00 19.01" xmlns="http://www.w3.org/2000/svg" xmlns:xlink="http://www.w3.org/1999/xlink">
<g id="graph0" class="graph" transform="scale(.2971 .2971) rotate(0) translate(4 60)">
<title>inheritancece7fd6dd88</title>
<polygon fill="#ffffff" stroke="transparent" points="-4,4 -4,-60 1935,-60 1935,4 -4,4"/>
<!-- pyGHDL.dom.DOMMixin -->
<g id="node1" class="node">
<title>pyGHDL.dom.DOMMixin</title>
<g id="a_node1"><a xlink:href="../pyGHDL.dom.html#pyGHDL.dom.DOMMixin" xlink:title="pyGHDL.dom.DOMMixin" target="_top">
<polygon fill="none" stroke="#000000" stroke-width=".5" points="1558,-56 1424,-56 1424,-37 1558,-37 1558,-56"/>
<text text-anchor="middle" x="1491" y="-44" font-family="Vera Sans, DejaVu Sans, Liberation Sans, Arial, Helvetica, sans" font-size="10.00" fill="#000000">pyGHDL.dom.DOMMixin</text>
</a>
</g>
</g>
<!-- pyGHDL.dom.Expression.MatchingEqualExpression -->
<g id="node2" class="node">
<title>pyGHDL.dom.Expression.MatchingEqualExpression</title>
<g id="a_node2"><a xlink:href="../pyGHDL/pyGHDL.dom.Expression.html#pyGHDL.dom.Expression.MatchingEqualExpression" xlink:title="pyGHDL.dom.Expression.MatchingEqualExpression" target="_top">
<polygon fill="none" stroke="#000000" stroke-width=".5" points="1931,-37 1666,-37 1666,-18 1931,-18 1931,-37"/>
<text text-anchor="middle" x="1798.5" y="-25" font-family="Vera Sans, DejaVu Sans, Liberation Sans, Arial, Helvetica, sans" font-size="10.00" fill="#000000">pyGHDL.dom.Expression.MatchingEqualExpression</text>
</a>
</g>
</g>
<!-- pyGHDL.dom.DOMMixin&#45;&gt;pyGHDL.dom.Expression.MatchingEqualExpression -->
<g id="edge2" class="edge">
<title>pyGHDL.dom.DOMMixin&#45;&gt;pyGHDL.dom.Expression.MatchingEqualExpression</title>
<path fill="none" stroke="#000000" stroke-width=".5" d="M1558.1022,-42.3538C1588.2516,-40.491 1625.0011,-38.2203 1660.6044,-36.0204"/>
<polygon fill="#000000" stroke="#000000" stroke-width=".5" points="1660.9656,-37.7515 1665.8481,-35.6964 1660.7497,-34.2582 1660.9656,-37.7515"/>
</g>
<!-- pyVHDLModel.SyntaxModel.MatchingEqualExpression -->
<g id="node3" class="node">
<title>pyVHDLModel.SyntaxModel.MatchingEqualExpression</title>
<polygon fill="none" stroke="#000000" stroke-width=".5" points="1630,-19 1352,-19 1352,0 1630,0 1630,-19"/>
<text text-anchor="middle" x="1491" y="-7" font-family="Vera Sans, DejaVu Sans, Liberation Sans, Arial, Helvetica, sans" font-size="10.00" fill="#000000">pyVHDLModel.SyntaxModel.MatchingEqualExpression</text>
</g>
<!-- pyVHDLModel.SyntaxModel.MatchingEqualExpression&#45;&gt;pyGHDL.dom.Expression.MatchingEqualExpression -->
<g id="edge1" class="edge">
<title>pyVHDLModel.SyntaxModel.MatchingEqualExpression&#45;&gt;pyGHDL.dom.Expression.MatchingEqualExpression</title>
<path fill="none" stroke="#000000" stroke-width=".5" d="M1630.3547,-17.6573C1640.3684,-18.2435 1650.4642,-18.8345 1660.4702,-19.4202"/>
<polygon fill="#000000" stroke="#000000" stroke-width=".5" points="1660.5999,-21.1807 1665.6937,-19.726 1660.8045,-17.6867 1660.5999,-21.1807"/>
</g>
<!-- pyVHDLModel.ModelEntity -->
<g id="node4" class="node">
<title>pyVHDLModel.ModelEntity</title>
<g id="a_node4"><a xlink:title="``ModelEntity`` is the base class for all classes in the VHDL language model,">
<polygon fill="none" stroke="#000000" stroke-width=".5" points="146,-19 0,-19 0,0 146,0 146,-19"/>
<text text-anchor="middle" x="73" y="-7" font-family="Vera Sans, DejaVu Sans, Liberation Sans, Arial, Helvetica, sans" font-size="10.00" fill="#000000">pyVHDLModel.ModelEntity</text>
</a>
</g>
</g>
<!-- pyVHDLModel.SyntaxModel.BaseExpression -->
<g id="node5" class="node">
<title>pyVHDLModel.SyntaxModel.BaseExpression</title>
<g id="a_node5"><a xlink:title="A ``BaseExpression`` is a base&#45;class for all expressions.">
<polygon fill="none" stroke="#000000" stroke-width=".5" points="413,-19 182,-19 182,0 413,0 413,-19"/>
<text text-anchor="middle" x="297.5" y="-7" font-family="Vera Sans, DejaVu Sans, Liberation Sans, Arial, Helvetica, sans" font-size="10.00" fill="#000000">pyVHDLModel.SyntaxModel.BaseExpression</text>
</a>
</g>
</g>
<!-- pyVHDLModel.ModelEntity&#45;&gt;pyVHDLModel.SyntaxModel.BaseExpression -->
<g id="edge3" class="edge">
<title>pyVHDLModel.ModelEntity&#45;&gt;pyVHDLModel.SyntaxModel.BaseExpression</title>
<path fill="none" stroke="#000000" stroke-width=".5" d="M146.1991,-9.5C155.9857,-9.5 166.2247,-9.5 176.5627,-9.5"/>
<polygon fill="#000000" stroke="#000000" stroke-width=".5" points="176.6441,-11.2501 181.644,-9.5 176.644,-7.7501 176.6441,-11.2501"/>
</g>
<!-- pyVHDLModel.SyntaxModel.BinaryExpression -->
<g id="node6" class="node">
<title>pyVHDLModel.SyntaxModel.BinaryExpression</title>
<g id="a_node6"><a xlink:title="A ``BinaryExpression`` is a base&#45;class for all binary expressions.">
<polygon fill="none" stroke="#000000" stroke-width=".5" points="688,-19 449,-19 449,0 688,0 688,-19"/>
<text text-anchor="middle" x="568.5" y="-7" font-family="Vera Sans, DejaVu Sans, Liberation Sans, Arial, Helvetica, sans" font-size="10.00" fill="#000000">pyVHDLModel.SyntaxModel.BinaryExpression</text>
</a>
</g>
</g>
<!-- pyVHDLModel.SyntaxModel.BaseExpression&#45;&gt;pyVHDLModel.SyntaxModel.BinaryExpression -->
<g id="edge4" class="edge">
<title>pyVHDLModel.SyntaxModel.BaseExpression&#45;&gt;pyVHDLModel.SyntaxModel.BinaryExpression</title>
<path fill="none" stroke="#000000" stroke-width=".5" d="M413.2145,-9.5C423.3522,-9.5 433.6409,-9.5 443.8471,-9.5"/>
<polygon fill="#000000" stroke="#000000" stroke-width=".5" points="443.8497,-11.2501 448.8497,-9.5 443.8496,-7.7501 443.8497,-11.2501"/>
</g>
<!-- pyVHDLModel.SyntaxModel.RelationalExpression -->
<g id="node8" class="node">
<title>pyVHDLModel.SyntaxModel.RelationalExpression</title>
<g id="a_node8"><a xlink:title="A ``RelationalExpression`` is a base&#45;class for all shifting expressions.">
<polygon fill="none" stroke="#000000" stroke-width=".5" points="980,-19 724,-19 724,0 980,0 980,-19"/>
<text text-anchor="middle" x="852" y="-7" font-family="Vera Sans, DejaVu Sans, Liberation Sans, Arial, Helvetica, sans" font-size="10.00" fill="#000000">pyVHDLModel.SyntaxModel.RelationalExpression</text>
</a>
</g>
</g>
<!-- pyVHDLModel.SyntaxModel.BinaryExpression&#45;&gt;pyVHDLModel.SyntaxModel.RelationalExpression -->
<g id="edge7" class="edge">
<title>pyVHDLModel.SyntaxModel.BinaryExpression&#45;&gt;pyVHDLModel.SyntaxModel.RelationalExpression</title>
<path fill="none" stroke="#000000" stroke-width=".5" d="M688.3186,-9.5C698.4484,-9.5 708.7313,-9.5 718.9536,-9.5"/>
<polygon fill="#000000" stroke="#000000" stroke-width=".5" points="718.9661,-11.2501 723.9661,-9.5 718.966,-7.7501 718.9661,-11.2501"/>
</g>
<!-- pyVHDLModel.SyntaxModel.MatchingRelationalExpression -->
<g id="node7" class="node">
<title>pyVHDLModel.SyntaxModel.MatchingRelationalExpression</title>
<polygon fill="none" stroke="#000000" stroke-width=".5" points="1316,-19 1016,-19 1016,0 1316,0 1316,-19"/>
<text text-anchor="middle" x="1166" y="-7" font-family="Vera Sans, DejaVu Sans, Liberation Sans, Arial, Helvetica, sans" font-size="10.00" fill="#000000">pyVHDLModel.SyntaxModel.MatchingRelationalExpression</text>
</g>
<!-- pyVHDLModel.SyntaxModel.MatchingRelationalExpression&#45;&gt;pyVHDLModel.SyntaxModel.MatchingEqualExpression -->
<g id="edge5" class="edge">
<title>pyVHDLModel.SyntaxModel.MatchingRelationalExpression&#45;&gt;pyVHDLModel.SyntaxModel.MatchingEqualExpression</title>
<path fill="none" stroke="#000000" stroke-width=".5" d="M1316.1327,-9.5C1326.1886,-9.5 1336.308,-9.5 1346.3356,-9.5"/>
<polygon fill="#000000" stroke="#000000" stroke-width=".5" points="1346.5703,-11.2501 1351.5703,-9.5 1346.5703,-7.7501 1346.5703,-11.2501"/>
</g>
<!-- pyVHDLModel.SyntaxModel.RelationalExpression&#45;&gt;pyVHDLModel.SyntaxModel.MatchingRelationalExpression -->
<g id="edge6" class="edge">
<title>pyVHDLModel.SyntaxModel.RelationalExpression&#45;&gt;pyVHDLModel.SyntaxModel.MatchingRelationalExpression</title>
<path fill="none" stroke="#000000" stroke-width=".5" d="M980.1687,-9.5C990.2971,-9.5 1000.5912,-9.5 1010.8746,-9.5"/>
<polygon fill="#000000" stroke="#000000" stroke-width=".5" points="1010.9213,-11.2501 1015.9212,-9.5 1010.9212,-7.7501 1010.9213,-11.2501"/>
</g>
</g>
</svg>
