<?xml version="1.0" encoding="UTF-8" standalone="no"?>
<!DOCTYPE svg PUBLIC "-//W3C//DTD SVG 1.1//EN"
 "http://www.w3.org/Graphics/SVG/1.1/DTD/svg11.dtd">
<!-- Generated by graphviz version 2.40.1 (20161225.0304)
 -->
<!-- Title: inheritance9e99d5a14f Pages: 1 -->
<svg width="576pt" height="24pt"
 viewBox="0.00 0.00 576.00 23.66" xmlns="http://www.w3.org/2000/svg" xmlns:xlink="http://www.w3.org/1999/xlink">
<g id="graph0" class="graph" transform="scale(.3697 .3697) rotate(0) translate(4 60)">
<title>inheritance9e99d5a14f</title>
<polygon fill="#ffffff" stroke="transparent" points="-4,4 -4,-60 1554,-60 1554,4 -4,4"/>
<!-- pyGHDL.dom.DOMMixin -->
<g id="node1" class="node">
<title>pyGHDL.dom.DOMMixin</title>
<g id="a_node1"><a xlink:href="../pyGHDL.dom.html#pyGHDL.dom.DOMMixin" xlink:title="pyGHDL.dom.DOMMixin" target="_top">
<polygon fill="none" stroke="#000000" stroke-width=".5" points="1211,-56 1077,-56 1077,-37 1211,-37 1211,-56"/>
<text text-anchor="middle" x="1144" y="-44" font-family="Vera Sans, DejaVu Sans, Liberation Sans, Arial, Helvetica, sans" font-size="10.00" fill="#000000">pyGHDL.dom.DOMMixin</text>
</a>
</g>
</g>
<!-- pyGHDL.dom.Expression.LessEqualExpression -->
<g id="node2" class="node">
<title>pyGHDL.dom.Expression.LessEqualExpression</title>
<g id="a_node2"><a xlink:href="../pyGHDL/pyGHDL.dom.Expression.html#pyGHDL.dom.Expression.LessEqualExpression" xlink:title="pyGHDL.dom.Expression.LessEqualExpression" target="_top">
<polygon fill="none" stroke="#000000" stroke-width=".5" points="1550,-37 1308,-37 1308,-18 1550,-18 1550,-37"/>
<text text-anchor="middle" x="1429" y="-25" font-family="Vera Sans, DejaVu Sans, Liberation Sans, Arial, Helvetica, sans" font-size="10.00" fill="#000000">pyGHDL.dom.Expression.LessEqualExpression</text>
</a>
</g>
</g>
<!-- pyGHDL.dom.DOMMixin&#45;&gt;pyGHDL.dom.Expression.LessEqualExpression -->
<g id="edge2" class="edge">
<title>pyGHDL.dom.DOMMixin&#45;&gt;pyGHDL.dom.Expression.LessEqualExpression</title>
<path fill="none" stroke="#000000" stroke-width=".5" d="M1211.1801,-42.0213C1238.5951,-40.1937 1271.2294,-38.018 1302.7844,-35.9144"/>
<polygon fill="#000000" stroke="#000000" stroke-width=".5" points="1302.9661,-37.6562 1307.8385,-35.5774 1302.7332,-34.164 1302.9661,-37.6562"/>
</g>
<!-- pyVHDLModel.SyntaxModel.LessEqualExpression -->
<g id="node3" class="node">
<title>pyVHDLModel.SyntaxModel.LessEqualExpression</title>
<polygon fill="none" stroke="#000000" stroke-width=".5" points="1272,-19 1016,-19 1016,0 1272,0 1272,-19"/>
<text text-anchor="middle" x="1144" y="-7" font-family="Vera Sans, DejaVu Sans, Liberation Sans, Arial, Helvetica, sans" font-size="10.00" fill="#000000">pyVHDLModel.SyntaxModel.LessEqualExpression</text>
</g>
<!-- pyVHDLModel.SyntaxModel.LessEqualExpression&#45;&gt;pyGHDL.dom.Expression.LessEqualExpression -->
<g id="edge1" class="edge">
<title>pyVHDLModel.SyntaxModel.LessEqualExpression&#45;&gt;pyGHDL.dom.Expression.LessEqualExpression</title>
<path fill="none" stroke="#000000" stroke-width=".5" d="M1272.3265,-17.6048C1282.3918,-18.2405 1292.5523,-18.8823 1302.6045,-19.5171"/>
<polygon fill="#000000" stroke="#000000" stroke-width=".5" points="1302.7499,-21.2797 1307.8502,-19.8484 1302.9705,-17.7867 1302.7499,-21.2797"/>
</g>
<!-- pyVHDLModel.ModelEntity -->
<g id="node4" class="node">
<title>pyVHDLModel.ModelEntity</title>
<g id="a_node4"><a xlink:title="``ModelEntity`` is the base class for all classes in the VHDL language model,">
<polygon fill="none" stroke="#000000" stroke-width=".5" points="146,-19 0,-19 0,0 146,0 146,-19"/>
<text text-anchor="middle" x="73" y="-7" font-family="Vera Sans, DejaVu Sans, Liberation Sans, Arial, Helvetica, sans" font-size="10.00" fill="#000000">pyVHDLModel.ModelEntity</text>
</a>
</g>
</g>
<!-- pyVHDLModel.SyntaxModel.BaseExpression -->
<g id="node5" class="node">
<title>pyVHDLModel.SyntaxModel.BaseExpression</title>
<g id="a_node5"><a xlink:title="A ``BaseExpression`` is a base&#45;class for all expressions.">
<polygon fill="none" stroke="#000000" stroke-width=".5" points="413,-19 182,-19 182,0 413,0 413,-19"/>
<text text-anchor="middle" x="297.5" y="-7" font-family="Vera Sans, DejaVu Sans, Liberation Sans, Arial, Helvetica, sans" font-size="10.00" fill="#000000">pyVHDLModel.SyntaxModel.BaseExpression</text>
</a>
</g>
</g>
<!-- pyVHDLModel.ModelEntity&#45;&gt;pyVHDLModel.SyntaxModel.BaseExpression -->
<g id="edge3" class="edge">
<title>pyVHDLModel.ModelEntity&#45;&gt;pyVHDLModel.SyntaxModel.BaseExpression</title>
<path fill="none" stroke="#000000" stroke-width=".5" d="M146.1991,-9.5C155.9857,-9.5 166.2247,-9.5 176.5627,-9.5"/>
<polygon fill="#000000" stroke="#000000" stroke-width=".5" points="176.6441,-11.2501 181.644,-9.5 176.644,-7.7501 176.6441,-11.2501"/>
</g>
<!-- pyVHDLModel.SyntaxModel.BinaryExpression -->
<g id="node6" class="node">
<title>pyVHDLModel.SyntaxModel.BinaryExpression</title>
<g id="a_node6"><a xlink:title="A ``BinaryExpression`` is a base&#45;class for all binary expressions.">
<polygon fill="none" stroke="#000000" stroke-width=".5" points="688,-19 449,-19 449,0 688,0 688,-19"/>
<text text-anchor="middle" x="568.5" y="-7" font-family="Vera Sans, DejaVu Sans, Liberation Sans, Arial, Helvetica, sans" font-size="10.00" fill="#000000">pyVHDLModel.SyntaxModel.BinaryExpression</text>
</a>
</g>
</g>
<!-- pyVHDLModel.SyntaxModel.BaseExpression&#45;&gt;pyVHDLModel.SyntaxModel.BinaryExpression -->
<g id="edge4" class="edge">
<title>pyVHDLModel.SyntaxModel.BaseExpression&#45;&gt;pyVHDLModel.SyntaxModel.BinaryExpression</title>
<path fill="none" stroke="#000000" stroke-width=".5" d="M413.2145,-9.5C423.3522,-9.5 433.6409,-9.5 443.8471,-9.5"/>
<polygon fill="#000000" stroke="#000000" stroke-width=".5" points="443.8497,-11.2501 448.8497,-9.5 443.8496,-7.7501 443.8497,-11.2501"/>
</g>
<!-- pyVHDLModel.SyntaxModel.RelationalExpression -->
<g id="node7" class="node">
<title>pyVHDLModel.SyntaxModel.RelationalExpression</title>
<g id="a_node7"><a xlink:title="A ``RelationalExpression`` is a base&#45;class for all shifting expressions.">
<polygon fill="none" stroke="#000000" stroke-width=".5" points="980,-19 724,-19 724,0 980,0 980,-19"/>
<text text-anchor="middle" x="852" y="-7" font-family="Vera Sans, DejaVu Sans, Liberation Sans, Arial, Helvetica, sans" font-size="10.00" fill="#000000">pyVHDLModel.SyntaxModel.RelationalExpression</text>
</a>
</g>
</g>
<!-- pyVHDLModel.SyntaxModel.BinaryExpression&#45;&gt;pyVHDLModel.SyntaxModel.RelationalExpression -->
<g id="edge6" class="edge">
<title>pyVHDLModel.SyntaxModel.BinaryExpression&#45;&gt;pyVHDLModel.SyntaxModel.RelationalExpression</title>
<path fill="none" stroke="#000000" stroke-width=".5" d="M688.3186,-9.5C698.4484,-9.5 708.7313,-9.5 718.9536,-9.5"/>
<polygon fill="#000000" stroke="#000000" stroke-width=".5" points="718.9661,-11.2501 723.9661,-9.5 718.966,-7.7501 718.9661,-11.2501"/>
</g>
<!-- pyVHDLModel.SyntaxModel.RelationalExpression&#45;&gt;pyVHDLModel.SyntaxModel.LessEqualExpression -->
<g id="edge5" class="edge">
<title>pyVHDLModel.SyntaxModel.RelationalExpression&#45;&gt;pyVHDLModel.SyntaxModel.LessEqualExpression</title>
<path fill="none" stroke="#000000" stroke-width=".5" d="M980.0755,-9.5C990.1232,-9.5 1000.2859,-9.5 1010.3693,-9.5"/>
<polygon fill="#000000" stroke="#000000" stroke-width=".5" points="1010.6341,-11.2501 1015.6341,-9.5 1010.6341,-7.7501 1010.6341,-11.2501"/>
</g>
</g>
</svg>
