<?xml version="1.0" encoding="UTF-8" standalone="no"?>
<!DOCTYPE svg PUBLIC "-//W3C//DTD SVG 1.1//EN"
 "http://www.w3.org/Graphics/SVG/1.1/DTD/svg11.dtd">
<!-- Generated by graphviz version 2.40.1 (20161225.0304)
 -->
<!-- Title: inheritance9bbaf0b9f8 Pages: 1 -->
<svg width="576pt" height="40pt"
 viewBox="0.00 0.00 576.00 40.06" xmlns="http://www.w3.org/2000/svg" xmlns:xlink="http://www.w3.org/1999/xlink">
<g id="graph0" class="graph" transform="scale(.4885 .4885) rotate(0) translate(4 78)">
<title>inheritance9bbaf0b9f8</title>
<polygon fill="#ffffff" stroke="transparent" points="-4,4 -4,-78 1175,-78 1175,4 -4,4"/>
<!-- pyGHDL.dom.DOMMixin -->
<g id="node1" class="node">
<title>pyGHDL.dom.DOMMixin</title>
<g id="a_node1"><a xlink:href="../pyGHDL.dom.html#pyGHDL.dom.DOMMixin" xlink:title="pyGHDL.dom.DOMMixin" target="_top">
<polygon fill="none" stroke="#000000" stroke-width=".5" points="877,-74 743,-74 743,-55 877,-55 877,-74"/>
<text text-anchor="middle" x="810" y="-62" font-family="Vera Sans, DejaVu Sans, Liberation Sans, Arial, Helvetica, sans" font-size="10.00" fill="#000000">pyGHDL.dom.DOMMixin</text>
</a>
</g>
</g>
<!-- pyGHDL.dom.Object.DeferredConstant -->
<g id="node2" class="node">
<title>pyGHDL.dom.Object.DeferredConstant</title>
<g id="a_node2"><a xlink:href="../pyGHDL/pyGHDL.dom.Object.html#pyGHDL.dom.Object.DeferredConstant" xlink:title="pyGHDL.dom.Object.DeferredConstant" target="_top">
<polygon fill="none" stroke="#000000" stroke-width=".5" points="1171,-55 966,-55 966,-36 1171,-36 1171,-55"/>
<text text-anchor="middle" x="1068.5" y="-43" font-family="Vera Sans, DejaVu Sans, Liberation Sans, Arial, Helvetica, sans" font-size="10.00" fill="#000000">pyGHDL.dom.Object.DeferredConstant</text>
</a>
</g>
</g>
<!-- pyGHDL.dom.DOMMixin&#45;&gt;pyGHDL.dom.Object.DeferredConstant -->
<g id="edge2" class="edge">
<title>pyGHDL.dom.DOMMixin&#45;&gt;pyGHDL.dom.Object.DeferredConstant</title>
<path fill="none" stroke="#000000" stroke-width=".5" d="M877.243,-59.5576C902.7331,-57.684 932.44,-55.5005 960.7337,-53.4209"/>
<polygon fill="#000000" stroke="#000000" stroke-width=".5" points="961.1407,-55.1458 965.9989,-53.0339 960.8841,-51.6552 961.1407,-55.1458"/>
</g>
<!-- pyVHDLModel.SyntaxModel.DeferredConstant -->
<g id="node3" class="node">
<title>pyVHDLModel.SyntaxModel.DeferredConstant</title>
<polygon fill="none" stroke="#000000" stroke-width=".5" points="930,-37 690,-37 690,-18 930,-18 930,-37"/>
<text text-anchor="middle" x="810" y="-25" font-family="Vera Sans, DejaVu Sans, Liberation Sans, Arial, Helvetica, sans" font-size="10.00" fill="#000000">pyVHDLModel.SyntaxModel.DeferredConstant</text>
</g>
<!-- pyVHDLModel.SyntaxModel.DeferredConstant&#45;&gt;pyGHDL.dom.Object.DeferredConstant -->
<g id="edge1" class="edge">
<title>pyVHDLModel.SyntaxModel.DeferredConstant&#45;&gt;pyGHDL.dom.Object.DeferredConstant</title>
<path fill="none" stroke="#000000" stroke-width=".5" d="M930.1688,-35.8677C940.2736,-36.5713 950.4528,-37.2801 960.4577,-37.9767"/>
<polygon fill="#000000" stroke="#000000" stroke-width=".5" points="960.563,-39.7382 965.6725,-38.3399 960.8061,-36.2467 960.563,-39.7382"/>
</g>
<!-- pyVHDLModel.ModelEntity -->
<g id="node4" class="node">
<title>pyVHDLModel.ModelEntity</title>
<g id="a_node4"><a xlink:title="``ModelEntity`` is the base class for all classes in the VHDL language model,">
<polygon fill="none" stroke="#000000" stroke-width=".5" points="168.5,-56 22.5,-56 22.5,-37 168.5,-37 168.5,-56"/>
<text text-anchor="middle" x="95.5" y="-44" font-family="Vera Sans, DejaVu Sans, Liberation Sans, Arial, Helvetica, sans" font-size="10.00" fill="#000000">pyVHDLModel.ModelEntity</text>
</a>
</g>
</g>
<!-- pyVHDLModel.SyntaxModel.Obj -->
<g id="node7" class="node">
<title>pyVHDLModel.SyntaxModel.Obj</title>
<polygon fill="none" stroke="#000000" stroke-width=".5" points="397,-37 227,-37 227,-18 397,-18 397,-37"/>
<text text-anchor="middle" x="312" y="-25" font-family="Vera Sans, DejaVu Sans, Liberation Sans, Arial, Helvetica, sans" font-size="10.00" fill="#000000">pyVHDLModel.SyntaxModel.Obj</text>
</g>
<!-- pyVHDLModel.ModelEntity&#45;&gt;pyVHDLModel.SyntaxModel.Obj -->
<g id="edge5" class="edge">
<title>pyVHDLModel.ModelEntity&#45;&gt;pyVHDLModel.SyntaxModel.Obj</title>
<path fill="none" stroke="#000000" stroke-width=".5" d="M168.797,-40.0675C185.6952,-38.5845 203.8663,-36.9898 221.4022,-35.4508"/>
<polygon fill="#000000" stroke="#000000" stroke-width=".5" points="221.9941,-37.1557 226.8219,-34.9752 221.688,-33.6691 221.9941,-37.1557"/>
</g>
<!-- pyVHDLModel.MultipleNamedEntity -->
<g id="node5" class="node">
<title>pyVHDLModel.MultipleNamedEntity</title>
<g id="a_node5"><a xlink:title="A ``MultipleNamedEntity`` is a mixin class for all VHDL entities that declare">
<polygon fill="none" stroke="#000000" stroke-width=".5" points="191,-19 0,-19 0,0 191,0 191,-19"/>
<text text-anchor="middle" x="95.5" y="-7" font-family="Vera Sans, DejaVu Sans, Liberation Sans, Arial, Helvetica, sans" font-size="10.00" fill="#000000">pyVHDLModel.MultipleNamedEntity</text>
</a>
</g>
</g>
<!-- pyVHDLModel.MultipleNamedEntity&#45;&gt;pyVHDLModel.SyntaxModel.Obj -->
<g id="edge6" class="edge">
<title>pyVHDLModel.MultipleNamedEntity&#45;&gt;pyVHDLModel.SyntaxModel.Obj</title>
<path fill="none" stroke="#000000" stroke-width=".5" d="M191.0903,-17.4475C201.2187,-18.2895 211.4971,-19.1441 221.5641,-19.9811"/>
<polygon fill="#000000" stroke="#000000" stroke-width=".5" points="221.6795,-21.7466 226.8074,-20.417 221.9696,-18.2587 221.6795,-21.7466"/>
</g>
<!-- pyVHDLModel.SyntaxModel.BaseConstant -->
<g id="node6" class="node">
<title>pyVHDLModel.SyntaxModel.BaseConstant</title>
<polygon fill="none" stroke="#000000" stroke-width=".5" points="654,-37 433,-37 433,-18 654,-18 654,-37"/>
<text text-anchor="middle" x="543.5" y="-25" font-family="Vera Sans, DejaVu Sans, Liberation Sans, Arial, Helvetica, sans" font-size="10.00" fill="#000000">pyVHDLModel.SyntaxModel.BaseConstant</text>
</g>
<!-- pyVHDLModel.SyntaxModel.BaseConstant&#45;&gt;pyVHDLModel.SyntaxModel.DeferredConstant -->
<g id="edge4" class="edge">
<title>pyVHDLModel.SyntaxModel.BaseConstant&#45;&gt;pyVHDLModel.SyntaxModel.DeferredConstant</title>
<path fill="none" stroke="#000000" stroke-width=".5" d="M654.2048,-27.5C664.1908,-27.5 674.3508,-27.5 684.4517,-27.5"/>
<polygon fill="#000000" stroke="#000000" stroke-width=".5" points="684.7271,-29.2501 689.7271,-27.5 684.7271,-25.7501 684.7271,-29.2501"/>
</g>
<!-- pyVHDLModel.SyntaxModel.Obj&#45;&gt;pyVHDLModel.SyntaxModel.BaseConstant -->
<g id="edge3" class="edge">
<title>pyVHDLModel.SyntaxModel.Obj&#45;&gt;pyVHDLModel.SyntaxModel.BaseConstant</title>
<path fill="none" stroke="#000000" stroke-width=".5" d="M397.2158,-27.5C407.1871,-27.5 417.4841,-27.5 427.7807,-27.5"/>
<polygon fill="#000000" stroke="#000000" stroke-width=".5" points="427.8339,-29.2501 432.8339,-27.5 427.8339,-25.7501 427.8339,-29.2501"/>
</g>
</g>
</svg>
