<?xml version="1.0" encoding="UTF-8" standalone="no"?>
<!DOCTYPE svg PUBLIC "-//W3C//DTD SVG 1.1//EN"
 "http://www.w3.org/Graphics/SVG/1.1/DTD/svg11.dtd">
<!-- Generated by graphviz version 2.40.1 (20161225.0304)
 -->
<!-- Title: inheritance72f8a9a983 Pages: 1 -->
<svg width="576pt" height="41pt"
 viewBox="0.00 0.00 576.00 41.23" xmlns="http://www.w3.org/2000/svg" xmlns:xlink="http://www.w3.org/1999/xlink">
<g id="graph0" class="graph" transform="scale(.6443 .6443) rotate(0) translate(4 60)">
<title>inheritance72f8a9a983</title>
<polygon fill="#ffffff" stroke="transparent" points="-4,4 -4,-60 890,-60 890,4 -4,4"/>
<!-- pyGHDL.dom.DOMMixin -->
<g id="node1" class="node">
<title>pyGHDL.dom.DOMMixin</title>
<g id="a_node1"><a xlink:href="../pyGHDL.dom.html#pyGHDL.dom.DOMMixin" xlink:title="pyGHDL.dom.DOMMixin" target="_top">
<polygon fill="none" stroke="#000000" stroke-width=".5" points="598.5,-56 464.5,-56 464.5,-37 598.5,-37 598.5,-56"/>
<text text-anchor="middle" x="531.5" y="-44" font-family="Vera Sans, DejaVu Sans, Liberation Sans, Arial, Helvetica, sans" font-size="10.00" fill="#000000">pyGHDL.dom.DOMMixin</text>
</a>
</g>
</g>
<!-- pyGHDL.dom.DesignUnit.LibraryClause -->
<g id="node2" class="node">
<title>pyGHDL.dom.DesignUnit.LibraryClause</title>
<g id="a_node2"><a xlink:href="../pyGHDL/pyGHDL.dom.DesignUnit.html#pyGHDL.dom.DesignUnit.LibraryClause" xlink:title="pyGHDL.dom.DesignUnit.LibraryClause" target="_top">
<polygon fill="none" stroke="#000000" stroke-width=".5" points="886,-37 678,-37 678,-18 886,-18 886,-37"/>
<text text-anchor="middle" x="782" y="-25" font-family="Vera Sans, DejaVu Sans, Liberation Sans, Arial, Helvetica, sans" font-size="10.00" fill="#000000">pyGHDL.dom.DesignUnit.LibraryClause</text>
</a>
</g>
</g>
<!-- pyGHDL.dom.DOMMixin&#45;&gt;pyGHDL.dom.DesignUnit.LibraryClause -->
<g id="edge2" class="edge">
<title>pyGHDL.dom.DOMMixin&#45;&gt;pyGHDL.dom.DesignUnit.LibraryClause</title>
<path fill="none" stroke="#000000" stroke-width=".5" d="M598.6294,-41.4083C621.4549,-39.6771 647.5895,-37.6948 672.8373,-35.7798"/>
<polygon fill="#000000" stroke="#000000" stroke-width=".5" points="673.0205,-37.521 677.8738,-35.3978 672.7557,-34.0311 673.0205,-37.521"/>
</g>
<!-- pyVHDLModel.SyntaxModel.LibraryClause -->
<g id="node3" class="node">
<title>pyVHDLModel.SyntaxModel.LibraryClause</title>
<polygon fill="none" stroke="#000000" stroke-width=".5" points="642,-19 421,-19 421,0 642,0 642,-19"/>
<text text-anchor="middle" x="531.5" y="-7" font-family="Vera Sans, DejaVu Sans, Liberation Sans, Arial, Helvetica, sans" font-size="10.00" fill="#000000">pyVHDLModel.SyntaxModel.LibraryClause</text>
</g>
<!-- pyVHDLModel.SyntaxModel.LibraryClause&#45;&gt;pyGHDL.dom.DesignUnit.LibraryClause -->
<g id="edge1" class="edge">
<title>pyVHDLModel.SyntaxModel.LibraryClause&#45;&gt;pyGHDL.dom.DesignUnit.LibraryClause</title>
<path fill="none" stroke="#000000" stroke-width=".5" d="M642.1021,-17.4475C652.3519,-18.184 662.7342,-18.93 672.9697,-19.6655"/>
<polygon fill="#000000" stroke="#000000" stroke-width=".5" points="672.8687,-21.4127 677.9813,-20.0256 673.1196,-17.9217 672.8687,-21.4127"/>
</g>
<!-- pyVHDLModel.ModelEntity -->
<g id="node4" class="node">
<title>pyVHDLModel.ModelEntity</title>
<g id="a_node4"><a xlink:title="``ModelEntity`` is the base class for all classes in the VHDL language model,">
<polygon fill="none" stroke="#000000" stroke-width=".5" points="146,-19 0,-19 0,0 146,0 146,-19"/>
<text text-anchor="middle" x="73" y="-7" font-family="Vera Sans, DejaVu Sans, Liberation Sans, Arial, Helvetica, sans" font-size="10.00" fill="#000000">pyVHDLModel.ModelEntity</text>
</a>
</g>
</g>
<!-- pyVHDLModel.SyntaxModel.Reference -->
<g id="node5" class="node">
<title>pyVHDLModel.SyntaxModel.Reference</title>
<polygon fill="none" stroke="#000000" stroke-width=".5" points="385,-19 182,-19 182,0 385,0 385,-19"/>
<text text-anchor="middle" x="283.5" y="-7" font-family="Vera Sans, DejaVu Sans, Liberation Sans, Arial, Helvetica, sans" font-size="10.00" fill="#000000">pyVHDLModel.SyntaxModel.Reference</text>
</g>
<!-- pyVHDLModel.ModelEntity&#45;&gt;pyVHDLModel.SyntaxModel.Reference -->
<g id="edge4" class="edge">
<title>pyVHDLModel.ModelEntity&#45;&gt;pyVHDLModel.SyntaxModel.Reference</title>
<path fill="none" stroke="#000000" stroke-width=".5" d="M146.0319,-9.5C155.9304,-9.5 166.2497,-9.5 176.5903,-9.5"/>
<polygon fill="#000000" stroke="#000000" stroke-width=".5" points="176.6666,-11.2501 181.6666,-9.5 176.6666,-7.7501 176.6666,-11.2501"/>
</g>
<!-- pyVHDLModel.SyntaxModel.Reference&#45;&gt;pyVHDLModel.SyntaxModel.LibraryClause -->
<g id="edge3" class="edge">
<title>pyVHDLModel.SyntaxModel.Reference&#45;&gt;pyVHDLModel.SyntaxModel.LibraryClause</title>
<path fill="none" stroke="#000000" stroke-width=".5" d="M385.0867,-9.5C395.2028,-9.5 405.5247,-9.5 415.7711,-9.5"/>
<polygon fill="#000000" stroke="#000000" stroke-width=".5" points="415.7938,-11.2501 420.7938,-9.5 415.7937,-7.7501 415.7938,-11.2501"/>
</g>
</g>
</svg>
