<?xml version="1.0" encoding="UTF-8" standalone="no"?>
<!DOCTYPE svg PUBLIC "-//W3C//DTD SVG 1.1//EN"
 "http://www.w3.org/Graphics/SVG/1.1/DTD/svg11.dtd">
<!-- Generated by graphviz version 2.40.1 (20161225.0304)
 -->
<!-- Title: inheritance11bcd72a94 Pages: 1 -->
<svg width="576pt" height="30pt"
 viewBox="0.00 0.00 576.00 30.37" xmlns="http://www.w3.org/2000/svg" xmlns:xlink="http://www.w3.org/1999/xlink">
<g id="graph0" class="graph" transform="scale(.4745 .4745) rotate(0) translate(4 60)">
<title>inheritance11bcd72a94</title>
<polygon fill="#ffffff" stroke="transparent" points="-4,4 -4,-60 1210,-60 1210,4 -4,4"/>
<!-- pyGHDL.dom.DOMMixin -->
<g id="node1" class="node">
<title>pyGHDL.dom.DOMMixin</title>
<g id="a_node1"><a xlink:href="../pyGHDL.dom.html#pyGHDL.dom.DOMMixin" xlink:title="pyGHDL.dom.DOMMixin" target="_top">
<polygon fill="none" stroke="#000000" stroke-width=".5" points="903.5,-56 769.5,-56 769.5,-37 903.5,-37 903.5,-56"/>
<text text-anchor="middle" x="836.5" y="-44" font-family="Vera Sans, DejaVu Sans, Liberation Sans, Arial, Helvetica, sans" font-size="10.00" fill="#000000">pyGHDL.dom.DOMMixin</text>
</a>
</g>
</g>
<!-- pyGHDL.dom.Expression.TypeConversion -->
<g id="node2" class="node">
<title>pyGHDL.dom.Expression.TypeConversion</title>
<g id="a_node2"><a xlink:href="../pyGHDL/pyGHDL.dom.Expression.html#pyGHDL.dom.Expression.TypeConversion" xlink:title="pyGHDL.dom.Expression.TypeConversion" target="_top">
<polygon fill="none" stroke="#000000" stroke-width=".5" points="1206,-37 988,-37 988,-18 1206,-18 1206,-37"/>
<text text-anchor="middle" x="1097" y="-25" font-family="Vera Sans, DejaVu Sans, Liberation Sans, Arial, Helvetica, sans" font-size="10.00" fill="#000000">pyGHDL.dom.Expression.TypeConversion</text>
</a>
</g>
</g>
<!-- pyGHDL.dom.DOMMixin&#45;&gt;pyGHDL.dom.Expression.TypeConversion -->
<g id="edge2" class="edge">
<title>pyGHDL.dom.DOMMixin&#45;&gt;pyGHDL.dom.Expression.TypeConversion</title>
<path fill="none" stroke="#000000" stroke-width=".5" d="M903.5852,-41.607C927.7822,-39.8422 955.8165,-37.7974 982.9043,-35.8218"/>
<polygon fill="#000000" stroke="#000000" stroke-width=".5" points="983.0906,-37.5629 987.95,-35.4537 982.8359,-34.0722 983.0906,-37.5629"/>
</g>
<!-- pyVHDLModel.SyntaxModel.TypeConversion -->
<g id="node3" class="node">
<title>pyVHDLModel.SyntaxModel.TypeConversion</title>
<polygon fill="none" stroke="#000000" stroke-width=".5" points="952,-19 721,-19 721,0 952,0 952,-19"/>
<text text-anchor="middle" x="836.5" y="-7" font-family="Vera Sans, DejaVu Sans, Liberation Sans, Arial, Helvetica, sans" font-size="10.00" fill="#000000">pyVHDLModel.SyntaxModel.TypeConversion</text>
</g>
<!-- pyVHDLModel.SyntaxModel.TypeConversion&#45;&gt;pyGHDL.dom.Expression.TypeConversion -->
<g id="edge1" class="edge">
<title>pyVHDLModel.SyntaxModel.TypeConversion&#45;&gt;pyGHDL.dom.Expression.TypeConversion</title>
<path fill="none" stroke="#000000" stroke-width=".5" d="M952.2761,-17.4999C962.3433,-18.1955 972.5273,-18.8992 982.5834,-19.5941"/>
<polygon fill="#000000" stroke="#000000" stroke-width=".5" points="982.7204,-21.3576 987.8292,-19.9565 982.9617,-17.8659 982.7204,-21.3576"/>
</g>
<!-- pyVHDLModel.ModelEntity -->
<g id="node4" class="node">
<title>pyVHDLModel.ModelEntity</title>
<g id="a_node4"><a xlink:title="``ModelEntity`` is the base class for all classes in the VHDL language model,">
<polygon fill="none" stroke="#000000" stroke-width=".5" points="146,-19 0,-19 0,0 146,0 146,-19"/>
<text text-anchor="middle" x="73" y="-7" font-family="Vera Sans, DejaVu Sans, Liberation Sans, Arial, Helvetica, sans" font-size="10.00" fill="#000000">pyVHDLModel.ModelEntity</text>
</a>
</g>
</g>
<!-- pyVHDLModel.SyntaxModel.BaseExpression -->
<g id="node5" class="node">
<title>pyVHDLModel.SyntaxModel.BaseExpression</title>
<g id="a_node5"><a xlink:title="A ``BaseExpression`` is a base&#45;class for all expressions.">
<polygon fill="none" stroke="#000000" stroke-width=".5" points="413,-19 182,-19 182,0 413,0 413,-19"/>
<text text-anchor="middle" x="297.5" y="-7" font-family="Vera Sans, DejaVu Sans, Liberation Sans, Arial, Helvetica, sans" font-size="10.00" fill="#000000">pyVHDLModel.SyntaxModel.BaseExpression</text>
</a>
</g>
</g>
<!-- pyVHDLModel.ModelEntity&#45;&gt;pyVHDLModel.SyntaxModel.BaseExpression -->
<g id="edge3" class="edge">
<title>pyVHDLModel.ModelEntity&#45;&gt;pyVHDLModel.SyntaxModel.BaseExpression</title>
<path fill="none" stroke="#000000" stroke-width=".5" d="M146.1991,-9.5C155.9857,-9.5 166.2247,-9.5 176.5627,-9.5"/>
<polygon fill="#000000" stroke="#000000" stroke-width=".5" points="176.6441,-11.2501 181.644,-9.5 176.644,-7.7501 176.6441,-11.2501"/>
</g>
<!-- pyVHDLModel.SyntaxModel.UnaryExpression -->
<g id="node6" class="node">
<title>pyVHDLModel.SyntaxModel.UnaryExpression</title>
<g id="a_node6"><a xlink:title="A ``UnaryExpression`` is a base&#45;class for all unary expressions.">
<polygon fill="none" stroke="#000000" stroke-width=".5" points="685,-19 449,-19 449,0 685,0 685,-19"/>
<text text-anchor="middle" x="567" y="-7" font-family="Vera Sans, DejaVu Sans, Liberation Sans, Arial, Helvetica, sans" font-size="10.00" fill="#000000">pyVHDLModel.SyntaxModel.UnaryExpression</text>
</a>
</g>
</g>
<!-- pyVHDLModel.SyntaxModel.BaseExpression&#45;&gt;pyVHDLModel.SyntaxModel.UnaryExpression -->
<g id="edge5" class="edge">
<title>pyVHDLModel.SyntaxModel.BaseExpression&#45;&gt;pyVHDLModel.SyntaxModel.UnaryExpression</title>
<path fill="none" stroke="#000000" stroke-width=".5" d="M413.3563,-9.5C423.3182,-9.5 433.4207,-9.5 443.4401,-9.5"/>
<polygon fill="#000000" stroke="#000000" stroke-width=".5" points="443.6709,-11.2501 448.6708,-9.5 443.6708,-7.7501 443.6709,-11.2501"/>
</g>
<!-- pyVHDLModel.SyntaxModel.UnaryExpression&#45;&gt;pyVHDLModel.SyntaxModel.TypeConversion -->
<g id="edge4" class="edge">
<title>pyVHDLModel.SyntaxModel.UnaryExpression&#45;&gt;pyVHDLModel.SyntaxModel.TypeConversion</title>
<path fill="none" stroke="#000000" stroke-width=".5" d="M685.2066,-9.5C695.416,-9.5 705.754,-9.5 715.9814,-9.5"/>
<polygon fill="#000000" stroke="#000000" stroke-width=".5" points="715.9922,-11.2501 720.9922,-9.5 715.9921,-7.7501 715.9922,-11.2501"/>
</g>
</g>
</svg>
