<?xml version="1.0" encoding="UTF-8" standalone="no"?>
<!DOCTYPE svg PUBLIC "-//W3C//DTD SVG 1.1//EN"
 "http://www.w3.org/Graphics/SVG/1.1/DTD/svg11.dtd">
<!-- Generated by graphviz version 2.40.1 (20161225.0304)
 -->
<!-- Title: inheritanceea6b871de0 Pages: 1 -->
<svg width="576pt" height="52pt"
 viewBox="0.00 0.00 576.00 51.99" xmlns="http://www.w3.org/2000/svg" xmlns:xlink="http://www.w3.org/1999/xlink">
<g id="graph0" class="graph" transform="scale(.8124 .8124) rotate(0) translate(4 60)">
<title>inheritanceea6b871de0</title>
<polygon fill="#ffffff" stroke="transparent" points="-4,4 -4,-60 705,-60 705,4 -4,4"/>
<!-- pyGHDL.dom.DOMMixin -->
<g id="node1" class="node">
<title>pyGHDL.dom.DOMMixin</title>
<g id="a_node1"><a xlink:href="../pyGHDL.dom.html#pyGHDL.dom.DOMMixin" xlink:title="pyGHDL.dom.DOMMixin" target="_top">
<polygon fill="none" stroke="#000000" stroke-width=".5" points="405.5,-56 271.5,-56 271.5,-37 405.5,-37 405.5,-56"/>
<text text-anchor="middle" x="338.5" y="-44" font-family="Vera Sans, DejaVu Sans, Liberation Sans, Arial, Helvetica, sans" font-size="10.00" fill="#000000">pyGHDL.dom.DOMMixin</text>
</a>
</g>
</g>
<!-- pyGHDL.dom.Names.ParenthesisName -->
<g id="node2" class="node">
<title>pyGHDL.dom.Names.ParenthesisName</title>
<g id="a_node2"><a xlink:href="../pyGHDL/pyGHDL.dom.Names.html#pyGHDL.dom.Names.ParenthesisName" xlink:title="pyGHDL.dom.Names.ParenthesisName" target="_top">
<polygon fill="none" stroke="#000000" stroke-width=".5" points="701,-37 494,-37 494,-18 701,-18 701,-37"/>
<text text-anchor="middle" x="597.5" y="-25" font-family="Vera Sans, DejaVu Sans, Liberation Sans, Arial, Helvetica, sans" font-size="10.00" fill="#000000">pyGHDL.dom.Names.ParenthesisName</text>
</a>
</g>
</g>
<!-- pyGHDL.dom.DOMMixin&#45;&gt;pyGHDL.dom.Names.ParenthesisName -->
<g id="edge2" class="edge">
<title>pyGHDL.dom.DOMMixin&#45;&gt;pyGHDL.dom.Names.ParenthesisName</title>
<path fill="none" stroke="#000000" stroke-width=".5" d="M405.5358,-41.5823C430.793,-39.7295 460.2188,-37.5708 488.3333,-35.5084"/>
<polygon fill="#000000" stroke="#000000" stroke-width=".5" points="488.7078,-37.2357 493.5663,-35.1245 488.4517,-33.7451 488.7078,-37.2357"/>
</g>
<!-- pyVHDLModel.SyntaxModel.ParenthesisName -->
<g id="node3" class="node">
<title>pyVHDLModel.SyntaxModel.ParenthesisName</title>
<polygon fill="none" stroke="#000000" stroke-width=".5" points="458,-19 219,-19 219,0 458,0 458,-19"/>
<text text-anchor="middle" x="338.5" y="-7" font-family="Vera Sans, DejaVu Sans, Liberation Sans, Arial, Helvetica, sans" font-size="10.00" fill="#000000">pyVHDLModel.SyntaxModel.ParenthesisName</text>
</g>
<!-- pyVHDLModel.SyntaxModel.ParenthesisName&#45;&gt;pyGHDL.dom.Names.ParenthesisName -->
<g id="edge1" class="edge">
<title>pyVHDLModel.SyntaxModel.ParenthesisName&#45;&gt;pyGHDL.dom.Names.ParenthesisName</title>
<path fill="none" stroke="#000000" stroke-width=".5" d="M458.1442,-17.815C468.3025,-18.521 478.5421,-19.2327 488.6111,-19.9324"/>
<polygon fill="#000000" stroke="#000000" stroke-width=".5" points="488.7503,-21.6962 493.8597,-20.2972 488.9931,-18.2047 488.7503,-21.6962"/>
</g>
<!-- pyVHDLModel.SyntaxModel.Name -->
<g id="node4" class="node">
<title>pyVHDLModel.SyntaxModel.Name</title>
<g id="a_node4"><a xlink:title="``Name`` is the base class for all *names* in the VHDL language model.">
<polygon fill="none" stroke="#000000" stroke-width=".5" points="183,-19 0,-19 0,0 183,0 183,-19"/>
<text text-anchor="middle" x="91.5" y="-7" font-family="Vera Sans, DejaVu Sans, Liberation Sans, Arial, Helvetica, sans" font-size="10.00" fill="#000000">pyVHDLModel.SyntaxModel.Name</text>
</a>
</g>
</g>
<!-- pyVHDLModel.SyntaxModel.Name&#45;&gt;pyVHDLModel.SyntaxModel.ParenthesisName -->
<g id="edge3" class="edge">
<title>pyVHDLModel.SyntaxModel.Name&#45;&gt;pyVHDLModel.SyntaxModel.ParenthesisName</title>
<path fill="none" stroke="#000000" stroke-width=".5" d="M183.1227,-9.5C193.1515,-9.5 203.4813,-9.5 213.8221,-9.5"/>
<polygon fill="#000000" stroke="#000000" stroke-width=".5" points="213.8982,-11.2501 218.8981,-9.5 213.8981,-7.7501 213.8982,-11.2501"/>
</g>
</g>
</svg>
