<?xml version="1.0" encoding="UTF-8" standalone="no"?>
<!DOCTYPE svg PUBLIC "-//W3C//DTD SVG 1.1//EN"
 "http://www.w3.org/Graphics/SVG/1.1/DTD/svg11.dtd">
<!-- Generated by graphviz version 2.40.1 (20161225.0304)
 -->
<!-- Title: inheritance1f24d9df94 Pages: 1 -->
<svg width="576pt" height="37pt"
 viewBox="0.00 0.00 576.00 37.39" xmlns="http://www.w3.org/2000/svg" xmlns:xlink="http://www.w3.org/1999/xlink">
<g id="graph0" class="graph" transform="scale(.5842 .5842) rotate(0) translate(4 60)">
<title>inheritance1f24d9df94</title>
<polygon fill="#ffffff" stroke="transparent" points="-4,4 -4,-60 982,-60 982,4 -4,4"/>
<!-- pyGHDL.dom.Concurrent.PortAssociationItem -->
<g id="node1" class="node">
<title>pyGHDL.dom.Concurrent.PortAssociationItem</title>
<g id="a_node1"><a xlink:href="../pyGHDL/pyGHDL.dom.Concurrent.html#pyGHDL.dom.Concurrent.PortAssociationItem" xlink:title="pyGHDL.dom.Concurrent.PortAssociationItem" target="_top">
<polygon fill="none" stroke="#000000" stroke-width=".5" points="978,-37 739,-37 739,-18 978,-18 978,-37"/>
<text text-anchor="middle" x="858.5" y="-25" font-family="Vera Sans, DejaVu Sans, Liberation Sans, Arial, Helvetica, sans" font-size="10.00" fill="#000000">pyGHDL.dom.Concurrent.PortAssociationItem</text>
</a>
</g>
</g>
<!-- pyVHDLModel.SyntaxModel.PortAssociationItem -->
<g id="node2" class="node">
<title>pyVHDLModel.SyntaxModel.PortAssociationItem</title>
<polygon fill="none" stroke="#000000" stroke-width=".5" points="703,-56 451,-56 451,-37 703,-37 703,-56"/>
<text text-anchor="middle" x="577" y="-44" font-family="Vera Sans, DejaVu Sans, Liberation Sans, Arial, Helvetica, sans" font-size="10.00" fill="#000000">pyVHDLModel.SyntaxModel.PortAssociationItem</text>
</g>
<!-- pyVHDLModel.SyntaxModel.PortAssociationItem&#45;&gt;pyGHDL.dom.Concurrent.PortAssociationItem -->
<g id="edge1" class="edge">
<title>pyVHDLModel.SyntaxModel.PortAssociationItem&#45;&gt;pyGHDL.dom.Concurrent.PortAssociationItem</title>
<path fill="none" stroke="#000000" stroke-width=".5" d="M703.3401,-37.9726C713.4218,-37.2921 723.6031,-36.6049 733.6743,-35.9252"/>
<polygon fill="#000000" stroke="#000000" stroke-width=".5" points="734.059,-37.6533 738.9297,-35.5705 733.8232,-34.1612 734.059,-37.6533"/>
</g>
<!-- pyGHDL.dom.DOMMixin -->
<g id="node3" class="node">
<title>pyGHDL.dom.DOMMixin</title>
<g id="a_node3"><a xlink:href="../pyGHDL.dom.html#pyGHDL.dom.DOMMixin" xlink:title="pyGHDL.dom.DOMMixin" target="_top">
<polygon fill="none" stroke="#000000" stroke-width=".5" points="644,-19 510,-19 510,0 644,0 644,-19"/>
<text text-anchor="middle" x="577" y="-7" font-family="Vera Sans, DejaVu Sans, Liberation Sans, Arial, Helvetica, sans" font-size="10.00" fill="#000000">pyGHDL.dom.DOMMixin</text>
</a>
</g>
</g>
<!-- pyGHDL.dom.DOMMixin&#45;&gt;pyGHDL.dom.Concurrent.PortAssociationItem -->
<g id="edge2" class="edge">
<title>pyGHDL.dom.DOMMixin&#45;&gt;pyGHDL.dom.Concurrent.PortAssociationItem</title>
<path fill="none" stroke="#000000" stroke-width=".5" d="M644.0686,-13.7886C670.8941,-15.5039 702.6924,-17.5372 733.4747,-19.5055"/>
<polygon fill="#000000" stroke="#000000" stroke-width=".5" points="733.7042,-21.2737 738.8058,-19.8464 733.9277,-17.7808 733.7042,-21.2737"/>
</g>
<!-- pyVHDLModel.ModelEntity -->
<g id="node4" class="node">
<title>pyVHDLModel.ModelEntity</title>
<g id="a_node4"><a xlink:title="``ModelEntity`` is the base class for all classes in the VHDL language model,">
<polygon fill="none" stroke="#000000" stroke-width=".5" points="146,-56 0,-56 0,-37 146,-37 146,-56"/>
<text text-anchor="middle" x="73" y="-44" font-family="Vera Sans, DejaVu Sans, Liberation Sans, Arial, Helvetica, sans" font-size="10.00" fill="#000000">pyVHDLModel.ModelEntity</text>
</a>
</g>
</g>
<!-- pyVHDLModel.SyntaxModel.AssociationItem -->
<g id="node5" class="node">
<title>pyVHDLModel.SyntaxModel.AssociationItem</title>
<polygon fill="none" stroke="#000000" stroke-width=".5" points="415,-56 182,-56 182,-37 415,-37 415,-56"/>
<text text-anchor="middle" x="298.5" y="-44" font-family="Vera Sans, DejaVu Sans, Liberation Sans, Arial, Helvetica, sans" font-size="10.00" fill="#000000">pyVHDLModel.SyntaxModel.AssociationItem</text>
</g>
<!-- pyVHDLModel.ModelEntity&#45;&gt;pyVHDLModel.SyntaxModel.AssociationItem -->
<g id="edge3" class="edge">
<title>pyVHDLModel.ModelEntity&#45;&gt;pyVHDLModel.SyntaxModel.AssociationItem</title>
<path fill="none" stroke="#000000" stroke-width=".5" d="M146.2134,-46.5C156.0495,-46.5 166.3452,-46.5 176.7438,-46.5"/>
<polygon fill="#000000" stroke="#000000" stroke-width=".5" points="176.8552,-48.2501 181.8552,-46.5 176.8552,-44.7501 176.8552,-48.2501"/>
</g>
<!-- pyVHDLModel.SyntaxModel.AssociationItem&#45;&gt;pyVHDLModel.SyntaxModel.PortAssociationItem -->
<g id="edge4" class="edge">
<title>pyVHDLModel.SyntaxModel.AssociationItem&#45;&gt;pyVHDLModel.SyntaxModel.PortAssociationItem</title>
<path fill="none" stroke="#000000" stroke-width=".5" d="M415.3986,-46.5C425.5045,-46.5 435.7718,-46.5 445.9798,-46.5"/>
<polygon fill="#000000" stroke="#000000" stroke-width=".5" points="445.9853,-48.2501 450.9853,-46.5 445.9853,-44.7501 445.9853,-48.2501"/>
</g>
</g>
</svg>
