<?xml version="1.0" encoding="UTF-8" standalone="no"?>
<!DOCTYPE svg PUBLIC "-//W3C//DTD SVG 1.1//EN"
 "http://www.w3.org/Graphics/SVG/1.1/DTD/svg11.dtd">
<!-- Generated by graphviz version 2.40.1 (20161225.0304)
 -->
<!-- Title: inheritance7cf5364aca Pages: 1 -->
<svg width="576pt" height="31pt"
 viewBox="0.00 0.00 576.00 31.03" xmlns="http://www.w3.org/2000/svg" xmlns:xlink="http://www.w3.org/1999/xlink">
<g id="graph0" class="graph" transform="scale(.4848 .4848) rotate(0) translate(4 60)">
<title>inheritance7cf5364aca</title>
<polygon fill="#ffffff" stroke="transparent" points="-4,4 -4,-60 1184,-60 1184,4 -4,4"/>
<!-- pyGHDL.dom.DOMMixin -->
<g id="node1" class="node">
<title>pyGHDL.dom.DOMMixin</title>
<g id="a_node1"><a xlink:href="../pyGHDL.dom.html#pyGHDL.dom.DOMMixin" xlink:title="pyGHDL.dom.DOMMixin" target="_top">
<polygon fill="none" stroke="#000000" stroke-width=".5" points="765,-56 631,-56 631,-37 765,-37 765,-56"/>
<text text-anchor="middle" x="698" y="-44" font-family="Vera Sans, DejaVu Sans, Liberation Sans, Arial, Helvetica, sans" font-size="10.00" fill="#000000">pyGHDL.dom.DOMMixin</text>
</a>
</g>
</g>
<!-- pyGHDL.dom.InterfaceItem.GenericPackageInterfaceItem -->
<g id="node2" class="node">
<title>pyGHDL.dom.InterfaceItem.GenericPackageInterfaceItem</title>
<g id="a_node2"><a xlink:href="../pyGHDL/pyGHDL.dom.InterfaceItem.html#pyGHDL.dom.InterfaceItem.GenericPackageInterfaceItem" xlink:title="pyGHDL.dom.InterfaceItem.GenericPackageInterfaceItem" target="_top">
<polygon fill="none" stroke="#000000" stroke-width=".5" points="1180,-37 883,-37 883,-18 1180,-18 1180,-37"/>
<text text-anchor="middle" x="1031.5" y="-25" font-family="Vera Sans, DejaVu Sans, Liberation Sans, Arial, Helvetica, sans" font-size="10.00" fill="#000000">pyGHDL.dom.InterfaceItem.GenericPackageInterfaceItem</text>
</a>
</g>
</g>
<!-- pyGHDL.dom.DOMMixin&#45;&gt;pyGHDL.dom.InterfaceItem.GenericPackageInterfaceItem -->
<g id="edge2" class="edge">
<title>pyGHDL.dom.DOMMixin&#45;&gt;pyGHDL.dom.InterfaceItem.GenericPackageInterfaceItem</title>
<path fill="none" stroke="#000000" stroke-width=".5" d="M765.0875,-42.6779C797.5811,-40.8267 838.0496,-38.5212 877.5541,-36.2705"/>
<polygon fill="#000000" stroke="#000000" stroke-width=".5" points="877.9761,-37.9994 882.8685,-35.9678 877.777,-34.5051 877.9761,-37.9994"/>
</g>
<!-- pyVHDLModel.SyntaxModel.GenericPackageInterfaceItem -->
<g id="node3" class="node">
<title>pyVHDLModel.SyntaxModel.GenericPackageInterfaceItem</title>
<polygon fill="none" stroke="#000000" stroke-width=".5" points="847,-19 549,-19 549,0 847,0 847,-19"/>
<text text-anchor="middle" x="698" y="-7" font-family="Vera Sans, DejaVu Sans, Liberation Sans, Arial, Helvetica, sans" font-size="10.00" fill="#000000">pyVHDLModel.SyntaxModel.GenericPackageInterfaceItem</text>
</g>
<!-- pyVHDLModel.SyntaxModel.GenericPackageInterfaceItem&#45;&gt;pyGHDL.dom.InterfaceItem.GenericPackageInterfaceItem -->
<g id="edge1" class="edge">
<title>pyVHDLModel.SyntaxModel.GenericPackageInterfaceItem&#45;&gt;pyGHDL.dom.InterfaceItem.GenericPackageInterfaceItem</title>
<path fill="none" stroke="#000000" stroke-width=".5" d="M847.1921,-17.5523C857.4014,-18.1034 867.6995,-18.6592 877.931,-19.2114"/>
<polygon fill="#000000" stroke="#000000" stroke-width=".5" points="877.8607,-20.9601 882.9477,-19.4822 878.0493,-17.4652 877.8607,-20.9601"/>
</g>
<!-- pyVHDLModel.SyntaxModel.GenericInterfaceItem -->
<g id="node4" class="node">
<title>pyVHDLModel.SyntaxModel.GenericInterfaceItem</title>
<g id="a_node4"><a xlink:title="A ``GenericInterfaceItem`` is a mixin class for all generic interface items.">
<polygon fill="none" stroke="#000000" stroke-width=".5" points="513,-19 256,-19 256,0 513,0 513,-19"/>
<text text-anchor="middle" x="384.5" y="-7" font-family="Vera Sans, DejaVu Sans, Liberation Sans, Arial, Helvetica, sans" font-size="10.00" fill="#000000">pyVHDLModel.SyntaxModel.GenericInterfaceItem</text>
</a>
</g>
</g>
<!-- pyVHDLModel.SyntaxModel.GenericInterfaceItem&#45;&gt;pyVHDLModel.SyntaxModel.GenericPackageInterfaceItem -->
<g id="edge4" class="edge">
<title>pyVHDLModel.SyntaxModel.GenericInterfaceItem&#45;&gt;pyVHDLModel.SyntaxModel.GenericPackageInterfaceItem</title>
<path fill="none" stroke="#000000" stroke-width=".5" d="M513.3696,-9.5C523.4563,-9.5 533.7022,-9.5 543.9329,-9.5"/>
<polygon fill="#000000" stroke="#000000" stroke-width=".5" points="543.9533,-11.2501 548.9532,-9.5 543.9532,-7.7501 543.9533,-11.2501"/>
</g>
<!-- pyVHDLModel.SyntaxModel.InterfaceItem -->
<g id="node5" class="node">
<title>pyVHDLModel.SyntaxModel.InterfaceItem</title>
<g id="a_node5"><a xlink:title="An ``InterfaceItem`` is a base&#45;class for all mixin&#45;classes for all interface">
<polygon fill="none" stroke="#000000" stroke-width=".5" points="220,-19 0,-19 0,0 220,0 220,-19"/>
<text text-anchor="middle" x="110" y="-7" font-family="Vera Sans, DejaVu Sans, Liberation Sans, Arial, Helvetica, sans" font-size="10.00" fill="#000000">pyVHDLModel.SyntaxModel.InterfaceItem</text>
</a>
</g>
</g>
<!-- pyVHDLModel.SyntaxModel.InterfaceItem&#45;&gt;pyVHDLModel.SyntaxModel.GenericInterfaceItem -->
<g id="edge3" class="edge">
<title>pyVHDLModel.SyntaxModel.InterfaceItem&#45;&gt;pyVHDLModel.SyntaxModel.GenericInterfaceItem</title>
<path fill="none" stroke="#000000" stroke-width=".5" d="M220.068,-9.5C230.1943,-9.5 240.5263,-9.5 250.8313,-9.5"/>
<polygon fill="#000000" stroke="#000000" stroke-width=".5" points="250.887,-11.2501 255.8869,-9.5 250.8869,-7.7501 250.887,-11.2501"/>
</g>
</g>
</svg>
