<?xml version="1.0" encoding="UTF-8" standalone="no"?>
<!DOCTYPE svg PUBLIC "-//W3C//DTD SVG 1.1//EN"
 "http://www.w3.org/Graphics/SVG/1.1/DTD/svg11.dtd">
<!-- Generated by graphviz version 2.40.1 (20161225.0304)
 -->
<!-- Title: inheritance909d742d7b Pages: 1 -->
<svg width="576pt" height="41pt"
 viewBox="0.00 0.00 576.00 41.26" xmlns="http://www.w3.org/2000/svg" xmlns:xlink="http://www.w3.org/1999/xlink">
<g id="graph0" class="graph" transform="scale(.4126 .4126) rotate(0) translate(4 96)">
<title>inheritance909d742d7b</title>
<polygon fill="#ffffff" stroke="transparent" points="-4,4 -4,-96 1392,-96 1392,4 -4,4"/>
<!-- pyGHDL.dom.Concurrent.ConcurrentAssertStatement -->
<g id="node1" class="node">
<title>pyGHDL.dom.Concurrent.ConcurrentAssertStatement</title>
<g id="a_node1"><a xlink:href="../pyGHDL/pyGHDL.dom.Concurrent.html#pyGHDL.dom.Concurrent.ConcurrentAssertStatement" xlink:title="pyGHDL.dom.Concurrent.ConcurrentAssertStatement" target="_top">
<polygon fill="none" stroke="#000000" stroke-width=".5" points="1388,-37 1113,-37 1113,-18 1388,-18 1388,-37"/>
<text text-anchor="middle" x="1250.5" y="-25" font-family="Vera Sans, DejaVu Sans, Liberation Sans, Arial, Helvetica, sans" font-size="10.00" fill="#000000">pyGHDL.dom.Concurrent.ConcurrentAssertStatement</text>
</a>
</g>
</g>
<!-- pyVHDLModel.SyntaxModel.ConcurrentAssertStatement -->
<g id="node2" class="node">
<title>pyVHDLModel.SyntaxModel.ConcurrentAssertStatement</title>
<polygon fill="none" stroke="#000000" stroke-width=".5" points="1077,-56 788,-56 788,-37 1077,-37 1077,-56"/>
<text text-anchor="middle" x="932.5" y="-44" font-family="Vera Sans, DejaVu Sans, Liberation Sans, Arial, Helvetica, sans" font-size="10.00" fill="#000000">pyVHDLModel.SyntaxModel.ConcurrentAssertStatement</text>
</g>
<!-- pyVHDLModel.SyntaxModel.ConcurrentAssertStatement&#45;&gt;pyGHDL.dom.Concurrent.ConcurrentAssertStatement -->
<g id="edge1" class="edge">
<title>pyVHDLModel.SyntaxModel.ConcurrentAssertStatement&#45;&gt;pyGHDL.dom.Concurrent.ConcurrentAssertStatement</title>
<path fill="none" stroke="#000000" stroke-width=".5" d="M1077.0772,-37.8617C1087.1368,-37.2607 1097.2741,-36.655 1107.3261,-36.0544"/>
<polygon fill="#000000" stroke="#000000" stroke-width=".5" points="1107.6873,-37.786 1112.574,-35.7409 1107.4785,-34.2923 1107.6873,-37.786"/>
</g>
<!-- pyGHDL.dom.DOMMixin -->
<g id="node3" class="node">
<title>pyGHDL.dom.DOMMixin</title>
<g id="a_node3"><a xlink:href="../pyGHDL.dom.html#pyGHDL.dom.DOMMixin" xlink:title="pyGHDL.dom.DOMMixin" target="_top">
<polygon fill="none" stroke="#000000" stroke-width=".5" points="999.5,-19 865.5,-19 865.5,0 999.5,0 999.5,-19"/>
<text text-anchor="middle" x="932.5" y="-7" font-family="Vera Sans, DejaVu Sans, Liberation Sans, Arial, Helvetica, sans" font-size="10.00" fill="#000000">pyGHDL.dom.DOMMixin</text>
</a>
</g>
</g>
<!-- pyGHDL.dom.DOMMixin&#45;&gt;pyGHDL.dom.Concurrent.ConcurrentAssertStatement -->
<g id="edge2" class="edge">
<title>pyGHDL.dom.DOMMixin&#45;&gt;pyGHDL.dom.Concurrent.ConcurrentAssertStatement</title>
<path fill="none" stroke="#000000" stroke-width=".5" d="M999.551,-13.2953C1031.116,-15.082 1070.0472,-17.2857 1107.7471,-19.4196"/>
<polygon fill="#000000" stroke="#000000" stroke-width=".5" points="1107.7259,-21.1712 1112.8168,-19.7066 1107.9238,-17.6768 1107.7259,-21.1712"/>
</g>
<!-- pyVHDLModel.LabeledEntity -->
<g id="node4" class="node">
<title>pyVHDLModel.LabeledEntity</title>
<g id="a_node4"><a xlink:title="A ``LabeledEntity`` is a mixin class for all VHDL entities that can have">
<polygon fill="none" stroke="#000000" stroke-width=".5" points="155,-92 0,-92 0,-73 155,-73 155,-92"/>
<text text-anchor="middle" x="77.5" y="-80" font-family="Vera Sans, DejaVu Sans, Liberation Sans, Arial, Helvetica, sans" font-size="10.00" fill="#000000">pyVHDLModel.LabeledEntity</text>
</a>
</g>
</g>
<!-- pyVHDLModel.SyntaxModel.Statement -->
<g id="node8" class="node">
<title>pyVHDLModel.SyntaxModel.Statement</title>
<polygon fill="none" stroke="#000000" stroke-width=".5" points="425,-74 220,-74 220,-55 425,-55 425,-74"/>
<text text-anchor="middle" x="322.5" y="-62" font-family="Vera Sans, DejaVu Sans, Liberation Sans, Arial, Helvetica, sans" font-size="10.00" fill="#000000">pyVHDLModel.SyntaxModel.Statement</text>
</g>
<!-- pyVHDLModel.LabeledEntity&#45;&gt;pyVHDLModel.SyntaxModel.Statement -->
<g id="edge8" class="edge">
<title>pyVHDLModel.LabeledEntity&#45;&gt;pyVHDLModel.SyntaxModel.Statement</title>
<path fill="none" stroke="#000000" stroke-width=".5" d="M155.0195,-76.8047C174.0175,-75.4089 194.6916,-73.89 214.8236,-72.4109"/>
<polygon fill="#000000" stroke="#000000" stroke-width=".5" points="215.0706,-74.1476 219.9289,-72.0358 214.814,-70.657 215.0706,-74.1476"/>
</g>
<!-- pyVHDLModel.ModelEntity -->
<g id="node5" class="node">
<title>pyVHDLModel.ModelEntity</title>
<g id="a_node5"><a xlink:title="``ModelEntity`` is the base class for all classes in the VHDL language model,">
<polygon fill="none" stroke="#000000" stroke-width=".5" points="150.5,-55 4.5,-55 4.5,-36 150.5,-36 150.5,-55"/>
<text text-anchor="middle" x="77.5" y="-43" font-family="Vera Sans, DejaVu Sans, Liberation Sans, Arial, Helvetica, sans" font-size="10.00" fill="#000000">pyVHDLModel.ModelEntity</text>
</a>
</g>
</g>
<!-- pyVHDLModel.ModelEntity&#45;&gt;pyVHDLModel.SyntaxModel.Statement -->
<g id="edge7" class="edge">
<title>pyVHDLModel.ModelEntity&#45;&gt;pyVHDLModel.SyntaxModel.Statement</title>
<path fill="none" stroke="#000000" stroke-width=".5" d="M150.6762,-51.1749C170.779,-52.7339 193.0092,-54.4579 214.6233,-56.1341"/>
<polygon fill="#000000" stroke="#000000" stroke-width=".5" points="214.688,-57.8942 219.8083,-56.5362 214.9586,-54.4047 214.688,-57.8942"/>
</g>
<!-- pyVHDLModel.SyntaxModel.ConcurrentStatement -->
<g id="node6" class="node">
<title>pyVHDLModel.SyntaxModel.ConcurrentStatement</title>
<g id="a_node6"><a xlink:title="A ``ConcurrentStatement`` is a base&#45;class for all concurrent statements.">
<polygon fill="none" stroke="#000000" stroke-width=".5" points="750,-74 492,-74 492,-55 750,-55 750,-74"/>
<text text-anchor="middle" x="621" y="-62" font-family="Vera Sans, DejaVu Sans, Liberation Sans, Arial, Helvetica, sans" font-size="10.00" fill="#000000">pyVHDLModel.SyntaxModel.ConcurrentStatement</text>
</a>
</g>
</g>
<!-- pyVHDLModel.SyntaxModel.ConcurrentStatement&#45;&gt;pyVHDLModel.SyntaxModel.ConcurrentAssertStatement -->
<g id="edge3" class="edge">
<title>pyVHDLModel.SyntaxModel.ConcurrentStatement&#45;&gt;pyVHDLModel.SyntaxModel.ConcurrentAssertStatement</title>
<path fill="none" stroke="#000000" stroke-width=".5" d="M750.3979,-57.0228C761.028,-56.4085 771.8268,-55.7845 782.5884,-55.1626"/>
<polygon fill="#000000" stroke="#000000" stroke-width=".5" points="782.9768,-56.8932 787.8674,-54.8576 782.7748,-53.399 782.9768,-56.8932"/>
</g>
<!-- pyVHDLModel.SyntaxModel.MixinAssertStatement -->
<g id="node7" class="node">
<title>pyVHDLModel.SyntaxModel.MixinAssertStatement</title>
<g id="a_node7"><a xlink:title="A ``MixinAssertStatement`` is a mixin&#45;class for all assert statements.">
<polygon fill="none" stroke="#000000" stroke-width=".5" points="752,-37 490,-37 490,-18 752,-18 752,-37"/>
<text text-anchor="middle" x="621" y="-25" font-family="Vera Sans, DejaVu Sans, Liberation Sans, Arial, Helvetica, sans" font-size="10.00" fill="#000000">pyVHDLModel.SyntaxModel.MixinAssertStatement</text>
</a>
</g>
</g>
<!-- pyVHDLModel.SyntaxModel.MixinAssertStatement&#45;&gt;pyVHDLModel.SyntaxModel.ConcurrentAssertStatement -->
<g id="edge4" class="edge">
<title>pyVHDLModel.SyntaxModel.MixinAssertStatement&#45;&gt;pyVHDLModel.SyntaxModel.ConcurrentAssertStatement</title>
<path fill="none" stroke="#000000" stroke-width=".5" d="M752.2012,-35.5026C762.3464,-36.1214 772.634,-36.7489 782.8862,-37.3743"/>
<polygon fill="#000000" stroke="#000000" stroke-width=".5" points="782.8182,-39.1233 787.9155,-37.681 783.0313,-35.6298 782.8182,-39.1233"/>
</g>
<!-- pyVHDLModel.SyntaxModel.Statement&#45;&gt;pyVHDLModel.SyntaxModel.ConcurrentStatement -->
<g id="edge5" class="edge">
<title>pyVHDLModel.SyntaxModel.Statement&#45;&gt;pyVHDLModel.SyntaxModel.ConcurrentStatement</title>
<path fill="none" stroke="#000000" stroke-width=".5" d="M425.2268,-64.5C445.0489,-64.5 466.0876,-64.5 486.7396,-64.5"/>
<polygon fill="#000000" stroke="#000000" stroke-width=".5" points="486.9808,-66.2501 491.9808,-64.5 486.9807,-62.7501 486.9808,-66.2501"/>
</g>
<!-- pyVHDLModel.SyntaxModel.MixinReportStatement -->
<g id="node9" class="node">
<title>pyVHDLModel.SyntaxModel.MixinReportStatement</title>
<g id="a_node9"><a xlink:title="A ``MixinReportStatement`` is a mixin&#45;class for all report and assert statements.">
<polygon fill="none" stroke="#000000" stroke-width=".5" points="454,-37 191,-37 191,-18 454,-18 454,-37"/>
<text text-anchor="middle" x="322.5" y="-25" font-family="Vera Sans, DejaVu Sans, Liberation Sans, Arial, Helvetica, sans" font-size="10.00" fill="#000000">pyVHDLModel.SyntaxModel.MixinReportStatement</text>
</a>
</g>
</g>
<!-- pyVHDLModel.SyntaxModel.MixinReportStatement&#45;&gt;pyVHDLModel.SyntaxModel.MixinAssertStatement -->
<g id="edge6" class="edge">
<title>pyVHDLModel.SyntaxModel.MixinReportStatement&#45;&gt;pyVHDLModel.SyntaxModel.MixinAssertStatement</title>
<path fill="none" stroke="#000000" stroke-width=".5" d="M454.2953,-27.5C464.2701,-27.5 474.3503,-27.5 484.3544,-27.5"/>
<polygon fill="#000000" stroke="#000000" stroke-width=".5" points="484.5781,-29.2501 489.5781,-27.5 484.578,-25.7501 484.5781,-29.2501"/>
</g>
</g>
</svg>
