<?xml version="1.0" encoding="UTF-8" standalone="no"?>
<!DOCTYPE svg PUBLIC "-//W3C//DTD SVG 1.1//EN"
 "http://www.w3.org/Graphics/SVG/1.1/DTD/svg11.dtd">
<!-- Generated by graphviz version 2.40.1 (20161225.0304)
 -->
<!-- Title: inheritancea563ad0ac9 Pages: 1 -->
<svg width="576pt" height="55pt"
 viewBox="0.00 0.00 576.00 55.30" xmlns="http://www.w3.org/2000/svg" xmlns:xlink="http://www.w3.org/1999/xlink">
<g id="graph0" class="graph" transform="scale(.4608 .4608) rotate(0) translate(4 116)">
<title>inheritancea563ad0ac9</title>
<polygon fill="#ffffff" stroke="transparent" points="-4,4 -4,-116 1246,-116 1246,4 -4,4"/>
<!-- pyGHDL.dom.Concurrent.ProcessStatement -->
<g id="node1" class="node">
<title>pyGHDL.dom.Concurrent.ProcessStatement</title>
<g id="a_node1"><a xlink:href="../pyGHDL/pyGHDL.dom.Concurrent.html#pyGHDL.dom.Concurrent.ProcessStatement" xlink:title="pyGHDL.dom.Concurrent.ProcessStatement" target="_top">
<polygon fill="none" stroke="#000000" stroke-width=".5" points="1242,-37 1013,-37 1013,-18 1242,-18 1242,-37"/>
<text text-anchor="middle" x="1127.5" y="-25" font-family="Vera Sans, DejaVu Sans, Liberation Sans, Arial, Helvetica, sans" font-size="10.00" fill="#000000">pyGHDL.dom.Concurrent.ProcessStatement</text>
</a>
</g>
</g>
<!-- pyVHDLModel.SyntaxModel.ProcessStatement -->
<g id="node2" class="node">
<title>pyVHDLModel.SyntaxModel.ProcessStatement</title>
<polygon fill="none" stroke="#000000" stroke-width=".5" points="977,-56 735,-56 735,-37 977,-37 977,-56"/>
<text text-anchor="middle" x="856" y="-44" font-family="Vera Sans, DejaVu Sans, Liberation Sans, Arial, Helvetica, sans" font-size="10.00" fill="#000000">pyVHDLModel.SyntaxModel.ProcessStatement</text>
</g>
<!-- pyVHDLModel.SyntaxModel.ProcessStatement&#45;&gt;pyGHDL.dom.Concurrent.ProcessStatement -->
<g id="edge1" class="edge">
<title>pyVHDLModel.SyntaxModel.ProcessStatement&#45;&gt;pyGHDL.dom.Concurrent.ProcessStatement</title>
<path fill="none" stroke="#000000" stroke-width=".5" d="M977.0605,-38.028C987.2683,-37.3136 997.5881,-36.5914 1007.7856,-35.8778"/>
<polygon fill="#000000" stroke="#000000" stroke-width=".5" points="1007.9151,-37.6231 1012.7807,-35.5282 1007.6707,-34.1317 1007.9151,-37.6231"/>
</g>
<!-- pyGHDL.dom.DOMMixin -->
<g id="node3" class="node">
<title>pyGHDL.dom.DOMMixin</title>
<g id="a_node3"><a xlink:href="../pyGHDL.dom.html#pyGHDL.dom.DOMMixin" xlink:title="pyGHDL.dom.DOMMixin" target="_top">
<polygon fill="none" stroke="#000000" stroke-width=".5" points="923,-19 789,-19 789,0 923,0 923,-19"/>
<text text-anchor="middle" x="856" y="-7" font-family="Vera Sans, DejaVu Sans, Liberation Sans, Arial, Helvetica, sans" font-size="10.00" fill="#000000">pyGHDL.dom.DOMMixin</text>
</a>
</g>
</g>
<!-- pyGHDL.dom.DOMMixin&#45;&gt;pyGHDL.dom.Concurrent.ProcessStatement -->
<g id="edge2" class="edge">
<title>pyGHDL.dom.DOMMixin&#45;&gt;pyGHDL.dom.Concurrent.ProcessStatement</title>
<path fill="none" stroke="#000000" stroke-width=".5" d="M923.1124,-13.9494C948.7186,-15.6471 978.7463,-17.6379 1007.7817,-19.5629"/>
<polygon fill="#000000" stroke="#000000" stroke-width=".5" points="1007.7051,-21.3115 1012.8099,-19.8962 1007.9367,-17.8192 1007.7051,-21.3115"/>
</g>
<!-- pyVHDLModel.LabeledEntity -->
<g id="node4" class="node">
<title>pyVHDLModel.LabeledEntity</title>
<g id="a_node4"><a xlink:title="A ``LabeledEntity`` is a mixin class for all VHDL entities that can have">
<polygon fill="none" stroke="#000000" stroke-width=".5" points="155,-112 0,-112 0,-93 155,-93 155,-112"/>
<text text-anchor="middle" x="77.5" y="-100" font-family="Vera Sans, DejaVu Sans, Liberation Sans, Arial, Helvetica, sans" font-size="10.00" fill="#000000">pyVHDLModel.LabeledEntity</text>
</a>
</g>
</g>
<!-- pyVHDLModel.SyntaxModel.Statement -->
<g id="node7" class="node">
<title>pyVHDLModel.SyntaxModel.Statement</title>
<polygon fill="none" stroke="#000000" stroke-width=".5" points="396,-93 191,-93 191,-74 396,-74 396,-93"/>
<text text-anchor="middle" x="293.5" y="-81" font-family="Vera Sans, DejaVu Sans, Liberation Sans, Arial, Helvetica, sans" font-size="10.00" fill="#000000">pyVHDLModel.SyntaxModel.Statement</text>
</g>
<!-- pyVHDLModel.LabeledEntity&#45;&gt;pyVHDLModel.SyntaxModel.Statement -->
<g id="edge8" class="edge">
<title>pyVHDLModel.LabeledEntity&#45;&gt;pyVHDLModel.SyntaxModel.Statement</title>
<path fill="none" stroke="#000000" stroke-width=".5" d="M155.1758,-95.6674C165.154,-94.7897 175.5079,-93.8789 185.8575,-92.9686"/>
<polygon fill="#000000" stroke="#000000" stroke-width=".5" points="186.1088,-94.7033 190.9362,-92.5218 185.802,-91.2168 186.1088,-94.7033"/>
</g>
<!-- pyVHDLModel.ModelEntity -->
<g id="node5" class="node">
<title>pyVHDLModel.ModelEntity</title>
<g id="a_node5"><a xlink:title="``ModelEntity`` is the base class for all classes in the VHDL language model,">
<polygon fill="none" stroke="#000000" stroke-width=".5" points="150.5,-75 4.5,-75 4.5,-56 150.5,-56 150.5,-75"/>
<text text-anchor="middle" x="77.5" y="-63" font-family="Vera Sans, DejaVu Sans, Liberation Sans, Arial, Helvetica, sans" font-size="10.00" fill="#000000">pyVHDLModel.ModelEntity</text>
</a>
</g>
</g>
<!-- pyVHDLModel.ModelEntity&#45;&gt;pyVHDLModel.SyntaxModel.Statement -->
<g id="edge7" class="edge">
<title>pyVHDLModel.ModelEntity&#45;&gt;pyVHDLModel.SyntaxModel.Statement</title>
<path fill="none" stroke="#000000" stroke-width=".5" d="M150.6277,-71.594C161.9793,-72.5399 173.9067,-73.5339 185.8288,-74.5274"/>
<polygon fill="#000000" stroke="#000000" stroke-width=".5" points="185.8081,-76.2817 190.9362,-74.953 186.0988,-72.7937 185.8081,-76.2817"/>
</g>
<!-- pyVHDLModel.SyntaxModel.ConcurrentStatement -->
<g id="node6" class="node">
<title>pyVHDLModel.SyntaxModel.ConcurrentStatement</title>
<g id="a_node6"><a xlink:title="A ``ConcurrentStatement`` is a base&#45;class for all concurrent statements.">
<polygon fill="none" stroke="#000000" stroke-width=".5" points="694.5,-93 436.5,-93 436.5,-74 694.5,-74 694.5,-93"/>
<text text-anchor="middle" x="565.5" y="-81" font-family="Vera Sans, DejaVu Sans, Liberation Sans, Arial, Helvetica, sans" font-size="10.00" fill="#000000">pyVHDLModel.SyntaxModel.ConcurrentStatement</text>
</a>
</g>
</g>
<!-- pyVHDLModel.SyntaxModel.ConcurrentStatement&#45;&gt;pyVHDLModel.SyntaxModel.ProcessStatement -->
<g id="edge4" class="edge">
<title>pyVHDLModel.SyntaxModel.ConcurrentStatement&#45;&gt;pyVHDLModel.SyntaxModel.ProcessStatement</title>
<path fill="none" stroke="#000000" stroke-width=".5" d="M640.311,-73.9716C681.9087,-68.6734 733.6765,-62.0799 776.0685,-56.6806"/>
<polygon fill="#000000" stroke="#000000" stroke-width=".5" points="776.4517,-58.396 781.1905,-56.0282 776.0094,-54.9241 776.4517,-58.396"/>
</g>
<!-- pyVHDLModel.SyntaxModel.Statement&#45;&gt;pyVHDLModel.SyntaxModel.ConcurrentStatement -->
<g id="edge3" class="edge">
<title>pyVHDLModel.SyntaxModel.Statement&#45;&gt;pyVHDLModel.SyntaxModel.ConcurrentStatement</title>
<path fill="none" stroke="#000000" stroke-width=".5" d="M396.3315,-83.5C407.7838,-83.5 419.5703,-83.5 431.3384,-83.5"/>
<polygon fill="#000000" stroke="#000000" stroke-width=".5" points="431.3798,-85.2501 436.3798,-83.5 431.3797,-81.7501 431.3798,-85.2501"/>
</g>
<!-- pyVHDLModel.SyntaxModel.SequentialDeclarations -->
<g id="node8" class="node">
<title>pyVHDLModel.SyntaxModel.SequentialDeclarations</title>
<polygon fill="none" stroke="#000000" stroke-width=".5" points="699,-56 432,-56 432,-37 699,-37 699,-56"/>
<text text-anchor="middle" x="565.5" y="-44" font-family="Vera Sans, DejaVu Sans, Liberation Sans, Arial, Helvetica, sans" font-size="10.00" fill="#000000">pyVHDLModel.SyntaxModel.SequentialDeclarations</text>
</g>
<!-- pyVHDLModel.SyntaxModel.SequentialDeclarations&#45;&gt;pyVHDLModel.SyntaxModel.ProcessStatement -->
<g id="edge5" class="edge">
<title>pyVHDLModel.SyntaxModel.SequentialDeclarations&#45;&gt;pyVHDLModel.SyntaxModel.ProcessStatement</title>
<path fill="none" stroke="#000000" stroke-width=".5" d="M699.2711,-46.5C709.4157,-46.5 719.6354,-46.5 729.7306,-46.5"/>
<polygon fill="#000000" stroke="#000000" stroke-width=".5" points="729.9974,-48.2501 734.9973,-46.5 729.9973,-44.7501 729.9974,-48.2501"/>
</g>
<!-- pyVHDLModel.SyntaxModel.SequentialStatements -->
<g id="node9" class="node">
<title>pyVHDLModel.SyntaxModel.SequentialStatements</title>
<polygon fill="none" stroke="#000000" stroke-width=".5" points="696.5,-19 434.5,-19 434.5,0 696.5,0 696.5,-19"/>
<text text-anchor="middle" x="565.5" y="-7" font-family="Vera Sans, DejaVu Sans, Liberation Sans, Arial, Helvetica, sans" font-size="10.00" fill="#000000">pyVHDLModel.SyntaxModel.SequentialStatements</text>
</g>
<!-- pyVHDLModel.SyntaxModel.SequentialStatements&#45;&gt;pyVHDLModel.SyntaxModel.ProcessStatement -->
<g id="edge6" class="edge">
<title>pyVHDLModel.SyntaxModel.SequentialStatements&#45;&gt;pyVHDLModel.SyntaxModel.ProcessStatement</title>
<path fill="none" stroke="#000000" stroke-width=".5" d="M640.311,-19.0284C681.9087,-24.3266 733.6765,-30.9201 776.0685,-36.3194"/>
<polygon fill="#000000" stroke="#000000" stroke-width=".5" points="776.0094,-38.0759 781.1905,-36.9718 776.4517,-34.604 776.0094,-38.0759"/>
</g>
</g>
</svg>
