<?xml version="1.0" encoding="UTF-8" standalone="no"?>
<!DOCTYPE svg PUBLIC "-//W3C//DTD SVG 1.1//EN"
 "http://www.w3.org/Graphics/SVG/1.1/DTD/svg11.dtd">
<!-- Generated by graphviz version 2.40.1 (20161225.0304)
 -->
<!-- Title: inheritance4604c22496 Pages: 1 -->
<svg width="576pt" height="49pt"
 viewBox="0.00 0.00 576.00 49.05" xmlns="http://www.w3.org/2000/svg" xmlns:xlink="http://www.w3.org/1999/xlink">
<g id="graph0" class="graph" transform="scale(.5981 .5981) rotate(0) translate(4 78)">
<title>inheritance4604c22496</title>
<polygon fill="#ffffff" stroke="transparent" points="-4,4 -4,-78 959,-78 959,4 -4,4"/>
<!-- pyGHDL.dom.DOMMixin -->
<g id="node1" class="node">
<title>pyGHDL.dom.DOMMixin</title>
<g id="a_node1"><a xlink:href="../pyGHDL.dom.html#pyGHDL.dom.DOMMixin" xlink:title="pyGHDL.dom.DOMMixin" target="_top">
<polygon fill="none" stroke="#000000" stroke-width=".5" points="711,-74 577,-74 577,-55 711,-55 711,-74"/>
<text text-anchor="middle" x="644" y="-62" font-family="Vera Sans, DejaVu Sans, Liberation Sans, Arial, Helvetica, sans" font-size="10.00" fill="#000000">pyGHDL.dom.DOMMixin</text>
</a>
</g>
</g>
<!-- pyGHDL.dom.DesignUnit.Context -->
<g id="node2" class="node">
<title>pyGHDL.dom.DesignUnit.Context</title>
<g id="a_node2"><a xlink:href="../pyGHDL/pyGHDL.dom.DesignUnit.html#pyGHDL.dom.DesignUnit.Context" xlink:title="pyGHDL.dom.DesignUnit.Context" target="_top">
<polygon fill="none" stroke="#000000" stroke-width=".5" points="955,-55 776,-55 776,-36 955,-36 955,-55"/>
<text text-anchor="middle" x="865.5" y="-43" font-family="Vera Sans, DejaVu Sans, Liberation Sans, Arial, Helvetica, sans" font-size="10.00" fill="#000000">pyGHDL.dom.DesignUnit.Context</text>
</a>
</g>
</g>
<!-- pyGHDL.dom.DOMMixin&#45;&gt;pyGHDL.dom.DesignUnit.Context -->
<g id="edge2" class="edge">
<title>pyGHDL.dom.DOMMixin&#45;&gt;pyGHDL.dom.DesignUnit.Context</title>
<path fill="none" stroke="#000000" stroke-width=".5" d="M711.0584,-58.7478C729.8396,-57.1368 750.6173,-55.3545 770.6824,-53.6333"/>
<polygon fill="#000000" stroke="#000000" stroke-width=".5" points="770.9346,-55.3682 775.7667,-53.1972 770.6354,-51.881 770.9346,-55.3682"/>
</g>
<!-- pyVHDLModel.SyntaxModel.Context -->
<g id="node3" class="node">
<title>pyVHDLModel.SyntaxModel.Context</title>
<polygon fill="none" stroke="#000000" stroke-width=".5" points="740,-37 548,-37 548,-18 740,-18 740,-37"/>
<text text-anchor="middle" x="644" y="-25" font-family="Vera Sans, DejaVu Sans, Liberation Sans, Arial, Helvetica, sans" font-size="10.00" fill="#000000">pyVHDLModel.SyntaxModel.Context</text>
</g>
<!-- pyVHDLModel.SyntaxModel.Context&#45;&gt;pyGHDL.dom.DesignUnit.Context -->
<g id="edge1" class="edge">
<title>pyVHDLModel.SyntaxModel.Context&#45;&gt;pyGHDL.dom.DesignUnit.Context</title>
<path fill="none" stroke="#000000" stroke-width=".5" d="M740.1868,-35.3165C750.2283,-36.1325 760.4323,-36.9618 770.461,-37.7767"/>
<polygon fill="#000000" stroke="#000000" stroke-width=".5" points="770.5622,-39.5406 775.6875,-38.2015 770.8457,-36.0521 770.5622,-39.5406"/>
</g>
<!-- pyVHDLModel.DesignUnit -->
<g id="node4" class="node">
<title>pyVHDLModel.DesignUnit</title>
<g id="a_node4"><a xlink:title="A ``DesignUnit`` is a base&#45;class for all design units.">
<polygon fill="none" stroke="#000000" stroke-width=".5" points="330,-37 188,-37 188,-18 330,-18 330,-37"/>
<text text-anchor="middle" x="259" y="-25" font-family="Vera Sans, DejaVu Sans, Liberation Sans, Arial, Helvetica, sans" font-size="10.00" fill="#000000">pyVHDLModel.DesignUnit</text>
</a>
</g>
</g>
<!-- pyVHDLModel.PrimaryUnit -->
<g id="node7" class="node">
<title>pyVHDLModel.PrimaryUnit</title>
<g id="a_node7"><a xlink:title="A ``PrimaryUnit`` is a base&#45;class for all primary units.">
<polygon fill="none" stroke="#000000" stroke-width=".5" points="512,-37 366,-37 366,-18 512,-18 512,-37"/>
<text text-anchor="middle" x="439" y="-25" font-family="Vera Sans, DejaVu Sans, Liberation Sans, Arial, Helvetica, sans" font-size="10.00" fill="#000000">pyVHDLModel.PrimaryUnit</text>
</a>
</g>
</g>
<!-- pyVHDLModel.DesignUnit&#45;&gt;pyVHDLModel.PrimaryUnit -->
<g id="edge5" class="edge">
<title>pyVHDLModel.DesignUnit&#45;&gt;pyVHDLModel.PrimaryUnit</title>
<path fill="none" stroke="#000000" stroke-width=".5" d="M330.1408,-27.5C340.0988,-27.5 350.3794,-27.5 360.4647,-27.5"/>
<polygon fill="#000000" stroke="#000000" stroke-width=".5" points="360.7182,-29.2501 365.7182,-27.5 360.7181,-25.7501 360.7182,-29.2501"/>
</g>
<!-- pyVHDLModel.ModelEntity -->
<g id="node5" class="node">
<title>pyVHDLModel.ModelEntity</title>
<g id="a_node5"><a xlink:title="``ModelEntity`` is the base class for all classes in the VHDL language model,">
<polygon fill="none" stroke="#000000" stroke-width=".5" points="149,-56 3,-56 3,-37 149,-37 149,-56"/>
<text text-anchor="middle" x="76" y="-44" font-family="Vera Sans, DejaVu Sans, Liberation Sans, Arial, Helvetica, sans" font-size="10.00" fill="#000000">pyVHDLModel.ModelEntity</text>
</a>
</g>
</g>
<!-- pyVHDLModel.ModelEntity&#45;&gt;pyVHDLModel.DesignUnit -->
<g id="edge3" class="edge">
<title>pyVHDLModel.ModelEntity&#45;&gt;pyVHDLModel.DesignUnit</title>
<path fill="none" stroke="#000000" stroke-width=".5" d="M149.1154,-38.9088C160.1661,-37.7614 171.59,-36.5754 182.7058,-35.4213"/>
<polygon fill="#000000" stroke="#000000" stroke-width=".5" points="182.9964,-37.1506 187.789,-34.8935 182.6349,-33.6693 182.9964,-37.1506"/>
</g>
<!-- pyVHDLModel.NamedEntity -->
<g id="node6" class="node">
<title>pyVHDLModel.NamedEntity</title>
<g id="a_node6"><a xlink:title="A ``NamedEntity`` is a mixin class for all VHDL entities that have identifiers.">
<polygon fill="none" stroke="#000000" stroke-width=".5" points="152,-19 0,-19 0,0 152,0 152,-19"/>
<text text-anchor="middle" x="76" y="-7" font-family="Vera Sans, DejaVu Sans, Liberation Sans, Arial, Helvetica, sans" font-size="10.00" fill="#000000">pyVHDLModel.NamedEntity</text>
</a>
</g>
</g>
<!-- pyVHDLModel.NamedEntity&#45;&gt;pyVHDLModel.DesignUnit -->
<g id="edge4" class="edge">
<title>pyVHDLModel.NamedEntity&#45;&gt;pyVHDLModel.DesignUnit</title>
<path fill="none" stroke="#000000" stroke-width=".5" d="M152.0187,-16.9772C162.23,-17.9816 172.7064,-19.0121 182.9189,-20.0166"/>
<polygon fill="#000000" stroke="#000000" stroke-width=".5" points="182.7614,-21.7595 187.9087,-20.5074 183.1041,-18.2763 182.7614,-21.7595"/>
</g>
<!-- pyVHDLModel.PrimaryUnit&#45;&gt;pyVHDLModel.SyntaxModel.Context -->
<g id="edge6" class="edge">
<title>pyVHDLModel.PrimaryUnit&#45;&gt;pyVHDLModel.SyntaxModel.Context</title>
<path fill="none" stroke="#000000" stroke-width=".5" d="M512.1415,-27.5C522.122,-27.5 532.508,-27.5 542.8753,-27.5"/>
<polygon fill="#000000" stroke="#000000" stroke-width=".5" points="542.9613,-29.2501 547.9613,-27.5 542.9613,-25.7501 542.9613,-29.2501"/>
</g>
</g>
</svg>
