<?xml version="1.0" encoding="UTF-8" standalone="no"?>
<!DOCTYPE svg PUBLIC "-//W3C//DTD SVG 1.1//EN"
 "http://www.w3.org/Graphics/SVG/1.1/DTD/svg11.dtd">
<!-- Generated by graphviz version 2.40.1 (20161225.0304)
 -->
<!-- Title: inheritance0bb86eb3ac Pages: 1 -->
<svg width="576pt" height="65pt"
 viewBox="0.00 0.00 576.00 64.97" xmlns="http://www.w3.org/2000/svg" xmlns:xlink="http://www.w3.org/1999/xlink">
<g id="graph0" class="graph" transform="scale(.7923 .7923) rotate(0) translate(4 78)">
<title>inheritance0bb86eb3ac</title>
<polygon fill="#ffffff" stroke="transparent" points="-4,4 -4,-78 723,-78 723,4 -4,4"/>
<!-- pyGHDL.dom.DOMMixin -->
<g id="node1" class="node">
<title>pyGHDL.dom.DOMMixin</title>
<g id="a_node1"><a xlink:href="../pyGHDL.dom.html#pyGHDL.dom.DOMMixin" xlink:title="pyGHDL.dom.DOMMixin" target="_top">
<polygon fill="none" stroke="#000000" stroke-width=".5" points="419,-74 285,-74 285,-55 419,-55 419,-74"/>
<text text-anchor="middle" x="352" y="-62" font-family="Vera Sans, DejaVu Sans, Liberation Sans, Arial, Helvetica, sans" font-size="10.00" fill="#000000">pyGHDL.dom.DOMMixin</text>
</a>
</g>
</g>
<!-- pyGHDL.dom.Type.RecordTypeElement -->
<g id="node2" class="node">
<title>pyGHDL.dom.Type.RecordTypeElement</title>
<g id="a_node2"><a xlink:href="../pyGHDL/pyGHDL.dom.Type.html#pyGHDL.dom.Type.RecordTypeElement" xlink:title="pyGHDL.dom.Type.RecordTypeElement" target="_top">
<polygon fill="none" stroke="#000000" stroke-width=".5" points="719,-55 513,-55 513,-36 719,-36 719,-55"/>
<text text-anchor="middle" x="616" y="-43" font-family="Vera Sans, DejaVu Sans, Liberation Sans, Arial, Helvetica, sans" font-size="10.00" fill="#000000">pyGHDL.dom.Type.RecordTypeElement</text>
</a>
</g>
</g>
<!-- pyGHDL.dom.DOMMixin&#45;&gt;pyGHDL.dom.Type.RecordTypeElement -->
<g id="edge2" class="edge">
<title>pyGHDL.dom.DOMMixin&#45;&gt;pyGHDL.dom.Type.RecordTypeElement</title>
<path fill="none" stroke="#000000" stroke-width=".5" d="M419.3014,-59.6563C446.1621,-57.7232 477.7715,-55.4483 507.7002,-53.2943"/>
<polygon fill="#000000" stroke="#000000" stroke-width=".5" points="508.0148,-55.0263 512.8763,-52.9218 507.7635,-51.5353 508.0148,-55.0263"/>
</g>
<!-- pyVHDLModel.SyntaxModel.RecordTypeElement -->
<g id="node3" class="node">
<title>pyVHDLModel.SyntaxModel.RecordTypeElement</title>
<polygon fill="none" stroke="#000000" stroke-width=".5" points="477,-37 227,-37 227,-18 477,-18 477,-37"/>
<text text-anchor="middle" x="352" y="-25" font-family="Vera Sans, DejaVu Sans, Liberation Sans, Arial, Helvetica, sans" font-size="10.00" fill="#000000">pyVHDLModel.SyntaxModel.RecordTypeElement</text>
</g>
<!-- pyVHDLModel.SyntaxModel.RecordTypeElement&#45;&gt;pyGHDL.dom.Type.RecordTypeElement -->
<g id="edge1" class="edge">
<title>pyVHDLModel.SyntaxModel.RecordTypeElement&#45;&gt;pyGHDL.dom.Type.RecordTypeElement</title>
<path fill="none" stroke="#000000" stroke-width=".5" d="M477.0419,-36.0256C487.2561,-36.722 497.5259,-37.4222 507.6059,-38.1095"/>
<polygon fill="#000000" stroke="#000000" stroke-width=".5" points="507.751,-39.8734 512.8585,-38.4676 507.9892,-36.3815 507.751,-39.8734"/>
</g>
<!-- pyVHDLModel.ModelEntity -->
<g id="node4" class="node">
<title>pyVHDLModel.ModelEntity</title>
<g id="a_node4"><a xlink:title="``ModelEntity`` is the base class for all classes in the VHDL language model,">
<polygon fill="none" stroke="#000000" stroke-width=".5" points="168.5,-56 22.5,-56 22.5,-37 168.5,-37 168.5,-56"/>
<text text-anchor="middle" x="95.5" y="-44" font-family="Vera Sans, DejaVu Sans, Liberation Sans, Arial, Helvetica, sans" font-size="10.00" fill="#000000">pyVHDLModel.ModelEntity</text>
</a>
</g>
</g>
<!-- pyVHDLModel.ModelEntity&#45;&gt;pyVHDLModel.SyntaxModel.RecordTypeElement -->
<g id="edge3" class="edge">
<title>pyVHDLModel.ModelEntity&#45;&gt;pyVHDLModel.SyntaxModel.RecordTypeElement</title>
<path fill="none" stroke="#000000" stroke-width=".5" d="M168.6593,-41.0808C185.3074,-39.8476 203.4845,-38.5011 221.7165,-37.1506"/>
<polygon fill="#000000" stroke="#000000" stroke-width=".5" points="222.002,-38.8844 226.8591,-36.7697 221.7434,-35.3939 222.002,-38.8844"/>
</g>
<!-- pyVHDLModel.MultipleNamedEntity -->
<g id="node5" class="node">
<title>pyVHDLModel.MultipleNamedEntity</title>
<g id="a_node5"><a xlink:title="A ``MultipleNamedEntity`` is a mixin class for all VHDL entities that declare">
<polygon fill="none" stroke="#000000" stroke-width=".5" points="191,-19 0,-19 0,0 191,0 191,-19"/>
<text text-anchor="middle" x="95.5" y="-7" font-family="Vera Sans, DejaVu Sans, Liberation Sans, Arial, Helvetica, sans" font-size="10.00" fill="#000000">pyVHDLModel.MultipleNamedEntity</text>
</a>
</g>
</g>
<!-- pyVHDLModel.MultipleNamedEntity&#45;&gt;pyVHDLModel.SyntaxModel.RecordTypeElement -->
<g id="edge4" class="edge">
<title>pyVHDLModel.MultipleNamedEntity&#45;&gt;pyVHDLModel.SyntaxModel.RecordTypeElement</title>
<path fill="none" stroke="#000000" stroke-width=".5" d="M191.0111,-16.2025C201.0483,-16.9069 211.3722,-17.6314 221.7138,-18.3571"/>
<polygon fill="#000000" stroke="#000000" stroke-width=".5" points="221.6806,-20.109 226.7908,-18.7134 221.9256,-16.6176 221.6806,-20.109"/>
</g>
</g>
</svg>
