<?xml version="1.0" encoding="UTF-8" standalone="no"?>
<!DOCTYPE svg PUBLIC "-//W3C//DTD SVG 1.1//EN"
 "http://www.w3.org/Graphics/SVG/1.1/DTD/svg11.dtd">
<!-- Generated by graphviz version 2.40.1 (20161225.0304)
 -->
<!-- Title: inheritance9aabb2511b Pages: 1 -->
<svg width="576pt" height="66pt"
 viewBox="0.00 0.00 576.00 66.31" xmlns="http://www.w3.org/2000/svg" xmlns:xlink="http://www.w3.org/1999/xlink">
<g id="graph0" class="graph" transform="scale(.4251 .4251) rotate(0) translate(4 152)">
<title>inheritance9aabb2511b</title>
<polygon fill="#ffffff" stroke="transparent" points="-4,4 -4,-152 1351,-152 1351,4 -4,4"/>
<!-- pyGHDL.dom.Concurrent.IfGenerateBranch -->
<g id="node1" class="node">
<title>pyGHDL.dom.Concurrent.IfGenerateBranch</title>
<g id="a_node1"><a xlink:href="../pyGHDL/pyGHDL.dom.Concurrent.html#pyGHDL.dom.Concurrent.IfGenerateBranch" xlink:title="pyGHDL.dom.Concurrent.IfGenerateBranch" target="_top">
<polygon fill="none" stroke="#000000" stroke-width=".5" points="1347,-73 1121,-73 1121,-54 1347,-54 1347,-73"/>
<text text-anchor="middle" x="1234" y="-61" font-family="Vera Sans, DejaVu Sans, Liberation Sans, Arial, Helvetica, sans" font-size="10.00" fill="#000000">pyGHDL.dom.Concurrent.IfGenerateBranch</text>
</a>
</g>
</g>
<!-- pyVHDLModel.SyntaxModel.IfGenerateBranch -->
<g id="node2" class="node">
<title>pyVHDLModel.SyntaxModel.IfGenerateBranch</title>
<polygon fill="none" stroke="#000000" stroke-width=".5" points="1085,-73 846,-73 846,-54 1085,-54 1085,-73"/>
<text text-anchor="middle" x="965.5" y="-61" font-family="Vera Sans, DejaVu Sans, Liberation Sans, Arial, Helvetica, sans" font-size="10.00" fill="#000000">pyVHDLModel.SyntaxModel.IfGenerateBranch</text>
</g>
<!-- pyVHDLModel.SyntaxModel.IfGenerateBranch&#45;&gt;pyGHDL.dom.Concurrent.IfGenerateBranch -->
<g id="edge1" class="edge">
<title>pyVHDLModel.SyntaxModel.IfGenerateBranch&#45;&gt;pyGHDL.dom.Concurrent.IfGenerateBranch</title>
<path fill="none" stroke="#000000" stroke-width=".5" d="M1085.2228,-63.5C1095.3451,-63.5 1105.5789,-63.5 1115.6903,-63.5"/>
<polygon fill="#000000" stroke="#000000" stroke-width=".5" points="1115.9655,-65.2501 1120.9655,-63.5 1115.9654,-61.7501 1115.9655,-65.2501"/>
</g>
<!-- pyVHDLModel.ModelEntity -->
<g id="node3" class="node">
<title>pyVHDLModel.ModelEntity</title>
<g id="a_node3"><a xlink:title="``ModelEntity`` is the base class for all classes in the VHDL language model,">
<polygon fill="none" stroke="#000000" stroke-width=".5" points="479.5,-148 333.5,-148 333.5,-129 479.5,-129 479.5,-148"/>
<text text-anchor="middle" x="406.5" y="-136" font-family="Vera Sans, DejaVu Sans, Liberation Sans, Arial, Helvetica, sans" font-size="10.00" fill="#000000">pyVHDLModel.ModelEntity</text>
</a>
</g>
</g>
<!-- pyVHDLModel.SyntaxModel.GenerateBranch -->
<g id="node6" class="node">
<title>pyVHDLModel.SyntaxModel.GenerateBranch</title>
<g id="a_node6"><a xlink:title="A ``GenerateBranch`` is a base&#45;class for all branches in a generate statements.">
<polygon fill="none" stroke="#000000" stroke-width=".5" points="810,-101 577,-101 577,-82 810,-82 810,-101"/>
<text text-anchor="middle" x="693.5" y="-89" font-family="Vera Sans, DejaVu Sans, Liberation Sans, Arial, Helvetica, sans" font-size="10.00" fill="#000000">pyVHDLModel.SyntaxModel.GenerateBranch</text>
</a>
</g>
</g>
<!-- pyVHDLModel.ModelEntity&#45;&gt;pyVHDLModel.SyntaxModel.GenerateBranch -->
<g id="edge2" class="edge">
<title>pyVHDLModel.ModelEntity&#45;&gt;pyVHDLModel.SyntaxModel.GenerateBranch</title>
<path fill="none" stroke="#000000" stroke-width=".5" d="M479.5526,-129.4655C499.511,-126.7952 521.116,-123.7187 541,-120.5 574.6996,-115.045 612.3872,-107.8881 641.8652,-102.0491"/>
<polygon fill="#000000" stroke="#000000" stroke-width=".5" points="642.3333,-103.7404 646.8965,-101.0495 641.6513,-100.3075 642.3333,-103.7404"/>
</g>
<!-- pyVHDLModel.SyntaxModel.ConcurrentDeclarations -->
<g id="node4" class="node">
<title>pyVHDLModel.SyntaxModel.ConcurrentDeclarations</title>
<polygon fill="none" stroke="#000000" stroke-width=".5" points="541,-111 272,-111 272,-92 541,-92 541,-111"/>
<text text-anchor="middle" x="406.5" y="-99" font-family="Vera Sans, DejaVu Sans, Liberation Sans, Arial, Helvetica, sans" font-size="10.00" fill="#000000">pyVHDLModel.SyntaxModel.ConcurrentDeclarations</text>
</g>
<!-- pyVHDLModel.SyntaxModel.ConcurrentDeclarations&#45;&gt;pyVHDLModel.SyntaxModel.GenerateBranch -->
<g id="edge3" class="edge">
<title>pyVHDLModel.SyntaxModel.ConcurrentDeclarations&#45;&gt;pyVHDLModel.SyntaxModel.GenerateBranch</title>
<path fill="none" stroke="#000000" stroke-width=".5" d="M541.1763,-96.8074C551.346,-96.4531 561.5751,-96.0967 571.6581,-95.7454"/>
<polygon fill="#000000" stroke="#000000" stroke-width=".5" points="571.9804,-97.4853 576.9164,-95.5621 571.8585,-93.9874 571.9804,-97.4853"/>
</g>
<!-- pyVHDLModel.SyntaxModel.ConcurrentStatements -->
<g id="node5" class="node">
<title>pyVHDLModel.SyntaxModel.ConcurrentStatements</title>
<polygon fill="none" stroke="#000000" stroke-width=".5" points="538,-74 275,-74 275,-55 538,-55 538,-74"/>
<text text-anchor="middle" x="406.5" y="-62" font-family="Vera Sans, DejaVu Sans, Liberation Sans, Arial, Helvetica, sans" font-size="10.00" fill="#000000">pyVHDLModel.SyntaxModel.ConcurrentStatements</text>
</g>
<!-- pyVHDLModel.SyntaxModel.ConcurrentStatements&#45;&gt;pyVHDLModel.SyntaxModel.GenerateBranch -->
<g id="edge4" class="edge">
<title>pyVHDLModel.SyntaxModel.ConcurrentStatements&#45;&gt;pyVHDLModel.SyntaxModel.GenerateBranch</title>
<path fill="none" stroke="#000000" stroke-width=".5" d="M507.6855,-74.0192C533.4062,-76.4389 561.1187,-79.046 587.0908,-81.4894"/>
<polygon fill="#000000" stroke="#000000" stroke-width=".5" points="587.119,-83.2497 592.2609,-81.9758 587.4468,-79.7651 587.119,-83.2497"/>
</g>
<!-- pyVHDLModel.SyntaxModel.GenerateBranch&#45;&gt;pyVHDLModel.SyntaxModel.IfGenerateBranch -->
<g id="edge5" class="edge">
<title>pyVHDLModel.SyntaxModel.GenerateBranch&#45;&gt;pyVHDLModel.SyntaxModel.IfGenerateBranch</title>
<path fill="none" stroke="#000000" stroke-width=".5" d="M785.9663,-81.9814C812.2443,-79.2763 840.9464,-76.3217 867.5385,-73.5843"/>
<polygon fill="#000000" stroke="#000000" stroke-width=".5" points="868.033,-75.2927 872.8274,-73.0398 867.6745,-71.8111 868.033,-75.2927"/>
</g>
<!-- pyVHDLModel.SyntaxModel.MixinIfBranch -->
<g id="node7" class="node">
<title>pyVHDLModel.SyntaxModel.MixinIfBranch</title>
<g id="a_node7"><a xlink:title="A ``BaseIfBranch`` is a mixin&#45;class for all if&#45;branches.">
<polygon fill="none" stroke="#000000" stroke-width=".5" points="804,-55 583,-55 583,-36 804,-36 804,-55"/>
<text text-anchor="middle" x="693.5" y="-43" font-family="Vera Sans, DejaVu Sans, Liberation Sans, Arial, Helvetica, sans" font-size="10.00" fill="#000000">pyVHDLModel.SyntaxModel.MixinIfBranch</text>
</a>
</g>
</g>
<!-- pyVHDLModel.SyntaxModel.MixinIfBranch&#45;&gt;pyVHDLModel.SyntaxModel.IfGenerateBranch -->
<g id="edge6" class="edge">
<title>pyVHDLModel.SyntaxModel.MixinIfBranch&#45;&gt;pyVHDLModel.SyntaxModel.IfGenerateBranch</title>
<path fill="none" stroke="#000000" stroke-width=".5" d="M804.1328,-52.8213C816.1014,-53.6133 828.3417,-54.4234 840.4651,-55.2256"/>
<polygon fill="#000000" stroke="#000000" stroke-width=".5" points="840.5479,-56.9848 845.6526,-55.5689 840.7791,-53.4925 840.5479,-56.9848"/>
</g>
<!-- pyVHDLModel.SyntaxModel.MixinBranch -->
<g id="node8" class="node">
<title>pyVHDLModel.SyntaxModel.MixinBranch</title>
<g id="a_node8"><a xlink:title="A ``BaseBranch`` is a mixin&#45;class for all statements with branches.">
<polygon fill="none" stroke="#000000" stroke-width=".5" points="225,-56 11,-56 11,-37 225,-37 225,-56"/>
<text text-anchor="middle" x="118" y="-44" font-family="Vera Sans, DejaVu Sans, Liberation Sans, Arial, Helvetica, sans" font-size="10.00" fill="#000000">pyVHDLModel.SyntaxModel.MixinBranch</text>
</a>
</g>
</g>
<!-- pyVHDLModel.SyntaxModel.MixinConditionalBranch -->
<g id="node10" class="node">
<title>pyVHDLModel.SyntaxModel.MixinConditionalBranch</title>
<g id="a_node10"><a xlink:title="A ``BaseBranch`` is a mixin&#45;class for all branch statements with a condition.">
<polygon fill="none" stroke="#000000" stroke-width=".5" points="541,-37 272,-37 272,-18 541,-18 541,-37"/>
<text text-anchor="middle" x="406.5" y="-25" font-family="Vera Sans, DejaVu Sans, Liberation Sans, Arial, Helvetica, sans" font-size="10.00" fill="#000000">pyVHDLModel.SyntaxModel.MixinConditionalBranch</text>
</a>
</g>
</g>
<!-- pyVHDLModel.SyntaxModel.MixinBranch&#45;&gt;pyVHDLModel.SyntaxModel.MixinConditionalBranch -->
<g id="edge7" class="edge">
<title>pyVHDLModel.SyntaxModel.MixinBranch&#45;&gt;pyVHDLModel.SyntaxModel.MixinConditionalBranch</title>
<path fill="none" stroke="#000000" stroke-width=".5" d="M225.0168,-39.4521C238.5847,-38.5585 252.6244,-37.6339 266.6094,-36.7129"/>
<polygon fill="#000000" stroke="#000000" stroke-width=".5" points="266.8842,-38.4487 271.7583,-36.3738 266.6541,-34.9563 266.8842,-38.4487"/>
</g>
<!-- pyVHDLModel.SyntaxModel.MixinConditional -->
<g id="node9" class="node">
<title>pyVHDLModel.SyntaxModel.MixinConditional</title>
<g id="a_node9"><a xlink:title="A ``BaseConditional`` is a mixin&#45;class for all statements with a condition.">
<polygon fill="none" stroke="#000000" stroke-width=".5" points="236,-19 0,-19 0,0 236,0 236,-19"/>
<text text-anchor="middle" x="118" y="-7" font-family="Vera Sans, DejaVu Sans, Liberation Sans, Arial, Helvetica, sans" font-size="10.00" fill="#000000">pyVHDLModel.SyntaxModel.MixinConditional</text>
</a>
</g>
</g>
<!-- pyVHDLModel.SyntaxModel.MixinConditional&#45;&gt;pyVHDLModel.SyntaxModel.MixinConditionalBranch -->
<g id="edge8" class="edge">
<title>pyVHDLModel.SyntaxModel.MixinConditional&#45;&gt;pyVHDLModel.SyntaxModel.MixinConditionalBranch</title>
<path fill="none" stroke="#000000" stroke-width=".5" d="M236.1764,-16.8732C246.2061,-17.499 256.4097,-18.1356 266.5845,-18.7704"/>
<polygon fill="#000000" stroke="#000000" stroke-width=".5" points="266.4769,-20.517 271.5762,-19.0819 266.695,-17.0238 266.4769,-20.517"/>
</g>
<!-- pyVHDLModel.SyntaxModel.MixinConditionalBranch&#45;&gt;pyVHDLModel.SyntaxModel.MixinIfBranch -->
<g id="edge9" class="edge">
<title>pyVHDLModel.SyntaxModel.MixinConditionalBranch&#45;&gt;pyVHDLModel.SyntaxModel.MixinIfBranch</title>
<path fill="none" stroke="#000000" stroke-width=".5" d="M541.1763,-35.9466C553.41,-36.7139 565.7295,-37.4865 577.7775,-38.2421"/>
<polygon fill="#000000" stroke="#000000" stroke-width=".5" points="577.8234,-39.9984 582.9232,-38.5649 578.0426,-36.5052 577.8234,-39.9984"/>
</g>
</g>
</svg>
