<?xml version="1.0" encoding="UTF-8" standalone="no"?>
<!DOCTYPE svg PUBLIC "-//W3C//DTD SVG 1.1//EN"
 "http://www.w3.org/Graphics/SVG/1.1/DTD/svg11.dtd">
<!-- Generated by graphviz version 2.40.1 (20161225.0304)
 -->
<!-- Title: inheritance6041c52f9a Pages: 1 -->
<svg width="576pt" height="43pt"
 viewBox="0.00 0.00 576.00 42.90" xmlns="http://www.w3.org/2000/svg" xmlns:xlink="http://www.w3.org/1999/xlink">
<g id="graph0" class="graph" transform="scale(.5232 .5232) rotate(0) translate(4 78)">
<title>inheritance6041c52f9a</title>
<polygon fill="#ffffff" stroke="transparent" points="-4,4 -4,-78 1097,-78 1097,4 -4,4"/>
<!-- pyGHDL.dom.DOMMixin -->
<g id="node1" class="node">
<title>pyGHDL.dom.DOMMixin</title>
<g id="a_node1"><a xlink:href="../pyGHDL.dom.html#pyGHDL.dom.DOMMixin" xlink:title="pyGHDL.dom.DOMMixin" target="_top">
<polygon fill="none" stroke="#000000" stroke-width=".5" points="820,-74 686,-74 686,-55 820,-55 820,-74"/>
<text text-anchor="middle" x="753" y="-62" font-family="Vera Sans, DejaVu Sans, Liberation Sans, Arial, Helvetica, sans" font-size="10.00" fill="#000000">pyGHDL.dom.DOMMixin</text>
</a>
</g>
</g>
<!-- pyGHDL.dom.Type.IncompleteType -->
<g id="node2" class="node">
<title>pyGHDL.dom.Type.IncompleteType</title>
<g id="a_node2"><a xlink:href="../pyGHDL/pyGHDL.dom.Type.html#pyGHDL.dom.Type.IncompleteType" xlink:title="pyGHDL.dom.Type.IncompleteType" target="_top">
<polygon fill="none" stroke="#000000" stroke-width=".5" points="1093,-55 906,-55 906,-36 1093,-36 1093,-55"/>
<text text-anchor="middle" x="999.5" y="-43" font-family="Vera Sans, DejaVu Sans, Liberation Sans, Arial, Helvetica, sans" font-size="10.00" fill="#000000">pyGHDL.dom.Type.IncompleteType</text>
</a>
</g>
</g>
<!-- pyGHDL.dom.DOMMixin&#45;&gt;pyGHDL.dom.Type.IncompleteType -->
<g id="edge2" class="edge">
<title>pyGHDL.dom.DOMMixin&#45;&gt;pyGHDL.dom.Type.IncompleteType</title>
<path fill="none" stroke="#000000" stroke-width=".5" d="M820.0316,-59.3333C844.8608,-57.4194 873.5641,-55.207 900.6329,-53.1206"/>
<polygon fill="#000000" stroke="#000000" stroke-width=".5" points="900.8162,-54.8617 905.6669,-52.7326 900.5471,-51.3721 900.8162,-54.8617"/>
</g>
<!-- pyVHDLModel.SyntaxModel.AnonymousType -->
<g id="node3" class="node">
<title>pyVHDLModel.SyntaxModel.AnonymousType</title>
<polygon fill="none" stroke="#000000" stroke-width=".5" points="870,-37 636,-37 636,-18 870,-18 870,-37"/>
<text text-anchor="middle" x="753" y="-25" font-family="Vera Sans, DejaVu Sans, Liberation Sans, Arial, Helvetica, sans" font-size="10.00" fill="#000000">pyVHDLModel.SyntaxModel.AnonymousType</text>
</g>
<!-- pyVHDLModel.SyntaxModel.AnonymousType&#45;&gt;pyGHDL.dom.Type.IncompleteType -->
<g id="edge1" class="edge">
<title>pyVHDLModel.SyntaxModel.AnonymousType&#45;&gt;pyGHDL.dom.Type.IncompleteType</title>
<path fill="none" stroke="#000000" stroke-width=".5" d="M870.1138,-36.0519C880.2689,-36.7935 890.4796,-37.5391 900.4693,-38.2686"/>
<polygon fill="#000000" stroke="#000000" stroke-width=".5" points="900.5575,-40.0296 905.6717,-38.6484 900.8125,-36.5389 900.5575,-40.0296"/>
</g>
<!-- pyVHDLModel.ModelEntity -->
<g id="node4" class="node">
<title>pyVHDLModel.ModelEntity</title>
<g id="a_node4"><a xlink:title="``ModelEntity`` is the base class for all classes in the VHDL language model,">
<polygon fill="none" stroke="#000000" stroke-width=".5" points="149,-56 3,-56 3,-37 149,-37 149,-56"/>
<text text-anchor="middle" x="76" y="-44" font-family="Vera Sans, DejaVu Sans, Liberation Sans, Arial, Helvetica, sans" font-size="10.00" fill="#000000">pyVHDLModel.ModelEntity</text>
</a>
</g>
</g>
<!-- pyVHDLModel.SyntaxModel.BaseType -->
<g id="node7" class="node">
<title>pyVHDLModel.SyntaxModel.BaseType</title>
<g id="a_node7"><a xlink:title="``BaseType`` is the base class of all type entities in this model.">
<polygon fill="none" stroke="#000000" stroke-width=".5" points="388,-37 188,-37 188,-18 388,-18 388,-37"/>
<text text-anchor="middle" x="288" y="-25" font-family="Vera Sans, DejaVu Sans, Liberation Sans, Arial, Helvetica, sans" font-size="10.00" fill="#000000">pyVHDLModel.SyntaxModel.BaseType</text>
</a>
</g>
</g>
<!-- pyVHDLModel.ModelEntity&#45;&gt;pyVHDLModel.SyntaxModel.BaseType -->
<g id="edge4" class="edge">
<title>pyVHDLModel.ModelEntity&#45;&gt;pyVHDLModel.SyntaxModel.BaseType</title>
<path fill="none" stroke="#000000" stroke-width=".5" d="M149.2552,-39.9347C160.0491,-38.9673 171.3454,-37.9549 182.632,-36.9434"/>
<polygon fill="#000000" stroke="#000000" stroke-width=".5" points="182.9915,-38.6682 187.8153,-36.4788 182.679,-35.1822 182.9915,-38.6682"/>
</g>
<!-- pyVHDLModel.NamedEntity -->
<g id="node5" class="node">
<title>pyVHDLModel.NamedEntity</title>
<g id="a_node5"><a xlink:title="A ``NamedEntity`` is a mixin class for all VHDL entities that have identifiers.">
<polygon fill="none" stroke="#000000" stroke-width=".5" points="152,-19 0,-19 0,0 152,0 152,-19"/>
<text text-anchor="middle" x="76" y="-7" font-family="Vera Sans, DejaVu Sans, Liberation Sans, Arial, Helvetica, sans" font-size="10.00" fill="#000000">pyVHDLModel.NamedEntity</text>
</a>
</g>
</g>
<!-- pyVHDLModel.NamedEntity&#45;&gt;pyVHDLModel.SyntaxModel.BaseType -->
<g id="edge5" class="edge">
<title>pyVHDLModel.NamedEntity&#45;&gt;pyVHDLModel.SyntaxModel.BaseType</title>
<path fill="none" stroke="#000000" stroke-width=".5" d="M152.2374,-15.973C162.1327,-16.8132 172.4047,-17.6853 182.6683,-18.5567"/>
<polygon fill="#000000" stroke="#000000" stroke-width=".5" points="182.5743,-20.305 187.7045,-18.9843 182.8705,-16.8175 182.5743,-20.305"/>
</g>
<!-- pyVHDLModel.SyntaxModel.Type -->
<g id="node6" class="node">
<title>pyVHDLModel.SyntaxModel.Type</title>
<polygon fill="none" stroke="#000000" stroke-width=".5" points="600,-37 424,-37 424,-18 600,-18 600,-37"/>
<text text-anchor="middle" x="512" y="-25" font-family="Vera Sans, DejaVu Sans, Liberation Sans, Arial, Helvetica, sans" font-size="10.00" fill="#000000">pyVHDLModel.SyntaxModel.Type</text>
</g>
<!-- pyVHDLModel.SyntaxModel.Type&#45;&gt;pyVHDLModel.SyntaxModel.AnonymousType -->
<g id="edge3" class="edge">
<title>pyVHDLModel.SyntaxModel.Type&#45;&gt;pyVHDLModel.SyntaxModel.AnonymousType</title>
<path fill="none" stroke="#000000" stroke-width=".5" d="M600.0295,-27.5C610.0827,-27.5 620.4618,-27.5 630.8571,-27.5"/>
<polygon fill="#000000" stroke="#000000" stroke-width=".5" points="630.9602,-29.2501 635.9602,-27.5 630.9602,-25.7501 630.9602,-29.2501"/>
</g>
<!-- pyVHDLModel.SyntaxModel.BaseType&#45;&gt;pyVHDLModel.SyntaxModel.Type -->
<g id="edge6" class="edge">
<title>pyVHDLModel.SyntaxModel.BaseType&#45;&gt;pyVHDLModel.SyntaxModel.Type</title>
<path fill="none" stroke="#000000" stroke-width=".5" d="M388.207,-27.5C398.3249,-27.5 408.5727,-27.5 418.6151,-27.5"/>
<polygon fill="#000000" stroke="#000000" stroke-width=".5" points="418.8461,-29.2501 423.8461,-27.5 418.846,-25.7501 418.8461,-29.2501"/>
</g>
</g>
</svg>
