<?xml version="1.0" encoding="UTF-8" standalone="no"?>
<!DOCTYPE svg PUBLIC "-//W3C//DTD SVG 1.1//EN"
 "http://www.w3.org/Graphics/SVG/1.1/DTD/svg11.dtd">
<!-- Generated by graphviz version 2.40.1 (20161225.0304)
 -->
<!-- Title: inheritanceb58204a1e9 Pages: 1 -->
<svg width="576pt" height="32pt"
 viewBox="0.00 0.00 576.00 31.86" xmlns="http://www.w3.org/2000/svg" xmlns:xlink="http://www.w3.org/1999/xlink">
<g id="graph0" class="graph" transform="scale(.4978 .4978) rotate(0) translate(4 60)">
<title>inheritanceb58204a1e9</title>
<polygon fill="#ffffff" stroke="transparent" points="-4,4 -4,-60 1153,-60 1153,4 -4,4"/>
<!-- pyGHDL.dom.DOMMixin -->
<g id="node1" class="node">
<title>pyGHDL.dom.DOMMixin</title>
<g id="a_node1"><a xlink:href="../pyGHDL.dom.html#pyGHDL.dom.DOMMixin" xlink:title="pyGHDL.dom.DOMMixin" target="_top">
<polygon fill="none" stroke="#000000" stroke-width=".5" points="859,-56 725,-56 725,-37 859,-37 859,-56"/>
<text text-anchor="middle" x="792" y="-44" font-family="Vera Sans, DejaVu Sans, Liberation Sans, Arial, Helvetica, sans" font-size="10.00" fill="#000000">pyGHDL.dom.DOMMixin</text>
</a>
</g>
</g>
<!-- pyGHDL.dom.Sequential.RangedChoice -->
<g id="node2" class="node">
<title>pyGHDL.dom.Sequential.RangedChoice</title>
<g id="a_node2"><a xlink:href="../pyGHDL/pyGHDL.dom.Sequential.html#pyGHDL.dom.Sequential.RangedChoice" xlink:title="pyGHDL.dom.Sequential.RangedChoice" target="_top">
<polygon fill="none" stroke="#000000" stroke-width=".5" points="1149,-37 940,-37 940,-18 1149,-18 1149,-37"/>
<text text-anchor="middle" x="1044.5" y="-25" font-family="Vera Sans, DejaVu Sans, Liberation Sans, Arial, Helvetica, sans" font-size="10.00" fill="#000000">pyGHDL.dom.Sequential.RangedChoice</text>
</a>
</g>
</g>
<!-- pyGHDL.dom.DOMMixin&#45;&gt;pyGHDL.dom.Sequential.RangedChoice -->
<g id="edge2" class="edge">
<title>pyGHDL.dom.DOMMixin&#45;&gt;pyGHDL.dom.Sequential.RangedChoice</title>
<path fill="none" stroke="#000000" stroke-width=".5" d="M859.0024,-41.4582C882.1505,-39.7164 908.7353,-37.716 934.4131,-35.7838"/>
<polygon fill="#000000" stroke="#000000" stroke-width=".5" points="934.6807,-37.5187 939.5353,-35.3983 934.418,-34.0285 934.6807,-37.5187"/>
</g>
<!-- pyVHDLModel.SyntaxModel.RangedChoice -->
<g id="node3" class="node">
<title>pyVHDLModel.SyntaxModel.RangedChoice</title>
<polygon fill="none" stroke="#000000" stroke-width=".5" points="904,-19 680,-19 680,0 904,0 904,-19"/>
<text text-anchor="middle" x="792" y="-7" font-family="Vera Sans, DejaVu Sans, Liberation Sans, Arial, Helvetica, sans" font-size="10.00" fill="#000000">pyVHDLModel.SyntaxModel.RangedChoice</text>
</g>
<!-- pyVHDLModel.SyntaxModel.RangedChoice&#45;&gt;pyGHDL.dom.Sequential.RangedChoice -->
<g id="edge1" class="edge">
<title>pyVHDLModel.SyntaxModel.RangedChoice&#45;&gt;pyGHDL.dom.Sequential.RangedChoice</title>
<path fill="none" stroke="#000000" stroke-width=".5" d="M904.2206,-17.4999C914.3151,-18.2195 924.5307,-18.9477 934.6051,-19.6659"/>
<polygon fill="#000000" stroke="#000000" stroke-width=".5" points="934.7472,-21.4304 939.859,-20.0404 934.9961,-17.9393 934.7472,-21.4304"/>
</g>
<!-- pyVHDLModel.ModelEntity -->
<g id="node4" class="node">
<title>pyVHDLModel.ModelEntity</title>
<g id="a_node4"><a xlink:title="``ModelEntity`` is the base class for all classes in the VHDL language model,">
<polygon fill="none" stroke="#000000" stroke-width=".5" points="146,-19 0,-19 0,0 146,0 146,-19"/>
<text text-anchor="middle" x="73" y="-7" font-family="Vera Sans, DejaVu Sans, Liberation Sans, Arial, Helvetica, sans" font-size="10.00" fill="#000000">pyVHDLModel.ModelEntity</text>
</a>
</g>
</g>
<!-- pyVHDLModel.SyntaxModel.Choice -->
<g id="node5" class="node">
<title>pyVHDLModel.SyntaxModel.Choice</title>
<g id="a_node5"><a xlink:title="A ``Choice`` is a base&#45;class for all choices.">
<polygon fill="none" stroke="#000000" stroke-width=".5" points="369,-19 182,-19 182,0 369,0 369,-19"/>
<text text-anchor="middle" x="275.5" y="-7" font-family="Vera Sans, DejaVu Sans, Liberation Sans, Arial, Helvetica, sans" font-size="10.00" fill="#000000">pyVHDLModel.SyntaxModel.Choice</text>
</a>
</g>
</g>
<!-- pyVHDLModel.ModelEntity&#45;&gt;pyVHDLModel.SyntaxModel.Choice -->
<g id="edge3" class="edge">
<title>pyVHDLModel.ModelEntity&#45;&gt;pyVHDLModel.SyntaxModel.Choice</title>
<path fill="none" stroke="#000000" stroke-width=".5" d="M146.1071,-9.5C156.0376,-9.5 166.3604,-9.5 176.6501,-9.5"/>
<polygon fill="#000000" stroke="#000000" stroke-width=".5" points="176.6969,-11.2501 181.6969,-9.5 176.6968,-7.7501 176.6969,-11.2501"/>
</g>
<!-- pyVHDLModel.SyntaxModel.SequentialChoice -->
<g id="node6" class="node">
<title>pyVHDLModel.SyntaxModel.SequentialChoice</title>
<g id="a_node6"><a xlink:title="A ``SequentialChoice`` is a base&#45;class for all sequential choices">
<polygon fill="none" stroke="#000000" stroke-width=".5" points="644,-19 405,-19 405,0 644,0 644,-19"/>
<text text-anchor="middle" x="524.5" y="-7" font-family="Vera Sans, DejaVu Sans, Liberation Sans, Arial, Helvetica, sans" font-size="10.00" fill="#000000">pyVHDLModel.SyntaxModel.SequentialChoice</text>
</a>
</g>
</g>
<!-- pyVHDLModel.SyntaxModel.Choice&#45;&gt;pyVHDLModel.SyntaxModel.SequentialChoice -->
<g id="edge5" class="edge">
<title>pyVHDLModel.SyntaxModel.Choice&#45;&gt;pyVHDLModel.SyntaxModel.SequentialChoice</title>
<path fill="none" stroke="#000000" stroke-width=".5" d="M369.2814,-9.5C379.2331,-9.5 389.4642,-9.5 399.6979,-9.5"/>
<polygon fill="#000000" stroke="#000000" stroke-width=".5" points="399.7208,-11.2501 404.7207,-9.5 399.7207,-7.7501 399.7208,-11.2501"/>
</g>
<!-- pyVHDLModel.SyntaxModel.SequentialChoice&#45;&gt;pyVHDLModel.SyntaxModel.RangedChoice -->
<g id="edge4" class="edge">
<title>pyVHDLModel.SyntaxModel.SequentialChoice&#45;&gt;pyVHDLModel.SyntaxModel.RangedChoice</title>
<path fill="none" stroke="#000000" stroke-width=".5" d="M644.1668,-9.5C654.2358,-9.5 664.4125,-9.5 674.4652,-9.5"/>
<polygon fill="#000000" stroke="#000000" stroke-width=".5" points="674.7096,-11.2501 679.7095,-9.5 674.7095,-7.7501 674.7096,-11.2501"/>
</g>
</g>
</svg>
