<?xml version="1.0" encoding="UTF-8" standalone="no"?>
<!DOCTYPE svg PUBLIC "-//W3C//DTD SVG 1.1//EN"
 "http://www.w3.org/Graphics/SVG/1.1/DTD/svg11.dtd">
<!-- Generated by graphviz version 2.40.1 (20161225.0304)
 -->
<!-- Title: inheritance2810648a81 Pages: 1 -->
<svg width="576pt" height="36pt"
 viewBox="0.00 0.00 576.00 35.82" xmlns="http://www.w3.org/2000/svg" xmlns:xlink="http://www.w3.org/1999/xlink">
<g id="graph0" class="graph" transform="scale(.3582 .3582) rotate(0) translate(4 96)">
<title>inheritance2810648a81</title>
<polygon fill="#ffffff" stroke="transparent" points="-4,4 -4,-96 1604,-96 1604,4 -4,4"/>
<!-- pyGHDL.dom.DOMMixin -->
<g id="node1" class="node">
<title>pyGHDL.dom.DOMMixin</title>
<g id="a_node1"><a xlink:href="../pyGHDL.dom.html#pyGHDL.dom.DOMMixin" xlink:title="pyGHDL.dom.DOMMixin" target="_top">
<polygon fill="none" stroke="#000000" stroke-width=".5" points="1349.5,-92 1215.5,-92 1215.5,-73 1349.5,-73 1349.5,-92"/>
<text text-anchor="middle" x="1282.5" y="-80" font-family="Vera Sans, DejaVu Sans, Liberation Sans, Arial, Helvetica, sans" font-size="10.00" fill="#000000">pyGHDL.dom.DOMMixin</text>
</a>
</g>
</g>
<!-- pyGHDL.dom.Type.PhysicalType -->
<g id="node2" class="node">
<title>pyGHDL.dom.Type.PhysicalType</title>
<g id="a_node2"><a xlink:href="../pyGHDL/pyGHDL.dom.Type.html#pyGHDL.dom.Type.PhysicalType" xlink:title="pyGHDL.dom.Type.PhysicalType" target="_top">
<polygon fill="none" stroke="#000000" stroke-width=".5" points="1600,-73 1427,-73 1427,-54 1600,-54 1600,-73"/>
<text text-anchor="middle" x="1513.5" y="-61" font-family="Vera Sans, DejaVu Sans, Liberation Sans, Arial, Helvetica, sans" font-size="10.00" fill="#000000">pyGHDL.dom.Type.PhysicalType</text>
</a>
</g>
</g>
<!-- pyGHDL.dom.DOMMixin&#45;&gt;pyGHDL.dom.Type.PhysicalType -->
<g id="edge2" class="edge">
<title>pyGHDL.dom.DOMMixin&#45;&gt;pyGHDL.dom.Type.PhysicalType</title>
<path fill="none" stroke="#000000" stroke-width=".5" d="M1349.6251,-76.9789C1372.1349,-75.1274 1397.6368,-73.0299 1421.7037,-71.0503"/>
<polygon fill="#000000" stroke="#000000" stroke-width=".5" points="1421.9763,-72.7839 1426.816,-70.6299 1421.6893,-69.2957 1421.9763,-72.7839"/>
</g>
<!-- pyVHDLModel.SyntaxModel.PhysicalType -->
<g id="node3" class="node">
<title>pyVHDLModel.SyntaxModel.PhysicalType</title>
<polygon fill="none" stroke="#000000" stroke-width=".5" points="1391,-55 1174,-55 1174,-36 1391,-36 1391,-55"/>
<text text-anchor="middle" x="1282.5" y="-43" font-family="Vera Sans, DejaVu Sans, Liberation Sans, Arial, Helvetica, sans" font-size="10.00" fill="#000000">pyVHDLModel.SyntaxModel.PhysicalType</text>
</g>
<!-- pyVHDLModel.SyntaxModel.PhysicalType&#45;&gt;pyGHDL.dom.Type.PhysicalType -->
<g id="edge1" class="edge">
<title>pyVHDLModel.SyntaxModel.PhysicalType&#45;&gt;pyGHDL.dom.Type.PhysicalType</title>
<path fill="none" stroke="#000000" stroke-width=".5" d="M1391.2359,-53.9729C1401.4002,-54.7649 1411.6345,-55.5624 1421.6227,-56.3407"/>
<polygon fill="#000000" stroke="#000000" stroke-width=".5" points="1421.7009,-58.102 1426.8218,-56.7459 1421.9729,-54.6126 1421.7009,-58.102"/>
</g>
<!-- pyVHDLModel.ModelEntity -->
<g id="node4" class="node">
<title>pyVHDLModel.ModelEntity</title>
<g id="a_node4"><a xlink:title="``ModelEntity`` is the base class for all classes in the VHDL language model,">
<polygon fill="none" stroke="#000000" stroke-width=".5" points="149,-56 3,-56 3,-37 149,-37 149,-56"/>
<text text-anchor="middle" x="76" y="-44" font-family="Vera Sans, DejaVu Sans, Liberation Sans, Arial, Helvetica, sans" font-size="10.00" fill="#000000">pyVHDLModel.ModelEntity</text>
</a>
</g>
</g>
<!-- pyVHDLModel.SyntaxModel.BaseType -->
<g id="node6" class="node">
<title>pyVHDLModel.SyntaxModel.BaseType</title>
<g id="a_node6"><a xlink:title="``BaseType`` is the base class of all type entities in this model.">
<polygon fill="none" stroke="#000000" stroke-width=".5" points="388,-37 188,-37 188,-18 388,-18 388,-37"/>
<text text-anchor="middle" x="288" y="-25" font-family="Vera Sans, DejaVu Sans, Liberation Sans, Arial, Helvetica, sans" font-size="10.00" fill="#000000">pyVHDLModel.SyntaxModel.BaseType</text>
</a>
</g>
</g>
<!-- pyVHDLModel.ModelEntity&#45;&gt;pyVHDLModel.SyntaxModel.BaseType -->
<g id="edge3" class="edge">
<title>pyVHDLModel.ModelEntity&#45;&gt;pyVHDLModel.SyntaxModel.BaseType</title>
<path fill="none" stroke="#000000" stroke-width=".5" d="M149.2552,-39.9347C160.0491,-38.9673 171.3454,-37.9549 182.632,-36.9434"/>
<polygon fill="#000000" stroke="#000000" stroke-width=".5" points="182.9915,-38.6682 187.8153,-36.4788 182.679,-35.1822 182.9915,-38.6682"/>
</g>
<!-- pyVHDLModel.NamedEntity -->
<g id="node5" class="node">
<title>pyVHDLModel.NamedEntity</title>
<g id="a_node5"><a xlink:title="A ``NamedEntity`` is a mixin class for all VHDL entities that have identifiers.">
<polygon fill="none" stroke="#000000" stroke-width=".5" points="152,-19 0,-19 0,0 152,0 152,-19"/>
<text text-anchor="middle" x="76" y="-7" font-family="Vera Sans, DejaVu Sans, Liberation Sans, Arial, Helvetica, sans" font-size="10.00" fill="#000000">pyVHDLModel.NamedEntity</text>
</a>
</g>
</g>
<!-- pyVHDLModel.NamedEntity&#45;&gt;pyVHDLModel.SyntaxModel.BaseType -->
<g id="edge4" class="edge">
<title>pyVHDLModel.NamedEntity&#45;&gt;pyVHDLModel.SyntaxModel.BaseType</title>
<path fill="none" stroke="#000000" stroke-width=".5" d="M152.2374,-15.973C162.1327,-16.8132 172.4047,-17.6853 182.6683,-18.5567"/>
<polygon fill="#000000" stroke="#000000" stroke-width=".5" points="182.5743,-20.305 187.7045,-18.9843 182.8705,-16.8175 182.5743,-20.305"/>
</g>
<!-- pyVHDLModel.SyntaxModel.FullType -->
<g id="node7" class="node">
<title>pyVHDLModel.SyntaxModel.FullType</title>
<polygon fill="none" stroke="#000000" stroke-width=".5" points="617,-37 424,-37 424,-18 617,-18 617,-37"/>
<text text-anchor="middle" x="520.5" y="-25" font-family="Vera Sans, DejaVu Sans, Liberation Sans, Arial, Helvetica, sans" font-size="10.00" fill="#000000">pyVHDLModel.SyntaxModel.FullType</text>
</g>
<!-- pyVHDLModel.SyntaxModel.BaseType&#45;&gt;pyVHDLModel.SyntaxModel.FullType -->
<g id="edge5" class="edge">
<title>pyVHDLModel.SyntaxModel.BaseType&#45;&gt;pyVHDLModel.SyntaxModel.FullType</title>
<path fill="none" stroke="#000000" stroke-width=".5" d="M388.2879,-27.5C398.3351,-27.5 408.5445,-27.5 418.6082,-27.5"/>
<polygon fill="#000000" stroke="#000000" stroke-width=".5" points="418.8559,-29.2501 423.8559,-27.5 418.8558,-25.7501 418.8559,-29.2501"/>
</g>
<!-- pyVHDLModel.SyntaxModel.ScalarType -->
<g id="node10" class="node">
<title>pyVHDLModel.SyntaxModel.ScalarType</title>
<g id="a_node10"><a xlink:title="A ``ScalarType`` is a base&#45;class for all scalar types.">
<polygon fill="none" stroke="#000000" stroke-width=".5" points="859,-37 653,-37 653,-18 859,-18 859,-37"/>
<text text-anchor="middle" x="756" y="-25" font-family="Vera Sans, DejaVu Sans, Liberation Sans, Arial, Helvetica, sans" font-size="10.00" fill="#000000">pyVHDLModel.SyntaxModel.ScalarType</text>
</a>
</g>
</g>
<!-- pyVHDLModel.SyntaxModel.FullType&#45;&gt;pyVHDLModel.SyntaxModel.ScalarType -->
<g id="edge9" class="edge">
<title>pyVHDLModel.SyntaxModel.FullType&#45;&gt;pyVHDLModel.SyntaxModel.ScalarType</title>
<path fill="none" stroke="#000000" stroke-width=".5" d="M617.3064,-27.5C627.2453,-27.5 637.39,-27.5 647.4447,-27.5"/>
<polygon fill="#000000" stroke="#000000" stroke-width=".5" points="647.6929,-29.2501 652.6929,-27.5 647.6929,-25.7501 647.6929,-29.2501"/>
</g>
<!-- pyVHDLModel.SyntaxModel.NumericType -->
<g id="node8" class="node">
<title>pyVHDLModel.SyntaxModel.NumericType</title>
<g id="a_node8"><a xlink:title="A ``NumericType`` is a mixin class for all numeric types.">
<polygon fill="none" stroke="#000000" stroke-width=".5" points="1125.5,-74 907.5,-74 907.5,-55 1125.5,-55 1125.5,-74"/>
<text text-anchor="middle" x="1016.5" y="-62" font-family="Vera Sans, DejaVu Sans, Liberation Sans, Arial, Helvetica, sans" font-size="10.00" fill="#000000">pyVHDLModel.SyntaxModel.NumericType</text>
</a>
</g>
</g>
<!-- pyVHDLModel.SyntaxModel.NumericType&#45;&gt;pyVHDLModel.SyntaxModel.PhysicalType -->
<g id="edge7" class="edge">
<title>pyVHDLModel.SyntaxModel.NumericType&#45;&gt;pyVHDLModel.SyntaxModel.PhysicalType</title>
<path fill="none" stroke="#000000" stroke-width=".5" d="M1125.8439,-56.6897C1139.8822,-55.687 1154.2839,-54.6583 1168.3958,-53.6503"/>
<polygon fill="#000000" stroke="#000000" stroke-width=".5" points="1168.718,-55.3818 1173.5806,-53.28 1168.4686,-51.8907 1168.718,-55.3818"/>
</g>
<!-- pyVHDLModel.SyntaxModel.RangedScalarType -->
<g id="node9" class="node">
<title>pyVHDLModel.SyntaxModel.RangedScalarType</title>
<g id="a_node9"><a xlink:title="A ``RangedScalarType`` is a base&#45;class for all scalar types with a range.">
<polygon fill="none" stroke="#000000" stroke-width=".5" points="1138,-37 895,-37 895,-18 1138,-18 1138,-37"/>
<text text-anchor="middle" x="1016.5" y="-25" font-family="Vera Sans, DejaVu Sans, Liberation Sans, Arial, Helvetica, sans" font-size="10.00" fill="#000000">pyVHDLModel.SyntaxModel.RangedScalarType</text>
</a>
</g>
</g>
<!-- pyVHDLModel.SyntaxModel.RangedScalarType&#45;&gt;pyVHDLModel.SyntaxModel.PhysicalType -->
<g id="edge6" class="edge">
<title>pyVHDLModel.SyntaxModel.RangedScalarType&#45;&gt;pyVHDLModel.SyntaxModel.PhysicalType</title>
<path fill="none" stroke="#000000" stroke-width=".5" d="M1138.2123,-35.7362C1148.3472,-36.422 1158.5701,-37.1138 1168.6434,-37.7954"/>
<polygon fill="#000000" stroke="#000000" stroke-width=".5" points="1168.7895,-39.5592 1173.8962,-38.1509 1169.0258,-36.0672 1168.7895,-39.5592"/>
</g>
<!-- pyVHDLModel.SyntaxModel.ScalarType&#45;&gt;pyVHDLModel.SyntaxModel.RangedScalarType -->
<g id="edge8" class="edge">
<title>pyVHDLModel.SyntaxModel.ScalarType&#45;&gt;pyVHDLModel.SyntaxModel.RangedScalarType</title>
<path fill="none" stroke="#000000" stroke-width=".5" d="M859.3306,-27.5C869.3408,-27.5 879.5727,-27.5 889.7758,-27.5"/>
<polygon fill="#000000" stroke="#000000" stroke-width=".5" points="889.7812,-29.2501 894.7812,-27.5 889.7812,-25.7501 889.7812,-29.2501"/>
</g>
</g>
</svg>
