<?xml version="1.0" encoding="UTF-8" standalone="no"?>
<!DOCTYPE svg PUBLIC "-//W3C//DTD SVG 1.1//EN"
 "http://www.w3.org/Graphics/SVG/1.1/DTD/svg11.dtd">
<!-- Generated by graphviz version 2.40.1 (20161225.0304)
 -->
<!-- Title: inheritance0b19ab940b Pages: 1 -->
<svg width="576pt" height="52pt"
 viewBox="0.00 0.00 576.00 52.16" xmlns="http://www.w3.org/2000/svg" xmlns:xlink="http://www.w3.org/1999/xlink">
<g id="graph0" class="graph" transform="scale(.378 .378) rotate(0) translate(4 134)">
<title>inheritance0b19ab940b</title>
<polygon fill="#ffffff" stroke="transparent" points="-4,4 -4,-134 1520,-134 1520,4 -4,4"/>
<!-- pyGHDL.dom.DOMMixin -->
<g id="node1" class="node">
<title>pyGHDL.dom.DOMMixin</title>
<g id="a_node1"><a xlink:href="../pyGHDL.dom.html#pyGHDL.dom.DOMMixin" xlink:title="pyGHDL.dom.DOMMixin" target="_top">
<polygon fill="none" stroke="#000000" stroke-width=".5" points="1083,-130 949,-130 949,-111 1083,-111 1083,-130"/>
<text text-anchor="middle" x="1016" y="-118" font-family="Vera Sans, DejaVu Sans, Liberation Sans, Arial, Helvetica, sans" font-size="10.00" fill="#000000">pyGHDL.dom.DOMMixin</text>
</a>
</g>
</g>
<!-- pyGHDL.dom.InterfaceItem.ParameterVariableInterfaceItem -->
<g id="node2" class="node">
<title>pyGHDL.dom.InterfaceItem.ParameterVariableInterfaceItem</title>
<g id="a_node2"><a xlink:href="../pyGHDL/pyGHDL.dom.InterfaceItem.html#pyGHDL.dom.InterfaceItem.ParameterVariableInterfaceItem" xlink:title="pyGHDL.dom.InterfaceItem.ParameterVariableInterfaceItem" target="_top">
<polygon fill="none" stroke="#000000" stroke-width=".5" points="1516,-111 1207,-111 1207,-92 1516,-92 1516,-111"/>
<text text-anchor="middle" x="1361.5" y="-99" font-family="Vera Sans, DejaVu Sans, Liberation Sans, Arial, Helvetica, sans" font-size="10.00" fill="#000000">pyGHDL.dom.InterfaceItem.ParameterVariableInterfaceItem</text>
</a>
</g>
</g>
<!-- pyGHDL.dom.DOMMixin&#45;&gt;pyGHDL.dom.InterfaceItem.ParameterVariableInterfaceItem -->
<g id="edge2" class="edge">
<title>pyGHDL.dom.DOMMixin&#45;&gt;pyGHDL.dom.InterfaceItem.ParameterVariableInterfaceItem</title>
<path fill="none" stroke="#000000" stroke-width=".5" d="M1083.0255,-116.8141C1117.0627,-114.9423 1159.9972,-112.5812 1201.8946,-110.2771"/>
<polygon fill="#000000" stroke="#000000" stroke-width=".5" points="1202.1019,-112.0185 1206.9982,-109.9965 1201.9096,-108.5238 1202.1019,-112.0185"/>
</g>
<!-- pyVHDLModel.SyntaxModel.ParameterVariableInterfaceItem -->
<g id="node3" class="node">
<title>pyVHDLModel.SyntaxModel.ParameterVariableInterfaceItem</title>
<polygon fill="none" stroke="#000000" stroke-width=".5" points="1171,-93 861,-93 861,-74 1171,-74 1171,-93"/>
<text text-anchor="middle" x="1016" y="-81" font-family="Vera Sans, DejaVu Sans, Liberation Sans, Arial, Helvetica, sans" font-size="10.00" fill="#000000">pyVHDLModel.SyntaxModel.ParameterVariableInterfaceItem</text>
</g>
<!-- pyVHDLModel.SyntaxModel.ParameterVariableInterfaceItem&#45;&gt;pyGHDL.dom.InterfaceItem.ParameterVariableInterfaceItem -->
<g id="edge1" class="edge">
<title>pyVHDLModel.SyntaxModel.ParameterVariableInterfaceItem&#45;&gt;pyGHDL.dom.InterfaceItem.ParameterVariableInterfaceItem</title>
<path fill="none" stroke="#000000" stroke-width=".5" d="M1171.064,-91.5786C1181.3159,-92.1127 1191.6518,-92.6512 1201.9252,-93.1864"/>
<polygon fill="#000000" stroke="#000000" stroke-width=".5" points="1201.8785,-94.9363 1206.9628,-93.4489 1202.0607,-91.441 1201.8785,-94.9363"/>
</g>
<!-- pyVHDLModel.ModelEntity -->
<g id="node4" class="node">
<title>pyVHDLModel.ModelEntity</title>
<g id="a_node4"><a xlink:title="``ModelEntity`` is the base class for all classes in the VHDL language model,">
<polygon fill="none" stroke="#000000" stroke-width=".5" points="168.5,-74 22.5,-74 22.5,-55 168.5,-55 168.5,-74"/>
<text text-anchor="middle" x="95.5" y="-62" font-family="Vera Sans, DejaVu Sans, Liberation Sans, Arial, Helvetica, sans" font-size="10.00" fill="#000000">pyVHDLModel.ModelEntity</text>
</a>
</g>
</g>
<!-- pyVHDLModel.SyntaxModel.Obj -->
<g id="node8" class="node">
<title>pyVHDLModel.SyntaxModel.Obj</title>
<polygon fill="none" stroke="#000000" stroke-width=".5" points="458,-56 288,-56 288,-37 458,-37 458,-56"/>
<text text-anchor="middle" x="373" y="-44" font-family="Vera Sans, DejaVu Sans, Liberation Sans, Arial, Helvetica, sans" font-size="10.00" fill="#000000">pyVHDLModel.SyntaxModel.Obj</text>
</g>
<!-- pyVHDLModel.ModelEntity&#45;&gt;pyVHDLModel.SyntaxModel.Obj -->
<g id="edge3" class="edge">
<title>pyVHDLModel.ModelEntity&#45;&gt;pyVHDLModel.SyntaxModel.Obj</title>
<path fill="none" stroke="#000000" stroke-width=".5" d="M168.7728,-59.7472C203.6681,-57.4837 245.7327,-54.7552 282.5944,-52.3641"/>
<polygon fill="#000000" stroke="#000000" stroke-width=".5" points="283.1176,-54.084 287.9938,-52.0139 282.891,-50.5913 283.1176,-54.084"/>
</g>
<!-- pyVHDLModel.MultipleNamedEntity -->
<g id="node5" class="node">
<title>pyVHDLModel.MultipleNamedEntity</title>
<g id="a_node5"><a xlink:title="A ``MultipleNamedEntity`` is a mixin class for all VHDL entities that declare">
<polygon fill="none" stroke="#000000" stroke-width=".5" points="191,-37 0,-37 0,-18 191,-18 191,-37"/>
<text text-anchor="middle" x="95.5" y="-25" font-family="Vera Sans, DejaVu Sans, Liberation Sans, Arial, Helvetica, sans" font-size="10.00" fill="#000000">pyVHDLModel.MultipleNamedEntity</text>
</a>
</g>
</g>
<!-- pyVHDLModel.MultipleNamedEntity&#45;&gt;pyVHDLModel.SyntaxModel.Obj -->
<g id="edge4" class="edge">
<title>pyVHDLModel.MultipleNamedEntity&#45;&gt;pyVHDLModel.SyntaxModel.Obj</title>
<path fill="none" stroke="#000000" stroke-width=".5" d="M191.3883,-34.0653C221.007,-36.0933 253.5151,-38.3191 282.7402,-40.32"/>
<polygon fill="#000000" stroke="#000000" stroke-width=".5" points="282.6702,-42.0693 287.7781,-40.665 282.9094,-38.5774 282.6702,-42.0693"/>
</g>
<!-- pyVHDLModel.SyntaxModel.InterfaceItem -->
<g id="node6" class="node">
<title>pyVHDLModel.SyntaxModel.InterfaceItem</title>
<g id="a_node6"><a xlink:title="An ``InterfaceItem`` is a base&#45;class for all mixin&#45;classes for all interface">
<polygon fill="none" stroke="#000000" stroke-width=".5" points="483,-93 263,-93 263,-74 483,-74 483,-93"/>
<text text-anchor="middle" x="373" y="-81" font-family="Vera Sans, DejaVu Sans, Liberation Sans, Arial, Helvetica, sans" font-size="10.00" fill="#000000">pyVHDLModel.SyntaxModel.InterfaceItem</text>
</a>
</g>
</g>
<!-- pyVHDLModel.SyntaxModel.ParameterInterfaceItem -->
<g id="node9" class="node">
<title>pyVHDLModel.SyntaxModel.ParameterInterfaceItem</title>
<g id="a_node9"><a xlink:title="A ``ParameterInterfaceItem`` is a mixin class for all parameter interface items.">
<polygon fill="none" stroke="#000000" stroke-width=".5" points="825,-93 555,-93 555,-74 825,-74 825,-93"/>
<text text-anchor="middle" x="690" y="-81" font-family="Vera Sans, DejaVu Sans, Liberation Sans, Arial, Helvetica, sans" font-size="10.00" fill="#000000">pyVHDLModel.SyntaxModel.ParameterInterfaceItem</text>
</a>
</g>
</g>
<!-- pyVHDLModel.SyntaxModel.InterfaceItem&#45;&gt;pyVHDLModel.SyntaxModel.ParameterInterfaceItem -->
<g id="edge5" class="edge">
<title>pyVHDLModel.SyntaxModel.InterfaceItem&#45;&gt;pyVHDLModel.SyntaxModel.ParameterInterfaceItem</title>
<path fill="none" stroke="#000000" stroke-width=".5" d="M483.4262,-83.5C504.8556,-83.5 527.5801,-83.5 549.817,-83.5"/>
<polygon fill="#000000" stroke="#000000" stroke-width=".5" points="549.8533,-85.2501 554.8533,-83.5 549.8532,-81.7501 549.8533,-85.2501"/>
</g>
<!-- pyVHDLModel.SyntaxModel.InterfaceItemWithMode -->
<g id="node7" class="node">
<title>pyVHDLModel.SyntaxModel.InterfaceItemWithMode</title>
<g id="a_node7"><a xlink:title="An ``InterfaceItemWithMode`` is a mixin&#45;class to provide a ``Mode`` to">
<polygon fill="none" stroke="#000000" stroke-width=".5" points="824.5,-130 555.5,-130 555.5,-111 824.5,-111 824.5,-130"/>
<text text-anchor="middle" x="690" y="-118" font-family="Vera Sans, DejaVu Sans, Liberation Sans, Arial, Helvetica, sans" font-size="10.00" fill="#000000">pyVHDLModel.SyntaxModel.InterfaceItemWithMode</text>
</a>
</g>
</g>
<!-- pyVHDLModel.SyntaxModel.InterfaceItemWithMode&#45;&gt;pyVHDLModel.SyntaxModel.ParameterVariableInterfaceItem -->
<g id="edge8" class="edge">
<title>pyVHDLModel.SyntaxModel.InterfaceItemWithMode&#45;&gt;pyVHDLModel.SyntaxModel.ParameterVariableInterfaceItem</title>
<path fill="none" stroke="#000000" stroke-width=".5" d="M773.9531,-110.9716C820.824,-105.6519 879.2007,-99.0263 926.8803,-93.6148"/>
<polygon fill="#000000" stroke="#000000" stroke-width=".5" points="927.2778,-95.331 932.0486,-93.0282 926.8831,-91.8533 927.2778,-95.331"/>
</g>
<!-- pyVHDLModel.SyntaxModel.Variable -->
<g id="node10" class="node">
<title>pyVHDLModel.SyntaxModel.Variable</title>
<polygon fill="none" stroke="#000000" stroke-width=".5" points="787,-56 593,-56 593,-37 787,-37 787,-56"/>
<text text-anchor="middle" x="690" y="-44" font-family="Vera Sans, DejaVu Sans, Liberation Sans, Arial, Helvetica, sans" font-size="10.00" fill="#000000">pyVHDLModel.SyntaxModel.Variable</text>
</g>
<!-- pyVHDLModel.SyntaxModel.Obj&#45;&gt;pyVHDLModel.SyntaxModel.Variable -->
<g id="edge9" class="edge">
<title>pyVHDLModel.SyntaxModel.Obj&#45;&gt;pyVHDLModel.SyntaxModel.Variable</title>
<path fill="none" stroke="#000000" stroke-width=".5" d="M458.3672,-46.5C498.2803,-46.5 546.1179,-46.5 587.9298,-46.5"/>
<polygon fill="#000000" stroke="#000000" stroke-width=".5" points="587.9981,-48.2501 592.998,-46.5 587.998,-44.7501 587.9981,-48.2501"/>
</g>
<!-- pyVHDLModel.SyntaxModel.ParameterInterfaceItem&#45;&gt;pyVHDLModel.SyntaxModel.ParameterVariableInterfaceItem -->
<g id="edge7" class="edge">
<title>pyVHDLModel.SyntaxModel.ParameterInterfaceItem&#45;&gt;pyVHDLModel.SyntaxModel.ParameterVariableInterfaceItem</title>
<path fill="none" stroke="#000000" stroke-width=".5" d="M825.4212,-83.5C835.4938,-83.5 845.7111,-83.5 855.9132,-83.5"/>
<polygon fill="#000000" stroke="#000000" stroke-width=".5" points="855.9196,-85.2501 860.9195,-83.5 855.9195,-81.7501 855.9196,-85.2501"/>
</g>
<!-- pyVHDLModel.SyntaxModel.Variable&#45;&gt;pyVHDLModel.SyntaxModel.ParameterVariableInterfaceItem -->
<g id="edge6" class="edge">
<title>pyVHDLModel.SyntaxModel.Variable&#45;&gt;pyVHDLModel.SyntaxModel.ParameterVariableInterfaceItem</title>
<path fill="none" stroke="#000000" stroke-width=".5" d="M773.9531,-56.0284C820.824,-61.3481 879.2007,-67.9737 926.8803,-73.3852"/>
<polygon fill="#000000" stroke="#000000" stroke-width=".5" points="926.8831,-75.1467 932.0486,-73.9718 927.2778,-71.669 926.8831,-75.1467"/>
</g>
<!-- pyVHDLModel.SyntaxModel.WithDefaultExpressionMixin -->
<g id="node11" class="node">
<title>pyVHDLModel.SyntaxModel.WithDefaultExpressionMixin</title>
<g id="a_node11"><a xlink:title="A ``WithDefaultExpression`` is a mixin class for all objects declarations">
<polygon fill="none" stroke="#000000" stroke-width=".5" points="519,-19 227,-19 227,0 519,0 519,-19"/>
<text text-anchor="middle" x="373" y="-7" font-family="Vera Sans, DejaVu Sans, Liberation Sans, Arial, Helvetica, sans" font-size="10.00" fill="#000000">pyVHDLModel.SyntaxModel.WithDefaultExpressionMixin</text>
</a>
</g>
</g>
<!-- pyVHDLModel.SyntaxModel.WithDefaultExpressionMixin&#45;&gt;pyVHDLModel.SyntaxModel.Variable -->
<g id="edge10" class="edge">
<title>pyVHDLModel.SyntaxModel.WithDefaultExpressionMixin&#45;&gt;pyVHDLModel.SyntaxModel.Variable</title>
<path fill="none" stroke="#000000" stroke-width=".5" d="M454.6354,-19.0284C500.2123,-24.3481 556.9773,-30.9737 603.3407,-36.3852"/>
<polygon fill="#000000" stroke="#000000" stroke-width=".5" points="603.197,-38.1302 608.3662,-36.9718 603.6029,-34.6538 603.197,-38.1302"/>
</g>
</g>
</svg>
