<?xml version="1.0" encoding="UTF-8" standalone="no"?>
<!DOCTYPE svg PUBLIC "-//W3C//DTD SVG 1.1//EN"
 "http://www.w3.org/Graphics/SVG/1.1/DTD/svg11.dtd">
<!-- Generated by graphviz version 2.40.1 (20161225.0304)
 -->
<!-- Title: inheritance0862afb825 Pages: 1 -->
<svg width="576pt" height="53pt"
 viewBox="0.00 0.00 576.00 52.85" xmlns="http://www.w3.org/2000/svg" xmlns:xlink="http://www.w3.org/1999/xlink">
<g id="graph0" class="graph" transform="scale(.3366 .3366) rotate(0) translate(4 153)">
<title>inheritance0862afb825</title>
<polygon fill="#ffffff" stroke="transparent" points="-4,4 -4,-153 1707,-153 1707,4 -4,4"/>
<!-- pyGHDL.dom.DOMMixin -->
<g id="node1" class="node">
<title>pyGHDL.dom.DOMMixin</title>
<g id="a_node1"><a xlink:href="../pyGHDL.dom.html#pyGHDL.dom.DOMMixin" xlink:title="pyGHDL.dom.DOMMixin" target="_top">
<polygon fill="none" stroke="#000000" stroke-width=".5" points="1283.5,-93 1149.5,-93 1149.5,-74 1283.5,-74 1283.5,-93"/>
<text text-anchor="middle" x="1216.5" y="-81" font-family="Vera Sans, DejaVu Sans, Liberation Sans, Arial, Helvetica, sans" font-size="10.00" fill="#000000">pyGHDL.dom.DOMMixin</text>
</a>
</g>
</g>
<!-- pyGHDL.dom.InterfaceItem.GenericConstantInterfaceItem -->
<g id="node2" class="node">
<title>pyGHDL.dom.InterfaceItem.GenericConstantInterfaceItem</title>
<g id="a_node2"><a xlink:href="../pyGHDL/pyGHDL.dom.InterfaceItem.html#pyGHDL.dom.InterfaceItem.GenericConstantInterfaceItem" xlink:title="pyGHDL.dom.InterfaceItem.GenericConstantInterfaceItem" target="_top">
<polygon fill="none" stroke="#000000" stroke-width=".5" points="1703,-74 1403,-74 1403,-55 1703,-55 1703,-74"/>
<text text-anchor="middle" x="1553" y="-62" font-family="Vera Sans, DejaVu Sans, Liberation Sans, Arial, Helvetica, sans" font-size="10.00" fill="#000000">pyGHDL.dom.InterfaceItem.GenericConstantInterfaceItem</text>
</a>
</g>
</g>
<!-- pyGHDL.dom.DOMMixin&#45;&gt;pyGHDL.dom.InterfaceItem.GenericConstantInterfaceItem -->
<g id="edge2" class="edge">
<title>pyGHDL.dom.DOMMixin&#45;&gt;pyGHDL.dom.InterfaceItem.GenericConstantInterfaceItem</title>
<path fill="none" stroke="#000000" stroke-width=".5" d="M1283.787,-79.7007C1316.5515,-77.8507 1357.4219,-75.543 1397.3417,-73.289"/>
<polygon fill="#000000" stroke="#000000" stroke-width=".5" points="1397.8187,-75.015 1402.7121,-72.9858 1397.6213,-71.5205 1397.8187,-75.015"/>
</g>
<!-- pyVHDLModel.SyntaxModel.GenericConstantInterfaceItem -->
<g id="node3" class="node">
<title>pyVHDLModel.SyntaxModel.GenericConstantInterfaceItem</title>
<polygon fill="none" stroke="#000000" stroke-width=".5" points="1367,-56 1066,-56 1066,-37 1367,-37 1367,-56"/>
<text text-anchor="middle" x="1216.5" y="-44" font-family="Vera Sans, DejaVu Sans, Liberation Sans, Arial, Helvetica, sans" font-size="10.00" fill="#000000">pyVHDLModel.SyntaxModel.GenericConstantInterfaceItem</text>
</g>
<!-- pyVHDLModel.SyntaxModel.GenericConstantInterfaceItem&#45;&gt;pyGHDL.dom.InterfaceItem.GenericConstantInterfaceItem -->
<g id="edge1" class="edge">
<title>pyVHDLModel.SyntaxModel.GenericConstantInterfaceItem&#45;&gt;pyGHDL.dom.InterfaceItem.GenericConstantInterfaceItem</title>
<path fill="none" stroke="#000000" stroke-width=".5" d="M1367.0341,-54.5523C1377.2601,-55.0994 1387.5744,-55.6511 1397.8235,-56.1993"/>
<polygon fill="#000000" stroke="#000000" stroke-width=".5" points="1397.7627,-57.9485 1402.849,-56.4681 1397.9497,-54.4535 1397.7627,-57.9485"/>
</g>
<!-- pyVHDLModel.ModelEntity -->
<g id="node4" class="node">
<title>pyVHDLModel.ModelEntity</title>
<g id="a_node4"><a xlink:title="``ModelEntity`` is the base class for all classes in the VHDL language model,">
<polygon fill="none" stroke="#000000" stroke-width=".5" points="168.5,-149 22.5,-149 22.5,-130 168.5,-130 168.5,-149"/>
<text text-anchor="middle" x="95.5" y="-137" font-family="Vera Sans, DejaVu Sans, Liberation Sans, Arial, Helvetica, sans" font-size="10.00" fill="#000000">pyVHDLModel.ModelEntity</text>
</a>
</g>
</g>
<!-- pyVHDLModel.SyntaxModel.Obj -->
<g id="node7" class="node">
<title>pyVHDLModel.SyntaxModel.Obj</title>
<polygon fill="none" stroke="#000000" stroke-width=".5" points="397,-130 227,-130 227,-111 397,-111 397,-130"/>
<text text-anchor="middle" x="312" y="-118" font-family="Vera Sans, DejaVu Sans, Liberation Sans, Arial, Helvetica, sans" font-size="10.00" fill="#000000">pyVHDLModel.SyntaxModel.Obj</text>
</g>
<!-- pyVHDLModel.ModelEntity&#45;&gt;pyVHDLModel.SyntaxModel.Obj -->
<g id="edge10" class="edge">
<title>pyVHDLModel.ModelEntity&#45;&gt;pyVHDLModel.SyntaxModel.Obj</title>
<path fill="none" stroke="#000000" stroke-width=".5" d="M168.797,-133.0675C185.6952,-131.5845 203.8663,-129.9898 221.4022,-128.4508"/>
<polygon fill="#000000" stroke="#000000" stroke-width=".5" points="221.9941,-130.1557 226.8219,-127.9752 221.688,-126.6691 221.9941,-130.1557"/>
</g>
<!-- pyVHDLModel.MultipleNamedEntity -->
<g id="node5" class="node">
<title>pyVHDLModel.MultipleNamedEntity</title>
<g id="a_node5"><a xlink:title="A ``MultipleNamedEntity`` is a mixin class for all VHDL entities that declare">
<polygon fill="none" stroke="#000000" stroke-width=".5" points="191,-112 0,-112 0,-93 191,-93 191,-112"/>
<text text-anchor="middle" x="95.5" y="-100" font-family="Vera Sans, DejaVu Sans, Liberation Sans, Arial, Helvetica, sans" font-size="10.00" fill="#000000">pyVHDLModel.MultipleNamedEntity</text>
</a>
</g>
</g>
<!-- pyVHDLModel.MultipleNamedEntity&#45;&gt;pyVHDLModel.SyntaxModel.Obj -->
<g id="edge11" class="edge">
<title>pyVHDLModel.MultipleNamedEntity&#45;&gt;pyVHDLModel.SyntaxModel.Obj</title>
<path fill="none" stroke="#000000" stroke-width=".5" d="M191.0903,-110.4475C201.2187,-111.2895 211.4971,-112.1441 221.5641,-112.9811"/>
<polygon fill="#000000" stroke="#000000" stroke-width=".5" points="221.6795,-114.7466 226.8074,-113.417 221.9696,-111.2587 221.6795,-114.7466"/>
</g>
<!-- pyVHDLModel.SyntaxModel.BaseConstant -->
<g id="node6" class="node">
<title>pyVHDLModel.SyntaxModel.BaseConstant</title>
<polygon fill="none" stroke="#000000" stroke-width=".5" points="689.5,-130 468.5,-130 468.5,-111 689.5,-111 689.5,-130"/>
<text text-anchor="middle" x="579" y="-118" font-family="Vera Sans, DejaVu Sans, Liberation Sans, Arial, Helvetica, sans" font-size="10.00" fill="#000000">pyVHDLModel.SyntaxModel.BaseConstant</text>
</g>
<!-- pyVHDLModel.SyntaxModel.Constant -->
<g id="node8" class="node">
<title>pyVHDLModel.SyntaxModel.Constant</title>
<polygon fill="none" stroke="#000000" stroke-width=".5" points="994,-93 797,-93 797,-74 994,-74 994,-93"/>
<text text-anchor="middle" x="895.5" y="-81" font-family="Vera Sans, DejaVu Sans, Liberation Sans, Arial, Helvetica, sans" font-size="10.00" fill="#000000">pyVHDLModel.SyntaxModel.Constant</text>
</g>
<!-- pyVHDLModel.SyntaxModel.BaseConstant&#45;&gt;pyVHDLModel.SyntaxModel.Constant -->
<g id="edge4" class="edge">
<title>pyVHDLModel.SyntaxModel.BaseConstant&#45;&gt;pyVHDLModel.SyntaxModel.Constant</title>
<path fill="none" stroke="#000000" stroke-width=".5" d="M660.5066,-110.9716C706.0116,-105.6519 762.6871,-99.0263 808.9773,-93.6148"/>
<polygon fill="#000000" stroke="#000000" stroke-width=".5" points="809.232,-95.347 813.995,-93.0282 808.8256,-91.8707 809.232,-95.347"/>
</g>
<!-- pyVHDLModel.SyntaxModel.Obj&#45;&gt;pyVHDLModel.SyntaxModel.BaseConstant -->
<g id="edge3" class="edge">
<title>pyVHDLModel.SyntaxModel.Obj&#45;&gt;pyVHDLModel.SyntaxModel.BaseConstant</title>
<path fill="none" stroke="#000000" stroke-width=".5" d="M397.2146,-120.5C418.2136,-120.5 441.0547,-120.5 463.2312,-120.5"/>
<polygon fill="#000000" stroke="#000000" stroke-width=".5" points="463.2504,-122.2501 468.2504,-120.5 463.2504,-118.7501 463.2504,-122.2501"/>
</g>
<!-- pyVHDLModel.SyntaxModel.Constant&#45;&gt;pyVHDLModel.SyntaxModel.GenericConstantInterfaceItem -->
<g id="edge6" class="edge">
<title>pyVHDLModel.SyntaxModel.Constant&#45;&gt;pyVHDLModel.SyntaxModel.GenericConstantInterfaceItem</title>
<path fill="none" stroke="#000000" stroke-width=".5" d="M978.1655,-73.9716C1024.3175,-68.6519 1081.7988,-62.0263 1128.7472,-56.6148"/>
<polygon fill="#000000" stroke="#000000" stroke-width=".5" points="1129.0695,-58.3393 1133.8362,-56.0282 1128.6686,-54.8624 1129.0695,-58.3393"/>
</g>
<!-- pyVHDLModel.SyntaxModel.WithDefaultExpressionMixin -->
<g id="node9" class="node">
<title>pyVHDLModel.SyntaxModel.WithDefaultExpressionMixin</title>
<g id="a_node9"><a xlink:title="A ``WithDefaultExpression`` is a mixin class for all objects declarations">
<polygon fill="none" stroke="#000000" stroke-width=".5" points="725,-93 433,-93 433,-74 725,-74 725,-93"/>
<text text-anchor="middle" x="579" y="-81" font-family="Vera Sans, DejaVu Sans, Liberation Sans, Arial, Helvetica, sans" font-size="10.00" fill="#000000">pyVHDLModel.SyntaxModel.WithDefaultExpressionMixin</text>
</a>
</g>
</g>
<!-- pyVHDLModel.SyntaxModel.WithDefaultExpressionMixin&#45;&gt;pyVHDLModel.SyntaxModel.Constant -->
<g id="edge5" class="edge">
<title>pyVHDLModel.SyntaxModel.WithDefaultExpressionMixin&#45;&gt;pyVHDLModel.SyntaxModel.Constant</title>
<path fill="none" stroke="#000000" stroke-width=".5" d="M725.2062,-83.5C747.6985,-83.5 770.5172,-83.5 791.8306,-83.5"/>
<polygon fill="#000000" stroke="#000000" stroke-width=".5" points="791.9267,-85.2501 796.9266,-83.5 791.9266,-81.7501 791.9267,-85.2501"/>
</g>
<!-- pyVHDLModel.SyntaxModel.GenericInterfaceItem -->
<g id="node10" class="node">
<title>pyVHDLModel.SyntaxModel.GenericInterfaceItem</title>
<g id="a_node10"><a xlink:title="A ``GenericInterfaceItem`` is a mixin class for all generic interface items.">
<polygon fill="none" stroke="#000000" stroke-width=".5" points="1024,-56 767,-56 767,-37 1024,-37 1024,-56"/>
<text text-anchor="middle" x="895.5" y="-44" font-family="Vera Sans, DejaVu Sans, Liberation Sans, Arial, Helvetica, sans" font-size="10.00" fill="#000000">pyVHDLModel.SyntaxModel.GenericInterfaceItem</text>
</a>
</g>
</g>
<!-- pyVHDLModel.SyntaxModel.GenericInterfaceItem&#45;&gt;pyVHDLModel.SyntaxModel.GenericConstantInterfaceItem -->
<g id="edge7" class="edge">
<title>pyVHDLModel.SyntaxModel.GenericInterfaceItem&#45;&gt;pyVHDLModel.SyntaxModel.GenericConstantInterfaceItem</title>
<path fill="none" stroke="#000000" stroke-width=".5" d="M1024.2134,-46.5C1036.1941,-46.5 1048.4209,-46.5 1060.6123,-46.5"/>
<polygon fill="#000000" stroke="#000000" stroke-width=".5" points="1060.8342,-48.2501 1065.8341,-46.5 1060.8341,-44.7501 1060.8342,-48.2501"/>
</g>
<!-- pyVHDLModel.SyntaxModel.InterfaceItemWithMode -->
<g id="node11" class="node">
<title>pyVHDLModel.SyntaxModel.InterfaceItemWithMode</title>
<g id="a_node11"><a xlink:title="An ``InterfaceItemWithMode`` is a mixin&#45;class to provide a ``Mode`` to">
<polygon fill="none" stroke="#000000" stroke-width=".5" points="1030,-19 761,-19 761,0 1030,0 1030,-19"/>
<text text-anchor="middle" x="895.5" y="-7" font-family="Vera Sans, DejaVu Sans, Liberation Sans, Arial, Helvetica, sans" font-size="10.00" fill="#000000">pyVHDLModel.SyntaxModel.InterfaceItemWithMode</text>
</a>
</g>
</g>
<!-- pyVHDLModel.SyntaxModel.InterfaceItemWithMode&#45;&gt;pyVHDLModel.SyntaxModel.GenericConstantInterfaceItem -->
<g id="edge8" class="edge">
<title>pyVHDLModel.SyntaxModel.InterfaceItemWithMode&#45;&gt;pyVHDLModel.SyntaxModel.GenericConstantInterfaceItem</title>
<path fill="none" stroke="#000000" stroke-width=".5" d="M978.1655,-19.0284C1024.3175,-24.3481 1081.7988,-30.9737 1128.7472,-36.3852"/>
<polygon fill="#000000" stroke="#000000" stroke-width=".5" points="1128.6686,-38.1376 1133.8362,-36.9718 1129.0695,-34.6607 1128.6686,-38.1376"/>
</g>
<!-- pyVHDLModel.SyntaxModel.InterfaceItem -->
<g id="node12" class="node">
<title>pyVHDLModel.SyntaxModel.InterfaceItem</title>
<g id="a_node12"><a xlink:title="An ``InterfaceItem`` is a base&#45;class for all mixin&#45;classes for all interface">
<polygon fill="none" stroke="#000000" stroke-width=".5" points="689,-56 469,-56 469,-37 689,-37 689,-56"/>
<text text-anchor="middle" x="579" y="-44" font-family="Vera Sans, DejaVu Sans, Liberation Sans, Arial, Helvetica, sans" font-size="10.00" fill="#000000">pyVHDLModel.SyntaxModel.InterfaceItem</text>
</a>
</g>
</g>
<!-- pyVHDLModel.SyntaxModel.InterfaceItem&#45;&gt;pyVHDLModel.SyntaxModel.GenericInterfaceItem -->
<g id="edge9" class="edge">
<title>pyVHDLModel.SyntaxModel.InterfaceItem&#45;&gt;pyVHDLModel.SyntaxModel.GenericInterfaceItem</title>
<path fill="none" stroke="#000000" stroke-width=".5" d="M689.252,-46.5C712.6529,-46.5 737.6005,-46.5 761.7664,-46.5"/>
<polygon fill="#000000" stroke="#000000" stroke-width=".5" points="761.9104,-48.2501 766.9104,-46.5 761.9104,-44.7501 761.9104,-48.2501"/>
</g>
</g>
</svg>
