<?xml version="1.0" encoding="UTF-8" standalone="no"?>
<!DOCTYPE svg PUBLIC "-//W3C//DTD SVG 1.1//EN"
 "http://www.w3.org/Graphics/SVG/1.1/DTD/svg11.dtd">
<!-- Generated by graphviz version 2.40.1 (20161225.0304)
 -->
<!-- Title: inheritance66ed0a96dd Pages: 1 -->
<svg width="576pt" height="23pt"
 viewBox="0.00 0.00 576.00 22.85" xmlns="http://www.w3.org/2000/svg" xmlns:xlink="http://www.w3.org/1999/xlink">
<g id="graph0" class="graph" transform="scale(.3571 .3571) rotate(0) translate(4 60)">
<title>inheritance66ed0a96dd</title>
<polygon fill="#ffffff" stroke="transparent" points="-4,4 -4,-60 1609,-60 1609,4 -4,4"/>
<!-- pyGHDL.dom.DOMMixin -->
<g id="node1" class="node">
<title>pyGHDL.dom.DOMMixin</title>
<g id="a_node1"><a xlink:href="../pyGHDL.dom.html#pyGHDL.dom.DOMMixin" xlink:title="pyGHDL.dom.DOMMixin" target="_top">
<polygon fill="none" stroke="#000000" stroke-width=".5" points="1228.5,-56 1094.5,-56 1094.5,-37 1228.5,-37 1228.5,-56"/>
<text text-anchor="middle" x="1161.5" y="-44" font-family="Vera Sans, DejaVu Sans, Liberation Sans, Arial, Helvetica, sans" font-size="10.00" fill="#000000">pyGHDL.dom.DOMMixin</text>
</a>
</g>
</g>
<!-- pyGHDL.dom.Expression.ExponentiationExpression -->
<g id="node2" class="node">
<title>pyGHDL.dom.Expression.ExponentiationExpression</title>
<g id="a_node2"><a xlink:href="../pyGHDL/pyGHDL.dom.Expression.html#pyGHDL.dom.Expression.ExponentiationExpression" xlink:title="pyGHDL.dom.Expression.ExponentiationExpression" target="_top">
<polygon fill="none" stroke="#000000" stroke-width=".5" points="1605,-37 1338,-37 1338,-18 1605,-18 1605,-37"/>
<text text-anchor="middle" x="1471.5" y="-25" font-family="Vera Sans, DejaVu Sans, Liberation Sans, Arial, Helvetica, sans" font-size="10.00" fill="#000000">pyGHDL.dom.Expression.ExponentiationExpression</text>
</a>
</g>
</g>
<!-- pyGHDL.dom.DOMMixin&#45;&gt;pyGHDL.dom.Expression.ExponentiationExpression -->
<g id="edge2" class="edge">
<title>pyGHDL.dom.DOMMixin&#45;&gt;pyGHDL.dom.Expression.ExponentiationExpression</title>
<path fill="none" stroke="#000000" stroke-width=".5" d="M1228.7654,-42.3773C1259.2312,-40.51 1296.4398,-38.2295 1332.4831,-36.0204"/>
<polygon fill="#000000" stroke="#000000" stroke-width=".5" points="1332.9081,-37.7477 1337.7916,-35.695 1332.6939,-34.2543 1332.9081,-37.7477"/>
</g>
<!-- pyVHDLModel.SyntaxModel.ExponentiationExpression -->
<g id="node3" class="node">
<title>pyVHDLModel.SyntaxModel.ExponentiationExpression</title>
<polygon fill="none" stroke="#000000" stroke-width=".5" points="1302,-19 1021,-19 1021,0 1302,0 1302,-19"/>
<text text-anchor="middle" x="1161.5" y="-7" font-family="Vera Sans, DejaVu Sans, Liberation Sans, Arial, Helvetica, sans" font-size="10.00" fill="#000000">pyVHDLModel.SyntaxModel.ExponentiationExpression</text>
</g>
<!-- pyVHDLModel.SyntaxModel.ExponentiationExpression&#45;&gt;pyGHDL.dom.Expression.ExponentiationExpression -->
<g id="edge1" class="edge">
<title>pyVHDLModel.SyntaxModel.ExponentiationExpression&#45;&gt;pyGHDL.dom.Expression.ExponentiationExpression</title>
<path fill="none" stroke="#000000" stroke-width=".5" d="M1302.4401,-17.6836C1312.519,-18.2688 1322.6779,-18.8587 1332.7444,-19.4432"/>
<polygon fill="#000000" stroke="#000000" stroke-width=".5" points="1332.9061,-21.2055 1337.9991,-19.7483 1333.109,-17.7114 1332.9061,-21.2055"/>
</g>
<!-- pyVHDLModel.ModelEntity -->
<g id="node4" class="node">
<title>pyVHDLModel.ModelEntity</title>
<g id="a_node4"><a xlink:title="``ModelEntity`` is the base class for all classes in the VHDL language model,">
<polygon fill="none" stroke="#000000" stroke-width=".5" points="146,-19 0,-19 0,0 146,0 146,-19"/>
<text text-anchor="middle" x="73" y="-7" font-family="Vera Sans, DejaVu Sans, Liberation Sans, Arial, Helvetica, sans" font-size="10.00" fill="#000000">pyVHDLModel.ModelEntity</text>
</a>
</g>
</g>
<!-- pyVHDLModel.SyntaxModel.BaseExpression -->
<g id="node5" class="node">
<title>pyVHDLModel.SyntaxModel.BaseExpression</title>
<g id="a_node5"><a xlink:title="A ``BaseExpression`` is a base&#45;class for all expressions.">
<polygon fill="none" stroke="#000000" stroke-width=".5" points="413,-19 182,-19 182,0 413,0 413,-19"/>
<text text-anchor="middle" x="297.5" y="-7" font-family="Vera Sans, DejaVu Sans, Liberation Sans, Arial, Helvetica, sans" font-size="10.00" fill="#000000">pyVHDLModel.SyntaxModel.BaseExpression</text>
</a>
</g>
</g>
<!-- pyVHDLModel.ModelEntity&#45;&gt;pyVHDLModel.SyntaxModel.BaseExpression -->
<g id="edge3" class="edge">
<title>pyVHDLModel.ModelEntity&#45;&gt;pyVHDLModel.SyntaxModel.BaseExpression</title>
<path fill="none" stroke="#000000" stroke-width=".5" d="M146.1991,-9.5C155.9857,-9.5 166.2247,-9.5 176.5627,-9.5"/>
<polygon fill="#000000" stroke="#000000" stroke-width=".5" points="176.6441,-11.2501 181.644,-9.5 176.644,-7.7501 176.6441,-11.2501"/>
</g>
<!-- pyVHDLModel.SyntaxModel.BinaryExpression -->
<g id="node6" class="node">
<title>pyVHDLModel.SyntaxModel.BinaryExpression</title>
<g id="a_node6"><a xlink:title="A ``BinaryExpression`` is a base&#45;class for all binary expressions.">
<polygon fill="none" stroke="#000000" stroke-width=".5" points="688,-19 449,-19 449,0 688,0 688,-19"/>
<text text-anchor="middle" x="568.5" y="-7" font-family="Vera Sans, DejaVu Sans, Liberation Sans, Arial, Helvetica, sans" font-size="10.00" fill="#000000">pyVHDLModel.SyntaxModel.BinaryExpression</text>
</a>
</g>
</g>
<!-- pyVHDLModel.SyntaxModel.BaseExpression&#45;&gt;pyVHDLModel.SyntaxModel.BinaryExpression -->
<g id="edge4" class="edge">
<title>pyVHDLModel.SyntaxModel.BaseExpression&#45;&gt;pyVHDLModel.SyntaxModel.BinaryExpression</title>
<path fill="none" stroke="#000000" stroke-width=".5" d="M413.2145,-9.5C423.3522,-9.5 433.6409,-9.5 443.8471,-9.5"/>
<polygon fill="#000000" stroke="#000000" stroke-width=".5" points="443.8497,-11.2501 448.8497,-9.5 443.8496,-7.7501 443.8497,-11.2501"/>
</g>
<!-- pyVHDLModel.SyntaxModel.MultiplyingExpression -->
<g id="node7" class="node">
<title>pyVHDLModel.SyntaxModel.MultiplyingExpression</title>
<g id="a_node7"><a xlink:title="A ``MultiplyingExpression`` is a base&#45;class for all multiplying expressions.">
<polygon fill="none" stroke="#000000" stroke-width=".5" points="985,-19 724,-19 724,0 985,0 985,-19"/>
<text text-anchor="middle" x="854.5" y="-7" font-family="Vera Sans, DejaVu Sans, Liberation Sans, Arial, Helvetica, sans" font-size="10.00" fill="#000000">pyVHDLModel.SyntaxModel.MultiplyingExpression</text>
</a>
</g>
</g>
<!-- pyVHDLModel.SyntaxModel.BinaryExpression&#45;&gt;pyVHDLModel.SyntaxModel.MultiplyingExpression -->
<g id="edge6" class="edge">
<title>pyVHDLModel.SyntaxModel.BinaryExpression&#45;&gt;pyVHDLModel.SyntaxModel.MultiplyingExpression</title>
<path fill="none" stroke="#000000" stroke-width=".5" d="M688.1326,-9.5C698.2615,-9.5 708.5511,-9.5 718.7908,-9.5"/>
<polygon fill="#000000" stroke="#000000" stroke-width=".5" points="718.8126,-11.2501 723.8126,-9.5 718.8126,-7.7501 718.8126,-11.2501"/>
</g>
<!-- pyVHDLModel.SyntaxModel.MultiplyingExpression&#45;&gt;pyVHDLModel.SyntaxModel.ExponentiationExpression -->
<g id="edge5" class="edge">
<title>pyVHDLModel.SyntaxModel.MultiplyingExpression&#45;&gt;pyVHDLModel.SyntaxModel.ExponentiationExpression</title>
<path fill="none" stroke="#000000" stroke-width=".5" d="M985.1408,-9.5C995.1469,-9.5 1005.2856,-9.5 1015.3816,-9.5"/>
<polygon fill="#000000" stroke="#000000" stroke-width=".5" points="1015.6563,-11.2501 1020.6563,-9.5 1015.6563,-7.7501 1015.6563,-11.2501"/>
</g>
</g>
</svg>
