<?xml version="1.0" encoding="UTF-8" standalone="no"?>
<!DOCTYPE svg PUBLIC "-//W3C//DTD SVG 1.1//EN"
 "http://www.w3.org/Graphics/SVG/1.1/DTD/svg11.dtd">
<!-- Generated by graphviz version 2.40.1 (20161225.0304)
 -->
<!-- Title: inheritanceaf6960959e Pages: 1 -->
<svg width="576pt" height="41pt"
 viewBox="0.00 0.00 576.00 41.14" xmlns="http://www.w3.org/2000/svg" xmlns:xlink="http://www.w3.org/1999/xlink">
<g id="graph0" class="graph" transform="scale(.5017 .5017) rotate(0) translate(4 78)">
<title>inheritanceaf6960959e</title>
<polygon fill="#ffffff" stroke="transparent" points="-4,4 -4,-78 1144,-78 1144,4 -4,4"/>
<!-- pyGHDL.dom.DOMMixin -->
<g id="node1" class="node">
<title>pyGHDL.dom.DOMMixin</title>
<g id="a_node1"><a xlink:href="../pyGHDL.dom.html#pyGHDL.dom.DOMMixin" xlink:title="pyGHDL.dom.DOMMixin" target="_top">
<polygon fill="none" stroke="#000000" stroke-width=".5" points="844,-74 710,-74 710,-55 844,-55 844,-74"/>
<text text-anchor="middle" x="777" y="-62" font-family="Vera Sans, DejaVu Sans, Liberation Sans, Arial, Helvetica, sans" font-size="10.00" fill="#000000">pyGHDL.dom.DOMMixin</text>
</a>
</g>
</g>
<!-- pyGHDL.dom.Type.ProtectedTypeBody -->
<g id="node2" class="node">
<title>pyGHDL.dom.Type.ProtectedTypeBody</title>
<g id="a_node2"><a xlink:href="../pyGHDL/pyGHDL.dom.Type.html#pyGHDL.dom.Type.ProtectedTypeBody" xlink:title="pyGHDL.dom.Type.ProtectedTypeBody" target="_top">
<polygon fill="none" stroke="#000000" stroke-width=".5" points="1140,-55 937,-55 937,-36 1140,-36 1140,-55"/>
<text text-anchor="middle" x="1038.5" y="-43" font-family="Vera Sans, DejaVu Sans, Liberation Sans, Arial, Helvetica, sans" font-size="10.00" fill="#000000">pyGHDL.dom.Type.ProtectedTypeBody</text>
</a>
</g>
</g>
<!-- pyGHDL.dom.DOMMixin&#45;&gt;pyGHDL.dom.Type.ProtectedTypeBody -->
<g id="edge2" class="edge">
<title>pyGHDL.dom.DOMMixin&#45;&gt;pyGHDL.dom.Type.ProtectedTypeBody</title>
<path fill="none" stroke="#000000" stroke-width=".5" d="M844.0032,-59.6317C870.682,-57.6933 902.049,-55.4142 931.7122,-53.259"/>
<polygon fill="#000000" stroke="#000000" stroke-width=".5" points="931.982,-54.9941 936.842,-52.8862 931.7283,-51.5033 931.982,-54.9941"/>
</g>
<!-- pyVHDLModel.SyntaxModel.ProtectedTypeBody -->
<g id="node3" class="node">
<title>pyVHDLModel.SyntaxModel.ProtectedTypeBody</title>
<polygon fill="none" stroke="#000000" stroke-width=".5" points="901,-37 653,-37 653,-18 901,-18 901,-37"/>
<text text-anchor="middle" x="777" y="-25" font-family="Vera Sans, DejaVu Sans, Liberation Sans, Arial, Helvetica, sans" font-size="10.00" fill="#000000">pyVHDLModel.SyntaxModel.ProtectedTypeBody</text>
</g>
<!-- pyVHDLModel.SyntaxModel.ProtectedTypeBody&#45;&gt;pyGHDL.dom.Type.ProtectedTypeBody -->
<g id="edge1" class="edge">
<title>pyVHDLModel.SyntaxModel.ProtectedTypeBody&#45;&gt;pyGHDL.dom.Type.ProtectedTypeBody</title>
<path fill="none" stroke="#000000" stroke-width=".5" d="M901.2404,-36.0519C911.3401,-36.7471 921.4917,-37.4459 931.4534,-38.1316"/>
<polygon fill="#000000" stroke="#000000" stroke-width=".5" points="931.5357,-39.8913 936.6441,-38.4889 931.7761,-36.3996 931.5357,-39.8913"/>
</g>
<!-- pyVHDLModel.ModelEntity -->
<g id="node4" class="node">
<title>pyVHDLModel.ModelEntity</title>
<g id="a_node4"><a xlink:title="``ModelEntity`` is the base class for all classes in the VHDL language model,">
<polygon fill="none" stroke="#000000" stroke-width=".5" points="149,-56 3,-56 3,-37 149,-37 149,-56"/>
<text text-anchor="middle" x="76" y="-44" font-family="Vera Sans, DejaVu Sans, Liberation Sans, Arial, Helvetica, sans" font-size="10.00" fill="#000000">pyVHDLModel.ModelEntity</text>
</a>
</g>
</g>
<!-- pyVHDLModel.SyntaxModel.BaseType -->
<g id="node6" class="node">
<title>pyVHDLModel.SyntaxModel.BaseType</title>
<g id="a_node6"><a xlink:title="``BaseType`` is the base class of all type entities in this model.">
<polygon fill="none" stroke="#000000" stroke-width=".5" points="388,-37 188,-37 188,-18 388,-18 388,-37"/>
<text text-anchor="middle" x="288" y="-25" font-family="Vera Sans, DejaVu Sans, Liberation Sans, Arial, Helvetica, sans" font-size="10.00" fill="#000000">pyVHDLModel.SyntaxModel.BaseType</text>
</a>
</g>
</g>
<!-- pyVHDLModel.ModelEntity&#45;&gt;pyVHDLModel.SyntaxModel.BaseType -->
<g id="edge3" class="edge">
<title>pyVHDLModel.ModelEntity&#45;&gt;pyVHDLModel.SyntaxModel.BaseType</title>
<path fill="none" stroke="#000000" stroke-width=".5" d="M149.2552,-39.9347C160.0491,-38.9673 171.3454,-37.9549 182.632,-36.9434"/>
<polygon fill="#000000" stroke="#000000" stroke-width=".5" points="182.9915,-38.6682 187.8153,-36.4788 182.679,-35.1822 182.9915,-38.6682"/>
</g>
<!-- pyVHDLModel.NamedEntity -->
<g id="node5" class="node">
<title>pyVHDLModel.NamedEntity</title>
<g id="a_node5"><a xlink:title="A ``NamedEntity`` is a mixin class for all VHDL entities that have identifiers.">
<polygon fill="none" stroke="#000000" stroke-width=".5" points="152,-19 0,-19 0,0 152,0 152,-19"/>
<text text-anchor="middle" x="76" y="-7" font-family="Vera Sans, DejaVu Sans, Liberation Sans, Arial, Helvetica, sans" font-size="10.00" fill="#000000">pyVHDLModel.NamedEntity</text>
</a>
</g>
</g>
<!-- pyVHDLModel.NamedEntity&#45;&gt;pyVHDLModel.SyntaxModel.BaseType -->
<g id="edge4" class="edge">
<title>pyVHDLModel.NamedEntity&#45;&gt;pyVHDLModel.SyntaxModel.BaseType</title>
<path fill="none" stroke="#000000" stroke-width=".5" d="M152.2374,-15.973C162.1327,-16.8132 172.4047,-17.6853 182.6683,-18.5567"/>
<polygon fill="#000000" stroke="#000000" stroke-width=".5" points="182.5743,-20.305 187.7045,-18.9843 182.8705,-16.8175 182.5743,-20.305"/>
</g>
<!-- pyVHDLModel.SyntaxModel.FullType -->
<g id="node7" class="node">
<title>pyVHDLModel.SyntaxModel.FullType</title>
<polygon fill="none" stroke="#000000" stroke-width=".5" points="617,-37 424,-37 424,-18 617,-18 617,-37"/>
<text text-anchor="middle" x="520.5" y="-25" font-family="Vera Sans, DejaVu Sans, Liberation Sans, Arial, Helvetica, sans" font-size="10.00" fill="#000000">pyVHDLModel.SyntaxModel.FullType</text>
</g>
<!-- pyVHDLModel.SyntaxModel.BaseType&#45;&gt;pyVHDLModel.SyntaxModel.FullType -->
<g id="edge5" class="edge">
<title>pyVHDLModel.SyntaxModel.BaseType&#45;&gt;pyVHDLModel.SyntaxModel.FullType</title>
<path fill="none" stroke="#000000" stroke-width=".5" d="M388.2879,-27.5C398.3351,-27.5 408.5445,-27.5 418.6082,-27.5"/>
<polygon fill="#000000" stroke="#000000" stroke-width=".5" points="418.8559,-29.2501 423.8559,-27.5 418.8558,-25.7501 418.8559,-29.2501"/>
</g>
<!-- pyVHDLModel.SyntaxModel.FullType&#45;&gt;pyVHDLModel.SyntaxModel.ProtectedTypeBody -->
<g id="edge6" class="edge">
<title>pyVHDLModel.SyntaxModel.FullType&#45;&gt;pyVHDLModel.SyntaxModel.ProtectedTypeBody</title>
<path fill="none" stroke="#000000" stroke-width=".5" d="M617.1062,-27.5C627.1135,-27.5 637.3951,-27.5 647.6858,-27.5"/>
<polygon fill="#000000" stroke="#000000" stroke-width=".5" points="647.7372,-29.2501 652.7372,-27.5 647.7371,-25.7501 647.7372,-29.2501"/>
</g>
</g>
</svg>
