<?xml version="1.0" encoding="UTF-8" standalone="no"?>
<!DOCTYPE svg PUBLIC "-//W3C//DTD SVG 1.1//EN"
 "http://www.w3.org/Graphics/SVG/1.1/DTD/svg11.dtd">
<!-- Generated by graphviz version 2.40.1 (20161225.0304)
 -->
<!-- Title: inheritanced17c57cb45 Pages: 1 -->
<svg width="576pt" height="42pt"
 viewBox="0.00 0.00 576.00 41.51" xmlns="http://www.w3.org/2000/svg" xmlns:xlink="http://www.w3.org/1999/xlink">
<g id="graph0" class="graph" transform="scale(.6486 .6486) rotate(0) translate(4 60)">
<title>inheritanced17c57cb45</title>
<polygon fill="#ffffff" stroke="transparent" points="-4,4 -4,-60 884,-60 884,4 -4,4"/>
<!-- pyGHDL.dom.DOMMixin -->
<g id="node1" class="node">
<title>pyGHDL.dom.DOMMixin</title>
<g id="a_node1"><a xlink:href="../pyGHDL.dom.html#pyGHDL.dom.DOMMixin" xlink:title="pyGHDL.dom.DOMMixin" target="_top">
<polygon fill="none" stroke="#000000" stroke-width=".5" points="618,-56 484,-56 484,-37 618,-37 618,-56"/>
<text text-anchor="middle" x="551" y="-44" font-family="Vera Sans, DejaVu Sans, Liberation Sans, Arial, Helvetica, sans" font-size="10.00" fill="#000000">pyGHDL.dom.DOMMixin</text>
</a>
</g>
</g>
<!-- pyGHDL.dom.Expression.Aggregate -->
<g id="node2" class="node">
<title>pyGHDL.dom.Expression.Aggregate</title>
<g id="a_node2"><a xlink:href="../pyGHDL/pyGHDL.dom.Expression.html#pyGHDL.dom.Expression.Aggregate" xlink:title="pyGHDL.dom.Expression.Aggregate" target="_top">
<polygon fill="none" stroke="#000000" stroke-width=".5" points="880,-37 689,-37 689,-18 880,-18 880,-37"/>
<text text-anchor="middle" x="784.5" y="-25" font-family="Vera Sans, DejaVu Sans, Liberation Sans, Arial, Helvetica, sans" font-size="10.00" fill="#000000">pyGHDL.dom.Expression.Aggregate</text>
</a>
</g>
</g>
<!-- pyGHDL.dom.DOMMixin&#45;&gt;pyGHDL.dom.Expression.Aggregate -->
<g id="edge2" class="edge">
<title>pyGHDL.dom.DOMMixin&#45;&gt;pyGHDL.dom.Expression.Aggregate</title>
<path fill="none" stroke="#000000" stroke-width=".5" d="M618.2246,-41.0299C638.6411,-39.3686 661.538,-37.5055 683.6584,-35.7055"/>
<polygon fill="#000000" stroke="#000000" stroke-width=".5" points="683.8211,-37.4482 688.6626,-35.2983 683.5371,-33.9597 683.8211,-37.4482"/>
</g>
<!-- pyVHDLModel.SyntaxModel.Aggregate -->
<g id="node3" class="node">
<title>pyVHDLModel.SyntaxModel.Aggregate</title>
<polygon fill="none" stroke="#000000" stroke-width=".5" points="653,-19 449,-19 449,0 653,0 653,-19"/>
<text text-anchor="middle" x="551" y="-7" font-family="Vera Sans, DejaVu Sans, Liberation Sans, Arial, Helvetica, sans" font-size="10.00" fill="#000000">pyVHDLModel.SyntaxModel.Aggregate</text>
</g>
<!-- pyVHDLModel.SyntaxModel.Aggregate&#45;&gt;pyGHDL.dom.Expression.Aggregate -->
<g id="edge1" class="edge">
<title>pyVHDLModel.SyntaxModel.Aggregate&#45;&gt;pyGHDL.dom.Expression.Aggregate</title>
<path fill="none" stroke="#000000" stroke-width=".5" d="M653.0768,-17.3689C663.3065,-18.1575 673.6888,-18.9578 683.9029,-19.7452"/>
<polygon fill="#000000" stroke="#000000" stroke-width=".5" points="683.7825,-21.491 688.9023,-20.1306 684.0516,-18.0014 683.7825,-21.491"/>
</g>
<!-- pyVHDLModel.ModelEntity -->
<g id="node4" class="node">
<title>pyVHDLModel.ModelEntity</title>
<g id="a_node4"><a xlink:title="``ModelEntity`` is the base class for all classes in the VHDL language model,">
<polygon fill="none" stroke="#000000" stroke-width=".5" points="146,-19 0,-19 0,0 146,0 146,-19"/>
<text text-anchor="middle" x="73" y="-7" font-family="Vera Sans, DejaVu Sans, Liberation Sans, Arial, Helvetica, sans" font-size="10.00" fill="#000000">pyVHDLModel.ModelEntity</text>
</a>
</g>
</g>
<!-- pyVHDLModel.SyntaxModel.BaseExpression -->
<g id="node5" class="node">
<title>pyVHDLModel.SyntaxModel.BaseExpression</title>
<g id="a_node5"><a xlink:title="A ``BaseExpression`` is a base&#45;class for all expressions.">
<polygon fill="none" stroke="#000000" stroke-width=".5" points="413,-19 182,-19 182,0 413,0 413,-19"/>
<text text-anchor="middle" x="297.5" y="-7" font-family="Vera Sans, DejaVu Sans, Liberation Sans, Arial, Helvetica, sans" font-size="10.00" fill="#000000">pyVHDLModel.SyntaxModel.BaseExpression</text>
</a>
</g>
</g>
<!-- pyVHDLModel.ModelEntity&#45;&gt;pyVHDLModel.SyntaxModel.BaseExpression -->
<g id="edge4" class="edge">
<title>pyVHDLModel.ModelEntity&#45;&gt;pyVHDLModel.SyntaxModel.BaseExpression</title>
<path fill="none" stroke="#000000" stroke-width=".5" d="M146.1991,-9.5C155.9857,-9.5 166.2247,-9.5 176.5627,-9.5"/>
<polygon fill="#000000" stroke="#000000" stroke-width=".5" points="176.6441,-11.2501 181.644,-9.5 176.644,-7.7501 176.6441,-11.2501"/>
</g>
<!-- pyVHDLModel.SyntaxModel.BaseExpression&#45;&gt;pyVHDLModel.SyntaxModel.Aggregate -->
<g id="edge3" class="edge">
<title>pyVHDLModel.SyntaxModel.BaseExpression&#45;&gt;pyVHDLModel.SyntaxModel.Aggregate</title>
<path fill="none" stroke="#000000" stroke-width=".5" d="M413.1226,-9.5C423.2417,-9.5 433.4561,-9.5 443.5052,-9.5"/>
<polygon fill="#000000" stroke="#000000" stroke-width=".5" points="443.7438,-11.2501 448.7438,-9.5 443.7438,-7.7501 443.7438,-11.2501"/>
</g>
</g>
</svg>
