<?xml version="1.0" encoding="UTF-8" standalone="no"?>
<!DOCTYPE svg PUBLIC "-//W3C//DTD SVG 1.1//EN"
 "http://www.w3.org/Graphics/SVG/1.1/DTD/svg11.dtd">
<!-- Generated by graphviz version 2.40.1 (20161225.0304)
 -->
<!-- Title: inheritancebaebe042c2 Pages: 1 -->
<svg width="576pt" height="55pt"
 viewBox="0.00 0.00 576.00 55.43" xmlns="http://www.w3.org/2000/svg" xmlns:xlink="http://www.w3.org/1999/xlink">
<g id="graph0" class="graph" transform="scale(.8662 .8662) rotate(0) translate(4 60)">
<title>inheritancebaebe042c2</title>
<polygon fill="#ffffff" stroke="transparent" points="-4,4 -4,-60 661,-60 661,4 -4,4"/>
<!-- pyGHDL.dom.DOMMixin -->
<g id="node1" class="node">
<title>pyGHDL.dom.DOMMixin</title>
<g id="a_node1"><a xlink:href="../pyGHDL.dom.html#pyGHDL.dom.DOMMixin" xlink:title="pyGHDL.dom.DOMMixin" target="_top">
<polygon fill="none" stroke="#000000" stroke-width=".5" points="394.5,-56 260.5,-56 260.5,-37 394.5,-37 394.5,-56"/>
<text text-anchor="middle" x="327.5" y="-44" font-family="Vera Sans, DejaVu Sans, Liberation Sans, Arial, Helvetica, sans" font-size="10.00" fill="#000000">pyGHDL.dom.DOMMixin</text>
</a>
</g>
</g>
<!-- pyGHDL.dom.Names.SimpleName -->
<g id="node2" class="node">
<title>pyGHDL.dom.Names.SimpleName</title>
<g id="a_node2"><a xlink:href="../pyGHDL/pyGHDL.dom.Names.html#pyGHDL.dom.Names.SimpleName" xlink:title="pyGHDL.dom.Names.SimpleName" target="_top">
<polygon fill="none" stroke="#000000" stroke-width=".5" points="657,-37 472,-37 472,-18 657,-18 657,-37"/>
<text text-anchor="middle" x="564.5" y="-25" font-family="Vera Sans, DejaVu Sans, Liberation Sans, Arial, Helvetica, sans" font-size="10.00" fill="#000000">pyGHDL.dom.Names.SimpleName</text>
</a>
</g>
</g>
<!-- pyGHDL.dom.DOMMixin&#45;&gt;pyGHDL.dom.Names.SimpleName -->
<g id="edge2" class="edge">
<title>pyGHDL.dom.DOMMixin&#45;&gt;pyGHDL.dom.Names.SimpleName</title>
<path fill="none" stroke="#000000" stroke-width=".5" d="M394.7807,-41.1062C417.1393,-39.3137 442.5102,-37.2798 466.6943,-35.341"/>
<polygon fill="#000000" stroke="#000000" stroke-width=".5" points="466.9913,-37.0729 471.8354,-34.9288 466.7116,-33.5841 466.9913,-37.0729"/>
</g>
<!-- pyVHDLModel.SyntaxModel.SimpleName -->
<g id="node3" class="node">
<title>pyVHDLModel.SyntaxModel.SimpleName</title>
<polygon fill="none" stroke="#000000" stroke-width=".5" points="436,-19 219,-19 219,0 436,0 436,-19"/>
<text text-anchor="middle" x="327.5" y="-7" font-family="Vera Sans, DejaVu Sans, Liberation Sans, Arial, Helvetica, sans" font-size="10.00" fill="#000000">pyVHDLModel.SyntaxModel.SimpleName</text>
</g>
<!-- pyVHDLModel.SyntaxModel.SimpleName&#45;&gt;pyGHDL.dom.Names.SimpleName -->
<g id="edge1" class="edge">
<title>pyVHDLModel.SyntaxModel.SimpleName&#45;&gt;pyGHDL.dom.Names.SimpleName</title>
<path fill="none" stroke="#000000" stroke-width=".5" d="M436.289,-17.7625C446.4441,-18.5337 456.6949,-19.3123 466.7405,-20.0752"/>
<polygon fill="#000000" stroke="#000000" stroke-width=".5" points="466.8552,-21.8389 471.9734,-20.4727 467.1204,-18.3489 466.8552,-21.8389"/>
</g>
<!-- pyVHDLModel.SyntaxModel.Name -->
<g id="node4" class="node">
<title>pyVHDLModel.SyntaxModel.Name</title>
<g id="a_node4"><a xlink:title="``Name`` is the base class for all *names* in the VHDL language model.">
<polygon fill="none" stroke="#000000" stroke-width=".5" points="183,-19 0,-19 0,0 183,0 183,-19"/>
<text text-anchor="middle" x="91.5" y="-7" font-family="Vera Sans, DejaVu Sans, Liberation Sans, Arial, Helvetica, sans" font-size="10.00" fill="#000000">pyVHDLModel.SyntaxModel.Name</text>
</a>
</g>
</g>
<!-- pyVHDLModel.SyntaxModel.Name&#45;&gt;pyVHDLModel.SyntaxModel.SimpleName -->
<g id="edge3" class="edge">
<title>pyVHDLModel.SyntaxModel.Name&#45;&gt;pyVHDLModel.SyntaxModel.SimpleName</title>
<path fill="none" stroke="#000000" stroke-width=".5" d="M183.0815,-9.5C193.1027,-9.5 203.3918,-9.5 213.6392,-9.5"/>
<polygon fill="#000000" stroke="#000000" stroke-width=".5" points="213.6651,-11.2501 218.6651,-9.5 213.665,-7.7501 213.6651,-11.2501"/>
</g>
</g>
</svg>
