<?xml version="1.0" encoding="UTF-8" standalone="no"?>
<!DOCTYPE svg PUBLIC "-//W3C//DTD SVG 1.1//EN"
 "http://www.w3.org/Graphics/SVG/1.1/DTD/svg11.dtd">
<!-- Generated by graphviz version 2.40.1 (20161225.0304)
 -->
<!-- Title: inheritancef3ee9220c6 Pages: 1 -->
<svg width="576pt" height="78pt"
 viewBox="0.00 0.00 576.00 78.46" xmlns="http://www.w3.org/2000/svg" xmlns:xlink="http://www.w3.org/1999/xlink">
<g id="graph0" class="graph" transform="scale(.9568 .9568) rotate(0) translate(4 78)">
<title>inheritancef3ee9220c6</title>
<polygon fill="#ffffff" stroke="transparent" points="-4,4 -4,-78 598,-78 598,4 -4,4"/>
<!-- pyGHDL.dom.Attribute.Attribute -->
<g id="node1" class="node">
<title>pyGHDL.dom.Attribute.Attribute</title>
<g id="a_node1"><a xlink:href="../pyGHDL/pyGHDL.dom.Attribute.html#pyGHDL.dom.Attribute.Attribute" xlink:title="pyGHDL.dom.Attribute.Attribute" target="_top">
<polygon fill="none" stroke="#000000" stroke-width=".5" points="594,-37 421,-37 421,-18 594,-18 594,-37"/>
<text text-anchor="middle" x="507.5" y="-25" font-family="Vera Sans, DejaVu Sans, Liberation Sans, Arial, Helvetica, sans" font-size="10.00" fill="#000000">pyGHDL.dom.Attribute.Attribute</text>
</a>
</g>
</g>
<!-- pyVHDLModel.SyntaxModel.Attribute -->
<g id="node2" class="node">
<title>pyVHDLModel.SyntaxModel.Attribute</title>
<polygon fill="none" stroke="#000000" stroke-width=".5" points="385,-56 188,-56 188,-37 385,-37 385,-56"/>
<text text-anchor="middle" x="286.5" y="-44" font-family="Vera Sans, DejaVu Sans, Liberation Sans, Arial, Helvetica, sans" font-size="10.00" fill="#000000">pyVHDLModel.SyntaxModel.Attribute</text>
</g>
<!-- pyVHDLModel.SyntaxModel.Attribute&#45;&gt;pyGHDL.dom.Attribute.Attribute -->
<g id="edge1" class="edge">
<title>pyVHDLModel.SyntaxModel.Attribute&#45;&gt;pyGHDL.dom.Attribute.Attribute</title>
<path fill="none" stroke="#000000" stroke-width=".5" d="M385.0428,-38.028C395.3303,-37.1436 405.7576,-36.2471 415.9624,-35.3697"/>
<polygon fill="#000000" stroke="#000000" stroke-width=".5" points="416.121,-37.1127 420.9527,-34.9407 415.8211,-33.6255 416.121,-37.1127"/>
</g>
<!-- pyGHDL.dom.DOMMixin -->
<g id="node3" class="node">
<title>pyGHDL.dom.DOMMixin</title>
<g id="a_node3"><a xlink:href="../pyGHDL.dom.html#pyGHDL.dom.DOMMixin" xlink:title="pyGHDL.dom.DOMMixin" target="_top">
<polygon fill="none" stroke="#000000" stroke-width=".5" points="353.5,-19 219.5,-19 219.5,0 353.5,0 353.5,-19"/>
<text text-anchor="middle" x="286.5" y="-7" font-family="Vera Sans, DejaVu Sans, Liberation Sans, Arial, Helvetica, sans" font-size="10.00" fill="#000000">pyGHDL.dom.DOMMixin</text>
</a>
</g>
</g>
<!-- pyGHDL.dom.DOMMixin&#45;&gt;pyGHDL.dom.Attribute.Attribute -->
<g id="edge2" class="edge">
<title>pyGHDL.dom.DOMMixin&#45;&gt;pyGHDL.dom.Attribute.Attribute</title>
<path fill="none" stroke="#000000" stroke-width=".5" d="M353.7074,-14.9739C373.141,-16.5567 394.6966,-18.3124 415.3697,-19.9962"/>
<polygon fill="#000000" stroke="#000000" stroke-width=".5" points="415.4791,-21.7608 420.6047,-20.4226 415.7633,-18.2723 415.4791,-21.7608"/>
</g>
<!-- pyVHDLModel.ModelEntity -->
<g id="node4" class="node">
<title>pyVHDLModel.ModelEntity</title>
<g id="a_node4"><a xlink:title="``ModelEntity`` is the base class for all classes in the VHDL language model,">
<polygon fill="none" stroke="#000000" stroke-width=".5" points="149,-74 3,-74 3,-55 149,-55 149,-74"/>
<text text-anchor="middle" x="76" y="-62" font-family="Vera Sans, DejaVu Sans, Liberation Sans, Arial, Helvetica, sans" font-size="10.00" fill="#000000">pyVHDLModel.ModelEntity</text>
</a>
</g>
</g>
<!-- pyVHDLModel.ModelEntity&#45;&gt;pyVHDLModel.SyntaxModel.Attribute -->
<g id="edge3" class="edge">
<title>pyVHDLModel.ModelEntity&#45;&gt;pyVHDLModel.SyntaxModel.Attribute</title>
<path fill="none" stroke="#000000" stroke-width=".5" d="M149.0319,-58.255C159.8442,-57.3304 171.1585,-56.3629 182.4543,-55.397"/>
<polygon fill="#000000" stroke="#000000" stroke-width=".5" points="182.8085,-57.1232 187.6411,-54.9535 182.5102,-53.6359 182.8085,-57.1232"/>
</g>
<!-- pyVHDLModel.NamedEntity -->
<g id="node5" class="node">
<title>pyVHDLModel.NamedEntity</title>
<g id="a_node5"><a xlink:title="A ``NamedEntity`` is a mixin class for all VHDL entities that have identifiers.">
<polygon fill="none" stroke="#000000" stroke-width=".5" points="152,-37 0,-37 0,-18 152,-18 152,-37"/>
<text text-anchor="middle" x="76" y="-25" font-family="Vera Sans, DejaVu Sans, Liberation Sans, Arial, Helvetica, sans" font-size="10.00" fill="#000000">pyVHDLModel.NamedEntity</text>
</a>
</g>
</g>
<!-- pyVHDLModel.NamedEntity&#45;&gt;pyVHDLModel.SyntaxModel.Attribute -->
<g id="edge4" class="edge">
<title>pyVHDLModel.NamedEntity&#45;&gt;pyVHDLModel.SyntaxModel.Attribute</title>
<path fill="none" stroke="#000000" stroke-width=".5" d="M152.293,-34.3863C162.2021,-35.2807 172.4825,-36.2086 182.744,-37.1348"/>
<polygon fill="#000000" stroke="#000000" stroke-width=".5" points="182.6411,-38.8826 187.7782,-37.5892 182.9558,-35.3968 182.6411,-38.8826"/>
</g>
</g>
</svg>
