<?xml version="1.0" encoding="UTF-8" standalone="no"?>
<!DOCTYPE svg PUBLIC "-//W3C//DTD SVG 1.1//EN"
 "http://www.w3.org/Graphics/SVG/1.1/DTD/svg11.dtd">
<!-- Generated by graphviz version 2.40.1 (20161225.0304)
 -->
<!-- Title: inheritancefefad20e1c Pages: 1 -->
<svg width="576pt" height="41pt"
 viewBox="0.00 0.00 576.00 40.69" xmlns="http://www.w3.org/2000/svg" xmlns:xlink="http://www.w3.org/1999/xlink">
<g id="graph0" class="graph" transform="scale(.6358 .6358) rotate(0) translate(4 60)">
<title>inheritancefefad20e1c</title>
<polygon fill="#ffffff" stroke="transparent" points="-4,4 -4,-60 902,-60 902,4 -4,4"/>
<!-- pyGHDL.dom.DOMMixin -->
<g id="node1" class="node">
<title>pyGHDL.dom.DOMMixin</title>
<g id="a_node1"><a xlink:href="../pyGHDL.dom.html#pyGHDL.dom.DOMMixin" xlink:title="pyGHDL.dom.DOMMixin" target="_top">
<polygon fill="none" stroke="#000000" stroke-width=".5" points="622.5,-56 488.5,-56 488.5,-37 622.5,-37 622.5,-56"/>
<text text-anchor="middle" x="555.5" y="-44" font-family="Vera Sans, DejaVu Sans, Liberation Sans, Arial, Helvetica, sans" font-size="10.00" fill="#000000">pyGHDL.dom.DOMMixin</text>
</a>
</g>
</g>
<!-- pyGHDL.dom.Expression.FunctionCall -->
<g id="node2" class="node">
<title>pyGHDL.dom.Expression.FunctionCall</title>
<g id="a_node2"><a xlink:href="../pyGHDL/pyGHDL.dom.Expression.html#pyGHDL.dom.Expression.FunctionCall" xlink:title="pyGHDL.dom.Expression.FunctionCall" target="_top">
<polygon fill="none" stroke="#000000" stroke-width=".5" points="898,-37 698,-37 698,-18 898,-18 898,-37"/>
<text text-anchor="middle" x="798" y="-25" font-family="Vera Sans, DejaVu Sans, Liberation Sans, Arial, Helvetica, sans" font-size="10.00" fill="#000000">pyGHDL.dom.Expression.FunctionCall</text>
</a>
</g>
</g>
<!-- pyGHDL.dom.DOMMixin&#45;&gt;pyGHDL.dom.Expression.FunctionCall -->
<g id="edge2" class="edge">
<title>pyGHDL.dom.DOMMixin&#45;&gt;pyGHDL.dom.Expression.FunctionCall</title>
<path fill="none" stroke="#000000" stroke-width=".5" d="M622.7277,-41.2327C644.4507,-39.5307 669.0815,-37.6008 692.8697,-35.737"/>
<polygon fill="#000000" stroke="#000000" stroke-width=".5" points="693.0837,-37.4757 697.9317,-35.3404 692.8102,-33.9864 693.0837,-37.4757"/>
</g>
<!-- pyVHDLModel.SyntaxModel.FunctionCall -->
<g id="node3" class="node">
<title>pyVHDLModel.SyntaxModel.FunctionCall</title>
<polygon fill="none" stroke="#000000" stroke-width=".5" points="662,-19 449,-19 449,0 662,0 662,-19"/>
<text text-anchor="middle" x="555.5" y="-7" font-family="Vera Sans, DejaVu Sans, Liberation Sans, Arial, Helvetica, sans" font-size="10.00" fill="#000000">pyVHDLModel.SyntaxModel.FunctionCall</text>
</g>
<!-- pyVHDLModel.SyntaxModel.FunctionCall&#45;&gt;pyGHDL.dom.Expression.FunctionCall -->
<g id="edge1" class="edge">
<title>pyVHDLModel.SyntaxModel.FunctionCall&#45;&gt;pyGHDL.dom.Expression.FunctionCall</title>
<path fill="none" stroke="#000000" stroke-width=".5" d="M662.2169,-17.4213C672.2803,-18.1682 682.4791,-18.9253 692.5308,-19.6714"/>
<polygon fill="#000000" stroke="#000000" stroke-width=".5" points="692.6564,-21.4354 697.7722,-20.0604 692.9155,-17.945 692.6564,-21.4354"/>
</g>
<!-- pyVHDLModel.ModelEntity -->
<g id="node4" class="node">
<title>pyVHDLModel.ModelEntity</title>
<g id="a_node4"><a xlink:title="``ModelEntity`` is the base class for all classes in the VHDL language model,">
<polygon fill="none" stroke="#000000" stroke-width=".5" points="146,-19 0,-19 0,0 146,0 146,-19"/>
<text text-anchor="middle" x="73" y="-7" font-family="Vera Sans, DejaVu Sans, Liberation Sans, Arial, Helvetica, sans" font-size="10.00" fill="#000000">pyVHDLModel.ModelEntity</text>
</a>
</g>
</g>
<!-- pyVHDLModel.SyntaxModel.BaseExpression -->
<g id="node5" class="node">
<title>pyVHDLModel.SyntaxModel.BaseExpression</title>
<g id="a_node5"><a xlink:title="A ``BaseExpression`` is a base&#45;class for all expressions.">
<polygon fill="none" stroke="#000000" stroke-width=".5" points="413,-19 182,-19 182,0 413,0 413,-19"/>
<text text-anchor="middle" x="297.5" y="-7" font-family="Vera Sans, DejaVu Sans, Liberation Sans, Arial, Helvetica, sans" font-size="10.00" fill="#000000">pyVHDLModel.SyntaxModel.BaseExpression</text>
</a>
</g>
</g>
<!-- pyVHDLModel.ModelEntity&#45;&gt;pyVHDLModel.SyntaxModel.BaseExpression -->
<g id="edge3" class="edge">
<title>pyVHDLModel.ModelEntity&#45;&gt;pyVHDLModel.SyntaxModel.BaseExpression</title>
<path fill="none" stroke="#000000" stroke-width=".5" d="M146.1991,-9.5C155.9857,-9.5 166.2247,-9.5 176.5627,-9.5"/>
<polygon fill="#000000" stroke="#000000" stroke-width=".5" points="176.6441,-11.2501 181.644,-9.5 176.644,-7.7501 176.6441,-11.2501"/>
</g>
<!-- pyVHDLModel.SyntaxModel.BaseExpression&#45;&gt;pyVHDLModel.SyntaxModel.FunctionCall -->
<g id="edge4" class="edge">
<title>pyVHDLModel.SyntaxModel.BaseExpression&#45;&gt;pyVHDLModel.SyntaxModel.FunctionCall</title>
<path fill="none" stroke="#000000" stroke-width=".5" d="M413.2931,-9.5C423.3316,-9.5 433.478,-9.5 443.4856,-9.5"/>
<polygon fill="#000000" stroke="#000000" stroke-width=".5" points="443.705,-11.2501 448.705,-9.5 443.7049,-7.7501 443.705,-11.2501"/>
</g>
</g>
</svg>
