<?xml version="1.0" encoding="UTF-8" standalone="no"?>
<!DOCTYPE svg PUBLIC "-//W3C//DTD SVG 1.1//EN"
 "http://www.w3.org/Graphics/SVG/1.1/DTD/svg11.dtd">
<!-- Generated by graphviz version 2.40.1 (20161225.0304)
 -->
<!-- Title: inheritancec218379cf0 Pages: 1 -->
<svg width="576pt" height="27pt"
 viewBox="0.00 0.00 576.00 27.41" xmlns="http://www.w3.org/2000/svg" xmlns:xlink="http://www.w3.org/1999/xlink">
<g id="graph0" class="graph" transform="scale(.4283 .4283) rotate(0) translate(4 60)">
<title>inheritancec218379cf0</title>
<polygon fill="#ffffff" stroke="transparent" points="-4,4 -4,-60 1341,-60 1341,4 -4,4"/>
<!-- pyGHDL.dom.DOMMixin -->
<g id="node1" class="node">
<title>pyGHDL.dom.DOMMixin</title>
<g id="a_node1"><a xlink:href="../pyGHDL.dom.html#pyGHDL.dom.DOMMixin" xlink:title="pyGHDL.dom.DOMMixin" target="_top">
<polygon fill="none" stroke="#000000" stroke-width=".5" points="900,-56 766,-56 766,-37 900,-37 900,-56"/>
<text text-anchor="middle" x="833" y="-44" font-family="Vera Sans, DejaVu Sans, Liberation Sans, Arial, Helvetica, sans" font-size="10.00" fill="#000000">pyGHDL.dom.DOMMixin</text>
</a>
</g>
</g>
<!-- pyGHDL.dom.Symbol.IndexedObjectOrFunctionCallSymbol -->
<g id="node2" class="node">
<title>pyGHDL.dom.Symbol.IndexedObjectOrFunctionCallSymbol</title>
<g id="a_node2"><a xlink:href="../pyGHDL/pyGHDL.dom.Symbol.html#pyGHDL.dom.Symbol.IndexedObjectOrFunctionCallSymbol" xlink:title="pyGHDL.dom.Symbol.IndexedObjectOrFunctionCallSymbol" target="_top">
<polygon fill="none" stroke="#000000" stroke-width=".5" points="1337,-37 1035,-37 1035,-18 1337,-18 1337,-37"/>
<text text-anchor="middle" x="1186" y="-25" font-family="Vera Sans, DejaVu Sans, Liberation Sans, Arial, Helvetica, sans" font-size="10.00" fill="#000000">pyGHDL.dom.Symbol.IndexedObjectOrFunctionCallSymbol</text>
</a>
</g>
</g>
<!-- pyGHDL.dom.DOMMixin&#45;&gt;pyGHDL.dom.Symbol.IndexedObjectOrFunctionCallSymbol -->
<g id="edge2" class="edge">
<title>pyGHDL.dom.DOMMixin&#45;&gt;pyGHDL.dom.Symbol.IndexedObjectOrFunctionCallSymbol</title>
<path fill="none" stroke="#000000" stroke-width=".5" d="M900.2275,-42.8815C937.017,-40.9014 984.2491,-38.3591 1029.6748,-35.9141"/>
<polygon fill="#000000" stroke="#000000" stroke-width=".5" points="1030.0195,-37.6482 1034.9181,-35.6319 1029.8313,-34.1532 1030.0195,-37.6482"/>
</g>
<!-- pyVHDLModel.SyntaxModel.IndexedObjectOrFunctionCallSymbol -->
<g id="node3" class="node">
<title>pyVHDLModel.SyntaxModel.IndexedObjectOrFunctionCallSymbol</title>
<polygon fill="none" stroke="#000000" stroke-width=".5" points="999,-19 667,-19 667,0 999,0 999,-19"/>
<text text-anchor="middle" x="833" y="-7" font-family="Vera Sans, DejaVu Sans, Liberation Sans, Arial, Helvetica, sans" font-size="10.00" fill="#000000">pyVHDLModel.SyntaxModel.IndexedObjectOrFunctionCallSymbol</text>
</g>
<!-- pyVHDLModel.SyntaxModel.IndexedObjectOrFunctionCallSymbol&#45;&gt;pyGHDL.dom.Symbol.IndexedObjectOrFunctionCallSymbol -->
<g id="edge1" class="edge">
<title>pyVHDLModel.SyntaxModel.IndexedObjectOrFunctionCallSymbol&#45;&gt;pyGHDL.dom.Symbol.IndexedObjectOrFunctionCallSymbol</title>
<path fill="none" stroke="#000000" stroke-width=".5" d="M999.1635,-17.9729C1009.29,-18.4893 1019.4621,-19.008 1029.5457,-19.5222"/>
<polygon fill="#000000" stroke="#000000" stroke-width=".5" points="1029.7274,-21.2836 1034.8101,-19.7906 1029.9057,-17.7882 1029.7274,-21.2836"/>
</g>
<!-- pyVHDLModel.ModelEntity -->
<g id="node4" class="node">
<title>pyVHDLModel.ModelEntity</title>
<g id="a_node4"><a xlink:title="``ModelEntity`` is the base class for all classes in the VHDL language model,">
<polygon fill="none" stroke="#000000" stroke-width=".5" points="146,-19 0,-19 0,0 146,0 146,-19"/>
<text text-anchor="middle" x="73" y="-7" font-family="Vera Sans, DejaVu Sans, Liberation Sans, Arial, Helvetica, sans" font-size="10.00" fill="#000000">pyVHDLModel.ModelEntity</text>
</a>
</g>
</g>
<!-- pyVHDLModel.SyntaxModel.Symbol -->
<g id="node6" class="node">
<title>pyVHDLModel.SyntaxModel.Symbol</title>
<polygon fill="none" stroke="#000000" stroke-width=".5" points="373,-19 182,-19 182,0 373,0 373,-19"/>
<text text-anchor="middle" x="277.5" y="-7" font-family="Vera Sans, DejaVu Sans, Liberation Sans, Arial, Helvetica, sans" font-size="10.00" fill="#000000">pyVHDLModel.SyntaxModel.Symbol</text>
</g>
<!-- pyVHDLModel.ModelEntity&#45;&gt;pyVHDLModel.SyntaxModel.Symbol -->
<g id="edge5" class="edge">
<title>pyVHDLModel.ModelEntity&#45;&gt;pyVHDLModel.SyntaxModel.Symbol</title>
<path fill="none" stroke="#000000" stroke-width=".5" d="M146.2516,-9.5C156.1992,-9.5 166.5459,-9.5 176.8707,-9.5"/>
<polygon fill="#000000" stroke="#000000" stroke-width=".5" points="176.9356,-11.2501 181.9356,-9.5 176.9355,-7.7501 176.9356,-11.2501"/>
</g>
<!-- pyVHDLModel.SyntaxModel.ObjectSymbol -->
<g id="node5" class="node">
<title>pyVHDLModel.SyntaxModel.ObjectSymbol</title>
<polygon fill="none" stroke="#000000" stroke-width=".5" points="631,-19 409,-19 409,0 631,0 631,-19"/>
<text text-anchor="middle" x="520" y="-7" font-family="Vera Sans, DejaVu Sans, Liberation Sans, Arial, Helvetica, sans" font-size="10.00" fill="#000000">pyVHDLModel.SyntaxModel.ObjectSymbol</text>
</g>
<!-- pyVHDLModel.SyntaxModel.ObjectSymbol&#45;&gt;pyVHDLModel.SyntaxModel.IndexedObjectOrFunctionCallSymbol -->
<g id="edge3" class="edge">
<title>pyVHDLModel.SyntaxModel.ObjectSymbol&#45;&gt;pyVHDLModel.SyntaxModel.IndexedObjectOrFunctionCallSymbol</title>
<path fill="none" stroke="#000000" stroke-width=".5" d="M631.2334,-9.5C641.1996,-9.5 651.4338,-9.5 661.7544,-9.5"/>
<polygon fill="#000000" stroke="#000000" stroke-width=".5" points="661.827,-11.2501 666.8269,-9.5 661.8269,-7.7501 661.827,-11.2501"/>
</g>
<!-- pyVHDLModel.SyntaxModel.Symbol&#45;&gt;pyVHDLModel.SyntaxModel.ObjectSymbol -->
<g id="edge4" class="edge">
<title>pyVHDLModel.SyntaxModel.Symbol&#45;&gt;pyVHDLModel.SyntaxModel.ObjectSymbol</title>
<path fill="none" stroke="#000000" stroke-width=".5" d="M373.3424,-9.5C383.3543,-9.5 393.6082,-9.5 403.8141,-9.5"/>
<polygon fill="#000000" stroke="#000000" stroke-width=".5" points="403.8192,-11.2501 408.8192,-9.5 403.8191,-7.7501 403.8192,-11.2501"/>
</g>
</g>
</svg>
