<?xml version="1.0" encoding="UTF-8" standalone="no"?>
<!DOCTYPE svg PUBLIC "-//W3C//DTD SVG 1.1//EN"
 "http://www.w3.org/Graphics/SVG/1.1/DTD/svg11.dtd">
<!-- Generated by graphviz version 2.40.1 (20161225.0304)
 -->
<!-- Title: inheritance9f6dc6c1f8 Pages: 1 -->
<svg width="576pt" height="31pt"
 viewBox="0.00 0.00 576.00 31.38" xmlns="http://www.w3.org/2000/svg" xmlns:xlink="http://www.w3.org/1999/xlink">
<g id="graph0" class="graph" transform="scale(.3827 .3827) rotate(0) translate(4 78)">
<title>inheritance9f6dc6c1f8</title>
<polygon fill="#ffffff" stroke="transparent" points="-4,4 -4,-78 1501,-78 1501,4 -4,4"/>
<!-- pyGHDL.dom.DOMMixin -->
<g id="node1" class="node">
<title>pyGHDL.dom.DOMMixin</title>
<g id="a_node1"><a xlink:href="../pyGHDL.dom.html#pyGHDL.dom.DOMMixin" xlink:title="pyGHDL.dom.DOMMixin" target="_top">
<polygon fill="none" stroke="#000000" stroke-width=".5" points="1199.5,-74 1065.5,-74 1065.5,-55 1199.5,-55 1199.5,-74"/>
<text text-anchor="middle" x="1132.5" y="-62" font-family="Vera Sans, DejaVu Sans, Liberation Sans, Arial, Helvetica, sans" font-size="10.00" fill="#000000">pyGHDL.dom.DOMMixin</text>
</a>
</g>
</g>
<!-- pyGHDL.dom.Sequential.CaseStatement -->
<g id="node2" class="node">
<title>pyGHDL.dom.Sequential.CaseStatement</title>
<g id="a_node2"><a xlink:href="../pyGHDL/pyGHDL.dom.Sequential.html#pyGHDL.dom.Sequential.CaseStatement" xlink:title="pyGHDL.dom.Sequential.CaseStatement" target="_top">
<polygon fill="none" stroke="#000000" stroke-width=".5" points="1497,-55 1283,-55 1283,-36 1497,-36 1497,-55"/>
<text text-anchor="middle" x="1390" y="-43" font-family="Vera Sans, DejaVu Sans, Liberation Sans, Arial, Helvetica, sans" font-size="10.00" fill="#000000">pyGHDL.dom.Sequential.CaseStatement</text>
</a>
</g>
</g>
<!-- pyGHDL.dom.DOMMixin&#45;&gt;pyGHDL.dom.Sequential.CaseStatement -->
<g id="edge2" class="edge">
<title>pyGHDL.dom.DOMMixin&#45;&gt;pyGHDL.dom.Sequential.CaseStatement</title>
<path fill="none" stroke="#000000" stroke-width=".5" d="M1199.8187,-59.5328C1223.5678,-57.7804 1250.9592,-55.7593 1277.4243,-53.8066"/>
<polygon fill="#000000" stroke="#000000" stroke-width=".5" points="1277.846,-55.5303 1282.7036,-53.417 1277.5884,-52.0398 1277.846,-55.5303"/>
</g>
<!-- pyVHDLModel.SyntaxModel.CaseStatement -->
<g id="node3" class="node">
<title>pyVHDLModel.SyntaxModel.CaseStatement</title>
<polygon fill="none" stroke="#000000" stroke-width=".5" points="1247,-37 1018,-37 1018,-18 1247,-18 1247,-37"/>
<text text-anchor="middle" x="1132.5" y="-25" font-family="Vera Sans, DejaVu Sans, Liberation Sans, Arial, Helvetica, sans" font-size="10.00" fill="#000000">pyVHDLModel.SyntaxModel.CaseStatement</text>
</g>
<!-- pyVHDLModel.SyntaxModel.CaseStatement&#45;&gt;pyGHDL.dom.Sequential.CaseStatement -->
<g id="edge1" class="edge">
<title>pyVHDLModel.SyntaxModel.CaseStatement&#45;&gt;pyGHDL.dom.Sequential.CaseStatement</title>
<path fill="none" stroke="#000000" stroke-width=".5" d="M1247.318,-35.5261C1257.3682,-36.2287 1267.533,-36.9392 1277.5635,-37.6404"/>
<polygon fill="#000000" stroke="#000000" stroke-width=".5" points="1277.6854,-39.4031 1282.7953,-38.0061 1277.9295,-35.9116 1277.6854,-39.4031"/>
</g>
<!-- pyVHDLModel.LabeledEntity -->
<g id="node4" class="node">
<title>pyVHDLModel.LabeledEntity</title>
<g id="a_node4"><a xlink:title="A ``LabeledEntity`` is a mixin class for all VHDL entities that can have">
<polygon fill="none" stroke="#000000" stroke-width=".5" points="155,-56 0,-56 0,-37 155,-37 155,-56"/>
<text text-anchor="middle" x="77.5" y="-44" font-family="Vera Sans, DejaVu Sans, Liberation Sans, Arial, Helvetica, sans" font-size="10.00" fill="#000000">pyVHDLModel.LabeledEntity</text>
</a>
</g>
</g>
<!-- pyVHDLModel.SyntaxModel.Statement -->
<g id="node8" class="node">
<title>pyVHDLModel.SyntaxModel.Statement</title>
<polygon fill="none" stroke="#000000" stroke-width=".5" points="396,-37 191,-37 191,-18 396,-18 396,-37"/>
<text text-anchor="middle" x="293.5" y="-25" font-family="Vera Sans, DejaVu Sans, Liberation Sans, Arial, Helvetica, sans" font-size="10.00" fill="#000000">pyVHDLModel.SyntaxModel.Statement</text>
</g>
<!-- pyVHDLModel.LabeledEntity&#45;&gt;pyVHDLModel.SyntaxModel.Statement -->
<g id="edge7" class="edge">
<title>pyVHDLModel.LabeledEntity&#45;&gt;pyVHDLModel.SyntaxModel.Statement</title>
<path fill="none" stroke="#000000" stroke-width=".5" d="M155.1758,-39.6674C165.154,-38.7897 175.5079,-37.8789 185.8575,-36.9686"/>
<polygon fill="#000000" stroke="#000000" stroke-width=".5" points="186.1088,-38.7033 190.9362,-36.5218 185.802,-35.2168 186.1088,-38.7033"/>
</g>
<!-- pyVHDLModel.ModelEntity -->
<g id="node5" class="node">
<title>pyVHDLModel.ModelEntity</title>
<g id="a_node5"><a xlink:title="``ModelEntity`` is the base class for all classes in the VHDL language model,">
<polygon fill="none" stroke="#000000" stroke-width=".5" points="150.5,-19 4.5,-19 4.5,0 150.5,0 150.5,-19"/>
<text text-anchor="middle" x="77.5" y="-7" font-family="Vera Sans, DejaVu Sans, Liberation Sans, Arial, Helvetica, sans" font-size="10.00" fill="#000000">pyVHDLModel.ModelEntity</text>
</a>
</g>
</g>
<!-- pyVHDLModel.ModelEntity&#45;&gt;pyVHDLModel.SyntaxModel.Statement -->
<g id="edge6" class="edge">
<title>pyVHDLModel.ModelEntity&#45;&gt;pyVHDLModel.SyntaxModel.Statement</title>
<path fill="none" stroke="#000000" stroke-width=".5" d="M150.6277,-15.594C161.9793,-16.5399 173.9067,-17.5339 185.8288,-18.5274"/>
<polygon fill="#000000" stroke="#000000" stroke-width=".5" points="185.8081,-20.2817 190.9362,-18.953 186.0988,-16.7937 185.8081,-20.2817"/>
</g>
<!-- pyVHDLModel.SyntaxModel.CompoundStatement -->
<g id="node6" class="node">
<title>pyVHDLModel.SyntaxModel.CompoundStatement</title>
<g id="a_node6"><a xlink:title="A ``CompoundStatement`` is a base&#45;class for all compound statements.">
<polygon fill="none" stroke="#000000" stroke-width=".5" points="982,-37 725,-37 725,-18 982,-18 982,-37"/>
<text text-anchor="middle" x="853.5" y="-25" font-family="Vera Sans, DejaVu Sans, Liberation Sans, Arial, Helvetica, sans" font-size="10.00" fill="#000000">pyVHDLModel.SyntaxModel.CompoundStatement</text>
</a>
</g>
</g>
<!-- pyVHDLModel.SyntaxModel.CompoundStatement&#45;&gt;pyVHDLModel.SyntaxModel.CaseStatement -->
<g id="edge3" class="edge">
<title>pyVHDLModel.SyntaxModel.CompoundStatement&#45;&gt;pyVHDLModel.SyntaxModel.CaseStatement</title>
<path fill="none" stroke="#000000" stroke-width=".5" d="M982.3832,-27.5C992.4748,-27.5 1002.6409,-27.5 1012.6686,-27.5"/>
<polygon fill="#000000" stroke="#000000" stroke-width=".5" points="1012.8988,-29.2501 1017.8988,-27.5 1012.8987,-25.7501 1012.8988,-29.2501"/>
</g>
<!-- pyVHDLModel.SyntaxModel.SequentialStatement -->
<g id="node7" class="node">
<title>pyVHDLModel.SyntaxModel.SequentialStatement</title>
<g id="a_node7"><a xlink:title="A ``SequentialStatement`` is a base&#45;class for all sequential statements.">
<polygon fill="none" stroke="#000000" stroke-width=".5" points="689,-37 432,-37 432,-18 689,-18 689,-37"/>
<text text-anchor="middle" x="560.5" y="-25" font-family="Vera Sans, DejaVu Sans, Liberation Sans, Arial, Helvetica, sans" font-size="10.00" fill="#000000">pyVHDLModel.SyntaxModel.SequentialStatement</text>
</a>
</g>
</g>
<!-- pyVHDLModel.SyntaxModel.SequentialStatement&#45;&gt;pyVHDLModel.SyntaxModel.CompoundStatement -->
<g id="edge4" class="edge">
<title>pyVHDLModel.SyntaxModel.SequentialStatement&#45;&gt;pyVHDLModel.SyntaxModel.CompoundStatement</title>
<path fill="none" stroke="#000000" stroke-width=".5" d="M689.0141,-27.5C699.1887,-27.5 709.4808,-27.5 719.6902,-27.5"/>
<polygon fill="#000000" stroke="#000000" stroke-width=".5" points="719.6945,-29.2501 724.6945,-27.5 719.6944,-25.7501 719.6945,-29.2501"/>
</g>
<!-- pyVHDLModel.SyntaxModel.Statement&#45;&gt;pyVHDLModel.SyntaxModel.SequentialStatement -->
<g id="edge5" class="edge">
<title>pyVHDLModel.SyntaxModel.Statement&#45;&gt;pyVHDLModel.SyntaxModel.SequentialStatement</title>
<path fill="none" stroke="#000000" stroke-width=".5" d="M396.3473,-27.5C406.3207,-27.5 416.5354,-27.5 426.752,-27.5"/>
<polygon fill="#000000" stroke="#000000" stroke-width=".5" points="426.7666,-29.2501 431.7666,-27.5 426.7665,-25.7501 426.7666,-29.2501"/>
</g>
</g>
</svg>
