<?xml version="1.0" encoding="UTF-8" standalone="no"?>
<!DOCTYPE svg PUBLIC "-//W3C//DTD SVG 1.1//EN"
 "http://www.w3.org/Graphics/SVG/1.1/DTD/svg11.dtd">
<!-- Generated by graphviz version 2.40.1 (20161225.0304)
 -->
<!-- Title: inheritancebf619089f9 Pages: 1 -->
<svg width="576pt" height="41pt"
 viewBox="0.00 0.00 576.00 41.07" xmlns="http://www.w3.org/2000/svg" xmlns:xlink="http://www.w3.org/1999/xlink">
<g id="graph0" class="graph" transform="scale(.4948 .4948) rotate(0) translate(4 79)">
<title>inheritancebf619089f9</title>
<polygon fill="#ffffff" stroke="transparent" points="-4,4 -4,-79 1160,-79 1160,4 -4,4"/>
<!-- pyGHDL.dom.DOMMixin -->
<g id="node1" class="node">
<title>pyGHDL.dom.DOMMixin</title>
<g id="a_node1"><a xlink:href="../pyGHDL.dom.html#pyGHDL.dom.DOMMixin" xlink:title="pyGHDL.dom.DOMMixin" target="_top">
<polygon fill="none" stroke="#000000" stroke-width=".5" points="926.5,-74 792.5,-74 792.5,-55 926.5,-55 926.5,-74"/>
<text text-anchor="middle" x="859.5" y="-62" font-family="Vera Sans, DejaVu Sans, Liberation Sans, Arial, Helvetica, sans" font-size="10.00" fill="#000000">pyGHDL.dom.DOMMixin</text>
</a>
</g>
</g>
<!-- pyGHDL.dom.Object.Constant -->
<g id="node2" class="node">
<title>pyGHDL.dom.Object.Constant</title>
<g id="a_node2"><a xlink:href="../pyGHDL/pyGHDL.dom.Object.html#pyGHDL.dom.Object.Constant" xlink:title="pyGHDL.dom.Object.Constant" target="_top">
<polygon fill="none" stroke="#000000" stroke-width=".5" points="1156,-55 994,-55 994,-36 1156,-36 1156,-55"/>
<text text-anchor="middle" x="1075" y="-43" font-family="Vera Sans, DejaVu Sans, Liberation Sans, Arial, Helvetica, sans" font-size="10.00" fill="#000000">pyGHDL.dom.Object.Constant</text>
</a>
</g>
</g>
<!-- pyGHDL.dom.DOMMixin&#45;&gt;pyGHDL.dom.Object.Constant -->
<g id="edge2" class="edge">
<title>pyGHDL.dom.DOMMixin&#45;&gt;pyGHDL.dom.Object.Constant</title>
<path fill="none" stroke="#000000" stroke-width=".5" d="M926.5043,-58.5924C946.0956,-56.8651 967.7944,-54.952 988.4165,-53.1338"/>
<polygon fill="#000000" stroke="#000000" stroke-width=".5" points="988.8073,-54.8562 993.6343,-52.6738 988.4999,-51.3698 988.8073,-54.8562"/>
</g>
<!-- pyVHDLModel.SyntaxModel.Constant -->
<g id="node3" class="node">
<title>pyVHDLModel.SyntaxModel.Constant</title>
<polygon fill="none" stroke="#000000" stroke-width=".5" points="958,-37 761,-37 761,-18 958,-18 958,-37"/>
<text text-anchor="middle" x="859.5" y="-25" font-family="Vera Sans, DejaVu Sans, Liberation Sans, Arial, Helvetica, sans" font-size="10.00" fill="#000000">pyVHDLModel.SyntaxModel.Constant</text>
</g>
<!-- pyVHDLModel.SyntaxModel.Constant&#45;&gt;pyGHDL.dom.Object.Constant -->
<g id="edge1" class="edge">
<title>pyVHDLModel.SyntaxModel.Constant&#45;&gt;pyGHDL.dom.Object.Constant</title>
<path fill="none" stroke="#000000" stroke-width=".5" d="M958.1052,-35.7362C968.298,-36.5875 978.6006,-37.4481 988.6448,-38.287"/>
<polygon fill="#000000" stroke="#000000" stroke-width=".5" points="988.7434,-40.0513 993.8717,-38.7236 989.0348,-36.5634 988.7434,-40.0513"/>
</g>
<!-- pyVHDLModel.ModelEntity -->
<g id="node4" class="node">
<title>pyVHDLModel.ModelEntity</title>
<g id="a_node4"><a xlink:title="``ModelEntity`` is the base class for all classes in the VHDL language model,">
<polygon fill="none" stroke="#000000" stroke-width=".5" points="168.5,-75 22.5,-75 22.5,-56 168.5,-56 168.5,-75"/>
<text text-anchor="middle" x="95.5" y="-63" font-family="Vera Sans, DejaVu Sans, Liberation Sans, Arial, Helvetica, sans" font-size="10.00" fill="#000000">pyVHDLModel.ModelEntity</text>
</a>
</g>
</g>
<!-- pyVHDLModel.SyntaxModel.Obj -->
<g id="node7" class="node">
<title>pyVHDLModel.SyntaxModel.Obj</title>
<polygon fill="none" stroke="#000000" stroke-width=".5" points="397,-56 227,-56 227,-37 397,-37 397,-56"/>
<text text-anchor="middle" x="312" y="-44" font-family="Vera Sans, DejaVu Sans, Liberation Sans, Arial, Helvetica, sans" font-size="10.00" fill="#000000">pyVHDLModel.SyntaxModel.Obj</text>
</g>
<!-- pyVHDLModel.ModelEntity&#45;&gt;pyVHDLModel.SyntaxModel.Obj -->
<g id="edge6" class="edge">
<title>pyVHDLModel.ModelEntity&#45;&gt;pyVHDLModel.SyntaxModel.Obj</title>
<path fill="none" stroke="#000000" stroke-width=".5" d="M168.797,-59.0675C185.6952,-57.5845 203.8663,-55.9898 221.4022,-54.4508"/>
<polygon fill="#000000" stroke="#000000" stroke-width=".5" points="221.9941,-56.1557 226.8219,-53.9752 221.688,-52.6691 221.9941,-56.1557"/>
</g>
<!-- pyVHDLModel.MultipleNamedEntity -->
<g id="node5" class="node">
<title>pyVHDLModel.MultipleNamedEntity</title>
<g id="a_node5"><a xlink:title="A ``MultipleNamedEntity`` is a mixin class for all VHDL entities that declare">
<polygon fill="none" stroke="#000000" stroke-width=".5" points="191,-38 0,-38 0,-19 191,-19 191,-38"/>
<text text-anchor="middle" x="95.5" y="-26" font-family="Vera Sans, DejaVu Sans, Liberation Sans, Arial, Helvetica, sans" font-size="10.00" fill="#000000">pyVHDLModel.MultipleNamedEntity</text>
</a>
</g>
</g>
<!-- pyVHDLModel.MultipleNamedEntity&#45;&gt;pyVHDLModel.SyntaxModel.Obj -->
<g id="edge7" class="edge">
<title>pyVHDLModel.MultipleNamedEntity&#45;&gt;pyVHDLModel.SyntaxModel.Obj</title>
<path fill="none" stroke="#000000" stroke-width=".5" d="M191.0903,-36.4475C201.2187,-37.2895 211.4971,-38.1441 221.5641,-38.9811"/>
<polygon fill="#000000" stroke="#000000" stroke-width=".5" points="221.6795,-40.7466 226.8074,-39.417 221.9696,-37.2587 221.6795,-40.7466"/>
</g>
<!-- pyVHDLModel.SyntaxModel.BaseConstant -->
<g id="node6" class="node">
<title>pyVHDLModel.SyntaxModel.BaseConstant</title>
<polygon fill="none" stroke="#000000" stroke-width=".5" points="689.5,-56 468.5,-56 468.5,-37 689.5,-37 689.5,-56"/>
<text text-anchor="middle" x="579" y="-44" font-family="Vera Sans, DejaVu Sans, Liberation Sans, Arial, Helvetica, sans" font-size="10.00" fill="#000000">pyVHDLModel.SyntaxModel.BaseConstant</text>
</g>
<!-- pyVHDLModel.SyntaxModel.BaseConstant&#45;&gt;pyVHDLModel.SyntaxModel.Constant -->
<g id="edge4" class="edge">
<title>pyVHDLModel.SyntaxModel.BaseConstant&#45;&gt;pyVHDLModel.SyntaxModel.Constant</title>
<path fill="none" stroke="#000000" stroke-width=".5" d="M689.861,-38.9907C711.5516,-37.5215 734.2241,-35.9857 755.6752,-34.5327"/>
<polygon fill="#000000" stroke="#000000" stroke-width=".5" points="755.9393,-36.2689 760.8096,-34.1849 755.7027,-32.7769 755.9393,-36.2689"/>
</g>
<!-- pyVHDLModel.SyntaxModel.Obj&#45;&gt;pyVHDLModel.SyntaxModel.BaseConstant -->
<g id="edge3" class="edge">
<title>pyVHDLModel.SyntaxModel.Obj&#45;&gt;pyVHDLModel.SyntaxModel.BaseConstant</title>
<path fill="none" stroke="#000000" stroke-width=".5" d="M397.2146,-46.5C418.2136,-46.5 441.0547,-46.5 463.2312,-46.5"/>
<polygon fill="#000000" stroke="#000000" stroke-width=".5" points="463.2504,-48.2501 468.2504,-46.5 463.2504,-44.7501 463.2504,-48.2501"/>
</g>
<!-- pyVHDLModel.SyntaxModel.WithDefaultExpressionMixin -->
<g id="node8" class="node">
<title>pyVHDLModel.SyntaxModel.WithDefaultExpressionMixin</title>
<g id="a_node8"><a xlink:title="A ``WithDefaultExpression`` is a mixin class for all objects declarations">
<polygon fill="none" stroke="#000000" stroke-width=".5" points="725,-19 433,-19 433,0 725,0 725,-19"/>
<text text-anchor="middle" x="579" y="-7" font-family="Vera Sans, DejaVu Sans, Liberation Sans, Arial, Helvetica, sans" font-size="10.00" fill="#000000">pyVHDLModel.SyntaxModel.WithDefaultExpressionMixin</text>
</a>
</g>
</g>
<!-- pyVHDLModel.SyntaxModel.WithDefaultExpressionMixin&#45;&gt;pyVHDLModel.SyntaxModel.Constant -->
<g id="edge5" class="edge">
<title>pyVHDLModel.SyntaxModel.WithDefaultExpressionMixin&#45;&gt;pyVHDLModel.SyntaxModel.Constant</title>
<path fill="none" stroke="#000000" stroke-width=".5" d="M725.001,-18.869C735.3166,-19.531 745.5907,-20.1903 755.5995,-20.8326"/>
<polygon fill="#000000" stroke="#000000" stroke-width=".5" points="755.7062,-22.5929 760.8081,-21.1668 755.9304,-19.1001 755.7062,-22.5929"/>
</g>
</g>
</svg>
