<?xml version="1.0" encoding="UTF-8" standalone="no"?>
<!DOCTYPE svg PUBLIC "-//W3C//DTD SVG 1.1//EN"
 "http://www.w3.org/Graphics/SVG/1.1/DTD/svg11.dtd">
<!-- Generated by graphviz version 2.40.1 (20161225.0304)
 -->
<!-- Title: inheritance9a35ab62d1 Pages: 1 -->
<svg width="576pt" height="35pt"
 viewBox="0.00 0.00 576.00 34.68" xmlns="http://www.w3.org/2000/svg" xmlns:xlink="http://www.w3.org/1999/xlink">
<g id="graph0" class="graph" transform="scale(.5419 .5419) rotate(0) translate(4 60)">
<title>inheritance9a35ab62d1</title>
<polygon fill="#ffffff" stroke="transparent" points="-4,4 -4,-60 1059,-60 1059,4 -4,4"/>
<!-- pyGHDL.dom.Aggregates.IndexedAggregateElement -->
<g id="node1" class="node">
<title>pyGHDL.dom.Aggregates.IndexedAggregateElement</title>
<g id="a_node1"><a xlink:href="../pyGHDL/pyGHDL.dom.Aggregates.html#pyGHDL.dom.Aggregates.IndexedAggregateElement" xlink:title="pyGHDL.dom.Aggregates.IndexedAggregateElement" target="_top">
<polygon fill="none" stroke="#000000" stroke-width=".5" points="1055,-37 783,-37 783,-18 1055,-18 1055,-37"/>
<text text-anchor="middle" x="919" y="-25" font-family="Vera Sans, DejaVu Sans, Liberation Sans, Arial, Helvetica, sans" font-size="10.00" fill="#000000">pyGHDL.dom.Aggregates.IndexedAggregateElement</text>
</a>
</g>
</g>
<!-- pyVHDLModel.SyntaxModel.IndexedAggregateElement -->
<g id="node2" class="node">
<title>pyVHDLModel.SyntaxModel.IndexedAggregateElement</title>
<polygon fill="none" stroke="#000000" stroke-width=".5" points="747,-56 463,-56 463,-37 747,-37 747,-56"/>
<text text-anchor="middle" x="605" y="-44" font-family="Vera Sans, DejaVu Sans, Liberation Sans, Arial, Helvetica, sans" font-size="10.00" fill="#000000">pyVHDLModel.SyntaxModel.IndexedAggregateElement</text>
</g>
<!-- pyVHDLModel.SyntaxModel.IndexedAggregateElement&#45;&gt;pyGHDL.dom.Aggregates.IndexedAggregateElement -->
<g id="edge1" class="edge">
<title>pyVHDLModel.SyntaxModel.IndexedAggregateElement&#45;&gt;pyGHDL.dom.Aggregates.IndexedAggregateElement</title>
<path fill="none" stroke="#000000" stroke-width=".5" d="M747.3004,-37.8895C757.3876,-37.2791 767.5564,-36.6638 777.6383,-36.0537"/>
<polygon fill="#000000" stroke="#000000" stroke-width=".5" points="778.0165,-37.7841 782.9017,-35.7353 777.805,-34.2905 778.0165,-37.7841"/>
</g>
<!-- pyGHDL.dom.DOMMixin -->
<g id="node3" class="node">
<title>pyGHDL.dom.DOMMixin</title>
<g id="a_node3"><a xlink:href="../pyGHDL.dom.html#pyGHDL.dom.DOMMixin" xlink:title="pyGHDL.dom.DOMMixin" target="_top">
<polygon fill="none" stroke="#000000" stroke-width=".5" points="672,-19 538,-19 538,0 672,0 672,-19"/>
<text text-anchor="middle" x="605" y="-7" font-family="Vera Sans, DejaVu Sans, Liberation Sans, Arial, Helvetica, sans" font-size="10.00" fill="#000000">pyGHDL.dom.DOMMixin</text>
</a>
</g>
</g>
<!-- pyGHDL.dom.DOMMixin&#45;&gt;pyGHDL.dom.Aggregates.IndexedAggregateElement -->
<g id="edge2" class="edge">
<title>pyGHDL.dom.DOMMixin&#45;&gt;pyGHDL.dom.Aggregates.IndexedAggregateElement</title>
<path fill="none" stroke="#000000" stroke-width=".5" d="M672.3609,-13.3615C703.1909,-15.1288 740.9563,-17.2937 777.5796,-19.3931"/>
<polygon fill="#000000" stroke="#000000" stroke-width=".5" points="777.8818,-21.1632 782.9738,-19.7023 778.0822,-17.6689 777.8818,-21.1632"/>
</g>
<!-- pyVHDLModel.ModelEntity -->
<g id="node4" class="node">
<title>pyVHDLModel.ModelEntity</title>
<g id="a_node4"><a xlink:title="``ModelEntity`` is the base class for all classes in the VHDL language model,">
<polygon fill="none" stroke="#000000" stroke-width=".5" points="146,-56 0,-56 0,-37 146,-37 146,-56"/>
<text text-anchor="middle" x="73" y="-44" font-family="Vera Sans, DejaVu Sans, Liberation Sans, Arial, Helvetica, sans" font-size="10.00" fill="#000000">pyVHDLModel.ModelEntity</text>
</a>
</g>
</g>
<!-- pyVHDLModel.SyntaxModel.AggregateElement -->
<g id="node5" class="node">
<title>pyVHDLModel.SyntaxModel.AggregateElement</title>
<g id="a_node5"><a xlink:title="A ``AggregateElement`` is a base&#45;class for all aggregate elements.">
<polygon fill="none" stroke="#000000" stroke-width=".5" points="427,-56 182,-56 182,-37 427,-37 427,-56"/>
<text text-anchor="middle" x="304.5" y="-44" font-family="Vera Sans, DejaVu Sans, Liberation Sans, Arial, Helvetica, sans" font-size="10.00" fill="#000000">pyVHDLModel.SyntaxModel.AggregateElement</text>
</a>
</g>
</g>
<!-- pyVHDLModel.ModelEntity&#45;&gt;pyVHDLModel.SyntaxModel.AggregateElement -->
<g id="edge3" class="edge">
<title>pyVHDLModel.ModelEntity&#45;&gt;pyVHDLModel.SyntaxModel.AggregateElement</title>
<path fill="none" stroke="#000000" stroke-width=".5" d="M146.248,-46.5C156.0381,-46.5 166.2991,-46.5 176.6913,-46.5"/>
<polygon fill="#000000" stroke="#000000" stroke-width=".5" points="176.802,-48.2501 181.8019,-46.5 176.8019,-44.7501 176.802,-48.2501"/>
</g>
<!-- pyVHDLModel.SyntaxModel.AggregateElement&#45;&gt;pyVHDLModel.SyntaxModel.IndexedAggregateElement -->
<g id="edge4" class="edge">
<title>pyVHDLModel.SyntaxModel.AggregateElement&#45;&gt;pyVHDLModel.SyntaxModel.IndexedAggregateElement</title>
<path fill="none" stroke="#000000" stroke-width=".5" d="M427.1583,-46.5C437.1998,-46.5 447.4117,-46.5 457.606,-46.5"/>
<polygon fill="#000000" stroke="#000000" stroke-width=".5" points="457.6083,-48.2501 462.6083,-46.5 457.6082,-44.7501 457.6083,-48.2501"/>
</g>
</g>
</svg>
