<?xml version="1.0" encoding="UTF-8" standalone="no"?>
<!DOCTYPE svg PUBLIC "-//W3C//DTD SVG 1.1//EN"
 "http://www.w3.org/Graphics/SVG/1.1/DTD/svg11.dtd">
<!-- Generated by graphviz version 2.40.1 (20161225.0304)
 -->
<!-- Title: inheritancef5407852c5 Pages: 1 -->
<svg width="576pt" height="30pt"
 viewBox="0.00 0.00 576.00 29.78" xmlns="http://www.w3.org/2000/svg" xmlns:xlink="http://www.w3.org/1999/xlink">
<g id="graph0" class="graph" transform="scale(.4653 .4653) rotate(0) translate(4 60)">
<title>inheritancef5407852c5</title>
<polygon fill="#ffffff" stroke="transparent" points="-4,4 -4,-60 1234,-60 1234,4 -4,4"/>
<!-- pyGHDL.dom.DOMMixin -->
<g id="node1" class="node">
<title>pyGHDL.dom.DOMMixin</title>
<g id="a_node1"><a xlink:href="../pyGHDL.dom.html#pyGHDL.dom.DOMMixin" xlink:title="pyGHDL.dom.DOMMixin" target="_top">
<polygon fill="none" stroke="#000000" stroke-width=".5" points="909.5,-56 775.5,-56 775.5,-37 909.5,-37 909.5,-56"/>
<text text-anchor="middle" x="842.5" y="-44" font-family="Vera Sans, DejaVu Sans, Liberation Sans, Arial, Helvetica, sans" font-size="10.00" fill="#000000">pyGHDL.dom.DOMMixin</text>
</a>
</g>
</g>
<!-- pyGHDL.dom.Expression.InverseExpression -->
<g id="node2" class="node">
<title>pyGHDL.dom.Expression.InverseExpression</title>
<g id="a_node2"><a xlink:href="../pyGHDL/pyGHDL.dom.Expression.html#pyGHDL.dom.Expression.InverseExpression" xlink:title="pyGHDL.dom.Expression.InverseExpression" target="_top">
<polygon fill="none" stroke="#000000" stroke-width=".5" points="1230,-37 1000,-37 1000,-18 1230,-18 1230,-37"/>
<text text-anchor="middle" x="1115" y="-25" font-family="Vera Sans, DejaVu Sans, Liberation Sans, Arial, Helvetica, sans" font-size="10.00" fill="#000000">pyGHDL.dom.Expression.InverseExpression</text>
</a>
</g>
</g>
<!-- pyGHDL.dom.DOMMixin&#45;&gt;pyGHDL.dom.Expression.InverseExpression -->
<g id="edge2" class="edge">
<title>pyGHDL.dom.DOMMixin&#45;&gt;pyGHDL.dom.Expression.InverseExpression</title>
<path fill="none" stroke="#000000" stroke-width=".5" d="M909.51,-41.8277C935.2817,-40.0308 965.5547,-37.92 994.8242,-35.8792"/>
<polygon fill="#000000" stroke="#000000" stroke-width=".5" points="995.0268,-37.6194 999.8929,-35.5258 994.7833,-34.1279 995.0268,-37.6194"/>
</g>
<!-- pyVHDLModel.SyntaxModel.InverseExpression -->
<g id="node3" class="node">
<title>pyVHDLModel.SyntaxModel.InverseExpression</title>
<polygon fill="none" stroke="#000000" stroke-width=".5" points="964,-19 721,-19 721,0 964,0 964,-19"/>
<text text-anchor="middle" x="842.5" y="-7" font-family="Vera Sans, DejaVu Sans, Liberation Sans, Arial, Helvetica, sans" font-size="10.00" fill="#000000">pyVHDLModel.SyntaxModel.InverseExpression</text>
</g>
<!-- pyVHDLModel.SyntaxModel.InverseExpression&#45;&gt;pyGHDL.dom.Expression.InverseExpression -->
<g id="edge1" class="edge">
<title>pyVHDLModel.SyntaxModel.InverseExpression&#45;&gt;pyGHDL.dom.Expression.InverseExpression</title>
<path fill="none" stroke="#000000" stroke-width=".5" d="M964.0064,-17.5261C974.2518,-18.2029 984.6097,-18.8871 994.8447,-19.5631"/>
<polygon fill="#000000" stroke="#000000" stroke-width=".5" points="994.7537,-21.3108 999.8582,-19.8943 994.9845,-17.8185 994.7537,-21.3108"/>
</g>
<!-- pyVHDLModel.ModelEntity -->
<g id="node4" class="node">
<title>pyVHDLModel.ModelEntity</title>
<g id="a_node4"><a xlink:title="``ModelEntity`` is the base class for all classes in the VHDL language model,">
<polygon fill="none" stroke="#000000" stroke-width=".5" points="146,-19 0,-19 0,0 146,0 146,-19"/>
<text text-anchor="middle" x="73" y="-7" font-family="Vera Sans, DejaVu Sans, Liberation Sans, Arial, Helvetica, sans" font-size="10.00" fill="#000000">pyVHDLModel.ModelEntity</text>
</a>
</g>
</g>
<!-- pyVHDLModel.SyntaxModel.BaseExpression -->
<g id="node5" class="node">
<title>pyVHDLModel.SyntaxModel.BaseExpression</title>
<g id="a_node5"><a xlink:title="A ``BaseExpression`` is a base&#45;class for all expressions.">
<polygon fill="none" stroke="#000000" stroke-width=".5" points="413,-19 182,-19 182,0 413,0 413,-19"/>
<text text-anchor="middle" x="297.5" y="-7" font-family="Vera Sans, DejaVu Sans, Liberation Sans, Arial, Helvetica, sans" font-size="10.00" fill="#000000">pyVHDLModel.SyntaxModel.BaseExpression</text>
</a>
</g>
</g>
<!-- pyVHDLModel.ModelEntity&#45;&gt;pyVHDLModel.SyntaxModel.BaseExpression -->
<g id="edge3" class="edge">
<title>pyVHDLModel.ModelEntity&#45;&gt;pyVHDLModel.SyntaxModel.BaseExpression</title>
<path fill="none" stroke="#000000" stroke-width=".5" d="M146.1991,-9.5C155.9857,-9.5 166.2247,-9.5 176.5627,-9.5"/>
<polygon fill="#000000" stroke="#000000" stroke-width=".5" points="176.6441,-11.2501 181.644,-9.5 176.644,-7.7501 176.6441,-11.2501"/>
</g>
<!-- pyVHDLModel.SyntaxModel.UnaryExpression -->
<g id="node6" class="node">
<title>pyVHDLModel.SyntaxModel.UnaryExpression</title>
<g id="a_node6"><a xlink:title="A ``UnaryExpression`` is a base&#45;class for all unary expressions.">
<polygon fill="none" stroke="#000000" stroke-width=".5" points="685,-19 449,-19 449,0 685,0 685,-19"/>
<text text-anchor="middle" x="567" y="-7" font-family="Vera Sans, DejaVu Sans, Liberation Sans, Arial, Helvetica, sans" font-size="10.00" fill="#000000">pyVHDLModel.SyntaxModel.UnaryExpression</text>
</a>
</g>
</g>
<!-- pyVHDLModel.SyntaxModel.BaseExpression&#45;&gt;pyVHDLModel.SyntaxModel.UnaryExpression -->
<g id="edge5" class="edge">
<title>pyVHDLModel.SyntaxModel.BaseExpression&#45;&gt;pyVHDLModel.SyntaxModel.UnaryExpression</title>
<path fill="none" stroke="#000000" stroke-width=".5" d="M413.3563,-9.5C423.3182,-9.5 433.4207,-9.5 443.4401,-9.5"/>
<polygon fill="#000000" stroke="#000000" stroke-width=".5" points="443.6709,-11.2501 448.6708,-9.5 443.6708,-7.7501 443.6709,-11.2501"/>
</g>
<!-- pyVHDLModel.SyntaxModel.UnaryExpression&#45;&gt;pyVHDLModel.SyntaxModel.InverseExpression -->
<g id="edge4" class="edge">
<title>pyVHDLModel.SyntaxModel.UnaryExpression&#45;&gt;pyVHDLModel.SyntaxModel.InverseExpression</title>
<path fill="none" stroke="#000000" stroke-width=".5" d="M685.0357,-9.5C695.2019,-9.5 705.5143,-9.5 715.7453,-9.5"/>
<polygon fill="#000000" stroke="#000000" stroke-width=".5" points="715.7603,-11.2501 720.7602,-9.5 715.7602,-7.7501 715.7603,-11.2501"/>
</g>
</g>
</svg>
