<?xml version="1.0" encoding="UTF-8" standalone="no"?>
<!DOCTYPE svg PUBLIC "-//W3C//DTD SVG 1.1//EN"
 "http://www.w3.org/Graphics/SVG/1.1/DTD/svg11.dtd">
<!-- Generated by graphviz version 2.40.1 (20161225.0304)
 -->
<!-- Title: inheritance8a9ff27274 Pages: 1 -->
<svg width="576pt" height="35pt"
 viewBox="0.00 0.00 576.00 34.91" xmlns="http://www.w3.org/2000/svg" xmlns:xlink="http://www.w3.org/1999/xlink">
<g id="graph0" class="graph" transform="scale(.5455 .5455) rotate(0) translate(4 60)">
<title>inheritance8a9ff27274</title>
<polygon fill="#ffffff" stroke="transparent" points="-4,4 -4,-60 1052,-60 1052,4 -4,4"/>
<!-- pyGHDL.dom.Aggregates.NamedAggregateElement -->
<g id="node1" class="node">
<title>pyGHDL.dom.Aggregates.NamedAggregateElement</title>
<g id="a_node1"><a xlink:href="../pyGHDL/pyGHDL.dom.Aggregates.html#pyGHDL.dom.Aggregates.NamedAggregateElement" xlink:title="pyGHDL.dom.Aggregates.NamedAggregateElement" target="_top">
<polygon fill="none" stroke="#000000" stroke-width=".5" points="1048,-37 779,-37 779,-18 1048,-18 1048,-37"/>
<text text-anchor="middle" x="913.5" y="-25" font-family="Vera Sans, DejaVu Sans, Liberation Sans, Arial, Helvetica, sans" font-size="10.00" fill="#000000">pyGHDL.dom.Aggregates.NamedAggregateElement</text>
</a>
</g>
</g>
<!-- pyVHDLModel.SyntaxModel.NamedAggregateElement -->
<g id="node2" class="node">
<title>pyVHDLModel.SyntaxModel.NamedAggregateElement</title>
<polygon fill="none" stroke="#000000" stroke-width=".5" points="743,-56 463,-56 463,-37 743,-37 743,-56"/>
<text text-anchor="middle" x="603" y="-44" font-family="Vera Sans, DejaVu Sans, Liberation Sans, Arial, Helvetica, sans" font-size="10.00" fill="#000000">pyVHDLModel.SyntaxModel.NamedAggregateElement</text>
</g>
<!-- pyVHDLModel.SyntaxModel.NamedAggregateElement&#45;&gt;pyGHDL.dom.Aggregates.NamedAggregateElement -->
<g id="edge1" class="edge">
<title>pyVHDLModel.SyntaxModel.NamedAggregateElement&#45;&gt;pyGHDL.dom.Aggregates.NamedAggregateElement</title>
<path fill="none" stroke="#000000" stroke-width=".5" d="M743.2613,-37.9172C753.2518,-37.3058 763.3259,-36.6894 773.3161,-36.0781"/>
<polygon fill="#000000" stroke="#000000" stroke-width=".5" points="773.648,-37.8111 778.5317,-35.7589 773.4341,-34.3177 773.648,-37.8111"/>
</g>
<!-- pyGHDL.dom.DOMMixin -->
<g id="node3" class="node">
<title>pyGHDL.dom.DOMMixin</title>
<g id="a_node3"><a xlink:href="../pyGHDL.dom.html#pyGHDL.dom.DOMMixin" xlink:title="pyGHDL.dom.DOMMixin" target="_top">
<polygon fill="none" stroke="#000000" stroke-width=".5" points="670,-19 536,-19 536,0 670,0 670,-19"/>
<text text-anchor="middle" x="603" y="-7" font-family="Vera Sans, DejaVu Sans, Liberation Sans, Arial, Helvetica, sans" font-size="10.00" fill="#000000">pyGHDL.dom.DOMMixin</text>
</a>
</g>
</g>
<!-- pyGHDL.dom.DOMMixin&#45;&gt;pyGHDL.dom.Aggregates.NamedAggregateElement -->
<g id="edge2" class="edge">
<title>pyGHDL.dom.DOMMixin&#45;&gt;pyGHDL.dom.Aggregates.NamedAggregateElement</title>
<path fill="none" stroke="#000000" stroke-width=".5" d="M670.3739,-13.4057C700.7188,-15.1649 737.7424,-17.3112 773.6554,-19.3931"/>
<polygon fill="#000000" stroke="#000000" stroke-width=".5" points="773.8522,-21.1573 778.9451,-19.6997 774.0548,-17.6632 773.8522,-21.1573"/>
</g>
<!-- pyVHDLModel.ModelEntity -->
<g id="node4" class="node">
<title>pyVHDLModel.ModelEntity</title>
<g id="a_node4"><a xlink:title="``ModelEntity`` is the base class for all classes in the VHDL language model,">
<polygon fill="none" stroke="#000000" stroke-width=".5" points="146,-56 0,-56 0,-37 146,-37 146,-56"/>
<text text-anchor="middle" x="73" y="-44" font-family="Vera Sans, DejaVu Sans, Liberation Sans, Arial, Helvetica, sans" font-size="10.00" fill="#000000">pyVHDLModel.ModelEntity</text>
</a>
</g>
</g>
<!-- pyVHDLModel.SyntaxModel.AggregateElement -->
<g id="node5" class="node">
<title>pyVHDLModel.SyntaxModel.AggregateElement</title>
<g id="a_node5"><a xlink:title="A ``AggregateElement`` is a base&#45;class for all aggregate elements.">
<polygon fill="none" stroke="#000000" stroke-width=".5" points="427,-56 182,-56 182,-37 427,-37 427,-56"/>
<text text-anchor="middle" x="304.5" y="-44" font-family="Vera Sans, DejaVu Sans, Liberation Sans, Arial, Helvetica, sans" font-size="10.00" fill="#000000">pyVHDLModel.SyntaxModel.AggregateElement</text>
</a>
</g>
</g>
<!-- pyVHDLModel.ModelEntity&#45;&gt;pyVHDLModel.SyntaxModel.AggregateElement -->
<g id="edge3" class="edge">
<title>pyVHDLModel.ModelEntity&#45;&gt;pyVHDLModel.SyntaxModel.AggregateElement</title>
<path fill="none" stroke="#000000" stroke-width=".5" d="M146.248,-46.5C156.0381,-46.5 166.2991,-46.5 176.6913,-46.5"/>
<polygon fill="#000000" stroke="#000000" stroke-width=".5" points="176.802,-48.2501 181.8019,-46.5 176.8019,-44.7501 176.802,-48.2501"/>
</g>
<!-- pyVHDLModel.SyntaxModel.AggregateElement&#45;&gt;pyVHDLModel.SyntaxModel.NamedAggregateElement -->
<g id="edge4" class="edge">
<title>pyVHDLModel.SyntaxModel.AggregateElement&#45;&gt;pyVHDLModel.SyntaxModel.NamedAggregateElement</title>
<path fill="none" stroke="#000000" stroke-width=".5" d="M427.2036,-46.5C437.2914,-46.5 447.5463,-46.5 457.7761,-46.5"/>
<polygon fill="#000000" stroke="#000000" stroke-width=".5" points="457.7951,-48.2501 462.7951,-46.5 457.795,-44.7501 457.7951,-48.2501"/>
</g>
</g>
</svg>
