<?xml version="1.0" encoding="UTF-8" standalone="no"?>
<!DOCTYPE svg PUBLIC "-//W3C//DTD SVG 1.1//EN"
 "http://www.w3.org/Graphics/SVG/1.1/DTD/svg11.dtd">
<!-- Generated by graphviz version 2.40.1 (20161225.0304)
 -->
<!-- Title: inheritance9afd7b41f8 Pages: 1 -->
<svg width="576pt" height="27pt"
 viewBox="0.00 0.00 576.00 26.89" xmlns="http://www.w3.org/2000/svg" xmlns:xlink="http://www.w3.org/1999/xlink">
<g id="graph0" class="graph" transform="scale(.4201 .4201) rotate(0) translate(4 60)">
<title>inheritance9afd7b41f8</title>
<polygon fill="#ffffff" stroke="transparent" points="-4,4 -4,-60 1367,-60 1367,4 -4,4"/>
<!-- pyGHDL.dom.DOMMixin -->
<g id="node1" class="node">
<title>pyGHDL.dom.DOMMixin</title>
<g id="a_node1"><a xlink:href="../pyGHDL.dom.html#pyGHDL.dom.DOMMixin" xlink:title="pyGHDL.dom.DOMMixin" target="_top">
<polygon fill="none" stroke="#000000" stroke-width=".5" points="912.5,-56 778.5,-56 778.5,-37 912.5,-37 912.5,-56"/>
<text text-anchor="middle" x="845.5" y="-44" font-family="Vera Sans, DejaVu Sans, Liberation Sans, Arial, Helvetica, sans" font-size="10.00" fill="#000000">pyGHDL.dom.DOMMixin</text>
</a>
</g>
</g>
<!-- pyGHDL.dom.Symbol.ConstrainedCompositeSubtypeSymbol -->
<g id="node2" class="node">
<title>pyGHDL.dom.Symbol.ConstrainedCompositeSubtypeSymbol</title>
<g id="a_node2"><a xlink:href="../pyGHDL/pyGHDL.dom.Symbol.html#pyGHDL.dom.Symbol.ConstrainedCompositeSubtypeSymbol" xlink:title="pyGHDL.dom.Symbol.ConstrainedCompositeSubtypeSymbol" target="_top">
<polygon fill="none" stroke="#000000" stroke-width=".5" points="1363,-37 1052,-37 1052,-18 1363,-18 1363,-37"/>
<text text-anchor="middle" x="1207.5" y="-25" font-family="Vera Sans, DejaVu Sans, Liberation Sans, Arial, Helvetica, sans" font-size="10.00" fill="#000000">pyGHDL.dom.Symbol.ConstrainedCompositeSubtypeSymbol</text>
</a>
</g>
</g>
<!-- pyGHDL.dom.DOMMixin&#45;&gt;pyGHDL.dom.Symbol.ConstrainedCompositeSubtypeSymbol -->
<g id="edge2" class="edge">
<title>pyGHDL.dom.DOMMixin&#45;&gt;pyGHDL.dom.Symbol.ConstrainedCompositeSubtypeSymbol</title>
<path fill="none" stroke="#000000" stroke-width=".5" d="M912.741,-42.9708C950.5201,-40.9879 999.4187,-38.4214 1046.4914,-35.9507"/>
<polygon fill="#000000" stroke="#000000" stroke-width=".5" points="1046.7277,-37.6908 1051.6291,-35.6811 1046.5442,-34.1956 1046.7277,-37.6908"/>
</g>
<!-- pyVHDLModel.SyntaxModel.ConstrainedCompositeSubtypeSymbol -->
<g id="node3" class="node">
<title>pyVHDLModel.SyntaxModel.ConstrainedCompositeSubtypeSymbol</title>
<polygon fill="none" stroke="#000000" stroke-width=".5" points="1016,-19 675,-19 675,0 1016,0 1016,-19"/>
<text text-anchor="middle" x="845.5" y="-7" font-family="Vera Sans, DejaVu Sans, Liberation Sans, Arial, Helvetica, sans" font-size="10.00" fill="#000000">pyVHDLModel.SyntaxModel.ConstrainedCompositeSubtypeSymbol</text>
</g>
<!-- pyVHDLModel.SyntaxModel.ConstrainedCompositeSubtypeSymbol&#45;&gt;pyGHDL.dom.Symbol.ConstrainedCompositeSubtypeSymbol -->
<g id="edge1" class="edge">
<title>pyVHDLModel.SyntaxModel.ConstrainedCompositeSubtypeSymbol&#45;&gt;pyGHDL.dom.Symbol.ConstrainedCompositeSubtypeSymbol</title>
<path fill="none" stroke="#000000" stroke-width=".5" d="M1016.1647,-17.9861C1026.3994,-18.495 1036.6784,-19.0061 1046.8701,-19.5129"/>
<polygon fill="#000000" stroke="#000000" stroke-width=".5" points="1046.785,-21.2607 1051.8657,-19.7613 1046.9588,-17.765 1046.785,-21.2607"/>
</g>
<!-- pyVHDLModel.ModelEntity -->
<g id="node4" class="node">
<title>pyVHDLModel.ModelEntity</title>
<g id="a_node4"><a xlink:title="``ModelEntity`` is the base class for all classes in the VHDL language model,">
<polygon fill="none" stroke="#000000" stroke-width=".5" points="146,-19 0,-19 0,0 146,0 146,-19"/>
<text text-anchor="middle" x="73" y="-7" font-family="Vera Sans, DejaVu Sans, Liberation Sans, Arial, Helvetica, sans" font-size="10.00" fill="#000000">pyVHDLModel.ModelEntity</text>
</a>
</g>
</g>
<!-- pyVHDLModel.SyntaxModel.Symbol -->
<g id="node6" class="node">
<title>pyVHDLModel.SyntaxModel.Symbol</title>
<polygon fill="none" stroke="#000000" stroke-width=".5" points="373,-19 182,-19 182,0 373,0 373,-19"/>
<text text-anchor="middle" x="277.5" y="-7" font-family="Vera Sans, DejaVu Sans, Liberation Sans, Arial, Helvetica, sans" font-size="10.00" fill="#000000">pyVHDLModel.SyntaxModel.Symbol</text>
</g>
<!-- pyVHDLModel.ModelEntity&#45;&gt;pyVHDLModel.SyntaxModel.Symbol -->
<g id="edge5" class="edge">
<title>pyVHDLModel.ModelEntity&#45;&gt;pyVHDLModel.SyntaxModel.Symbol</title>
<path fill="none" stroke="#000000" stroke-width=".5" d="M146.2516,-9.5C156.1992,-9.5 166.5459,-9.5 176.8707,-9.5"/>
<polygon fill="#000000" stroke="#000000" stroke-width=".5" points="176.9356,-11.2501 181.9356,-9.5 176.9355,-7.7501 176.9356,-11.2501"/>
</g>
<!-- pyVHDLModel.SyntaxModel.SubtypeSymbol -->
<g id="node5" class="node">
<title>pyVHDLModel.SyntaxModel.SubtypeSymbol</title>
<polygon fill="none" stroke="#000000" stroke-width=".5" points="639,-19 409,-19 409,0 639,0 639,-19"/>
<text text-anchor="middle" x="524" y="-7" font-family="Vera Sans, DejaVu Sans, Liberation Sans, Arial, Helvetica, sans" font-size="10.00" fill="#000000">pyVHDLModel.SyntaxModel.SubtypeSymbol</text>
</g>
<!-- pyVHDLModel.SyntaxModel.SubtypeSymbol&#45;&gt;pyVHDLModel.SyntaxModel.ConstrainedCompositeSubtypeSymbol -->
<g id="edge3" class="edge">
<title>pyVHDLModel.SyntaxModel.SubtypeSymbol&#45;&gt;pyVHDLModel.SyntaxModel.ConstrainedCompositeSubtypeSymbol</title>
<path fill="none" stroke="#000000" stroke-width=".5" d="M639.1608,-9.5C649.148,-9.5 659.3911,-9.5 669.7177,-9.5"/>
<polygon fill="#000000" stroke="#000000" stroke-width=".5" points="669.7931,-11.2501 674.7931,-9.5 669.7931,-7.7501 669.7931,-11.2501"/>
</g>
<!-- pyVHDLModel.SyntaxModel.Symbol&#45;&gt;pyVHDLModel.SyntaxModel.SubtypeSymbol -->
<g id="edge4" class="edge">
<title>pyVHDLModel.SyntaxModel.Symbol&#45;&gt;pyVHDLModel.SyntaxModel.SubtypeSymbol</title>
<path fill="none" stroke="#000000" stroke-width=".5" d="M373.1561,-9.5C383.1579,-9.5 393.4153,-9.5 403.646,-9.5"/>
<polygon fill="#000000" stroke="#000000" stroke-width=".5" points="403.6651,-11.2501 408.665,-9.5 403.665,-7.7501 403.6651,-11.2501"/>
</g>
</g>
</svg>
