<?xml version="1.0" encoding="UTF-8" standalone="no"?>
<!DOCTYPE svg PUBLIC "-//W3C//DTD SVG 1.1//EN"
 "http://www.w3.org/Graphics/SVG/1.1/DTD/svg11.dtd">
<!-- Generated by graphviz version 2.40.1 (20161225.0304)
 -->
<!-- Title: inheritancec572a6ea6b Pages: 1 -->
<svg width="576pt" height="24pt"
 viewBox="0.00 0.00 576.00 24.33" xmlns="http://www.w3.org/2000/svg" xmlns:xlink="http://www.w3.org/1999/xlink">
<g id="graph0" class="graph" transform="scale(.3802 .3802) rotate(0) translate(4 60)">
<title>inheritancec572a6ea6b</title>
<polygon fill="#ffffff" stroke="transparent" points="-4,4 -4,-60 1511,-60 1511,4 -4,4"/>
<!-- pyGHDL.dom.DOMMixin -->
<g id="node1" class="node">
<title>pyGHDL.dom.DOMMixin</title>
<g id="a_node1"><a xlink:href="../pyGHDL.dom.html#pyGHDL.dom.DOMMixin" xlink:title="pyGHDL.dom.DOMMixin" target="_top">
<polygon fill="none" stroke="#000000" stroke-width=".5" points="1200,-56 1066,-56 1066,-37 1200,-37 1200,-56"/>
<text text-anchor="middle" x="1133" y="-44" font-family="Vera Sans, DejaVu Sans, Liberation Sans, Arial, Helvetica, sans" font-size="10.00" fill="#000000">pyGHDL.dom.DOMMixin</text>
</a>
</g>
</g>
<!-- pyGHDL.dom.Expression.EqualExpression -->
<g id="node2" class="node">
<title>pyGHDL.dom.Expression.EqualExpression</title>
<g id="a_node2"><a xlink:href="../pyGHDL/pyGHDL.dom.Expression.html#pyGHDL.dom.Expression.EqualExpression" xlink:title="pyGHDL.dom.Expression.EqualExpression" target="_top">
<polygon fill="none" stroke="#000000" stroke-width=".5" points="1507,-37 1286,-37 1286,-18 1507,-18 1507,-37"/>
<text text-anchor="middle" x="1396.5" y="-25" font-family="Vera Sans, DejaVu Sans, Liberation Sans, Arial, Helvetica, sans" font-size="10.00" fill="#000000">pyGHDL.dom.Expression.EqualExpression</text>
</a>
</g>
</g>
<!-- pyGHDL.dom.DOMMixin&#45;&gt;pyGHDL.dom.Expression.EqualExpression -->
<g id="edge2" class="edge">
<title>pyGHDL.dom.DOMMixin&#45;&gt;pyGHDL.dom.Expression.EqualExpression</title>
<path fill="none" stroke="#000000" stroke-width=".5" d="M1200.174,-41.6563C1224.7199,-39.8864 1253.2387,-37.83 1280.8057,-35.8423"/>
<polygon fill="#000000" stroke="#000000" stroke-width=".5" points="1281.0796,-37.5772 1285.9408,-35.472 1280.8279,-34.0862 1281.0796,-37.5772"/>
</g>
<!-- pyVHDLModel.SyntaxModel.EqualExpression -->
<g id="node3" class="node">
<title>pyVHDLModel.SyntaxModel.EqualExpression</title>
<polygon fill="none" stroke="#000000" stroke-width=".5" points="1250,-19 1016,-19 1016,0 1250,0 1250,-19"/>
<text text-anchor="middle" x="1133" y="-7" font-family="Vera Sans, DejaVu Sans, Liberation Sans, Arial, Helvetica, sans" font-size="10.00" fill="#000000">pyVHDLModel.SyntaxModel.EqualExpression</text>
</g>
<!-- pyVHDLModel.SyntaxModel.EqualExpression&#45;&gt;pyGHDL.dom.Expression.EqualExpression -->
<g id="edge1" class="edge">
<title>pyVHDLModel.SyntaxModel.EqualExpression&#45;&gt;pyGHDL.dom.Expression.EqualExpression</title>
<path fill="none" stroke="#000000" stroke-width=".5" d="M1250.1095,-17.4999C1260.1755,-18.1875 1270.357,-18.883 1280.4149,-19.5701"/>
<polygon fill="#000000" stroke="#000000" stroke-width=".5" points="1280.5544,-21.3336 1285.6621,-19.9285 1280.793,-17.8417 1280.5544,-21.3336"/>
</g>
<!-- pyVHDLModel.ModelEntity -->
<g id="node4" class="node">
<title>pyVHDLModel.ModelEntity</title>
<g id="a_node4"><a xlink:title="``ModelEntity`` is the base class for all classes in the VHDL language model,">
<polygon fill="none" stroke="#000000" stroke-width=".5" points="146,-19 0,-19 0,0 146,0 146,-19"/>
<text text-anchor="middle" x="73" y="-7" font-family="Vera Sans, DejaVu Sans, Liberation Sans, Arial, Helvetica, sans" font-size="10.00" fill="#000000">pyVHDLModel.ModelEntity</text>
</a>
</g>
</g>
<!-- pyVHDLModel.SyntaxModel.BaseExpression -->
<g id="node5" class="node">
<title>pyVHDLModel.SyntaxModel.BaseExpression</title>
<g id="a_node5"><a xlink:title="A ``BaseExpression`` is a base&#45;class for all expressions.">
<polygon fill="none" stroke="#000000" stroke-width=".5" points="413,-19 182,-19 182,0 413,0 413,-19"/>
<text text-anchor="middle" x="297.5" y="-7" font-family="Vera Sans, DejaVu Sans, Liberation Sans, Arial, Helvetica, sans" font-size="10.00" fill="#000000">pyVHDLModel.SyntaxModel.BaseExpression</text>
</a>
</g>
</g>
<!-- pyVHDLModel.ModelEntity&#45;&gt;pyVHDLModel.SyntaxModel.BaseExpression -->
<g id="edge3" class="edge">
<title>pyVHDLModel.ModelEntity&#45;&gt;pyVHDLModel.SyntaxModel.BaseExpression</title>
<path fill="none" stroke="#000000" stroke-width=".5" d="M146.1991,-9.5C155.9857,-9.5 166.2247,-9.5 176.5627,-9.5"/>
<polygon fill="#000000" stroke="#000000" stroke-width=".5" points="176.6441,-11.2501 181.644,-9.5 176.644,-7.7501 176.6441,-11.2501"/>
</g>
<!-- pyVHDLModel.SyntaxModel.BinaryExpression -->
<g id="node6" class="node">
<title>pyVHDLModel.SyntaxModel.BinaryExpression</title>
<g id="a_node6"><a xlink:title="A ``BinaryExpression`` is a base&#45;class for all binary expressions.">
<polygon fill="none" stroke="#000000" stroke-width=".5" points="688,-19 449,-19 449,0 688,0 688,-19"/>
<text text-anchor="middle" x="568.5" y="-7" font-family="Vera Sans, DejaVu Sans, Liberation Sans, Arial, Helvetica, sans" font-size="10.00" fill="#000000">pyVHDLModel.SyntaxModel.BinaryExpression</text>
</a>
</g>
</g>
<!-- pyVHDLModel.SyntaxModel.BaseExpression&#45;&gt;pyVHDLModel.SyntaxModel.BinaryExpression -->
<g id="edge4" class="edge">
<title>pyVHDLModel.SyntaxModel.BaseExpression&#45;&gt;pyVHDLModel.SyntaxModel.BinaryExpression</title>
<path fill="none" stroke="#000000" stroke-width=".5" d="M413.2145,-9.5C423.3522,-9.5 433.6409,-9.5 443.8471,-9.5"/>
<polygon fill="#000000" stroke="#000000" stroke-width=".5" points="443.8497,-11.2501 448.8497,-9.5 443.8496,-7.7501 443.8497,-11.2501"/>
</g>
<!-- pyVHDLModel.SyntaxModel.RelationalExpression -->
<g id="node7" class="node">
<title>pyVHDLModel.SyntaxModel.RelationalExpression</title>
<g id="a_node7"><a xlink:title="A ``RelationalExpression`` is a base&#45;class for all shifting expressions.">
<polygon fill="none" stroke="#000000" stroke-width=".5" points="980,-19 724,-19 724,0 980,0 980,-19"/>
<text text-anchor="middle" x="852" y="-7" font-family="Vera Sans, DejaVu Sans, Liberation Sans, Arial, Helvetica, sans" font-size="10.00" fill="#000000">pyVHDLModel.SyntaxModel.RelationalExpression</text>
</a>
</g>
</g>
<!-- pyVHDLModel.SyntaxModel.BinaryExpression&#45;&gt;pyVHDLModel.SyntaxModel.RelationalExpression -->
<g id="edge6" class="edge">
<title>pyVHDLModel.SyntaxModel.BinaryExpression&#45;&gt;pyVHDLModel.SyntaxModel.RelationalExpression</title>
<path fill="none" stroke="#000000" stroke-width=".5" d="M688.3186,-9.5C698.4484,-9.5 708.7313,-9.5 718.9536,-9.5"/>
<polygon fill="#000000" stroke="#000000" stroke-width=".5" points="718.9661,-11.2501 723.9661,-9.5 718.966,-7.7501 718.9661,-11.2501"/>
</g>
<!-- pyVHDLModel.SyntaxModel.RelationalExpression&#45;&gt;pyVHDLModel.SyntaxModel.EqualExpression -->
<g id="edge5" class="edge">
<title>pyVHDLModel.SyntaxModel.RelationalExpression&#45;&gt;pyVHDLModel.SyntaxModel.EqualExpression</title>
<path fill="none" stroke="#000000" stroke-width=".5" d="M980.1655,-9.5C990.273,-9.5 1000.4662,-9.5 1010.5339,-9.5"/>
<polygon fill="#000000" stroke="#000000" stroke-width=".5" points="1010.7861,-11.2501 1015.7861,-9.5 1010.786,-7.7501 1010.7861,-11.2501"/>
</g>
</g>
</svg>
