<?xml version="1.0" encoding="UTF-8" standalone="no"?>
<!DOCTYPE svg PUBLIC "-//W3C//DTD SVG 1.1//EN"
 "http://www.w3.org/Graphics/SVG/1.1/DTD/svg11.dtd">
<!-- Generated by graphviz version 2.40.1 (20161225.0304)
 -->
<!-- Title: inheritancec3a765d4f1 Pages: 1 -->
<svg width="576pt" height="41pt"
 viewBox="0.00 0.00 576.00 41.41" xmlns="http://www.w3.org/2000/svg" xmlns:xlink="http://www.w3.org/1999/xlink">
<g id="graph0" class="graph" transform="scale(.4141 .4141) rotate(0) translate(4 96)">
<title>inheritancec3a765d4f1</title>
<polygon fill="#ffffff" stroke="transparent" points="-4,4 -4,-96 1387,-96 1387,4 -4,4"/>
<!-- pyGHDL.dom.DOMMixin -->
<g id="node1" class="node">
<title>pyGHDL.dom.DOMMixin</title>
<g id="a_node1"><a xlink:href="../pyGHDL.dom.html#pyGHDL.dom.DOMMixin" xlink:title="pyGHDL.dom.DOMMixin" target="_top">
<polygon fill="none" stroke="#000000" stroke-width=".5" points="998.5,-92 864.5,-92 864.5,-73 998.5,-73 998.5,-92"/>
<text text-anchor="middle" x="931.5" y="-80" font-family="Vera Sans, DejaVu Sans, Liberation Sans, Arial, Helvetica, sans" font-size="10.00" fill="#000000">pyGHDL.dom.DOMMixin</text>
</a>
</g>
</g>
<!-- pyGHDL.dom.Sequential.SequentialAssertStatement -->
<g id="node2" class="node">
<title>pyGHDL.dom.Sequential.SequentialAssertStatement</title>
<g id="a_node2"><a xlink:href="../pyGHDL/pyGHDL.dom.Sequential.html#pyGHDL.dom.Sequential.SequentialAssertStatement" xlink:title="pyGHDL.dom.Sequential.SequentialAssertStatement" target="_top">
<polygon fill="none" stroke="#000000" stroke-width=".5" points="1383,-73 1111,-73 1111,-54 1383,-54 1383,-73"/>
<text text-anchor="middle" x="1247" y="-61" font-family="Vera Sans, DejaVu Sans, Liberation Sans, Arial, Helvetica, sans" font-size="10.00" fill="#000000">pyGHDL.dom.Sequential.SequentialAssertStatement</text>
</a>
</g>
</g>
<!-- pyGHDL.dom.DOMMixin&#45;&gt;pyGHDL.dom.Sequential.SequentialAssertStatement -->
<g id="edge2" class="edge">
<title>pyGHDL.dom.DOMMixin&#45;&gt;pyGHDL.dom.Sequential.SequentialAssertStatement</title>
<path fill="none" stroke="#000000" stroke-width=".5" d="M998.7957,-78.4473C1030.1446,-76.5594 1068.6917,-74.2381 1105.978,-71.9926"/>
<polygon fill="#000000" stroke="#000000" stroke-width=".5" points="1106.1061,-73.7382 1110.9919,-71.6907 1105.8957,-70.2445 1106.1061,-73.7382"/>
</g>
<!-- pyVHDLModel.SyntaxModel.SequentialAssertStatement -->
<g id="node3" class="node">
<title>pyVHDLModel.SyntaxModel.SequentialAssertStatement</title>
<polygon fill="none" stroke="#000000" stroke-width=".5" points="1075,-55 788,-55 788,-36 1075,-36 1075,-55"/>
<text text-anchor="middle" x="931.5" y="-43" font-family="Vera Sans, DejaVu Sans, Liberation Sans, Arial, Helvetica, sans" font-size="10.00" fill="#000000">pyVHDLModel.SyntaxModel.SequentialAssertStatement</text>
</g>
<!-- pyVHDLModel.SyntaxModel.SequentialAssertStatement&#45;&gt;pyGHDL.dom.Sequential.SequentialAssertStatement -->
<g id="edge1" class="edge">
<title>pyVHDLModel.SyntaxModel.SequentialAssertStatement&#45;&gt;pyGHDL.dom.Sequential.SequentialAssertStatement</title>
<path fill="none" stroke="#000000" stroke-width=".5" d="M1075.4011,-53.7099C1085.3656,-54.2784 1095.4043,-54.8511 1105.3567,-55.4189"/>
<polygon fill="#000000" stroke="#000000" stroke-width=".5" points="1105.4608,-57.1776 1110.5524,-55.7153 1105.6602,-53.6833 1105.4608,-57.1776"/>
</g>
<!-- pyVHDLModel.LabeledEntity -->
<g id="node4" class="node">
<title>pyVHDLModel.LabeledEntity</title>
<g id="a_node4"><a xlink:title="A ``LabeledEntity`` is a mixin class for all VHDL entities that can have">
<polygon fill="none" stroke="#000000" stroke-width=".5" points="155,-56 0,-56 0,-37 155,-37 155,-56"/>
<text text-anchor="middle" x="77.5" y="-44" font-family="Vera Sans, DejaVu Sans, Liberation Sans, Arial, Helvetica, sans" font-size="10.00" fill="#000000">pyVHDLModel.LabeledEntity</text>
</a>
</g>
</g>
<!-- pyVHDLModel.SyntaxModel.Statement -->
<g id="node9" class="node">
<title>pyVHDLModel.SyntaxModel.Statement</title>
<polygon fill="none" stroke="#000000" stroke-width=".5" points="425,-37 220,-37 220,-18 425,-18 425,-37"/>
<text text-anchor="middle" x="322.5" y="-25" font-family="Vera Sans, DejaVu Sans, Liberation Sans, Arial, Helvetica, sans" font-size="10.00" fill="#000000">pyVHDLModel.SyntaxModel.Statement</text>
</g>
<!-- pyVHDLModel.LabeledEntity&#45;&gt;pyVHDLModel.SyntaxModel.Statement -->
<g id="edge8" class="edge">
<title>pyVHDLModel.LabeledEntity&#45;&gt;pyVHDLModel.SyntaxModel.Statement</title>
<path fill="none" stroke="#000000" stroke-width=".5" d="M155.0195,-40.4883C174.0175,-39.015 194.6916,-37.4117 214.8236,-35.8504"/>
<polygon fill="#000000" stroke="#000000" stroke-width=".5" points="215.0792,-37.5859 219.9289,-35.4545 214.8085,-34.0964 215.0792,-37.5859"/>
</g>
<!-- pyVHDLModel.ModelEntity -->
<g id="node5" class="node">
<title>pyVHDLModel.ModelEntity</title>
<g id="a_node5"><a xlink:title="``ModelEntity`` is the base class for all classes in the VHDL language model,">
<polygon fill="none" stroke="#000000" stroke-width=".5" points="150.5,-19 4.5,-19 4.5,0 150.5,0 150.5,-19"/>
<text text-anchor="middle" x="77.5" y="-7" font-family="Vera Sans, DejaVu Sans, Liberation Sans, Arial, Helvetica, sans" font-size="10.00" fill="#000000">pyVHDLModel.ModelEntity</text>
</a>
</g>
</g>
<!-- pyVHDLModel.ModelEntity&#45;&gt;pyVHDLModel.SyntaxModel.Statement -->
<g id="edge7" class="edge">
<title>pyVHDLModel.ModelEntity&#45;&gt;pyVHDLModel.SyntaxModel.Statement</title>
<path fill="none" stroke="#000000" stroke-width=".5" d="M150.6762,-14.8762C170.779,-16.3531 193.0092,-17.9864 214.6233,-19.5744"/>
<polygon fill="#000000" stroke="#000000" stroke-width=".5" points="214.6935,-21.3342 219.8083,-19.9553 214.95,-17.8436 214.6935,-21.3342"/>
</g>
<!-- pyVHDLModel.SyntaxModel.MixinAssertStatement -->
<g id="node6" class="node">
<title>pyVHDLModel.SyntaxModel.MixinAssertStatement</title>
<g id="a_node6"><a xlink:title="A ``MixinAssertStatement`` is a mixin&#45;class for all assert statements.">
<polygon fill="none" stroke="#000000" stroke-width=".5" points="752,-74 490,-74 490,-55 752,-55 752,-74"/>
<text text-anchor="middle" x="621" y="-62" font-family="Vera Sans, DejaVu Sans, Liberation Sans, Arial, Helvetica, sans" font-size="10.00" fill="#000000">pyVHDLModel.SyntaxModel.MixinAssertStatement</text>
</a>
</g>
</g>
<!-- pyVHDLModel.SyntaxModel.MixinAssertStatement&#45;&gt;pyVHDLModel.SyntaxModel.SequentialAssertStatement -->
<g id="edge5" class="edge">
<title>pyVHDLModel.SyntaxModel.MixinAssertStatement&#45;&gt;pyVHDLModel.SyntaxModel.SequentialAssertStatement</title>
<path fill="none" stroke="#000000" stroke-width=".5" d="M752.2299,-56.4698C762.3288,-55.8519 772.5666,-55.2254 782.7668,-54.6012"/>
<polygon fill="#000000" stroke="#000000" stroke-width=".5" points="782.8867,-56.3473 787.7704,-54.295 782.6729,-52.8538 782.8867,-56.3473"/>
</g>
<!-- pyVHDLModel.SyntaxModel.MixinReportStatement -->
<g id="node7" class="node">
<title>pyVHDLModel.SyntaxModel.MixinReportStatement</title>
<g id="a_node7"><a xlink:title="A ``MixinReportStatement`` is a mixin&#45;class for all report and assert statements.">
<polygon fill="none" stroke="#000000" stroke-width=".5" points="454,-74 191,-74 191,-55 454,-55 454,-74"/>
<text text-anchor="middle" x="322.5" y="-62" font-family="Vera Sans, DejaVu Sans, Liberation Sans, Arial, Helvetica, sans" font-size="10.00" fill="#000000">pyVHDLModel.SyntaxModel.MixinReportStatement</text>
</a>
</g>
</g>
<!-- pyVHDLModel.SyntaxModel.MixinReportStatement&#45;&gt;pyVHDLModel.SyntaxModel.MixinAssertStatement -->
<g id="edge3" class="edge">
<title>pyVHDLModel.SyntaxModel.MixinReportStatement&#45;&gt;pyVHDLModel.SyntaxModel.MixinAssertStatement</title>
<path fill="none" stroke="#000000" stroke-width=".5" d="M454.2953,-64.5C464.2701,-64.5 474.3503,-64.5 484.3544,-64.5"/>
<polygon fill="#000000" stroke="#000000" stroke-width=".5" points="484.5781,-66.2501 489.5781,-64.5 484.578,-62.7501 484.5781,-66.2501"/>
</g>
<!-- pyVHDLModel.SyntaxModel.SequentialStatement -->
<g id="node8" class="node">
<title>pyVHDLModel.SyntaxModel.SequentialStatement</title>
<g id="a_node8"><a xlink:title="A ``SequentialStatement`` is a base&#45;class for all sequential statements.">
<polygon fill="none" stroke="#000000" stroke-width=".5" points="749.5,-37 492.5,-37 492.5,-18 749.5,-18 749.5,-37"/>
<text text-anchor="middle" x="621" y="-25" font-family="Vera Sans, DejaVu Sans, Liberation Sans, Arial, Helvetica, sans" font-size="10.00" fill="#000000">pyVHDLModel.SyntaxModel.SequentialStatement</text>
</a>
</g>
</g>
<!-- pyVHDLModel.SyntaxModel.SequentialStatement&#45;&gt;pyVHDLModel.SyntaxModel.SequentialAssertStatement -->
<g id="edge4" class="edge">
<title>pyVHDLModel.SyntaxModel.SequentialStatement&#45;&gt;pyVHDLModel.SyntaxModel.SequentialAssertStatement</title>
<path fill="none" stroke="#000000" stroke-width=".5" d="M749.5336,-34.9512C760.5292,-35.5886 771.7091,-36.2368 782.8437,-36.8822"/>
<polygon fill="#000000" stroke="#000000" stroke-width=".5" points="782.8627,-38.6362 787.9556,-37.1786 783.0653,-35.1421 782.8627,-38.6362"/>
</g>
<!-- pyVHDLModel.SyntaxModel.Statement&#45;&gt;pyVHDLModel.SyntaxModel.SequentialStatement -->
<g id="edge6" class="edge">
<title>pyVHDLModel.SyntaxModel.Statement&#45;&gt;pyVHDLModel.SyntaxModel.SequentialStatement</title>
<path fill="none" stroke="#000000" stroke-width=".5" d="M425.2268,-27.5C445.1267,-27.5 466.2526,-27.5 486.9825,-27.5"/>
<polygon fill="#000000" stroke="#000000" stroke-width=".5" points="487.2433,-29.2501 492.2433,-27.5 487.2433,-25.7501 487.2433,-29.2501"/>
</g>
</g>
</svg>
