<?xml version="1.0" encoding="UTF-8" standalone="no"?>
<!DOCTYPE svg PUBLIC "-//W3C//DTD SVG 1.1//EN"
 "http://www.w3.org/Graphics/SVG/1.1/DTD/svg11.dtd">
<!-- Generated by graphviz version 2.40.1 (20161225.0304)
 -->
<!-- Title: inheritance7406c169a6 Pages: 1 -->
<svg width="576pt" height="44pt"
 viewBox="0.00 0.00 576.00 44.02" xmlns="http://www.w3.org/2000/svg" xmlns:xlink="http://www.w3.org/1999/xlink">
<g id="graph0" class="graph" transform="scale(.5368 .5368) rotate(0) translate(4 78)">
<title>inheritance7406c169a6</title>
<polygon fill="#ffffff" stroke="transparent" points="-4,4 -4,-78 1069,-78 1069,4 -4,4"/>
<!-- pyGHDL.dom.DOMMixin -->
<g id="node1" class="node">
<title>pyGHDL.dom.DOMMixin</title>
<g id="a_node1"><a xlink:href="../pyGHDL.dom.html#pyGHDL.dom.DOMMixin" xlink:title="pyGHDL.dom.DOMMixin" target="_top">
<polygon fill="none" stroke="#000000" stroke-width=".5" points="825,-74 691,-74 691,-55 825,-55 825,-74"/>
<text text-anchor="middle" x="758" y="-62" font-family="Vera Sans, DejaVu Sans, Liberation Sans, Arial, Helvetica, sans" font-size="10.00" fill="#000000">pyGHDL.dom.DOMMixin</text>
</a>
</g>
</g>
<!-- pyGHDL.dom.Type.AccessType -->
<g id="node2" class="node">
<title>pyGHDL.dom.Type.AccessType</title>
<g id="a_node2"><a xlink:href="../pyGHDL/pyGHDL.dom.Type.html#pyGHDL.dom.Type.AccessType" xlink:title="pyGHDL.dom.Type.AccessType" target="_top">
<polygon fill="none" stroke="#000000" stroke-width=".5" points="1065,-55 899,-55 899,-36 1065,-36 1065,-55"/>
<text text-anchor="middle" x="982" y="-43" font-family="Vera Sans, DejaVu Sans, Liberation Sans, Arial, Helvetica, sans" font-size="10.00" fill="#000000">pyGHDL.dom.Type.AccessType</text>
</a>
</g>
</g>
<!-- pyGHDL.dom.DOMMixin&#45;&gt;pyGHDL.dom.Type.AccessType -->
<g id="edge2" class="edge">
<title>pyGHDL.dom.DOMMixin&#45;&gt;pyGHDL.dom.Type.AccessType</title>
<path fill="none" stroke="#000000" stroke-width=".5" d="M825.2074,-58.7994C846.7727,-56.9702 870.9907,-54.916 893.8235,-52.9793"/>
<polygon fill="#000000" stroke="#000000" stroke-width=".5" points="894.1444,-54.7084 898.9786,-52.542 893.8485,-51.2209 894.1444,-54.7084"/>
</g>
<!-- pyVHDLModel.SyntaxModel.AccessType -->
<g id="node3" class="node">
<title>pyVHDLModel.SyntaxModel.AccessType</title>
<polygon fill="none" stroke="#000000" stroke-width=".5" points="863,-37 653,-37 653,-18 863,-18 863,-37"/>
<text text-anchor="middle" x="758" y="-25" font-family="Vera Sans, DejaVu Sans, Liberation Sans, Arial, Helvetica, sans" font-size="10.00" fill="#000000">pyVHDLModel.SyntaxModel.AccessType</text>
</g>
<!-- pyVHDLModel.SyntaxModel.AccessType&#45;&gt;pyGHDL.dom.Type.AccessType -->
<g id="edge1" class="edge">
<title>pyVHDLModel.SyntaxModel.AccessType&#45;&gt;pyGHDL.dom.Type.AccessType</title>
<path fill="none" stroke="#000000" stroke-width=".5" d="M863.1132,-35.9466C873.2769,-36.7633 883.5165,-37.5861 893.4955,-38.388"/>
<polygon fill="#000000" stroke="#000000" stroke-width=".5" points="893.5642,-40.1491 898.6883,-38.8053 893.8446,-36.6603 893.5642,-40.1491"/>
</g>
<!-- pyVHDLModel.ModelEntity -->
<g id="node4" class="node">
<title>pyVHDLModel.ModelEntity</title>
<g id="a_node4"><a xlink:title="``ModelEntity`` is the base class for all classes in the VHDL language model,">
<polygon fill="none" stroke="#000000" stroke-width=".5" points="149,-56 3,-56 3,-37 149,-37 149,-56"/>
<text text-anchor="middle" x="76" y="-44" font-family="Vera Sans, DejaVu Sans, Liberation Sans, Arial, Helvetica, sans" font-size="10.00" fill="#000000">pyVHDLModel.ModelEntity</text>
</a>
</g>
</g>
<!-- pyVHDLModel.SyntaxModel.BaseType -->
<g id="node7" class="node">
<title>pyVHDLModel.SyntaxModel.BaseType</title>
<g id="a_node7"><a xlink:title="``BaseType`` is the base class of all type entities in this model.">
<polygon fill="none" stroke="#000000" stroke-width=".5" points="388,-37 188,-37 188,-18 388,-18 388,-37"/>
<text text-anchor="middle" x="288" y="-25" font-family="Vera Sans, DejaVu Sans, Liberation Sans, Arial, Helvetica, sans" font-size="10.00" fill="#000000">pyVHDLModel.SyntaxModel.BaseType</text>
</a>
</g>
</g>
<!-- pyVHDLModel.ModelEntity&#45;&gt;pyVHDLModel.SyntaxModel.BaseType -->
<g id="edge4" class="edge">
<title>pyVHDLModel.ModelEntity&#45;&gt;pyVHDLModel.SyntaxModel.BaseType</title>
<path fill="none" stroke="#000000" stroke-width=".5" d="M149.2552,-39.9347C160.0491,-38.9673 171.3454,-37.9549 182.632,-36.9434"/>
<polygon fill="#000000" stroke="#000000" stroke-width=".5" points="182.9915,-38.6682 187.8153,-36.4788 182.679,-35.1822 182.9915,-38.6682"/>
</g>
<!-- pyVHDLModel.NamedEntity -->
<g id="node5" class="node">
<title>pyVHDLModel.NamedEntity</title>
<g id="a_node5"><a xlink:title="A ``NamedEntity`` is a mixin class for all VHDL entities that have identifiers.">
<polygon fill="none" stroke="#000000" stroke-width=".5" points="152,-19 0,-19 0,0 152,0 152,-19"/>
<text text-anchor="middle" x="76" y="-7" font-family="Vera Sans, DejaVu Sans, Liberation Sans, Arial, Helvetica, sans" font-size="10.00" fill="#000000">pyVHDLModel.NamedEntity</text>
</a>
</g>
</g>
<!-- pyVHDLModel.NamedEntity&#45;&gt;pyVHDLModel.SyntaxModel.BaseType -->
<g id="edge5" class="edge">
<title>pyVHDLModel.NamedEntity&#45;&gt;pyVHDLModel.SyntaxModel.BaseType</title>
<path fill="none" stroke="#000000" stroke-width=".5" d="M152.2374,-15.973C162.1327,-16.8132 172.4047,-17.6853 182.6683,-18.5567"/>
<polygon fill="#000000" stroke="#000000" stroke-width=".5" points="182.5743,-20.305 187.7045,-18.9843 182.8705,-16.8175 182.5743,-20.305"/>
</g>
<!-- pyVHDLModel.SyntaxModel.FullType -->
<g id="node6" class="node">
<title>pyVHDLModel.SyntaxModel.FullType</title>
<polygon fill="none" stroke="#000000" stroke-width=".5" points="617,-37 424,-37 424,-18 617,-18 617,-37"/>
<text text-anchor="middle" x="520.5" y="-25" font-family="Vera Sans, DejaVu Sans, Liberation Sans, Arial, Helvetica, sans" font-size="10.00" fill="#000000">pyVHDLModel.SyntaxModel.FullType</text>
</g>
<!-- pyVHDLModel.SyntaxModel.FullType&#45;&gt;pyVHDLModel.SyntaxModel.AccessType -->
<g id="edge3" class="edge">
<title>pyVHDLModel.SyntaxModel.FullType&#45;&gt;pyVHDLModel.SyntaxModel.AccessType</title>
<path fill="none" stroke="#000000" stroke-width=".5" d="M617.1003,-27.5C627.2539,-27.5 637.6314,-27.5 647.9216,-27.5"/>
<polygon fill="#000000" stroke="#000000" stroke-width=".5" points="647.9648,-29.2501 652.9648,-27.5 647.9648,-25.7501 647.9648,-29.2501"/>
</g>
<!-- pyVHDLModel.SyntaxModel.BaseType&#45;&gt;pyVHDLModel.SyntaxModel.FullType -->
<g id="edge6" class="edge">
<title>pyVHDLModel.SyntaxModel.BaseType&#45;&gt;pyVHDLModel.SyntaxModel.FullType</title>
<path fill="none" stroke="#000000" stroke-width=".5" d="M388.2879,-27.5C398.3351,-27.5 408.5445,-27.5 418.6082,-27.5"/>
<polygon fill="#000000" stroke="#000000" stroke-width=".5" points="418.8559,-29.2501 423.8559,-27.5 418.8558,-25.7501 418.8559,-29.2501"/>
</g>
</g>
</svg>
