<?xml version="1.0" encoding="UTF-8" standalone="no"?>
<!DOCTYPE svg PUBLIC "-//W3C//DTD SVG 1.1//EN"
 "http://www.w3.org/Graphics/SVG/1.1/DTD/svg11.dtd">
<!-- Generated by graphviz version 2.40.1 (20161225.0304)
 -->
<!-- Title: inheritancef98e2900c4 Pages: 1 -->
<svg width="576pt" height="43pt"
 viewBox="0.00 0.00 576.00 43.08" xmlns="http://www.w3.org/2000/svg" xmlns:xlink="http://www.w3.org/1999/xlink">
<g id="graph0" class="graph" transform="scale(.362 .362) rotate(0) translate(4 115)">
<title>inheritancef98e2900c4</title>
<polygon fill="#ffffff" stroke="transparent" points="-4,4 -4,-115 1587,-115 1587,4 -4,4"/>
<!-- pyGHDL.dom.Concurrent.ForGenerateStatement -->
<g id="node1" class="node">
<title>pyGHDL.dom.Concurrent.ForGenerateStatement</title>
<g id="a_node1"><a xlink:href="../pyGHDL/pyGHDL.dom.Concurrent.html#pyGHDL.dom.Concurrent.ForGenerateStatement" xlink:title="pyGHDL.dom.Concurrent.ForGenerateStatement" target="_top">
<polygon fill="none" stroke="#000000" stroke-width=".5" points="1583,-55 1332,-55 1332,-36 1583,-36 1583,-55"/>
<text text-anchor="middle" x="1457.5" y="-43" font-family="Vera Sans, DejaVu Sans, Liberation Sans, Arial, Helvetica, sans" font-size="10.00" fill="#000000">pyGHDL.dom.Concurrent.ForGenerateStatement</text>
</a>
</g>
</g>
<!-- pyVHDLModel.SyntaxModel.ForGenerateStatement -->
<g id="node2" class="node">
<title>pyVHDLModel.SyntaxModel.ForGenerateStatement</title>
<polygon fill="none" stroke="#000000" stroke-width=".5" points="1296,-74 1031,-74 1031,-55 1296,-55 1296,-74"/>
<text text-anchor="middle" x="1163.5" y="-62" font-family="Vera Sans, DejaVu Sans, Liberation Sans, Arial, Helvetica, sans" font-size="10.00" fill="#000000">pyVHDLModel.SyntaxModel.ForGenerateStatement</text>
</g>
<!-- pyVHDLModel.SyntaxModel.ForGenerateStatement&#45;&gt;pyGHDL.dom.Concurrent.ForGenerateStatement -->
<g id="edge1" class="edge">
<title>pyVHDLModel.SyntaxModel.ForGenerateStatement&#45;&gt;pyGHDL.dom.Concurrent.ForGenerateStatement</title>
<path fill="none" stroke="#000000" stroke-width=".5" d="M1296.3078,-55.9172C1306.5081,-55.258 1316.8004,-54.5928 1326.9858,-53.9346"/>
<polygon fill="#000000" stroke="#000000" stroke-width=".5" points="1327.0997,-55.681 1331.9764,-53.6121 1326.8739,-52.1883 1327.0997,-55.681"/>
</g>
<!-- pyGHDL.dom.DOMMixin -->
<g id="node3" class="node">
<title>pyGHDL.dom.DOMMixin</title>
<g id="a_node3"><a xlink:href="../pyGHDL.dom.html#pyGHDL.dom.DOMMixin" xlink:title="pyGHDL.dom.DOMMixin" target="_top">
<polygon fill="none" stroke="#000000" stroke-width=".5" points="1230.5,-37 1096.5,-37 1096.5,-18 1230.5,-18 1230.5,-37"/>
<text text-anchor="middle" x="1163.5" y="-25" font-family="Vera Sans, DejaVu Sans, Liberation Sans, Arial, Helvetica, sans" font-size="10.00" fill="#000000">pyGHDL.dom.DOMMixin</text>
</a>
</g>
</g>
<!-- pyGHDL.dom.DOMMixin&#45;&gt;pyGHDL.dom.Concurrent.ForGenerateStatement -->
<g id="edge2" class="edge">
<title>pyGHDL.dom.DOMMixin&#45;&gt;pyGHDL.dom.Concurrent.ForGenerateStatement</title>
<path fill="none" stroke="#000000" stroke-width=".5" d="M1230.581,-31.607C1259.0548,-33.3503 1293.2762,-35.4455 1326.4071,-37.4739"/>
<polygon fill="#000000" stroke="#000000" stroke-width=".5" points="1326.6163,-39.2399 1331.714,-37.7988 1326.8303,-35.7464 1326.6163,-39.2399"/>
</g>
<!-- pyVHDLModel.LabeledEntity -->
<g id="node4" class="node">
<title>pyVHDLModel.LabeledEntity</title>
<g id="a_node4"><a xlink:title="A ``LabeledEntity`` is a mixin class for all VHDL entities that can have">
<polygon fill="none" stroke="#000000" stroke-width=".5" points="155,-56 0,-56 0,-37 155,-37 155,-56"/>
<text text-anchor="middle" x="77.5" y="-44" font-family="Vera Sans, DejaVu Sans, Liberation Sans, Arial, Helvetica, sans" font-size="10.00" fill="#000000">pyVHDLModel.LabeledEntity</text>
</a>
</g>
</g>
<!-- pyVHDLModel.SyntaxModel.Statement -->
<g id="node8" class="node">
<title>pyVHDLModel.SyntaxModel.Statement</title>
<polygon fill="none" stroke="#000000" stroke-width=".5" points="396,-37 191,-37 191,-18 396,-18 396,-37"/>
<text text-anchor="middle" x="293.5" y="-25" font-family="Vera Sans, DejaVu Sans, Liberation Sans, Arial, Helvetica, sans" font-size="10.00" fill="#000000">pyVHDLModel.SyntaxModel.Statement</text>
</g>
<!-- pyVHDLModel.LabeledEntity&#45;&gt;pyVHDLModel.SyntaxModel.Statement -->
<g id="edge9" class="edge">
<title>pyVHDLModel.LabeledEntity&#45;&gt;pyVHDLModel.SyntaxModel.Statement</title>
<path fill="none" stroke="#000000" stroke-width=".5" d="M155.1758,-39.6674C165.154,-38.7897 175.5079,-37.8789 185.8575,-36.9686"/>
<polygon fill="#000000" stroke="#000000" stroke-width=".5" points="186.1088,-38.7033 190.9362,-36.5218 185.802,-35.2168 186.1088,-38.7033"/>
</g>
<!-- pyVHDLModel.ModelEntity -->
<g id="node5" class="node">
<title>pyVHDLModel.ModelEntity</title>
<g id="a_node5"><a xlink:title="``ModelEntity`` is the base class for all classes in the VHDL language model,">
<polygon fill="none" stroke="#000000" stroke-width=".5" points="150.5,-19 4.5,-19 4.5,0 150.5,0 150.5,-19"/>
<text text-anchor="middle" x="77.5" y="-7" font-family="Vera Sans, DejaVu Sans, Liberation Sans, Arial, Helvetica, sans" font-size="10.00" fill="#000000">pyVHDLModel.ModelEntity</text>
</a>
</g>
</g>
<!-- pyVHDLModel.ModelEntity&#45;&gt;pyVHDLModel.SyntaxModel.Statement -->
<g id="edge8" class="edge">
<title>pyVHDLModel.ModelEntity&#45;&gt;pyVHDLModel.SyntaxModel.Statement</title>
<path fill="none" stroke="#000000" stroke-width=".5" d="M150.6277,-15.594C161.9793,-16.5399 173.9067,-17.5339 185.8288,-18.5274"/>
<polygon fill="#000000" stroke="#000000" stroke-width=".5" points="185.8081,-20.2817 190.9362,-18.953 186.0988,-16.7937 185.8081,-20.2817"/>
</g>
<!-- pyVHDLModel.SyntaxModel.ConcurrentDeclarations -->
<g id="node6" class="node">
<title>pyVHDLModel.SyntaxModel.ConcurrentDeclarations</title>
<polygon fill="none" stroke="#000000" stroke-width=".5" points="995,-111 726,-111 726,-92 995,-92 995,-111"/>
<text text-anchor="middle" x="860.5" y="-99" font-family="Vera Sans, DejaVu Sans, Liberation Sans, Arial, Helvetica, sans" font-size="10.00" fill="#000000">pyVHDLModel.SyntaxModel.ConcurrentDeclarations</text>
</g>
<!-- pyVHDLModel.SyntaxModel.ConcurrentDeclarations&#45;&gt;pyVHDLModel.SyntaxModel.ForGenerateStatement -->
<g id="edge5" class="edge">
<title>pyVHDLModel.SyntaxModel.ConcurrentDeclarations&#45;&gt;pyVHDLModel.SyntaxModel.ForGenerateStatement</title>
<path fill="none" stroke="#000000" stroke-width=".5" d="M938.53,-91.9716C982.0059,-86.6626 1036.1325,-80.0531 1080.3986,-74.6477"/>
<polygon fill="#000000" stroke="#000000" stroke-width=".5" points="1080.7205,-76.3715 1085.4715,-74.0282 1080.2962,-72.8973 1080.7205,-76.3715"/>
</g>
<!-- pyVHDLModel.SyntaxModel.ConcurrentStatement -->
<g id="node7" class="node">
<title>pyVHDLModel.SyntaxModel.ConcurrentStatement</title>
<g id="a_node7"><a xlink:title="A ``ConcurrentStatement`` is a base&#45;class for all concurrent statements.">
<polygon fill="none" stroke="#000000" stroke-width=".5" points="690,-37 432,-37 432,-18 690,-18 690,-37"/>
<text text-anchor="middle" x="561" y="-25" font-family="Vera Sans, DejaVu Sans, Liberation Sans, Arial, Helvetica, sans" font-size="10.00" fill="#000000">pyVHDLModel.SyntaxModel.ConcurrentStatement</text>
</a>
</g>
</g>
<!-- pyVHDLModel.SyntaxModel.GenerateStatement -->
<g id="node10" class="node">
<title>pyVHDLModel.SyntaxModel.GenerateStatement</title>
<g id="a_node10"><a xlink:title="A ``GenerateStatement`` is a base&#45;class for all generate statements.">
<polygon fill="none" stroke="#000000" stroke-width=".5" points="985.5,-37 735.5,-37 735.5,-18 985.5,-18 985.5,-37"/>
<text text-anchor="middle" x="860.5" y="-25" font-family="Vera Sans, DejaVu Sans, Liberation Sans, Arial, Helvetica, sans" font-size="10.00" fill="#000000">pyVHDLModel.SyntaxModel.GenerateStatement</text>
</a>
</g>
</g>
<!-- pyVHDLModel.SyntaxModel.ConcurrentStatement&#45;&gt;pyVHDLModel.SyntaxModel.GenerateStatement -->
<g id="edge7" class="edge">
<title>pyVHDLModel.SyntaxModel.ConcurrentStatement&#45;&gt;pyVHDLModel.SyntaxModel.GenerateStatement</title>
<path fill="none" stroke="#000000" stroke-width=".5" d="M690.188,-27.5C703.3261,-27.5 716.6793,-27.5 729.8329,-27.5"/>
<polygon fill="#000000" stroke="#000000" stroke-width=".5" points="730.0596,-29.2501 735.0595,-27.5 730.0595,-25.7501 730.0596,-29.2501"/>
</g>
<!-- pyVHDLModel.SyntaxModel.Statement&#45;&gt;pyVHDLModel.SyntaxModel.ConcurrentStatement -->
<g id="edge3" class="edge">
<title>pyVHDLModel.SyntaxModel.Statement&#45;&gt;pyVHDLModel.SyntaxModel.ConcurrentStatement</title>
<path fill="none" stroke="#000000" stroke-width=".5" d="M396.1575,-27.5C406.1602,-27.5 416.4086,-27.5 426.6617,-27.5"/>
<polygon fill="#000000" stroke="#000000" stroke-width=".5" points="426.6943,-29.2501 431.6943,-27.5 426.6942,-25.7501 426.6943,-29.2501"/>
</g>
<!-- pyVHDLModel.SyntaxModel.ConcurrentStatements -->
<g id="node9" class="node">
<title>pyVHDLModel.SyntaxModel.ConcurrentStatements</title>
<polygon fill="none" stroke="#000000" stroke-width=".5" points="992,-74 729,-74 729,-55 992,-55 992,-74"/>
<text text-anchor="middle" x="860.5" y="-62" font-family="Vera Sans, DejaVu Sans, Liberation Sans, Arial, Helvetica, sans" font-size="10.00" fill="#000000">pyVHDLModel.SyntaxModel.ConcurrentStatements</text>
</g>
<!-- pyVHDLModel.SyntaxModel.ConcurrentStatements&#45;&gt;pyVHDLModel.SyntaxModel.ForGenerateStatement -->
<g id="edge6" class="edge">
<title>pyVHDLModel.SyntaxModel.ConcurrentStatements&#45;&gt;pyVHDLModel.SyntaxModel.ForGenerateStatement</title>
<path fill="none" stroke="#000000" stroke-width=".5" d="M992.0783,-64.5C1003.1581,-64.5 1014.3826,-64.5 1025.5091,-64.5"/>
<polygon fill="#000000" stroke="#000000" stroke-width=".5" points="1025.6136,-66.2501 1030.6136,-64.5 1025.6135,-62.7501 1025.6136,-66.2501"/>
</g>
<!-- pyVHDLModel.SyntaxModel.GenerateStatement&#45;&gt;pyVHDLModel.SyntaxModel.ForGenerateStatement -->
<g id="edge4" class="edge">
<title>pyVHDLModel.SyntaxModel.GenerateStatement&#45;&gt;pyVHDLModel.SyntaxModel.ForGenerateStatement</title>
<path fill="none" stroke="#000000" stroke-width=".5" d="M938.53,-37.0284C982.0059,-42.3374 1036.1325,-48.9469 1080.3986,-54.3523"/>
<polygon fill="#000000" stroke="#000000" stroke-width=".5" points="1080.2962,-56.1027 1085.4715,-54.9718 1080.7205,-52.6285 1080.2962,-56.1027"/>
</g>
</g>
</svg>
