<?xml version="1.0" encoding="UTF-8" standalone="no"?>
<!DOCTYPE svg PUBLIC "-//W3C//DTD SVG 1.1//EN"
 "http://www.w3.org/Graphics/SVG/1.1/DTD/svg11.dtd">
<!-- Generated by graphviz version 2.40.1 (20161225.0304)
 -->
<!-- Title: inheritance740215f14c Pages: 1 -->
<svg width="576pt" height="31pt"
 viewBox="0.00 0.00 576.00 30.64" xmlns="http://www.w3.org/2000/svg" xmlns:xlink="http://www.w3.org/1999/xlink">
<g id="graph0" class="graph" transform="scale(.4788 .4788) rotate(0) translate(4 60)">
<title>inheritance740215f14c</title>
<polygon fill="#ffffff" stroke="transparent" points="-4,4 -4,-60 1199,-60 1199,4 -4,4"/>
<!-- pyGHDL.dom.DOMMixin -->
<g id="node1" class="node">
<title>pyGHDL.dom.DOMMixin</title>
<g id="a_node1"><a xlink:href="../pyGHDL.dom.html#pyGHDL.dom.DOMMixin" xlink:title="pyGHDL.dom.DOMMixin" target="_top">
<polygon fill="none" stroke="#000000" stroke-width=".5" points="876,-56 742,-56 742,-37 876,-37 876,-56"/>
<text text-anchor="middle" x="809" y="-44" font-family="Vera Sans, DejaVu Sans, Liberation Sans, Arial, Helvetica, sans" font-size="10.00" fill="#000000">pyGHDL.dom.DOMMixin</text>
</a>
</g>
</g>
<!-- pyGHDL.dom.Expression.SubtypeAllocation -->
<g id="node2" class="node">
<title>pyGHDL.dom.Expression.SubtypeAllocation</title>
<g id="a_node2"><a xlink:href="../pyGHDL/pyGHDL.dom.Expression.html#pyGHDL.dom.Expression.SubtypeAllocation" xlink:title="pyGHDL.dom.Expression.SubtypeAllocation" target="_top">
<polygon fill="none" stroke="#000000" stroke-width=".5" points="1195,-37 966,-37 966,-18 1195,-18 1195,-37"/>
<text text-anchor="middle" x="1080.5" y="-25" font-family="Vera Sans, DejaVu Sans, Liberation Sans, Arial, Helvetica, sans" font-size="10.00" fill="#000000">pyGHDL.dom.Expression.SubtypeAllocation</text>
</a>
</g>
</g>
<!-- pyGHDL.dom.DOMMixin&#45;&gt;pyGHDL.dom.Expression.SubtypeAllocation -->
<g id="edge2" class="edge">
<title>pyGHDL.dom.DOMMixin&#45;&gt;pyGHDL.dom.Expression.SubtypeAllocation</title>
<path fill="none" stroke="#000000" stroke-width=".5" d="M876.1124,-41.8034C901.7186,-40.0114 931.7463,-37.91 960.7817,-35.8781"/>
<polygon fill="#000000" stroke="#000000" stroke-width=".5" points="960.9443,-37.6211 965.8099,-35.5262 960.6999,-34.1296 960.9443,-37.6211"/>
</g>
<!-- pyVHDLModel.SyntaxModel.SubtypeAllocation -->
<g id="node3" class="node">
<title>pyVHDLModel.SyntaxModel.SubtypeAllocation</title>
<polygon fill="none" stroke="#000000" stroke-width=".5" points="930,-19 688,-19 688,0 930,0 930,-19"/>
<text text-anchor="middle" x="809" y="-7" font-family="Vera Sans, DejaVu Sans, Liberation Sans, Arial, Helvetica, sans" font-size="10.00" fill="#000000">pyVHDLModel.SyntaxModel.SubtypeAllocation</text>
</g>
<!-- pyVHDLModel.SyntaxModel.SubtypeAllocation&#45;&gt;pyGHDL.dom.Expression.SubtypeAllocation -->
<g id="edge1" class="edge">
<title>pyVHDLModel.SyntaxModel.SubtypeAllocation&#45;&gt;pyGHDL.dom.Expression.SubtypeAllocation</title>
<path fill="none" stroke="#000000" stroke-width=".5" d="M930.0605,-17.5261C940.2683,-18.2029 950.5881,-18.8871 960.7856,-19.5631"/>
<polygon fill="#000000" stroke="#000000" stroke-width=".5" points="960.6759,-21.3096 965.7807,-19.8943 960.9075,-17.8173 960.6759,-21.3096"/>
</g>
<!-- pyVHDLModel.ModelEntity -->
<g id="node4" class="node">
<title>pyVHDLModel.ModelEntity</title>
<g id="a_node4"><a xlink:title="``ModelEntity`` is the base class for all classes in the VHDL language model,">
<polygon fill="none" stroke="#000000" stroke-width=".5" points="146,-19 0,-19 0,0 146,0 146,-19"/>
<text text-anchor="middle" x="73" y="-7" font-family="Vera Sans, DejaVu Sans, Liberation Sans, Arial, Helvetica, sans" font-size="10.00" fill="#000000">pyVHDLModel.ModelEntity</text>
</a>
</g>
</g>
<!-- pyVHDLModel.SyntaxModel.BaseExpression -->
<g id="node6" class="node">
<title>pyVHDLModel.SyntaxModel.BaseExpression</title>
<g id="a_node6"><a xlink:title="A ``BaseExpression`` is a base&#45;class for all expressions.">
<polygon fill="none" stroke="#000000" stroke-width=".5" points="413,-19 182,-19 182,0 413,0 413,-19"/>
<text text-anchor="middle" x="297.5" y="-7" font-family="Vera Sans, DejaVu Sans, Liberation Sans, Arial, Helvetica, sans" font-size="10.00" fill="#000000">pyVHDLModel.SyntaxModel.BaseExpression</text>
</a>
</g>
</g>
<!-- pyVHDLModel.ModelEntity&#45;&gt;pyVHDLModel.SyntaxModel.BaseExpression -->
<g id="edge4" class="edge">
<title>pyVHDLModel.ModelEntity&#45;&gt;pyVHDLModel.SyntaxModel.BaseExpression</title>
<path fill="none" stroke="#000000" stroke-width=".5" d="M146.1991,-9.5C155.9857,-9.5 166.2247,-9.5 176.5627,-9.5"/>
<polygon fill="#000000" stroke="#000000" stroke-width=".5" points="176.6441,-11.2501 181.644,-9.5 176.644,-7.7501 176.6441,-11.2501"/>
</g>
<!-- pyVHDLModel.SyntaxModel.Allocation -->
<g id="node5" class="node">
<title>pyVHDLModel.SyntaxModel.Allocation</title>
<polygon fill="none" stroke="#000000" stroke-width=".5" points="652,-19 449,-19 449,0 652,0 652,-19"/>
<text text-anchor="middle" x="550.5" y="-7" font-family="Vera Sans, DejaVu Sans, Liberation Sans, Arial, Helvetica, sans" font-size="10.00" fill="#000000">pyVHDLModel.SyntaxModel.Allocation</text>
</g>
<!-- pyVHDLModel.SyntaxModel.Allocation&#45;&gt;pyVHDLModel.SyntaxModel.SubtypeAllocation -->
<g id="edge5" class="edge">
<title>pyVHDLModel.SyntaxModel.Allocation&#45;&gt;pyVHDLModel.SyntaxModel.SubtypeAllocation</title>
<path fill="none" stroke="#000000" stroke-width=".5" d="M652.295,-9.5C662.1607,-9.5 672.2501,-9.5 682.3187,-9.5"/>
<polygon fill="#000000" stroke="#000000" stroke-width=".5" points="682.5808,-11.2501 687.5808,-9.5 682.5808,-7.7501 682.5808,-11.2501"/>
</g>
<!-- pyVHDLModel.SyntaxModel.BaseExpression&#45;&gt;pyVHDLModel.SyntaxModel.Allocation -->
<g id="edge3" class="edge">
<title>pyVHDLModel.SyntaxModel.BaseExpression&#45;&gt;pyVHDLModel.SyntaxModel.Allocation</title>
<path fill="none" stroke="#000000" stroke-width=".5" d="M413.2639,-9.5C423.3467,-9.5 433.5211,-9.5 443.5284,-9.5"/>
<polygon fill="#000000" stroke="#000000" stroke-width=".5" points="443.7451,-11.2501 448.745,-9.5 443.745,-7.7501 443.7451,-11.2501"/>
</g>
</g>
</svg>
