<?xml version="1.0" encoding="UTF-8" standalone="no"?>
<!DOCTYPE svg PUBLIC "-//W3C//DTD SVG 1.1//EN"
 "http://www.w3.org/Graphics/SVG/1.1/DTD/svg11.dtd">
<!-- Generated by graphviz version 2.40.1 (20161225.0304)
 -->
<!-- Title: inheritance5b6481f739 Pages: 1 -->
<svg width="576pt" height="51pt"
 viewBox="0.00 0.00 576.00 51.20" xmlns="http://www.w3.org/2000/svg" xmlns:xlink="http://www.w3.org/1999/xlink">
<g id="graph0" class="graph" transform="scale(.8 .8) rotate(0) translate(4 60)">
<title>inheritance5b6481f739</title>
<polygon fill="#ffffff" stroke="transparent" points="-4,4 -4,-60 716,-60 716,4 -4,4"/>
<!-- pyGHDL.dom.Attribute.AttributeSpecification -->
<g id="node1" class="node">
<title>pyGHDL.dom.Attribute.AttributeSpecification</title>
<g id="a_node1"><a xlink:href="../pyGHDL/pyGHDL.dom.Attribute.html#pyGHDL.dom.Attribute.AttributeSpecification" xlink:title="pyGHDL.dom.Attribute.AttributeSpecification" target="_top">
<polygon fill="none" stroke="#000000" stroke-width=".5" points="712,-37 477,-37 477,-18 712,-18 712,-37"/>
<text text-anchor="middle" x="594.5" y="-25" font-family="Vera Sans, DejaVu Sans, Liberation Sans, Arial, Helvetica, sans" font-size="10.00" fill="#000000">pyGHDL.dom.Attribute.AttributeSpecification</text>
</a>
</g>
</g>
<!-- pyVHDLModel.SyntaxModel.AttributeSpecification -->
<g id="node2" class="node">
<title>pyVHDLModel.SyntaxModel.AttributeSpecification</title>
<polygon fill="none" stroke="#000000" stroke-width=".5" points="441,-56 182,-56 182,-37 441,-37 441,-56"/>
<text text-anchor="middle" x="311.5" y="-44" font-family="Vera Sans, DejaVu Sans, Liberation Sans, Arial, Helvetica, sans" font-size="10.00" fill="#000000">pyVHDLModel.SyntaxModel.AttributeSpecification</text>
</g>
<!-- pyVHDLModel.SyntaxModel.AttributeSpecification&#45;&gt;pyGHDL.dom.Attribute.AttributeSpecification -->
<g id="edge1" class="edge">
<title>pyVHDLModel.SyntaxModel.AttributeSpecification&#45;&gt;pyGHDL.dom.Attribute.AttributeSpecification</title>
<path fill="none" stroke="#000000" stroke-width=".5" d="M441.4041,-37.7785C451.4268,-37.1056 461.5275,-36.4275 471.5034,-35.7577"/>
<polygon fill="#000000" stroke="#000000" stroke-width=".5" points="471.8362,-37.4894 476.7077,-35.4083 471.6016,-33.9973 471.8362,-37.4894"/>
</g>
<!-- pyGHDL.dom.DOMMixin -->
<g id="node3" class="node">
<title>pyGHDL.dom.DOMMixin</title>
<g id="a_node3"><a xlink:href="../pyGHDL.dom.html#pyGHDL.dom.DOMMixin" xlink:title="pyGHDL.dom.DOMMixin" target="_top">
<polygon fill="none" stroke="#000000" stroke-width=".5" points="378.5,-19 244.5,-19 244.5,0 378.5,0 378.5,-19"/>
<text text-anchor="middle" x="311.5" y="-7" font-family="Vera Sans, DejaVu Sans, Liberation Sans, Arial, Helvetica, sans" font-size="10.00" fill="#000000">pyGHDL.dom.DOMMixin</text>
</a>
</g>
</g>
<!-- pyGHDL.dom.DOMMixin&#45;&gt;pyGHDL.dom.Attribute.AttributeSpecification -->
<g id="edge2" class="edge">
<title>pyGHDL.dom.DOMMixin&#45;&gt;pyGHDL.dom.Attribute.AttributeSpecification</title>
<path fill="none" stroke="#000000" stroke-width=".5" d="M378.567,-13.7657C406.4942,-15.542 439.829,-17.6623 471.8522,-19.6991"/>
<polygon fill="#000000" stroke="#000000" stroke-width=".5" points="471.8784,-21.4542 476.9795,-20.0252 472.1007,-17.9613 471.8784,-21.4542"/>
</g>
<!-- pyVHDLModel.ModelEntity -->
<g id="node4" class="node">
<title>pyVHDLModel.ModelEntity</title>
<g id="a_node4"><a xlink:title="``ModelEntity`` is the base class for all classes in the VHDL language model,">
<polygon fill="none" stroke="#000000" stroke-width=".5" points="146,-56 0,-56 0,-37 146,-37 146,-56"/>
<text text-anchor="middle" x="73" y="-44" font-family="Vera Sans, DejaVu Sans, Liberation Sans, Arial, Helvetica, sans" font-size="10.00" fill="#000000">pyVHDLModel.ModelEntity</text>
</a>
</g>
</g>
<!-- pyVHDLModel.ModelEntity&#45;&gt;pyVHDLModel.SyntaxModel.AttributeSpecification -->
<g id="edge3" class="edge">
<title>pyVHDLModel.ModelEntity&#45;&gt;pyVHDLModel.SyntaxModel.AttributeSpecification</title>
<path fill="none" stroke="#000000" stroke-width=".5" d="M146.1787,-46.5C155.9456,-46.5 166.1998,-46.5 176.616,-46.5"/>
<polygon fill="#000000" stroke="#000000" stroke-width=".5" points="176.741,-48.2501 181.7409,-46.5 176.7409,-44.7501 176.741,-48.2501"/>
</g>
</g>
</svg>
