<?xml version="1.0" encoding="UTF-8" standalone="no"?>
<!DOCTYPE svg PUBLIC "-//W3C//DTD SVG 1.1//EN"
 "http://www.w3.org/Graphics/SVG/1.1/DTD/svg11.dtd">
<!-- Generated by graphviz version 2.40.1 (20161225.0304)
 -->
<!-- Title: inheritance6f2f200687 Pages: 1 -->
<svg width="576pt" height="43pt"
 viewBox="0.00 0.00 576.00 42.99" xmlns="http://www.w3.org/2000/svg" xmlns:xlink="http://www.w3.org/1999/xlink">
<g id="graph0" class="graph" transform="scale(.4299 .4299) rotate(0) translate(4 96)">
<title>inheritance6f2f200687</title>
<polygon fill="#ffffff" stroke="transparent" points="-4,4 -4,-96 1336,-96 1336,4 -4,4"/>
<!-- pyGHDL.dom.DOMMixin -->
<g id="node1" class="node">
<title>pyGHDL.dom.DOMMixin</title>
<g id="a_node1"><a xlink:href="../pyGHDL.dom.html#pyGHDL.dom.DOMMixin" xlink:title="pyGHDL.dom.DOMMixin" target="_top">
<polygon fill="none" stroke="#000000" stroke-width=".5" points="944,-92 810,-92 810,-73 944,-73 944,-92"/>
<text text-anchor="middle" x="877" y="-80" font-family="Vera Sans, DejaVu Sans, Liberation Sans, Arial, Helvetica, sans" font-size="10.00" fill="#000000">pyGHDL.dom.DOMMixin</text>
</a>
</g>
</g>
<!-- pyGHDL.dom.InterfaceItem.GenericTypeInterfaceItem -->
<g id="node2" class="node">
<title>pyGHDL.dom.InterfaceItem.GenericTypeInterfaceItem</title>
<g id="a_node2"><a xlink:href="../pyGHDL/pyGHDL.dom.InterfaceItem.html#pyGHDL.dom.InterfaceItem.GenericTypeInterfaceItem" xlink:title="pyGHDL.dom.InterfaceItem.GenericTypeInterfaceItem" target="_top">
<polygon fill="none" stroke="#000000" stroke-width=".5" points="1332,-73 1053,-73 1053,-54 1332,-54 1332,-73"/>
<text text-anchor="middle" x="1192.5" y="-61" font-family="Vera Sans, DejaVu Sans, Liberation Sans, Arial, Helvetica, sans" font-size="10.00" fill="#000000">pyGHDL.dom.InterfaceItem.GenericTypeInterfaceItem</text>
</a>
</g>
</g>
<!-- pyGHDL.dom.DOMMixin&#45;&gt;pyGHDL.dom.InterfaceItem.GenericTypeInterfaceItem -->
<g id="edge2" class="edge">
<title>pyGHDL.dom.DOMMixin&#45;&gt;pyGHDL.dom.InterfaceItem.GenericTypeInterfaceItem</title>
<path fill="none" stroke="#000000" stroke-width=".5" d="M944.2957,-78.4473C974.5679,-76.6243 1011.5524,-74.397 1047.6322,-72.2242"/>
<polygon fill="#000000" stroke="#000000" stroke-width=".5" points="1048.0622,-73.9516 1052.9479,-71.9041 1047.8518,-70.4579 1048.0622,-73.9516"/>
</g>
<!-- pyVHDLModel.SyntaxModel.GenericTypeInterfaceItem -->
<g id="node3" class="node">
<title>pyVHDLModel.SyntaxModel.GenericTypeInterfaceItem</title>
<polygon fill="none" stroke="#000000" stroke-width=".5" points="1017,-55 737,-55 737,-36 1017,-36 1017,-55"/>
<text text-anchor="middle" x="877" y="-43" font-family="Vera Sans, DejaVu Sans, Liberation Sans, Arial, Helvetica, sans" font-size="10.00" fill="#000000">pyVHDLModel.SyntaxModel.GenericTypeInterfaceItem</text>
</g>
<!-- pyVHDLModel.SyntaxModel.GenericTypeInterfaceItem&#45;&gt;pyGHDL.dom.InterfaceItem.GenericTypeInterfaceItem -->
<g id="edge1" class="edge">
<title>pyVHDLModel.SyntaxModel.GenericTypeInterfaceItem&#45;&gt;pyGHDL.dom.InterfaceItem.GenericTypeInterfaceItem</title>
<path fill="none" stroke="#000000" stroke-width=".5" d="M1017.2202,-53.4999C1027.4033,-54.0809 1037.685,-54.6674 1047.8928,-55.2498"/>
<polygon fill="#000000" stroke="#000000" stroke-width=".5" points="1047.8057,-56.9976 1052.8972,-55.5353 1048.0051,-53.5033 1047.8057,-56.9976"/>
</g>
<!-- pyVHDLModel.ModelEntity -->
<g id="node4" class="node">
<title>pyVHDLModel.ModelEntity</title>
<g id="a_node4"><a xlink:title="``ModelEntity`` is the base class for all classes in the VHDL language model,">
<polygon fill="none" stroke="#000000" stroke-width=".5" points="149,-56 3,-56 3,-37 149,-37 149,-56"/>
<text text-anchor="middle" x="76" y="-44" font-family="Vera Sans, DejaVu Sans, Liberation Sans, Arial, Helvetica, sans" font-size="10.00" fill="#000000">pyVHDLModel.ModelEntity</text>
</a>
</g>
</g>
<!-- pyVHDLModel.SyntaxModel.BaseType -->
<g id="node6" class="node">
<title>pyVHDLModel.SyntaxModel.BaseType</title>
<g id="a_node6"><a xlink:title="``BaseType`` is the base class of all type entities in this model.">
<polygon fill="none" stroke="#000000" stroke-width=".5" points="398,-37 198,-37 198,-18 398,-18 398,-37"/>
<text text-anchor="middle" x="298" y="-25" font-family="Vera Sans, DejaVu Sans, Liberation Sans, Arial, Helvetica, sans" font-size="10.00" fill="#000000">pyVHDLModel.SyntaxModel.BaseType</text>
</a>
</g>
</g>
<!-- pyVHDLModel.ModelEntity&#45;&gt;pyVHDLModel.SyntaxModel.BaseType -->
<g id="edge3" class="edge">
<title>pyVHDLModel.ModelEntity&#45;&gt;pyVHDLModel.SyntaxModel.BaseType</title>
<path fill="none" stroke="#000000" stroke-width=".5" d="M149.3064,-40.226C163.2631,-39.0315 178.122,-37.7598 192.8434,-36.4999"/>
<polygon fill="#000000" stroke="#000000" stroke-width=".5" points="192.9966,-38.2433 197.8292,-36.0732 192.6981,-34.756 192.9966,-38.2433"/>
</g>
<!-- pyVHDLModel.NamedEntity -->
<g id="node5" class="node">
<title>pyVHDLModel.NamedEntity</title>
<g id="a_node5"><a xlink:title="A ``NamedEntity`` is a mixin class for all VHDL entities that have identifiers.">
<polygon fill="none" stroke="#000000" stroke-width=".5" points="152,-19 0,-19 0,0 152,0 152,-19"/>
<text text-anchor="middle" x="76" y="-7" font-family="Vera Sans, DejaVu Sans, Liberation Sans, Arial, Helvetica, sans" font-size="10.00" fill="#000000">pyVHDLModel.NamedEntity</text>
</a>
</g>
</g>
<!-- pyVHDLModel.NamedEntity&#45;&gt;pyVHDLModel.SyntaxModel.BaseType -->
<g id="edge4" class="edge">
<title>pyVHDLModel.NamedEntity&#45;&gt;pyVHDLModel.SyntaxModel.BaseType</title>
<path fill="none" stroke="#000000" stroke-width=".5" d="M152.0892,-15.6694C165.1684,-16.7299 178.9676,-17.8487 192.652,-18.9583"/>
<polygon fill="#000000" stroke="#000000" stroke-width=".5" points="192.5618,-20.7066 197.6869,-19.3665 192.8447,-17.2181 192.5618,-20.7066"/>
</g>
<!-- pyVHDLModel.SyntaxModel.Type -->
<g id="node9" class="node">
<title>pyVHDLModel.SyntaxModel.Type</title>
<polygon fill="none" stroke="#000000" stroke-width=".5" points="660.5,-37 484.5,-37 484.5,-18 660.5,-18 660.5,-37"/>
<text text-anchor="middle" x="572.5" y="-25" font-family="Vera Sans, DejaVu Sans, Liberation Sans, Arial, Helvetica, sans" font-size="10.00" fill="#000000">pyVHDLModel.SyntaxModel.Type</text>
</g>
<!-- pyVHDLModel.SyntaxModel.BaseType&#45;&gt;pyVHDLModel.SyntaxModel.Type -->
<g id="edge8" class="edge">
<title>pyVHDLModel.SyntaxModel.BaseType&#45;&gt;pyVHDLModel.SyntaxModel.Type</title>
<path fill="none" stroke="#000000" stroke-width=".5" d="M398.266,-27.5C424.685,-27.5 453.0796,-27.5 479.1198,-27.5"/>
<polygon fill="#000000" stroke="#000000" stroke-width=".5" points="479.2952,-29.2501 484.2952,-27.5 479.2951,-25.7501 479.2952,-29.2501"/>
</g>
<!-- pyVHDLModel.SyntaxModel.GenericInterfaceItem -->
<g id="node7" class="node">
<title>pyVHDLModel.SyntaxModel.GenericInterfaceItem</title>
<g id="a_node7"><a xlink:title="A ``GenericInterfaceItem`` is a mixin class for all generic interface items.">
<polygon fill="none" stroke="#000000" stroke-width=".5" points="701,-74 444,-74 444,-55 701,-55 701,-74"/>
<text text-anchor="middle" x="572.5" y="-62" font-family="Vera Sans, DejaVu Sans, Liberation Sans, Arial, Helvetica, sans" font-size="10.00" fill="#000000">pyVHDLModel.SyntaxModel.GenericInterfaceItem</text>
</a>
</g>
</g>
<!-- pyVHDLModel.SyntaxModel.GenericInterfaceItem&#45;&gt;pyVHDLModel.SyntaxModel.GenericTypeInterfaceItem -->
<g id="edge7" class="edge">
<title>pyVHDLModel.SyntaxModel.GenericInterfaceItem&#45;&gt;pyVHDLModel.SyntaxModel.GenericTypeInterfaceItem</title>
<path fill="none" stroke="#000000" stroke-width=".5" d="M701.1941,-56.4698C711.146,-55.8489 721.2355,-55.2193 731.2869,-54.5921"/>
<polygon fill="#000000" stroke="#000000" stroke-width=".5" points="731.6575,-56.3225 736.5388,-54.2644 731.4395,-52.8293 731.6575,-56.3225"/>
</g>
<!-- pyVHDLModel.SyntaxModel.InterfaceItem -->
<g id="node8" class="node">
<title>pyVHDLModel.SyntaxModel.InterfaceItem</title>
<g id="a_node8"><a xlink:title="An ``InterfaceItem`` is a base&#45;class for all mixin&#45;classes for all interface">
<polygon fill="none" stroke="#000000" stroke-width=".5" points="408,-74 188,-74 188,-55 408,-55 408,-74"/>
<text text-anchor="middle" x="298" y="-62" font-family="Vera Sans, DejaVu Sans, Liberation Sans, Arial, Helvetica, sans" font-size="10.00" fill="#000000">pyVHDLModel.SyntaxModel.InterfaceItem</text>
</a>
</g>
</g>
<!-- pyVHDLModel.SyntaxModel.InterfaceItem&#45;&gt;pyVHDLModel.SyntaxModel.GenericInterfaceItem -->
<g id="edge5" class="edge">
<title>pyVHDLModel.SyntaxModel.InterfaceItem&#45;&gt;pyVHDLModel.SyntaxModel.GenericInterfaceItem</title>
<path fill="none" stroke="#000000" stroke-width=".5" d="M408.068,-64.5C418.1943,-64.5 428.5263,-64.5 438.8313,-64.5"/>
<polygon fill="#000000" stroke="#000000" stroke-width=".5" points="438.887,-66.2501 443.8869,-64.5 438.8869,-62.7501 438.887,-66.2501"/>
</g>
<!-- pyVHDLModel.SyntaxModel.Type&#45;&gt;pyVHDLModel.SyntaxModel.GenericTypeInterfaceItem -->
<g id="edge6" class="edge">
<title>pyVHDLModel.SyntaxModel.Type&#45;&gt;pyVHDLModel.SyntaxModel.GenericTypeInterfaceItem</title>
<path fill="none" stroke="#000000" stroke-width=".5" d="M660.574,-32.7063C682.8755,-34.0247 707.4256,-35.4759 731.7376,-36.9131"/>
<polygon fill="#000000" stroke="#000000" stroke-width=".5" points="731.8265,-38.6713 736.921,-37.2195 732.0331,-35.1774 731.8265,-38.6713"/>
</g>
</g>
</svg>
