<?xml version="1.0" encoding="UTF-8" standalone="no"?>
<!DOCTYPE svg PUBLIC "-//W3C//DTD SVG 1.1//EN"
 "http://www.w3.org/Graphics/SVG/1.1/DTD/svg11.dtd">
<!-- Generated by graphviz version 2.40.1 (20161225.0304)
 -->
<!-- Title: inheritance083d3926f6 Pages: 1 -->
<svg width="576pt" height="75pt"
 viewBox="0.00 0.00 576.00 75.34" xmlns="http://www.w3.org/2000/svg" xmlns:xlink="http://www.w3.org/1999/xlink">
<g id="graph0" class="graph" transform="scale(.4305 .4305) rotate(0) translate(4 171)">
<title>inheritance083d3926f6</title>
<polygon fill="#ffffff" stroke="transparent" points="-4,4 -4,-171 1334,-171 1334,4 -4,4"/>
<!-- pyGHDL.dom.Concurrent.ConcurrentBlockStatement -->
<g id="node1" class="node">
<title>pyGHDL.dom.Concurrent.ConcurrentBlockStatement</title>
<g id="a_node1"><a xlink:href="../pyGHDL/pyGHDL.dom.Concurrent.html#pyGHDL.dom.Concurrent.ConcurrentBlockStatement" xlink:title="pyGHDL.dom.Concurrent.ConcurrentBlockStatement" target="_top">
<polygon fill="none" stroke="#000000" stroke-width=".5" points="1330,-74 1058,-74 1058,-55 1330,-55 1330,-74"/>
<text text-anchor="middle" x="1194" y="-62" font-family="Vera Sans, DejaVu Sans, Liberation Sans, Arial, Helvetica, sans" font-size="10.00" fill="#000000">pyGHDL.dom.Concurrent.ConcurrentBlockStatement</text>
</a>
</g>
</g>
<!-- pyVHDLModel.SyntaxModel.ConcurrentBlockStatement -->
<g id="node2" class="node">
<title>pyVHDLModel.SyntaxModel.ConcurrentBlockStatement</title>
<polygon fill="none" stroke="#000000" stroke-width=".5" points="1022,-93 737,-93 737,-74 1022,-74 1022,-93"/>
<text text-anchor="middle" x="879.5" y="-81" font-family="Vera Sans, DejaVu Sans, Liberation Sans, Arial, Helvetica, sans" font-size="10.00" fill="#000000">pyVHDLModel.SyntaxModel.ConcurrentBlockStatement</text>
</g>
<!-- pyVHDLModel.SyntaxModel.ConcurrentBlockStatement&#45;&gt;pyGHDL.dom.Concurrent.ConcurrentBlockStatement -->
<g id="edge1" class="edge">
<title>pyVHDLModel.SyntaxModel.ConcurrentBlockStatement&#45;&gt;pyGHDL.dom.Concurrent.ConcurrentBlockStatement</title>
<path fill="none" stroke="#000000" stroke-width=".5" d="M1022.027,-74.8895C1032.2229,-74.2735 1042.5021,-73.6525 1052.6911,-73.0369"/>
<polygon fill="#000000" stroke="#000000" stroke-width=".5" points="1052.7996,-74.7837 1057.6849,-72.7353 1052.5885,-71.29 1052.7996,-74.7837"/>
</g>
<!-- pyGHDL.dom.DOMMixin -->
<g id="node3" class="node">
<title>pyGHDL.dom.DOMMixin</title>
<g id="a_node3"><a xlink:href="../pyGHDL.dom.html#pyGHDL.dom.DOMMixin" xlink:title="pyGHDL.dom.DOMMixin" target="_top">
<polygon fill="none" stroke="#000000" stroke-width=".5" points="946.5,-56 812.5,-56 812.5,-37 946.5,-37 946.5,-56"/>
<text text-anchor="middle" x="879.5" y="-44" font-family="Vera Sans, DejaVu Sans, Liberation Sans, Arial, Helvetica, sans" font-size="10.00" fill="#000000">pyGHDL.dom.DOMMixin</text>
</a>
</g>
</g>
<!-- pyGHDL.dom.DOMMixin&#45;&gt;pyGHDL.dom.Concurrent.ConcurrentBlockStatement -->
<g id="edge2" class="edge">
<title>pyGHDL.dom.DOMMixin&#45;&gt;pyGHDL.dom.Concurrent.ConcurrentBlockStatement</title>
<path fill="none" stroke="#000000" stroke-width=".5" d="M946.5824,-50.3394C977.5324,-52.1108 1015.521,-54.285 1052.356,-56.3932"/>
<polygon fill="#000000" stroke="#000000" stroke-width=".5" points="1052.6895,-58.1651 1057.7813,-56.7037 1052.8895,-54.6708 1052.6895,-58.1651"/>
</g>
<!-- pyVHDLModel.LabeledEntity -->
<g id="node4" class="node">
<title>pyVHDLModel.LabeledEntity</title>
<g id="a_node4"><a xlink:title="A ``LabeledEntity`` is a mixin class for all VHDL entities that can have">
<polygon fill="none" stroke="#000000" stroke-width=".5" points="155,-167 0,-167 0,-148 155,-148 155,-167"/>
<text text-anchor="middle" x="77.5" y="-155" font-family="Vera Sans, DejaVu Sans, Liberation Sans, Arial, Helvetica, sans" font-size="10.00" fill="#000000">pyVHDLModel.LabeledEntity</text>
</a>
</g>
</g>
<!-- pyVHDLModel.LabeledEntity&#45;&gt;pyVHDLModel.SyntaxModel.ConcurrentBlockStatement -->
<g id="edge5" class="edge">
<title>pyVHDLModel.LabeledEntity&#45;&gt;pyVHDLModel.SyntaxModel.ConcurrentBlockStatement</title>
<path fill="none" stroke="#000000" stroke-width=".5" d="M155.4413,-162.0644C274.1348,-167.4868 506.8996,-172.106 701,-139.5 755.6463,-130.3202 816.7354,-108.5039 851.4089,-94.9712"/>
<polygon fill="#000000" stroke="#000000" stroke-width=".5" points="852.3158,-96.4951 856.329,-93.0372 851.0354,-93.2377 852.3158,-96.4951"/>
</g>
<!-- pyVHDLModel.SyntaxModel.Statement -->
<g id="node10" class="node">
<title>pyVHDLModel.SyntaxModel.Statement</title>
<polygon fill="none" stroke="#000000" stroke-width=".5" points="396,-130 191,-130 191,-111 396,-111 396,-130"/>
<text text-anchor="middle" x="293.5" y="-118" font-family="Vera Sans, DejaVu Sans, Liberation Sans, Arial, Helvetica, sans" font-size="10.00" fill="#000000">pyVHDLModel.SyntaxModel.Statement</text>
</g>
<!-- pyVHDLModel.LabeledEntity&#45;&gt;pyVHDLModel.SyntaxModel.Statement -->
<g id="edge10" class="edge">
<title>pyVHDLModel.LabeledEntity&#45;&gt;pyVHDLModel.SyntaxModel.Statement</title>
<path fill="none" stroke="#000000" stroke-width=".5" d="M133.1254,-147.9716C163.6187,-142.7482 201.4619,-136.2658 232.7286,-130.9099"/>
<polygon fill="#000000" stroke="#000000" stroke-width=".5" points="233.0554,-132.6295 237.6881,-130.0604 232.4644,-129.1798 233.0554,-132.6295"/>
</g>
<!-- pyVHDLModel.ModelEntity -->
<g id="node5" class="node">
<title>pyVHDLModel.ModelEntity</title>
<g id="a_node5"><a xlink:title="``ModelEntity`` is the base class for all classes in the VHDL language model,">
<polygon fill="none" stroke="#000000" stroke-width=".5" points="150.5,-130 4.5,-130 4.5,-111 150.5,-111 150.5,-130"/>
<text text-anchor="middle" x="77.5" y="-118" font-family="Vera Sans, DejaVu Sans, Liberation Sans, Arial, Helvetica, sans" font-size="10.00" fill="#000000">pyVHDLModel.ModelEntity</text>
</a>
</g>
</g>
<!-- pyVHDLModel.ModelEntity&#45;&gt;pyVHDLModel.SyntaxModel.Statement -->
<g id="edge9" class="edge">
<title>pyVHDLModel.ModelEntity&#45;&gt;pyVHDLModel.SyntaxModel.Statement</title>
<path fill="none" stroke="#000000" stroke-width=".5" d="M150.6277,-120.5C161.9793,-120.5 173.9067,-120.5 185.8288,-120.5"/>
<polygon fill="#000000" stroke="#000000" stroke-width=".5" points="185.9362,-122.2501 190.9362,-120.5 185.9362,-118.7501 185.9362,-122.2501"/>
</g>
<!-- pyVHDLModel.SyntaxModel.BlockStatement -->
<g id="node6" class="node">
<title>pyVHDLModel.SyntaxModel.BlockStatement</title>
<g id="a_node6"><a xlink:title="A ``BlockStatement`` is a mixin&#45;class for all block statements.">
<polygon fill="none" stroke="#000000" stroke-width=".5" points="682.5,-93 450.5,-93 450.5,-74 682.5,-74 682.5,-93"/>
<text text-anchor="middle" x="566.5" y="-81" font-family="Vera Sans, DejaVu Sans, Liberation Sans, Arial, Helvetica, sans" font-size="10.00" fill="#000000">pyVHDLModel.SyntaxModel.BlockStatement</text>
</a>
</g>
</g>
<!-- pyVHDLModel.SyntaxModel.BlockStatement&#45;&gt;pyVHDLModel.SyntaxModel.ConcurrentBlockStatement -->
<g id="edge4" class="edge">
<title>pyVHDLModel.SyntaxModel.BlockStatement&#45;&gt;pyVHDLModel.SyntaxModel.ConcurrentBlockStatement</title>
<path fill="none" stroke="#000000" stroke-width=".5" d="M682.6049,-83.5C698.6081,-83.5 715.2163,-83.5 731.6955,-83.5"/>
<polygon fill="#000000" stroke="#000000" stroke-width=".5" points="731.8048,-85.2501 736.8047,-83.5 731.8047,-81.7501 731.8048,-85.2501"/>
</g>
<!-- pyVHDLModel.SyntaxModel.ConcurrentStatement -->
<g id="node7" class="node">
<title>pyVHDLModel.SyntaxModel.ConcurrentStatement</title>
<g id="a_node7"><a xlink:title="A ``ConcurrentStatement`` is a base&#45;class for all concurrent statements.">
<polygon fill="none" stroke="#000000" stroke-width=".5" points="695.5,-130 437.5,-130 437.5,-111 695.5,-111 695.5,-130"/>
<text text-anchor="middle" x="566.5" y="-118" font-family="Vera Sans, DejaVu Sans, Liberation Sans, Arial, Helvetica, sans" font-size="10.00" fill="#000000">pyVHDLModel.SyntaxModel.ConcurrentStatement</text>
</a>
</g>
</g>
<!-- pyVHDLModel.SyntaxModel.ConcurrentStatement&#45;&gt;pyVHDLModel.SyntaxModel.ConcurrentBlockStatement -->
<g id="edge3" class="edge">
<title>pyVHDLModel.SyntaxModel.ConcurrentStatement&#45;&gt;pyVHDLModel.SyntaxModel.ConcurrentBlockStatement</title>
<path fill="none" stroke="#000000" stroke-width=".5" d="M647.1053,-110.9716C692.016,-105.6626 747.929,-99.0531 793.656,-93.6477"/>
<polygon fill="#000000" stroke="#000000" stroke-width=".5" points="794.1364,-95.3532 798.8963,-93.0282 793.7254,-91.8774 794.1364,-95.3532"/>
</g>
<!-- pyVHDLModel.SyntaxModel.ConcurrentDeclarations -->
<g id="node8" class="node">
<title>pyVHDLModel.SyntaxModel.ConcurrentDeclarations</title>
<polygon fill="none" stroke="#000000" stroke-width=".5" points="701,-56 432,-56 432,-37 701,-37 701,-56"/>
<text text-anchor="middle" x="566.5" y="-44" font-family="Vera Sans, DejaVu Sans, Liberation Sans, Arial, Helvetica, sans" font-size="10.00" fill="#000000">pyVHDLModel.SyntaxModel.ConcurrentDeclarations</text>
</g>
<!-- pyVHDLModel.SyntaxModel.ConcurrentDeclarations&#45;&gt;pyVHDLModel.SyntaxModel.ConcurrentBlockStatement -->
<g id="edge6" class="edge">
<title>pyVHDLModel.SyntaxModel.ConcurrentDeclarations&#45;&gt;pyVHDLModel.SyntaxModel.ConcurrentBlockStatement</title>
<path fill="none" stroke="#000000" stroke-width=".5" d="M647.1053,-56.0284C692.016,-61.3374 747.929,-67.9469 793.656,-73.3523"/>
<polygon fill="#000000" stroke="#000000" stroke-width=".5" points="793.7254,-75.1226 798.8963,-73.9718 794.1364,-71.6468 793.7254,-75.1226"/>
</g>
<!-- pyVHDLModel.SyntaxModel.ConcurrentStatements -->
<g id="node9" class="node">
<title>pyVHDLModel.SyntaxModel.ConcurrentStatements</title>
<polygon fill="none" stroke="#000000" stroke-width=".5" points="698,-19 435,-19 435,0 698,0 698,-19"/>
<text text-anchor="middle" x="566.5" y="-7" font-family="Vera Sans, DejaVu Sans, Liberation Sans, Arial, Helvetica, sans" font-size="10.00" fill="#000000">pyVHDLModel.SyntaxModel.ConcurrentStatements</text>
</g>
<!-- pyVHDLModel.SyntaxModel.ConcurrentStatements&#45;&gt;pyVHDLModel.SyntaxModel.ConcurrentBlockStatement -->
<g id="edge7" class="edge">
<title>pyVHDLModel.SyntaxModel.ConcurrentStatements&#45;&gt;pyVHDLModel.SyntaxModel.ConcurrentBlockStatement</title>
<path fill="none" stroke="#000000" stroke-width=".5" d="M680.4922,-19.0659C687.5979,-21.3908 694.4977,-24.1747 701,-27.5 721.713,-38.0927 716.248,-54.9839 737,-65.5 742.0238,-68.0458 747.2704,-70.2826 752.6613,-72.2449"/>
<polygon fill="#000000" stroke="#000000" stroke-width=".5" points="752.353,-73.99 757.6504,-73.9709 753.4974,-70.6823 752.353,-73.99"/>
</g>
<!-- pyVHDLModel.SyntaxModel.Statement&#45;&gt;pyVHDLModel.SyntaxModel.ConcurrentStatement -->
<g id="edge8" class="edge">
<title>pyVHDLModel.SyntaxModel.Statement&#45;&gt;pyVHDLModel.SyntaxModel.ConcurrentStatement</title>
<path fill="none" stroke="#000000" stroke-width=".5" d="M396.3206,-120.5C407.9589,-120.5 419.9456,-120.5 431.9128,-120.5"/>
<polygon fill="#000000" stroke="#000000" stroke-width=".5" points="432.0393,-122.2501 437.0393,-120.5 432.0392,-118.7501 432.0393,-122.2501"/>
</g>
</g>
</svg>
