<?xml version="1.0" encoding="UTF-8" standalone="no"?>
<!DOCTYPE svg PUBLIC "-//W3C//DTD SVG 1.1//EN"
 "http://www.w3.org/Graphics/SVG/1.1/DTD/svg11.dtd">
<!-- Generated by graphviz version 2.40.1 (20161225.0304)
 -->
<!-- Title: inheritance41faf8be4b Pages: 1 -->
<svg width="576pt" height="35pt"
 viewBox="0.00 0.00 576.00 35.11" xmlns="http://www.w3.org/2000/svg" xmlns:xlink="http://www.w3.org/1999/xlink">
<g id="graph0" class="graph" transform="scale(.5486 .5486) rotate(0) translate(4 60)">
<title>inheritance41faf8be4b</title>
<polygon fill="#ffffff" stroke="transparent" points="-4,4 -4,-60 1046,-60 1046,4 -4,4"/>
<!-- pyGHDL.dom.Aggregates.OthersAggregateElement -->
<g id="node1" class="node">
<title>pyGHDL.dom.Aggregates.OthersAggregateElement</title>
<g id="a_node1"><a xlink:href="../pyGHDL/pyGHDL.dom.Aggregates.html#pyGHDL.dom.Aggregates.OthersAggregateElement" xlink:title="pyGHDL.dom.Aggregates.OthersAggregateElement" target="_top">
<polygon fill="none" stroke="#000000" stroke-width=".5" points="1042,-37 776,-37 776,-18 1042,-18 1042,-37"/>
<text text-anchor="middle" x="909" y="-25" font-family="Vera Sans, DejaVu Sans, Liberation Sans, Arial, Helvetica, sans" font-size="10.00" fill="#000000">pyGHDL.dom.Aggregates.OthersAggregateElement</text>
</a>
</g>
</g>
<!-- pyVHDLModel.SyntaxModel.OthersAggregateElement -->
<g id="node2" class="node">
<title>pyVHDLModel.SyntaxModel.OthersAggregateElement</title>
<polygon fill="none" stroke="#000000" stroke-width=".5" points="740,-56 463,-56 463,-37 740,-37 740,-56"/>
<text text-anchor="middle" x="601.5" y="-44" font-family="Vera Sans, DejaVu Sans, Liberation Sans, Arial, Helvetica, sans" font-size="10.00" fill="#000000">pyVHDLModel.SyntaxModel.OthersAggregateElement</text>
</g>
<!-- pyVHDLModel.SyntaxModel.OthersAggregateElement&#45;&gt;pyGHDL.dom.Aggregates.OthersAggregateElement -->
<g id="edge1" class="edge">
<title>pyVHDLModel.SyntaxModel.OthersAggregateElement&#45;&gt;pyGHDL.dom.Aggregates.OthersAggregateElement</title>
<path fill="none" stroke="#000000" stroke-width=".5" d="M740.4061,-37.9172C750.4356,-37.2975 760.5503,-36.6725 770.577,-36.053"/>
<polygon fill="#000000" stroke="#000000" stroke-width=".5" points="770.929,-37.7846 775.8115,-35.7295 770.713,-34.2913 770.929,-37.7846"/>
</g>
<!-- pyGHDL.dom.DOMMixin -->
<g id="node3" class="node">
<title>pyGHDL.dom.DOMMixin</title>
<g id="a_node3"><a xlink:href="../pyGHDL.dom.html#pyGHDL.dom.DOMMixin" xlink:title="pyGHDL.dom.DOMMixin" target="_top">
<polygon fill="none" stroke="#000000" stroke-width=".5" points="668.5,-19 534.5,-19 534.5,0 668.5,0 668.5,-19"/>
<text text-anchor="middle" x="601.5" y="-7" font-family="Vera Sans, DejaVu Sans, Liberation Sans, Arial, Helvetica, sans" font-size="10.00" fill="#000000">pyGHDL.dom.DOMMixin</text>
</a>
</g>
</g>
<!-- pyGHDL.dom.DOMMixin&#45;&gt;pyGHDL.dom.Aggregates.OthersAggregateElement -->
<g id="edge2" class="edge">
<title>pyGHDL.dom.DOMMixin&#45;&gt;pyGHDL.dom.Aggregates.OthersAggregateElement</title>
<path fill="none" stroke="#000000" stroke-width=".5" d="M668.6022,-13.4279C698.5832,-15.1829 735.0907,-17.3199 770.5076,-19.3931"/>
<polygon fill="#000000" stroke="#000000" stroke-width=".5" points="770.6305,-21.1532 775.7242,-19.6985 770.835,-17.6592 770.6305,-21.1532"/>
</g>
<!-- pyVHDLModel.ModelEntity -->
<g id="node4" class="node">
<title>pyVHDLModel.ModelEntity</title>
<g id="a_node4"><a xlink:title="``ModelEntity`` is the base class for all classes in the VHDL language model,">
<polygon fill="none" stroke="#000000" stroke-width=".5" points="146,-56 0,-56 0,-37 146,-37 146,-56"/>
<text text-anchor="middle" x="73" y="-44" font-family="Vera Sans, DejaVu Sans, Liberation Sans, Arial, Helvetica, sans" font-size="10.00" fill="#000000">pyVHDLModel.ModelEntity</text>
</a>
</g>
</g>
<!-- pyVHDLModel.SyntaxModel.AggregateElement -->
<g id="node5" class="node">
<title>pyVHDLModel.SyntaxModel.AggregateElement</title>
<g id="a_node5"><a xlink:title="A ``AggregateElement`` is a base&#45;class for all aggregate elements.">
<polygon fill="none" stroke="#000000" stroke-width=".5" points="427,-56 182,-56 182,-37 427,-37 427,-56"/>
<text text-anchor="middle" x="304.5" y="-44" font-family="Vera Sans, DejaVu Sans, Liberation Sans, Arial, Helvetica, sans" font-size="10.00" fill="#000000">pyVHDLModel.SyntaxModel.AggregateElement</text>
</a>
</g>
</g>
<!-- pyVHDLModel.ModelEntity&#45;&gt;pyVHDLModel.SyntaxModel.AggregateElement -->
<g id="edge3" class="edge">
<title>pyVHDLModel.ModelEntity&#45;&gt;pyVHDLModel.SyntaxModel.AggregateElement</title>
<path fill="none" stroke="#000000" stroke-width=".5" d="M146.248,-46.5C156.0381,-46.5 166.2991,-46.5 176.6913,-46.5"/>
<polygon fill="#000000" stroke="#000000" stroke-width=".5" points="176.802,-48.2501 181.8019,-46.5 176.8019,-44.7501 176.802,-48.2501"/>
</g>
<!-- pyVHDLModel.SyntaxModel.AggregateElement&#45;&gt;pyVHDLModel.SyntaxModel.OthersAggregateElement -->
<g id="edge4" class="edge">
<title>pyVHDLModel.SyntaxModel.AggregateElement&#45;&gt;pyVHDLModel.SyntaxModel.OthersAggregateElement</title>
<path fill="none" stroke="#000000" stroke-width=".5" d="M427.016,-46.5C437.1776,-46.5 447.5067,-46.5 457.805,-46.5"/>
<polygon fill="#000000" stroke="#000000" stroke-width=".5" points="457.8572,-48.2501 462.8571,-46.5 457.8571,-44.7501 457.8572,-48.2501"/>
</g>
</g>
</svg>
