<?xml version="1.0" encoding="UTF-8" standalone="no"?>
<!DOCTYPE svg PUBLIC "-//W3C//DTD SVG 1.1//EN"
 "http://www.w3.org/Graphics/SVG/1.1/DTD/svg11.dtd">
<!-- Generated by graphviz version 2.40.1 (20161225.0304)
 -->
<!-- Title: inheritanceafc53b3af3 Pages: 1 -->
<svg width="576pt" height="29pt"
 viewBox="0.00 0.00 576.00 29.47" xmlns="http://www.w3.org/2000/svg" xmlns:xlink="http://www.w3.org/1999/xlink">
<g id="graph0" class="graph" transform="scale(.4604 .4604) rotate(0) translate(4 60)">
<title>inheritanceafc53b3af3</title>
<polygon fill="#ffffff" stroke="transparent" points="-4,4 -4,-60 1247,-60 1247,4 -4,4"/>
<!-- pyGHDL.dom.DOMMixin -->
<g id="node1" class="node">
<title>pyGHDL.dom.DOMMixin</title>
<g id="a_node1"><a xlink:href="../pyGHDL.dom.html#pyGHDL.dom.DOMMixin" xlink:title="pyGHDL.dom.DOMMixin" target="_top">
<polygon fill="none" stroke="#000000" stroke-width=".5" points="913,-56 779,-56 779,-37 913,-37 913,-56"/>
<text text-anchor="middle" x="846" y="-44" font-family="Vera Sans, DejaVu Sans, Liberation Sans, Arial, Helvetica, sans" font-size="10.00" fill="#000000">pyGHDL.dom.DOMMixin</text>
</a>
</g>
</g>
<!-- pyGHDL.dom.Expression.AbsoluteExpression -->
<g id="node2" class="node">
<title>pyGHDL.dom.Expression.AbsoluteExpression</title>
<g id="a_node2"><a xlink:href="../pyGHDL/pyGHDL.dom.Expression.html#pyGHDL.dom.Expression.AbsoluteExpression" xlink:title="pyGHDL.dom.Expression.AbsoluteExpression" target="_top">
<polygon fill="none" stroke="#000000" stroke-width=".5" points="1243,-37 1007,-37 1007,-18 1243,-18 1243,-37"/>
<text text-anchor="middle" x="1125" y="-25" font-family="Vera Sans, DejaVu Sans, Liberation Sans, Arial, Helvetica, sans" font-size="10.00" fill="#000000">pyGHDL.dom.Expression.AbsoluteExpression</text>
</a>
</g>
</g>
<!-- pyGHDL.dom.DOMMixin&#45;&gt;pyGHDL.dom.Expression.AbsoluteExpression -->
<g id="edge2" class="edge">
<title>pyGHDL.dom.DOMMixin&#45;&gt;pyGHDL.dom.Expression.AbsoluteExpression</title>
<path fill="none" stroke="#000000" stroke-width=".5" d="M913.1825,-41.9248C939.7805,-40.1135 971.2266,-37.972 1001.6359,-35.9011"/>
<polygon fill="#000000" stroke="#000000" stroke-width=".5" points="1002.0325,-37.6283 1006.902,-35.5425 1001.7947,-34.1364 1002.0325,-37.6283"/>
</g>
<!-- pyVHDLModel.SyntaxModel.AbsoluteExpression -->
<g id="node3" class="node">
<title>pyVHDLModel.SyntaxModel.AbsoluteExpression</title>
<polygon fill="none" stroke="#000000" stroke-width=".5" points="971,-19 721,-19 721,0 971,0 971,-19"/>
<text text-anchor="middle" x="846" y="-7" font-family="Vera Sans, DejaVu Sans, Liberation Sans, Arial, Helvetica, sans" font-size="10.00" fill="#000000">pyVHDLModel.SyntaxModel.AbsoluteExpression</text>
</g>
<!-- pyVHDLModel.SyntaxModel.AbsoluteExpression&#45;&gt;pyGHDL.dom.Expression.AbsoluteExpression -->
<g id="edge1" class="edge">
<title>pyVHDLModel.SyntaxModel.AbsoluteExpression&#45;&gt;pyGHDL.dom.Expression.AbsoluteExpression</title>
<path fill="none" stroke="#000000" stroke-width=".5" d="M971.2181,-17.5786C981.4264,-18.2372 991.7378,-18.9024 1001.9305,-19.56"/>
<polygon fill="#000000" stroke="#000000" stroke-width=".5" points="1001.8214,-21.3065 1006.9237,-19.8822 1002.0468,-17.8138 1001.8214,-21.3065"/>
</g>
<!-- pyVHDLModel.ModelEntity -->
<g id="node4" class="node">
<title>pyVHDLModel.ModelEntity</title>
<g id="a_node4"><a xlink:title="``ModelEntity`` is the base class for all classes in the VHDL language model,">
<polygon fill="none" stroke="#000000" stroke-width=".5" points="146,-19 0,-19 0,0 146,0 146,-19"/>
<text text-anchor="middle" x="73" y="-7" font-family="Vera Sans, DejaVu Sans, Liberation Sans, Arial, Helvetica, sans" font-size="10.00" fill="#000000">pyVHDLModel.ModelEntity</text>
</a>
</g>
</g>
<!-- pyVHDLModel.SyntaxModel.BaseExpression -->
<g id="node6" class="node">
<title>pyVHDLModel.SyntaxModel.BaseExpression</title>
<g id="a_node6"><a xlink:title="A ``BaseExpression`` is a base&#45;class for all expressions.">
<polygon fill="none" stroke="#000000" stroke-width=".5" points="413,-19 182,-19 182,0 413,0 413,-19"/>
<text text-anchor="middle" x="297.5" y="-7" font-family="Vera Sans, DejaVu Sans, Liberation Sans, Arial, Helvetica, sans" font-size="10.00" fill="#000000">pyVHDLModel.SyntaxModel.BaseExpression</text>
</a>
</g>
</g>
<!-- pyVHDLModel.ModelEntity&#45;&gt;pyVHDLModel.SyntaxModel.BaseExpression -->
<g id="edge4" class="edge">
<title>pyVHDLModel.ModelEntity&#45;&gt;pyVHDLModel.SyntaxModel.BaseExpression</title>
<path fill="none" stroke="#000000" stroke-width=".5" d="M146.1991,-9.5C155.9857,-9.5 166.2247,-9.5 176.5627,-9.5"/>
<polygon fill="#000000" stroke="#000000" stroke-width=".5" points="176.6441,-11.2501 181.644,-9.5 176.644,-7.7501 176.6441,-11.2501"/>
</g>
<!-- pyVHDLModel.SyntaxModel.UnaryExpression -->
<g id="node5" class="node">
<title>pyVHDLModel.SyntaxModel.UnaryExpression</title>
<g id="a_node5"><a xlink:title="A ``UnaryExpression`` is a base&#45;class for all unary expressions.">
<polygon fill="none" stroke="#000000" stroke-width=".5" points="685,-19 449,-19 449,0 685,0 685,-19"/>
<text text-anchor="middle" x="567" y="-7" font-family="Vera Sans, DejaVu Sans, Liberation Sans, Arial, Helvetica, sans" font-size="10.00" fill="#000000">pyVHDLModel.SyntaxModel.UnaryExpression</text>
</a>
</g>
</g>
<!-- pyVHDLModel.SyntaxModel.UnaryExpression&#45;&gt;pyVHDLModel.SyntaxModel.AbsoluteExpression -->
<g id="edge3" class="edge">
<title>pyVHDLModel.SyntaxModel.UnaryExpression&#45;&gt;pyVHDLModel.SyntaxModel.AbsoluteExpression</title>
<path fill="none" stroke="#000000" stroke-width=".5" d="M685.3211,-9.5C695.3125,-9.5 705.4522,-9.5 715.5289,-9.5"/>
<polygon fill="#000000" stroke="#000000" stroke-width=".5" points="715.7915,-11.2501 720.7915,-9.5 715.7914,-7.7501 715.7915,-11.2501"/>
</g>
<!-- pyVHDLModel.SyntaxModel.BaseExpression&#45;&gt;pyVHDLModel.SyntaxModel.UnaryExpression -->
<g id="edge5" class="edge">
<title>pyVHDLModel.SyntaxModel.BaseExpression&#45;&gt;pyVHDLModel.SyntaxModel.UnaryExpression</title>
<path fill="none" stroke="#000000" stroke-width=".5" d="M413.3563,-9.5C423.3182,-9.5 433.4207,-9.5 443.4401,-9.5"/>
<polygon fill="#000000" stroke="#000000" stroke-width=".5" points="443.6709,-11.2501 448.6708,-9.5 443.6708,-7.7501 443.6709,-11.2501"/>
</g>
</g>
</svg>
