<?xml version="1.0" encoding="UTF-8" standalone="no"?>
<!DOCTYPE svg PUBLIC "-//W3C//DTD SVG 1.1//EN"
 "http://www.w3.org/Graphics/SVG/1.1/DTD/svg11.dtd">
<!-- Generated by graphviz version 2.40.1 (20161225.0304)
 -->
<!-- Title: inheritance1ea8a38bae Pages: 1 -->
<svg width="576pt" height="72pt"
 viewBox="0.00 0.00 576.00 71.55" xmlns="http://www.w3.org/2000/svg" xmlns:xlink="http://www.w3.org/1999/xlink">
<g id="graph0" class="graph" transform="scale(.5185 .5185) rotate(0) translate(4 134)">
<title>inheritance1ea8a38bae</title>
<polygon fill="#ffffff" stroke="transparent" points="-4,4 -4,-134 1107,-134 1107,4 -4,4"/>
<!-- pyGHDL.dom.Concurrent.ElseGenerateBranch -->
<g id="node1" class="node">
<title>pyGHDL.dom.Concurrent.ElseGenerateBranch</title>
<g id="a_node1"><a xlink:href="../pyGHDL/pyGHDL.dom.Concurrent.html#pyGHDL.dom.Concurrent.ElseGenerateBranch" xlink:title="pyGHDL.dom.Concurrent.ElseGenerateBranch" target="_top">
<polygon fill="none" stroke="#000000" stroke-width=".5" points="1103,-51 864,-51 864,-32 1103,-32 1103,-51"/>
<text text-anchor="middle" x="983.5" y="-39" font-family="Vera Sans, DejaVu Sans, Liberation Sans, Arial, Helvetica, sans" font-size="10.00" fill="#000000">pyGHDL.dom.Concurrent.ElseGenerateBranch</text>
</a>
</g>
</g>
<!-- pyVHDLModel.SyntaxModel.ElseGenerateBranch -->
<g id="node2" class="node">
<title>pyVHDLModel.SyntaxModel.ElseGenerateBranch</title>
<polygon fill="none" stroke="#000000" stroke-width=".5" points="828,-51 575,-51 575,-32 828,-32 828,-51"/>
<text text-anchor="middle" x="701.5" y="-39" font-family="Vera Sans, DejaVu Sans, Liberation Sans, Arial, Helvetica, sans" font-size="10.00" fill="#000000">pyVHDLModel.SyntaxModel.ElseGenerateBranch</text>
</g>
<!-- pyVHDLModel.SyntaxModel.ElseGenerateBranch&#45;&gt;pyGHDL.dom.Concurrent.ElseGenerateBranch -->
<g id="edge1" class="edge">
<title>pyVHDLModel.SyntaxModel.ElseGenerateBranch&#45;&gt;pyGHDL.dom.Concurrent.ElseGenerateBranch</title>
<path fill="none" stroke="#000000" stroke-width=".5" d="M828.0645,-41.5C838.1641,-41.5 848.3635,-41.5 858.4526,-41.5"/>
<polygon fill="#000000" stroke="#000000" stroke-width=".5" points="858.7174,-43.2501 863.7174,-41.5 858.7173,-39.7501 858.7174,-43.2501"/>
</g>
<!-- pyVHDLModel.ModelEntity -->
<g id="node3" class="node">
<title>pyVHDLModel.ModelEntity</title>
<g id="a_node3"><a xlink:title="``ModelEntity`` is the base class for all classes in the VHDL language model,">
<polygon fill="none" stroke="#000000" stroke-width=".5" points="207.5,-130 61.5,-130 61.5,-111 207.5,-111 207.5,-130"/>
<text text-anchor="middle" x="134.5" y="-118" font-family="Vera Sans, DejaVu Sans, Liberation Sans, Arial, Helvetica, sans" font-size="10.00" fill="#000000">pyVHDLModel.ModelEntity</text>
</a>
</g>
</g>
<!-- pyVHDLModel.SyntaxModel.GenerateBranch -->
<g id="node6" class="node">
<title>pyVHDLModel.SyntaxModel.GenerateBranch</title>
<g id="a_node6"><a xlink:title="A ``GenerateBranch`` is a base&#45;class for all branches in a generate statements.">
<polygon fill="none" stroke="#000000" stroke-width=".5" points="538.5,-74 305.5,-74 305.5,-55 538.5,-55 538.5,-74"/>
<text text-anchor="middle" x="422" y="-62" font-family="Vera Sans, DejaVu Sans, Liberation Sans, Arial, Helvetica, sans" font-size="10.00" fill="#000000">pyVHDLModel.SyntaxModel.GenerateBranch</text>
</a>
</g>
</g>
<!-- pyVHDLModel.ModelEntity&#45;&gt;pyVHDLModel.SyntaxModel.GenerateBranch -->
<g id="edge4" class="edge">
<title>pyVHDLModel.ModelEntity&#45;&gt;pyVHDLModel.SyntaxModel.GenerateBranch</title>
<path fill="none" stroke="#000000" stroke-width=".5" d="M207.6816,-112.1983C227.6402,-109.5287 249.213,-106.2693 269,-102.5 308.1402,-95.044 352.2421,-83.7795 383.0056,-75.4492"/>
<polygon fill="#000000" stroke="#000000" stroke-width=".5" points="383.8419,-77.0353 388.2072,-74.0342 382.9232,-73.658 383.8419,-77.0353"/>
</g>
<!-- pyVHDLModel.SyntaxModel.ConcurrentDeclarations -->
<g id="node4" class="node">
<title>pyVHDLModel.SyntaxModel.ConcurrentDeclarations</title>
<polygon fill="none" stroke="#000000" stroke-width=".5" points="269,-93 0,-93 0,-74 269,-74 269,-93"/>
<text text-anchor="middle" x="134.5" y="-81" font-family="Vera Sans, DejaVu Sans, Liberation Sans, Arial, Helvetica, sans" font-size="10.00" fill="#000000">pyVHDLModel.SyntaxModel.ConcurrentDeclarations</text>
</g>
<!-- pyVHDLModel.SyntaxModel.ConcurrentDeclarations&#45;&gt;pyVHDLModel.SyntaxModel.GenerateBranch -->
<g id="edge5" class="edge">
<title>pyVHDLModel.SyntaxModel.ConcurrentDeclarations&#45;&gt;pyVHDLModel.SyntaxModel.GenerateBranch</title>
<path fill="none" stroke="#000000" stroke-width=".5" d="M269.411,-74.5841C279.6918,-73.9047 290.0333,-73.2213 300.2238,-72.5478"/>
<polygon fill="#000000" stroke="#000000" stroke-width=".5" points="300.3396,-74.2941 305.2133,-72.2181 300.1088,-70.8017 300.3396,-74.2941"/>
</g>
<!-- pyVHDLModel.SyntaxModel.ConcurrentStatements -->
<g id="node5" class="node">
<title>pyVHDLModel.SyntaxModel.ConcurrentStatements</title>
<polygon fill="none" stroke="#000000" stroke-width=".5" points="266,-56 3,-56 3,-37 266,-37 266,-56"/>
<text text-anchor="middle" x="134.5" y="-44" font-family="Vera Sans, DejaVu Sans, Liberation Sans, Arial, Helvetica, sans" font-size="10.00" fill="#000000">pyVHDLModel.SyntaxModel.ConcurrentStatements</text>
</g>
<!-- pyVHDLModel.SyntaxModel.ConcurrentStatements&#45;&gt;pyVHDLModel.SyntaxModel.GenerateBranch -->
<g id="edge6" class="edge">
<title>pyVHDLModel.SyntaxModel.ConcurrentStatements&#45;&gt;pyVHDLModel.SyntaxModel.GenerateBranch</title>
<path fill="none" stroke="#000000" stroke-width=".5" d="M266.0499,-54.7362C277.4614,-55.4506 288.9762,-56.1716 300.3038,-56.8808"/>
<polygon fill="#000000" stroke="#000000" stroke-width=".5" points="300.3946,-58.6398 305.4942,-57.2057 300.6134,-55.1466 300.3946,-58.6398"/>
</g>
<!-- pyVHDLModel.SyntaxModel.GenerateBranch&#45;&gt;pyVHDLModel.SyntaxModel.ElseGenerateBranch -->
<g id="edge2" class="edge">
<title>pyVHDLModel.SyntaxModel.GenerateBranch&#45;&gt;pyVHDLModel.SyntaxModel.ElseGenerateBranch</title>
<path fill="none" stroke="#000000" stroke-width=".5" d="M537.7009,-54.979C551.8789,-53.8123 566.3973,-52.6176 580.6486,-51.4448"/>
<polygon fill="#000000" stroke="#000000" stroke-width=".5" points="581.0463,-53.1681 585.8859,-51.0139 580.7592,-49.6799 581.0463,-53.1681"/>
</g>
<!-- pyVHDLModel.SyntaxModel.MixinElseBranch -->
<g id="node7" class="node">
<title>pyVHDLModel.SyntaxModel.MixinElseBranch</title>
<g id="a_node7"><a xlink:title="A ``BaseElseBranch`` is a mixin&#45;class for all else&#45;branches.">
<polygon fill="none" stroke="#000000" stroke-width=".5" points="539,-28 305,-28 305,-9 539,-9 539,-28"/>
<text text-anchor="middle" x="422" y="-16" font-family="Vera Sans, DejaVu Sans, Liberation Sans, Arial, Helvetica, sans" font-size="10.00" fill="#000000">pyVHDLModel.SyntaxModel.MixinElseBranch</text>
</a>
</g>
</g>
<!-- pyVHDLModel.SyntaxModel.MixinElseBranch&#45;&gt;pyVHDLModel.SyntaxModel.ElseGenerateBranch -->
<g id="edge3" class="edge">
<title>pyVHDLModel.SyntaxModel.MixinElseBranch&#45;&gt;pyVHDLModel.SyntaxModel.ElseGenerateBranch</title>
<path fill="none" stroke="#000000" stroke-width=".5" d="M537.7009,-28.021C551.8789,-29.1877 566.3973,-30.3824 580.6486,-31.5552"/>
<polygon fill="#000000" stroke="#000000" stroke-width=".5" points="580.7592,-33.3201 585.8859,-31.9861 581.0463,-29.8319 580.7592,-33.3201"/>
</g>
<!-- pyVHDLModel.SyntaxModel.MixinBranch -->
<g id="node8" class="node">
<title>pyVHDLModel.SyntaxModel.MixinBranch</title>
<g id="a_node8"><a xlink:title="A ``BaseBranch`` is a mixin&#45;class for all statements with branches.">
<polygon fill="none" stroke="#000000" stroke-width=".5" points="241.5,-19 27.5,-19 27.5,0 241.5,0 241.5,-19"/>
<text text-anchor="middle" x="134.5" y="-7" font-family="Vera Sans, DejaVu Sans, Liberation Sans, Arial, Helvetica, sans" font-size="10.00" fill="#000000">pyVHDLModel.SyntaxModel.MixinBranch</text>
</a>
</g>
</g>
<!-- pyVHDLModel.SyntaxModel.MixinBranch&#45;&gt;pyVHDLModel.SyntaxModel.MixinElseBranch -->
<g id="edge7" class="edge">
<title>pyVHDLModel.SyntaxModel.MixinBranch&#45;&gt;pyVHDLModel.SyntaxModel.MixinElseBranch</title>
<path fill="none" stroke="#000000" stroke-width=".5" d="M241.5544,-12.8513C260.3793,-13.4406 280.1039,-14.058 299.3155,-14.6594"/>
<polygon fill="#000000" stroke="#000000" stroke-width=".5" points="299.667,-16.4212 304.7194,-14.8286 299.7766,-12.9229 299.667,-16.4212"/>
</g>
</g>
</svg>
