<?xml version="1.0" encoding="UTF-8" standalone="no"?>
<!DOCTYPE svg PUBLIC "-//W3C//DTD SVG 1.1//EN"
 "http://www.w3.org/Graphics/SVG/1.1/DTD/svg11.dtd">
<!-- Generated by graphviz version 2.40.1 (20161225.0304)
 -->
<!-- Title: inheritanceb42b0e7bd0 Pages: 1 -->
<svg width="576pt" height="32pt"
 viewBox="0.00 0.00 576.00 32.28" xmlns="http://www.w3.org/2000/svg" xmlns:xlink="http://www.w3.org/1999/xlink">
<g id="graph0" class="graph" transform="scale(.5044 .5044) rotate(0) translate(4 60)">
<title>inheritanceb42b0e7bd0</title>
<polygon fill="#ffffff" stroke="transparent" points="-4,4 -4,-60 1138,-60 1138,4 -4,4"/>
<!-- pyGHDL.dom.DOMMixin -->
<g id="node1" class="node">
<title>pyGHDL.dom.DOMMixin</title>
<g id="a_node1"><a xlink:href="../pyGHDL.dom.html#pyGHDL.dom.DOMMixin" xlink:title="pyGHDL.dom.DOMMixin" target="_top">
<polygon fill="none" stroke="#000000" stroke-width=".5" points="853,-56 719,-56 719,-37 853,-37 853,-56"/>
<text text-anchor="middle" x="786" y="-44" font-family="Vera Sans, DejaVu Sans, Liberation Sans, Arial, Helvetica, sans" font-size="10.00" fill="#000000">pyGHDL.dom.DOMMixin</text>
</a>
</g>
</g>
<!-- pyGHDL.dom.Literal.CharacterLiteral -->
<g id="node2" class="node">
<title>pyGHDL.dom.Literal.CharacterLiteral</title>
<g id="a_node2"><a xlink:href="../pyGHDL/pyGHDL.dom.Literal.html#pyGHDL.dom.Literal.CharacterLiteral" xlink:title="pyGHDL.dom.Literal.CharacterLiteral" target="_top">
<polygon fill="none" stroke="#000000" stroke-width=".5" points="1134,-37 938,-37 938,-18 1134,-18 1134,-37"/>
<text text-anchor="middle" x="1036" y="-25" font-family="Vera Sans, DejaVu Sans, Liberation Sans, Arial, Helvetica, sans" font-size="10.00" fill="#000000">pyGHDL.dom.Literal.CharacterLiteral</text>
</a>
</g>
</g>
<!-- pyGHDL.dom.DOMMixin&#45;&gt;pyGHDL.dom.Literal.CharacterLiteral -->
<g id="edge2" class="edge">
<title>pyGHDL.dom.DOMMixin&#45;&gt;pyGHDL.dom.Literal.CharacterLiteral</title>
<path fill="none" stroke="#000000" stroke-width=".5" d="M853.3243,-41.3834C877.5936,-39.5389 905.578,-37.4121 932.2351,-35.3861"/>
<polygon fill="#000000" stroke="#000000" stroke-width=".5" points="932.6944,-37.1064 937.5473,-34.9824 932.4291,-33.6164 932.6944,-37.1064"/>
</g>
<!-- pyVHDLModel.SyntaxModel.CharacterLiteral -->
<g id="node3" class="node">
<title>pyVHDLModel.SyntaxModel.CharacterLiteral</title>
<polygon fill="none" stroke="#000000" stroke-width=".5" points="902,-19 670,-19 670,0 902,0 902,-19"/>
<text text-anchor="middle" x="786" y="-7" font-family="Vera Sans, DejaVu Sans, Liberation Sans, Arial, Helvetica, sans" font-size="10.00" fill="#000000">pyVHDLModel.SyntaxModel.CharacterLiteral</text>
</g>
<!-- pyVHDLModel.SyntaxModel.CharacterLiteral&#45;&gt;pyGHDL.dom.Literal.CharacterLiteral -->
<g id="edge1" class="edge">
<title>pyVHDLModel.SyntaxModel.CharacterLiteral&#45;&gt;pyGHDL.dom.Literal.CharacterLiteral</title>
<path fill="none" stroke="#000000" stroke-width=".5" d="M902.2174,-17.8677C912.3157,-18.5947 922.4908,-19.3273 932.4774,-20.0464"/>
<polygon fill="#000000" stroke="#000000" stroke-width=".5" points="932.5684,-21.8074 937.6812,-20.421 932.8198,-18.3164 932.5684,-21.8074"/>
</g>
<!-- pyVHDLModel.ModelEntity -->
<g id="node4" class="node">
<title>pyVHDLModel.ModelEntity</title>
<g id="a_node4"><a xlink:title="``ModelEntity`` is the base class for all classes in the VHDL language model,">
<polygon fill="none" stroke="#000000" stroke-width=".5" points="146,-19 0,-19 0,0 146,0 146,-19"/>
<text text-anchor="middle" x="73" y="-7" font-family="Vera Sans, DejaVu Sans, Liberation Sans, Arial, Helvetica, sans" font-size="10.00" fill="#000000">pyVHDLModel.ModelEntity</text>
</a>
</g>
</g>
<!-- pyVHDLModel.SyntaxModel.BaseExpression -->
<g id="node5" class="node">
<title>pyVHDLModel.SyntaxModel.BaseExpression</title>
<g id="a_node5"><a xlink:title="A ``BaseExpression`` is a base&#45;class for all expressions.">
<polygon fill="none" stroke="#000000" stroke-width=".5" points="413,-19 182,-19 182,0 413,0 413,-19"/>
<text text-anchor="middle" x="297.5" y="-7" font-family="Vera Sans, DejaVu Sans, Liberation Sans, Arial, Helvetica, sans" font-size="10.00" fill="#000000">pyVHDLModel.SyntaxModel.BaseExpression</text>
</a>
</g>
</g>
<!-- pyVHDLModel.ModelEntity&#45;&gt;pyVHDLModel.SyntaxModel.BaseExpression -->
<g id="edge3" class="edge">
<title>pyVHDLModel.ModelEntity&#45;&gt;pyVHDLModel.SyntaxModel.BaseExpression</title>
<path fill="none" stroke="#000000" stroke-width=".5" d="M146.1991,-9.5C155.9857,-9.5 166.2247,-9.5 176.5627,-9.5"/>
<polygon fill="#000000" stroke="#000000" stroke-width=".5" points="176.6441,-11.2501 181.644,-9.5 176.644,-7.7501 176.6441,-11.2501"/>
</g>
<!-- pyVHDLModel.SyntaxModel.Literal -->
<g id="node6" class="node">
<title>pyVHDLModel.SyntaxModel.Literal</title>
<g id="a_node6"><a xlink:title="A ``Literal`` is a base&#45;class for all literals.">
<polygon fill="none" stroke="#000000" stroke-width=".5" points="634,-19 449,-19 449,0 634,0 634,-19"/>
<text text-anchor="middle" x="541.5" y="-7" font-family="Vera Sans, DejaVu Sans, Liberation Sans, Arial, Helvetica, sans" font-size="10.00" fill="#000000">pyVHDLModel.SyntaxModel.Literal</text>
</a>
</g>
</g>
<!-- pyVHDLModel.SyntaxModel.BaseExpression&#45;&gt;pyVHDLModel.SyntaxModel.Literal -->
<g id="edge5" class="edge">
<title>pyVHDLModel.SyntaxModel.BaseExpression&#45;&gt;pyVHDLModel.SyntaxModel.Literal</title>
<path fill="none" stroke="#000000" stroke-width=".5" d="M413.0691,-9.5C423.2436,-9.5 433.478,-9.5 443.4881,-9.5"/>
<polygon fill="#000000" stroke="#000000" stroke-width=".5" points="443.7009,-11.2501 448.7008,-9.5 443.7008,-7.7501 443.7009,-11.2501"/>
</g>
<!-- pyVHDLModel.SyntaxModel.Literal&#45;&gt;pyVHDLModel.SyntaxModel.CharacterLiteral -->
<g id="edge4" class="edge">
<title>pyVHDLModel.SyntaxModel.Literal&#45;&gt;pyVHDLModel.SyntaxModel.CharacterLiteral</title>
<path fill="none" stroke="#000000" stroke-width=".5" d="M634.2836,-9.5C644.2678,-9.5 654.5307,-9.5 664.784,-9.5"/>
<polygon fill="#000000" stroke="#000000" stroke-width=".5" points="664.8155,-11.2501 669.8154,-9.5 664.8154,-7.7501 664.8155,-11.2501"/>
</g>
</g>
</svg>
