<?xml version="1.0" encoding="UTF-8" standalone="no"?>
<!DOCTYPE svg PUBLIC "-//W3C//DTD SVG 1.1//EN"
 "http://www.w3.org/Graphics/SVG/1.1/DTD/svg11.dtd">
<!-- Generated by graphviz version 2.40.1 (20161225.0304)
 -->
<!-- Title: inheritancefa0791d00c Pages: 1 -->
<svg width="576pt" height="28pt"
 viewBox="0.00 0.00 576.00 27.99" xmlns="http://www.w3.org/2000/svg" xmlns:xlink="http://www.w3.org/1999/xlink">
<g id="graph0" class="graph" transform="scale(.4374 .4374) rotate(0) translate(4 60)">
<title>inheritancefa0791d00c</title>
<polygon fill="#ffffff" stroke="transparent" points="-4,4 -4,-60 1313,-60 1313,4 -4,4"/>
<!-- pyGHDL.dom.DOMMixin -->
<g id="node1" class="node">
<title>pyGHDL.dom.DOMMixin</title>
<g id="a_node1"><a xlink:href="../pyGHDL.dom.html#pyGHDL.dom.DOMMixin" xlink:title="pyGHDL.dom.DOMMixin" target="_top">
<polygon fill="none" stroke="#000000" stroke-width=".5" points="904.5,-56 770.5,-56 770.5,-37 904.5,-37 904.5,-56"/>
<text text-anchor="middle" x="837.5" y="-44" font-family="Vera Sans, DejaVu Sans, Liberation Sans, Arial, Helvetica, sans" font-size="10.00" fill="#000000">pyGHDL.dom.DOMMixin</text>
</a>
</g>
</g>
<!-- pyGHDL.dom.Expression.QualifiedExpressionAllocation -->
<g id="node2" class="node">
<title>pyGHDL.dom.Expression.QualifiedExpressionAllocation</title>
<g id="a_node2"><a xlink:href="../pyGHDL/pyGHDL.dom.Expression.html#pyGHDL.dom.Expression.QualifiedExpressionAllocation" xlink:title="pyGHDL.dom.Expression.QualifiedExpressionAllocation" target="_top">
<polygon fill="none" stroke="#000000" stroke-width=".5" points="1309,-37 1023,-37 1023,-18 1309,-18 1309,-37"/>
<text text-anchor="middle" x="1166" y="-25" font-family="Vera Sans, DejaVu Sans, Liberation Sans, Arial, Helvetica, sans" font-size="10.00" fill="#000000">pyGHDL.dom.Expression.QualifiedExpressionAllocation</text>
</a>
</g>
</g>
<!-- pyGHDL.dom.DOMMixin&#45;&gt;pyGHDL.dom.Expression.QualifiedExpressionAllocation -->
<g id="edge2" class="edge">
<title>pyGHDL.dom.DOMMixin&#45;&gt;pyGHDL.dom.Expression.QualifiedExpressionAllocation</title>
<path fill="none" stroke="#000000" stroke-width=".5" d="M904.7696,-42.6092C937.4647,-40.7182 978.1472,-38.3652 1017.5987,-36.0833"/>
<polygon fill="#000000" stroke="#000000" stroke-width=".5" points="1018.0137,-37.8123 1022.9043,-35.7765 1017.8116,-34.3182 1018.0137,-37.8123"/>
</g>
<!-- pyVHDLModel.SyntaxModel.QualifiedExpressionAllocation -->
<g id="node3" class="node">
<title>pyVHDLModel.SyntaxModel.QualifiedExpressionAllocation</title>
<polygon fill="none" stroke="#000000" stroke-width=".5" points="987,-19 688,-19 688,0 987,0 987,-19"/>
<text text-anchor="middle" x="837.5" y="-7" font-family="Vera Sans, DejaVu Sans, Liberation Sans, Arial, Helvetica, sans" font-size="10.00" fill="#000000">pyVHDLModel.SyntaxModel.QualifiedExpressionAllocation</text>
</g>
<!-- pyVHDLModel.SyntaxModel.QualifiedExpressionAllocation&#45;&gt;pyGHDL.dom.Expression.QualifiedExpressionAllocation -->
<g id="edge1" class="edge">
<title>pyVHDLModel.SyntaxModel.QualifiedExpressionAllocation&#45;&gt;pyGHDL.dom.Expression.QualifiedExpressionAllocation</title>
<path fill="none" stroke="#000000" stroke-width=".5" d="M987.3305,-17.7099C997.4173,-18.2626 1007.5773,-18.8193 1017.6566,-19.3716"/>
<polygon fill="#000000" stroke="#000000" stroke-width=".5" points="1017.831,-21.1337 1022.9192,-19.66 1018.0225,-17.6389 1017.831,-21.1337"/>
</g>
<!-- pyVHDLModel.ModelEntity -->
<g id="node4" class="node">
<title>pyVHDLModel.ModelEntity</title>
<g id="a_node4"><a xlink:title="``ModelEntity`` is the base class for all classes in the VHDL language model,">
<polygon fill="none" stroke="#000000" stroke-width=".5" points="146,-19 0,-19 0,0 146,0 146,-19"/>
<text text-anchor="middle" x="73" y="-7" font-family="Vera Sans, DejaVu Sans, Liberation Sans, Arial, Helvetica, sans" font-size="10.00" fill="#000000">pyVHDLModel.ModelEntity</text>
</a>
</g>
</g>
<!-- pyVHDLModel.SyntaxModel.BaseExpression -->
<g id="node6" class="node">
<title>pyVHDLModel.SyntaxModel.BaseExpression</title>
<g id="a_node6"><a xlink:title="A ``BaseExpression`` is a base&#45;class for all expressions.">
<polygon fill="none" stroke="#000000" stroke-width=".5" points="413,-19 182,-19 182,0 413,0 413,-19"/>
<text text-anchor="middle" x="297.5" y="-7" font-family="Vera Sans, DejaVu Sans, Liberation Sans, Arial, Helvetica, sans" font-size="10.00" fill="#000000">pyVHDLModel.SyntaxModel.BaseExpression</text>
</a>
</g>
</g>
<!-- pyVHDLModel.ModelEntity&#45;&gt;pyVHDLModel.SyntaxModel.BaseExpression -->
<g id="edge4" class="edge">
<title>pyVHDLModel.ModelEntity&#45;&gt;pyVHDLModel.SyntaxModel.BaseExpression</title>
<path fill="none" stroke="#000000" stroke-width=".5" d="M146.1991,-9.5C155.9857,-9.5 166.2247,-9.5 176.5627,-9.5"/>
<polygon fill="#000000" stroke="#000000" stroke-width=".5" points="176.6441,-11.2501 181.644,-9.5 176.644,-7.7501 176.6441,-11.2501"/>
</g>
<!-- pyVHDLModel.SyntaxModel.Allocation -->
<g id="node5" class="node">
<title>pyVHDLModel.SyntaxModel.Allocation</title>
<polygon fill="none" stroke="#000000" stroke-width=".5" points="652,-19 449,-19 449,0 652,0 652,-19"/>
<text text-anchor="middle" x="550.5" y="-7" font-family="Vera Sans, DejaVu Sans, Liberation Sans, Arial, Helvetica, sans" font-size="10.00" fill="#000000">pyVHDLModel.SyntaxModel.Allocation</text>
</g>
<!-- pyVHDLModel.SyntaxModel.Allocation&#45;&gt;pyVHDLModel.SyntaxModel.QualifiedExpressionAllocation -->
<g id="edge5" class="edge">
<title>pyVHDLModel.SyntaxModel.Allocation&#45;&gt;pyVHDLModel.SyntaxModel.QualifiedExpressionAllocation</title>
<path fill="none" stroke="#000000" stroke-width=".5" d="M652.0894,-9.5C662.0668,-9.5 672.3406,-9.5 682.6933,-9.5"/>
<polygon fill="#000000" stroke="#000000" stroke-width=".5" points="682.781,-11.2501 687.781,-9.5 682.7809,-7.7501 682.781,-11.2501"/>
</g>
<!-- pyVHDLModel.SyntaxModel.BaseExpression&#45;&gt;pyVHDLModel.SyntaxModel.Allocation -->
<g id="edge3" class="edge">
<title>pyVHDLModel.SyntaxModel.BaseExpression&#45;&gt;pyVHDLModel.SyntaxModel.Allocation</title>
<path fill="none" stroke="#000000" stroke-width=".5" d="M413.2639,-9.5C423.3467,-9.5 433.5211,-9.5 443.5284,-9.5"/>
<polygon fill="#000000" stroke="#000000" stroke-width=".5" points="443.7451,-11.2501 448.745,-9.5 443.745,-7.7501 443.7451,-11.2501"/>
</g>
</g>
</svg>
