<?xml version="1.0" encoding="UTF-8" standalone="no"?>
<!DOCTYPE svg PUBLIC "-//W3C//DTD SVG 1.1//EN"
 "http://www.w3.org/Graphics/SVG/1.1/DTD/svg11.dtd">
<!-- Generated by graphviz version 2.40.1 (20161225.0304)
 -->
<!-- Title: inheritanced5c8eaa54f Pages: 1 -->
<svg width="576pt" height="35pt"
 viewBox="0.00 0.00 576.00 35.21" xmlns="http://www.w3.org/2000/svg" xmlns:xlink="http://www.w3.org/1999/xlink">
<g id="graph0" class="graph" transform="scale(.5501 .5501) rotate(0) translate(4 60)">
<title>inheritanced5c8eaa54f</title>
<polygon fill="#ffffff" stroke="transparent" points="-4,4 -4,-60 1043,-60 1043,4 -4,4"/>
<!-- pyGHDL.dom.Concurrent.ParameterAssociationItem -->
<g id="node1" class="node">
<title>pyGHDL.dom.Concurrent.ParameterAssociationItem</title>
<g id="a_node1"><a xlink:href="../pyGHDL/pyGHDL.dom.Concurrent.html#pyGHDL.dom.Concurrent.ParameterAssociationItem" xlink:title="pyGHDL.dom.Concurrent.ParameterAssociationItem" target="_top">
<polygon fill="none" stroke="#000000" stroke-width=".5" points="1039,-37 770,-37 770,-18 1039,-18 1039,-37"/>
<text text-anchor="middle" x="904.5" y="-25" font-family="Vera Sans, DejaVu Sans, Liberation Sans, Arial, Helvetica, sans" font-size="10.00" fill="#000000">pyGHDL.dom.Concurrent.ParameterAssociationItem</text>
</a>
</g>
</g>
<!-- pyVHDLModel.SyntaxModel.ParameterAssociationItem -->
<g id="node2" class="node">
<title>pyVHDLModel.SyntaxModel.ParameterAssociationItem</title>
<polygon fill="none" stroke="#000000" stroke-width=".5" points="734,-56 451,-56 451,-37 734,-37 734,-56"/>
<text text-anchor="middle" x="592.5" y="-44" font-family="Vera Sans, DejaVu Sans, Liberation Sans, Arial, Helvetica, sans" font-size="10.00" fill="#000000">pyVHDLModel.SyntaxModel.ParameterAssociationItem</text>
</g>
<!-- pyVHDLModel.SyntaxModel.ParameterAssociationItem&#45;&gt;pyGHDL.dom.Concurrent.ParameterAssociationItem -->
<g id="edge1" class="edge">
<title>pyVHDLModel.SyntaxModel.ParameterAssociationItem&#45;&gt;pyGHDL.dom.Concurrent.ParameterAssociationItem</title>
<path fill="none" stroke="#000000" stroke-width=".5" d="M734.3493,-37.8617C744.3562,-37.2523 754.4414,-36.6382 764.4384,-36.0294"/>
<polygon fill="#000000" stroke="#000000" stroke-width=".5" points="764.7729,-37.7624 769.6572,-35.7116 764.5601,-34.2688 764.7729,-37.7624"/>
</g>
<!-- pyGHDL.dom.DOMMixin -->
<g id="node3" class="node">
<title>pyGHDL.dom.DOMMixin</title>
<g id="a_node3"><a xlink:href="../pyGHDL.dom.html#pyGHDL.dom.DOMMixin" xlink:title="pyGHDL.dom.DOMMixin" target="_top">
<polygon fill="none" stroke="#000000" stroke-width=".5" points="659.5,-19 525.5,-19 525.5,0 659.5,0 659.5,-19"/>
<text text-anchor="middle" x="592.5" y="-7" font-family="Vera Sans, DejaVu Sans, Liberation Sans, Arial, Helvetica, sans" font-size="10.00" fill="#000000">pyGHDL.dom.DOMMixin</text>
</a>
</g>
</g>
<!-- pyGHDL.dom.DOMMixin&#45;&gt;pyGHDL.dom.Concurrent.ParameterAssociationItem -->
<g id="edge2" class="edge">
<title>pyGHDL.dom.DOMMixin&#45;&gt;pyGHDL.dom.Concurrent.ParameterAssociationItem</title>
<path fill="none" stroke="#000000" stroke-width=".5" d="M659.8152,-13.3836C690.5489,-15.1567 728.1592,-17.3265 764.587,-19.4281"/>
<polygon fill="#000000" stroke="#000000" stroke-width=".5" points="764.8595,-21.1966 769.952,-19.7376 765.0611,-17.7024 764.8595,-21.1966"/>
</g>
<!-- pyVHDLModel.ModelEntity -->
<g id="node4" class="node">
<title>pyVHDLModel.ModelEntity</title>
<g id="a_node4"><a xlink:title="``ModelEntity`` is the base class for all classes in the VHDL language model,">
<polygon fill="none" stroke="#000000" stroke-width=".5" points="146,-56 0,-56 0,-37 146,-37 146,-56"/>
<text text-anchor="middle" x="73" y="-44" font-family="Vera Sans, DejaVu Sans, Liberation Sans, Arial, Helvetica, sans" font-size="10.00" fill="#000000">pyVHDLModel.ModelEntity</text>
</a>
</g>
</g>
<!-- pyVHDLModel.SyntaxModel.AssociationItem -->
<g id="node5" class="node">
<title>pyVHDLModel.SyntaxModel.AssociationItem</title>
<polygon fill="none" stroke="#000000" stroke-width=".5" points="415,-56 182,-56 182,-37 415,-37 415,-56"/>
<text text-anchor="middle" x="298.5" y="-44" font-family="Vera Sans, DejaVu Sans, Liberation Sans, Arial, Helvetica, sans" font-size="10.00" fill="#000000">pyVHDLModel.SyntaxModel.AssociationItem</text>
</g>
<!-- pyVHDLModel.ModelEntity&#45;&gt;pyVHDLModel.SyntaxModel.AssociationItem -->
<g id="edge3" class="edge">
<title>pyVHDLModel.ModelEntity&#45;&gt;pyVHDLModel.SyntaxModel.AssociationItem</title>
<path fill="none" stroke="#000000" stroke-width=".5" d="M146.2134,-46.5C156.0495,-46.5 166.3452,-46.5 176.7438,-46.5"/>
<polygon fill="#000000" stroke="#000000" stroke-width=".5" points="176.8552,-48.2501 181.8552,-46.5 176.8552,-44.7501 176.8552,-48.2501"/>
</g>
<!-- pyVHDLModel.SyntaxModel.AssociationItem&#45;&gt;pyVHDLModel.SyntaxModel.ParameterAssociationItem -->
<g id="edge4" class="edge">
<title>pyVHDLModel.SyntaxModel.AssociationItem&#45;&gt;pyVHDLModel.SyntaxModel.ParameterAssociationItem</title>
<path fill="none" stroke="#000000" stroke-width=".5" d="M415.1188,-46.5C425.1763,-46.5 435.4322,-46.5 445.6869,-46.5"/>
<polygon fill="#000000" stroke="#000000" stroke-width=".5" points="445.72,-48.2501 450.72,-46.5 445.72,-44.7501 445.72,-48.2501"/>
</g>
</g>
</svg>
