<?xml version="1.0" encoding="UTF-8" standalone="no"?>
<!DOCTYPE svg PUBLIC "-//W3C//DTD SVG 1.1//EN"
 "http://www.w3.org/Graphics/SVG/1.1/DTD/svg11.dtd">
<!-- Generated by graphviz version 2.40.1 (20161225.0304)
 -->
<!-- Title: inheritance33132216df Pages: 1 -->
<svg width="576pt" height="33pt"
 viewBox="0.00 0.00 576.00 33.21" xmlns="http://www.w3.org/2000/svg" xmlns:xlink="http://www.w3.org/1999/xlink">
<g id="graph0" class="graph" transform="scale(.3288 .3288) rotate(0) translate(4 97)">
<title>inheritance33132216df</title>
<polygon fill="#ffffff" stroke="transparent" points="-4,4 -4,-97 1748,-97 1748,4 -4,4"/>
<!-- pyGHDL.dom.Concurrent.ConcurrentSimpleSignalAssignment -->
<g id="node1" class="node">
<title>pyGHDL.dom.Concurrent.ConcurrentSimpleSignalAssignment</title>
<g id="a_node1"><a xlink:href="../pyGHDL/pyGHDL.dom.Concurrent.html#pyGHDL.dom.Concurrent.ConcurrentSimpleSignalAssignment" xlink:title="pyGHDL.dom.Concurrent.ConcurrentSimpleSignalAssignment" target="_top">
<polygon fill="none" stroke="#000000" stroke-width=".5" points="1744,-37 1429,-37 1429,-18 1744,-18 1744,-37"/>
<text text-anchor="middle" x="1586.5" y="-25" font-family="Vera Sans, DejaVu Sans, Liberation Sans, Arial, Helvetica, sans" font-size="10.00" fill="#000000">pyGHDL.dom.Concurrent.ConcurrentSimpleSignalAssignment</text>
</a>
</g>
</g>
<!-- pyVHDLModel.SyntaxModel.ConcurrentSimpleSignalAssignment -->
<g id="node2" class="node">
<title>pyVHDLModel.SyntaxModel.ConcurrentSimpleSignalAssignment</title>
<polygon fill="none" stroke="#000000" stroke-width=".5" points="1393,-56 1064,-56 1064,-37 1393,-37 1393,-56"/>
<text text-anchor="middle" x="1228.5" y="-44" font-family="Vera Sans, DejaVu Sans, Liberation Sans, Arial, Helvetica, sans" font-size="10.00" fill="#000000">pyVHDLModel.SyntaxModel.ConcurrentSimpleSignalAssignment</text>
</g>
<!-- pyVHDLModel.SyntaxModel.ConcurrentSimpleSignalAssignment&#45;&gt;pyGHDL.dom.Concurrent.ConcurrentSimpleSignalAssignment -->
<g id="edge1" class="edge">
<title>pyVHDLModel.SyntaxModel.ConcurrentSimpleSignalAssignment&#45;&gt;pyGHDL.dom.Concurrent.ConcurrentSimpleSignalAssignment</title>
<path fill="none" stroke="#000000" stroke-width=".5" d="M1393.0925,-37.7646C1403.3517,-37.2202 1413.6745,-36.6723 1423.9249,-36.1283"/>
<polygon fill="#000000" stroke="#000000" stroke-width=".5" points="1424.0502,-37.8742 1428.9504,-35.8616 1423.8647,-34.3791 1424.0502,-37.8742"/>
</g>
<!-- pyGHDL.dom.DOMMixin -->
<g id="node3" class="node">
<title>pyGHDL.dom.DOMMixin</title>
<g id="a_node3"><a xlink:href="../pyGHDL.dom.html#pyGHDL.dom.DOMMixin" xlink:title="pyGHDL.dom.DOMMixin" target="_top">
<polygon fill="none" stroke="#000000" stroke-width=".5" points="1295.5,-19 1161.5,-19 1161.5,0 1295.5,0 1295.5,-19"/>
<text text-anchor="middle" x="1228.5" y="-7" font-family="Vera Sans, DejaVu Sans, Liberation Sans, Arial, Helvetica, sans" font-size="10.00" fill="#000000">pyGHDL.dom.DOMMixin</text>
</a>
</g>
</g>
<!-- pyGHDL.dom.DOMMixin&#45;&gt;pyGHDL.dom.Concurrent.ConcurrentSimpleSignalAssignment -->
<g id="edge2" class="edge">
<title>pyGHDL.dom.DOMMixin&#45;&gt;pyGHDL.dom.Concurrent.ConcurrentSimpleSignalAssignment</title>
<path fill="none" stroke="#000000" stroke-width=".5" d="M1295.8371,-12.8857C1332.1127,-14.7096 1378.5754,-17.0457 1423.6597,-19.3125"/>
<polygon fill="#000000" stroke="#000000" stroke-width=".5" points="1423.7839,-21.0709 1428.8655,-19.5742 1423.9597,-17.5753 1423.7839,-21.0709"/>
</g>
<!-- pyVHDLModel.LabeledEntity -->
<g id="node4" class="node">
<title>pyVHDLModel.LabeledEntity</title>
<g id="a_node4"><a xlink:title="A ``LabeledEntity`` is a mixin class for all VHDL entities that can have">
<polygon fill="none" stroke="#000000" stroke-width=".5" points="155,-93 0,-93 0,-74 155,-74 155,-93"/>
<text text-anchor="middle" x="77.5" y="-81" font-family="Vera Sans, DejaVu Sans, Liberation Sans, Arial, Helvetica, sans" font-size="10.00" fill="#000000">pyVHDLModel.LabeledEntity</text>
</a>
</g>
</g>
<!-- pyVHDLModel.SyntaxModel.Statement -->
<g id="node10" class="node">
<title>pyVHDLModel.SyntaxModel.Statement</title>
<polygon fill="none" stroke="#000000" stroke-width=".5" points="399.5,-75 194.5,-75 194.5,-56 399.5,-56 399.5,-75"/>
<text text-anchor="middle" x="297" y="-63" font-family="Vera Sans, DejaVu Sans, Liberation Sans, Arial, Helvetica, sans" font-size="10.00" fill="#000000">pyVHDLModel.SyntaxModel.Statement</text>
</g>
<!-- pyVHDLModel.LabeledEntity&#45;&gt;pyVHDLModel.SyntaxModel.Statement -->
<g id="edge9" class="edge">
<title>pyVHDLModel.LabeledEntity&#45;&gt;pyVHDLModel.SyntaxModel.Statement</title>
<path fill="none" stroke="#000000" stroke-width=".5" d="M155.1964,-77.1285C166.212,-76.2252 177.6998,-75.2832 189.1599,-74.3434"/>
<polygon fill="#000000" stroke="#000000" stroke-width=".5" points="189.5813,-76.0648 194.4215,-73.9119 189.2952,-72.5765 189.5813,-76.0648"/>
</g>
<!-- pyVHDLModel.ModelEntity -->
<g id="node5" class="node">
<title>pyVHDLModel.ModelEntity</title>
<g id="a_node5"><a xlink:title="``ModelEntity`` is the base class for all classes in the VHDL language model,">
<polygon fill="none" stroke="#000000" stroke-width=".5" points="150.5,-56 4.5,-56 4.5,-37 150.5,-37 150.5,-56"/>
<text text-anchor="middle" x="77.5" y="-44" font-family="Vera Sans, DejaVu Sans, Liberation Sans, Arial, Helvetica, sans" font-size="10.00" fill="#000000">pyVHDLModel.ModelEntity</text>
</a>
</g>
</g>
<!-- pyVHDLModel.ModelEntity&#45;&gt;pyVHDLModel.SyntaxModel.Statement -->
<g id="edge8" class="edge">
<title>pyVHDLModel.ModelEntity&#45;&gt;pyVHDLModel.SyntaxModel.Statement</title>
<path fill="none" stroke="#000000" stroke-width=".5" d="M150.5903,-52.8267C162.9212,-53.8941 175.9497,-55.0218 188.9465,-56.1468"/>
<polygon fill="#000000" stroke="#000000" stroke-width=".5" points="188.9865,-57.9068 194.1188,-56.5946 189.2884,-54.4198 188.9865,-57.9068"/>
</g>
<!-- pyVHDLModel.SyntaxModel.Assignment -->
<g id="node6" class="node">
<title>pyVHDLModel.SyntaxModel.Assignment</title>
<g id="a_node6"><a xlink:title="An ``Assignment`` is a base&#45;class for all assignment statements.">
<polygon fill="none" stroke="#000000" stroke-width=".5" points="403,-38 191,-38 191,-19 403,-19 403,-38"/>
<text text-anchor="middle" x="297" y="-26" font-family="Vera Sans, DejaVu Sans, Liberation Sans, Arial, Helvetica, sans" font-size="10.00" fill="#000000">pyVHDLModel.SyntaxModel.Assignment</text>
</a>
</g>
</g>
<!-- pyVHDLModel.SyntaxModel.SignalAssignment -->
<g id="node9" class="node">
<title>pyVHDLModel.SyntaxModel.SignalAssignment</title>
<g id="a_node9"><a xlink:title="An ``SignalAssignment`` is a base&#45;class for all signal assignment statements.">
<polygon fill="none" stroke="#000000" stroke-width=".5" points="689,-38 447,-38 447,-19 689,-19 689,-38"/>
<text text-anchor="middle" x="568" y="-26" font-family="Vera Sans, DejaVu Sans, Liberation Sans, Arial, Helvetica, sans" font-size="10.00" fill="#000000">pyVHDLModel.SyntaxModel.SignalAssignment</text>
</a>
</g>
</g>
<!-- pyVHDLModel.SyntaxModel.Assignment&#45;&gt;pyVHDLModel.SyntaxModel.SignalAssignment -->
<g id="edge7" class="edge">
<title>pyVHDLModel.SyntaxModel.Assignment&#45;&gt;pyVHDLModel.SyntaxModel.SignalAssignment</title>
<path fill="none" stroke="#000000" stroke-width=".5" d="M403.3286,-28.5C415.8958,-28.5 428.8144,-28.5 441.6238,-28.5"/>
<polygon fill="#000000" stroke="#000000" stroke-width=".5" points="441.7181,-30.2501 446.7181,-28.5 441.7181,-26.7501 441.7181,-30.2501"/>
</g>
<!-- pyVHDLModel.SyntaxModel.ConcurrentSignalAssignment -->
<g id="node7" class="node">
<title>pyVHDLModel.SyntaxModel.ConcurrentSignalAssignment</title>
<polygon fill="none" stroke="#000000" stroke-width=".5" points="1028,-56 733,-56 733,-37 1028,-37 1028,-56"/>
<text text-anchor="middle" x="880.5" y="-44" font-family="Vera Sans, DejaVu Sans, Liberation Sans, Arial, Helvetica, sans" font-size="10.00" fill="#000000">pyVHDLModel.SyntaxModel.ConcurrentSignalAssignment</text>
</g>
<!-- pyVHDLModel.SyntaxModel.ConcurrentSignalAssignment&#45;&gt;pyVHDLModel.SyntaxModel.ConcurrentSimpleSignalAssignment -->
<g id="edge5" class="edge">
<title>pyVHDLModel.SyntaxModel.ConcurrentSignalAssignment&#45;&gt;pyVHDLModel.SyntaxModel.ConcurrentSimpleSignalAssignment</title>
<path fill="none" stroke="#000000" stroke-width=".5" d="M1028.0833,-46.5C1038.272,-46.5 1048.5844,-46.5 1058.8764,-46.5"/>
<polygon fill="#000000" stroke="#000000" stroke-width=".5" points="1058.9266,-48.2501 1063.9266,-46.5 1058.9265,-44.7501 1058.9266,-48.2501"/>
</g>
<!-- pyVHDLModel.SyntaxModel.ConcurrentStatement -->
<g id="node8" class="node">
<title>pyVHDLModel.SyntaxModel.ConcurrentStatement</title>
<g id="a_node8"><a xlink:title="A ``ConcurrentStatement`` is a base&#45;class for all concurrent statements.">
<polygon fill="none" stroke="#000000" stroke-width=".5" points="697,-75 439,-75 439,-56 697,-56 697,-75"/>
<text text-anchor="middle" x="568" y="-63" font-family="Vera Sans, DejaVu Sans, Liberation Sans, Arial, Helvetica, sans" font-size="10.00" fill="#000000">pyVHDLModel.SyntaxModel.ConcurrentStatement</text>
</a>
</g>
</g>
<!-- pyVHDLModel.SyntaxModel.ConcurrentStatement&#45;&gt;pyVHDLModel.SyntaxModel.ConcurrentSignalAssignment -->
<g id="edge3" class="edge">
<title>pyVHDLModel.SyntaxModel.ConcurrentStatement&#45;&gt;pyVHDLModel.SyntaxModel.ConcurrentSignalAssignment</title>
<path fill="none" stroke="#000000" stroke-width=".5" d="M697.3615,-57.6348C707.4624,-57.0207 717.7179,-56.3972 727.9522,-55.7749"/>
<polygon fill="#000000" stroke="#000000" stroke-width=".5" points="728.0893,-57.5199 732.9739,-55.4696 727.8769,-54.0263 728.0893,-57.5199"/>
</g>
<!-- pyVHDLModel.SyntaxModel.SignalAssignment&#45;&gt;pyVHDLModel.SyntaxModel.ConcurrentSignalAssignment -->
<g id="edge4" class="edge">
<title>pyVHDLModel.SyntaxModel.SignalAssignment&#45;&gt;pyVHDLModel.SyntaxModel.ConcurrentSignalAssignment</title>
<path fill="none" stroke="#000000" stroke-width=".5" d="M689.2679,-35.485C701.9149,-36.2135 714.8841,-36.9605 727.8207,-37.7057"/>
<polygon fill="#000000" stroke="#000000" stroke-width=".5" points="727.8775,-39.4618 732.9699,-38.0023 728.0788,-35.9675 727.8775,-39.4618"/>
</g>
<!-- pyVHDLModel.SyntaxModel.Statement&#45;&gt;pyVHDLModel.SyntaxModel.ConcurrentStatement -->
<g id="edge6" class="edge">
<title>pyVHDLModel.SyntaxModel.Statement&#45;&gt;pyVHDLModel.SyntaxModel.ConcurrentStatement</title>
<path fill="none" stroke="#000000" stroke-width=".5" d="M399.8399,-65.5C410.8769,-65.5 422.2214,-65.5 433.556,-65.5"/>
<polygon fill="#000000" stroke="#000000" stroke-width=".5" points="433.762,-67.2501 438.762,-65.5 433.7619,-63.7501 433.762,-67.2501"/>
</g>
</g>
</svg>
