<?xml version="1.0" encoding="UTF-8" standalone="no"?>
<!DOCTYPE svg PUBLIC "-//W3C//DTD SVG 1.1//EN"
 "http://www.w3.org/Graphics/SVG/1.1/DTD/svg11.dtd">
<!-- Generated by graphviz version 2.40.1 (20161225.0304)
 -->
<!-- Title: inheritance7a8a17389e Pages: 1 -->
<svg width="576pt" height="31pt"
 viewBox="0.00 0.00 576.00 31.45" xmlns="http://www.w3.org/2000/svg" xmlns:xlink="http://www.w3.org/1999/xlink">
<g id="graph0" class="graph" transform="scale(.4915 .4915) rotate(0) translate(4 60)">
<title>inheritance7a8a17389e</title>
<polygon fill="#ffffff" stroke="transparent" points="-4,4 -4,-60 1168,-60 1168,4 -4,4"/>
<!-- pyGHDL.dom.DOMMixin -->
<g id="node1" class="node">
<title>pyGHDL.dom.DOMMixin</title>
<g id="a_node1"><a xlink:href="../pyGHDL.dom.html#pyGHDL.dom.DOMMixin" xlink:title="pyGHDL.dom.DOMMixin" target="_top">
<polygon fill="none" stroke="#000000" stroke-width=".5" points="860.5,-56 726.5,-56 726.5,-37 860.5,-37 860.5,-56"/>
<text text-anchor="middle" x="793.5" y="-44" font-family="Vera Sans, DejaVu Sans, Liberation Sans, Arial, Helvetica, sans" font-size="10.00" fill="#000000">pyGHDL.dom.DOMMixin</text>
</a>
</g>
</g>
<!-- pyGHDL.dom.Literal.EnumerationLiteral -->
<g id="node2" class="node">
<title>pyGHDL.dom.Literal.EnumerationLiteral</title>
<g id="a_node2"><a xlink:href="../pyGHDL/pyGHDL.dom.Literal.html#pyGHDL.dom.Literal.EnumerationLiteral" xlink:title="pyGHDL.dom.Literal.EnumerationLiteral" target="_top">
<polygon fill="none" stroke="#000000" stroke-width=".5" points="1164,-37 953,-37 953,-18 1164,-18 1164,-37"/>
<text text-anchor="middle" x="1058.5" y="-25" font-family="Vera Sans, DejaVu Sans, Liberation Sans, Arial, Helvetica, sans" font-size="10.00" fill="#000000">pyGHDL.dom.Literal.EnumerationLiteral</text>
</a>
</g>
</g>
<!-- pyGHDL.dom.DOMMixin&#45;&gt;pyGHDL.dom.Literal.EnumerationLiteral -->
<g id="edge2" class="edge">
<title>pyGHDL.dom.DOMMixin&#45;&gt;pyGHDL.dom.Literal.EnumerationLiteral</title>
<path fill="none" stroke="#000000" stroke-width=".5" d="M860.7133,-41.6809C887.167,-39.7842 918.2496,-37.5557 947.838,-35.4343"/>
<polygon fill="#000000" stroke="#000000" stroke-width=".5" points="948.095,-37.1704 952.957,-35.0672 947.8447,-33.6794 948.095,-37.1704"/>
</g>
<!-- pyVHDLModel.SyntaxModel.EnumerationLiteral -->
<g id="node3" class="node">
<title>pyVHDLModel.SyntaxModel.EnumerationLiteral</title>
<polygon fill="none" stroke="#000000" stroke-width=".5" points="917,-19 670,-19 670,0 917,0 917,-19"/>
<text text-anchor="middle" x="793.5" y="-7" font-family="Vera Sans, DejaVu Sans, Liberation Sans, Arial, Helvetica, sans" font-size="10.00" fill="#000000">pyVHDLModel.SyntaxModel.EnumerationLiteral</text>
</g>
<!-- pyVHDLModel.SyntaxModel.EnumerationLiteral&#45;&gt;pyGHDL.dom.Literal.EnumerationLiteral -->
<g id="edge1" class="edge">
<title>pyVHDLModel.SyntaxModel.EnumerationLiteral&#45;&gt;pyGHDL.dom.Literal.EnumerationLiteral</title>
<path fill="none" stroke="#000000" stroke-width=".5" d="M917.0778,-17.894C927.1894,-18.5808 937.3707,-19.2723 947.3845,-19.9525"/>
<polygon fill="#000000" stroke="#000000" stroke-width=".5" points="947.4975,-21.7142 952.6046,-20.3071 947.7348,-18.2222 947.4975,-21.7142"/>
</g>
<!-- pyVHDLModel.ModelEntity -->
<g id="node4" class="node">
<title>pyVHDLModel.ModelEntity</title>
<g id="a_node4"><a xlink:title="``ModelEntity`` is the base class for all classes in the VHDL language model,">
<polygon fill="none" stroke="#000000" stroke-width=".5" points="146,-19 0,-19 0,0 146,0 146,-19"/>
<text text-anchor="middle" x="73" y="-7" font-family="Vera Sans, DejaVu Sans, Liberation Sans, Arial, Helvetica, sans" font-size="10.00" fill="#000000">pyVHDLModel.ModelEntity</text>
</a>
</g>
</g>
<!-- pyVHDLModel.SyntaxModel.BaseExpression -->
<g id="node5" class="node">
<title>pyVHDLModel.SyntaxModel.BaseExpression</title>
<g id="a_node5"><a xlink:title="A ``BaseExpression`` is a base&#45;class for all expressions.">
<polygon fill="none" stroke="#000000" stroke-width=".5" points="413,-19 182,-19 182,0 413,0 413,-19"/>
<text text-anchor="middle" x="297.5" y="-7" font-family="Vera Sans, DejaVu Sans, Liberation Sans, Arial, Helvetica, sans" font-size="10.00" fill="#000000">pyVHDLModel.SyntaxModel.BaseExpression</text>
</a>
</g>
</g>
<!-- pyVHDLModel.ModelEntity&#45;&gt;pyVHDLModel.SyntaxModel.BaseExpression -->
<g id="edge3" class="edge">
<title>pyVHDLModel.ModelEntity&#45;&gt;pyVHDLModel.SyntaxModel.BaseExpression</title>
<path fill="none" stroke="#000000" stroke-width=".5" d="M146.1991,-9.5C155.9857,-9.5 166.2247,-9.5 176.5627,-9.5"/>
<polygon fill="#000000" stroke="#000000" stroke-width=".5" points="176.6441,-11.2501 181.644,-9.5 176.644,-7.7501 176.6441,-11.2501"/>
</g>
<!-- pyVHDLModel.SyntaxModel.Literal -->
<g id="node6" class="node">
<title>pyVHDLModel.SyntaxModel.Literal</title>
<g id="a_node6"><a xlink:title="A ``Literal`` is a base&#45;class for all literals.">
<polygon fill="none" stroke="#000000" stroke-width=".5" points="634,-19 449,-19 449,0 634,0 634,-19"/>
<text text-anchor="middle" x="541.5" y="-7" font-family="Vera Sans, DejaVu Sans, Liberation Sans, Arial, Helvetica, sans" font-size="10.00" fill="#000000">pyVHDLModel.SyntaxModel.Literal</text>
</a>
</g>
</g>
<!-- pyVHDLModel.SyntaxModel.BaseExpression&#45;&gt;pyVHDLModel.SyntaxModel.Literal -->
<g id="edge5" class="edge">
<title>pyVHDLModel.SyntaxModel.BaseExpression&#45;&gt;pyVHDLModel.SyntaxModel.Literal</title>
<path fill="none" stroke="#000000" stroke-width=".5" d="M413.0691,-9.5C423.2436,-9.5 433.478,-9.5 443.4881,-9.5"/>
<polygon fill="#000000" stroke="#000000" stroke-width=".5" points="443.7009,-11.2501 448.7008,-9.5 443.7008,-7.7501 443.7009,-11.2501"/>
</g>
<!-- pyVHDLModel.SyntaxModel.Literal&#45;&gt;pyVHDLModel.SyntaxModel.EnumerationLiteral -->
<g id="edge4" class="edge">
<title>pyVHDLModel.SyntaxModel.Literal&#45;&gt;pyVHDLModel.SyntaxModel.EnumerationLiteral</title>
<path fill="none" stroke="#000000" stroke-width=".5" d="M634.2619,-9.5C644.272,-9.5 654.5835,-9.5 664.9182,-9.5"/>
<polygon fill="#000000" stroke="#000000" stroke-width=".5" points="664.9923,-11.2501 669.9923,-9.5 664.9922,-7.7501 664.9923,-11.2501"/>
</g>
</g>
</svg>
