<?xml version="1.0" encoding="UTF-8" standalone="no"?>
<!DOCTYPE svg PUBLIC "-//W3C//DTD SVG 1.1//EN"
 "http://www.w3.org/Graphics/SVG/1.1/DTD/svg11.dtd">
<!-- Generated by graphviz version 2.40.1 (20161225.0304)
 -->
<!-- Title: inheritance3ddbbd5ddc Pages: 1 -->
<svg width="576pt" height="50pt"
 viewBox="0.00 0.00 576.00 49.67" xmlns="http://www.w3.org/2000/svg" xmlns:xlink="http://www.w3.org/1999/xlink">
<g id="graph0" class="graph" transform="scale(.6057 .6057) rotate(0) translate(4 78)">
<title>inheritance3ddbbd5ddc</title>
<polygon fill="#ffffff" stroke="transparent" points="-4,4 -4,-78 947,-78 947,4 -4,4"/>
<!-- pyGHDL.dom.DOMMixin -->
<g id="node1" class="node">
<title>pyGHDL.dom.DOMMixin</title>
<g id="a_node1"><a xlink:href="../pyGHDL.dom.html#pyGHDL.dom.DOMMixin" xlink:title="pyGHDL.dom.DOMMixin" target="_top">
<polygon fill="none" stroke="#000000" stroke-width=".5" points="719,-74 585,-74 585,-55 719,-55 719,-74"/>
<text text-anchor="middle" x="652" y="-62" font-family="Vera Sans, DejaVu Sans, Liberation Sans, Arial, Helvetica, sans" font-size="10.00" fill="#000000">pyGHDL.dom.DOMMixin</text>
</a>
</g>
</g>
<!-- pyGHDL.dom.Object.Variable -->
<g id="node2" class="node">
<title>pyGHDL.dom.Object.Variable</title>
<g id="a_node2"><a xlink:href="../pyGHDL/pyGHDL.dom.Object.html#pyGHDL.dom.Object.Variable" xlink:title="pyGHDL.dom.Object.Variable" target="_top">
<polygon fill="none" stroke="#000000" stroke-width=".5" points="943,-55 785,-55 785,-36 943,-36 943,-55"/>
<text text-anchor="middle" x="864" y="-43" font-family="Vera Sans, DejaVu Sans, Liberation Sans, Arial, Helvetica, sans" font-size="10.00" fill="#000000">pyGHDL.dom.Object.Variable</text>
</a>
</g>
</g>
<!-- pyGHDL.dom.DOMMixin&#45;&gt;pyGHDL.dom.Object.Variable -->
<g id="edge2" class="edge">
<title>pyGHDL.dom.DOMMixin&#45;&gt;pyGHDL.dom.Object.Variable</title>
<path fill="none" stroke="#000000" stroke-width=".5" d="M719.0781,-58.4883C738.3129,-56.7644 759.5333,-54.8626 779.6647,-53.0583"/>
<polygon fill="#000000" stroke="#000000" stroke-width=".5" points="779.9338,-54.7913 784.7575,-52.6019 779.6213,-51.3053 779.9338,-54.7913"/>
</g>
<!-- pyVHDLModel.SyntaxModel.Variable -->
<g id="node3" class="node">
<title>pyVHDLModel.SyntaxModel.Variable</title>
<polygon fill="none" stroke="#000000" stroke-width=".5" points="749,-37 555,-37 555,-18 749,-18 749,-37"/>
<text text-anchor="middle" x="652" y="-25" font-family="Vera Sans, DejaVu Sans, Liberation Sans, Arial, Helvetica, sans" font-size="10.00" fill="#000000">pyVHDLModel.SyntaxModel.Variable</text>
</g>
<!-- pyVHDLModel.SyntaxModel.Variable&#45;&gt;pyGHDL.dom.Object.Variable -->
<g id="edge1" class="edge">
<title>pyVHDLModel.SyntaxModel.Variable&#45;&gt;pyGHDL.dom.Object.Variable</title>
<path fill="none" stroke="#000000" stroke-width=".5" d="M749.0038,-35.7362C759.2166,-36.6033 769.5417,-37.48 779.596,-38.3336"/>
<polygon fill="#000000" stroke="#000000" stroke-width=".5" points="779.6969,-40.0984 784.827,-38.7778 779.9931,-36.6109 779.6969,-40.0984"/>
</g>
<!-- pyVHDLModel.ModelEntity -->
<g id="node4" class="node">
<title>pyVHDLModel.ModelEntity</title>
<g id="a_node4"><a xlink:title="``ModelEntity`` is the base class for all classes in the VHDL language model,">
<polygon fill="none" stroke="#000000" stroke-width=".5" points="168.5,-74 22.5,-74 22.5,-55 168.5,-55 168.5,-74"/>
<text text-anchor="middle" x="95.5" y="-62" font-family="Vera Sans, DejaVu Sans, Liberation Sans, Arial, Helvetica, sans" font-size="10.00" fill="#000000">pyVHDLModel.ModelEntity</text>
</a>
</g>
</g>
<!-- pyVHDLModel.SyntaxModel.Obj -->
<g id="node6" class="node">
<title>pyVHDLModel.SyntaxModel.Obj</title>
<polygon fill="none" stroke="#000000" stroke-width=".5" points="458,-56 288,-56 288,-37 458,-37 458,-56"/>
<text text-anchor="middle" x="373" y="-44" font-family="Vera Sans, DejaVu Sans, Liberation Sans, Arial, Helvetica, sans" font-size="10.00" fill="#000000">pyVHDLModel.SyntaxModel.Obj</text>
</g>
<!-- pyVHDLModel.ModelEntity&#45;&gt;pyVHDLModel.SyntaxModel.Obj -->
<g id="edge3" class="edge">
<title>pyVHDLModel.ModelEntity&#45;&gt;pyVHDLModel.SyntaxModel.Obj</title>
<path fill="none" stroke="#000000" stroke-width=".5" d="M168.7728,-59.7472C203.6681,-57.4837 245.7327,-54.7552 282.5944,-52.3641"/>
<polygon fill="#000000" stroke="#000000" stroke-width=".5" points="283.1176,-54.084 287.9938,-52.0139 282.891,-50.5913 283.1176,-54.084"/>
</g>
<!-- pyVHDLModel.MultipleNamedEntity -->
<g id="node5" class="node">
<title>pyVHDLModel.MultipleNamedEntity</title>
<g id="a_node5"><a xlink:title="A ``MultipleNamedEntity`` is a mixin class for all VHDL entities that declare">
<polygon fill="none" stroke="#000000" stroke-width=".5" points="191,-37 0,-37 0,-18 191,-18 191,-37"/>
<text text-anchor="middle" x="95.5" y="-25" font-family="Vera Sans, DejaVu Sans, Liberation Sans, Arial, Helvetica, sans" font-size="10.00" fill="#000000">pyVHDLModel.MultipleNamedEntity</text>
</a>
</g>
</g>
<!-- pyVHDLModel.MultipleNamedEntity&#45;&gt;pyVHDLModel.SyntaxModel.Obj -->
<g id="edge4" class="edge">
<title>pyVHDLModel.MultipleNamedEntity&#45;&gt;pyVHDLModel.SyntaxModel.Obj</title>
<path fill="none" stroke="#000000" stroke-width=".5" d="M191.3883,-34.0653C221.007,-36.0933 253.5151,-38.3191 282.7402,-40.32"/>
<polygon fill="#000000" stroke="#000000" stroke-width=".5" points="282.6702,-42.0693 287.7781,-40.665 282.9094,-38.5774 282.6702,-42.0693"/>
</g>
<!-- pyVHDLModel.SyntaxModel.Obj&#45;&gt;pyVHDLModel.SyntaxModel.Variable -->
<g id="edge5" class="edge">
<title>pyVHDLModel.SyntaxModel.Obj&#45;&gt;pyVHDLModel.SyntaxModel.Variable</title>
<path fill="none" stroke="#000000" stroke-width=".5" d="M458.2252,-40.6961C487.0079,-38.736 519.4426,-36.5272 549.4252,-34.4854"/>
<polygon fill="#000000" stroke="#000000" stroke-width=".5" points="549.7335,-36.2185 554.603,-34.1328 549.4956,-32.7266 549.7335,-36.2185"/>
</g>
<!-- pyVHDLModel.SyntaxModel.WithDefaultExpressionMixin -->
<g id="node7" class="node">
<title>pyVHDLModel.SyntaxModel.WithDefaultExpressionMixin</title>
<g id="a_node7"><a xlink:title="A ``WithDefaultExpression`` is a mixin class for all objects declarations">
<polygon fill="none" stroke="#000000" stroke-width=".5" points="519,-19 227,-19 227,0 519,0 519,-19"/>
<text text-anchor="middle" x="373" y="-7" font-family="Vera Sans, DejaVu Sans, Liberation Sans, Arial, Helvetica, sans" font-size="10.00" fill="#000000">pyVHDLModel.SyntaxModel.WithDefaultExpressionMixin</text>
</a>
</g>
</g>
<!-- pyVHDLModel.SyntaxModel.WithDefaultExpressionMixin&#45;&gt;pyVHDLModel.SyntaxModel.Variable -->
<g id="edge6" class="edge">
<title>pyVHDLModel.SyntaxModel.WithDefaultExpressionMixin&#45;&gt;pyVHDLModel.SyntaxModel.Variable</title>
<path fill="none" stroke="#000000" stroke-width=".5" d="M519.0369,-18.9217C529.3661,-19.5881 539.6474,-20.2514 549.6536,-20.897"/>
<polygon fill="#000000" stroke="#000000" stroke-width=".5" points="549.7576,-22.6573 554.8599,-21.2329 549.983,-19.1645 549.7576,-22.6573"/>
</g>
</g>
</svg>
