<?xml version="1.0" encoding="UTF-8" standalone="no"?>
<!DOCTYPE svg PUBLIC "-//W3C//DTD SVG 1.1//EN"
 "http://www.w3.org/Graphics/SVG/1.1/DTD/svg11.dtd">
<!-- Generated by graphviz version 2.40.1 (20161225.0304)
 -->
<!-- Title: inheritance25568787b9 Pages: 1 -->
<svg width="576pt" height="59pt"
 viewBox="0.00 0.00 576.00 59.17" xmlns="http://www.w3.org/2000/svg" xmlns:xlink="http://www.w3.org/1999/xlink">
<g id="graph0" class="graph" transform="scale(.9246 .9246) rotate(0) translate(4 60)">
<title>inheritance25568787b9</title>
<polygon fill="#ffffff" stroke="transparent" points="-4,4 -4,-60 619,-60 619,4 -4,4"/>
<!-- pyGHDL.dom.DOMMixin -->
<g id="node1" class="node">
<title>pyGHDL.dom.DOMMixin</title>
<g id="a_node1"><a xlink:href="../pyGHDL.dom.html#pyGHDL.dom.DOMMixin" xlink:title="pyGHDL.dom.DOMMixin" target="_top">
<polygon fill="none" stroke="#000000" stroke-width=".5" points="384,-56 250,-56 250,-37 384,-37 384,-56"/>
<text text-anchor="middle" x="317" y="-44" font-family="Vera Sans, DejaVu Sans, Liberation Sans, Arial, Helvetica, sans" font-size="10.00" fill="#000000">pyGHDL.dom.DOMMixin</text>
</a>
</g>
</g>
<!-- pyGHDL.dom.Names.AllName -->
<g id="node2" class="node">
<title>pyGHDL.dom.Names.AllName</title>
<g id="a_node2"><a xlink:href="../pyGHDL/pyGHDL.dom.Names.html#pyGHDL.dom.Names.AllName" xlink:title="pyGHDL.dom.Names.AllName" target="_top">
<polygon fill="none" stroke="#000000" stroke-width=".5" points="615,-37 451,-37 451,-18 615,-18 615,-37"/>
<text text-anchor="middle" x="533" y="-25" font-family="Vera Sans, DejaVu Sans, Liberation Sans, Arial, Helvetica, sans" font-size="10.00" fill="#000000">pyGHDL.dom.Names.AllName</text>
</a>
</g>
</g>
<!-- pyGHDL.dom.DOMMixin&#45;&gt;pyGHDL.dom.Names.AllName -->
<g id="edge2" class="edge">
<title>pyGHDL.dom.DOMMixin&#45;&gt;pyGHDL.dom.Names.AllName</title>
<path fill="none" stroke="#000000" stroke-width=".5" d="M384.1597,-40.5924C403.5681,-38.8852 425.0402,-36.9965 445.4941,-35.1973"/>
<polygon fill="#000000" stroke="#000000" stroke-width=".5" points="445.8431,-36.9234 450.6705,-34.7419 445.5363,-33.4369 445.8431,-36.9234"/>
</g>
<!-- pyVHDLModel.SyntaxModel.AllName -->
<g id="node3" class="node">
<title>pyVHDLModel.SyntaxModel.AllName</title>
<polygon fill="none" stroke="#000000" stroke-width=".5" points="415,-19 219,-19 219,0 415,0 415,-19"/>
<text text-anchor="middle" x="317" y="-7" font-family="Vera Sans, DejaVu Sans, Liberation Sans, Arial, Helvetica, sans" font-size="10.00" fill="#000000">pyVHDLModel.SyntaxModel.AllName</text>
</g>
<!-- pyVHDLModel.SyntaxModel.AllName&#45;&gt;pyGHDL.dom.Names.AllName -->
<g id="edge1" class="edge">
<title>pyVHDLModel.SyntaxModel.AllName&#45;&gt;pyGHDL.dom.Names.AllName</title>
<path fill="none" stroke="#000000" stroke-width=".5" d="M415.2034,-17.6836C425.3579,-18.5298 435.6289,-19.3857 445.6533,-20.2211"/>
<polygon fill="#000000" stroke="#000000" stroke-width=".5" points="445.7429,-21.9846 450.871,-20.6559 446.0336,-18.4966 445.7429,-21.9846"/>
</g>
<!-- pyVHDLModel.SyntaxModel.Name -->
<g id="node4" class="node">
<title>pyVHDLModel.SyntaxModel.Name</title>
<g id="a_node4"><a xlink:title="``Name`` is the base class for all *names* in the VHDL language model.">
<polygon fill="none" stroke="#000000" stroke-width=".5" points="183,-19 0,-19 0,0 183,0 183,-19"/>
<text text-anchor="middle" x="91.5" y="-7" font-family="Vera Sans, DejaVu Sans, Liberation Sans, Arial, Helvetica, sans" font-size="10.00" fill="#000000">pyVHDLModel.SyntaxModel.Name</text>
</a>
</g>
</g>
<!-- pyVHDLModel.SyntaxModel.Name&#45;&gt;pyVHDLModel.SyntaxModel.AllName -->
<g id="edge3" class="edge">
<title>pyVHDLModel.SyntaxModel.Name&#45;&gt;pyVHDLModel.SyntaxModel.AllName</title>
<path fill="none" stroke="#000000" stroke-width=".5" d="M183.2195,-9.5C193.1877,-9.5 203.3833,-9.5 213.4795,-9.5"/>
<polygon fill="#000000" stroke="#000000" stroke-width=".5" points="213.7484,-11.2501 218.7484,-9.5 213.7484,-7.7501 213.7484,-11.2501"/>
</g>
</g>
</svg>
