<?xml version="1.0" encoding="UTF-8" standalone="no"?>
<!DOCTYPE svg PUBLIC "-//W3C//DTD SVG 1.1//EN"
 "http://www.w3.org/Graphics/SVG/1.1/DTD/svg11.dtd">
<!-- Generated by graphviz version 2.40.1 (20161225.0304)
 -->
<!-- Title: inheritance3caa73c3ed Pages: 1 -->
<svg width="576pt" height="25pt"
 viewBox="0.00 0.00 576.00 24.71" xmlns="http://www.w3.org/2000/svg" xmlns:xlink="http://www.w3.org/1999/xlink">
<g id="graph0" class="graph" transform="scale(.3861 .3861) rotate(0) translate(4 60)">
<title>inheritance3caa73c3ed</title>
<polygon fill="#ffffff" stroke="transparent" points="-4,4 -4,-60 1488,-60 1488,4 -4,4"/>
<!-- pyGHDL.dom.DOMMixin -->
<g id="node1" class="node">
<title>pyGHDL.dom.DOMMixin</title>
<g id="a_node1"><a xlink:href="../pyGHDL.dom.html#pyGHDL.dom.DOMMixin" xlink:title="pyGHDL.dom.DOMMixin" target="_top">
<polygon fill="none" stroke="#000000" stroke-width=".5" points="1184,-56 1050,-56 1050,-37 1184,-37 1184,-56"/>
<text text-anchor="middle" x="1117" y="-44" font-family="Vera Sans, DejaVu Sans, Liberation Sans, Arial, Helvetica, sans" font-size="10.00" fill="#000000">pyGHDL.dom.DOMMixin</text>
</a>
</g>
</g>
<!-- pyGHDL.dom.Expression.XnorExpression -->
<g id="node2" class="node">
<title>pyGHDL.dom.Expression.XnorExpression</title>
<g id="a_node2"><a xlink:href="../pyGHDL/pyGHDL.dom.Expression.html#pyGHDL.dom.Expression.XnorExpression" xlink:title="pyGHDL.dom.Expression.XnorExpression" target="_top">
<polygon fill="none" stroke="#000000" stroke-width=".5" points="1484,-37 1268,-37 1268,-18 1484,-18 1484,-37"/>
<text text-anchor="middle" x="1376" y="-25" font-family="Vera Sans, DejaVu Sans, Liberation Sans, Arial, Helvetica, sans" font-size="10.00" fill="#000000">pyGHDL.dom.Expression.XnorExpression</text>
</a>
</g>
</g>
<!-- pyGHDL.dom.DOMMixin&#45;&gt;pyGHDL.dom.Expression.XnorExpression -->
<g id="edge2" class="edge">
<title>pyGHDL.dom.DOMMixin&#45;&gt;pyGHDL.dom.Expression.XnorExpression</title>
<path fill="none" stroke="#000000" stroke-width=".5" d="M1184.0358,-41.5823C1208.0231,-39.8226 1235.7703,-37.7871 1262.5833,-35.8201"/>
<polygon fill="#000000" stroke="#000000" stroke-width=".5" points="1262.7194,-37.565 1267.5779,-35.4537 1262.4632,-34.0743 1262.7194,-37.565"/>
</g>
<!-- pyVHDLModel.SyntaxModel.XnorExpression -->
<g id="node3" class="node">
<title>pyVHDLModel.SyntaxModel.XnorExpression</title>
<polygon fill="none" stroke="#000000" stroke-width=".5" points="1232,-19 1002,-19 1002,0 1232,0 1232,-19"/>
<text text-anchor="middle" x="1117" y="-7" font-family="Vera Sans, DejaVu Sans, Liberation Sans, Arial, Helvetica, sans" font-size="10.00" fill="#000000">pyVHDLModel.SyntaxModel.XnorExpression</text>
</g>
<!-- pyVHDLModel.SyntaxModel.XnorExpression&#45;&gt;pyGHDL.dom.Expression.XnorExpression -->
<g id="edge1" class="edge">
<title>pyVHDLModel.SyntaxModel.XnorExpression&#45;&gt;pyGHDL.dom.Expression.XnorExpression</title>
<path fill="none" stroke="#000000" stroke-width=".5" d="M1232.1095,-17.4999C1242.3266,-18.21 1252.6647,-18.9284 1262.8652,-19.6373"/>
<polygon fill="#000000" stroke="#000000" stroke-width=".5" points="1262.7512,-21.3836 1267.8605,-19.9845 1262.9939,-17.892 1262.7512,-21.3836"/>
</g>
<!-- pyVHDLModel.ModelEntity -->
<g id="node4" class="node">
<title>pyVHDLModel.ModelEntity</title>
<g id="a_node4"><a xlink:title="``ModelEntity`` is the base class for all classes in the VHDL language model,">
<polygon fill="none" stroke="#000000" stroke-width=".5" points="146,-19 0,-19 0,0 146,0 146,-19"/>
<text text-anchor="middle" x="73" y="-7" font-family="Vera Sans, DejaVu Sans, Liberation Sans, Arial, Helvetica, sans" font-size="10.00" fill="#000000">pyVHDLModel.ModelEntity</text>
</a>
</g>
</g>
<!-- pyVHDLModel.SyntaxModel.BaseExpression -->
<g id="node5" class="node">
<title>pyVHDLModel.SyntaxModel.BaseExpression</title>
<g id="a_node5"><a xlink:title="A ``BaseExpression`` is a base&#45;class for all expressions.">
<polygon fill="none" stroke="#000000" stroke-width=".5" points="413,-19 182,-19 182,0 413,0 413,-19"/>
<text text-anchor="middle" x="297.5" y="-7" font-family="Vera Sans, DejaVu Sans, Liberation Sans, Arial, Helvetica, sans" font-size="10.00" fill="#000000">pyVHDLModel.SyntaxModel.BaseExpression</text>
</a>
</g>
</g>
<!-- pyVHDLModel.ModelEntity&#45;&gt;pyVHDLModel.SyntaxModel.BaseExpression -->
<g id="edge3" class="edge">
<title>pyVHDLModel.ModelEntity&#45;&gt;pyVHDLModel.SyntaxModel.BaseExpression</title>
<path fill="none" stroke="#000000" stroke-width=".5" d="M146.1991,-9.5C155.9857,-9.5 166.2247,-9.5 176.5627,-9.5"/>
<polygon fill="#000000" stroke="#000000" stroke-width=".5" points="176.6441,-11.2501 181.644,-9.5 176.644,-7.7501 176.6441,-11.2501"/>
</g>
<!-- pyVHDLModel.SyntaxModel.BinaryExpression -->
<g id="node6" class="node">
<title>pyVHDLModel.SyntaxModel.BinaryExpression</title>
<g id="a_node6"><a xlink:title="A ``BinaryExpression`` is a base&#45;class for all binary expressions.">
<polygon fill="none" stroke="#000000" stroke-width=".5" points="688,-19 449,-19 449,0 688,0 688,-19"/>
<text text-anchor="middle" x="568.5" y="-7" font-family="Vera Sans, DejaVu Sans, Liberation Sans, Arial, Helvetica, sans" font-size="10.00" fill="#000000">pyVHDLModel.SyntaxModel.BinaryExpression</text>
</a>
</g>
</g>
<!-- pyVHDLModel.SyntaxModel.BaseExpression&#45;&gt;pyVHDLModel.SyntaxModel.BinaryExpression -->
<g id="edge4" class="edge">
<title>pyVHDLModel.SyntaxModel.BaseExpression&#45;&gt;pyVHDLModel.SyntaxModel.BinaryExpression</title>
<path fill="none" stroke="#000000" stroke-width=".5" d="M413.2145,-9.5C423.3522,-9.5 433.6409,-9.5 443.8471,-9.5"/>
<polygon fill="#000000" stroke="#000000" stroke-width=".5" points="443.8497,-11.2501 448.8497,-9.5 443.8496,-7.7501 443.8497,-11.2501"/>
</g>
<!-- pyVHDLModel.SyntaxModel.LogicalExpression -->
<g id="node7" class="node">
<title>pyVHDLModel.SyntaxModel.LogicalExpression</title>
<g id="a_node7"><a xlink:title="A ``LogicalExpression`` is a base&#45;class for all logical expressions.">
<polygon fill="none" stroke="#000000" stroke-width=".5" points="966,-19 724,-19 724,0 966,0 966,-19"/>
<text text-anchor="middle" x="845" y="-7" font-family="Vera Sans, DejaVu Sans, Liberation Sans, Arial, Helvetica, sans" font-size="10.00" fill="#000000">pyVHDLModel.SyntaxModel.LogicalExpression</text>
</a>
</g>
</g>
<!-- pyVHDLModel.SyntaxModel.BinaryExpression&#45;&gt;pyVHDLModel.SyntaxModel.LogicalExpression -->
<g id="edge5" class="edge">
<title>pyVHDLModel.SyntaxModel.BinaryExpression&#45;&gt;pyVHDLModel.SyntaxModel.LogicalExpression</title>
<path fill="none" stroke="#000000" stroke-width=".5" d="M688.1688,-9.5C698.3284,-9.5 708.6244,-9.5 718.8318,-9.5"/>
<polygon fill="#000000" stroke="#000000" stroke-width=".5" points="718.8347,-11.2501 723.8346,-9.5 718.8346,-7.7501 718.8347,-11.2501"/>
</g>
<!-- pyVHDLModel.SyntaxModel.LogicalExpression&#45;&gt;pyVHDLModel.SyntaxModel.XnorExpression -->
<g id="edge6" class="edge">
<title>pyVHDLModel.SyntaxModel.LogicalExpression&#45;&gt;pyVHDLModel.SyntaxModel.XnorExpression</title>
<path fill="none" stroke="#000000" stroke-width=".5" d="M966.2835,-9.5C976.2964,-9.5 986.417,-9.5 996.4248,-9.5"/>
<polygon fill="#000000" stroke="#000000" stroke-width=".5" points="996.6468,-11.2501 1001.6467,-9.5 996.6467,-7.7501 996.6468,-11.2501"/>
</g>
</g>
</svg>
