<?xml version="1.0" encoding="UTF-8" standalone="no"?>
<!DOCTYPE svg PUBLIC "-//W3C//DTD SVG 1.1//EN"
 "http://www.w3.org/Graphics/SVG/1.1/DTD/svg11.dtd">
<!-- Generated by graphviz version 2.40.1 (20161225.0304)
 -->
<!-- Title: inheritance7fcc0d7335 Pages: 1 -->
<svg width="576pt" height="58pt"
 viewBox="0.00 0.00 576.00 58.24" xmlns="http://www.w3.org/2000/svg" xmlns:xlink="http://www.w3.org/1999/xlink">
<g id="graph0" class="graph" transform="scale(.7102 .7102) rotate(0) translate(4 78)">
<title>inheritance7fcc0d7335</title>
<polygon fill="#ffffff" stroke="transparent" points="-4,4 -4,-78 807,-78 807,4 -4,4"/>
<!-- pyGHDL.dom.DOMMixin -->
<g id="node1" class="node">
<title>pyGHDL.dom.DOMMixin</title>
<g id="a_node1"><a xlink:href="../pyGHDL.dom.html#pyGHDL.dom.DOMMixin" xlink:title="pyGHDL.dom.DOMMixin" target="_top">
<polygon fill="none" stroke="#000000" stroke-width=".5" points="588,-74 454,-74 454,-55 588,-55 588,-74"/>
<text text-anchor="middle" x="521" y="-62" font-family="Vera Sans, DejaVu Sans, Liberation Sans, Arial, Helvetica, sans" font-size="10.00" fill="#000000">pyGHDL.dom.DOMMixin</text>
</a>
</g>
</g>
<!-- pyGHDL.dom.Type.Subtype -->
<g id="node2" class="node">
<title>pyGHDL.dom.Type.Subtype</title>
<g id="a_node2"><a xlink:href="../pyGHDL/pyGHDL.dom.Type.html#pyGHDL.dom.Type.Subtype" xlink:title="pyGHDL.dom.Type.Subtype" target="_top">
<polygon fill="none" stroke="#000000" stroke-width=".5" points="803,-55 654,-55 654,-36 803,-36 803,-55"/>
<text text-anchor="middle" x="728.5" y="-43" font-family="Vera Sans, DejaVu Sans, Liberation Sans, Arial, Helvetica, sans" font-size="10.00" fill="#000000">pyGHDL.dom.Type.Subtype</text>
</a>
</g>
</g>
<!-- pyGHDL.dom.DOMMixin&#45;&gt;pyGHDL.dom.Type.Subtype -->
<g id="edge2" class="edge">
<title>pyGHDL.dom.DOMMixin&#45;&gt;pyGHDL.dom.Type.Subtype</title>
<path fill="none" stroke="#000000" stroke-width=".5" d="M588.0827,-58.3575C607.4033,-56.5884 628.6709,-54.641 648.6821,-52.8086"/>
<polygon fill="#000000" stroke="#000000" stroke-width=".5" points="648.9211,-54.5442 653.7406,-52.3454 648.6019,-51.0587 648.9211,-54.5442"/>
</g>
<!-- pyVHDLModel.SyntaxModel.Subtype -->
<g id="node3" class="node">
<title>pyVHDLModel.SyntaxModel.Subtype</title>
<polygon fill="none" stroke="#000000" stroke-width=".5" points="618,-37 424,-37 424,-18 618,-18 618,-37"/>
<text text-anchor="middle" x="521" y="-25" font-family="Vera Sans, DejaVu Sans, Liberation Sans, Arial, Helvetica, sans" font-size="10.00" fill="#000000">pyVHDLModel.SyntaxModel.Subtype</text>
</g>
<!-- pyVHDLModel.SyntaxModel.Subtype&#45;&gt;pyGHDL.dom.Type.Subtype -->
<g id="edge1" class="edge">
<title>pyVHDLModel.SyntaxModel.Subtype&#45;&gt;pyGHDL.dom.Type.Subtype</title>
<path fill="none" stroke="#000000" stroke-width=".5" d="M618.0671,-35.9203C628.3066,-36.8085 638.6332,-37.7043 648.6459,-38.5729"/>
<polygon fill="#000000" stroke="#000000" stroke-width=".5" points="648.7186,-40.3357 653.8511,-39.0244 649.0211,-36.8488 648.7186,-40.3357"/>
</g>
<!-- pyVHDLModel.ModelEntity -->
<g id="node4" class="node">
<title>pyVHDLModel.ModelEntity</title>
<g id="a_node4"><a xlink:title="``ModelEntity`` is the base class for all classes in the VHDL language model,">
<polygon fill="none" stroke="#000000" stroke-width=".5" points="149,-56 3,-56 3,-37 149,-37 149,-56"/>
<text text-anchor="middle" x="76" y="-44" font-family="Vera Sans, DejaVu Sans, Liberation Sans, Arial, Helvetica, sans" font-size="10.00" fill="#000000">pyVHDLModel.ModelEntity</text>
</a>
</g>
</g>
<!-- pyVHDLModel.SyntaxModel.BaseType -->
<g id="node6" class="node">
<title>pyVHDLModel.SyntaxModel.BaseType</title>
<g id="a_node6"><a xlink:title="``BaseType`` is the base class of all type entities in this model.">
<polygon fill="none" stroke="#000000" stroke-width=".5" points="388,-37 188,-37 188,-18 388,-18 388,-37"/>
<text text-anchor="middle" x="288" y="-25" font-family="Vera Sans, DejaVu Sans, Liberation Sans, Arial, Helvetica, sans" font-size="10.00" fill="#000000">pyVHDLModel.SyntaxModel.BaseType</text>
</a>
</g>
</g>
<!-- pyVHDLModel.ModelEntity&#45;&gt;pyVHDLModel.SyntaxModel.BaseType -->
<g id="edge3" class="edge">
<title>pyVHDLModel.ModelEntity&#45;&gt;pyVHDLModel.SyntaxModel.BaseType</title>
<path fill="none" stroke="#000000" stroke-width=".5" d="M149.2552,-39.9347C160.0491,-38.9673 171.3454,-37.9549 182.632,-36.9434"/>
<polygon fill="#000000" stroke="#000000" stroke-width=".5" points="182.9915,-38.6682 187.8153,-36.4788 182.679,-35.1822 182.9915,-38.6682"/>
</g>
<!-- pyVHDLModel.NamedEntity -->
<g id="node5" class="node">
<title>pyVHDLModel.NamedEntity</title>
<g id="a_node5"><a xlink:title="A ``NamedEntity`` is a mixin class for all VHDL entities that have identifiers.">
<polygon fill="none" stroke="#000000" stroke-width=".5" points="152,-19 0,-19 0,0 152,0 152,-19"/>
<text text-anchor="middle" x="76" y="-7" font-family="Vera Sans, DejaVu Sans, Liberation Sans, Arial, Helvetica, sans" font-size="10.00" fill="#000000">pyVHDLModel.NamedEntity</text>
</a>
</g>
</g>
<!-- pyVHDLModel.NamedEntity&#45;&gt;pyVHDLModel.SyntaxModel.BaseType -->
<g id="edge4" class="edge">
<title>pyVHDLModel.NamedEntity&#45;&gt;pyVHDLModel.SyntaxModel.BaseType</title>
<path fill="none" stroke="#000000" stroke-width=".5" d="M152.2374,-15.973C162.1327,-16.8132 172.4047,-17.6853 182.6683,-18.5567"/>
<polygon fill="#000000" stroke="#000000" stroke-width=".5" points="182.5743,-20.305 187.7045,-18.9843 182.8705,-16.8175 182.5743,-20.305"/>
</g>
<!-- pyVHDLModel.SyntaxModel.BaseType&#45;&gt;pyVHDLModel.SyntaxModel.Subtype -->
<g id="edge5" class="edge">
<title>pyVHDLModel.SyntaxModel.BaseType&#45;&gt;pyVHDLModel.SyntaxModel.Subtype</title>
<path fill="none" stroke="#000000" stroke-width=".5" d="M388.1652,-27.5C398.2484,-27.5 408.4981,-27.5 418.6041,-27.5"/>
<polygon fill="#000000" stroke="#000000" stroke-width=".5" points="418.8742,-29.2501 423.8742,-27.5 418.8742,-25.7501 418.8742,-29.2501"/>
</g>
</g>
</svg>
