<?xml version="1.0" encoding="UTF-8" standalone="no"?>
<!DOCTYPE svg PUBLIC "-//W3C//DTD SVG 1.1//EN"
 "http://www.w3.org/Graphics/SVG/1.1/DTD/svg11.dtd">
<!-- Generated by graphviz version 2.40.1 (20161225.0304)
 -->
<!-- Title: inheritance05d01d594d Pages: 1 -->
<svg width="576pt" height="34pt"
 viewBox="0.00 0.00 576.00 34.25" xmlns="http://www.w3.org/2000/svg" xmlns:xlink="http://www.w3.org/1999/xlink">
<g id="graph0" class="graph" transform="scale(.4177 .4177) rotate(0) translate(4 78)">
<title>inheritance05d01d594d</title>
<polygon fill="#ffffff" stroke="transparent" points="-4,4 -4,-78 1375,-78 1375,4 -4,4"/>
<!-- pyGHDL.dom.DOMMixin -->
<g id="node1" class="node">
<title>pyGHDL.dom.DOMMixin</title>
<g id="a_node1"><a xlink:href="../pyGHDL.dom.html#pyGHDL.dom.DOMMixin" xlink:title="pyGHDL.dom.DOMMixin" target="_top">
<polygon fill="none" stroke="#000000" stroke-width=".5" points="956,-74 822,-74 822,-55 956,-55 956,-74"/>
<text text-anchor="middle" x="889" y="-62" font-family="Vera Sans, DejaVu Sans, Liberation Sans, Arial, Helvetica, sans" font-size="10.00" fill="#000000">pyGHDL.dom.DOMMixin</text>
</a>
</g>
</g>
<!-- pyGHDL.dom.InterfaceItem.GenericFunctionInterfaceItem -->
<g id="node2" class="node">
<title>pyGHDL.dom.InterfaceItem.GenericFunctionInterfaceItem</title>
<g id="a_node2"><a xlink:href="../pyGHDL/pyGHDL.dom.InterfaceItem.html#pyGHDL.dom.InterfaceItem.GenericFunctionInterfaceItem" xlink:title="pyGHDL.dom.InterfaceItem.GenericFunctionInterfaceItem" target="_top">
<polygon fill="none" stroke="#000000" stroke-width=".5" points="1371,-55 1074,-55 1074,-36 1371,-36 1371,-55"/>
<text text-anchor="middle" x="1222.5" y="-43" font-family="Vera Sans, DejaVu Sans, Liberation Sans, Arial, Helvetica, sans" font-size="10.00" fill="#000000">pyGHDL.dom.InterfaceItem.GenericFunctionInterfaceItem</text>
</a>
</g>
</g>
<!-- pyGHDL.dom.DOMMixin&#45;&gt;pyGHDL.dom.InterfaceItem.GenericFunctionInterfaceItem -->
<g id="edge2" class="edge">
<title>pyGHDL.dom.DOMMixin&#45;&gt;pyGHDL.dom.InterfaceItem.GenericFunctionInterfaceItem</title>
<path fill="none" stroke="#000000" stroke-width=".5" d="M956.0875,-60.6779C988.5811,-58.8267 1029.0496,-56.5212 1068.5541,-54.2705"/>
<polygon fill="#000000" stroke="#000000" stroke-width=".5" points="1068.9761,-55.9994 1073.8685,-53.9678 1068.777,-52.5051 1068.9761,-55.9994"/>
</g>
<!-- pyVHDLModel.SyntaxModel.GenericFunctionInterfaceItem -->
<g id="node3" class="node">
<title>pyVHDLModel.SyntaxModel.GenericFunctionInterfaceItem</title>
<polygon fill="none" stroke="#000000" stroke-width=".5" points="1038,-37 740,-37 740,-18 1038,-18 1038,-37"/>
<text text-anchor="middle" x="889" y="-25" font-family="Vera Sans, DejaVu Sans, Liberation Sans, Arial, Helvetica, sans" font-size="10.00" fill="#000000">pyVHDLModel.SyntaxModel.GenericFunctionInterfaceItem</text>
</g>
<!-- pyVHDLModel.SyntaxModel.GenericFunctionInterfaceItem&#45;&gt;pyGHDL.dom.InterfaceItem.GenericFunctionInterfaceItem -->
<g id="edge1" class="edge">
<title>pyVHDLModel.SyntaxModel.GenericFunctionInterfaceItem&#45;&gt;pyGHDL.dom.InterfaceItem.GenericFunctionInterfaceItem</title>
<path fill="none" stroke="#000000" stroke-width=".5" d="M1038.1921,-35.5523C1048.4014,-36.1034 1058.6995,-36.6592 1068.931,-37.2114"/>
<polygon fill="#000000" stroke="#000000" stroke-width=".5" points="1068.8607,-38.9601 1073.9477,-37.4822 1069.0493,-35.4652 1068.8607,-38.9601"/>
</g>
<!-- pyVHDLModel.ModelEntity -->
<g id="node4" class="node">
<title>pyVHDLModel.ModelEntity</title>
<g id="a_node4"><a xlink:title="``ModelEntity`` is the base class for all classes in the VHDL language model,">
<polygon fill="none" stroke="#000000" stroke-width=".5" points="149,-74 3,-74 3,-55 149,-55 149,-74"/>
<text text-anchor="middle" x="76" y="-62" font-family="Vera Sans, DejaVu Sans, Liberation Sans, Arial, Helvetica, sans" font-size="10.00" fill="#000000">pyVHDLModel.ModelEntity</text>
</a>
</g>
</g>
<!-- pyVHDLModel.SyntaxModel.SubProgramm -->
<g id="node7" class="node">
<title>pyVHDLModel.SyntaxModel.SubProgramm</title>
<polygon fill="none" stroke="#000000" stroke-width=".5" points="411,-56 188,-56 188,-37 411,-37 411,-56"/>
<text text-anchor="middle" x="299.5" y="-44" font-family="Vera Sans, DejaVu Sans, Liberation Sans, Arial, Helvetica, sans" font-size="10.00" fill="#000000">pyVHDLModel.SyntaxModel.SubProgramm</text>
</g>
<!-- pyVHDLModel.ModelEntity&#45;&gt;pyVHDLModel.SyntaxModel.SubProgramm -->
<g id="edge7" class="edge">
<title>pyVHDLModel.ModelEntity&#45;&gt;pyVHDLModel.SyntaxModel.SubProgramm</title>
<path fill="none" stroke="#000000" stroke-width=".5" d="M149.1823,-58.6061C159.8911,-57.7437 171.1385,-56.8378 182.4585,-55.9262"/>
<polygon fill="#000000" stroke="#000000" stroke-width=".5" points="182.8197,-57.6528 187.663,-55.507 182.5387,-54.1641 182.8197,-57.6528"/>
</g>
<!-- pyVHDLModel.NamedEntity -->
<g id="node5" class="node">
<title>pyVHDLModel.NamedEntity</title>
<g id="a_node5"><a xlink:title="A ``NamedEntity`` is a mixin class for all VHDL entities that have identifiers.">
<polygon fill="none" stroke="#000000" stroke-width=".5" points="152,-37 0,-37 0,-18 152,-18 152,-37"/>
<text text-anchor="middle" x="76" y="-25" font-family="Vera Sans, DejaVu Sans, Liberation Sans, Arial, Helvetica, sans" font-size="10.00" fill="#000000">pyVHDLModel.NamedEntity</text>
</a>
</g>
</g>
<!-- pyVHDLModel.NamedEntity&#45;&gt;pyVHDLModel.SyntaxModel.SubProgramm -->
<g id="edge8" class="edge">
<title>pyVHDLModel.NamedEntity&#45;&gt;pyVHDLModel.SyntaxModel.SubProgramm</title>
<path fill="none" stroke="#000000" stroke-width=".5" d="M152.2909,-33.9856C162.1803,-34.8263 172.483,-35.7021 182.842,-36.5828"/>
<polygon fill="#000000" stroke="#000000" stroke-width=".5" points="182.8,-38.3354 187.9303,-37.0153 183.0966,-34.848 182.8,-38.3354"/>
</g>
<!-- pyVHDLModel.SyntaxModel.Function -->
<g id="node6" class="node">
<title>pyVHDLModel.SyntaxModel.Function</title>
<polygon fill="none" stroke="#000000" stroke-width=".5" points="672.5,-56 478.5,-56 478.5,-37 672.5,-37 672.5,-56"/>
<text text-anchor="middle" x="575.5" y="-44" font-family="Vera Sans, DejaVu Sans, Liberation Sans, Arial, Helvetica, sans" font-size="10.00" fill="#000000">pyVHDLModel.SyntaxModel.Function</text>
</g>
<!-- pyVHDLModel.SyntaxModel.Function&#45;&gt;pyVHDLModel.SyntaxModel.GenericFunctionInterfaceItem -->
<g id="edge4" class="edge">
<title>pyVHDLModel.SyntaxModel.Function&#45;&gt;pyVHDLModel.SyntaxModel.GenericFunctionInterfaceItem</title>
<path fill="none" stroke="#000000" stroke-width=".5" d="M672.5464,-40.6184C692.2744,-39.4228 713.4858,-38.1372 734.6391,-36.8552"/>
<polygon fill="#000000" stroke="#000000" stroke-width=".5" points="734.8398,-38.5963 739.7247,-36.547 734.628,-35.1028 734.8398,-38.5963"/>
</g>
<!-- pyVHDLModel.SyntaxModel.SubProgramm&#45;&gt;pyVHDLModel.SyntaxModel.Function -->
<g id="edge3" class="edge">
<title>pyVHDLModel.SyntaxModel.SubProgramm&#45;&gt;pyVHDLModel.SyntaxModel.Function</title>
<path fill="none" stroke="#000000" stroke-width=".5" d="M411.3619,-46.5C431.7493,-46.5 452.9267,-46.5 473.0254,-46.5"/>
<polygon fill="#000000" stroke="#000000" stroke-width=".5" points="473.1109,-48.2501 478.1108,-46.5 473.1108,-44.7501 473.1109,-48.2501"/>
</g>
<!-- pyVHDLModel.SyntaxModel.GenericInterfaceItem -->
<g id="node8" class="node">
<title>pyVHDLModel.SyntaxModel.GenericInterfaceItem</title>
<g id="a_node8"><a xlink:title="A ``GenericInterfaceItem`` is a mixin class for all generic interface items.">
<polygon fill="none" stroke="#000000" stroke-width=".5" points="704,-19 447,-19 447,0 704,0 704,-19"/>
<text text-anchor="middle" x="575.5" y="-7" font-family="Vera Sans, DejaVu Sans, Liberation Sans, Arial, Helvetica, sans" font-size="10.00" fill="#000000">pyVHDLModel.SyntaxModel.GenericInterfaceItem</text>
</a>
</g>
</g>
<!-- pyVHDLModel.SyntaxModel.GenericInterfaceItem&#45;&gt;pyVHDLModel.SyntaxModel.GenericFunctionInterfaceItem -->
<g id="edge5" class="edge">
<title>pyVHDLModel.SyntaxModel.GenericInterfaceItem&#45;&gt;pyVHDLModel.SyntaxModel.GenericFunctionInterfaceItem</title>
<path fill="none" stroke="#000000" stroke-width=".5" d="M704.3696,-16.8992C714.4563,-17.4784 724.7022,-18.0666 734.9329,-18.654"/>
<polygon fill="#000000" stroke="#000000" stroke-width=".5" points="734.8611,-20.4027 739.9532,-18.9423 735.0618,-16.9085 734.8611,-20.4027"/>
</g>
<!-- pyVHDLModel.SyntaxModel.InterfaceItem -->
<g id="node9" class="node">
<title>pyVHDLModel.SyntaxModel.InterfaceItem</title>
<g id="a_node9"><a xlink:title="An ``InterfaceItem`` is a base&#45;class for all mixin&#45;classes for all interface">
<polygon fill="none" stroke="#000000" stroke-width=".5" points="409.5,-19 189.5,-19 189.5,0 409.5,0 409.5,-19"/>
<text text-anchor="middle" x="299.5" y="-7" font-family="Vera Sans, DejaVu Sans, Liberation Sans, Arial, Helvetica, sans" font-size="10.00" fill="#000000">pyVHDLModel.SyntaxModel.InterfaceItem</text>
</a>
</g>
</g>
<!-- pyVHDLModel.SyntaxModel.InterfaceItem&#45;&gt;pyVHDLModel.SyntaxModel.GenericInterfaceItem -->
<g id="edge6" class="edge">
<title>pyVHDLModel.SyntaxModel.InterfaceItem&#45;&gt;pyVHDLModel.SyntaxModel.GenericInterfaceItem</title>
<path fill="none" stroke="#000000" stroke-width=".5" d="M409.7724,-9.5C420.2242,-9.5 430.8974,-9.5 441.5385,-9.5"/>
<polygon fill="#000000" stroke="#000000" stroke-width=".5" points="441.7587,-11.2501 446.7587,-9.5 441.7587,-7.7501 441.7587,-11.2501"/>
</g>
</g>
</svg>
