<?xml version="1.0" encoding="UTF-8" standalone="no"?>
<!DOCTYPE svg PUBLIC "-//W3C//DTD SVG 1.1//EN"
 "http://www.w3.org/Graphics/SVG/1.1/DTD/svg11.dtd">
<!-- Generated by graphviz version 2.40.1 (20161225.0304)
 -->
<!-- Title: inheritance2e152bfdd5 Pages: 1 -->
<svg width="576pt" height="23pt"
 viewBox="0.00 0.00 576.00 23.47" xmlns="http://www.w3.org/2000/svg" xmlns:xlink="http://www.w3.org/1999/xlink">
<g id="graph0" class="graph" transform="scale(.3666 .3666) rotate(0) translate(4 60)">
<title>inheritance2e152bfdd5</title>
<polygon fill="#ffffff" stroke="transparent" points="-4,4 -4,-60 1567,-60 1567,4 -4,4"/>
<!-- pyGHDL.dom.DOMMixin -->
<g id="node1" class="node">
<title>pyGHDL.dom.DOMMixin</title>
<g id="a_node1"><a xlink:href="../pyGHDL.dom.html#pyGHDL.dom.DOMMixin" xlink:title="pyGHDL.dom.DOMMixin" target="_top">
<polygon fill="none" stroke="#000000" stroke-width=".5" points="1218,-56 1084,-56 1084,-37 1218,-37 1218,-56"/>
<text text-anchor="middle" x="1151" y="-44" font-family="Vera Sans, DejaVu Sans, Liberation Sans, Arial, Helvetica, sans" font-size="10.00" fill="#000000">pyGHDL.dom.DOMMixin</text>
</a>
</g>
</g>
<!-- pyGHDL.dom.Expression.RemainderExpression -->
<g id="node2" class="node">
<title>pyGHDL.dom.Expression.RemainderExpression</title>
<g id="a_node2"><a xlink:href="../pyGHDL/pyGHDL.dom.Expression.html#pyGHDL.dom.Expression.RemainderExpression" xlink:title="pyGHDL.dom.Expression.RemainderExpression" target="_top">
<polygon fill="none" stroke="#000000" stroke-width=".5" points="1563,-37 1317,-37 1317,-18 1563,-18 1563,-37"/>
<text text-anchor="middle" x="1440" y="-25" font-family="Vera Sans, DejaVu Sans, Liberation Sans, Arial, Helvetica, sans" font-size="10.00" fill="#000000">pyGHDL.dom.Expression.RemainderExpression</text>
</a>
</g>
</g>
<!-- pyGHDL.dom.DOMMixin&#45;&gt;pyGHDL.dom.Expression.RemainderExpression -->
<g id="edge2" class="edge">
<title>pyGHDL.dom.DOMMixin&#45;&gt;pyGHDL.dom.Expression.RemainderExpression</title>
<path fill="none" stroke="#000000" stroke-width=".5" d="M1218.0288,-42.0933C1245.9648,-40.2566 1279.3856,-38.0594 1311.7104,-35.9343"/>
<polygon fill="#000000" stroke="#000000" stroke-width=".5" points="1312.0135,-37.6682 1316.8879,-35.5939 1311.7839,-34.1757 1312.0135,-37.6682"/>
</g>
<!-- pyVHDLModel.SyntaxModel.RemainderExpression -->
<g id="node3" class="node">
<title>pyVHDLModel.SyntaxModel.RemainderExpression</title>
<polygon fill="none" stroke="#000000" stroke-width=".5" points="1281,-19 1021,-19 1021,0 1281,0 1281,-19"/>
<text text-anchor="middle" x="1151" y="-7" font-family="Vera Sans, DejaVu Sans, Liberation Sans, Arial, Helvetica, sans" font-size="10.00" fill="#000000">pyVHDLModel.SyntaxModel.RemainderExpression</text>
</g>
<!-- pyVHDLModel.SyntaxModel.RemainderExpression&#45;&gt;pyGHDL.dom.Expression.RemainderExpression -->
<g id="edge1" class="edge">
<title>pyVHDLModel.SyntaxModel.RemainderExpression&#45;&gt;pyGHDL.dom.Expression.RemainderExpression</title>
<path fill="none" stroke="#000000" stroke-width=".5" d="M1281.1276,-17.6048C1291.2065,-18.2326 1301.3797,-18.8662 1311.4483,-19.4933"/>
<polygon fill="#000000" stroke="#000000" stroke-width=".5" points="1311.6037,-21.2563 1316.7029,-19.8206 1311.8214,-17.7631 1311.6037,-21.2563"/>
</g>
<!-- pyVHDLModel.ModelEntity -->
<g id="node4" class="node">
<title>pyVHDLModel.ModelEntity</title>
<g id="a_node4"><a xlink:title="``ModelEntity`` is the base class for all classes in the VHDL language model,">
<polygon fill="none" stroke="#000000" stroke-width=".5" points="146,-19 0,-19 0,0 146,0 146,-19"/>
<text text-anchor="middle" x="73" y="-7" font-family="Vera Sans, DejaVu Sans, Liberation Sans, Arial, Helvetica, sans" font-size="10.00" fill="#000000">pyVHDLModel.ModelEntity</text>
</a>
</g>
</g>
<!-- pyVHDLModel.SyntaxModel.BaseExpression -->
<g id="node5" class="node">
<title>pyVHDLModel.SyntaxModel.BaseExpression</title>
<g id="a_node5"><a xlink:title="A ``BaseExpression`` is a base&#45;class for all expressions.">
<polygon fill="none" stroke="#000000" stroke-width=".5" points="413,-19 182,-19 182,0 413,0 413,-19"/>
<text text-anchor="middle" x="297.5" y="-7" font-family="Vera Sans, DejaVu Sans, Liberation Sans, Arial, Helvetica, sans" font-size="10.00" fill="#000000">pyVHDLModel.SyntaxModel.BaseExpression</text>
</a>
</g>
</g>
<!-- pyVHDLModel.ModelEntity&#45;&gt;pyVHDLModel.SyntaxModel.BaseExpression -->
<g id="edge3" class="edge">
<title>pyVHDLModel.ModelEntity&#45;&gt;pyVHDLModel.SyntaxModel.BaseExpression</title>
<path fill="none" stroke="#000000" stroke-width=".5" d="M146.1991,-9.5C155.9857,-9.5 166.2247,-9.5 176.5627,-9.5"/>
<polygon fill="#000000" stroke="#000000" stroke-width=".5" points="176.6441,-11.2501 181.644,-9.5 176.644,-7.7501 176.6441,-11.2501"/>
</g>
<!-- pyVHDLModel.SyntaxModel.BinaryExpression -->
<g id="node6" class="node">
<title>pyVHDLModel.SyntaxModel.BinaryExpression</title>
<g id="a_node6"><a xlink:title="A ``BinaryExpression`` is a base&#45;class for all binary expressions.">
<polygon fill="none" stroke="#000000" stroke-width=".5" points="688,-19 449,-19 449,0 688,0 688,-19"/>
<text text-anchor="middle" x="568.5" y="-7" font-family="Vera Sans, DejaVu Sans, Liberation Sans, Arial, Helvetica, sans" font-size="10.00" fill="#000000">pyVHDLModel.SyntaxModel.BinaryExpression</text>
</a>
</g>
</g>
<!-- pyVHDLModel.SyntaxModel.BaseExpression&#45;&gt;pyVHDLModel.SyntaxModel.BinaryExpression -->
<g id="edge4" class="edge">
<title>pyVHDLModel.SyntaxModel.BaseExpression&#45;&gt;pyVHDLModel.SyntaxModel.BinaryExpression</title>
<path fill="none" stroke="#000000" stroke-width=".5" d="M413.2145,-9.5C423.3522,-9.5 433.6409,-9.5 443.8471,-9.5"/>
<polygon fill="#000000" stroke="#000000" stroke-width=".5" points="443.8497,-11.2501 448.8497,-9.5 443.8496,-7.7501 443.8497,-11.2501"/>
</g>
<!-- pyVHDLModel.SyntaxModel.MultiplyingExpression -->
<g id="node7" class="node">
<title>pyVHDLModel.SyntaxModel.MultiplyingExpression</title>
<g id="a_node7"><a xlink:title="A ``MultiplyingExpression`` is a base&#45;class for all multiplying expressions.">
<polygon fill="none" stroke="#000000" stroke-width=".5" points="985,-19 724,-19 724,0 985,0 985,-19"/>
<text text-anchor="middle" x="854.5" y="-7" font-family="Vera Sans, DejaVu Sans, Liberation Sans, Arial, Helvetica, sans" font-size="10.00" fill="#000000">pyVHDLModel.SyntaxModel.MultiplyingExpression</text>
</a>
</g>
</g>
<!-- pyVHDLModel.SyntaxModel.BinaryExpression&#45;&gt;pyVHDLModel.SyntaxModel.MultiplyingExpression -->
<g id="edge5" class="edge">
<title>pyVHDLModel.SyntaxModel.BinaryExpression&#45;&gt;pyVHDLModel.SyntaxModel.MultiplyingExpression</title>
<path fill="none" stroke="#000000" stroke-width=".5" d="M688.1326,-9.5C698.2615,-9.5 708.5511,-9.5 718.7908,-9.5"/>
<polygon fill="#000000" stroke="#000000" stroke-width=".5" points="718.8126,-11.2501 723.8126,-9.5 718.8126,-7.7501 718.8126,-11.2501"/>
</g>
<!-- pyVHDLModel.SyntaxModel.MultiplyingExpression&#45;&gt;pyVHDLModel.SyntaxModel.RemainderExpression -->
<g id="edge6" class="edge">
<title>pyVHDLModel.SyntaxModel.MultiplyingExpression&#45;&gt;pyVHDLModel.SyntaxModel.RemainderExpression</title>
<path fill="none" stroke="#000000" stroke-width=".5" d="M985.4123,-9.5C995.4523,-9.5 1005.5999,-9.5 1015.6674,-9.5"/>
<polygon fill="#000000" stroke="#000000" stroke-width=".5" points="1015.9239,-11.2501 1020.9238,-9.5 1015.9238,-7.7501 1015.9239,-11.2501"/>
</g>
</g>
</svg>
