<?xml version="1.0" encoding="UTF-8" standalone="no"?>
<!DOCTYPE svg PUBLIC "-//W3C//DTD SVG 1.1//EN"
 "http://www.w3.org/Graphics/SVG/1.1/DTD/svg11.dtd">
<!-- Generated by graphviz version 2.40.1 (20161225.0304)
 -->
<!-- Title: inheritancefbb3032652 Pages: 1 -->
<svg width="576pt" height="34pt"
 viewBox="0.00 0.00 576.00 33.94" xmlns="http://www.w3.org/2000/svg" xmlns:xlink="http://www.w3.org/1999/xlink">
<g id="graph0" class="graph" transform="scale(.5304 .5304) rotate(0) translate(4 60)">
<title>inheritancefbb3032652</title>
<polygon fill="#ffffff" stroke="transparent" points="-4,4 -4,-60 1082,-60 1082,4 -4,4"/>
<!-- pyGHDL.dom.DOMMixin -->
<g id="node1" class="node">
<title>pyGHDL.dom.DOMMixin</title>
<g id="a_node1"><a xlink:href="../pyGHDL.dom.html#pyGHDL.dom.DOMMixin" xlink:title="pyGHDL.dom.DOMMixin" target="_top">
<polygon fill="none" stroke="#000000" stroke-width=".5" points="839,-56 705,-56 705,-37 839,-37 839,-56"/>
<text text-anchor="middle" x="772" y="-44" font-family="Vera Sans, DejaVu Sans, Liberation Sans, Arial, Helvetica, sans" font-size="10.00" fill="#000000">pyGHDL.dom.DOMMixin</text>
</a>
</g>
</g>
<!-- pyGHDL.dom.Literal.NullLiteral -->
<g id="node2" class="node">
<title>pyGHDL.dom.Literal.NullLiteral</title>
<g id="a_node2"><a xlink:href="../pyGHDL/pyGHDL.dom.Literal.html#pyGHDL.dom.Literal.NullLiteral" xlink:title="pyGHDL.dom.Literal.NullLiteral" target="_top">
<polygon fill="none" stroke="#000000" stroke-width=".5" points="1078,-37 910,-37 910,-18 1078,-18 1078,-37"/>
<text text-anchor="middle" x="994" y="-25" font-family="Vera Sans, DejaVu Sans, Liberation Sans, Arial, Helvetica, sans" font-size="10.00" fill="#000000">pyGHDL.dom.Literal.NullLiteral</text>
</a>
</g>
</g>
<!-- pyGHDL.dom.DOMMixin&#45;&gt;pyGHDL.dom.Literal.NullLiteral -->
<g id="edge2" class="edge">
<title>pyGHDL.dom.DOMMixin&#45;&gt;pyGHDL.dom.Literal.NullLiteral</title>
<path fill="none" stroke="#000000" stroke-width=".5" d="M839.2098,-40.7478C859.7672,-38.9884 882.7112,-37.0247 904.505,-35.1595"/>
<polygon fill="#000000" stroke="#000000" stroke-width=".5" points="904.8901,-36.883 909.7226,-34.7129 904.5916,-33.3958 904.8901,-36.883"/>
</g>
<!-- pyVHDLModel.SyntaxModel.NullLiteral -->
<g id="node3" class="node">
<title>pyVHDLModel.SyntaxModel.NullLiteral</title>
<polygon fill="none" stroke="#000000" stroke-width=".5" points="874,-19 670,-19 670,0 874,0 874,-19"/>
<text text-anchor="middle" x="772" y="-7" font-family="Vera Sans, DejaVu Sans, Liberation Sans, Arial, Helvetica, sans" font-size="10.00" fill="#000000">pyVHDLModel.SyntaxModel.NullLiteral</text>
</g>
<!-- pyVHDLModel.SyntaxModel.NullLiteral&#45;&gt;pyGHDL.dom.Literal.NullLiteral -->
<g id="edge1" class="edge">
<title>pyVHDLModel.SyntaxModel.NullLiteral&#45;&gt;pyGHDL.dom.Literal.NullLiteral</title>
<path fill="none" stroke="#000000" stroke-width=".5" d="M874.2279,-17.7887C884.403,-18.6138 894.677,-19.4468 904.705,-20.2599"/>
<polygon fill="#000000" stroke="#000000" stroke-width=".5" points="904.7997,-22.0232 909.9248,-20.6831 905.0826,-18.5347 904.7997,-22.0232"/>
</g>
<!-- pyVHDLModel.ModelEntity -->
<g id="node4" class="node">
<title>pyVHDLModel.ModelEntity</title>
<g id="a_node4"><a xlink:title="``ModelEntity`` is the base class for all classes in the VHDL language model,">
<polygon fill="none" stroke="#000000" stroke-width=".5" points="146,-19 0,-19 0,0 146,0 146,-19"/>
<text text-anchor="middle" x="73" y="-7" font-family="Vera Sans, DejaVu Sans, Liberation Sans, Arial, Helvetica, sans" font-size="10.00" fill="#000000">pyVHDLModel.ModelEntity</text>
</a>
</g>
</g>
<!-- pyVHDLModel.SyntaxModel.BaseExpression -->
<g id="node5" class="node">
<title>pyVHDLModel.SyntaxModel.BaseExpression</title>
<g id="a_node5"><a xlink:title="A ``BaseExpression`` is a base&#45;class for all expressions.">
<polygon fill="none" stroke="#000000" stroke-width=".5" points="413,-19 182,-19 182,0 413,0 413,-19"/>
<text text-anchor="middle" x="297.5" y="-7" font-family="Vera Sans, DejaVu Sans, Liberation Sans, Arial, Helvetica, sans" font-size="10.00" fill="#000000">pyVHDLModel.SyntaxModel.BaseExpression</text>
</a>
</g>
</g>
<!-- pyVHDLModel.ModelEntity&#45;&gt;pyVHDLModel.SyntaxModel.BaseExpression -->
<g id="edge3" class="edge">
<title>pyVHDLModel.ModelEntity&#45;&gt;pyVHDLModel.SyntaxModel.BaseExpression</title>
<path fill="none" stroke="#000000" stroke-width=".5" d="M146.1991,-9.5C155.9857,-9.5 166.2247,-9.5 176.5627,-9.5"/>
<polygon fill="#000000" stroke="#000000" stroke-width=".5" points="176.6441,-11.2501 181.644,-9.5 176.644,-7.7501 176.6441,-11.2501"/>
</g>
<!-- pyVHDLModel.SyntaxModel.Literal -->
<g id="node6" class="node">
<title>pyVHDLModel.SyntaxModel.Literal</title>
<g id="a_node6"><a xlink:title="A ``Literal`` is a base&#45;class for all literals.">
<polygon fill="none" stroke="#000000" stroke-width=".5" points="634,-19 449,-19 449,0 634,0 634,-19"/>
<text text-anchor="middle" x="541.5" y="-7" font-family="Vera Sans, DejaVu Sans, Liberation Sans, Arial, Helvetica, sans" font-size="10.00" fill="#000000">pyVHDLModel.SyntaxModel.Literal</text>
</a>
</g>
</g>
<!-- pyVHDLModel.SyntaxModel.BaseExpression&#45;&gt;pyVHDLModel.SyntaxModel.Literal -->
<g id="edge4" class="edge">
<title>pyVHDLModel.SyntaxModel.BaseExpression&#45;&gt;pyVHDLModel.SyntaxModel.Literal</title>
<path fill="none" stroke="#000000" stroke-width=".5" d="M413.0691,-9.5C423.2436,-9.5 433.478,-9.5 443.4881,-9.5"/>
<polygon fill="#000000" stroke="#000000" stroke-width=".5" points="443.7009,-11.2501 448.7008,-9.5 443.7008,-7.7501 443.7009,-11.2501"/>
</g>
<!-- pyVHDLModel.SyntaxModel.Literal&#45;&gt;pyVHDLModel.SyntaxModel.NullLiteral -->
<g id="edge5" class="edge">
<title>pyVHDLModel.SyntaxModel.Literal&#45;&gt;pyVHDLModel.SyntaxModel.NullLiteral</title>
<path fill="none" stroke="#000000" stroke-width=".5" d="M634.2568,-9.5C644.3623,-9.5 654.7079,-9.5 664.9662,-9.5"/>
<polygon fill="#000000" stroke="#000000" stroke-width=".5" points="664.9937,-11.2501 669.9937,-9.5 664.9937,-7.7501 664.9937,-11.2501"/>
</g>
</g>
</svg>
