<?xml version="1.0" encoding="UTF-8" standalone="no"?>
<!DOCTYPE svg PUBLIC "-//W3C//DTD SVG 1.1//EN"
 "http://www.w3.org/Graphics/SVG/1.1/DTD/svg11.dtd">
<!-- Generated by graphviz version 2.40.1 (20161225.0304)
 -->
<!-- Title: inheritance8ff68f51d7 Pages: 1 -->
<svg width="576pt" height="29pt"
 viewBox="0.00 0.00 576.00 29.42" xmlns="http://www.w3.org/2000/svg" xmlns:xlink="http://www.w3.org/1999/xlink">
<g id="graph0" class="graph" transform="scale(.4597 .4597) rotate(0) translate(4 60)">
<title>inheritance8ff68f51d7</title>
<polygon fill="#ffffff" stroke="transparent" points="-4,4 -4,-60 1249,-60 1249,4 -4,4"/>
<!-- pyGHDL.dom.Concurrent.IndexedGenerateChoice -->
<g id="node1" class="node">
<title>pyGHDL.dom.Concurrent.IndexedGenerateChoice</title>
<g id="a_node1"><a xlink:href="../pyGHDL/pyGHDL.dom.Concurrent.html#pyGHDL.dom.Concurrent.IndexedGenerateChoice" xlink:title="pyGHDL.dom.Concurrent.IndexedGenerateChoice" target="_top">
<polygon fill="none" stroke="#000000" stroke-width=".5" points="1245,-37 988,-37 988,-18 1245,-18 1245,-37"/>
<text text-anchor="middle" x="1116.5" y="-25" font-family="Vera Sans, DejaVu Sans, Liberation Sans, Arial, Helvetica, sans" font-size="10.00" fill="#000000">pyGHDL.dom.Concurrent.IndexedGenerateChoice</text>
</a>
</g>
</g>
<!-- pyVHDLModel.SyntaxModel.IndexedGenerateChoice -->
<g id="node2" class="node">
<title>pyVHDLModel.SyntaxModel.IndexedGenerateChoice</title>
<polygon fill="none" stroke="#000000" stroke-width=".5" points="952,-56 681,-56 681,-37 952,-37 952,-56"/>
<text text-anchor="middle" x="816.5" y="-44" font-family="Vera Sans, DejaVu Sans, Liberation Sans, Arial, Helvetica, sans" font-size="10.00" fill="#000000">pyVHDLModel.SyntaxModel.IndexedGenerateChoice</text>
</g>
<!-- pyVHDLModel.SyntaxModel.IndexedGenerateChoice&#45;&gt;pyGHDL.dom.Concurrent.IndexedGenerateChoice -->
<g id="edge1" class="edge">
<title>pyVHDLModel.SyntaxModel.IndexedGenerateChoice&#45;&gt;pyGHDL.dom.Concurrent.IndexedGenerateChoice</title>
<path fill="none" stroke="#000000" stroke-width=".5" d="M952.0181,-37.9172C962.2932,-37.2664 972.6597,-36.6099 982.9224,-35.9599"/>
<polygon fill="#000000" stroke="#000000" stroke-width=".5" points="983.0719,-37.704 987.9513,-35.6414 982.8507,-34.211 983.0719,-37.704"/>
</g>
<!-- pyGHDL.dom.DOMMixin -->
<g id="node3" class="node">
<title>pyGHDL.dom.DOMMixin</title>
<g id="a_node3"><a xlink:href="../pyGHDL.dom.html#pyGHDL.dom.DOMMixin" xlink:title="pyGHDL.dom.DOMMixin" target="_top">
<polygon fill="none" stroke="#000000" stroke-width=".5" points="883.5,-19 749.5,-19 749.5,0 883.5,0 883.5,-19"/>
<text text-anchor="middle" x="816.5" y="-7" font-family="Vera Sans, DejaVu Sans, Liberation Sans, Arial, Helvetica, sans" font-size="10.00" fill="#000000">pyGHDL.dom.DOMMixin</text>
</a>
</g>
</g>
<!-- pyGHDL.dom.DOMMixin&#45;&gt;pyGHDL.dom.Concurrent.IndexedGenerateChoice -->
<g id="edge2" class="edge">
<title>pyGHDL.dom.DOMMixin&#45;&gt;pyGHDL.dom.Concurrent.IndexedGenerateChoice</title>
<path fill="none" stroke="#000000" stroke-width=".5" d="M883.8259,-13.5396C913.1346,-15.2981 948.5674,-17.424 982.8475,-19.4809"/>
<polygon fill="#000000" stroke="#000000" stroke-width=".5" points="982.8002,-21.2311 987.896,-19.7838 983.0098,-17.7373 982.8002,-21.2311"/>
</g>
<!-- pyVHDLModel.ModelEntity -->
<g id="node4" class="node">
<title>pyVHDLModel.ModelEntity</title>
<g id="a_node4"><a xlink:title="``ModelEntity`` is the base class for all classes in the VHDL language model,">
<polygon fill="none" stroke="#000000" stroke-width=".5" points="146,-56 0,-56 0,-37 146,-37 146,-56"/>
<text text-anchor="middle" x="73" y="-44" font-family="Vera Sans, DejaVu Sans, Liberation Sans, Arial, Helvetica, sans" font-size="10.00" fill="#000000">pyVHDLModel.ModelEntity</text>
</a>
</g>
</g>
<!-- pyVHDLModel.SyntaxModel.Choice -->
<g id="node5" class="node">
<title>pyVHDLModel.SyntaxModel.Choice</title>
<g id="a_node5"><a xlink:title="A ``Choice`` is a base&#45;class for all choices.">
<polygon fill="none" stroke="#000000" stroke-width=".5" points="369,-56 182,-56 182,-37 369,-37 369,-56"/>
<text text-anchor="middle" x="275.5" y="-44" font-family="Vera Sans, DejaVu Sans, Liberation Sans, Arial, Helvetica, sans" font-size="10.00" fill="#000000">pyVHDLModel.SyntaxModel.Choice</text>
</a>
</g>
</g>
<!-- pyVHDLModel.ModelEntity&#45;&gt;pyVHDLModel.SyntaxModel.Choice -->
<g id="edge3" class="edge">
<title>pyVHDLModel.ModelEntity&#45;&gt;pyVHDLModel.SyntaxModel.Choice</title>
<path fill="none" stroke="#000000" stroke-width=".5" d="M146.1071,-46.5C156.0376,-46.5 166.3604,-46.5 176.6501,-46.5"/>
<polygon fill="#000000" stroke="#000000" stroke-width=".5" points="176.6969,-48.2501 181.6969,-46.5 176.6968,-44.7501 176.6969,-48.2501"/>
</g>
<!-- pyVHDLModel.SyntaxModel.ConcurrentChoice -->
<g id="node6" class="node">
<title>pyVHDLModel.SyntaxModel.ConcurrentChoice</title>
<g id="a_node6"><a xlink:title="A ``ConcurrentChoice`` is a base&#45;class for all concurrent choices">
<polygon fill="none" stroke="#000000" stroke-width=".5" points="645,-56 405,-56 405,-37 645,-37 645,-56"/>
<text text-anchor="middle" x="525" y="-44" font-family="Vera Sans, DejaVu Sans, Liberation Sans, Arial, Helvetica, sans" font-size="10.00" fill="#000000">pyVHDLModel.SyntaxModel.ConcurrentChoice</text>
</a>
</g>
</g>
<!-- pyVHDLModel.SyntaxModel.Choice&#45;&gt;pyVHDLModel.SyntaxModel.ConcurrentChoice -->
<g id="edge4" class="edge">
<title>pyVHDLModel.SyntaxModel.Choice&#45;&gt;pyVHDLModel.SyntaxModel.ConcurrentChoice</title>
<path fill="none" stroke="#000000" stroke-width=".5" d="M369.1144,-46.5C379.0961,-46.5 389.362,-46.5 399.6333,-46.5"/>
<polygon fill="#000000" stroke="#000000" stroke-width=".5" points="399.6749,-48.2501 404.6749,-46.5 399.6749,-44.7501 399.6749,-48.2501"/>
</g>
<!-- pyVHDLModel.SyntaxModel.ConcurrentChoice&#45;&gt;pyVHDLModel.SyntaxModel.IndexedGenerateChoice -->
<g id="edge5" class="edge">
<title>pyVHDLModel.SyntaxModel.ConcurrentChoice&#45;&gt;pyVHDLModel.SyntaxModel.IndexedGenerateChoice</title>
<path fill="none" stroke="#000000" stroke-width=".5" d="M645.2472,-46.5C655.3553,-46.5 665.6324,-46.5 675.8757,-46.5"/>
<polygon fill="#000000" stroke="#000000" stroke-width=".5" points="675.9007,-48.2501 680.9007,-46.5 675.9006,-44.7501 675.9007,-48.2501"/>
</g>
</g>
</svg>
