<?xml version="1.0" encoding="UTF-8" standalone="no"?>
<!DOCTYPE svg PUBLIC "-//W3C//DTD SVG 1.1//EN"
 "http://www.w3.org/Graphics/SVG/1.1/DTD/svg11.dtd">
<!-- Generated by graphviz version 2.40.1 (20161225.0304)
 -->
<!-- Title: inheritance94e9d1640a Pages: 1 -->
<svg width="576pt" height="53pt"
 viewBox="0.00 0.00 576.00 52.94" xmlns="http://www.w3.org/2000/svg" xmlns:xlink="http://www.w3.org/1999/xlink">
<g id="graph0" class="graph" transform="scale(.5294 .5294) rotate(0) translate(4 96)">
<title>inheritance94e9d1640a</title>
<polygon fill="#ffffff" stroke="transparent" points="-4,4 -4,-96 1084,-96 1084,4 -4,4"/>
<!-- pyGHDL.dom.DOMMixin -->
<g id="node1" class="node">
<title>pyGHDL.dom.DOMMixin</title>
<g id="a_node1"><a xlink:href="../pyGHDL.dom.html#pyGHDL.dom.DOMMixin" xlink:title="pyGHDL.dom.DOMMixin" target="_top">
<polygon fill="none" stroke="#000000" stroke-width=".5" points="804.5,-92 670.5,-92 670.5,-73 804.5,-73 804.5,-92"/>
<text text-anchor="middle" x="737.5" y="-80" font-family="Vera Sans, DejaVu Sans, Liberation Sans, Arial, Helvetica, sans" font-size="10.00" fill="#000000">pyGHDL.dom.DOMMixin</text>
</a>
</g>
</g>
<!-- pyGHDL.dom.DesignUnit.Architecture -->
<g id="node2" class="node">
<title>pyGHDL.dom.DesignUnit.Architecture</title>
<g id="a_node2"><a xlink:href="../pyGHDL/pyGHDL.dom.DesignUnit.html#pyGHDL.dom.DesignUnit.Architecture" xlink:title="pyGHDL.dom.DesignUnit.Architecture" target="_top">
<polygon fill="none" stroke="#000000" stroke-width=".5" points="1080,-73 880,-73 880,-54 1080,-54 1080,-73"/>
<text text-anchor="middle" x="980" y="-61" font-family="Vera Sans, DejaVu Sans, Liberation Sans, Arial, Helvetica, sans" font-size="10.00" fill="#000000">pyGHDL.dom.DesignUnit.Architecture</text>
</a>
</g>
</g>
<!-- pyGHDL.dom.DOMMixin&#45;&gt;pyGHDL.dom.DesignUnit.Architecture -->
<g id="edge2" class="edge">
<title>pyGHDL.dom.DOMMixin&#45;&gt;pyGHDL.dom.DesignUnit.Architecture</title>
<path fill="none" stroke="#000000" stroke-width=".5" d="M804.7277,-77.2327C826.4507,-75.5307 851.0815,-73.6008 874.8697,-71.737"/>
<polygon fill="#000000" stroke="#000000" stroke-width=".5" points="875.0837,-73.4757 879.9317,-71.3404 874.8102,-69.9864 875.0837,-73.4757"/>
</g>
<!-- pyVHDLModel.SyntaxModel.Architecture -->
<g id="node3" class="node">
<title>pyVHDLModel.SyntaxModel.Architecture</title>
<polygon fill="none" stroke="#000000" stroke-width=".5" points="844,-55 631,-55 631,-36 844,-36 844,-55"/>
<text text-anchor="middle" x="737.5" y="-43" font-family="Vera Sans, DejaVu Sans, Liberation Sans, Arial, Helvetica, sans" font-size="10.00" fill="#000000">pyVHDLModel.SyntaxModel.Architecture</text>
</g>
<!-- pyVHDLModel.SyntaxModel.Architecture&#45;&gt;pyGHDL.dom.DesignUnit.Architecture -->
<g id="edge1" class="edge">
<title>pyVHDLModel.SyntaxModel.Architecture&#45;&gt;pyGHDL.dom.DesignUnit.Architecture</title>
<path fill="none" stroke="#000000" stroke-width=".5" d="M844.2169,-53.4213C854.2803,-54.1682 864.4791,-54.9253 874.5308,-55.6714"/>
<polygon fill="#000000" stroke="#000000" stroke-width=".5" points="874.6564,-57.4354 879.7722,-56.0604 874.9155,-53.945 874.6564,-57.4354"/>
</g>
<!-- pyVHDLModel.DesignUnit -->
<g id="node4" class="node">
<title>pyVHDLModel.DesignUnit</title>
<g id="a_node4"><a xlink:title="A ``DesignUnit`` is a base&#45;class for all design units.">
<polygon fill="none" stroke="#000000" stroke-width=".5" points="330,-37 188,-37 188,-18 330,-18 330,-37"/>
<text text-anchor="middle" x="259" y="-25" font-family="Vera Sans, DejaVu Sans, Liberation Sans, Arial, Helvetica, sans" font-size="10.00" fill="#000000">pyVHDLModel.DesignUnit</text>
</a>
</g>
</g>
<!-- pyVHDLModel.SecondaryUnit -->
<g id="node8" class="node">
<title>pyVHDLModel.SecondaryUnit</title>
<g id="a_node8"><a xlink:title="A ``SecondaryUnit`` is a base&#45;class for all secondary units.">
<polygon fill="none" stroke="#000000" stroke-width=".5" points="560,-37 401,-37 401,-18 560,-18 560,-37"/>
<text text-anchor="middle" x="480.5" y="-25" font-family="Vera Sans, DejaVu Sans, Liberation Sans, Arial, Helvetica, sans" font-size="10.00" fill="#000000">pyVHDLModel.SecondaryUnit</text>
</a>
</g>
</g>
<!-- pyVHDLModel.DesignUnit&#45;&gt;pyVHDLModel.SecondaryUnit -->
<g id="edge5" class="edge">
<title>pyVHDLModel.DesignUnit&#45;&gt;pyVHDLModel.SecondaryUnit</title>
<path fill="none" stroke="#000000" stroke-width=".5" d="M330.3032,-27.5C351.1437,-27.5 374.1279,-27.5 395.717,-27.5"/>
<polygon fill="#000000" stroke="#000000" stroke-width=".5" points="395.8806,-29.2501 400.8806,-27.5 395.8805,-25.7501 395.8806,-29.2501"/>
</g>
<!-- pyVHDLModel.ModelEntity -->
<g id="node5" class="node">
<title>pyVHDLModel.ModelEntity</title>
<g id="a_node5"><a xlink:title="``ModelEntity`` is the base class for all classes in the VHDL language model,">
<polygon fill="none" stroke="#000000" stroke-width=".5" points="149,-56 3,-56 3,-37 149,-37 149,-56"/>
<text text-anchor="middle" x="76" y="-44" font-family="Vera Sans, DejaVu Sans, Liberation Sans, Arial, Helvetica, sans" font-size="10.00" fill="#000000">pyVHDLModel.ModelEntity</text>
</a>
</g>
</g>
<!-- pyVHDLModel.ModelEntity&#45;&gt;pyVHDLModel.DesignUnit -->
<g id="edge3" class="edge">
<title>pyVHDLModel.ModelEntity&#45;&gt;pyVHDLModel.DesignUnit</title>
<path fill="none" stroke="#000000" stroke-width=".5" d="M149.1154,-38.9088C160.1661,-37.7614 171.59,-36.5754 182.7058,-35.4213"/>
<polygon fill="#000000" stroke="#000000" stroke-width=".5" points="182.9964,-37.1506 187.789,-34.8935 182.6349,-33.6693 182.9964,-37.1506"/>
</g>
<!-- pyVHDLModel.NamedEntity -->
<g id="node6" class="node">
<title>pyVHDLModel.NamedEntity</title>
<g id="a_node6"><a xlink:title="A ``NamedEntity`` is a mixin class for all VHDL entities that have identifiers.">
<polygon fill="none" stroke="#000000" stroke-width=".5" points="152,-19 0,-19 0,0 152,0 152,-19"/>
<text text-anchor="middle" x="76" y="-7" font-family="Vera Sans, DejaVu Sans, Liberation Sans, Arial, Helvetica, sans" font-size="10.00" fill="#000000">pyVHDLModel.NamedEntity</text>
</a>
</g>
</g>
<!-- pyVHDLModel.NamedEntity&#45;&gt;pyVHDLModel.DesignUnit -->
<g id="edge4" class="edge">
<title>pyVHDLModel.NamedEntity&#45;&gt;pyVHDLModel.DesignUnit</title>
<path fill="none" stroke="#000000" stroke-width=".5" d="M152.0187,-16.9772C162.23,-17.9816 172.7064,-19.0121 182.9189,-20.0166"/>
<polygon fill="#000000" stroke="#000000" stroke-width=".5" points="182.7614,-21.7595 187.9087,-20.5074 183.1041,-18.2763 182.7614,-21.7595"/>
</g>
<!-- pyVHDLModel.MixinDesignUnitWithContext -->
<g id="node7" class="node">
<title>pyVHDLModel.MixinDesignUnitWithContext</title>
<polygon fill="none" stroke="#000000" stroke-width=".5" points="595,-74 366,-74 366,-55 595,-55 595,-74"/>
<text text-anchor="middle" x="480.5" y="-62" font-family="Vera Sans, DejaVu Sans, Liberation Sans, Arial, Helvetica, sans" font-size="10.00" fill="#000000">pyVHDLModel.MixinDesignUnitWithContext</text>
</g>
<!-- pyVHDLModel.MixinDesignUnitWithContext&#45;&gt;pyVHDLModel.SyntaxModel.Architecture -->
<g id="edge7" class="edge">
<title>pyVHDLModel.MixinDesignUnitWithContext&#45;&gt;pyVHDLModel.SyntaxModel.Architecture</title>
<path fill="none" stroke="#000000" stroke-width=".5" d="M595.095,-56.028C605.3328,-55.2711 615.6897,-54.5054 625.9016,-53.7505"/>
<polygon fill="#000000" stroke="#000000" stroke-width=".5" points="626.0446,-55.4948 630.902,-53.3808 625.7865,-52.0043 626.0446,-55.4948"/>
</g>
<!-- pyVHDLModel.SecondaryUnit&#45;&gt;pyVHDLModel.SyntaxModel.Architecture -->
<g id="edge6" class="edge">
<title>pyVHDLModel.SecondaryUnit&#45;&gt;pyVHDLModel.SyntaxModel.Architecture</title>
<path fill="none" stroke="#000000" stroke-width=".5" d="M560.0564,-33.072C580.8885,-34.5311 603.7382,-36.1315 625.905,-37.684"/>
<polygon fill="#000000" stroke="#000000" stroke-width=".5" points="625.8115,-39.4317 630.9216,-38.0354 626.0561,-35.9402 625.8115,-39.4317"/>
</g>
</g>
</svg>
