<?xml version="1.0" encoding="UTF-8" standalone="no"?>
<!DOCTYPE svg PUBLIC "-//W3C//DTD SVG 1.1//EN"
 "http://www.w3.org/Graphics/SVG/1.1/DTD/svg11.dtd">
<!-- Generated by graphviz version 2.40.1 (20161225.0304)
 -->
<!-- Title: inheritance640f5d715c Pages: 1 -->
<svg width="576pt" height="45pt"
 viewBox="0.00 0.00 576.00 45.40" xmlns="http://www.w3.org/2000/svg" xmlns:xlink="http://www.w3.org/1999/xlink">
<g id="graph0" class="graph" transform="scale(.7094 .7094) rotate(0) translate(4 60)">
<title>inheritance640f5d715c</title>
<polygon fill="#ffffff" stroke="transparent" points="-4,4 -4,-60 808,-60 808,4 -4,4"/>
<!-- pyGHDL.dom.DOMMixin -->
<g id="node1" class="node">
<title>pyGHDL.dom.DOMMixin</title>
<g id="a_node1"><a xlink:href="../pyGHDL.dom.html#pyGHDL.dom.DOMMixin" xlink:title="pyGHDL.dom.DOMMixin" target="_top">
<polygon fill="none" stroke="#000000" stroke-width=".5" points="568,-56 434,-56 434,-37 568,-37 568,-56"/>
<text text-anchor="middle" x="501" y="-44" font-family="Vera Sans, DejaVu Sans, Liberation Sans, Arial, Helvetica, sans" font-size="10.00" fill="#000000">pyGHDL.dom.DOMMixin</text>
</a>
</g>
</g>
<!-- pyGHDL.dom.PSL.DefaultClock -->
<g id="node2" class="node">
<title>pyGHDL.dom.PSL.DefaultClock</title>
<g id="a_node2"><a xlink:href="../pyGHDL/pyGHDL.dom.PSL.html#pyGHDL.dom.PSL.DefaultClock" xlink:title="pyGHDL.dom.PSL.DefaultClock" target="_top">
<polygon fill="none" stroke="#000000" stroke-width=".5" points="804,-37 637,-37 637,-18 804,-18 804,-37"/>
<text text-anchor="middle" x="720.5" y="-25" font-family="Vera Sans, DejaVu Sans, Liberation Sans, Arial, Helvetica, sans" font-size="10.00" fill="#000000">pyGHDL.dom.PSL.DefaultClock</text>
</a>
</g>
</g>
<!-- pyGHDL.dom.DOMMixin&#45;&gt;pyGHDL.dom.PSL.DefaultClock -->
<g id="edge2" class="edge">
<title>pyGHDL.dom.DOMMixin&#45;&gt;pyGHDL.dom.PSL.DefaultClock</title>
<path fill="none" stroke="#000000" stroke-width=".5" d="M568.0499,-40.6961C588.1256,-38.9584 610.4595,-37.0251 631.7053,-35.1861"/>
<polygon fill="#000000" stroke="#000000" stroke-width=".5" points="631.962,-36.9205 636.7924,-34.7458 631.6601,-33.4336 631.962,-36.9205"/>
</g>
<!-- pyVHDLModel.PSLModel.DefaultClock -->
<g id="node3" class="node">
<title>pyVHDLModel.PSLModel.DefaultClock</title>
<polygon fill="none" stroke="#000000" stroke-width=".5" points="601,-19 401,-19 401,0 601,0 601,-19"/>
<text text-anchor="middle" x="501" y="-7" font-family="Vera Sans, DejaVu Sans, Liberation Sans, Arial, Helvetica, sans" font-size="10.00" fill="#000000">pyVHDLModel.PSLModel.DefaultClock</text>
</g>
<!-- pyVHDLModel.PSLModel.DefaultClock&#45;&gt;pyGHDL.dom.PSL.DefaultClock -->
<g id="edge1" class="edge">
<title>pyVHDLModel.PSLModel.DefaultClock&#45;&gt;pyGHDL.dom.PSL.DefaultClock</title>
<path fill="none" stroke="#000000" stroke-width=".5" d="M601.115,-17.7099C611.3212,-18.5468 621.6394,-19.393 631.7128,-20.219"/>
<polygon fill="#000000" stroke="#000000" stroke-width=".5" points="631.83,-21.9844 636.9564,-20.649 632.1162,-18.4962 631.83,-21.9844"/>
</g>
<!-- pyVHDLModel.ModelEntity -->
<g id="node4" class="node">
<title>pyVHDLModel.ModelEntity</title>
<g id="a_node4"><a xlink:title="``ModelEntity`` is the base class for all classes in the VHDL language model,">
<polygon fill="none" stroke="#000000" stroke-width=".5" points="146,-19 0,-19 0,0 146,0 146,-19"/>
<text text-anchor="middle" x="73" y="-7" font-family="Vera Sans, DejaVu Sans, Liberation Sans, Arial, Helvetica, sans" font-size="10.00" fill="#000000">pyVHDLModel.ModelEntity</text>
</a>
</g>
</g>
<!-- pyVHDLModel.PSLModel.PSLEntity -->
<g id="node5" class="node">
<title>pyVHDLModel.PSLModel.PSLEntity</title>
<polygon fill="none" stroke="#000000" stroke-width=".5" points="365,-19 182,-19 182,0 365,0 365,-19"/>
<text text-anchor="middle" x="273.5" y="-7" font-family="Vera Sans, DejaVu Sans, Liberation Sans, Arial, Helvetica, sans" font-size="10.00" fill="#000000">pyVHDLModel.PSLModel.PSLEntity</text>
</g>
<!-- pyVHDLModel.ModelEntity&#45;&gt;pyVHDLModel.PSLModel.PSLEntity -->
<g id="edge4" class="edge">
<title>pyVHDLModel.ModelEntity&#45;&gt;pyVHDLModel.PSLModel.PSLEntity</title>
<path fill="none" stroke="#000000" stroke-width=".5" d="M146.2362,-9.5C156.1381,-9.5 166.42,-9.5 176.6545,-9.5"/>
<polygon fill="#000000" stroke="#000000" stroke-width=".5" points="176.6731,-11.2501 181.673,-9.5 176.673,-7.7501 176.6731,-11.2501"/>
</g>
<!-- pyVHDLModel.PSLModel.PSLEntity&#45;&gt;pyVHDLModel.PSLModel.DefaultClock -->
<g id="edge3" class="edge">
<title>pyVHDLModel.PSLModel.PSLEntity&#45;&gt;pyVHDLModel.PSLModel.DefaultClock</title>
<path fill="none" stroke="#000000" stroke-width=".5" d="M365.0496,-9.5C375.1297,-9.5 385.4518,-9.5 395.6824,-9.5"/>
<polygon fill="#000000" stroke="#000000" stroke-width=".5" points="395.696,-11.2501 400.6959,-9.5 395.6959,-7.7501 395.696,-11.2501"/>
</g>
</g>
</svg>
