<?xml version="1.0" encoding="UTF-8" standalone="no"?>
<!DOCTYPE svg PUBLIC "-//W3C//DTD SVG 1.1//EN"
 "http://www.w3.org/Graphics/SVG/1.1/DTD/svg11.dtd">
<!-- Generated by graphviz version 2.40.1 (20161225.0304)
 -->
<!-- Title: inheritance5912f8c52e Pages: 1 -->
<svg width="576pt" height="39pt"
 viewBox="0.00 0.00 576.00 39.47" xmlns="http://www.w3.org/2000/svg" xmlns:xlink="http://www.w3.org/1999/xlink">
<g id="graph0" class="graph" transform="scale(.6167 .6167) rotate(0) translate(4 60)">
<title>inheritance5912f8c52e</title>
<polygon fill="#ffffff" stroke="transparent" points="-4,4 -4,-60 930,-60 930,4 -4,4"/>
<!-- pyGHDL.dom.DOMMixin -->
<g id="node1" class="node">
<title>pyGHDL.dom.DOMMixin</title>
<g id="a_node1"><a xlink:href="../pyGHDL.dom.html#pyGHDL.dom.DOMMixin" xlink:title="pyGHDL.dom.DOMMixin" target="_top">
<polygon fill="none" stroke="#000000" stroke-width=".5" points="608.5,-56 474.5,-56 474.5,-37 608.5,-37 608.5,-56"/>
<text text-anchor="middle" x="541.5" y="-44" font-family="Vera Sans, DejaVu Sans, Liberation Sans, Arial, Helvetica, sans" font-size="10.00" fill="#000000">pyGHDL.dom.DOMMixin</text>
</a>
</g>
</g>
<!-- pyGHDL.dom.DesignUnit.ContextReference -->
<g id="node2" class="node">
<title>pyGHDL.dom.DesignUnit.ContextReference</title>
<g id="a_node2"><a xlink:href="../pyGHDL/pyGHDL.dom.DesignUnit.html#pyGHDL.dom.DesignUnit.ContextReference" xlink:title="pyGHDL.dom.DesignUnit.ContextReference" target="_top">
<polygon fill="none" stroke="#000000" stroke-width=".5" points="926,-37 698,-37 698,-18 926,-18 926,-37"/>
<text text-anchor="middle" x="812" y="-25" font-family="Vera Sans, DejaVu Sans, Liberation Sans, Arial, Helvetica, sans" font-size="10.00" fill="#000000">pyGHDL.dom.DesignUnit.ContextReference</text>
</a>
</g>
</g>
<!-- pyGHDL.dom.DOMMixin&#45;&gt;pyGHDL.dom.DesignUnit.ContextReference -->
<g id="edge2" class="edge">
<title>pyGHDL.dom.DOMMixin&#45;&gt;pyGHDL.dom.DesignUnit.ContextReference</title>
<path fill="none" stroke="#000000" stroke-width=".5" d="M608.7127,-41.779C634.2275,-39.9868 664.1105,-37.8878 692.991,-35.8592"/>
<polygon fill="#000000" stroke="#000000" stroke-width=".5" points="693.1272,-37.6041 697.9923,-35.5079 692.8819,-34.1127 693.1272,-37.6041"/>
</g>
<!-- pyVHDLModel.SyntaxModel.ContextReference -->
<g id="node3" class="node">
<title>pyVHDLModel.SyntaxModel.ContextReference</title>
<polygon fill="none" stroke="#000000" stroke-width=".5" points="662,-19 421,-19 421,0 662,0 662,-19"/>
<text text-anchor="middle" x="541.5" y="-7" font-family="Vera Sans, DejaVu Sans, Liberation Sans, Arial, Helvetica, sans" font-size="10.00" fill="#000000">pyVHDLModel.SyntaxModel.ContextReference</text>
</g>
<!-- pyVHDLModel.SyntaxModel.ContextReference&#45;&gt;pyGHDL.dom.DesignUnit.ContextReference -->
<g id="edge1" class="edge">
<title>pyVHDLModel.SyntaxModel.ContextReference&#45;&gt;pyGHDL.dom.DesignUnit.ContextReference</title>
<path fill="none" stroke="#000000" stroke-width=".5" d="M662.1146,-17.5261C672.1923,-18.1967 682.3797,-18.8746 692.4494,-19.5447"/>
<polygon fill="#000000" stroke="#000000" stroke-width=".5" points="692.5981,-21.3084 697.7033,-19.8943 692.8305,-17.8161 692.5981,-21.3084"/>
</g>
<!-- pyVHDLModel.ModelEntity -->
<g id="node4" class="node">
<title>pyVHDLModel.ModelEntity</title>
<g id="a_node4"><a xlink:title="``ModelEntity`` is the base class for all classes in the VHDL language model,">
<polygon fill="none" stroke="#000000" stroke-width=".5" points="146,-19 0,-19 0,0 146,0 146,-19"/>
<text text-anchor="middle" x="73" y="-7" font-family="Vera Sans, DejaVu Sans, Liberation Sans, Arial, Helvetica, sans" font-size="10.00" fill="#000000">pyVHDLModel.ModelEntity</text>
</a>
</g>
</g>
<!-- pyVHDLModel.SyntaxModel.Reference -->
<g id="node5" class="node">
<title>pyVHDLModel.SyntaxModel.Reference</title>
<polygon fill="none" stroke="#000000" stroke-width=".5" points="385,-19 182,-19 182,0 385,0 385,-19"/>
<text text-anchor="middle" x="283.5" y="-7" font-family="Vera Sans, DejaVu Sans, Liberation Sans, Arial, Helvetica, sans" font-size="10.00" fill="#000000">pyVHDLModel.SyntaxModel.Reference</text>
</g>
<!-- pyVHDLModel.ModelEntity&#45;&gt;pyVHDLModel.SyntaxModel.Reference -->
<g id="edge4" class="edge">
<title>pyVHDLModel.ModelEntity&#45;&gt;pyVHDLModel.SyntaxModel.Reference</title>
<path fill="none" stroke="#000000" stroke-width=".5" d="M146.0319,-9.5C155.9304,-9.5 166.2497,-9.5 176.5903,-9.5"/>
<polygon fill="#000000" stroke="#000000" stroke-width=".5" points="176.6666,-11.2501 181.6666,-9.5 176.6666,-7.7501 176.6666,-11.2501"/>
</g>
<!-- pyVHDLModel.SyntaxModel.Reference&#45;&gt;pyVHDLModel.SyntaxModel.ContextReference -->
<g id="edge3" class="edge">
<title>pyVHDLModel.SyntaxModel.Reference&#45;&gt;pyVHDLModel.SyntaxModel.ContextReference</title>
<path fill="none" stroke="#000000" stroke-width=".5" d="M385.0981,-9.5C395.1562,-9.5 405.4473,-9.5 415.7113,-9.5"/>
<polygon fill="#000000" stroke="#000000" stroke-width=".5" points="415.7467,-11.2501 420.7467,-9.5 415.7467,-7.7501 415.7467,-11.2501"/>
</g>
</g>
</svg>
