<?xml version="1.0" encoding="UTF-8" standalone="no"?>
<!DOCTYPE svg PUBLIC "-//W3C//DTD SVG 1.1//EN"
 "http://www.w3.org/Graphics/SVG/1.1/DTD/svg11.dtd">
<!-- Generated by graphviz version 2.40.1 (20161225.0304)
 -->
<!-- Title: inheritance7ffb5da4b9 Pages: 1 -->
<svg width="576pt" height="53pt"
 viewBox="0.00 0.00 576.00 52.93" xmlns="http://www.w3.org/2000/svg" xmlns:xlink="http://www.w3.org/1999/xlink">
<g id="graph0" class="graph" transform="scale(.4448 .4448) rotate(0) translate(4 115)">
<title>inheritance7ffb5da4b9</title>
<polygon fill="#ffffff" stroke="transparent" points="-4,4 -4,-115 1291,-115 1291,4 -4,4"/>
<!-- pyGHDL.dom.Sequential.ElsifBranch -->
<g id="node1" class="node">
<title>pyGHDL.dom.Sequential.ElsifBranch</title>
<g id="a_node1"><a xlink:href="../pyGHDL/pyGHDL.dom.Sequential.html#pyGHDL.dom.Sequential.ElsifBranch" xlink:title="pyGHDL.dom.Sequential.ElsifBranch" target="_top">
<polygon fill="none" stroke="#000000" stroke-width=".5" points="1287,-55 1093,-55 1093,-36 1287,-36 1287,-55"/>
<text text-anchor="middle" x="1190" y="-43" font-family="Vera Sans, DejaVu Sans, Liberation Sans, Arial, Helvetica, sans" font-size="10.00" fill="#000000">pyGHDL.dom.Sequential.ElsifBranch</text>
</a>
</g>
</g>
<!-- pyVHDLModel.SyntaxModel.ElsifBranch -->
<g id="node2" class="node">
<title>pyVHDLModel.SyntaxModel.ElsifBranch</title>
<polygon fill="none" stroke="#000000" stroke-width=".5" points="1057,-55 848,-55 848,-36 1057,-36 1057,-55"/>
<text text-anchor="middle" x="952.5" y="-43" font-family="Vera Sans, DejaVu Sans, Liberation Sans, Arial, Helvetica, sans" font-size="10.00" fill="#000000">pyVHDLModel.SyntaxModel.ElsifBranch</text>
</g>
<!-- pyVHDLModel.SyntaxModel.ElsifBranch&#45;&gt;pyGHDL.dom.Sequential.ElsifBranch -->
<g id="edge1" class="edge">
<title>pyVHDLModel.SyntaxModel.ElsifBranch&#45;&gt;pyGHDL.dom.Sequential.ElsifBranch</title>
<path fill="none" stroke="#000000" stroke-width=".5" d="M1057.0166,-45.5C1067.2837,-45.5 1077.6948,-45.5 1087.937,-45.5"/>
<polygon fill="#000000" stroke="#000000" stroke-width=".5" points="1087.9501,-47.2501 1092.95,-45.5 1087.95,-43.7501 1087.9501,-47.2501"/>
</g>
<!-- pyVHDLModel.ModelEntity -->
<g id="node3" class="node">
<title>pyVHDLModel.ModelEntity</title>
<g id="a_node3"><a xlink:title="``ModelEntity`` is the base class for all classes in the VHDL language model,">
<polygon fill="none" stroke="#000000" stroke-width=".5" points="479.5,-111 333.5,-111 333.5,-92 479.5,-92 479.5,-111"/>
<text text-anchor="middle" x="406.5" y="-99" font-family="Vera Sans, DejaVu Sans, Liberation Sans, Arial, Helvetica, sans" font-size="10.00" fill="#000000">pyVHDLModel.ModelEntity</text>
</a>
</g>
</g>
<!-- pyVHDLModel.SyntaxModel.Branch -->
<g id="node4" class="node">
<title>pyVHDLModel.SyntaxModel.Branch</title>
<g id="a_node4"><a xlink:title="A ``Branch`` is a base&#45;class for all branches in a if statement.">
<polygon fill="none" stroke="#000000" stroke-width=".5" points="788.5,-74 600.5,-74 600.5,-55 788.5,-55 788.5,-74"/>
<text text-anchor="middle" x="694.5" y="-62" font-family="Vera Sans, DejaVu Sans, Liberation Sans, Arial, Helvetica, sans" font-size="10.00" fill="#000000">pyVHDLModel.SyntaxModel.Branch</text>
</a>
</g>
</g>
<!-- pyVHDLModel.ModelEntity&#45;&gt;pyVHDLModel.SyntaxModel.Branch -->
<g id="edge2" class="edge">
<title>pyVHDLModel.ModelEntity&#45;&gt;pyVHDLModel.SyntaxModel.Branch</title>
<path fill="none" stroke="#000000" stroke-width=".5" d="M479.5469,-92.1155C521.0223,-86.7871 572.9672,-80.1136 615.4028,-74.6618"/>
<polygon fill="#000000" stroke="#000000" stroke-width=".5" points="615.7932,-76.3761 620.5294,-74.0032 615.3471,-72.9046 615.7932,-76.3761"/>
</g>
<!-- pyVHDLModel.SyntaxModel.Branch&#45;&gt;pyVHDLModel.SyntaxModel.ElsifBranch -->
<g id="edge4" class="edge">
<title>pyVHDLModel.SyntaxModel.Branch&#45;&gt;pyVHDLModel.SyntaxModel.ElsifBranch</title>
<path fill="none" stroke="#000000" stroke-width=".5" d="M788.7391,-57.5599C806.2388,-56.2712 824.6609,-54.9145 842.5806,-53.5948"/>
<polygon fill="#000000" stroke="#000000" stroke-width=".5" points="842.7624,-55.3363 847.6204,-53.2237 842.5053,-51.8457 842.7624,-55.3363"/>
</g>
<!-- pyVHDLModel.SyntaxModel.SequentialStatements -->
<g id="node5" class="node">
<title>pyVHDLModel.SyntaxModel.SequentialStatements</title>
<polygon fill="none" stroke="#000000" stroke-width=".5" points="537.5,-74 275.5,-74 275.5,-55 537.5,-55 537.5,-74"/>
<text text-anchor="middle" x="406.5" y="-62" font-family="Vera Sans, DejaVu Sans, Liberation Sans, Arial, Helvetica, sans" font-size="10.00" fill="#000000">pyVHDLModel.SyntaxModel.SequentialStatements</text>
</g>
<!-- pyVHDLModel.SyntaxModel.SequentialStatements&#45;&gt;pyVHDLModel.SyntaxModel.Branch -->
<g id="edge3" class="edge">
<title>pyVHDLModel.SyntaxModel.SequentialStatements&#45;&gt;pyVHDLModel.SyntaxModel.Branch</title>
<path fill="none" stroke="#000000" stroke-width=".5" d="M537.8582,-64.5C557.1141,-64.5 576.6737,-64.5 595.1457,-64.5"/>
<polygon fill="#000000" stroke="#000000" stroke-width=".5" points="595.3258,-66.2501 600.3257,-64.5 595.3257,-62.7501 595.3258,-66.2501"/>
</g>
<!-- pyVHDLModel.SyntaxModel.MixinElsifBranch -->
<g id="node6" class="node">
<title>pyVHDLModel.SyntaxModel.MixinElsifBranch</title>
<g id="a_node6"><a xlink:title="A ``BaseElsifBranch`` is a mixin&#45;class for all elsif&#45;branches.">
<polygon fill="none" stroke="#000000" stroke-width=".5" points="812,-37 577,-37 577,-18 812,-18 812,-37"/>
<text text-anchor="middle" x="694.5" y="-25" font-family="Vera Sans, DejaVu Sans, Liberation Sans, Arial, Helvetica, sans" font-size="10.00" fill="#000000">pyVHDLModel.SyntaxModel.MixinElsifBranch</text>
</a>
</g>
</g>
<!-- pyVHDLModel.SyntaxModel.MixinElsifBranch&#45;&gt;pyVHDLModel.SyntaxModel.ElsifBranch -->
<g id="edge5" class="edge">
<title>pyVHDLModel.SyntaxModel.MixinElsifBranch&#45;&gt;pyVHDLModel.SyntaxModel.ElsifBranch</title>
<path fill="none" stroke="#000000" stroke-width=".5" d="M812.1751,-35.7099C822.2475,-36.4126 832.4126,-37.1218 842.4224,-37.8202"/>
<polygon fill="#000000" stroke="#000000" stroke-width=".5" points="842.5317,-39.582 847.6414,-38.1843 842.7754,-36.0905 842.5317,-39.582"/>
</g>
<!-- pyVHDLModel.SyntaxModel.MixinBranch -->
<g id="node7" class="node">
<title>pyVHDLModel.SyntaxModel.MixinBranch</title>
<g id="a_node7"><a xlink:title="A ``BaseBranch`` is a mixin&#45;class for all statements with branches.">
<polygon fill="none" stroke="#000000" stroke-width=".5" points="225,-56 11,-56 11,-37 225,-37 225,-56"/>
<text text-anchor="middle" x="118" y="-44" font-family="Vera Sans, DejaVu Sans, Liberation Sans, Arial, Helvetica, sans" font-size="10.00" fill="#000000">pyVHDLModel.SyntaxModel.MixinBranch</text>
</a>
</g>
</g>
<!-- pyVHDLModel.SyntaxModel.MixinConditionalBranch -->
<g id="node9" class="node">
<title>pyVHDLModel.SyntaxModel.MixinConditionalBranch</title>
<g id="a_node9"><a xlink:title="A ``BaseBranch`` is a mixin&#45;class for all branch statements with a condition.">
<polygon fill="none" stroke="#000000" stroke-width=".5" points="541,-37 272,-37 272,-18 541,-18 541,-37"/>
<text text-anchor="middle" x="406.5" y="-25" font-family="Vera Sans, DejaVu Sans, Liberation Sans, Arial, Helvetica, sans" font-size="10.00" fill="#000000">pyVHDLModel.SyntaxModel.MixinConditionalBranch</text>
</a>
</g>
</g>
<!-- pyVHDLModel.SyntaxModel.MixinBranch&#45;&gt;pyVHDLModel.SyntaxModel.MixinConditionalBranch -->
<g id="edge6" class="edge">
<title>pyVHDLModel.SyntaxModel.MixinBranch&#45;&gt;pyVHDLModel.SyntaxModel.MixinConditionalBranch</title>
<path fill="none" stroke="#000000" stroke-width=".5" d="M225.0168,-39.4521C238.5847,-38.5585 252.6244,-37.6339 266.6094,-36.7129"/>
<polygon fill="#000000" stroke="#000000" stroke-width=".5" points="266.8842,-38.4487 271.7583,-36.3738 266.6541,-34.9563 266.8842,-38.4487"/>
</g>
<!-- pyVHDLModel.SyntaxModel.MixinConditional -->
<g id="node8" class="node">
<title>pyVHDLModel.SyntaxModel.MixinConditional</title>
<g id="a_node8"><a xlink:title="A ``BaseConditional`` is a mixin&#45;class for all statements with a condition.">
<polygon fill="none" stroke="#000000" stroke-width=".5" points="236,-19 0,-19 0,0 236,0 236,-19"/>
<text text-anchor="middle" x="118" y="-7" font-family="Vera Sans, DejaVu Sans, Liberation Sans, Arial, Helvetica, sans" font-size="10.00" fill="#000000">pyVHDLModel.SyntaxModel.MixinConditional</text>
</a>
</g>
</g>
<!-- pyVHDLModel.SyntaxModel.MixinConditional&#45;&gt;pyVHDLModel.SyntaxModel.MixinConditionalBranch -->
<g id="edge7" class="edge">
<title>pyVHDLModel.SyntaxModel.MixinConditional&#45;&gt;pyVHDLModel.SyntaxModel.MixinConditionalBranch</title>
<path fill="none" stroke="#000000" stroke-width=".5" d="M236.1764,-16.8732C246.2061,-17.499 256.4097,-18.1356 266.5845,-18.7704"/>
<polygon fill="#000000" stroke="#000000" stroke-width=".5" points="266.4769,-20.517 271.5762,-19.0819 266.695,-17.0238 266.4769,-20.517"/>
</g>
<!-- pyVHDLModel.SyntaxModel.MixinConditionalBranch&#45;&gt;pyVHDLModel.SyntaxModel.MixinElsifBranch -->
<g id="edge8" class="edge">
<title>pyVHDLModel.SyntaxModel.MixinConditionalBranch&#45;&gt;pyVHDLModel.SyntaxModel.MixinElsifBranch</title>
<path fill="none" stroke="#000000" stroke-width=".5" d="M541.2245,-27.5C551.3224,-27.5 561.4814,-27.5 571.5018,-27.5"/>
<polygon fill="#000000" stroke="#000000" stroke-width=".5" points="571.7281,-29.2501 576.7281,-27.5 571.7281,-25.7501 571.7281,-29.2501"/>
</g>
</g>
</svg>
