<?xml version="1.0" encoding="UTF-8" standalone="no"?>
<!DOCTYPE svg PUBLIC "-//W3C//DTD SVG 1.1//EN"
 "http://www.w3.org/Graphics/SVG/1.1/DTD/svg11.dtd">
<!-- Generated by graphviz version 2.40.1 (20161225.0304)
 -->
<!-- Title: inheritancebb201c612c Pages: 1 -->
<svg width="576pt" height="20pt"
 viewBox="0.00 0.00 576.00 19.83" xmlns="http://www.w3.org/2000/svg" xmlns:xlink="http://www.w3.org/1999/xlink">
<g id="graph0" class="graph" transform="scale(.3098 .3098) rotate(0) translate(4 60)">
<title>inheritancebb201c612c</title>
<polygon fill="#ffffff" stroke="transparent" points="-4,4 -4,-60 1855,-60 1855,4 -4,4"/>
<!-- pyGHDL.dom.DOMMixin -->
<g id="node1" class="node">
<title>pyGHDL.dom.DOMMixin</title>
<g id="a_node1"><a xlink:href="../pyGHDL.dom.html#pyGHDL.dom.DOMMixin" xlink:title="pyGHDL.dom.DOMMixin" target="_top">
<polygon fill="none" stroke="#000000" stroke-width=".5" points="1485,-56 1351,-56 1351,-37 1485,-37 1485,-56"/>
<text text-anchor="middle" x="1418" y="-44" font-family="Vera Sans, DejaVu Sans, Liberation Sans, Arial, Helvetica, sans" font-size="10.00" fill="#000000">pyGHDL.dom.DOMMixin</text>
</a>
</g>
</g>
<!-- pyGHDL.dom.Expression.ShiftLeftLogicExpression -->
<g id="node2" class="node">
<title>pyGHDL.dom.Expression.ShiftLeftLogicExpression</title>
<g id="a_node2"><a xlink:href="../pyGHDL/pyGHDL.dom.Expression.html#pyGHDL.dom.Expression.ShiftLeftLogicExpression" xlink:title="pyGHDL.dom.Expression.ShiftLeftLogicExpression" target="_top">
<polygon fill="none" stroke="#000000" stroke-width=".5" points="1851,-37 1591,-37 1591,-18 1851,-18 1851,-37"/>
<text text-anchor="middle" x="1721" y="-25" font-family="Vera Sans, DejaVu Sans, Liberation Sans, Arial, Helvetica, sans" font-size="10.00" fill="#000000">pyGHDL.dom.Expression.ShiftLeftLogicExpression</text>
</a>
</g>
</g>
<!-- pyGHDL.dom.DOMMixin&#45;&gt;pyGHDL.dom.Expression.ShiftLeftLogicExpression -->
<g id="edge2" class="edge">
<title>pyGHDL.dom.DOMMixin&#45;&gt;pyGHDL.dom.Expression.ShiftLeftLogicExpression</title>
<path fill="none" stroke="#000000" stroke-width=".5" d="M1485.2455,-42.2833C1514.9079,-40.4233 1550.8885,-38.1671 1585.7132,-35.9833"/>
<polygon fill="#000000" stroke="#000000" stroke-width=".5" points="1585.9613,-37.7213 1590.8419,-35.6617 1585.7422,-34.2282 1585.9613,-37.7213"/>
</g>
<!-- pyVHDLModel.SyntaxModel.ShiftLeftLogicExpression -->
<g id="node3" class="node">
<title>pyVHDLModel.SyntaxModel.ShiftLeftLogicExpression</title>
<polygon fill="none" stroke="#000000" stroke-width=".5" points="1555,-19 1281,-19 1281,0 1555,0 1555,-19"/>
<text text-anchor="middle" x="1418" y="-7" font-family="Vera Sans, DejaVu Sans, Liberation Sans, Arial, Helvetica, sans" font-size="10.00" fill="#000000">pyVHDLModel.SyntaxModel.ShiftLeftLogicExpression</text>
</g>
<!-- pyVHDLModel.SyntaxModel.ShiftLeftLogicExpression&#45;&gt;pyGHDL.dom.Expression.ShiftLeftLogicExpression -->
<g id="edge1" class="edge">
<title>pyVHDLModel.SyntaxModel.ShiftLeftLogicExpression&#45;&gt;pyGHDL.dom.Expression.ShiftLeftLogicExpression</title>
<path fill="none" stroke="#000000" stroke-width=".5" d="M1555.3154,-17.6573C1565.3158,-18.2514 1575.3994,-18.8505 1585.3899,-19.444"/>
<polygon fill="#000000" stroke="#000000" stroke-width=".5" points="1585.5098,-21.2041 1590.6048,-19.7537 1585.7174,-17.7102 1585.5098,-21.2041"/>
</g>
<!-- pyVHDLModel.ModelEntity -->
<g id="node4" class="node">
<title>pyVHDLModel.ModelEntity</title>
<g id="a_node4"><a xlink:title="``ModelEntity`` is the base class for all classes in the VHDL language model,">
<polygon fill="none" stroke="#000000" stroke-width=".5" points="146,-19 0,-19 0,0 146,0 146,-19"/>
<text text-anchor="middle" x="73" y="-7" font-family="Vera Sans, DejaVu Sans, Liberation Sans, Arial, Helvetica, sans" font-size="10.00" fill="#000000">pyVHDLModel.ModelEntity</text>
</a>
</g>
</g>
<!-- pyVHDLModel.SyntaxModel.BaseExpression -->
<g id="node5" class="node">
<title>pyVHDLModel.SyntaxModel.BaseExpression</title>
<g id="a_node5"><a xlink:title="A ``BaseExpression`` is a base&#45;class for all expressions.">
<polygon fill="none" stroke="#000000" stroke-width=".5" points="413,-19 182,-19 182,0 413,0 413,-19"/>
<text text-anchor="middle" x="297.5" y="-7" font-family="Vera Sans, DejaVu Sans, Liberation Sans, Arial, Helvetica, sans" font-size="10.00" fill="#000000">pyVHDLModel.SyntaxModel.BaseExpression</text>
</a>
</g>
</g>
<!-- pyVHDLModel.ModelEntity&#45;&gt;pyVHDLModel.SyntaxModel.BaseExpression -->
<g id="edge3" class="edge">
<title>pyVHDLModel.ModelEntity&#45;&gt;pyVHDLModel.SyntaxModel.BaseExpression</title>
<path fill="none" stroke="#000000" stroke-width=".5" d="M146.1991,-9.5C155.9857,-9.5 166.2247,-9.5 176.5627,-9.5"/>
<polygon fill="#000000" stroke="#000000" stroke-width=".5" points="176.6441,-11.2501 181.644,-9.5 176.644,-7.7501 176.6441,-11.2501"/>
</g>
<!-- pyVHDLModel.SyntaxModel.BinaryExpression -->
<g id="node6" class="node">
<title>pyVHDLModel.SyntaxModel.BinaryExpression</title>
<g id="a_node6"><a xlink:title="A ``BinaryExpression`` is a base&#45;class for all binary expressions.">
<polygon fill="none" stroke="#000000" stroke-width=".5" points="688,-19 449,-19 449,0 688,0 688,-19"/>
<text text-anchor="middle" x="568.5" y="-7" font-family="Vera Sans, DejaVu Sans, Liberation Sans, Arial, Helvetica, sans" font-size="10.00" fill="#000000">pyVHDLModel.SyntaxModel.BinaryExpression</text>
</a>
</g>
</g>
<!-- pyVHDLModel.SyntaxModel.BaseExpression&#45;&gt;pyVHDLModel.SyntaxModel.BinaryExpression -->
<g id="edge4" class="edge">
<title>pyVHDLModel.SyntaxModel.BaseExpression&#45;&gt;pyVHDLModel.SyntaxModel.BinaryExpression</title>
<path fill="none" stroke="#000000" stroke-width=".5" d="M413.2145,-9.5C423.3522,-9.5 433.6409,-9.5 443.8471,-9.5"/>
<polygon fill="#000000" stroke="#000000" stroke-width=".5" points="443.8497,-11.2501 448.8497,-9.5 443.8496,-7.7501 443.8497,-11.2501"/>
</g>
<!-- pyVHDLModel.SyntaxModel.ShiftExpression -->
<g id="node7" class="node">
<title>pyVHDLModel.SyntaxModel.ShiftExpression</title>
<g id="a_node7"><a xlink:title="A ``ShiftExpression`` is a base&#45;class for all shifting expressions.">
<polygon fill="none" stroke="#000000" stroke-width=".5" points="954,-19 724,-19 724,0 954,0 954,-19"/>
<text text-anchor="middle" x="839" y="-7" font-family="Vera Sans, DejaVu Sans, Liberation Sans, Arial, Helvetica, sans" font-size="10.00" fill="#000000">pyVHDLModel.SyntaxModel.ShiftExpression</text>
</a>
</g>
</g>
<!-- pyVHDLModel.SyntaxModel.BinaryExpression&#45;&gt;pyVHDLModel.SyntaxModel.ShiftExpression -->
<g id="edge5" class="edge">
<title>pyVHDLModel.SyntaxModel.BinaryExpression&#45;&gt;pyVHDLModel.SyntaxModel.ShiftExpression</title>
<path fill="none" stroke="#000000" stroke-width=".5" d="M688.3265,-9.5C698.3147,-9.5 708.4166,-9.5 718.4104,-9.5"/>
<polygon fill="#000000" stroke="#000000" stroke-width=".5" points="718.6255,-11.2501 723.6255,-9.5 718.6255,-7.7501 718.6255,-11.2501"/>
</g>
<!-- pyVHDLModel.SyntaxModel.ShiftLogicExpression -->
<g id="node8" class="node">
<title>pyVHDLModel.SyntaxModel.ShiftLogicExpression</title>
<polygon fill="none" stroke="#000000" stroke-width=".5" points="1245,-19 990,-19 990,0 1245,0 1245,-19"/>
<text text-anchor="middle" x="1117.5" y="-7" font-family="Vera Sans, DejaVu Sans, Liberation Sans, Arial, Helvetica, sans" font-size="10.00" fill="#000000">pyVHDLModel.SyntaxModel.ShiftLogicExpression</text>
</g>
<!-- pyVHDLModel.SyntaxModel.ShiftExpression&#45;&gt;pyVHDLModel.SyntaxModel.ShiftLogicExpression -->
<g id="edge7" class="edge">
<title>pyVHDLModel.SyntaxModel.ShiftExpression&#45;&gt;pyVHDLModel.SyntaxModel.ShiftLogicExpression</title>
<path fill="none" stroke="#000000" stroke-width=".5" d="M954.287,-9.5C964.2265,-9.5 974.334,-9.5 984.3986,-9.5"/>
<polygon fill="#000000" stroke="#000000" stroke-width=".5" points="984.6567,-11.2501 989.6567,-9.5 984.6567,-7.7501 984.6567,-11.2501"/>
</g>
<!-- pyVHDLModel.SyntaxModel.ShiftLogicExpression&#45;&gt;pyVHDLModel.SyntaxModel.ShiftLeftLogicExpression -->
<g id="edge6" class="edge">
<title>pyVHDLModel.SyntaxModel.ShiftLogicExpression&#45;&gt;pyVHDLModel.SyntaxModel.ShiftLeftLogicExpression</title>
<path fill="none" stroke="#000000" stroke-width=".5" d="M1245.3748,-9.5C1255.3051,-9.5 1265.3687,-9.5 1275.387,-9.5"/>
<polygon fill="#000000" stroke="#000000" stroke-width=".5" points="1275.6209,-11.2501 1280.6208,-9.5 1275.6208,-7.7501 1275.6209,-11.2501"/>
</g>
</g>
</svg>
