<?xml version="1.0" encoding="UTF-8" standalone="no"?>
<!DOCTYPE svg PUBLIC "-//W3C//DTD SVG 1.1//EN"
 "http://www.w3.org/Graphics/SVG/1.1/DTD/svg11.dtd">
<!-- Generated by graphviz version 2.40.1 (20161225.0304)
 -->
<!-- Title: inheritance3a26df99d1 Pages: 1 -->
<svg width="576pt" height="27pt"
 viewBox="0.00 0.00 576.00 27.08" xmlns="http://www.w3.org/2000/svg" xmlns:xlink="http://www.w3.org/1999/xlink">
<g id="graph0" class="graph" transform="scale(.3303 .3303) rotate(0) translate(4 78)">
<title>inheritance3a26df99d1</title>
<polygon fill="#ffffff" stroke="transparent" points="-4,4 -4,-78 1740,-78 1740,4 -4,4"/>
<!-- pyGHDL.dom.DOMMixin -->
<g id="node1" class="node">
<title>pyGHDL.dom.DOMMixin</title>
<g id="a_node1"><a xlink:href="../pyGHDL.dom.html#pyGHDL.dom.DOMMixin" xlink:title="pyGHDL.dom.DOMMixin" target="_top">
<polygon fill="none" stroke="#000000" stroke-width=".5" points="1291.5,-74 1157.5,-74 1157.5,-55 1291.5,-55 1291.5,-74"/>
<text text-anchor="middle" x="1224.5" y="-62" font-family="Vera Sans, DejaVu Sans, Liberation Sans, Arial, Helvetica, sans" font-size="10.00" fill="#000000">pyGHDL.dom.DOMMixin</text>
</a>
</g>
</g>
<!-- pyGHDL.dom.Sequential.SequentialSimpleSignalAssignment -->
<g id="node2" class="node">
<title>pyGHDL.dom.Sequential.SequentialSimpleSignalAssignment</title>
<g id="a_node2"><a xlink:href="../pyGHDL/pyGHDL.dom.Sequential.html#pyGHDL.dom.Sequential.SequentialSimpleSignalAssignment" xlink:title="pyGHDL.dom.Sequential.SequentialSimpleSignalAssignment" target="_top">
<polygon fill="none" stroke="#000000" stroke-width=".5" points="1736,-55 1424,-55 1424,-36 1736,-36 1736,-55"/>
<text text-anchor="middle" x="1580" y="-43" font-family="Vera Sans, DejaVu Sans, Liberation Sans, Arial, Helvetica, sans" font-size="10.00" fill="#000000">pyGHDL.dom.Sequential.SequentialSimpleSignalAssignment</text>
</a>
</g>
</g>
<!-- pyGHDL.dom.DOMMixin&#45;&gt;pyGHDL.dom.Sequential.SequentialSimpleSignalAssignment -->
<g id="edge2" class="edge">
<title>pyGHDL.dom.DOMMixin&#45;&gt;pyGHDL.dom.Sequential.SequentialSimpleSignalAssignment</title>
<path fill="none" stroke="#000000" stroke-width=".5" d="M1291.7848,-60.9039C1327.8363,-58.9771 1373.9322,-56.5135 1418.6342,-54.1243"/>
<polygon fill="#000000" stroke="#000000" stroke-width=".5" points="1418.8962,-55.8629 1423.7957,-53.8485 1418.7094,-52.3679 1418.8962,-55.8629"/>
</g>
<!-- pyVHDLModel.SyntaxModel.SequentialSimpleSignalAssignment -->
<g id="node3" class="node">
<title>pyVHDLModel.SyntaxModel.SequentialSimpleSignalAssignment</title>
<polygon fill="none" stroke="#000000" stroke-width=".5" points="1388,-37 1061,-37 1061,-18 1388,-18 1388,-37"/>
<text text-anchor="middle" x="1224.5" y="-25" font-family="Vera Sans, DejaVu Sans, Liberation Sans, Arial, Helvetica, sans" font-size="10.00" fill="#000000">pyVHDLModel.SyntaxModel.SequentialSimpleSignalAssignment</text>
</g>
<!-- pyVHDLModel.SyntaxModel.SequentialSimpleSignalAssignment&#45;&gt;pyGHDL.dom.Sequential.SequentialSimpleSignalAssignment -->
<g id="edge1" class="edge">
<title>pyVHDLModel.SyntaxModel.SequentialSimpleSignalAssignment&#45;&gt;pyGHDL.dom.Sequential.SequentialSimpleSignalAssignment</title>
<path fill="none" stroke="#000000" stroke-width=".5" d="M1388.2027,-35.7887C1398.2894,-36.2995 1408.4368,-36.8133 1418.5139,-37.3235"/>
<polygon fill="#000000" stroke="#000000" stroke-width=".5" points="1418.6944,-39.0848 1423.7765,-37.5899 1418.8714,-35.5893 1418.6944,-39.0848"/>
</g>
<!-- pyVHDLModel.LabeledEntity -->
<g id="node4" class="node">
<title>pyVHDLModel.LabeledEntity</title>
<g id="a_node4"><a xlink:title="A ``LabeledEntity`` is a mixin class for all VHDL entities that can have">
<polygon fill="none" stroke="#000000" stroke-width=".5" points="155,-74 0,-74 0,-55 155,-55 155,-74"/>
<text text-anchor="middle" x="77.5" y="-62" font-family="Vera Sans, DejaVu Sans, Liberation Sans, Arial, Helvetica, sans" font-size="10.00" fill="#000000">pyVHDLModel.LabeledEntity</text>
</a>
</g>
</g>
<!-- pyVHDLModel.SyntaxModel.Statement -->
<g id="node10" class="node">
<title>pyVHDLModel.SyntaxModel.Statement</title>
<polygon fill="none" stroke="#000000" stroke-width=".5" points="399.5,-56 194.5,-56 194.5,-37 399.5,-37 399.5,-56"/>
<text text-anchor="middle" x="297" y="-44" font-family="Vera Sans, DejaVu Sans, Liberation Sans, Arial, Helvetica, sans" font-size="10.00" fill="#000000">pyVHDLModel.SyntaxModel.Statement</text>
</g>
<!-- pyVHDLModel.LabeledEntity&#45;&gt;pyVHDLModel.SyntaxModel.Statement -->
<g id="edge9" class="edge">
<title>pyVHDLModel.LabeledEntity&#45;&gt;pyVHDLModel.SyntaxModel.Statement</title>
<path fill="none" stroke="#000000" stroke-width=".5" d="M155.1964,-58.1285C166.212,-57.2252 177.6998,-56.2832 189.1599,-55.3434"/>
<polygon fill="#000000" stroke="#000000" stroke-width=".5" points="189.5813,-57.0648 194.4215,-54.9119 189.2952,-53.5765 189.5813,-57.0648"/>
</g>
<!-- pyVHDLModel.ModelEntity -->
<g id="node5" class="node">
<title>pyVHDLModel.ModelEntity</title>
<g id="a_node5"><a xlink:title="``ModelEntity`` is the base class for all classes in the VHDL language model,">
<polygon fill="none" stroke="#000000" stroke-width=".5" points="150.5,-37 4.5,-37 4.5,-18 150.5,-18 150.5,-37"/>
<text text-anchor="middle" x="77.5" y="-25" font-family="Vera Sans, DejaVu Sans, Liberation Sans, Arial, Helvetica, sans" font-size="10.00" fill="#000000">pyVHDLModel.ModelEntity</text>
</a>
</g>
</g>
<!-- pyVHDLModel.ModelEntity&#45;&gt;pyVHDLModel.SyntaxModel.Statement -->
<g id="edge8" class="edge">
<title>pyVHDLModel.ModelEntity&#45;&gt;pyVHDLModel.SyntaxModel.Statement</title>
<path fill="none" stroke="#000000" stroke-width=".5" d="M150.5903,-33.8267C162.9212,-34.8941 175.9497,-36.0218 188.9465,-37.1468"/>
<polygon fill="#000000" stroke="#000000" stroke-width=".5" points="188.9865,-38.9068 194.1188,-37.5946 189.2884,-35.4198 188.9865,-38.9068"/>
</g>
<!-- pyVHDLModel.SyntaxModel.Assignment -->
<g id="node6" class="node">
<title>pyVHDLModel.SyntaxModel.Assignment</title>
<g id="a_node6"><a xlink:title="An ``Assignment`` is a base&#45;class for all assignment statements.">
<polygon fill="none" stroke="#000000" stroke-width=".5" points="403,-19 191,-19 191,0 403,0 403,-19"/>
<text text-anchor="middle" x="297" y="-7" font-family="Vera Sans, DejaVu Sans, Liberation Sans, Arial, Helvetica, sans" font-size="10.00" fill="#000000">pyVHDLModel.SyntaxModel.Assignment</text>
</a>
</g>
</g>
<!-- pyVHDLModel.SyntaxModel.SignalAssignment -->
<g id="node9" class="node">
<title>pyVHDLModel.SyntaxModel.SignalAssignment</title>
<g id="a_node9"><a xlink:title="An ``SignalAssignment`` is a base&#45;class for all signal assignment statements.">
<polygon fill="none" stroke="#000000" stroke-width=".5" points="688.5,-19 446.5,-19 446.5,0 688.5,0 688.5,-19"/>
<text text-anchor="middle" x="567.5" y="-7" font-family="Vera Sans, DejaVu Sans, Liberation Sans, Arial, Helvetica, sans" font-size="10.00" fill="#000000">pyVHDLModel.SyntaxModel.SignalAssignment</text>
</a>
</g>
</g>
<!-- pyVHDLModel.SyntaxModel.Assignment&#45;&gt;pyVHDLModel.SyntaxModel.SignalAssignment -->
<g id="edge7" class="edge">
<title>pyVHDLModel.SyntaxModel.Assignment&#45;&gt;pyVHDLModel.SyntaxModel.SignalAssignment</title>
<path fill="none" stroke="#000000" stroke-width=".5" d="M403.1324,-9.5C415.6764,-9.5 428.5712,-9.5 441.357,-9.5"/>
<polygon fill="#000000" stroke="#000000" stroke-width=".5" points="441.4419,-11.2501 446.4419,-9.5 441.4418,-7.7501 441.4419,-11.2501"/>
</g>
<!-- pyVHDLModel.SyntaxModel.SequentialSignalAssignment -->
<g id="node7" class="node">
<title>pyVHDLModel.SyntaxModel.SequentialSignalAssignment</title>
<polygon fill="none" stroke="#000000" stroke-width=".5" points="1025,-37 732,-37 732,-18 1025,-18 1025,-37"/>
<text text-anchor="middle" x="878.5" y="-25" font-family="Vera Sans, DejaVu Sans, Liberation Sans, Arial, Helvetica, sans" font-size="10.00" fill="#000000">pyVHDLModel.SyntaxModel.SequentialSignalAssignment</text>
</g>
<!-- pyVHDLModel.SyntaxModel.SequentialSignalAssignment&#45;&gt;pyVHDLModel.SyntaxModel.SequentialSimpleSignalAssignment -->
<g id="edge5" class="edge">
<title>pyVHDLModel.SyntaxModel.SequentialSignalAssignment&#45;&gt;pyVHDLModel.SyntaxModel.SequentialSimpleSignalAssignment</title>
<path fill="none" stroke="#000000" stroke-width=".5" d="M1025.2351,-27.5C1035.3653,-27.5 1045.6184,-27.5 1055.8513,-27.5"/>
<polygon fill="#000000" stroke="#000000" stroke-width=".5" points="1055.8724,-29.2501 1060.8724,-27.5 1055.8723,-25.7501 1055.8724,-29.2501"/>
</g>
<!-- pyVHDLModel.SyntaxModel.SequentialStatement -->
<g id="node8" class="node">
<title>pyVHDLModel.SyntaxModel.SequentialStatement</title>
<g id="a_node8"><a xlink:title="A ``SequentialStatement`` is a base&#45;class for all sequential statements.">
<polygon fill="none" stroke="#000000" stroke-width=".5" points="696,-56 439,-56 439,-37 696,-37 696,-56"/>
<text text-anchor="middle" x="567.5" y="-44" font-family="Vera Sans, DejaVu Sans, Liberation Sans, Arial, Helvetica, sans" font-size="10.00" fill="#000000">pyVHDLModel.SyntaxModel.SequentialStatement</text>
</a>
</g>
</g>
<!-- pyVHDLModel.SyntaxModel.SequentialStatement&#45;&gt;pyVHDLModel.SyntaxModel.SequentialSignalAssignment -->
<g id="edge3" class="edge">
<title>pyVHDLModel.SyntaxModel.SequentialStatement&#45;&gt;pyVHDLModel.SyntaxModel.SequentialSignalAssignment</title>
<path fill="none" stroke="#000000" stroke-width=".5" d="M696.2406,-38.6348C706.3648,-38.0163 716.6451,-37.3882 726.9027,-36.7616"/>
<polygon fill="#000000" stroke="#000000" stroke-width=".5" points="727.0517,-38.5058 731.9357,-36.4541 726.8382,-35.0123 727.0517,-38.5058"/>
</g>
<!-- pyVHDLModel.SyntaxModel.SignalAssignment&#45;&gt;pyVHDLModel.SyntaxModel.SequentialSignalAssignment -->
<g id="edge4" class="edge">
<title>pyVHDLModel.SyntaxModel.SignalAssignment&#45;&gt;pyVHDLModel.SyntaxModel.SequentialSignalAssignment</title>
<path fill="none" stroke="#000000" stroke-width=".5" d="M688.6312,-16.5108C701.1283,-17.2341 713.9371,-17.9755 726.7125,-18.7149"/>
<polygon fill="#000000" stroke="#000000" stroke-width=".5" points="726.7047,-20.4673 731.7975,-19.0092 726.907,-16.9731 726.7047,-20.4673"/>
</g>
<!-- pyVHDLModel.SyntaxModel.Statement&#45;&gt;pyVHDLModel.SyntaxModel.SequentialStatement -->
<g id="edge6" class="edge">
<title>pyVHDLModel.SyntaxModel.Statement&#45;&gt;pyVHDLModel.SyntaxModel.SequentialStatement</title>
<path fill="none" stroke="#000000" stroke-width=".5" d="M399.6502,-46.5C410.7964,-46.5 422.2568,-46.5 433.7034,-46.5"/>
<polygon fill="#000000" stroke="#000000" stroke-width=".5" points="433.9605,-48.2501 438.9604,-46.5 433.9604,-44.7501 433.9605,-48.2501"/>
</g>
</g>
</svg>
