<?xml version="1.0" encoding="UTF-8" standalone="no"?>
<!DOCTYPE svg PUBLIC "-//W3C//DTD SVG 1.1//EN"
 "http://www.w3.org/Graphics/SVG/1.1/DTD/svg11.dtd">
<!-- Generated by graphviz version 2.40.1 (20161225.0304)
 -->
<!-- Title: inheritance99df5465c2 Pages: 1 -->
<svg width="543pt" height="82pt"
 viewBox="0.00 0.00 543.00 82.00" xmlns="http://www.w3.org/2000/svg" xmlns:xlink="http://www.w3.org/1999/xlink">
<g id="graph0" class="graph" transform="scale(1 1) rotate(0) translate(4 78)">
<title>inheritance99df5465c2</title>
<polygon fill="#ffffff" stroke="transparent" points="-4,4 -4,-78 539,-78 539,4 -4,4"/>
<!-- pyGHDL.dom.DOMMixin -->
<g id="node1" class="node">
<title>pyGHDL.dom.DOMMixin</title>
<g id="a_node1"><a xlink:href="../pyGHDL.dom.html#pyGHDL.dom.DOMMixin" xlink:title="pyGHDL.dom.DOMMixin" target="_top">
<polygon fill="none" stroke="#000000" stroke-width=".5" points="344,-74 210,-74 210,-55 344,-55 344,-74"/>
<text text-anchor="middle" x="277" y="-62" font-family="Vera Sans, DejaVu Sans, Liberation Sans, Arial, Helvetica, sans" font-size="10.00" fill="#000000">pyGHDL.dom.DOMMixin</text>
</a>
</g>
</g>
<!-- pyGHDL.dom.Misc.Alias -->
<g id="node2" class="node">
<title>pyGHDL.dom.Misc.Alias</title>
<g id="a_node2"><a xlink:href="../pyGHDL/pyGHDL.dom.Misc.html#pyGHDL.dom.Misc.Alias" xlink:title="pyGHDL.dom.Misc.Alias" target="_top">
<polygon fill="none" stroke="#000000" stroke-width=".5" points="535,-55 402,-55 402,-36 535,-36 535,-55"/>
<text text-anchor="middle" x="468.5" y="-43" font-family="Vera Sans, DejaVu Sans, Liberation Sans, Arial, Helvetica, sans" font-size="10.00" fill="#000000">pyGHDL.dom.Misc.Alias</text>
</a>
</g>
</g>
<!-- pyGHDL.dom.DOMMixin&#45;&gt;pyGHDL.dom.Misc.Alias -->
<g id="edge2" class="edge">
<title>pyGHDL.dom.DOMMixin&#45;&gt;pyGHDL.dom.Misc.Alias</title>
<path fill="none" stroke="#000000" stroke-width=".5" d="M344.2465,-57.828C361.143,-56.1516 379.3424,-54.3459 396.4626,-52.6473"/>
<polygon fill="#000000" stroke="#000000" stroke-width=".5" points="396.9357,-54.3591 401.7384,-52.1239 396.59,-50.8762 396.9357,-54.3591"/>
</g>
<!-- pyVHDLModel.SyntaxModel.Alias -->
<g id="node3" class="node">
<title>pyVHDLModel.SyntaxModel.Alias</title>
<polygon fill="none" stroke="#000000" stroke-width=".5" points="366,-37 188,-37 188,-18 366,-18 366,-37"/>
<text text-anchor="middle" x="277" y="-25" font-family="Vera Sans, DejaVu Sans, Liberation Sans, Arial, Helvetica, sans" font-size="10.00" fill="#000000">pyVHDLModel.SyntaxModel.Alias</text>
</g>
<!-- pyVHDLModel.SyntaxModel.Alias&#45;&gt;pyGHDL.dom.Misc.Alias -->
<g id="edge1" class="edge">
<title>pyVHDLModel.SyntaxModel.Alias&#45;&gt;pyGHDL.dom.Misc.Alias</title>
<path fill="none" stroke="#000000" stroke-width=".5" d="M366.0225,-35.8677C376.2531,-36.8293 386.5866,-37.8006 396.5527,-38.7373"/>
<polygon fill="#000000" stroke="#000000" stroke-width=".5" points="396.5866,-40.4981 401.7284,-39.2238 396.9142,-37.0135 396.5866,-40.4981"/>
</g>
<!-- pyVHDLModel.ModelEntity -->
<g id="node4" class="node">
<title>pyVHDLModel.ModelEntity</title>
<g id="a_node4"><a xlink:title="``ModelEntity`` is the base class for all classes in the VHDL language model,">
<polygon fill="none" stroke="#000000" stroke-width=".5" points="149,-56 3,-56 3,-37 149,-37 149,-56"/>
<text text-anchor="middle" x="76" y="-44" font-family="Vera Sans, DejaVu Sans, Liberation Sans, Arial, Helvetica, sans" font-size="10.00" fill="#000000">pyVHDLModel.ModelEntity</text>
</a>
</g>
</g>
<!-- pyVHDLModel.ModelEntity&#45;&gt;pyVHDLModel.SyntaxModel.Alias -->
<g id="edge3" class="edge">
<title>pyVHDLModel.ModelEntity&#45;&gt;pyVHDLModel.SyntaxModel.Alias</title>
<path fill="none" stroke="#000000" stroke-width=".5" d="M149.1342,-39.5868C160.0363,-38.5563 171.4034,-37.4818 182.6669,-36.4171"/>
<polygon fill="#000000" stroke="#000000" stroke-width=".5" points="183.0195,-38.1416 187.8326,-35.9288 182.6901,-34.6571 183.0195,-38.1416"/>
</g>
<!-- pyVHDLModel.NamedEntity -->
<g id="node5" class="node">
<title>pyVHDLModel.NamedEntity</title>
<g id="a_node5"><a xlink:title="A ``NamedEntity`` is a mixin class for all VHDL entities that have identifiers.">
<polygon fill="none" stroke="#000000" stroke-width=".5" points="152,-19 0,-19 0,0 152,0 152,-19"/>
<text text-anchor="middle" x="76" y="-7" font-family="Vera Sans, DejaVu Sans, Liberation Sans, Arial, Helvetica, sans" font-size="10.00" fill="#000000">pyVHDLModel.NamedEntity</text>
</a>
</g>
</g>
<!-- pyVHDLModel.NamedEntity&#45;&gt;pyVHDLModel.SyntaxModel.Alias -->
<g id="edge4" class="edge">
<title>pyVHDLModel.NamedEntity&#45;&gt;pyVHDLModel.SyntaxModel.Alias</title>
<path fill="none" stroke="#000000" stroke-width=".5" d="M152.2761,-16.3307C162.2973,-17.2281 172.6602,-18.1561 182.9331,-19.0761"/>
<polygon fill="#000000" stroke="#000000" stroke-width=".5" points="182.8308,-20.8239 187.967,-19.5269 183.143,-17.3378 182.8308,-20.8239"/>
</g>
</g>
</svg>
