<?xml version="1.0" encoding="UTF-8" standalone="no"?>
<!DOCTYPE svg PUBLIC "-//W3C//DTD SVG 1.1//EN"
 "http://www.w3.org/Graphics/SVG/1.1/DTD/svg11.dtd">
<!-- Generated by graphviz version 2.40.1 (20161225.0304)
 -->
<!-- Title: inheritancea747b28ffd Pages: 1 -->
<svg width="576pt" height="60pt"
 viewBox="0.00 0.00 576.00 60.40" xmlns="http://www.w3.org/2000/svg" xmlns:xlink="http://www.w3.org/1999/xlink">
<g id="graph0" class="graph" transform="scale(.7366 .7366) rotate(0) translate(4 78)">
<title>inheritancea747b28ffd</title>
<polygon fill="#ffffff" stroke="transparent" points="-4,4 -4,-78 778,-78 778,4 -4,4"/>
<!-- pyGHDL.dom.DOMMixin -->
<g id="node1" class="node">
<title>pyGHDL.dom.DOMMixin</title>
<g id="a_node1"><a xlink:href="../pyGHDL.dom.html#pyGHDL.dom.DOMMixin" xlink:title="pyGHDL.dom.DOMMixin" target="_top">
<polygon fill="none" stroke="#000000" stroke-width=".5" points="585,-74 451,-74 451,-55 585,-55 585,-74"/>
<text text-anchor="middle" x="518" y="-62" font-family="Vera Sans, DejaVu Sans, Liberation Sans, Arial, Helvetica, sans" font-size="10.00" fill="#000000">pyGHDL.dom.DOMMixin</text>
</a>
</g>
</g>
<!-- pyGHDL.dom.Object.File -->
<g id="node2" class="node">
<title>pyGHDL.dom.Object.File</title>
<g id="a_node2"><a xlink:href="../pyGHDL/pyGHDL.dom.Object.html#pyGHDL.dom.Object.File" xlink:title="pyGHDL.dom.Object.File" target="_top">
<polygon fill="none" stroke="#000000" stroke-width=".5" points="774,-55 639,-55 639,-36 774,-36 774,-55"/>
<text text-anchor="middle" x="706.5" y="-43" font-family="Vera Sans, DejaVu Sans, Liberation Sans, Arial, Helvetica, sans" font-size="10.00" fill="#000000">pyGHDL.dom.Object.File</text>
</a>
</g>
</g>
<!-- pyGHDL.dom.DOMMixin&#45;&gt;pyGHDL.dom.Object.File -->
<g id="edge2" class="edge">
<title>pyGHDL.dom.DOMMixin&#45;&gt;pyGHDL.dom.Object.File</title>
<path fill="none" stroke="#000000" stroke-width=".5" d="M585.2545,-57.721C600.9284,-56.1412 617.69,-54.4517 633.5957,-52.8484"/>
<polygon fill="#000000" stroke="#000000" stroke-width=".5" points="634.1549,-54.551 638.9541,-52.3083 633.8038,-51.0687 634.1549,-54.551"/>
</g>
<!-- pyVHDLModel.SyntaxModel.File -->
<g id="node3" class="node">
<title>pyVHDLModel.SyntaxModel.File</title>
<polygon fill="none" stroke="#000000" stroke-width=".5" points="603,-37 433,-37 433,-18 603,-18 603,-37"/>
<text text-anchor="middle" x="518" y="-25" font-family="Vera Sans, DejaVu Sans, Liberation Sans, Arial, Helvetica, sans" font-size="10.00" fill="#000000">pyVHDLModel.SyntaxModel.File</text>
</g>
<!-- pyVHDLModel.SyntaxModel.File&#45;&gt;pyGHDL.dom.Object.File -->
<g id="edge1" class="edge">
<title>pyVHDLModel.SyntaxModel.File&#45;&gt;pyGHDL.dom.Object.File</title>
<path fill="none" stroke="#000000" stroke-width=".5" d="M603.1506,-35.6311C613.3699,-36.6069 623.7332,-37.5965 633.754,-38.5534"/>
<polygon fill="#000000" stroke="#000000" stroke-width=".5" points="633.8166,-40.3173 638.9604,-39.0506 634.1494,-36.8331 633.8166,-40.3173"/>
</g>
<!-- pyVHDLModel.ModelEntity -->
<g id="node4" class="node">
<title>pyVHDLModel.ModelEntity</title>
<g id="a_node4"><a xlink:title="``ModelEntity`` is the base class for all classes in the VHDL language model,">
<polygon fill="none" stroke="#000000" stroke-width=".5" points="168.5,-56 22.5,-56 22.5,-37 168.5,-37 168.5,-56"/>
<text text-anchor="middle" x="95.5" y="-44" font-family="Vera Sans, DejaVu Sans, Liberation Sans, Arial, Helvetica, sans" font-size="10.00" fill="#000000">pyVHDLModel.ModelEntity</text>
</a>
</g>
</g>
<!-- pyVHDLModel.SyntaxModel.Obj -->
<g id="node6" class="node">
<title>pyVHDLModel.SyntaxModel.Obj</title>
<polygon fill="none" stroke="#000000" stroke-width=".5" points="397,-37 227,-37 227,-18 397,-18 397,-37"/>
<text text-anchor="middle" x="312" y="-25" font-family="Vera Sans, DejaVu Sans, Liberation Sans, Arial, Helvetica, sans" font-size="10.00" fill="#000000">pyVHDLModel.SyntaxModel.Obj</text>
</g>
<!-- pyVHDLModel.ModelEntity&#45;&gt;pyVHDLModel.SyntaxModel.Obj -->
<g id="edge4" class="edge">
<title>pyVHDLModel.ModelEntity&#45;&gt;pyVHDLModel.SyntaxModel.Obj</title>
<path fill="none" stroke="#000000" stroke-width=".5" d="M168.797,-40.0675C185.6952,-38.5845 203.8663,-36.9898 221.4022,-35.4508"/>
<polygon fill="#000000" stroke="#000000" stroke-width=".5" points="221.9941,-37.1557 226.8219,-34.9752 221.688,-33.6691 221.9941,-37.1557"/>
</g>
<!-- pyVHDLModel.MultipleNamedEntity -->
<g id="node5" class="node">
<title>pyVHDLModel.MultipleNamedEntity</title>
<g id="a_node5"><a xlink:title="A ``MultipleNamedEntity`` is a mixin class for all VHDL entities that declare">
<polygon fill="none" stroke="#000000" stroke-width=".5" points="191,-19 0,-19 0,0 191,0 191,-19"/>
<text text-anchor="middle" x="95.5" y="-7" font-family="Vera Sans, DejaVu Sans, Liberation Sans, Arial, Helvetica, sans" font-size="10.00" fill="#000000">pyVHDLModel.MultipleNamedEntity</text>
</a>
</g>
</g>
<!-- pyVHDLModel.MultipleNamedEntity&#45;&gt;pyVHDLModel.SyntaxModel.Obj -->
<g id="edge5" class="edge">
<title>pyVHDLModel.MultipleNamedEntity&#45;&gt;pyVHDLModel.SyntaxModel.Obj</title>
<path fill="none" stroke="#000000" stroke-width=".5" d="M191.0903,-17.4475C201.2187,-18.2895 211.4971,-19.1441 221.5641,-19.9811"/>
<polygon fill="#000000" stroke="#000000" stroke-width=".5" points="221.6795,-21.7466 226.8074,-20.417 221.9696,-18.2587 221.6795,-21.7466"/>
</g>
<!-- pyVHDLModel.SyntaxModel.Obj&#45;&gt;pyVHDLModel.SyntaxModel.File -->
<g id="edge3" class="edge">
<title>pyVHDLModel.SyntaxModel.Obj&#45;&gt;pyVHDLModel.SyntaxModel.File</title>
<path fill="none" stroke="#000000" stroke-width=".5" d="M397.2751,-27.5C407.2664,-27.5 417.487,-27.5 427.5457,-27.5"/>
<polygon fill="#000000" stroke="#000000" stroke-width=".5" points="427.7889,-29.2501 432.7889,-27.5 427.7888,-25.7501 427.7889,-29.2501"/>
</g>
</g>
</svg>
