<?xml version="1.0" encoding="UTF-8" standalone="no"?>
<!DOCTYPE svg PUBLIC "-//W3C//DTD SVG 1.1//EN"
 "http://www.w3.org/Graphics/SVG/1.1/DTD/svg11.dtd">
<!-- Generated by graphviz version 2.40.1 (20161225.0304)
 -->
<!-- Title: inheritance99d90d8534 Pages: 1 -->
<svg width="576pt" height="19pt"
 viewBox="0.00 0.00 576.00 18.90" xmlns="http://www.w3.org/2000/svg" xmlns:xlink="http://www.w3.org/1999/xlink">
<g id="graph0" class="graph" transform="scale(.2954 .2954) rotate(0) translate(4 60)">
<title>inheritance99d90d8534</title>
<polygon fill="#ffffff" stroke="transparent" points="-4,4 -4,-60 1946,-60 1946,4 -4,4"/>
<!-- pyGHDL.dom.DOMMixin -->
<g id="node1" class="node">
<title>pyGHDL.dom.DOMMixin</title>
<g id="a_node1"><a xlink:href="../pyGHDL.dom.html#pyGHDL.dom.DOMMixin" xlink:title="pyGHDL.dom.DOMMixin" target="_top">
<polygon fill="none" stroke="#000000" stroke-width=".5" points="1527,-56 1393,-56 1393,-37 1527,-37 1527,-56"/>
<text text-anchor="middle" x="1460" y="-44" font-family="Vera Sans, DejaVu Sans, Liberation Sans, Arial, Helvetica, sans" font-size="10.00" fill="#000000">pyGHDL.dom.DOMMixin</text>
</a>
</g>
</g>
<!-- pyGHDL.dom.Expression.ShiftRightArithmeticExpression -->
<g id="node2" class="node">
<title>pyGHDL.dom.Expression.ShiftRightArithmeticExpression</title>
<g id="a_node2"><a xlink:href="../pyGHDL/pyGHDL.dom.Expression.html#pyGHDL.dom.Expression.ShiftRightArithmeticExpression" xlink:title="pyGHDL.dom.Expression.ShiftRightArithmeticExpression" target="_top">
<polygon fill="none" stroke="#000000" stroke-width=".5" points="1942,-37 1649,-37 1649,-18 1942,-18 1942,-37"/>
<text text-anchor="middle" x="1795.5" y="-25" font-family="Vera Sans, DejaVu Sans, Liberation Sans, Arial, Helvetica, sans" font-size="10.00" fill="#000000">pyGHDL.dom.Expression.ShiftRightArithmeticExpression</text>
</a>
</g>
</g>
<!-- pyGHDL.dom.DOMMixin&#45;&gt;pyGHDL.dom.Expression.ShiftRightArithmeticExpression -->
<g id="edge2" class="edge">
<title>pyGHDL.dom.DOMMixin&#45;&gt;pyGHDL.dom.Expression.ShiftRightArithmeticExpression</title>
<path fill="none" stroke="#000000" stroke-width=".5" d="M1527.0871,-42.7007C1560.5777,-40.8041 1602.5628,-38.4264 1643.3125,-36.1187"/>
<polygon fill="#000000" stroke="#000000" stroke-width=".5" points="1643.8998,-37.8383 1648.7929,-35.8083 1643.7019,-34.3439 1643.8998,-37.8383"/>
</g>
<!-- pyVHDLModel.SyntaxModel.ShiftRightArithmeticExpression -->
<g id="node3" class="node">
<title>pyVHDLModel.SyntaxModel.ShiftRightArithmeticExpression</title>
<polygon fill="none" stroke="#000000" stroke-width=".5" points="1613,-19 1307,-19 1307,0 1613,0 1613,-19"/>
<text text-anchor="middle" x="1460" y="-7" font-family="Vera Sans, DejaVu Sans, Liberation Sans, Arial, Helvetica, sans" font-size="10.00" fill="#000000">pyVHDLModel.SyntaxModel.ShiftRightArithmeticExpression</text>
</g>
<!-- pyVHDLModel.SyntaxModel.ShiftRightArithmeticExpression&#45;&gt;pyGHDL.dom.Expression.ShiftRightArithmeticExpression -->
<g id="edge1" class="edge">
<title>pyVHDLModel.SyntaxModel.ShiftRightArithmeticExpression&#45;&gt;pyGHDL.dom.Expression.ShiftRightArithmeticExpression</title>
<path fill="none" stroke="#000000" stroke-width=".5" d="M1613.0232,-17.7099C1623.271,-18.2597 1633.5927,-18.8135 1643.8336,-19.3629"/>
<polygon fill="#000000" stroke="#000000" stroke-width=".5" points="1643.7672,-21.1118 1648.8539,-19.6322 1643.9548,-17.6168 1643.7672,-21.1118"/>
</g>
<!-- pyVHDLModel.ModelEntity -->
<g id="node4" class="node">
<title>pyVHDLModel.ModelEntity</title>
<g id="a_node4"><a xlink:title="``ModelEntity`` is the base class for all classes in the VHDL language model,">
<polygon fill="none" stroke="#000000" stroke-width=".5" points="146,-19 0,-19 0,0 146,0 146,-19"/>
<text text-anchor="middle" x="73" y="-7" font-family="Vera Sans, DejaVu Sans, Liberation Sans, Arial, Helvetica, sans" font-size="10.00" fill="#000000">pyVHDLModel.ModelEntity</text>
</a>
</g>
</g>
<!-- pyVHDLModel.SyntaxModel.BaseExpression -->
<g id="node5" class="node">
<title>pyVHDLModel.SyntaxModel.BaseExpression</title>
<g id="a_node5"><a xlink:title="A ``BaseExpression`` is a base&#45;class for all expressions.">
<polygon fill="none" stroke="#000000" stroke-width=".5" points="413,-19 182,-19 182,0 413,0 413,-19"/>
<text text-anchor="middle" x="297.5" y="-7" font-family="Vera Sans, DejaVu Sans, Liberation Sans, Arial, Helvetica, sans" font-size="10.00" fill="#000000">pyVHDLModel.SyntaxModel.BaseExpression</text>
</a>
</g>
</g>
<!-- pyVHDLModel.ModelEntity&#45;&gt;pyVHDLModel.SyntaxModel.BaseExpression -->
<g id="edge3" class="edge">
<title>pyVHDLModel.ModelEntity&#45;&gt;pyVHDLModel.SyntaxModel.BaseExpression</title>
<path fill="none" stroke="#000000" stroke-width=".5" d="M146.1991,-9.5C155.9857,-9.5 166.2247,-9.5 176.5627,-9.5"/>
<polygon fill="#000000" stroke="#000000" stroke-width=".5" points="176.6441,-11.2501 181.644,-9.5 176.644,-7.7501 176.6441,-11.2501"/>
</g>
<!-- pyVHDLModel.SyntaxModel.BinaryExpression -->
<g id="node6" class="node">
<title>pyVHDLModel.SyntaxModel.BinaryExpression</title>
<g id="a_node6"><a xlink:title="A ``BinaryExpression`` is a base&#45;class for all binary expressions.">
<polygon fill="none" stroke="#000000" stroke-width=".5" points="688,-19 449,-19 449,0 688,0 688,-19"/>
<text text-anchor="middle" x="568.5" y="-7" font-family="Vera Sans, DejaVu Sans, Liberation Sans, Arial, Helvetica, sans" font-size="10.00" fill="#000000">pyVHDLModel.SyntaxModel.BinaryExpression</text>
</a>
</g>
</g>
<!-- pyVHDLModel.SyntaxModel.BaseExpression&#45;&gt;pyVHDLModel.SyntaxModel.BinaryExpression -->
<g id="edge4" class="edge">
<title>pyVHDLModel.SyntaxModel.BaseExpression&#45;&gt;pyVHDLModel.SyntaxModel.BinaryExpression</title>
<path fill="none" stroke="#000000" stroke-width=".5" d="M413.2145,-9.5C423.3522,-9.5 433.6409,-9.5 443.8471,-9.5"/>
<polygon fill="#000000" stroke="#000000" stroke-width=".5" points="443.8497,-11.2501 448.8497,-9.5 443.8496,-7.7501 443.8497,-11.2501"/>
</g>
<!-- pyVHDLModel.SyntaxModel.ShiftExpression -->
<g id="node8" class="node">
<title>pyVHDLModel.SyntaxModel.ShiftExpression</title>
<g id="a_node8"><a xlink:title="A ``ShiftExpression`` is a base&#45;class for all shifting expressions.">
<polygon fill="none" stroke="#000000" stroke-width=".5" points="954,-19 724,-19 724,0 954,0 954,-19"/>
<text text-anchor="middle" x="839" y="-7" font-family="Vera Sans, DejaVu Sans, Liberation Sans, Arial, Helvetica, sans" font-size="10.00" fill="#000000">pyVHDLModel.SyntaxModel.ShiftExpression</text>
</a>
</g>
</g>
<!-- pyVHDLModel.SyntaxModel.BinaryExpression&#45;&gt;pyVHDLModel.SyntaxModel.ShiftExpression -->
<g id="edge6" class="edge">
<title>pyVHDLModel.SyntaxModel.BinaryExpression&#45;&gt;pyVHDLModel.SyntaxModel.ShiftExpression</title>
<path fill="none" stroke="#000000" stroke-width=".5" d="M688.3265,-9.5C698.3147,-9.5 708.4166,-9.5 718.4104,-9.5"/>
<polygon fill="#000000" stroke="#000000" stroke-width=".5" points="718.6255,-11.2501 723.6255,-9.5 718.6255,-7.7501 718.6255,-11.2501"/>
</g>
<!-- pyVHDLModel.SyntaxModel.ShiftArithmeticExpression -->
<g id="node7" class="node">
<title>pyVHDLModel.SyntaxModel.ShiftArithmeticExpression</title>
<polygon fill="none" stroke="#000000" stroke-width=".5" points="1271,-19 990,-19 990,0 1271,0 1271,-19"/>
<text text-anchor="middle" x="1130.5" y="-7" font-family="Vera Sans, DejaVu Sans, Liberation Sans, Arial, Helvetica, sans" font-size="10.00" fill="#000000">pyVHDLModel.SyntaxModel.ShiftArithmeticExpression</text>
</g>
<!-- pyVHDLModel.SyntaxModel.ShiftArithmeticExpression&#45;&gt;pyVHDLModel.SyntaxModel.ShiftRightArithmeticExpression -->
<g id="edge7" class="edge">
<title>pyVHDLModel.SyntaxModel.ShiftArithmeticExpression&#45;&gt;pyVHDLModel.SyntaxModel.ShiftRightArithmeticExpression</title>
<path fill="none" stroke="#000000" stroke-width=".5" d="M1271.1934,-9.5C1281.3399,-9.5 1291.6108,-9.5 1301.8477,-9.5"/>
<polygon fill="#000000" stroke="#000000" stroke-width=".5" points="1301.8697,-11.2501 1306.8697,-9.5 1301.8697,-7.7501 1301.8697,-11.2501"/>
</g>
<!-- pyVHDLModel.SyntaxModel.ShiftExpression&#45;&gt;pyVHDLModel.SyntaxModel.ShiftArithmeticExpression -->
<g id="edge5" class="edge">
<title>pyVHDLModel.SyntaxModel.ShiftExpression&#45;&gt;pyVHDLModel.SyntaxModel.ShiftArithmeticExpression</title>
<path fill="none" stroke="#000000" stroke-width=".5" d="M954.2085,-9.5C964.1013,-9.5 974.1905,-9.5 984.2828,-9.5"/>
<polygon fill="#000000" stroke="#000000" stroke-width=".5" points="984.5597,-11.2501 989.5597,-9.5 984.5596,-7.7501 984.5597,-11.2501"/>
</g>
</g>
</svg>
