<?xml version="1.0" encoding="UTF-8" standalone="no"?>
<!DOCTYPE svg PUBLIC "-//W3C//DTD SVG 1.1//EN"
 "http://www.w3.org/Graphics/SVG/1.1/DTD/svg11.dtd">
<!-- Generated by graphviz version 2.40.1 (20161225.0304)
 -->
<!-- Title: inheritance9965419403 Pages: 1 -->
<svg width="576pt" height="54pt"
 viewBox="0.00 0.00 576.00 53.97" xmlns="http://www.w3.org/2000/svg" xmlns:xlink="http://www.w3.org/1999/xlink">
<g id="graph0" class="graph" transform="scale(.8433 .8433) rotate(0) translate(4 60)">
<title>inheritance9965419403</title>
<polygon fill="#ffffff" stroke="transparent" points="-4,4 -4,-60 679,-60 679,4 -4,4"/>
<!-- pyGHDL.dom.DOMMixin -->
<g id="node1" class="node">
<title>pyGHDL.dom.DOMMixin</title>
<g id="a_node1"><a xlink:href="../pyGHDL.dom.html#pyGHDL.dom.DOMMixin" xlink:title="pyGHDL.dom.DOMMixin" target="_top">
<polygon fill="none" stroke="#000000" stroke-width=".5" points="399,-56 265,-56 265,-37 399,-37 399,-56"/>
<text text-anchor="middle" x="332" y="-44" font-family="Vera Sans, DejaVu Sans, Liberation Sans, Arial, Helvetica, sans" font-size="10.00" fill="#000000">pyGHDL.dom.DOMMixin</text>
</a>
</g>
</g>
<!-- pyGHDL.dom.Names.AttributeName -->
<g id="node2" class="node">
<title>pyGHDL.dom.Names.AttributeName</title>
<g id="a_node2"><a xlink:href="../pyGHDL/pyGHDL.dom.Names.html#pyGHDL.dom.Names.AttributeName" xlink:title="pyGHDL.dom.Names.AttributeName" target="_top">
<polygon fill="none" stroke="#000000" stroke-width=".5" points="675,-37 481,-37 481,-18 675,-18 675,-37"/>
<text text-anchor="middle" x="578" y="-25" font-family="Vera Sans, DejaVu Sans, Liberation Sans, Arial, Helvetica, sans" font-size="10.00" fill="#000000">pyGHDL.dom.Names.AttributeName</text>
</a>
</g>
</g>
<!-- pyGHDL.dom.DOMMixin&#45;&gt;pyGHDL.dom.Names.AttributeName -->
<g id="edge2" class="edge">
<title>pyGHDL.dom.DOMMixin&#45;&gt;pyGHDL.dom.Names.AttributeName</title>
<path fill="none" stroke="#000000" stroke-width=".5" d="M399.2206,-41.3082C422.8265,-39.4849 449.91,-37.3931 475.7373,-35.3983"/>
<polygon fill="#000000" stroke="#000000" stroke-width=".5" points="476.0343,-37.1307 480.8847,-35.0008 475.7647,-33.6411 476.0343,-37.1307"/>
</g>
<!-- pyVHDLModel.SyntaxModel.AttributeName -->
<g id="node3" class="node">
<title>pyVHDLModel.SyntaxModel.AttributeName</title>
<polygon fill="none" stroke="#000000" stroke-width=".5" points="445,-19 219,-19 219,0 445,0 445,-19"/>
<text text-anchor="middle" x="332" y="-7" font-family="Vera Sans, DejaVu Sans, Liberation Sans, Arial, Helvetica, sans" font-size="10.00" fill="#000000">pyVHDLModel.SyntaxModel.AttributeName</text>
</g>
<!-- pyVHDLModel.SyntaxModel.AttributeName&#45;&gt;pyGHDL.dom.Names.AttributeName -->
<g id="edge1" class="edge">
<title>pyVHDLModel.SyntaxModel.AttributeName&#45;&gt;pyGHDL.dom.Names.AttributeName</title>
<path fill="none" stroke="#000000" stroke-width=".5" d="M445.2795,-17.7887C455.3734,-18.5273 465.5552,-19.2723 475.5506,-20.0037"/>
<polygon fill="#000000" stroke="#000000" stroke-width=".5" points="475.6447,-21.7652 480.7591,-20.3848 475.9002,-18.2745 475.6447,-21.7652"/>
</g>
<!-- pyVHDLModel.SyntaxModel.Name -->
<g id="node4" class="node">
<title>pyVHDLModel.SyntaxModel.Name</title>
<g id="a_node4"><a xlink:title="``Name`` is the base class for all *names* in the VHDL language model.">
<polygon fill="none" stroke="#000000" stroke-width=".5" points="183,-19 0,-19 0,0 183,0 183,-19"/>
<text text-anchor="middle" x="91.5" y="-7" font-family="Vera Sans, DejaVu Sans, Liberation Sans, Arial, Helvetica, sans" font-size="10.00" fill="#000000">pyVHDLModel.SyntaxModel.Name</text>
</a>
</g>
</g>
<!-- pyVHDLModel.SyntaxModel.Name&#45;&gt;pyVHDLModel.SyntaxModel.AttributeName -->
<g id="edge3" class="edge">
<title>pyVHDLModel.SyntaxModel.Name&#45;&gt;pyVHDLModel.SyntaxModel.AttributeName</title>
<path fill="none" stroke="#000000" stroke-width=".5" d="M183.1088,-9.5C193.1476,-9.5 203.4692,-9.5 213.771,-9.5"/>
<polygon fill="#000000" stroke="#000000" stroke-width=".5" points="213.8253,-11.2501 218.8253,-9.5 213.8253,-7.7501 213.8253,-11.2501"/>
</g>
</g>
</svg>
