<?xml version="1.0" encoding="UTF-8" standalone="no"?>
<!DOCTYPE svg PUBLIC "-//W3C//DTD SVG 1.1//EN"
 "http://www.w3.org/Graphics/SVG/1.1/DTD/svg11.dtd">
<!-- Generated by graphviz version 2.40.1 (20161225.0304)
 -->
<!-- Title: inheritance4575fca33d Pages: 1 -->
<svg width="576pt" height="52pt"
 viewBox="0.00 0.00 576.00 52.36" xmlns="http://www.w3.org/2000/svg" xmlns:xlink="http://www.w3.org/1999/xlink">
<g id="graph0" class="graph" transform="scale(.5236 .5236) rotate(0) translate(4 96)">
<title>inheritance4575fca33d</title>
<polygon fill="#ffffff" stroke="transparent" points="-4,4 -4,-96 1096,-96 1096,4 -4,4"/>
<!-- pyGHDL.dom.DOMMixin -->
<g id="node1" class="node">
<title>pyGHDL.dom.DOMMixin</title>
<g id="a_node1"><a xlink:href="../pyGHDL.dom.html#pyGHDL.dom.DOMMixin" xlink:title="pyGHDL.dom.DOMMixin" target="_top">
<polygon fill="none" stroke="#000000" stroke-width=".5" points="807.5,-92 673.5,-92 673.5,-73 807.5,-73 807.5,-92"/>
<text text-anchor="middle" x="740.5" y="-80" font-family="Vera Sans, DejaVu Sans, Liberation Sans, Arial, Helvetica, sans" font-size="10.00" fill="#000000">pyGHDL.dom.DOMMixin</text>
</a>
</g>
</g>
<!-- pyGHDL.dom.DesignUnit.PackageBody -->
<g id="node2" class="node">
<title>pyGHDL.dom.DesignUnit.PackageBody</title>
<g id="a_node2"><a xlink:href="../pyGHDL/pyGHDL.dom.DesignUnit.html#pyGHDL.dom.DesignUnit.PackageBody" xlink:title="pyGHDL.dom.DesignUnit.PackageBody" target="_top">
<polygon fill="none" stroke="#000000" stroke-width=".5" points="1092,-73 886,-73 886,-54 1092,-54 1092,-73"/>
<text text-anchor="middle" x="989" y="-61" font-family="Vera Sans, DejaVu Sans, Liberation Sans, Arial, Helvetica, sans" font-size="10.00" fill="#000000">pyGHDL.dom.DesignUnit.PackageBody</text>
</a>
</g>
</g>
<!-- pyGHDL.dom.DOMMixin&#45;&gt;pyGHDL.dom.DesignUnit.PackageBody -->
<g id="edge2" class="edge">
<title>pyGHDL.dom.DOMMixin&#45;&gt;pyGHDL.dom.DesignUnit.PackageBody</title>
<path fill="none" stroke="#000000" stroke-width=".5" d="M807.7477,-77.3583C830.158,-75.6449 855.727,-73.6899 880.4529,-71.7994"/>
<polygon fill="#000000" stroke="#000000" stroke-width=".5" points="880.8629,-73.5232 885.7149,-71.397 880.596,-70.0334 880.8629,-73.5232"/>
</g>
<!-- pyVHDLModel.SyntaxModel.PackageBody -->
<g id="node3" class="node">
<title>pyVHDLModel.SyntaxModel.PackageBody</title>
<polygon fill="none" stroke="#000000" stroke-width=".5" points="850,-55 631,-55 631,-36 850,-36 850,-55"/>
<text text-anchor="middle" x="740.5" y="-43" font-family="Vera Sans, DejaVu Sans, Liberation Sans, Arial, Helvetica, sans" font-size="10.00" fill="#000000">pyVHDLModel.SyntaxModel.PackageBody</text>
</g>
<!-- pyVHDLModel.SyntaxModel.PackageBody&#45;&gt;pyGHDL.dom.DesignUnit.PackageBody -->
<g id="edge1" class="edge">
<title>pyVHDLModel.SyntaxModel.PackageBody&#45;&gt;pyGHDL.dom.DesignUnit.PackageBody</title>
<path fill="none" stroke="#000000" stroke-width=".5" d="M850.2191,-53.4475C860.2945,-54.1773 870.4992,-54.9164 880.5632,-55.6454"/>
<polygon fill="#000000" stroke="#000000" stroke-width=".5" points="880.6984,-57.4097 885.8118,-56.0256 880.9513,-53.9189 880.6984,-57.4097"/>
</g>
<!-- pyVHDLModel.DesignUnit -->
<g id="node4" class="node">
<title>pyVHDLModel.DesignUnit</title>
<g id="a_node4"><a xlink:title="A ``DesignUnit`` is a base&#45;class for all design units.">
<polygon fill="none" stroke="#000000" stroke-width=".5" points="330,-37 188,-37 188,-18 330,-18 330,-37"/>
<text text-anchor="middle" x="259" y="-25" font-family="Vera Sans, DejaVu Sans, Liberation Sans, Arial, Helvetica, sans" font-size="10.00" fill="#000000">pyVHDLModel.DesignUnit</text>
</a>
</g>
</g>
<!-- pyVHDLModel.SecondaryUnit -->
<g id="node8" class="node">
<title>pyVHDLModel.SecondaryUnit</title>
<g id="a_node8"><a xlink:title="A ``SecondaryUnit`` is a base&#45;class for all secondary units.">
<polygon fill="none" stroke="#000000" stroke-width=".5" points="560,-37 401,-37 401,-18 560,-18 560,-37"/>
<text text-anchor="middle" x="480.5" y="-25" font-family="Vera Sans, DejaVu Sans, Liberation Sans, Arial, Helvetica, sans" font-size="10.00" fill="#000000">pyVHDLModel.SecondaryUnit</text>
</a>
</g>
</g>
<!-- pyVHDLModel.DesignUnit&#45;&gt;pyVHDLModel.SecondaryUnit -->
<g id="edge5" class="edge">
<title>pyVHDLModel.DesignUnit&#45;&gt;pyVHDLModel.SecondaryUnit</title>
<path fill="none" stroke="#000000" stroke-width=".5" d="M330.3032,-27.5C351.1437,-27.5 374.1279,-27.5 395.717,-27.5"/>
<polygon fill="#000000" stroke="#000000" stroke-width=".5" points="395.8806,-29.2501 400.8806,-27.5 395.8805,-25.7501 395.8806,-29.2501"/>
</g>
<!-- pyVHDLModel.ModelEntity -->
<g id="node5" class="node">
<title>pyVHDLModel.ModelEntity</title>
<g id="a_node5"><a xlink:title="``ModelEntity`` is the base class for all classes in the VHDL language model,">
<polygon fill="none" stroke="#000000" stroke-width=".5" points="149,-56 3,-56 3,-37 149,-37 149,-56"/>
<text text-anchor="middle" x="76" y="-44" font-family="Vera Sans, DejaVu Sans, Liberation Sans, Arial, Helvetica, sans" font-size="10.00" fill="#000000">pyVHDLModel.ModelEntity</text>
</a>
</g>
</g>
<!-- pyVHDLModel.ModelEntity&#45;&gt;pyVHDLModel.DesignUnit -->
<g id="edge3" class="edge">
<title>pyVHDLModel.ModelEntity&#45;&gt;pyVHDLModel.DesignUnit</title>
<path fill="none" stroke="#000000" stroke-width=".5" d="M149.1154,-38.9088C160.1661,-37.7614 171.59,-36.5754 182.7058,-35.4213"/>
<polygon fill="#000000" stroke="#000000" stroke-width=".5" points="182.9964,-37.1506 187.789,-34.8935 182.6349,-33.6693 182.9964,-37.1506"/>
</g>
<!-- pyVHDLModel.NamedEntity -->
<g id="node6" class="node">
<title>pyVHDLModel.NamedEntity</title>
<g id="a_node6"><a xlink:title="A ``NamedEntity`` is a mixin class for all VHDL entities that have identifiers.">
<polygon fill="none" stroke="#000000" stroke-width=".5" points="152,-19 0,-19 0,0 152,0 152,-19"/>
<text text-anchor="middle" x="76" y="-7" font-family="Vera Sans, DejaVu Sans, Liberation Sans, Arial, Helvetica, sans" font-size="10.00" fill="#000000">pyVHDLModel.NamedEntity</text>
</a>
</g>
</g>
<!-- pyVHDLModel.NamedEntity&#45;&gt;pyVHDLModel.DesignUnit -->
<g id="edge4" class="edge">
<title>pyVHDLModel.NamedEntity&#45;&gt;pyVHDLModel.DesignUnit</title>
<path fill="none" stroke="#000000" stroke-width=".5" d="M152.0187,-16.9772C162.23,-17.9816 172.7064,-19.0121 182.9189,-20.0166"/>
<polygon fill="#000000" stroke="#000000" stroke-width=".5" points="182.7614,-21.7595 187.9087,-20.5074 183.1041,-18.2763 182.7614,-21.7595"/>
</g>
<!-- pyVHDLModel.MixinDesignUnitWithContext -->
<g id="node7" class="node">
<title>pyVHDLModel.MixinDesignUnitWithContext</title>
<polygon fill="none" stroke="#000000" stroke-width=".5" points="595,-74 366,-74 366,-55 595,-55 595,-74"/>
<text text-anchor="middle" x="480.5" y="-62" font-family="Vera Sans, DejaVu Sans, Liberation Sans, Arial, Helvetica, sans" font-size="10.00" fill="#000000">pyVHDLModel.MixinDesignUnitWithContext</text>
</g>
<!-- pyVHDLModel.MixinDesignUnitWithContext&#45;&gt;pyVHDLModel.SyntaxModel.PackageBody -->
<g id="edge7" class="edge">
<title>pyVHDLModel.MixinDesignUnitWithContext&#45;&gt;pyVHDLModel.SyntaxModel.PackageBody</title>
<path fill="none" stroke="#000000" stroke-width=".5" d="M595.2966,-56.111C605.375,-55.3745 615.5769,-54.629 625.6556,-53.8925"/>
<polygon fill="#000000" stroke="#000000" stroke-width=".5" points="626.0545,-55.6181 630.9136,-53.5082 625.7994,-52.1274 626.0545,-55.6181"/>
</g>
<!-- pyVHDLModel.SecondaryUnit&#45;&gt;pyVHDLModel.SyntaxModel.PackageBody -->
<g id="edge6" class="edge">
<title>pyVHDLModel.SecondaryUnit&#45;&gt;pyVHDLModel.SyntaxModel.PackageBody</title>
<path fill="none" stroke="#000000" stroke-width=".5" d="M560.2755,-33.0229C580.9534,-34.4545 603.6347,-36.0247 625.7216,-37.5538"/>
<polygon fill="#000000" stroke="#000000" stroke-width=".5" points="625.6127,-39.3004 630.7216,-37.9 625.8545,-35.8087 625.6127,-39.3004"/>
</g>
</g>
</svg>
