<?xml version="1.0" encoding="UTF-8" standalone="no"?>
<!DOCTYPE svg PUBLIC "-//W3C//DTD SVG 1.1//EN"
 "http://www.w3.org/Graphics/SVG/1.1/DTD/svg11.dtd">
<!-- Generated by graphviz version 2.40.1 (20161225.0304)
 -->
<!-- Title: inheritance7b4b7451c5 Pages: 1 -->
<svg width="576pt" height="74pt"
 viewBox="0.00 0.00 576.00 73.92" xmlns="http://www.w3.org/2000/svg" xmlns:xlink="http://www.w3.org/1999/xlink">
<g id="graph0" class="graph" transform="scale(.9014 .9014) rotate(0) translate(4 78)">
<title>inheritance7b4b7451c5</title>
<polygon fill="#ffffff" stroke="transparent" points="-4,4 -4,-78 635,-78 635,4 -4,4"/>
<!-- pyGHDL.dom.DOMMixin -->
<g id="node1" class="node">
<title>pyGHDL.dom.DOMMixin</title>
<g id="a_node1"><a xlink:href="../pyGHDL.dom.html#pyGHDL.dom.DOMMixin" xlink:title="pyGHDL.dom.DOMMixin" target="_top">
<polygon fill="none" stroke="#000000" stroke-width=".5" points="360,-74 226,-74 226,-55 360,-55 360,-74"/>
<text text-anchor="middle" x="293" y="-62" font-family="Vera Sans, DejaVu Sans, Liberation Sans, Arial, Helvetica, sans" font-size="10.00" fill="#000000">pyGHDL.dom.DOMMixin</text>
</a>
</g>
</g>
<!-- pyGHDL.dom.DesignUnit.Component -->
<g id="node2" class="node">
<title>pyGHDL.dom.DesignUnit.Component</title>
<g id="a_node2"><a xlink:href="../pyGHDL/pyGHDL.dom.DesignUnit.html#pyGHDL.dom.DesignUnit.Component" xlink:title="pyGHDL.dom.DesignUnit.Component" target="_top">
<polygon fill="none" stroke="#000000" stroke-width=".5" points="631,-55 434,-55 434,-36 631,-36 631,-55"/>
<text text-anchor="middle" x="532.5" y="-43" font-family="Vera Sans, DejaVu Sans, Liberation Sans, Arial, Helvetica, sans" font-size="10.00" fill="#000000">pyGHDL.dom.DesignUnit.Component</text>
</a>
</g>
</g>
<!-- pyGHDL.dom.DOMMixin&#45;&gt;pyGHDL.dom.DesignUnit.Component -->
<g id="edge2" class="edge">
<title>pyGHDL.dom.DOMMixin&#45;&gt;pyGHDL.dom.DesignUnit.Component</title>
<path fill="none" stroke="#000000" stroke-width=".5" d="M360.0326,-59.1822C381.2604,-57.4981 405.2497,-55.595 428.4401,-53.7553"/>
<polygon fill="#000000" stroke="#000000" stroke-width=".5" points="428.8406,-55.4791 433.6866,-53.3391 428.5638,-51.99 428.8406,-55.4791"/>
</g>
<!-- pyVHDLModel.SyntaxModel.Component -->
<g id="node3" class="node">
<title>pyVHDLModel.SyntaxModel.Component</title>
<polygon fill="none" stroke="#000000" stroke-width=".5" points="398,-37 188,-37 188,-18 398,-18 398,-37"/>
<text text-anchor="middle" x="293" y="-25" font-family="Vera Sans, DejaVu Sans, Liberation Sans, Arial, Helvetica, sans" font-size="10.00" fill="#000000">pyVHDLModel.SyntaxModel.Component</text>
</g>
<!-- pyVHDLModel.SyntaxModel.Component&#45;&gt;pyGHDL.dom.DesignUnit.Component -->
<g id="edge1" class="edge">
<title>pyVHDLModel.SyntaxModel.Component&#45;&gt;pyGHDL.dom.DesignUnit.Component</title>
<path fill="none" stroke="#000000" stroke-width=".5" d="M398.0482,-35.3951C408.3092,-36.1662 418.7164,-36.9484 428.9623,-37.7185"/>
<polygon fill="#000000" stroke="#000000" stroke-width=".5" points="428.8606,-39.4657 433.9778,-38.0954 429.123,-35.9755 428.8606,-39.4657"/>
</g>
<!-- pyVHDLModel.ModelEntity -->
<g id="node4" class="node">
<title>pyVHDLModel.ModelEntity</title>
<g id="a_node4"><a xlink:title="``ModelEntity`` is the base class for all classes in the VHDL language model,">
<polygon fill="none" stroke="#000000" stroke-width=".5" points="149,-56 3,-56 3,-37 149,-37 149,-56"/>
<text text-anchor="middle" x="76" y="-44" font-family="Vera Sans, DejaVu Sans, Liberation Sans, Arial, Helvetica, sans" font-size="10.00" fill="#000000">pyVHDLModel.ModelEntity</text>
</a>
</g>
</g>
<!-- pyVHDLModel.ModelEntity&#45;&gt;pyVHDLModel.SyntaxModel.Component -->
<g id="edge3" class="edge">
<title>pyVHDLModel.ModelEntity&#45;&gt;pyVHDLModel.SyntaxModel.Component</title>
<path fill="none" stroke="#000000" stroke-width=".5" d="M149.1638,-40.094C159.9405,-39.1504 171.2394,-38.1611 182.5663,-37.1693"/>
<polygon fill="#000000" stroke="#000000" stroke-width=".5" points="182.9425,-38.8932 187.7708,-36.7136 182.6372,-35.4065 182.9425,-38.8932"/>
</g>
<!-- pyVHDLModel.NamedEntity -->
<g id="node5" class="node">
<title>pyVHDLModel.NamedEntity</title>
<g id="a_node5"><a xlink:title="A ``NamedEntity`` is a mixin class for all VHDL entities that have identifiers.">
<polygon fill="none" stroke="#000000" stroke-width=".5" points="152,-19 0,-19 0,0 152,0 152,-19"/>
<text text-anchor="middle" x="76" y="-7" font-family="Vera Sans, DejaVu Sans, Liberation Sans, Arial, Helvetica, sans" font-size="10.00" fill="#000000">pyVHDLModel.NamedEntity</text>
</a>
</g>
</g>
<!-- pyVHDLModel.NamedEntity&#45;&gt;pyVHDLModel.SyntaxModel.Component -->
<g id="edge4" class="edge">
<title>pyVHDLModel.NamedEntity&#45;&gt;pyVHDLModel.SyntaxModel.Component</title>
<path fill="none" stroke="#000000" stroke-width=".5" d="M152.201,-15.8208C162.0661,-16.6391 172.3232,-17.4899 182.6031,-18.3427"/>
<polygon fill="#000000" stroke="#000000" stroke-width=".5" points="182.5222,-20.0919 187.6498,-18.7613 182.8116,-16.6038 182.5222,-20.0919"/>
</g>
</g>
</svg>
