<?xml version="1.0" encoding="UTF-8" standalone="no"?>
<!DOCTYPE svg PUBLIC "-//W3C//DTD SVG 1.1//EN"
 "http://www.w3.org/Graphics/SVG/1.1/DTD/svg11.dtd">
<!-- Generated by graphviz version 2.40.1 (20161225.0304)
 -->
<!-- Title: inheritance57e6b79fa7 Pages: 1 -->
<svg width="576pt" height="54pt"
 viewBox="0.00 0.00 576.00 54.17" xmlns="http://www.w3.org/2000/svg" xmlns:xlink="http://www.w3.org/1999/xlink">
<g id="graph0" class="graph" transform="scale(.6606 .6606) rotate(0) translate(4 78)">
<title>inheritance57e6b79fa7</title>
<polygon fill="#ffffff" stroke="transparent" points="-4,4 -4,-78 868,-78 868,4 -4,4"/>
<!-- pyGHDL.dom.DOMMixin -->
<g id="node1" class="node">
<title>pyGHDL.dom.DOMMixin</title>
<g id="a_node1"><a xlink:href="../pyGHDL.dom.html#pyGHDL.dom.DOMMixin" xlink:title="pyGHDL.dom.DOMMixin" target="_top">
<polygon fill="none" stroke="#000000" stroke-width=".5" points="611,-74 477,-74 477,-55 611,-55 611,-74"/>
<text text-anchor="middle" x="544" y="-62" font-family="Vera Sans, DejaVu Sans, Liberation Sans, Arial, Helvetica, sans" font-size="10.00" fill="#000000">pyGHDL.dom.DOMMixin</text>
</a>
</g>
</g>
<!-- pyGHDL.dom.Subprogram.Function -->
<g id="node2" class="node">
<title>pyGHDL.dom.Subprogram.Function</title>
<g id="a_node2"><a xlink:href="../pyGHDL/pyGHDL.dom.Subprogram.html#pyGHDL.dom.Subprogram.Function" xlink:title="pyGHDL.dom.Subprogram.Function" target="_top">
<polygon fill="none" stroke="#000000" stroke-width=".5" points="864,-55 677,-55 677,-36 864,-36 864,-55"/>
<text text-anchor="middle" x="770.5" y="-43" font-family="Vera Sans, DejaVu Sans, Liberation Sans, Arial, Helvetica, sans" font-size="10.00" fill="#000000">pyGHDL.dom.Subprogram.Function</text>
</a>
</g>
</g>
<!-- pyGHDL.dom.DOMMixin&#45;&gt;pyGHDL.dom.Subprogram.Function -->
<g id="edge2" class="edge">
<title>pyGHDL.dom.DOMMixin&#45;&gt;pyGHDL.dom.Subprogram.Function</title>
<path fill="none" stroke="#000000" stroke-width=".5" d="M611.0381,-58.8765C630.0387,-57.2826 651.134,-55.513 671.5945,-53.7967"/>
<polygon fill="#000000" stroke="#000000" stroke-width=".5" points="671.9448,-55.5236 676.781,-53.3616 671.6522,-52.0358 671.9448,-55.5236"/>
</g>
<!-- pyVHDLModel.SyntaxModel.Function -->
<g id="node3" class="node">
<title>pyVHDLModel.SyntaxModel.Function</title>
<polygon fill="none" stroke="#000000" stroke-width=".5" points="641,-37 447,-37 447,-18 641,-18 641,-37"/>
<text text-anchor="middle" x="544" y="-25" font-family="Vera Sans, DejaVu Sans, Liberation Sans, Arial, Helvetica, sans" font-size="10.00" fill="#000000">pyVHDLModel.SyntaxModel.Function</text>
</g>
<!-- pyVHDLModel.SyntaxModel.Function&#45;&gt;pyGHDL.dom.Subprogram.Function -->
<g id="edge1" class="edge">
<title>pyVHDLModel.SyntaxModel.Function&#45;&gt;pyGHDL.dom.Subprogram.Function</title>
<path fill="none" stroke="#000000" stroke-width=".5" d="M641.0421,-35.212C651.2574,-36.0238 661.6524,-36.8499 671.8853,-37.6631"/>
<polygon fill="#000000" stroke="#000000" stroke-width=".5" points="671.7712,-39.4094 676.8942,-38.0611 672.0485,-35.9204 671.7712,-39.4094"/>
</g>
<!-- pyVHDLModel.ModelEntity -->
<g id="node4" class="node">
<title>pyVHDLModel.ModelEntity</title>
<g id="a_node4"><a xlink:title="``ModelEntity`` is the base class for all classes in the VHDL language model,">
<polygon fill="none" stroke="#000000" stroke-width=".5" points="149,-56 3,-56 3,-37 149,-37 149,-56"/>
<text text-anchor="middle" x="76" y="-44" font-family="Vera Sans, DejaVu Sans, Liberation Sans, Arial, Helvetica, sans" font-size="10.00" fill="#000000">pyVHDLModel.ModelEntity</text>
</a>
</g>
</g>
<!-- pyVHDLModel.SyntaxModel.SubProgramm -->
<g id="node6" class="node">
<title>pyVHDLModel.SyntaxModel.SubProgramm</title>
<polygon fill="none" stroke="#000000" stroke-width=".5" points="411,-37 188,-37 188,-18 411,-18 411,-37"/>
<text text-anchor="middle" x="299.5" y="-25" font-family="Vera Sans, DejaVu Sans, Liberation Sans, Arial, Helvetica, sans" font-size="10.00" fill="#000000">pyVHDLModel.SyntaxModel.SubProgramm</text>
</g>
<!-- pyVHDLModel.ModelEntity&#45;&gt;pyVHDLModel.SyntaxModel.SubProgramm -->
<g id="edge4" class="edge">
<title>pyVHDLModel.ModelEntity&#45;&gt;pyVHDLModel.SyntaxModel.SubProgramm</title>
<path fill="none" stroke="#000000" stroke-width=".5" d="M149.1823,-40.2787C159.8911,-39.3683 171.1385,-38.4122 182.4585,-37.4498"/>
<polygon fill="#000000" stroke="#000000" stroke-width=".5" points="182.8293,-39.1747 187.663,-37.0074 182.5327,-35.6873 182.8293,-39.1747"/>
</g>
<!-- pyVHDLModel.NamedEntity -->
<g id="node5" class="node">
<title>pyVHDLModel.NamedEntity</title>
<g id="a_node5"><a xlink:title="A ``NamedEntity`` is a mixin class for all VHDL entities that have identifiers.">
<polygon fill="none" stroke="#000000" stroke-width=".5" points="152,-19 0,-19 0,0 152,0 152,-19"/>
<text text-anchor="middle" x="76" y="-7" font-family="Vera Sans, DejaVu Sans, Liberation Sans, Arial, Helvetica, sans" font-size="10.00" fill="#000000">pyVHDLModel.NamedEntity</text>
</a>
</g>
</g>
<!-- pyVHDLModel.NamedEntity&#45;&gt;pyVHDLModel.SyntaxModel.SubProgramm -->
<g id="edge5" class="edge">
<title>pyVHDLModel.NamedEntity&#45;&gt;pyVHDLModel.SyntaxModel.SubProgramm</title>
<path fill="none" stroke="#000000" stroke-width=".5" d="M152.2909,-15.6442C162.1803,-16.4407 172.483,-17.2704 182.842,-18.1047"/>
<polygon fill="#000000" stroke="#000000" stroke-width=".5" points="182.8059,-19.8574 187.9303,-18.5145 183.087,-16.3687 182.8059,-19.8574"/>
</g>
<!-- pyVHDLModel.SyntaxModel.SubProgramm&#45;&gt;pyVHDLModel.SyntaxModel.Function -->
<g id="edge3" class="edge">
<title>pyVHDLModel.SyntaxModel.SubProgramm&#45;&gt;pyVHDLModel.SyntaxModel.Function</title>
<path fill="none" stroke="#000000" stroke-width=".5" d="M411.0177,-27.5C421.2065,-27.5 431.4955,-27.5 441.5988,-27.5"/>
<polygon fill="#000000" stroke="#000000" stroke-width=".5" points="441.8637,-29.2501 446.8636,-27.5 441.8636,-25.7501 441.8637,-29.2501"/>
</g>
</g>
</svg>
