<?xml version="1.0" encoding="UTF-8" standalone="no"?>
<!DOCTYPE svg PUBLIC "-//W3C//DTD SVG 1.1//EN"
 "http://www.w3.org/Graphics/SVG/1.1/DTD/svg11.dtd">
<!-- Generated by graphviz version 2.40.1 (20161225.0304)
 -->
<!-- Title: inheritance4c2c8101e8 Pages: 1 -->
<svg width="576pt" height="53pt"
 viewBox="0.00 0.00 576.00 52.51" xmlns="http://www.w3.org/2000/svg" xmlns:xlink="http://www.w3.org/1999/xlink">
<g id="graph0" class="graph" transform="scale(.8205 .8205) rotate(0) translate(4 60)">
<title>inheritance4c2c8101e8</title>
<polygon fill="#ffffff" stroke="transparent" points="-4,4 -4,-60 698,-60 698,4 -4,4"/>
<!-- pyGHDL.dom.Concurrent.WaveformElement -->
<g id="node1" class="node">
<title>pyGHDL.dom.Concurrent.WaveformElement</title>
<g id="a_node1"><a xlink:href="../pyGHDL/pyGHDL.dom.Concurrent.html#pyGHDL.dom.Concurrent.WaveformElement" xlink:title="pyGHDL.dom.Concurrent.WaveformElement" target="_top">
<polygon fill="none" stroke="#000000" stroke-width=".5" points="694,-37 463,-37 463,-18 694,-18 694,-37"/>
<text text-anchor="middle" x="578.5" y="-25" font-family="Vera Sans, DejaVu Sans, Liberation Sans, Arial, Helvetica, sans" font-size="10.00" fill="#000000">pyGHDL.dom.Concurrent.WaveformElement</text>
</a>
</g>
</g>
<!-- pyVHDLModel.SyntaxModel.WaveformElement -->
<g id="node2" class="node">
<title>pyVHDLModel.SyntaxModel.WaveformElement</title>
<polygon fill="none" stroke="#000000" stroke-width=".5" points="427,-56 182,-56 182,-37 427,-37 427,-56"/>
<text text-anchor="middle" x="304.5" y="-44" font-family="Vera Sans, DejaVu Sans, Liberation Sans, Arial, Helvetica, sans" font-size="10.00" fill="#000000">pyVHDLModel.SyntaxModel.WaveformElement</text>
</g>
<!-- pyVHDLModel.SyntaxModel.WaveformElement&#45;&gt;pyGHDL.dom.Concurrent.WaveformElement -->
<g id="edge1" class="edge">
<title>pyVHDLModel.SyntaxModel.WaveformElement&#45;&gt;pyGHDL.dom.Concurrent.WaveformElement</title>
<path fill="none" stroke="#000000" stroke-width=".5" d="M427.0746,-38.0003C437.1456,-37.3019 447.3218,-36.5963 457.3821,-35.8987"/>
<polygon fill="#000000" stroke="#000000" stroke-width=".5" points="457.7644,-37.6265 462.6313,-35.5347 457.5222,-34.1349 457.7644,-37.6265"/>
</g>
<!-- pyGHDL.dom.DOMMixin -->
<g id="node3" class="node">
<title>pyGHDL.dom.DOMMixin</title>
<g id="a_node3"><a xlink:href="../pyGHDL.dom.html#pyGHDL.dom.DOMMixin" xlink:title="pyGHDL.dom.DOMMixin" target="_top">
<polygon fill="none" stroke="#000000" stroke-width=".5" points="371.5,-19 237.5,-19 237.5,0 371.5,0 371.5,-19"/>
<text text-anchor="middle" x="304.5" y="-7" font-family="Vera Sans, DejaVu Sans, Liberation Sans, Arial, Helvetica, sans" font-size="10.00" fill="#000000">pyGHDL.dom.DOMMixin</text>
</a>
</g>
</g>
<!-- pyGHDL.dom.DOMMixin&#45;&gt;pyGHDL.dom.Concurrent.WaveformElement -->
<g id="edge2" class="edge">
<title>pyGHDL.dom.DOMMixin&#45;&gt;pyGHDL.dom.Concurrent.WaveformElement</title>
<path fill="none" stroke="#000000" stroke-width=".5" d="M371.5279,-13.9033C397.5127,-15.6103 428.0882,-17.6189 457.6468,-19.5607"/>
<polygon fill="#000000" stroke="#000000" stroke-width=".5" points="457.6615,-21.3154 462.7655,-19.897 457.891,-17.8229 457.6615,-21.3154"/>
</g>
<!-- pyVHDLModel.ModelEntity -->
<g id="node4" class="node">
<title>pyVHDLModel.ModelEntity</title>
<g id="a_node4"><a xlink:title="``ModelEntity`` is the base class for all classes in the VHDL language model,">
<polygon fill="none" stroke="#000000" stroke-width=".5" points="146,-56 0,-56 0,-37 146,-37 146,-56"/>
<text text-anchor="middle" x="73" y="-44" font-family="Vera Sans, DejaVu Sans, Liberation Sans, Arial, Helvetica, sans" font-size="10.00" fill="#000000">pyVHDLModel.ModelEntity</text>
</a>
</g>
</g>
<!-- pyVHDLModel.ModelEntity&#45;&gt;pyVHDLModel.SyntaxModel.WaveformElement -->
<g id="edge3" class="edge">
<title>pyVHDLModel.ModelEntity&#45;&gt;pyVHDLModel.SyntaxModel.WaveformElement</title>
<path fill="none" stroke="#000000" stroke-width=".5" d="M146.248,-46.5C156.0381,-46.5 166.2991,-46.5 176.6913,-46.5"/>
<polygon fill="#000000" stroke="#000000" stroke-width=".5" points="176.802,-48.2501 181.8019,-46.5 176.8019,-44.7501 176.802,-48.2501"/>
</g>
</g>
</svg>
