<?xml version="1.0" encoding="UTF-8" standalone="no"?>
<!DOCTYPE svg PUBLIC "-//W3C//DTD SVG 1.1//EN"
 "http://www.w3.org/Graphics/SVG/1.1/DTD/svg11.dtd">
<!-- Generated by graphviz version 2.40.1 (20161225.0304)
 -->
<!-- Title: inheritance1ee7c824f5 Pages: 1 -->
<svg width="576pt" height="24pt"
 viewBox="0.00 0.00 576.00 23.86" xmlns="http://www.w3.org/2000/svg" xmlns:xlink="http://www.w3.org/1999/xlink">
<g id="graph0" class="graph" transform="scale(.3728 .3728) rotate(0) translate(4 60)">
<title>inheritance1ee7c824f5</title>
<polygon fill="#ffffff" stroke="transparent" points="-4,4 -4,-60 1541,-60 1541,4 -4,4"/>
<!-- pyGHDL.dom.DOMMixin -->
<g id="node1" class="node">
<title>pyGHDL.dom.DOMMixin</title>
<g id="a_node1"><a xlink:href="../pyGHDL.dom.html#pyGHDL.dom.DOMMixin" xlink:title="pyGHDL.dom.DOMMixin" target="_top">
<polygon fill="none" stroke="#000000" stroke-width=".5" points="1211.5,-56 1077.5,-56 1077.5,-37 1211.5,-37 1211.5,-56"/>
<text text-anchor="middle" x="1144.5" y="-44" font-family="Vera Sans, DejaVu Sans, Liberation Sans, Arial, Helvetica, sans" font-size="10.00" fill="#000000">pyGHDL.dom.DOMMixin</text>
</a>
</g>
</g>
<!-- pyGHDL.dom.Expression.DivisionExpression -->
<g id="node2" class="node">
<title>pyGHDL.dom.Expression.DivisionExpression</title>
<g id="a_node2"><a xlink:href="../pyGHDL/pyGHDL.dom.Expression.html#pyGHDL.dom.Expression.DivisionExpression" xlink:title="pyGHDL.dom.Expression.DivisionExpression" target="_top">
<polygon fill="none" stroke="#000000" stroke-width=".5" points="1537,-37 1304,-37 1304,-18 1537,-18 1537,-37"/>
<text text-anchor="middle" x="1420.5" y="-25" font-family="Vera Sans, DejaVu Sans, Liberation Sans, Arial, Helvetica, sans" font-size="10.00" fill="#000000">pyGHDL.dom.Expression.DivisionExpression</text>
</a>
</g>
</g>
<!-- pyGHDL.dom.DOMMixin&#45;&gt;pyGHDL.dom.Expression.DivisionExpression -->
<g id="edge2" class="edge">
<title>pyGHDL.dom.DOMMixin&#45;&gt;pyGHDL.dom.Expression.DivisionExpression</title>
<path fill="none" stroke="#000000" stroke-width=".5" d="M1211.6643,-41.8764C1237.91,-40.0696 1268.8458,-37.94 1298.7493,-35.8814"/>
<polygon fill="#000000" stroke="#000000" stroke-width=".5" points="1299.0598,-37.6142 1303.9278,-35.5249 1298.8193,-34.1225 1299.0598,-37.6142"/>
</g>
<!-- pyVHDLModel.SyntaxModel.DivisionExpression -->
<g id="node3" class="node">
<title>pyVHDLModel.SyntaxModel.DivisionExpression</title>
<polygon fill="none" stroke="#000000" stroke-width=".5" points="1268,-19 1021,-19 1021,0 1268,0 1268,-19"/>
<text text-anchor="middle" x="1144.5" y="-7" font-family="Vera Sans, DejaVu Sans, Liberation Sans, Arial, Helvetica, sans" font-size="10.00" fill="#000000">pyVHDLModel.SyntaxModel.DivisionExpression</text>
</g>
<!-- pyVHDLModel.SyntaxModel.DivisionExpression&#45;&gt;pyGHDL.dom.Expression.DivisionExpression -->
<g id="edge1" class="edge">
<title>pyVHDLModel.SyntaxModel.DivisionExpression&#45;&gt;pyGHDL.dom.Expression.DivisionExpression</title>
<path fill="none" stroke="#000000" stroke-width=".5" d="M1268.3717,-17.5786C1278.3784,-18.2312 1288.4853,-18.8903 1298.4788,-19.5421"/>
<polygon fill="#000000" stroke="#000000" stroke-width=".5" points="1298.5901,-21.303 1303.6934,-19.8822 1298.8179,-17.8104 1298.5901,-21.303"/>
</g>
<!-- pyVHDLModel.ModelEntity -->
<g id="node4" class="node">
<title>pyVHDLModel.ModelEntity</title>
<g id="a_node4"><a xlink:title="``ModelEntity`` is the base class for all classes in the VHDL language model,">
<polygon fill="none" stroke="#000000" stroke-width=".5" points="146,-19 0,-19 0,0 146,0 146,-19"/>
<text text-anchor="middle" x="73" y="-7" font-family="Vera Sans, DejaVu Sans, Liberation Sans, Arial, Helvetica, sans" font-size="10.00" fill="#000000">pyVHDLModel.ModelEntity</text>
</a>
</g>
</g>
<!-- pyVHDLModel.SyntaxModel.BaseExpression -->
<g id="node5" class="node">
<title>pyVHDLModel.SyntaxModel.BaseExpression</title>
<g id="a_node5"><a xlink:title="A ``BaseExpression`` is a base&#45;class for all expressions.">
<polygon fill="none" stroke="#000000" stroke-width=".5" points="413,-19 182,-19 182,0 413,0 413,-19"/>
<text text-anchor="middle" x="297.5" y="-7" font-family="Vera Sans, DejaVu Sans, Liberation Sans, Arial, Helvetica, sans" font-size="10.00" fill="#000000">pyVHDLModel.SyntaxModel.BaseExpression</text>
</a>
</g>
</g>
<!-- pyVHDLModel.ModelEntity&#45;&gt;pyVHDLModel.SyntaxModel.BaseExpression -->
<g id="edge3" class="edge">
<title>pyVHDLModel.ModelEntity&#45;&gt;pyVHDLModel.SyntaxModel.BaseExpression</title>
<path fill="none" stroke="#000000" stroke-width=".5" d="M146.1991,-9.5C155.9857,-9.5 166.2247,-9.5 176.5627,-9.5"/>
<polygon fill="#000000" stroke="#000000" stroke-width=".5" points="176.6441,-11.2501 181.644,-9.5 176.644,-7.7501 176.6441,-11.2501"/>
</g>
<!-- pyVHDLModel.SyntaxModel.BinaryExpression -->
<g id="node6" class="node">
<title>pyVHDLModel.SyntaxModel.BinaryExpression</title>
<g id="a_node6"><a xlink:title="A ``BinaryExpression`` is a base&#45;class for all binary expressions.">
<polygon fill="none" stroke="#000000" stroke-width=".5" points="688,-19 449,-19 449,0 688,0 688,-19"/>
<text text-anchor="middle" x="568.5" y="-7" font-family="Vera Sans, DejaVu Sans, Liberation Sans, Arial, Helvetica, sans" font-size="10.00" fill="#000000">pyVHDLModel.SyntaxModel.BinaryExpression</text>
</a>
</g>
</g>
<!-- pyVHDLModel.SyntaxModel.BaseExpression&#45;&gt;pyVHDLModel.SyntaxModel.BinaryExpression -->
<g id="edge4" class="edge">
<title>pyVHDLModel.SyntaxModel.BaseExpression&#45;&gt;pyVHDLModel.SyntaxModel.BinaryExpression</title>
<path fill="none" stroke="#000000" stroke-width=".5" d="M413.2145,-9.5C423.3522,-9.5 433.6409,-9.5 443.8471,-9.5"/>
<polygon fill="#000000" stroke="#000000" stroke-width=".5" points="443.8497,-11.2501 448.8497,-9.5 443.8496,-7.7501 443.8497,-11.2501"/>
</g>
<!-- pyVHDLModel.SyntaxModel.MultiplyingExpression -->
<g id="node7" class="node">
<title>pyVHDLModel.SyntaxModel.MultiplyingExpression</title>
<g id="a_node7"><a xlink:title="A ``MultiplyingExpression`` is a base&#45;class for all multiplying expressions.">
<polygon fill="none" stroke="#000000" stroke-width=".5" points="985,-19 724,-19 724,0 985,0 985,-19"/>
<text text-anchor="middle" x="854.5" y="-7" font-family="Vera Sans, DejaVu Sans, Liberation Sans, Arial, Helvetica, sans" font-size="10.00" fill="#000000">pyVHDLModel.SyntaxModel.MultiplyingExpression</text>
</a>
</g>
</g>
<!-- pyVHDLModel.SyntaxModel.BinaryExpression&#45;&gt;pyVHDLModel.SyntaxModel.MultiplyingExpression -->
<g id="edge6" class="edge">
<title>pyVHDLModel.SyntaxModel.BinaryExpression&#45;&gt;pyVHDLModel.SyntaxModel.MultiplyingExpression</title>
<path fill="none" stroke="#000000" stroke-width=".5" d="M688.1326,-9.5C698.2615,-9.5 708.5511,-9.5 718.7908,-9.5"/>
<polygon fill="#000000" stroke="#000000" stroke-width=".5" points="718.8126,-11.2501 723.8126,-9.5 718.8126,-7.7501 718.8126,-11.2501"/>
</g>
<!-- pyVHDLModel.SyntaxModel.MultiplyingExpression&#45;&gt;pyVHDLModel.SyntaxModel.DivisionExpression -->
<g id="edge5" class="edge">
<title>pyVHDLModel.SyntaxModel.MultiplyingExpression&#45;&gt;pyVHDLModel.SyntaxModel.DivisionExpression</title>
<path fill="none" stroke="#000000" stroke-width=".5" d="M985.0779,-9.5C995.1917,-9.5 1005.4,-9.5 1015.5034,-9.5"/>
<polygon fill="#000000" stroke="#000000" stroke-width=".5" points="1015.7763,-11.2501 1020.7763,-9.5 1015.7762,-7.7501 1015.7763,-11.2501"/>
</g>
</g>
</svg>
