<?xml version="1.0" encoding="UTF-8" standalone="no"?>
<!DOCTYPE svg PUBLIC "-//W3C//DTD SVG 1.1//EN"
 "http://www.w3.org/Graphics/SVG/1.1/DTD/svg11.dtd">
<!-- Generated by graphviz version 2.40.1 (20161225.0304)
 -->
<!-- Title: inheritance5a50b8c16b Pages: 1 -->
<svg width="576pt" height="25pt"
 viewBox="0.00 0.00 576.00 24.61" xmlns="http://www.w3.org/2000/svg" xmlns:xlink="http://www.w3.org/1999/xlink">
<g id="graph0" class="graph" transform="scale(.3845 .3845) rotate(0) translate(4 60)">
<title>inheritance5a50b8c16b</title>
<polygon fill="#ffffff" stroke="transparent" points="-4,4 -4,-60 1494,-60 1494,4 -4,4"/>
<!-- pyGHDL.dom.DOMMixin -->
<g id="node1" class="node">
<title>pyGHDL.dom.DOMMixin</title>
<g id="a_node1"><a xlink:href="../pyGHDL.dom.html#pyGHDL.dom.DOMMixin" xlink:title="pyGHDL.dom.DOMMixin" target="_top">
<polygon fill="none" stroke="#000000" stroke-width=".5" points="1185.5,-56 1051.5,-56 1051.5,-37 1185.5,-37 1185.5,-56"/>
<text text-anchor="middle" x="1118.5" y="-44" font-family="Vera Sans, DejaVu Sans, Liberation Sans, Arial, Helvetica, sans" font-size="10.00" fill="#000000">pyGHDL.dom.DOMMixin</text>
</a>
</g>
</g>
<!-- pyGHDL.dom.Expression.NandExpression -->
<g id="node2" class="node">
<title>pyGHDL.dom.Expression.NandExpression</title>
<g id="a_node2"><a xlink:href="../pyGHDL/pyGHDL.dom.Expression.html#pyGHDL.dom.Expression.NandExpression" xlink:title="pyGHDL.dom.Expression.NandExpression" target="_top">
<polygon fill="none" stroke="#000000" stroke-width=".5" points="1490,-37 1271,-37 1271,-18 1490,-18 1490,-37"/>
<text text-anchor="middle" x="1380.5" y="-25" font-family="Vera Sans, DejaVu Sans, Liberation Sans, Arial, Helvetica, sans" font-size="10.00" fill="#000000">pyGHDL.dom.Expression.NandExpression</text>
</a>
</g>
</g>
<!-- pyGHDL.dom.DOMMixin&#45;&gt;pyGHDL.dom.Expression.NandExpression -->
<g id="edge2" class="edge">
<title>pyGHDL.dom.DOMMixin&#45;&gt;pyGHDL.dom.Expression.NandExpression</title>
<path fill="none" stroke="#000000" stroke-width=".5" d="M1185.6313,-41.6317C1210.0383,-39.8617 1238.3616,-37.8077 1265.7256,-35.8233"/>
<polygon fill="#000000" stroke="#000000" stroke-width=".5" points="1265.9625,-37.5608 1270.8228,-35.4537 1265.7093,-34.07 1265.9625,-37.5608"/>
</g>
<!-- pyVHDLModel.SyntaxModel.NandExpression -->
<g id="node3" class="node">
<title>pyVHDLModel.SyntaxModel.NandExpression</title>
<polygon fill="none" stroke="#000000" stroke-width=".5" points="1235,-19 1002,-19 1002,0 1235,0 1235,-19"/>
<text text-anchor="middle" x="1118.5" y="-7" font-family="Vera Sans, DejaVu Sans, Liberation Sans, Arial, Helvetica, sans" font-size="10.00" fill="#000000">pyVHDLModel.SyntaxModel.NandExpression</text>
</g>
<!-- pyVHDLModel.SyntaxModel.NandExpression&#45;&gt;pyGHDL.dom.Expression.NandExpression -->
<g id="edge1" class="edge">
<title>pyVHDLModel.SyntaxModel.NandExpression&#45;&gt;pyGHDL.dom.Expression.NandExpression</title>
<path fill="none" stroke="#000000" stroke-width=".5" d="M1235.3245,-17.5261C1245.318,-18.2127 1255.4227,-18.9069 1265.4025,-19.5925"/>
<polygon fill="#000000" stroke="#000000" stroke-width=".5" points="1265.5005,-21.3533 1270.6087,-19.9502 1265.7404,-17.8615 1265.5005,-21.3533"/>
</g>
<!-- pyVHDLModel.ModelEntity -->
<g id="node4" class="node">
<title>pyVHDLModel.ModelEntity</title>
<g id="a_node4"><a xlink:title="``ModelEntity`` is the base class for all classes in the VHDL language model,">
<polygon fill="none" stroke="#000000" stroke-width=".5" points="146,-19 0,-19 0,0 146,0 146,-19"/>
<text text-anchor="middle" x="73" y="-7" font-family="Vera Sans, DejaVu Sans, Liberation Sans, Arial, Helvetica, sans" font-size="10.00" fill="#000000">pyVHDLModel.ModelEntity</text>
</a>
</g>
</g>
<!-- pyVHDLModel.SyntaxModel.BaseExpression -->
<g id="node5" class="node">
<title>pyVHDLModel.SyntaxModel.BaseExpression</title>
<g id="a_node5"><a xlink:title="A ``BaseExpression`` is a base&#45;class for all expressions.">
<polygon fill="none" stroke="#000000" stroke-width=".5" points="413,-19 182,-19 182,0 413,0 413,-19"/>
<text text-anchor="middle" x="297.5" y="-7" font-family="Vera Sans, DejaVu Sans, Liberation Sans, Arial, Helvetica, sans" font-size="10.00" fill="#000000">pyVHDLModel.SyntaxModel.BaseExpression</text>
</a>
</g>
</g>
<!-- pyVHDLModel.ModelEntity&#45;&gt;pyVHDLModel.SyntaxModel.BaseExpression -->
<g id="edge3" class="edge">
<title>pyVHDLModel.ModelEntity&#45;&gt;pyVHDLModel.SyntaxModel.BaseExpression</title>
<path fill="none" stroke="#000000" stroke-width=".5" d="M146.1991,-9.5C155.9857,-9.5 166.2247,-9.5 176.5627,-9.5"/>
<polygon fill="#000000" stroke="#000000" stroke-width=".5" points="176.6441,-11.2501 181.644,-9.5 176.644,-7.7501 176.6441,-11.2501"/>
</g>
<!-- pyVHDLModel.SyntaxModel.BinaryExpression -->
<g id="node6" class="node">
<title>pyVHDLModel.SyntaxModel.BinaryExpression</title>
<g id="a_node6"><a xlink:title="A ``BinaryExpression`` is a base&#45;class for all binary expressions.">
<polygon fill="none" stroke="#000000" stroke-width=".5" points="688,-19 449,-19 449,0 688,0 688,-19"/>
<text text-anchor="middle" x="568.5" y="-7" font-family="Vera Sans, DejaVu Sans, Liberation Sans, Arial, Helvetica, sans" font-size="10.00" fill="#000000">pyVHDLModel.SyntaxModel.BinaryExpression</text>
</a>
</g>
</g>
<!-- pyVHDLModel.SyntaxModel.BaseExpression&#45;&gt;pyVHDLModel.SyntaxModel.BinaryExpression -->
<g id="edge4" class="edge">
<title>pyVHDLModel.SyntaxModel.BaseExpression&#45;&gt;pyVHDLModel.SyntaxModel.BinaryExpression</title>
<path fill="none" stroke="#000000" stroke-width=".5" d="M413.2145,-9.5C423.3522,-9.5 433.6409,-9.5 443.8471,-9.5"/>
<polygon fill="#000000" stroke="#000000" stroke-width=".5" points="443.8497,-11.2501 448.8497,-9.5 443.8496,-7.7501 443.8497,-11.2501"/>
</g>
<!-- pyVHDLModel.SyntaxModel.LogicalExpression -->
<g id="node7" class="node">
<title>pyVHDLModel.SyntaxModel.LogicalExpression</title>
<g id="a_node7"><a xlink:title="A ``LogicalExpression`` is a base&#45;class for all logical expressions.">
<polygon fill="none" stroke="#000000" stroke-width=".5" points="966,-19 724,-19 724,0 966,0 966,-19"/>
<text text-anchor="middle" x="845" y="-7" font-family="Vera Sans, DejaVu Sans, Liberation Sans, Arial, Helvetica, sans" font-size="10.00" fill="#000000">pyVHDLModel.SyntaxModel.LogicalExpression</text>
</a>
</g>
</g>
<!-- pyVHDLModel.SyntaxModel.BinaryExpression&#45;&gt;pyVHDLModel.SyntaxModel.LogicalExpression -->
<g id="edge5" class="edge">
<title>pyVHDLModel.SyntaxModel.BinaryExpression&#45;&gt;pyVHDLModel.SyntaxModel.LogicalExpression</title>
<path fill="none" stroke="#000000" stroke-width=".5" d="M688.1688,-9.5C698.3284,-9.5 708.6244,-9.5 718.8318,-9.5"/>
<polygon fill="#000000" stroke="#000000" stroke-width=".5" points="718.8347,-11.2501 723.8346,-9.5 718.8346,-7.7501 718.8347,-11.2501"/>
</g>
<!-- pyVHDLModel.SyntaxModel.LogicalExpression&#45;&gt;pyVHDLModel.SyntaxModel.NandExpression -->
<g id="edge6" class="edge">
<title>pyVHDLModel.SyntaxModel.LogicalExpression&#45;&gt;pyVHDLModel.SyntaxModel.NandExpression</title>
<path fill="none" stroke="#000000" stroke-width=".5" d="M966.1555,-9.5C976.2544,-9.5 986.4683,-9.5 996.573,-9.5"/>
<polygon fill="#000000" stroke="#000000" stroke-width=".5" points="996.846,-11.2501 1001.8459,-9.5 996.8459,-7.7501 996.846,-11.2501"/>
</g>
</g>
</svg>
