<?xml version="1.0" encoding="UTF-8" standalone="no"?>
<!DOCTYPE svg PUBLIC "-//W3C//DTD SVG 1.1//EN"
 "http://www.w3.org/Graphics/SVG/1.1/DTD/svg11.dtd">
<!-- Generated by graphviz version 2.40.1 (20161225.0304)
 -->
<!-- Title: inheritanceeaf4de61db Pages: 1 -->
<svg width="576pt" height="25pt"
 viewBox="0.00 0.00 576.00 25.09" xmlns="http://www.w3.org/2000/svg" xmlns:xlink="http://www.w3.org/1999/xlink">
<g id="graph0" class="graph" transform="scale(.3921 .3921) rotate(0) translate(4 60)">
<title>inheritanceeaf4de61db</title>
<polygon fill="#ffffff" stroke="transparent" points="-4,4 -4,-60 1465,-60 1465,4 -4,4"/>
<!-- pyGHDL.dom.DOMMixin -->
<g id="node1" class="node">
<title>pyGHDL.dom.DOMMixin</title>
<g id="a_node1"><a xlink:href="../pyGHDL.dom.html#pyGHDL.dom.DOMMixin" xlink:title="pyGHDL.dom.DOMMixin" target="_top">
<polygon fill="none" stroke="#000000" stroke-width=".5" points="1178,-56 1044,-56 1044,-37 1178,-37 1178,-56"/>
<text text-anchor="middle" x="1111" y="-44" font-family="Vera Sans, DejaVu Sans, Liberation Sans, Arial, Helvetica, sans" font-size="10.00" fill="#000000">pyGHDL.dom.DOMMixin</text>
</a>
</g>
</g>
<!-- pyGHDL.dom.Expression.OrExpression -->
<g id="node2" class="node">
<title>pyGHDL.dom.Expression.OrExpression</title>
<g id="a_node2"><a xlink:href="../pyGHDL/pyGHDL.dom.Expression.html#pyGHDL.dom.Expression.OrExpression" xlink:title="pyGHDL.dom.Expression.OrExpression" target="_top">
<polygon fill="none" stroke="#000000" stroke-width=".5" points="1461,-37 1256,-37 1256,-18 1461,-18 1461,-37"/>
<text text-anchor="middle" x="1358.5" y="-25" font-family="Vera Sans, DejaVu Sans, Liberation Sans, Arial, Helvetica, sans" font-size="10.00" fill="#000000">pyGHDL.dom.Expression.OrExpression</text>
</a>
</g>
</g>
<!-- pyGHDL.dom.DOMMixin&#45;&gt;pyGHDL.dom.Expression.OrExpression -->
<g id="edge2" class="edge">
<title>pyGHDL.dom.DOMMixin&#45;&gt;pyGHDL.dom.Expression.OrExpression</title>
<path fill="none" stroke="#000000" stroke-width=".5" d="M1178.3035,-41.3333C1200.6211,-39.62 1226.0559,-37.6674 1250.6401,-35.7802"/>
<polygon fill="#000000" stroke="#000000" stroke-width=".5" points="1251.0204,-37.5062 1255.8717,-35.3785 1250.7524,-34.0165 1251.0204,-37.5062"/>
</g>
<!-- pyVHDLModel.SyntaxModel.OrExpression -->
<g id="node3" class="node">
<title>pyVHDLModel.SyntaxModel.OrExpression</title>
<polygon fill="none" stroke="#000000" stroke-width=".5" points="1220,-19 1002,-19 1002,0 1220,0 1220,-19"/>
<text text-anchor="middle" x="1111" y="-7" font-family="Vera Sans, DejaVu Sans, Liberation Sans, Arial, Helvetica, sans" font-size="10.00" fill="#000000">pyVHDLModel.SyntaxModel.OrExpression</text>
</g>
<!-- pyVHDLModel.SyntaxModel.OrExpression&#45;&gt;pyGHDL.dom.Expression.OrExpression -->
<g id="edge1" class="edge">
<title>pyVHDLModel.SyntaxModel.OrExpression&#45;&gt;pyGHDL.dom.Expression.OrExpression</title>
<path fill="none" stroke="#000000" stroke-width=".5" d="M1220.2776,-17.4475C1230.3125,-18.1773 1240.4761,-18.9164 1250.4996,-19.6454"/>
<polygon fill="#000000" stroke="#000000" stroke-width=".5" points="1250.6132,-21.4082 1255.727,-20.0256 1250.8672,-17.9174 1250.6132,-21.4082"/>
</g>
<!-- pyVHDLModel.ModelEntity -->
<g id="node4" class="node">
<title>pyVHDLModel.ModelEntity</title>
<g id="a_node4"><a xlink:title="``ModelEntity`` is the base class for all classes in the VHDL language model,">
<polygon fill="none" stroke="#000000" stroke-width=".5" points="146,-19 0,-19 0,0 146,0 146,-19"/>
<text text-anchor="middle" x="73" y="-7" font-family="Vera Sans, DejaVu Sans, Liberation Sans, Arial, Helvetica, sans" font-size="10.00" fill="#000000">pyVHDLModel.ModelEntity</text>
</a>
</g>
</g>
<!-- pyVHDLModel.SyntaxModel.BaseExpression -->
<g id="node5" class="node">
<title>pyVHDLModel.SyntaxModel.BaseExpression</title>
<g id="a_node5"><a xlink:title="A ``BaseExpression`` is a base&#45;class for all expressions.">
<polygon fill="none" stroke="#000000" stroke-width=".5" points="413,-19 182,-19 182,0 413,0 413,-19"/>
<text text-anchor="middle" x="297.5" y="-7" font-family="Vera Sans, DejaVu Sans, Liberation Sans, Arial, Helvetica, sans" font-size="10.00" fill="#000000">pyVHDLModel.SyntaxModel.BaseExpression</text>
</a>
</g>
</g>
<!-- pyVHDLModel.ModelEntity&#45;&gt;pyVHDLModel.SyntaxModel.BaseExpression -->
<g id="edge3" class="edge">
<title>pyVHDLModel.ModelEntity&#45;&gt;pyVHDLModel.SyntaxModel.BaseExpression</title>
<path fill="none" stroke="#000000" stroke-width=".5" d="M146.1991,-9.5C155.9857,-9.5 166.2247,-9.5 176.5627,-9.5"/>
<polygon fill="#000000" stroke="#000000" stroke-width=".5" points="176.6441,-11.2501 181.644,-9.5 176.644,-7.7501 176.6441,-11.2501"/>
</g>
<!-- pyVHDLModel.SyntaxModel.BinaryExpression -->
<g id="node6" class="node">
<title>pyVHDLModel.SyntaxModel.BinaryExpression</title>
<g id="a_node6"><a xlink:title="A ``BinaryExpression`` is a base&#45;class for all binary expressions.">
<polygon fill="none" stroke="#000000" stroke-width=".5" points="688,-19 449,-19 449,0 688,0 688,-19"/>
<text text-anchor="middle" x="568.5" y="-7" font-family="Vera Sans, DejaVu Sans, Liberation Sans, Arial, Helvetica, sans" font-size="10.00" fill="#000000">pyVHDLModel.SyntaxModel.BinaryExpression</text>
</a>
</g>
</g>
<!-- pyVHDLModel.SyntaxModel.BaseExpression&#45;&gt;pyVHDLModel.SyntaxModel.BinaryExpression -->
<g id="edge4" class="edge">
<title>pyVHDLModel.SyntaxModel.BaseExpression&#45;&gt;pyVHDLModel.SyntaxModel.BinaryExpression</title>
<path fill="none" stroke="#000000" stroke-width=".5" d="M413.2145,-9.5C423.3522,-9.5 433.6409,-9.5 443.8471,-9.5"/>
<polygon fill="#000000" stroke="#000000" stroke-width=".5" points="443.8497,-11.2501 448.8497,-9.5 443.8496,-7.7501 443.8497,-11.2501"/>
</g>
<!-- pyVHDLModel.SyntaxModel.LogicalExpression -->
<g id="node7" class="node">
<title>pyVHDLModel.SyntaxModel.LogicalExpression</title>
<g id="a_node7"><a xlink:title="A ``LogicalExpression`` is a base&#45;class for all logical expressions.">
<polygon fill="none" stroke="#000000" stroke-width=".5" points="966,-19 724,-19 724,0 966,0 966,-19"/>
<text text-anchor="middle" x="845" y="-7" font-family="Vera Sans, DejaVu Sans, Liberation Sans, Arial, Helvetica, sans" font-size="10.00" fill="#000000">pyVHDLModel.SyntaxModel.LogicalExpression</text>
</a>
</g>
</g>
<!-- pyVHDLModel.SyntaxModel.BinaryExpression&#45;&gt;pyVHDLModel.SyntaxModel.LogicalExpression -->
<g id="edge5" class="edge">
<title>pyVHDLModel.SyntaxModel.BinaryExpression&#45;&gt;pyVHDLModel.SyntaxModel.LogicalExpression</title>
<path fill="none" stroke="#000000" stroke-width=".5" d="M688.1688,-9.5C698.3284,-9.5 708.6244,-9.5 718.8318,-9.5"/>
<polygon fill="#000000" stroke="#000000" stroke-width=".5" points="718.8347,-11.2501 723.8346,-9.5 718.8346,-7.7501 718.8347,-11.2501"/>
</g>
<!-- pyVHDLModel.SyntaxModel.LogicalExpression&#45;&gt;pyVHDLModel.SyntaxModel.OrExpression -->
<g id="edge6" class="edge">
<title>pyVHDLModel.SyntaxModel.LogicalExpression&#45;&gt;pyVHDLModel.SyntaxModel.OrExpression</title>
<path fill="none" stroke="#000000" stroke-width=".5" d="M966.3239,-9.5C976.3586,-9.5 986.4826,-9.5 996.465,-9.5"/>
<polygon fill="#000000" stroke="#000000" stroke-width=".5" points="996.6711,-11.2501 1001.6711,-9.5 996.6711,-7.7501 996.6711,-11.2501"/>
</g>
</g>
</svg>
