<?xml version="1.0" encoding="UTF-8" standalone="no"?>
<!DOCTYPE svg PUBLIC "-//W3C//DTD SVG 1.1//EN"
 "http://www.w3.org/Graphics/SVG/1.1/DTD/svg11.dtd">
<!-- Generated by graphviz version 2.40.1 (20161225.0304)
 -->
<!-- Title: inheritance76d868bf9a Pages: 1 -->
<svg width="576pt" height="21pt"
 viewBox="0.00 0.00 576.00 21.42" xmlns="http://www.w3.org/2000/svg" xmlns:xlink="http://www.w3.org/1999/xlink">
<g id="graph0" class="graph" transform="scale(.3347 .3347) rotate(0) translate(4 60)">
<title>inheritance76d868bf9a</title>
<polygon fill="#ffffff" stroke="transparent" points="-4,4 -4,-60 1717,-60 1717,4 -4,4"/>
<!-- pyGHDL.dom.DOMMixin -->
<g id="node1" class="node">
<title>pyGHDL.dom.DOMMixin</title>
<g id="a_node1"><a xlink:href="../pyGHDL.dom.html#pyGHDL.dom.DOMMixin" xlink:title="pyGHDL.dom.DOMMixin" target="_top">
<polygon fill="none" stroke="#000000" stroke-width=".5" points="1390,-56 1256,-56 1256,-37 1390,-37 1390,-56"/>
<text text-anchor="middle" x="1323" y="-44" font-family="Vera Sans, DejaVu Sans, Liberation Sans, Arial, Helvetica, sans" font-size="10.00" fill="#000000">pyGHDL.dom.DOMMixin</text>
</a>
</g>
</g>
<!-- pyGHDL.dom.Literal.PhysicalIntegerLiteral -->
<g id="node2" class="node">
<title>pyGHDL.dom.Literal.PhysicalIntegerLiteral</title>
<g id="a_node2"><a xlink:href="../pyGHDL/pyGHDL.dom.Literal.html#pyGHDL.dom.Literal.PhysicalIntegerLiteral" xlink:title="pyGHDL.dom.Literal.PhysicalIntegerLiteral" target="_top">
<polygon fill="none" stroke="#000000" stroke-width=".5" points="1713,-37 1489,-37 1489,-18 1713,-18 1713,-37"/>
<text text-anchor="middle" x="1601" y="-25" font-family="Vera Sans, DejaVu Sans, Liberation Sans, Arial, Helvetica, sans" font-size="10.00" fill="#000000">pyGHDL.dom.Literal.PhysicalIntegerLiteral</text>
</a>
</g>
</g>
<!-- pyGHDL.dom.DOMMixin&#45;&gt;pyGHDL.dom.Literal.PhysicalIntegerLiteral -->
<g id="edge2" class="edge">
<title>pyGHDL.dom.DOMMixin&#45;&gt;pyGHDL.dom.Literal.PhysicalIntegerLiteral</title>
<path fill="none" stroke="#000000" stroke-width=".5" d="M1390.296,-41.9006C1418.3621,-39.9824 1451.799,-37.6972 1483.6765,-35.5185"/>
<polygon fill="#000000" stroke="#000000" stroke-width=".5" points="1483.9091,-37.2568 1488.7781,-35.1698 1483.6704,-33.7649 1483.9091,-37.2568"/>
</g>
<!-- pyVHDLModel.SyntaxModel.PhysicalIntegerLiteral -->
<g id="node3" class="node">
<title>pyVHDLModel.SyntaxModel.PhysicalIntegerLiteral</title>
<polygon fill="none" stroke="#000000" stroke-width=".5" points="1453,-19 1193,-19 1193,0 1453,0 1453,-19"/>
<text text-anchor="middle" x="1323" y="-7" font-family="Vera Sans, DejaVu Sans, Liberation Sans, Arial, Helvetica, sans" font-size="10.00" fill="#000000">pyVHDLModel.SyntaxModel.PhysicalIntegerLiteral</text>
</g>
<!-- pyVHDLModel.SyntaxModel.PhysicalIntegerLiteral&#45;&gt;pyGHDL.dom.Literal.PhysicalIntegerLiteral -->
<g id="edge1" class="edge">
<title>pyVHDLModel.SyntaxModel.PhysicalIntegerLiteral&#45;&gt;pyGHDL.dom.Literal.PhysicalIntegerLiteral</title>
<path fill="none" stroke="#000000" stroke-width=".5" d="M1453.0465,-17.9203C1463.369,-18.5886 1473.7577,-19.2613 1483.9834,-19.9234"/>
<polygon fill="#000000" stroke="#000000" stroke-width=".5" points="1483.8866,-21.6707 1488.9893,-20.2475 1484.1128,-18.178 1483.8866,-21.6707"/>
</g>
<!-- pyVHDLModel.ModelEntity -->
<g id="node4" class="node">
<title>pyVHDLModel.ModelEntity</title>
<g id="a_node4"><a xlink:title="``ModelEntity`` is the base class for all classes in the VHDL language model,">
<polygon fill="none" stroke="#000000" stroke-width=".5" points="146,-19 0,-19 0,0 146,0 146,-19"/>
<text text-anchor="middle" x="73" y="-7" font-family="Vera Sans, DejaVu Sans, Liberation Sans, Arial, Helvetica, sans" font-size="10.00" fill="#000000">pyVHDLModel.ModelEntity</text>
</a>
</g>
</g>
<!-- pyVHDLModel.SyntaxModel.BaseExpression -->
<g id="node5" class="node">
<title>pyVHDLModel.SyntaxModel.BaseExpression</title>
<g id="a_node5"><a xlink:title="A ``BaseExpression`` is a base&#45;class for all expressions.">
<polygon fill="none" stroke="#000000" stroke-width=".5" points="413,-19 182,-19 182,0 413,0 413,-19"/>
<text text-anchor="middle" x="297.5" y="-7" font-family="Vera Sans, DejaVu Sans, Liberation Sans, Arial, Helvetica, sans" font-size="10.00" fill="#000000">pyVHDLModel.SyntaxModel.BaseExpression</text>
</a>
</g>
</g>
<!-- pyVHDLModel.ModelEntity&#45;&gt;pyVHDLModel.SyntaxModel.BaseExpression -->
<g id="edge3" class="edge">
<title>pyVHDLModel.ModelEntity&#45;&gt;pyVHDLModel.SyntaxModel.BaseExpression</title>
<path fill="none" stroke="#000000" stroke-width=".5" d="M146.1991,-9.5C155.9857,-9.5 166.2247,-9.5 176.5627,-9.5"/>
<polygon fill="#000000" stroke="#000000" stroke-width=".5" points="176.6441,-11.2501 181.644,-9.5 176.644,-7.7501 176.6441,-11.2501"/>
</g>
<!-- pyVHDLModel.SyntaxModel.Literal -->
<g id="node6" class="node">
<title>pyVHDLModel.SyntaxModel.Literal</title>
<g id="a_node6"><a xlink:title="A ``Literal`` is a base&#45;class for all literals.">
<polygon fill="none" stroke="#000000" stroke-width=".5" points="634,-19 449,-19 449,0 634,0 634,-19"/>
<text text-anchor="middle" x="541.5" y="-7" font-family="Vera Sans, DejaVu Sans, Liberation Sans, Arial, Helvetica, sans" font-size="10.00" fill="#000000">pyVHDLModel.SyntaxModel.Literal</text>
</a>
</g>
</g>
<!-- pyVHDLModel.SyntaxModel.BaseExpression&#45;&gt;pyVHDLModel.SyntaxModel.Literal -->
<g id="edge4" class="edge">
<title>pyVHDLModel.SyntaxModel.BaseExpression&#45;&gt;pyVHDLModel.SyntaxModel.Literal</title>
<path fill="none" stroke="#000000" stroke-width=".5" d="M413.0691,-9.5C423.2436,-9.5 433.478,-9.5 443.4881,-9.5"/>
<polygon fill="#000000" stroke="#000000" stroke-width=".5" points="443.7009,-11.2501 448.7008,-9.5 443.7008,-7.7501 443.7009,-11.2501"/>
</g>
<!-- pyVHDLModel.SyntaxModel.NumericLiteral -->
<g id="node7" class="node">
<title>pyVHDLModel.SyntaxModel.NumericLiteral</title>
<g id="a_node7"><a xlink:title="A ``NumericLiteral`` is a base&#45;class for all numeric literals.">
<polygon fill="none" stroke="#000000" stroke-width=".5" points="896,-19 670,-19 670,0 896,0 896,-19"/>
<text text-anchor="middle" x="783" y="-7" font-family="Vera Sans, DejaVu Sans, Liberation Sans, Arial, Helvetica, sans" font-size="10.00" fill="#000000">pyVHDLModel.SyntaxModel.NumericLiteral</text>
</a>
</g>
</g>
<!-- pyVHDLModel.SyntaxModel.Literal&#45;&gt;pyVHDLModel.SyntaxModel.NumericLiteral -->
<g id="edge5" class="edge">
<title>pyVHDLModel.SyntaxModel.Literal&#45;&gt;pyVHDLModel.SyntaxModel.NumericLiteral</title>
<path fill="none" stroke="#000000" stroke-width=".5" d="M634.1795,-9.5C644.2389,-9.5 654.5734,-9.5 664.8823,-9.5"/>
<polygon fill="#000000" stroke="#000000" stroke-width=".5" points="664.9397,-11.2501 669.9396,-9.5 664.9396,-7.7501 664.9397,-11.2501"/>
</g>
<!-- pyVHDLModel.SyntaxModel.PhysicalLiteral -->
<g id="node8" class="node">
<title>pyVHDLModel.SyntaxModel.PhysicalLiteral</title>
<polygon fill="none" stroke="#000000" stroke-width=".5" points="1157,-19 932,-19 932,0 1157,0 1157,-19"/>
<text text-anchor="middle" x="1044.5" y="-7" font-family="Vera Sans, DejaVu Sans, Liberation Sans, Arial, Helvetica, sans" font-size="10.00" fill="#000000">pyVHDLModel.SyntaxModel.PhysicalLiteral</text>
</g>
<!-- pyVHDLModel.SyntaxModel.NumericLiteral&#45;&gt;pyVHDLModel.SyntaxModel.PhysicalLiteral -->
<g id="edge7" class="edge">
<title>pyVHDLModel.SyntaxModel.NumericLiteral&#45;&gt;pyVHDLModel.SyntaxModel.PhysicalLiteral</title>
<path fill="none" stroke="#000000" stroke-width=".5" d="M896.1768,-9.5C906.3784,-9.5 916.7253,-9.5 926.9631,-9.5"/>
<polygon fill="#000000" stroke="#000000" stroke-width=".5" points="926.9791,-11.2501 931.979,-9.5 926.979,-7.7501 926.9791,-11.2501"/>
</g>
<!-- pyVHDLModel.SyntaxModel.PhysicalLiteral&#45;&gt;pyVHDLModel.SyntaxModel.PhysicalIntegerLiteral -->
<g id="edge6" class="edge">
<title>pyVHDLModel.SyntaxModel.PhysicalLiteral&#45;&gt;pyVHDLModel.SyntaxModel.PhysicalIntegerLiteral</title>
<path fill="none" stroke="#000000" stroke-width=".5" d="M1157.3751,-9.5C1167.2618,-9.5 1177.3327,-9.5 1187.3783,-9.5"/>
<polygon fill="#000000" stroke="#000000" stroke-width=".5" points="1187.6281,-11.2501 1192.6281,-9.5 1187.6281,-7.7501 1187.6281,-11.2501"/>
</g>
</g>
</svg>
