<?xml version="1.0" encoding="UTF-8" standalone="no"?>
<!DOCTYPE svg PUBLIC "-//W3C//DTD SVG 1.1//EN"
 "http://www.w3.org/Graphics/SVG/1.1/DTD/svg11.dtd">
<!-- Generated by graphviz version 2.40.1 (20161225.0304)
 -->
<!-- Title: inheritance38167ced73 Pages: 1 -->
<svg width="576pt" height="28pt"
 viewBox="0.00 0.00 576.00 27.78" xmlns="http://www.w3.org/2000/svg" xmlns:xlink="http://www.w3.org/1999/xlink">
<g id="graph0" class="graph" transform="scale(.4341 .4341) rotate(0) translate(4 60)">
<title>inheritance38167ced73</title>
<polygon fill="#ffffff" stroke="transparent" points="-4,4 -4,-60 1323,-60 1323,4 -4,4"/>
<!-- pyGHDL.dom.DOMMixin -->
<g id="node1" class="node">
<title>pyGHDL.dom.DOMMixin</title>
<g id="a_node1"><a xlink:href="../pyGHDL.dom.html#pyGHDL.dom.DOMMixin" xlink:title="pyGHDL.dom.DOMMixin" target="_top">
<polygon fill="none" stroke="#000000" stroke-width=".5" points="901.5,-56 767.5,-56 767.5,-37 901.5,-37 901.5,-56"/>
<text text-anchor="middle" x="834.5" y="-44" font-family="Vera Sans, DejaVu Sans, Liberation Sans, Arial, Helvetica, sans" font-size="10.00" fill="#000000">pyGHDL.dom.DOMMixin</text>
</a>
</g>
</g>
<!-- pyGHDL.dom.Symbol.ConstrainedScalarSubtypeSymbol -->
<g id="node2" class="node">
<title>pyGHDL.dom.Symbol.ConstrainedScalarSubtypeSymbol</title>
<g id="a_node2"><a xlink:href="../pyGHDL/pyGHDL.dom.Symbol.html#pyGHDL.dom.Symbol.ConstrainedScalarSubtypeSymbol" xlink:title="pyGHDL.dom.Symbol.ConstrainedScalarSubtypeSymbol" target="_top">
<polygon fill="none" stroke="#000000" stroke-width=".5" points="1319,-37 1030,-37 1030,-18 1319,-18 1319,-37"/>
<text text-anchor="middle" x="1174.5" y="-25" font-family="Vera Sans, DejaVu Sans, Liberation Sans, Arial, Helvetica, sans" font-size="10.00" fill="#000000">pyGHDL.dom.Symbol.ConstrainedScalarSubtypeSymbol</text>
</a>
</g>
</g>
<!-- pyGHDL.dom.DOMMixin&#45;&gt;pyGHDL.dom.Symbol.ConstrainedScalarSubtypeSymbol -->
<g id="edge2" class="edge">
<title>pyGHDL.dom.DOMMixin&#45;&gt;pyGHDL.dom.Symbol.ConstrainedScalarSubtypeSymbol</title>
<path fill="none" stroke="#000000" stroke-width=".5" d="M901.6731,-42.7462C936.9141,-40.7769 981.5984,-38.2798 1024.551,-35.8795"/>
<polygon fill="#000000" stroke="#000000" stroke-width=".5" points="1024.8852,-37.6136 1029.7798,-35.5873 1024.6899,-34.1191 1024.8852,-37.6136"/>
</g>
<!-- pyVHDLModel.SyntaxModel.ConstrainedScalarSubtypeSymbol -->
<g id="node3" class="node">
<title>pyVHDLModel.SyntaxModel.ConstrainedScalarSubtypeSymbol</title>
<polygon fill="none" stroke="#000000" stroke-width=".5" points="994,-19 675,-19 675,0 994,0 994,-19"/>
<text text-anchor="middle" x="834.5" y="-7" font-family="Vera Sans, DejaVu Sans, Liberation Sans, Arial, Helvetica, sans" font-size="10.00" fill="#000000">pyVHDLModel.SyntaxModel.ConstrainedScalarSubtypeSymbol</text>
</g>
<!-- pyVHDLModel.SyntaxModel.ConstrainedScalarSubtypeSymbol&#45;&gt;pyGHDL.dom.Symbol.ConstrainedScalarSubtypeSymbol -->
<g id="edge1" class="edge">
<title>pyVHDLModel.SyntaxModel.ConstrainedScalarSubtypeSymbol&#45;&gt;pyGHDL.dom.Symbol.ConstrainedScalarSubtypeSymbol</title>
<path fill="none" stroke="#000000" stroke-width=".5" d="M994.0469,-17.9466C1004.3518,-18.4922 1014.708,-19.0404 1024.9635,-19.5834"/>
<polygon fill="#000000" stroke="#000000" stroke-width=".5" points="1024.9037,-21.3326 1029.9892,-19.8494 1025.0888,-17.8374 1024.9037,-21.3326"/>
</g>
<!-- pyVHDLModel.ModelEntity -->
<g id="node4" class="node">
<title>pyVHDLModel.ModelEntity</title>
<g id="a_node4"><a xlink:title="``ModelEntity`` is the base class for all classes in the VHDL language model,">
<polygon fill="none" stroke="#000000" stroke-width=".5" points="146,-19 0,-19 0,0 146,0 146,-19"/>
<text text-anchor="middle" x="73" y="-7" font-family="Vera Sans, DejaVu Sans, Liberation Sans, Arial, Helvetica, sans" font-size="10.00" fill="#000000">pyVHDLModel.ModelEntity</text>
</a>
</g>
</g>
<!-- pyVHDLModel.SyntaxModel.Symbol -->
<g id="node6" class="node">
<title>pyVHDLModel.SyntaxModel.Symbol</title>
<polygon fill="none" stroke="#000000" stroke-width=".5" points="373,-19 182,-19 182,0 373,0 373,-19"/>
<text text-anchor="middle" x="277.5" y="-7" font-family="Vera Sans, DejaVu Sans, Liberation Sans, Arial, Helvetica, sans" font-size="10.00" fill="#000000">pyVHDLModel.SyntaxModel.Symbol</text>
</g>
<!-- pyVHDLModel.ModelEntity&#45;&gt;pyVHDLModel.SyntaxModel.Symbol -->
<g id="edge5" class="edge">
<title>pyVHDLModel.ModelEntity&#45;&gt;pyVHDLModel.SyntaxModel.Symbol</title>
<path fill="none" stroke="#000000" stroke-width=".5" d="M146.2516,-9.5C156.1992,-9.5 166.5459,-9.5 176.8707,-9.5"/>
<polygon fill="#000000" stroke="#000000" stroke-width=".5" points="176.9356,-11.2501 181.9356,-9.5 176.9355,-7.7501 176.9356,-11.2501"/>
</g>
<!-- pyVHDLModel.SyntaxModel.SubtypeSymbol -->
<g id="node5" class="node">
<title>pyVHDLModel.SyntaxModel.SubtypeSymbol</title>
<polygon fill="none" stroke="#000000" stroke-width=".5" points="639,-19 409,-19 409,0 639,0 639,-19"/>
<text text-anchor="middle" x="524" y="-7" font-family="Vera Sans, DejaVu Sans, Liberation Sans, Arial, Helvetica, sans" font-size="10.00" fill="#000000">pyVHDLModel.SyntaxModel.SubtypeSymbol</text>
</g>
<!-- pyVHDLModel.SyntaxModel.SubtypeSymbol&#45;&gt;pyVHDLModel.SyntaxModel.ConstrainedScalarSubtypeSymbol -->
<g id="edge3" class="edge">
<title>pyVHDLModel.SyntaxModel.SubtypeSymbol&#45;&gt;pyVHDLModel.SyntaxModel.ConstrainedScalarSubtypeSymbol</title>
<path fill="none" stroke="#000000" stroke-width=".5" d="M639.1775,-9.5C649.189,-9.5 659.4391,-9.5 669.7453,-9.5"/>
<polygon fill="#000000" stroke="#000000" stroke-width=".5" points="669.8084,-11.2501 674.8084,-9.5 669.8083,-7.7501 669.8084,-11.2501"/>
</g>
<!-- pyVHDLModel.SyntaxModel.Symbol&#45;&gt;pyVHDLModel.SyntaxModel.SubtypeSymbol -->
<g id="edge4" class="edge">
<title>pyVHDLModel.SyntaxModel.Symbol&#45;&gt;pyVHDLModel.SyntaxModel.SubtypeSymbol</title>
<path fill="none" stroke="#000000" stroke-width=".5" d="M373.1561,-9.5C383.1579,-9.5 393.4153,-9.5 403.646,-9.5"/>
<polygon fill="#000000" stroke="#000000" stroke-width=".5" points="403.6651,-11.2501 408.665,-9.5 403.665,-7.7501 403.6651,-11.2501"/>
</g>
</g>
</svg>
