<?xml version="1.0" encoding="UTF-8" standalone="no"?>
<!DOCTYPE svg PUBLIC "-//W3C//DTD SVG 1.1//EN"
 "http://www.w3.org/Graphics/SVG/1.1/DTD/svg11.dtd">
<!-- Generated by graphviz version 2.40.1 (20161225.0304)
 -->
<!-- Title: inheritance968846f823 Pages: 1 -->
<svg width="576pt" height="56pt"
 viewBox="0.00 0.00 576.00 56.28" xmlns="http://www.w3.org/2000/svg" xmlns:xlink="http://www.w3.org/1999/xlink">
<g id="graph0" class="graph" transform="scale(.8794 .8794) rotate(0) translate(4 60)">
<title>inheritance968846f823</title>
<polygon fill="#ffffff" stroke="transparent" points="-4,4 -4,-60 651,-60 651,4 -4,4"/>
<!-- pyGHDL.dom.DOMMixin -->
<g id="node1" class="node">
<title>pyGHDL.dom.DOMMixin</title>
<g id="a_node1"><a xlink:href="../pyGHDL.dom.html#pyGHDL.dom.DOMMixin" xlink:title="pyGHDL.dom.DOMMixin" target="_top">
<polygon fill="none" stroke="#000000" stroke-width=".5" points="392,-56 258,-56 258,-37 392,-37 392,-56"/>
<text text-anchor="middle" x="325" y="-44" font-family="Vera Sans, DejaVu Sans, Liberation Sans, Arial, Helvetica, sans" font-size="10.00" fill="#000000">pyGHDL.dom.DOMMixin</text>
</a>
</g>
</g>
<!-- pyGHDL.dom.Names.SlicedName -->
<g id="node2" class="node">
<title>pyGHDL.dom.Names.SlicedName</title>
<g id="a_node2"><a xlink:href="../pyGHDL/pyGHDL.dom.Names.html#pyGHDL.dom.Names.SlicedName" xlink:title="pyGHDL.dom.Names.SlicedName" target="_top">
<polygon fill="none" stroke="#000000" stroke-width=".5" points="647,-37 467,-37 467,-18 647,-18 647,-37"/>
<text text-anchor="middle" x="557" y="-25" font-family="Vera Sans, DejaVu Sans, Liberation Sans, Arial, Helvetica, sans" font-size="10.00" fill="#000000">pyGHDL.dom.Names.SlicedName</text>
</a>
</g>
</g>
<!-- pyGHDL.dom.DOMMixin&#45;&gt;pyGHDL.dom.Names.SlicedName -->
<g id="edge2" class="edge">
<title>pyGHDL.dom.DOMMixin&#45;&gt;pyGHDL.dom.Names.SlicedName</title>
<path fill="none" stroke="#000000" stroke-width=".5" d="M392.104,-41.0044C413.7523,-39.2315 438.1816,-37.2308 461.4736,-35.3233"/>
<polygon fill="#000000" stroke="#000000" stroke-width=".5" points="461.8966,-37.0446 466.7371,-34.8922 461.6109,-33.5563 461.8966,-37.0446"/>
</g>
<!-- pyVHDLModel.SyntaxModel.SlicedName -->
<g id="node3" class="node">
<title>pyVHDLModel.SyntaxModel.SlicedName</title>
<polygon fill="none" stroke="#000000" stroke-width=".5" points="431,-19 219,-19 219,0 431,0 431,-19"/>
<text text-anchor="middle" x="325" y="-7" font-family="Vera Sans, DejaVu Sans, Liberation Sans, Arial, Helvetica, sans" font-size="10.00" fill="#000000">pyVHDLModel.SyntaxModel.SlicedName</text>
</g>
<!-- pyVHDLModel.SyntaxModel.SlicedName&#45;&gt;pyGHDL.dom.Names.SlicedName -->
<g id="edge1" class="edge">
<title>pyVHDLModel.SyntaxModel.SlicedName&#45;&gt;pyGHDL.dom.Names.SlicedName</title>
<path fill="none" stroke="#000000" stroke-width=".5" d="M431.1551,-17.7362C441.3154,-18.5245 451.5771,-19.3206 461.6255,-20.1003"/>
<polygon fill="#000000" stroke="#000000" stroke-width=".5" points="461.7387,-21.8642 466.8591,-20.5063 462.0095,-18.3747 461.7387,-21.8642"/>
</g>
<!-- pyVHDLModel.SyntaxModel.Name -->
<g id="node4" class="node">
<title>pyVHDLModel.SyntaxModel.Name</title>
<g id="a_node4"><a xlink:title="``Name`` is the base class for all *names* in the VHDL language model.">
<polygon fill="none" stroke="#000000" stroke-width=".5" points="183,-19 0,-19 0,0 183,0 183,-19"/>
<text text-anchor="middle" x="91.5" y="-7" font-family="Vera Sans, DejaVu Sans, Liberation Sans, Arial, Helvetica, sans" font-size="10.00" fill="#000000">pyVHDLModel.SyntaxModel.Name</text>
</a>
</g>
</g>
<!-- pyVHDLModel.SyntaxModel.Name&#45;&gt;pyVHDLModel.SyntaxModel.SlicedName -->
<g id="edge3" class="edge">
<title>pyVHDLModel.SyntaxModel.Name&#45;&gt;pyVHDLModel.SyntaxModel.SlicedName</title>
<path fill="none" stroke="#000000" stroke-width=".5" d="M183.1152,-9.5C193.2167,-9.5 203.5818,-9.5 213.8881,-9.5"/>
<polygon fill="#000000" stroke="#000000" stroke-width=".5" points="213.9415,-11.2501 218.9415,-9.5 213.9414,-7.7501 213.9415,-11.2501"/>
</g>
</g>
</svg>
