<?xml version="1.0" encoding="UTF-8" standalone="no"?>
<!DOCTYPE svg PUBLIC "-//W3C//DTD SVG 1.1//EN"
 "http://www.w3.org/Graphics/SVG/1.1/DTD/svg11.dtd">
<!-- Generated by graphviz version 2.40.1 (20161225.0304)
 -->
<!-- Title: inheritance8d43c99fd2 Pages: 1 -->
<svg width="576pt" height="45pt"
 viewBox="0.00 0.00 576.00 44.52" xmlns="http://www.w3.org/2000/svg" xmlns:xlink="http://www.w3.org/1999/xlink">
<g id="graph0" class="graph" transform="scale(.5429 .5429) rotate(0) translate(4 78)">
<title>inheritance8d43c99fd2</title>
<polygon fill="#ffffff" stroke="transparent" points="-4,4 -4,-78 1057,-78 1057,4 -4,4"/>
<!-- pyGHDL.dom.DOMMixin -->
<g id="node1" class="node">
<title>pyGHDL.dom.DOMMixin</title>
<g id="a_node1"><a xlink:href="../pyGHDL.dom.html#pyGHDL.dom.DOMMixin" xlink:title="pyGHDL.dom.DOMMixin" target="_top">
<polygon fill="none" stroke="#000000" stroke-width=".5" points="721.5,-74 587.5,-74 587.5,-55 721.5,-55 721.5,-74"/>
<text text-anchor="middle" x="654.5" y="-62" font-family="Vera Sans, DejaVu Sans, Liberation Sans, Arial, Helvetica, sans" font-size="10.00" fill="#000000">pyGHDL.dom.DOMMixin</text>
</a>
</g>
</g>
<!-- pyGHDL.dom.Expression.QualifiedExpression -->
<g id="node2" class="node">
<title>pyGHDL.dom.Expression.QualifiedExpression</title>
<g id="a_node2"><a xlink:href="../pyGHDL/pyGHDL.dom.Expression.html#pyGHDL.dom.Expression.QualifiedExpression" xlink:title="pyGHDL.dom.Expression.QualifiedExpression" target="_top">
<polygon fill="none" stroke="#000000" stroke-width=".5" points="1053,-55 816,-55 816,-36 1053,-36 1053,-55"/>
<text text-anchor="middle" x="934.5" y="-43" font-family="Vera Sans, DejaVu Sans, Liberation Sans, Arial, Helvetica, sans" font-size="10.00" fill="#000000">pyGHDL.dom.Expression.QualifiedExpression</text>
</a>
</g>
</g>
<!-- pyGHDL.dom.DOMMixin&#45;&gt;pyGHDL.dom.Expression.QualifiedExpression -->
<g id="edge2" class="edge">
<title>pyGHDL.dom.DOMMixin&#45;&gt;pyGHDL.dom.Expression.QualifiedExpression</title>
<path fill="none" stroke="#000000" stroke-width=".5" d="M721.567,-59.949C748.3315,-58.1329 780.0301,-55.9819 810.6801,-53.9021"/>
<polygon fill="#000000" stroke="#000000" stroke-width=".5" points="811.1178,-55.6265 815.9879,-53.5419 810.8808,-52.1345 811.1178,-55.6265"/>
</g>
<!-- pyVHDLModel.SyntaxModel.QualifiedExpression -->
<g id="node3" class="node">
<title>pyVHDLModel.SyntaxModel.QualifiedExpression</title>
<polygon fill="none" stroke="#000000" stroke-width=".5" points="780,-37 529,-37 529,-18 780,-18 780,-37"/>
<text text-anchor="middle" x="654.5" y="-25" font-family="Vera Sans, DejaVu Sans, Liberation Sans, Arial, Helvetica, sans" font-size="10.00" fill="#000000">pyVHDLModel.SyntaxModel.QualifiedExpression</text>
</g>
<!-- pyVHDLModel.SyntaxModel.QualifiedExpression&#45;&gt;pyGHDL.dom.Expression.QualifiedExpression -->
<g id="edge1" class="edge">
<title>pyVHDLModel.SyntaxModel.QualifiedExpression&#45;&gt;pyGHDL.dom.Expression.QualifiedExpression</title>
<path fill="none" stroke="#000000" stroke-width=".5" d="M780.1669,-35.5786C790.1949,-36.2232 800.3219,-36.8743 810.3395,-37.5183"/>
<polygon fill="#000000" stroke="#000000" stroke-width=".5" points="810.4649,-39.2798 815.5669,-37.8543 810.6895,-35.787 810.4649,-39.2798"/>
</g>
<!-- pyVHDLModel.ModelEntity -->
<g id="node4" class="node">
<title>pyVHDLModel.ModelEntity</title>
<g id="a_node4"><a xlink:title="``ModelEntity`` is the base class for all classes in the VHDL language model,">
<polygon fill="none" stroke="#000000" stroke-width=".5" points="170,-56 24,-56 24,-37 170,-37 170,-56"/>
<text text-anchor="middle" x="97" y="-44" font-family="Vera Sans, DejaVu Sans, Liberation Sans, Arial, Helvetica, sans" font-size="10.00" fill="#000000">pyVHDLModel.ModelEntity</text>
</a>
</g>
</g>
<!-- pyVHDLModel.SyntaxModel.BaseExpression -->
<g id="node5" class="node">
<title>pyVHDLModel.SyntaxModel.BaseExpression</title>
<g id="a_node5"><a xlink:title="A ``BaseExpression`` is a base&#45;class for all expressions.">
<polygon fill="none" stroke="#000000" stroke-width=".5" points="477,-56 246,-56 246,-37 477,-37 477,-56"/>
<text text-anchor="middle" x="361.5" y="-44" font-family="Vera Sans, DejaVu Sans, Liberation Sans, Arial, Helvetica, sans" font-size="10.00" fill="#000000">pyVHDLModel.SyntaxModel.BaseExpression</text>
</a>
</g>
</g>
<!-- pyVHDLModel.ModelEntity&#45;&gt;pyVHDLModel.SyntaxModel.BaseExpression -->
<g id="edge3" class="edge">
<title>pyVHDLModel.ModelEntity&#45;&gt;pyVHDLModel.SyntaxModel.BaseExpression</title>
<path fill="none" stroke="#000000" stroke-width=".5" d="M170.3267,-46.5C192.1649,-46.5 216.6975,-46.5 240.7214,-46.5"/>
<polygon fill="#000000" stroke="#000000" stroke-width=".5" points="240.839,-48.2501 245.8389,-46.5 240.8389,-44.7501 240.839,-48.2501"/>
</g>
<!-- pyVHDLModel.SyntaxModel.BaseExpression&#45;&gt;pyVHDLModel.SyntaxModel.QualifiedExpression -->
<g id="edge5" class="edge">
<title>pyVHDLModel.SyntaxModel.BaseExpression&#45;&gt;pyVHDLModel.SyntaxModel.QualifiedExpression</title>
<path fill="none" stroke="#000000" stroke-width=".5" d="M477.3014,-38.9907C492.5349,-38.0029 508.232,-36.985 523.6933,-35.9823"/>
<polygon fill="#000000" stroke="#000000" stroke-width=".5" points="524.0504,-37.713 528.9267,-35.643 523.8239,-34.2203 524.0504,-37.713"/>
</g>
<!-- pyVHDLModel.SyntaxModel.ParenthesisExpression -->
<g id="node6" class="node">
<title>pyVHDLModel.SyntaxModel.ParenthesisExpression</title>
<polygon fill="none" stroke="#000000" stroke-width=".5" points="493,-19 230,-19 230,0 493,0 493,-19"/>
<text text-anchor="middle" x="361.5" y="-7" font-family="Vera Sans, DejaVu Sans, Liberation Sans, Arial, Helvetica, sans" font-size="10.00" fill="#000000">pyVHDLModel.SyntaxModel.ParenthesisExpression</text>
</g>
<!-- pyVHDLModel.SyntaxModel.ParenthesisExpression&#45;&gt;pyVHDLModel.SyntaxModel.QualifiedExpression -->
<g id="edge6" class="edge">
<title>pyVHDLModel.SyntaxModel.ParenthesisExpression&#45;&gt;pyVHDLModel.SyntaxModel.QualifiedExpression</title>
<path fill="none" stroke="#000000" stroke-width=".5" d="M493.0014,-17.5786C503.199,-18.2051 513.4946,-18.8376 523.6877,-19.4637"/>
<polygon fill="#000000" stroke="#000000" stroke-width=".5" points="523.5845,-21.2106 528.6825,-19.7706 523.7992,-17.7172 523.5845,-21.2106"/>
</g>
<!-- pyVHDLModel.SyntaxModel.Protocol -->
<g id="node7" class="node">
<title>pyVHDLModel.SyntaxModel.Protocol</title>
<polygon fill="none" stroke="#000000" stroke-width=".5" points="194,-19 0,-19 0,0 194,0 194,-19"/>
<text text-anchor="middle" x="97" y="-7" font-family="Vera Sans, DejaVu Sans, Liberation Sans, Arial, Helvetica, sans" font-size="10.00" fill="#000000">pyVHDLModel.SyntaxModel.Protocol</text>
</g>
<!-- pyVHDLModel.SyntaxModel.Protocol&#45;&gt;pyVHDLModel.SyntaxModel.ParenthesisExpression -->
<g id="edge4" class="edge">
<title>pyVHDLModel.SyntaxModel.Protocol&#45;&gt;pyVHDLModel.SyntaxModel.ParenthesisExpression</title>
<path fill="none" stroke="#000000" stroke-width=".5" d="M194.3632,-9.5C204.2369,-9.5 214.39,-9.5 224.5801,-9.5"/>
<polygon fill="#000000" stroke="#000000" stroke-width=".5" points="224.5845,-11.2501 229.5845,-9.5 224.5844,-7.7501 224.5845,-11.2501"/>
</g>
</g>
</svg>
