<?xml version="1.0" encoding="UTF-8" standalone="no"?>
<!DOCTYPE svg PUBLIC "-//W3C//DTD SVG 1.1//EN"
 "http://www.w3.org/Graphics/SVG/1.1/DTD/svg11.dtd">
<!-- Generated by graphviz version 2.40.1 (20161225.0304)
 -->
<!-- Title: inheritancea27ca74e42 Pages: 1 -->
<svg width="576pt" height="55pt"
 viewBox="0.00 0.00 576.00 54.79" xmlns="http://www.w3.org/2000/svg" xmlns:xlink="http://www.w3.org/1999/xlink">
<g id="graph0" class="graph" transform="scale(.4604 .4604) rotate(0) translate(4 115)">
<title>inheritancea27ca74e42</title>
<polygon fill="#ffffff" stroke="transparent" points="-4,4 -4,-115 1247,-115 1247,4 -4,4"/>
<!-- pyGHDL.dom.Sequential.IfBranch -->
<g id="node1" class="node">
<title>pyGHDL.dom.Sequential.IfBranch</title>
<g id="a_node1"><a xlink:href="../pyGHDL/pyGHDL.dom.Sequential.html#pyGHDL.dom.Sequential.IfBranch" xlink:title="pyGHDL.dom.Sequential.IfBranch" target="_top">
<polygon fill="none" stroke="#000000" stroke-width=".5" points="1243,-55 1064,-55 1064,-36 1243,-36 1243,-55"/>
<text text-anchor="middle" x="1153.5" y="-43" font-family="Vera Sans, DejaVu Sans, Liberation Sans, Arial, Helvetica, sans" font-size="10.00" fill="#000000">pyGHDL.dom.Sequential.IfBranch</text>
</a>
</g>
</g>
<!-- pyVHDLModel.SyntaxModel.IfBranch -->
<g id="node2" class="node">
<title>pyVHDLModel.SyntaxModel.IfBranch</title>
<polygon fill="none" stroke="#000000" stroke-width=".5" points="1028,-55 834,-55 834,-36 1028,-36 1028,-55"/>
<text text-anchor="middle" x="931" y="-43" font-family="Vera Sans, DejaVu Sans, Liberation Sans, Arial, Helvetica, sans" font-size="10.00" fill="#000000">pyVHDLModel.SyntaxModel.IfBranch</text>
</g>
<!-- pyVHDLModel.SyntaxModel.IfBranch&#45;&gt;pyGHDL.dom.Sequential.IfBranch -->
<g id="edge1" class="edge">
<title>pyVHDLModel.SyntaxModel.IfBranch&#45;&gt;pyGHDL.dom.Sequential.IfBranch</title>
<path fill="none" stroke="#000000" stroke-width=".5" d="M1028.2681,-45.5C1038.3255,-45.5 1048.5378,-45.5 1058.5692,-45.5"/>
<polygon fill="#000000" stroke="#000000" stroke-width=".5" points="1058.7967,-47.2501 1063.7967,-45.5 1058.7967,-43.7501 1058.7967,-47.2501"/>
</g>
<!-- pyVHDLModel.ModelEntity -->
<g id="node3" class="node">
<title>pyVHDLModel.ModelEntity</title>
<g id="a_node3"><a xlink:title="``ModelEntity`` is the base class for all classes in the VHDL language model,">
<polygon fill="none" stroke="#000000" stroke-width=".5" points="479.5,-111 333.5,-111 333.5,-92 479.5,-92 479.5,-111"/>
<text text-anchor="middle" x="406.5" y="-99" font-family="Vera Sans, DejaVu Sans, Liberation Sans, Arial, Helvetica, sans" font-size="10.00" fill="#000000">pyVHDLModel.ModelEntity</text>
</a>
</g>
</g>
<!-- pyVHDLModel.SyntaxModel.Branch -->
<g id="node4" class="node">
<title>pyVHDLModel.SyntaxModel.Branch</title>
<g id="a_node4"><a xlink:title="A ``Branch`` is a base&#45;class for all branches in a if statement.">
<polygon fill="none" stroke="#000000" stroke-width=".5" points="781.5,-74 593.5,-74 593.5,-55 781.5,-55 781.5,-74"/>
<text text-anchor="middle" x="687.5" y="-62" font-family="Vera Sans, DejaVu Sans, Liberation Sans, Arial, Helvetica, sans" font-size="10.00" fill="#000000">pyVHDLModel.SyntaxModel.Branch</text>
</a>
</g>
</g>
<!-- pyVHDLModel.ModelEntity&#45;&gt;pyVHDLModel.SyntaxModel.Branch -->
<g id="edge2" class="edge">
<title>pyVHDLModel.ModelEntity&#45;&gt;pyVHDLModel.SyntaxModel.Branch</title>
<path fill="none" stroke="#000000" stroke-width=".5" d="M478.8645,-91.9716C518.8605,-86.7052 568.5763,-80.159 609.4435,-74.7779"/>
<polygon fill="#000000" stroke="#000000" stroke-width=".5" points="610.1642,-76.4482 614.8929,-74.0604 609.7072,-72.9781 610.1642,-76.4482"/>
</g>
<!-- pyVHDLModel.SyntaxModel.Branch&#45;&gt;pyVHDLModel.SyntaxModel.IfBranch -->
<g id="edge4" class="edge">
<title>pyVHDLModel.SyntaxModel.Branch&#45;&gt;pyVHDLModel.SyntaxModel.IfBranch</title>
<path fill="none" stroke="#000000" stroke-width=".5" d="M781.6435,-57.1541C797.0339,-55.9532 813.0456,-54.7038 828.623,-53.4883"/>
<polygon fill="#000000" stroke="#000000" stroke-width=".5" points="829.039,-55.2113 833.8877,-53.0776 828.7666,-51.7219 829.039,-55.2113"/>
</g>
<!-- pyVHDLModel.SyntaxModel.SequentialStatements -->
<g id="node5" class="node">
<title>pyVHDLModel.SyntaxModel.SequentialStatements</title>
<polygon fill="none" stroke="#000000" stroke-width=".5" points="537.5,-74 275.5,-74 275.5,-55 537.5,-55 537.5,-74"/>
<text text-anchor="middle" x="406.5" y="-62" font-family="Vera Sans, DejaVu Sans, Liberation Sans, Arial, Helvetica, sans" font-size="10.00" fill="#000000">pyVHDLModel.SyntaxModel.SequentialStatements</text>
</g>
<!-- pyVHDLModel.SyntaxModel.SequentialStatements&#45;&gt;pyVHDLModel.SyntaxModel.Branch -->
<g id="edge3" class="edge">
<title>pyVHDLModel.SyntaxModel.SequentialStatements&#45;&gt;pyVHDLModel.SyntaxModel.Branch</title>
<path fill="none" stroke="#000000" stroke-width=".5" d="M537.5391,-64.5C554.5255,-64.5 571.6972,-64.5 588.055,-64.5"/>
<polygon fill="#000000" stroke="#000000" stroke-width=".5" points="588.1043,-66.2501 593.1043,-64.5 588.1042,-62.7501 588.1043,-66.2501"/>
</g>
<!-- pyVHDLModel.SyntaxModel.MixinIfBranch -->
<g id="node6" class="node">
<title>pyVHDLModel.SyntaxModel.MixinIfBranch</title>
<g id="a_node6"><a xlink:title="A ``BaseIfBranch`` is a mixin&#45;class for all if&#45;branches.">
<polygon fill="none" stroke="#000000" stroke-width=".5" points="798,-37 577,-37 577,-18 798,-18 798,-37"/>
<text text-anchor="middle" x="687.5" y="-25" font-family="Vera Sans, DejaVu Sans, Liberation Sans, Arial, Helvetica, sans" font-size="10.00" fill="#000000">pyVHDLModel.SyntaxModel.MixinIfBranch</text>
</a>
</g>
</g>
<!-- pyVHDLModel.SyntaxModel.MixinIfBranch&#45;&gt;pyVHDLModel.SyntaxModel.IfBranch -->
<g id="edge5" class="edge">
<title>pyVHDLModel.SyntaxModel.MixinIfBranch&#45;&gt;pyVHDLModel.SyntaxModel.IfBranch</title>
<path fill="none" stroke="#000000" stroke-width=".5" d="M798.2061,-35.6836C808.3697,-36.4349 818.6367,-37.1939 828.7207,-37.9393"/>
<polygon fill="#000000" stroke="#000000" stroke-width=".5" points="828.8604,-39.7043 833.9759,-38.3278 829.1185,-36.2139 828.8604,-39.7043"/>
</g>
<!-- pyVHDLModel.SyntaxModel.MixinBranch -->
<g id="node7" class="node">
<title>pyVHDLModel.SyntaxModel.MixinBranch</title>
<g id="a_node7"><a xlink:title="A ``BaseBranch`` is a mixin&#45;class for all statements with branches.">
<polygon fill="none" stroke="#000000" stroke-width=".5" points="225,-56 11,-56 11,-37 225,-37 225,-56"/>
<text text-anchor="middle" x="118" y="-44" font-family="Vera Sans, DejaVu Sans, Liberation Sans, Arial, Helvetica, sans" font-size="10.00" fill="#000000">pyVHDLModel.SyntaxModel.MixinBranch</text>
</a>
</g>
</g>
<!-- pyVHDLModel.SyntaxModel.MixinConditionalBranch -->
<g id="node9" class="node">
<title>pyVHDLModel.SyntaxModel.MixinConditionalBranch</title>
<g id="a_node9"><a xlink:title="A ``BaseBranch`` is a mixin&#45;class for all branch statements with a condition.">
<polygon fill="none" stroke="#000000" stroke-width=".5" points="541,-37 272,-37 272,-18 541,-18 541,-37"/>
<text text-anchor="middle" x="406.5" y="-25" font-family="Vera Sans, DejaVu Sans, Liberation Sans, Arial, Helvetica, sans" font-size="10.00" fill="#000000">pyVHDLModel.SyntaxModel.MixinConditionalBranch</text>
</a>
</g>
</g>
<!-- pyVHDLModel.SyntaxModel.MixinBranch&#45;&gt;pyVHDLModel.SyntaxModel.MixinConditionalBranch -->
<g id="edge6" class="edge">
<title>pyVHDLModel.SyntaxModel.MixinBranch&#45;&gt;pyVHDLModel.SyntaxModel.MixinConditionalBranch</title>
<path fill="none" stroke="#000000" stroke-width=".5" d="M225.0168,-39.4521C238.5847,-38.5585 252.6244,-37.6339 266.6094,-36.7129"/>
<polygon fill="#000000" stroke="#000000" stroke-width=".5" points="266.8842,-38.4487 271.7583,-36.3738 266.6541,-34.9563 266.8842,-38.4487"/>
</g>
<!-- pyVHDLModel.SyntaxModel.MixinConditional -->
<g id="node8" class="node">
<title>pyVHDLModel.SyntaxModel.MixinConditional</title>
<g id="a_node8"><a xlink:title="A ``BaseConditional`` is a mixin&#45;class for all statements with a condition.">
<polygon fill="none" stroke="#000000" stroke-width=".5" points="236,-19 0,-19 0,0 236,0 236,-19"/>
<text text-anchor="middle" x="118" y="-7" font-family="Vera Sans, DejaVu Sans, Liberation Sans, Arial, Helvetica, sans" font-size="10.00" fill="#000000">pyVHDLModel.SyntaxModel.MixinConditional</text>
</a>
</g>
</g>
<!-- pyVHDLModel.SyntaxModel.MixinConditional&#45;&gt;pyVHDLModel.SyntaxModel.MixinConditionalBranch -->
<g id="edge7" class="edge">
<title>pyVHDLModel.SyntaxModel.MixinConditional&#45;&gt;pyVHDLModel.SyntaxModel.MixinConditionalBranch</title>
<path fill="none" stroke="#000000" stroke-width=".5" d="M236.1764,-16.8732C246.2061,-17.499 256.4097,-18.1356 266.5845,-18.7704"/>
<polygon fill="#000000" stroke="#000000" stroke-width=".5" points="266.4769,-20.517 271.5762,-19.0819 266.695,-17.0238 266.4769,-20.517"/>
</g>
<!-- pyVHDLModel.SyntaxModel.MixinConditionalBranch&#45;&gt;pyVHDLModel.SyntaxModel.MixinIfBranch -->
<g id="edge8" class="edge">
<title>pyVHDLModel.SyntaxModel.MixinConditionalBranch&#45;&gt;pyVHDLModel.SyntaxModel.MixinIfBranch</title>
<path fill="none" stroke="#000000" stroke-width=".5" d="M541.2387,-27.5C551.4341,-27.5 561.67,-27.5 571.7312,-27.5"/>
<polygon fill="#000000" stroke="#000000" stroke-width=".5" points="571.9755,-29.2501 576.9755,-27.5 571.9754,-25.7501 571.9755,-29.2501"/>
</g>
</g>
</svg>
