<?xml version="1.0" encoding="UTF-8" standalone="no"?>
<!DOCTYPE svg PUBLIC "-//W3C//DTD SVG 1.1//EN"
 "http://www.w3.org/Graphics/SVG/1.1/DTD/svg11.dtd">
<!-- Generated by graphviz version 2.40.1 (20161225.0304)
 -->
<!-- Title: inheritanceb3f6728f9c Pages: 1 -->
<svg width="576pt" height="55pt"
 viewBox="0.00 0.00 576.00 54.80" xmlns="http://www.w3.org/2000/svg" xmlns:xlink="http://www.w3.org/1999/xlink">
<g id="graph0" class="graph" transform="scale(.548 .548) rotate(0) translate(4 96)">
<title>inheritanceb3f6728f9c</title>
<polygon fill="#ffffff" stroke="transparent" points="-4,4 -4,-96 1047,-96 1047,4 -4,4"/>
<!-- pyGHDL.dom.DOMMixin -->
<g id="node1" class="node">
<title>pyGHDL.dom.DOMMixin</title>
<g id="a_node1"><a xlink:href="../pyGHDL.dom.html#pyGHDL.dom.DOMMixin" xlink:title="pyGHDL.dom.DOMMixin" target="_top">
<polygon fill="none" stroke="#000000" stroke-width=".5" points="795,-92 661,-92 661,-73 795,-73 795,-92"/>
<text text-anchor="middle" x="728" y="-80" font-family="Vera Sans, DejaVu Sans, Liberation Sans, Arial, Helvetica, sans" font-size="10.00" fill="#000000">pyGHDL.dom.DOMMixin</text>
</a>
</g>
</g>
<!-- pyGHDL.dom.DesignUnit.Package -->
<g id="node2" class="node">
<title>pyGHDL.dom.DesignUnit.Package</title>
<g id="a_node2"><a xlink:href="../pyGHDL/pyGHDL.dom.DesignUnit.html#pyGHDL.dom.DesignUnit.Package" xlink:title="pyGHDL.dom.DesignUnit.Package" target="_top">
<polygon fill="none" stroke="#000000" stroke-width=".5" points="1043,-73 861,-73 861,-54 1043,-54 1043,-73"/>
<text text-anchor="middle" x="952" y="-61" font-family="Vera Sans, DejaVu Sans, Liberation Sans, Arial, Helvetica, sans" font-size="10.00" fill="#000000">pyGHDL.dom.DesignUnit.Package</text>
</a>
</g>
</g>
<!-- pyGHDL.dom.DOMMixin&#45;&gt;pyGHDL.dom.DesignUnit.Package -->
<g id="edge2" class="edge">
<title>pyGHDL.dom.DOMMixin&#45;&gt;pyGHDL.dom.DesignUnit.Package</title>
<path fill="none" stroke="#000000" stroke-width=".5" d="M795.2074,-76.7994C814.2155,-75.1871 835.2844,-73.4 855.6492,-71.6726"/>
<polygon fill="#000000" stroke="#000000" stroke-width=".5" points="855.9757,-73.4013 860.8099,-71.2349 855.6798,-69.9138 855.9757,-73.4013"/>
</g>
<!-- pyVHDLModel.SyntaxModel.Package -->
<g id="node3" class="node">
<title>pyVHDLModel.SyntaxModel.Package</title>
<polygon fill="none" stroke="#000000" stroke-width=".5" points="825,-55 631,-55 631,-36 825,-36 825,-55"/>
<text text-anchor="middle" x="728" y="-43" font-family="Vera Sans, DejaVu Sans, Liberation Sans, Arial, Helvetica, sans" font-size="10.00" fill="#000000">pyVHDLModel.SyntaxModel.Package</text>
</g>
<!-- pyVHDLModel.SyntaxModel.Package&#45;&gt;pyGHDL.dom.DesignUnit.Package -->
<g id="edge1" class="edge">
<title>pyVHDLModel.SyntaxModel.Package&#45;&gt;pyGHDL.dom.DesignUnit.Package</title>
<path fill="none" stroke="#000000" stroke-width=".5" d="M825.2724,-53.3165C835.3267,-54.1245 845.5421,-54.9454 855.587,-55.7525"/>
<polygon fill="#000000" stroke="#000000" stroke-width=".5" points="855.6984,-57.517 860.8225,-56.1732 855.9788,-54.0283 855.6984,-57.517"/>
</g>
<!-- pyVHDLModel.DesignUnit -->
<g id="node4" class="node">
<title>pyVHDLModel.DesignUnit</title>
<g id="a_node4"><a xlink:title="A ``DesignUnit`` is a base&#45;class for all design units.">
<polygon fill="none" stroke="#000000" stroke-width=".5" points="330,-37 188,-37 188,-18 330,-18 330,-37"/>
<text text-anchor="middle" x="259" y="-25" font-family="Vera Sans, DejaVu Sans, Liberation Sans, Arial, Helvetica, sans" font-size="10.00" fill="#000000">pyVHDLModel.DesignUnit</text>
</a>
</g>
</g>
<!-- pyVHDLModel.PrimaryUnit -->
<g id="node8" class="node">
<title>pyVHDLModel.PrimaryUnit</title>
<g id="a_node8"><a xlink:title="A ``PrimaryUnit`` is a base&#45;class for all primary units.">
<polygon fill="none" stroke="#000000" stroke-width=".5" points="553.5,-37 407.5,-37 407.5,-18 553.5,-18 553.5,-37"/>
<text text-anchor="middle" x="480.5" y="-25" font-family="Vera Sans, DejaVu Sans, Liberation Sans, Arial, Helvetica, sans" font-size="10.00" fill="#000000">pyVHDLModel.PrimaryUnit</text>
</a>
</g>
</g>
<!-- pyVHDLModel.DesignUnit&#45;&gt;pyVHDLModel.PrimaryUnit -->
<g id="edge5" class="edge">
<title>pyVHDLModel.DesignUnit&#45;&gt;pyVHDLModel.PrimaryUnit</title>
<path fill="none" stroke="#000000" stroke-width=".5" d="M330.3032,-27.5C353.2305,-27.5 378.7521,-27.5 402.1565,-27.5"/>
<polygon fill="#000000" stroke="#000000" stroke-width=".5" points="402.4284,-29.2501 407.4283,-27.5 402.4283,-25.7501 402.4284,-29.2501"/>
</g>
<!-- pyVHDLModel.ModelEntity -->
<g id="node5" class="node">
<title>pyVHDLModel.ModelEntity</title>
<g id="a_node5"><a xlink:title="``ModelEntity`` is the base class for all classes in the VHDL language model,">
<polygon fill="none" stroke="#000000" stroke-width=".5" points="149,-56 3,-56 3,-37 149,-37 149,-56"/>
<text text-anchor="middle" x="76" y="-44" font-family="Vera Sans, DejaVu Sans, Liberation Sans, Arial, Helvetica, sans" font-size="10.00" fill="#000000">pyVHDLModel.ModelEntity</text>
</a>
</g>
</g>
<!-- pyVHDLModel.ModelEntity&#45;&gt;pyVHDLModel.DesignUnit -->
<g id="edge3" class="edge">
<title>pyVHDLModel.ModelEntity&#45;&gt;pyVHDLModel.DesignUnit</title>
<path fill="none" stroke="#000000" stroke-width=".5" d="M149.1154,-38.9088C160.1661,-37.7614 171.59,-36.5754 182.7058,-35.4213"/>
<polygon fill="#000000" stroke="#000000" stroke-width=".5" points="182.9964,-37.1506 187.789,-34.8935 182.6349,-33.6693 182.9964,-37.1506"/>
</g>
<!-- pyVHDLModel.NamedEntity -->
<g id="node6" class="node">
<title>pyVHDLModel.NamedEntity</title>
<g id="a_node6"><a xlink:title="A ``NamedEntity`` is a mixin class for all VHDL entities that have identifiers.">
<polygon fill="none" stroke="#000000" stroke-width=".5" points="152,-19 0,-19 0,0 152,0 152,-19"/>
<text text-anchor="middle" x="76" y="-7" font-family="Vera Sans, DejaVu Sans, Liberation Sans, Arial, Helvetica, sans" font-size="10.00" fill="#000000">pyVHDLModel.NamedEntity</text>
</a>
</g>
</g>
<!-- pyVHDLModel.NamedEntity&#45;&gt;pyVHDLModel.DesignUnit -->
<g id="edge4" class="edge">
<title>pyVHDLModel.NamedEntity&#45;&gt;pyVHDLModel.DesignUnit</title>
<path fill="none" stroke="#000000" stroke-width=".5" d="M152.0187,-16.9772C162.23,-17.9816 172.7064,-19.0121 182.9189,-20.0166"/>
<polygon fill="#000000" stroke="#000000" stroke-width=".5" points="182.7614,-21.7595 187.9087,-20.5074 183.1041,-18.2763 182.7614,-21.7595"/>
</g>
<!-- pyVHDLModel.MixinDesignUnitWithContext -->
<g id="node7" class="node">
<title>pyVHDLModel.MixinDesignUnitWithContext</title>
<polygon fill="none" stroke="#000000" stroke-width=".5" points="595,-74 366,-74 366,-55 595,-55 595,-74"/>
<text text-anchor="middle" x="480.5" y="-62" font-family="Vera Sans, DejaVu Sans, Liberation Sans, Arial, Helvetica, sans" font-size="10.00" fill="#000000">pyVHDLModel.MixinDesignUnitWithContext</text>
</g>
<!-- pyVHDLModel.MixinDesignUnitWithContext&#45;&gt;pyVHDLModel.SyntaxModel.Package -->
<g id="edge7" class="edge">
<title>pyVHDLModel.MixinDesignUnitWithContext&#45;&gt;pyVHDLModel.SyntaxModel.Package</title>
<path fill="none" stroke="#000000" stroke-width=".5" d="M595.1935,-55.6952C605.3153,-54.9182 615.5183,-54.135 625.5298,-53.3664"/>
<polygon fill="#000000" stroke="#000000" stroke-width=".5" points="625.8948,-55.0936 630.7462,-52.9659 625.6269,-51.6039 625.8948,-55.0936"/>
</g>
<!-- pyVHDLModel.PrimaryUnit&#45;&gt;pyVHDLModel.SyntaxModel.Package -->
<g id="edge6" class="edge">
<title>pyVHDLModel.PrimaryUnit&#45;&gt;pyVHDLModel.SyntaxModel.Package</title>
<path fill="none" stroke="#000000" stroke-width=".5" d="M553.7536,-32.8275C576.2436,-34.4632 601.4193,-36.2941 625.4899,-38.0447"/>
<polygon fill="#000000" stroke="#000000" stroke-width=".5" points="625.4944,-39.7996 630.6082,-38.417 625.7483,-36.3088 625.4944,-39.7996"/>
</g>
</g>
</svg>
