<?xml version="1.0" encoding="UTF-8" standalone="no"?>
<!DOCTYPE svg PUBLIC "-//W3C//DTD SVG 1.1//EN"
 "http://www.w3.org/Graphics/SVG/1.1/DTD/svg11.dtd">
<!-- Generated by graphviz version 2.40.1 (20161225.0304)
 -->
<!-- Title: inheritancef9aede6862 Pages: 1 -->
<svg width="576pt" height="35pt"
 viewBox="0.00 0.00 576.00 35.04" xmlns="http://www.w3.org/2000/svg" xmlns:xlink="http://www.w3.org/1999/xlink">
<g id="graph0" class="graph" transform="scale(.5475 .5475) rotate(0) translate(4 60)">
<title>inheritancef9aede6862</title>
<polygon fill="#ffffff" stroke="transparent" points="-4,4 -4,-60 1048,-60 1048,4 -4,4"/>
<!-- pyGHDL.dom.Aggregates.SimpleAggregateElement -->
<g id="node1" class="node">
<title>pyGHDL.dom.Aggregates.SimpleAggregateElement</title>
<g id="a_node1"><a xlink:href="../pyGHDL/pyGHDL.dom.Aggregates.html#pyGHDL.dom.Aggregates.SimpleAggregateElement" xlink:title="pyGHDL.dom.Aggregates.SimpleAggregateElement" target="_top">
<polygon fill="none" stroke="#000000" stroke-width=".5" points="1044,-37 777,-37 777,-18 1044,-18 1044,-37"/>
<text text-anchor="middle" x="910.5" y="-25" font-family="Vera Sans, DejaVu Sans, Liberation Sans, Arial, Helvetica, sans" font-size="10.00" fill="#000000">pyGHDL.dom.Aggregates.SimpleAggregateElement</text>
</a>
</g>
</g>
<!-- pyVHDLModel.SyntaxModel.SimpleAggregateElement -->
<g id="node2" class="node">
<title>pyVHDLModel.SyntaxModel.SimpleAggregateElement</title>
<polygon fill="none" stroke="#000000" stroke-width=".5" points="741,-56 463,-56 463,-37 741,-37 741,-56"/>
<text text-anchor="middle" x="602" y="-44" font-family="Vera Sans, DejaVu Sans, Liberation Sans, Arial, Helvetica, sans" font-size="10.00" fill="#000000">pyVHDLModel.SyntaxModel.SimpleAggregateElement</text>
</g>
<!-- pyVHDLModel.SyntaxModel.SimpleAggregateElement&#45;&gt;pyGHDL.dom.Aggregates.SimpleAggregateElement -->
<g id="edge1" class="edge">
<title>pyVHDLModel.SyntaxModel.SimpleAggregateElement&#45;&gt;pyGHDL.dom.Aggregates.SimpleAggregateElement</title>
<path fill="none" stroke="#000000" stroke-width=".5" d="M741.3578,-37.9172C751.42,-37.2975 761.5675,-36.6725 771.6269,-36.053"/>
<polygon fill="#000000" stroke="#000000" stroke-width=".5" points="771.9954,-37.7837 776.8784,-35.7295 771.7802,-34.2903 771.9954,-37.7837"/>
</g>
<!-- pyGHDL.dom.DOMMixin -->
<g id="node3" class="node">
<title>pyGHDL.dom.DOMMixin</title>
<g id="a_node3"><a xlink:href="../pyGHDL.dom.html#pyGHDL.dom.DOMMixin" xlink:title="pyGHDL.dom.DOMMixin" target="_top">
<polygon fill="none" stroke="#000000" stroke-width=".5" points="669,-19 535,-19 535,0 669,0 669,-19"/>
<text text-anchor="middle" x="602" y="-7" font-family="Vera Sans, DejaVu Sans, Liberation Sans, Arial, Helvetica, sans" font-size="10.00" fill="#000000">pyGHDL.dom.DOMMixin</text>
</a>
</g>
</g>
<!-- pyGHDL.dom.DOMMixin&#45;&gt;pyGHDL.dom.Aggregates.SimpleAggregateElement -->
<g id="edge2" class="edge">
<title>pyGHDL.dom.DOMMixin&#45;&gt;pyGHDL.dom.Aggregates.SimpleAggregateElement</title>
<path fill="none" stroke="#000000" stroke-width=".5" d="M669.3204,-13.4279C699.3989,-15.1829 736.0251,-17.3199 771.5572,-19.3931"/>
<polygon fill="#000000" stroke="#000000" stroke-width=".5" points="771.6973,-21.1542 776.7908,-19.6985 771.9012,-17.6601 771.6973,-21.1542"/>
</g>
<!-- pyVHDLModel.ModelEntity -->
<g id="node4" class="node">
<title>pyVHDLModel.ModelEntity</title>
<g id="a_node4"><a xlink:title="``ModelEntity`` is the base class for all classes in the VHDL language model,">
<polygon fill="none" stroke="#000000" stroke-width=".5" points="146,-56 0,-56 0,-37 146,-37 146,-56"/>
<text text-anchor="middle" x="73" y="-44" font-family="Vera Sans, DejaVu Sans, Liberation Sans, Arial, Helvetica, sans" font-size="10.00" fill="#000000">pyVHDLModel.ModelEntity</text>
</a>
</g>
</g>
<!-- pyVHDLModel.SyntaxModel.AggregateElement -->
<g id="node5" class="node">
<title>pyVHDLModel.SyntaxModel.AggregateElement</title>
<g id="a_node5"><a xlink:title="A ``AggregateElement`` is a base&#45;class for all aggregate elements.">
<polygon fill="none" stroke="#000000" stroke-width=".5" points="427,-56 182,-56 182,-37 427,-37 427,-56"/>
<text text-anchor="middle" x="304.5" y="-44" font-family="Vera Sans, DejaVu Sans, Liberation Sans, Arial, Helvetica, sans" font-size="10.00" fill="#000000">pyVHDLModel.SyntaxModel.AggregateElement</text>
</a>
</g>
</g>
<!-- pyVHDLModel.ModelEntity&#45;&gt;pyVHDLModel.SyntaxModel.AggregateElement -->
<g id="edge3" class="edge">
<title>pyVHDLModel.ModelEntity&#45;&gt;pyVHDLModel.SyntaxModel.AggregateElement</title>
<path fill="none" stroke="#000000" stroke-width=".5" d="M146.248,-46.5C156.0381,-46.5 166.2991,-46.5 176.6913,-46.5"/>
<polygon fill="#000000" stroke="#000000" stroke-width=".5" points="176.802,-48.2501 181.8019,-46.5 176.8019,-44.7501 176.802,-48.2501"/>
</g>
<!-- pyVHDLModel.SyntaxModel.AggregateElement&#45;&gt;pyVHDLModel.SyntaxModel.SimpleAggregateElement -->
<g id="edge4" class="edge">
<title>pyVHDLModel.SyntaxModel.AggregateElement&#45;&gt;pyVHDLModel.SyntaxModel.SimpleAggregateElement</title>
<path fill="none" stroke="#000000" stroke-width=".5" d="M427.2222,-46.5C437.1721,-46.5 447.2823,-46.5 457.3673,-46.5"/>
<polygon fill="#000000" stroke="#000000" stroke-width=".5" points="457.6378,-48.2501 462.6378,-46.5 457.6378,-44.7501 457.6378,-48.2501"/>
</g>
</g>
</svg>
