<?xml version="1.0" encoding="UTF-8" standalone="no"?>
<!DOCTYPE svg PUBLIC "-//W3C//DTD SVG 1.1//EN"
 "http://www.w3.org/Graphics/SVG/1.1/DTD/svg11.dtd">
<!-- Generated by graphviz version 2.40.1 (20161225.0304)
 -->
<!-- Title: inheritanced49d51348f Pages: 1 -->
<svg width="576pt" height="25pt"
 viewBox="0.00 0.00 576.00 24.84" xmlns="http://www.w3.org/2000/svg" xmlns:xlink="http://www.w3.org/1999/xlink">
<g id="graph0" class="graph" transform="scale(.3881 .3881) rotate(0) translate(4 60)">
<title>inheritanced49d51348f</title>
<polygon fill="#ffffff" stroke="transparent" points="-4,4 -4,-60 1480,-60 1480,4 -4,4"/>
<!-- pyGHDL.dom.DOMMixin -->
<g id="node1" class="node">
<title>pyGHDL.dom.DOMMixin</title>
<g id="a_node1"><a xlink:href="../pyGHDL.dom.html#pyGHDL.dom.DOMMixin" xlink:title="pyGHDL.dom.DOMMixin" target="_top">
<polygon fill="none" stroke="#000000" stroke-width=".5" points="1182,-56 1048,-56 1048,-37 1182,-37 1182,-56"/>
<text text-anchor="middle" x="1115" y="-44" font-family="Vera Sans, DejaVu Sans, Liberation Sans, Arial, Helvetica, sans" font-size="10.00" fill="#000000">pyGHDL.dom.DOMMixin</text>
</a>
</g>
</g>
<!-- pyGHDL.dom.Expression.AndExpression -->
<g id="node2" class="node">
<title>pyGHDL.dom.Expression.AndExpression</title>
<g id="a_node2"><a xlink:href="../pyGHDL/pyGHDL.dom.Expression.html#pyGHDL.dom.Expression.AndExpression" xlink:title="pyGHDL.dom.Expression.AndExpression" target="_top">
<polygon fill="none" stroke="#000000" stroke-width=".5" points="1476,-37 1264,-37 1264,-18 1476,-18 1476,-37"/>
<text text-anchor="middle" x="1370" y="-25" font-family="Vera Sans, DejaVu Sans, Liberation Sans, Arial, Helvetica, sans" font-size="10.00" fill="#000000">pyGHDL.dom.Expression.AndExpression</text>
</a>
</g>
</g>
<!-- pyGHDL.dom.DOMMixin&#45;&gt;pyGHDL.dom.Expression.AndExpression -->
<g id="edge2" class="edge">
<title>pyGHDL.dom.DOMMixin&#45;&gt;pyGHDL.dom.Expression.AndExpression</title>
<path fill="none" stroke="#000000" stroke-width=".5" d="M1182.3318,-41.4831C1205.7103,-39.7412 1232.5907,-37.7383 1258.567,-35.8028"/>
<polygon fill="#000000" stroke="#000000" stroke-width=".5" points="1258.8928,-37.5335 1263.7489,-35.4167 1258.6327,-34.0432 1258.8928,-37.5335"/>
</g>
<!-- pyVHDLModel.SyntaxModel.AndExpression -->
<g id="node3" class="node">
<title>pyVHDLModel.SyntaxModel.AndExpression</title>
<polygon fill="none" stroke="#000000" stroke-width=".5" points="1228,-19 1002,-19 1002,0 1228,0 1228,-19"/>
<text text-anchor="middle" x="1115" y="-7" font-family="Vera Sans, DejaVu Sans, Liberation Sans, Arial, Helvetica, sans" font-size="10.00" fill="#000000">pyVHDLModel.SyntaxModel.AndExpression</text>
</g>
<!-- pyVHDLModel.SyntaxModel.AndExpression&#45;&gt;pyGHDL.dom.Expression.AndExpression -->
<g id="edge1" class="edge">
<title>pyVHDLModel.SyntaxModel.AndExpression&#45;&gt;pyGHDL.dom.Expression.AndExpression</title>
<path fill="none" stroke="#000000" stroke-width=".5" d="M1228.3317,-17.4999C1238.4129,-18.2115 1248.6137,-18.9316 1258.6778,-19.642"/>
<polygon fill="#000000" stroke="#000000" stroke-width=".5" points="1258.816,-21.406 1263.9269,-20.0125 1259.0625,-17.9147 1258.816,-21.406"/>
</g>
<!-- pyVHDLModel.ModelEntity -->
<g id="node4" class="node">
<title>pyVHDLModel.ModelEntity</title>
<g id="a_node4"><a xlink:title="``ModelEntity`` is the base class for all classes in the VHDL language model,">
<polygon fill="none" stroke="#000000" stroke-width=".5" points="146,-19 0,-19 0,0 146,0 146,-19"/>
<text text-anchor="middle" x="73" y="-7" font-family="Vera Sans, DejaVu Sans, Liberation Sans, Arial, Helvetica, sans" font-size="10.00" fill="#000000">pyVHDLModel.ModelEntity</text>
</a>
</g>
</g>
<!-- pyVHDLModel.SyntaxModel.BaseExpression -->
<g id="node6" class="node">
<title>pyVHDLModel.SyntaxModel.BaseExpression</title>
<g id="a_node6"><a xlink:title="A ``BaseExpression`` is a base&#45;class for all expressions.">
<polygon fill="none" stroke="#000000" stroke-width=".5" points="413,-19 182,-19 182,0 413,0 413,-19"/>
<text text-anchor="middle" x="297.5" y="-7" font-family="Vera Sans, DejaVu Sans, Liberation Sans, Arial, Helvetica, sans" font-size="10.00" fill="#000000">pyVHDLModel.SyntaxModel.BaseExpression</text>
</a>
</g>
</g>
<!-- pyVHDLModel.ModelEntity&#45;&gt;pyVHDLModel.SyntaxModel.BaseExpression -->
<g id="edge4" class="edge">
<title>pyVHDLModel.ModelEntity&#45;&gt;pyVHDLModel.SyntaxModel.BaseExpression</title>
<path fill="none" stroke="#000000" stroke-width=".5" d="M146.1991,-9.5C155.9857,-9.5 166.2247,-9.5 176.5627,-9.5"/>
<polygon fill="#000000" stroke="#000000" stroke-width=".5" points="176.6441,-11.2501 181.644,-9.5 176.644,-7.7501 176.6441,-11.2501"/>
</g>
<!-- pyVHDLModel.SyntaxModel.LogicalExpression -->
<g id="node5" class="node">
<title>pyVHDLModel.SyntaxModel.LogicalExpression</title>
<g id="a_node5"><a xlink:title="A ``LogicalExpression`` is a base&#45;class for all logical expressions.">
<polygon fill="none" stroke="#000000" stroke-width=".5" points="966,-19 724,-19 724,0 966,0 966,-19"/>
<text text-anchor="middle" x="845" y="-7" font-family="Vera Sans, DejaVu Sans, Liberation Sans, Arial, Helvetica, sans" font-size="10.00" fill="#000000">pyVHDLModel.SyntaxModel.LogicalExpression</text>
</a>
</g>
</g>
<!-- pyVHDLModel.SyntaxModel.LogicalExpression&#45;&gt;pyVHDLModel.SyntaxModel.AndExpression -->
<g id="edge3" class="edge">
<title>pyVHDLModel.SyntaxModel.LogicalExpression&#45;&gt;pyVHDLModel.SyntaxModel.AndExpression</title>
<path fill="none" stroke="#000000" stroke-width=".5" d="M966.1788,-9.5C976.4192,-9.5 986.7669,-9.5 996.9827,-9.5"/>
<polygon fill="#000000" stroke="#000000" stroke-width=".5" points="996.9861,-11.2501 1001.9861,-9.5 996.986,-7.7501 996.9861,-11.2501"/>
</g>
<!-- pyVHDLModel.SyntaxModel.BinaryExpression -->
<g id="node7" class="node">
<title>pyVHDLModel.SyntaxModel.BinaryExpression</title>
<g id="a_node7"><a xlink:title="A ``BinaryExpression`` is a base&#45;class for all binary expressions.">
<polygon fill="none" stroke="#000000" stroke-width=".5" points="688,-19 449,-19 449,0 688,0 688,-19"/>
<text text-anchor="middle" x="568.5" y="-7" font-family="Vera Sans, DejaVu Sans, Liberation Sans, Arial, Helvetica, sans" font-size="10.00" fill="#000000">pyVHDLModel.SyntaxModel.BinaryExpression</text>
</a>
</g>
</g>
<!-- pyVHDLModel.SyntaxModel.BaseExpression&#45;&gt;pyVHDLModel.SyntaxModel.BinaryExpression -->
<g id="edge5" class="edge">
<title>pyVHDLModel.SyntaxModel.BaseExpression&#45;&gt;pyVHDLModel.SyntaxModel.BinaryExpression</title>
<path fill="none" stroke="#000000" stroke-width=".5" d="M413.2145,-9.5C423.3522,-9.5 433.6409,-9.5 443.8471,-9.5"/>
<polygon fill="#000000" stroke="#000000" stroke-width=".5" points="443.8497,-11.2501 448.8497,-9.5 443.8496,-7.7501 443.8497,-11.2501"/>
</g>
<!-- pyVHDLModel.SyntaxModel.BinaryExpression&#45;&gt;pyVHDLModel.SyntaxModel.LogicalExpression -->
<g id="edge6" class="edge">
<title>pyVHDLModel.SyntaxModel.BinaryExpression&#45;&gt;pyVHDLModel.SyntaxModel.LogicalExpression</title>
<path fill="none" stroke="#000000" stroke-width=".5" d="M688.1688,-9.5C698.3284,-9.5 708.6244,-9.5 718.8318,-9.5"/>
<polygon fill="#000000" stroke="#000000" stroke-width=".5" points="718.8347,-11.2501 723.8346,-9.5 718.8346,-7.7501 718.8347,-11.2501"/>
</g>
</g>
</svg>
