<?xml version="1.0" encoding="UTF-8" standalone="no"?>
<!DOCTYPE svg PUBLIC "-//W3C//DTD SVG 1.1//EN"
 "http://www.w3.org/Graphics/SVG/1.1/DTD/svg11.dtd">
<!-- Generated by graphviz version 2.40.1 (20161225.0304)
 -->
<!-- Title: inheritance6a89eead86 Pages: 1 -->
<svg width="576pt" height="40pt"
 viewBox="0.00 0.00 576.00 39.52" xmlns="http://www.w3.org/2000/svg" xmlns:xlink="http://www.w3.org/1999/xlink">
<g id="graph0" class="graph" transform="scale(.482 .482) rotate(0) translate(4 78)">
<title>inheritance6a89eead86</title>
<polygon fill="#ffffff" stroke="transparent" points="-4,4 -4,-78 1191,-78 1191,4 -4,4"/>
<!-- pyGHDL.dom.DOMMixin -->
<g id="node1" class="node">
<title>pyGHDL.dom.DOMMixin</title>
<g id="a_node1"><a xlink:href="../pyGHDL.dom.html#pyGHDL.dom.DOMMixin" xlink:title="pyGHDL.dom.DOMMixin" target="_top">
<polygon fill="none" stroke="#000000" stroke-width=".5" points="918,-74 784,-74 784,-55 918,-55 918,-74"/>
<text text-anchor="middle" x="851" y="-62" font-family="Vera Sans, DejaVu Sans, Liberation Sans, Arial, Helvetica, sans" font-size="10.00" fill="#000000">pyGHDL.dom.DOMMixin</text>
</a>
</g>
</g>
<!-- pyGHDL.dom.Sequential.OthersCase -->
<g id="node2" class="node">
<title>pyGHDL.dom.Sequential.OthersCase</title>
<g id="a_node2"><a xlink:href="../pyGHDL/pyGHDL.dom.Sequential.html#pyGHDL.dom.Sequential.OthersCase" xlink:title="pyGHDL.dom.Sequential.OthersCase" target="_top">
<polygon fill="none" stroke="#000000" stroke-width=".5" points="1187,-55 992,-55 992,-36 1187,-36 1187,-55"/>
<text text-anchor="middle" x="1089.5" y="-43" font-family="Vera Sans, DejaVu Sans, Liberation Sans, Arial, Helvetica, sans" font-size="10.00" fill="#000000">pyGHDL.dom.Sequential.OthersCase</text>
</a>
</g>
</g>
<!-- pyGHDL.dom.DOMMixin&#45;&gt;pyGHDL.dom.Sequential.OthersCase -->
<g id="edge2" class="edge">
<title>pyGHDL.dom.DOMMixin&#45;&gt;pyGHDL.dom.Sequential.OthersCase</title>
<path fill="none" stroke="#000000" stroke-width=".5" d="M918.0702,-59.1569C939.3333,-57.463 963.3533,-55.5494 986.5364,-53.7025"/>
<polygon fill="#000000" stroke="#000000" stroke-width=".5" points="986.9354,-55.4264 991.7806,-53.2848 986.6574,-51.9375 986.9354,-55.4264"/>
</g>
<!-- pyVHDLModel.SyntaxModel.OthersCase -->
<g id="node3" class="node">
<title>pyVHDLModel.SyntaxModel.OthersCase</title>
<polygon fill="none" stroke="#000000" stroke-width=".5" points="956,-37 746,-37 746,-18 956,-18 956,-37"/>
<text text-anchor="middle" x="851" y="-25" font-family="Vera Sans, DejaVu Sans, Liberation Sans, Arial, Helvetica, sans" font-size="10.00" fill="#000000">pyVHDLModel.SyntaxModel.OthersCase</text>
</g>
<!-- pyVHDLModel.SyntaxModel.OthersCase&#45;&gt;pyGHDL.dom.Sequential.OthersCase -->
<g id="edge1" class="edge">
<title>pyVHDLModel.SyntaxModel.OthersCase&#45;&gt;pyGHDL.dom.Sequential.OthersCase</title>
<path fill="none" stroke="#000000" stroke-width=".5" d="M956.3038,-35.4475C966.3989,-36.2093 976.6291,-36.9814 986.6998,-37.7415"/>
<polygon fill="#000000" stroke="#000000" stroke-width=".5" points="986.8324,-39.5064 991.95,-38.1377 987.0959,-36.0163 986.8324,-39.5064"/>
</g>
<!-- pyVHDLModel.ModelEntity -->
<g id="node4" class="node">
<title>pyVHDLModel.ModelEntity</title>
<g id="a_node4"><a xlink:title="``ModelEntity`` is the base class for all classes in the VHDL language model,">
<polygon fill="none" stroke="#000000" stroke-width=".5" points="146,-56 0,-56 0,-37 146,-37 146,-56"/>
<text text-anchor="middle" x="73" y="-44" font-family="Vera Sans, DejaVu Sans, Liberation Sans, Arial, Helvetica, sans" font-size="10.00" fill="#000000">pyVHDLModel.ModelEntity</text>
</a>
</g>
</g>
<!-- pyVHDLModel.SyntaxModel.BaseCase -->
<g id="node5" class="node">
<title>pyVHDLModel.SyntaxModel.BaseCase</title>
<g id="a_node5"><a xlink:title="A ``Case`` is a base&#45;class for all cases.">
<polygon fill="none" stroke="#000000" stroke-width=".5" points="414,-56 212,-56 212,-37 414,-37 414,-56"/>
<text text-anchor="middle" x="313" y="-44" font-family="Vera Sans, DejaVu Sans, Liberation Sans, Arial, Helvetica, sans" font-size="10.00" fill="#000000">pyVHDLModel.SyntaxModel.BaseCase</text>
</a>
</g>
</g>
<!-- pyVHDLModel.ModelEntity&#45;&gt;pyVHDLModel.SyntaxModel.BaseCase -->
<g id="edge3" class="edge">
<title>pyVHDLModel.ModelEntity&#45;&gt;pyVHDLModel.SyntaxModel.BaseCase</title>
<path fill="none" stroke="#000000" stroke-width=".5" d="M146.312,-46.5C165.3742,-46.5 186.2985,-46.5 206.6887,-46.5"/>
<polygon fill="#000000" stroke="#000000" stroke-width=".5" points="206.8597,-48.2501 211.8597,-46.5 206.8596,-44.7501 206.8597,-48.2501"/>
</g>
<!-- pyVHDLModel.SyntaxModel.SequentialCase -->
<g id="node6" class="node">
<title>pyVHDLModel.SyntaxModel.SequentialCase</title>
<polygon fill="none" stroke="#000000" stroke-width=".5" points="710,-37 480,-37 480,-18 710,-18 710,-37"/>
<text text-anchor="middle" x="595" y="-25" font-family="Vera Sans, DejaVu Sans, Liberation Sans, Arial, Helvetica, sans" font-size="10.00" fill="#000000">pyVHDLModel.SyntaxModel.SequentialCase</text>
</g>
<!-- pyVHDLModel.SyntaxModel.BaseCase&#45;&gt;pyVHDLModel.SyntaxModel.SequentialCase -->
<g id="edge5" class="edge">
<title>pyVHDLModel.SyntaxModel.BaseCase&#45;&gt;pyVHDLModel.SyntaxModel.SequentialCase</title>
<path fill="none" stroke="#000000" stroke-width=".5" d="M414.012,-39.6942C433.6806,-38.369 454.481,-36.9676 474.7008,-35.6053"/>
<polygon fill="#000000" stroke="#000000" stroke-width=".5" points="474.9569,-37.3421 479.8279,-35.2598 474.7216,-33.85 474.9569,-37.3421"/>
</g>
<!-- pyVHDLModel.SyntaxModel.SequentialCase&#45;&gt;pyVHDLModel.SyntaxModel.OthersCase -->
<g id="edge4" class="edge">
<title>pyVHDLModel.SyntaxModel.SequentialCase&#45;&gt;pyVHDLModel.SyntaxModel.OthersCase</title>
<path fill="none" stroke="#000000" stroke-width=".5" d="M710.2687,-27.5C720.3269,-27.5 730.491,-27.5 740.5093,-27.5"/>
<polygon fill="#000000" stroke="#000000" stroke-width=".5" points="740.7336,-29.2501 745.7336,-27.5 740.7335,-25.7501 740.7336,-29.2501"/>
</g>
<!-- pyVHDLModel.SyntaxModel.SequentialStatements -->
<g id="node7" class="node">
<title>pyVHDLModel.SyntaxModel.SequentialStatements</title>
<polygon fill="none" stroke="#000000" stroke-width=".5" points="444,-19 182,-19 182,0 444,0 444,-19"/>
<text text-anchor="middle" x="313" y="-7" font-family="Vera Sans, DejaVu Sans, Liberation Sans, Arial, Helvetica, sans" font-size="10.00" fill="#000000">pyVHDLModel.SyntaxModel.SequentialStatements</text>
</g>
<!-- pyVHDLModel.SyntaxModel.SequentialStatements&#45;&gt;pyVHDLModel.SyntaxModel.SequentialCase -->
<g id="edge6" class="edge">
<title>pyVHDLModel.SyntaxModel.SequentialStatements&#45;&gt;pyVHDLModel.SyntaxModel.SequentialCase</title>
<path fill="none" stroke="#000000" stroke-width=".5" d="M444.0932,-17.8677C454.2593,-18.5165 464.4944,-19.1699 474.5857,-19.814"/>
<polygon fill="#000000" stroke="#000000" stroke-width=".5" points="474.7472,-21.5778 479.8486,-20.1499 474.9702,-18.0849 474.7472,-21.5778"/>
</g>
</g>
</svg>
