<?xml version="1.0" encoding="UTF-8" standalone="no"?>
<!DOCTYPE svg PUBLIC "-//W3C//DTD SVG 1.1//EN"
 "http://www.w3.org/Graphics/SVG/1.1/DTD/svg11.dtd">
<!-- Generated by graphviz version 2.40.1 (20161225.0304)
 -->
<!-- Title: inheritance3fc22781b4 Pages: 1 -->
<svg width="560pt" height="27pt"
 viewBox="0.00 0.00 560.00 27.00" xmlns="http://www.w3.org/2000/svg" xmlns:xlink="http://www.w3.org/1999/xlink">
<g id="graph0" class="graph" transform="scale(1 1) rotate(0) translate(4 23)">
<title>inheritance3fc22781b4</title>
<polygon fill="#ffffff" stroke="transparent" points="-4,4 -4,-23 556,-23 556,4 -4,4"/>
<!-- pyGHDL.dom.Range.Range -->
<g id="node1" class="node">
<title>pyGHDL.dom.Range.Range</title>
<g id="a_node1"><a xlink:href="../pyGHDL/pyGHDL.dom.Range.html#pyGHDL.dom.Range.Range" xlink:title="pyGHDL.dom.Range.Range" target="_top">
<polygon fill="none" stroke="#000000" stroke-width=".5" points="552,-19 403,-19 403,0 552,0 552,-19"/>
<text text-anchor="middle" x="477.5" y="-7" font-family="Vera Sans, DejaVu Sans, Liberation Sans, Arial, Helvetica, sans" font-size="10.00" fill="#000000">pyGHDL.dom.Range.Range</text>
</a>
</g>
</g>
<!-- pyVHDLModel.SyntaxModel.Range -->
<g id="node2" class="node">
<title>pyVHDLModel.SyntaxModel.Range</title>
<polygon fill="none" stroke="#000000" stroke-width=".5" points="367,-19 182,-19 182,0 367,0 367,-19"/>
<text text-anchor="middle" x="274.5" y="-7" font-family="Vera Sans, DejaVu Sans, Liberation Sans, Arial, Helvetica, sans" font-size="10.00" fill="#000000">pyVHDLModel.SyntaxModel.Range</text>
</g>
<!-- pyVHDLModel.SyntaxModel.Range&#45;&gt;pyGHDL.dom.Range.Range -->
<g id="edge1" class="edge">
<title>pyVHDLModel.SyntaxModel.Range&#45;&gt;pyGHDL.dom.Range.Range</title>
<path fill="none" stroke="#000000" stroke-width=".5" d="M367.0893,-9.5C377.3297,-9.5 387.692,-9.5 397.7549,-9.5"/>
<polygon fill="#000000" stroke="#000000" stroke-width=".5" points="397.9877,-11.2501 402.9877,-9.5 397.9876,-7.7501 397.9877,-11.2501"/>
</g>
<!-- pyVHDLModel.ModelEntity -->
<g id="node3" class="node">
<title>pyVHDLModel.ModelEntity</title>
<g id="a_node3"><a xlink:title="``ModelEntity`` is the base class for all classes in the VHDL language model,">
<polygon fill="none" stroke="#000000" stroke-width=".5" points="146,-19 0,-19 0,0 146,0 146,-19"/>
<text text-anchor="middle" x="73" y="-7" font-family="Vera Sans, DejaVu Sans, Liberation Sans, Arial, Helvetica, sans" font-size="10.00" fill="#000000">pyVHDLModel.ModelEntity</text>
</a>
</g>
</g>
<!-- pyVHDLModel.ModelEntity&#45;&gt;pyVHDLModel.SyntaxModel.Range -->
<g id="edge2" class="edge">
<title>pyVHDLModel.ModelEntity&#45;&gt;pyVHDLModel.SyntaxModel.Range</title>
<path fill="none" stroke="#000000" stroke-width=".5" d="M146.031,-9.5C156.0004,-9.5 166.3625,-9.5 176.6834,-9.5"/>
<polygon fill="#000000" stroke="#000000" stroke-width=".5" points="176.7449,-11.2501 181.7449,-9.5 176.7448,-7.7501 176.7449,-11.2501"/>
</g>
</g>
</svg>
