<?xml version="1.0" encoding="UTF-8" standalone="no"?>
<!DOCTYPE svg PUBLIC "-//W3C//DTD SVG 1.1//EN"
 "http://www.w3.org/Graphics/SVG/1.1/DTD/svg11.dtd">
<!-- Generated by graphviz version 2.40.1 (20161225.0304)
 -->
<!-- Title: inheritancea34f92a824 Pages: 1 -->
<svg width="576pt" height="43pt"
 viewBox="0.00 0.00 576.00 42.82" xmlns="http://www.w3.org/2000/svg" xmlns:xlink="http://www.w3.org/1999/xlink">
<g id="graph0" class="graph" transform="scale(.669 .669) rotate(0) translate(4 60)">
<title>inheritancea34f92a824</title>
<polygon fill="#ffffff" stroke="transparent" points="-4,4 -4,-60 857,-60 857,4 -4,4"/>
<!-- pyGHDL.dom.DOMMixin -->
<g id="node1" class="node">
<title>pyGHDL.dom.DOMMixin</title>
<g id="a_node1"><a xlink:href="../pyGHDL.dom.html#pyGHDL.dom.DOMMixin" xlink:title="pyGHDL.dom.DOMMixin" target="_top">
<polygon fill="none" stroke="#000000" stroke-width=".5" points="585.5,-56 451.5,-56 451.5,-37 585.5,-37 585.5,-56"/>
<text text-anchor="middle" x="518.5" y="-44" font-family="Vera Sans, DejaVu Sans, Liberation Sans, Arial, Helvetica, sans" font-size="10.00" fill="#000000">pyGHDL.dom.DOMMixin</text>
</a>
</g>
</g>
<!-- pyGHDL.dom.Symbol.EntitySymbol -->
<g id="node2" class="node">
<title>pyGHDL.dom.Symbol.EntitySymbol</title>
<g id="a_node2"><a xlink:href="../pyGHDL/pyGHDL.dom.Symbol.html#pyGHDL.dom.Symbol.EntitySymbol" xlink:title="pyGHDL.dom.Symbol.EntitySymbol" target="_top">
<polygon fill="none" stroke="#000000" stroke-width=".5" points="853,-37 664,-37 664,-18 853,-18 853,-37"/>
<text text-anchor="middle" x="758.5" y="-25" font-family="Vera Sans, DejaVu Sans, Liberation Sans, Arial, Helvetica, sans" font-size="10.00" fill="#000000">pyGHDL.dom.Symbol.EntitySymbol</text>
</a>
</g>
</g>
<!-- pyGHDL.dom.DOMMixin&#45;&gt;pyGHDL.dom.Symbol.EntitySymbol -->
<g id="edge2" class="edge">
<title>pyGHDL.dom.DOMMixin&#45;&gt;pyGHDL.dom.Symbol.EntitySymbol</title>
<path fill="none" stroke="#000000" stroke-width=".5" d="M585.6725,-41.1822C608.3287,-39.3886 634.1238,-37.3464 658.7476,-35.3971"/>
<polygon fill="#000000" stroke="#000000" stroke-width=".5" points="659.1365,-37.1218 663.9828,-34.9826 658.8602,-33.6328 659.1365,-37.1218"/>
</g>
<!-- pyVHDLModel.SyntaxModel.EntitySymbol -->
<g id="node3" class="node">
<title>pyVHDLModel.SyntaxModel.EntitySymbol</title>
<polygon fill="none" stroke="#000000" stroke-width=".5" points="628,-19 409,-19 409,0 628,0 628,-19"/>
<text text-anchor="middle" x="518.5" y="-7" font-family="Vera Sans, DejaVu Sans, Liberation Sans, Arial, Helvetica, sans" font-size="10.00" fill="#000000">pyVHDLModel.SyntaxModel.EntitySymbol</text>
</g>
<!-- pyVHDLModel.SyntaxModel.EntitySymbol&#45;&gt;pyGHDL.dom.Symbol.EntitySymbol -->
<g id="edge1" class="edge">
<title>pyVHDLModel.SyntaxModel.EntitySymbol&#45;&gt;pyGHDL.dom.Symbol.EntitySymbol</title>
<path fill="none" stroke="#000000" stroke-width=".5" d="M628.3156,-17.7362C638.4058,-18.4929 648.5928,-19.257 658.5883,-20.0066"/>
<polygon fill="#000000" stroke="#000000" stroke-width=".5" points="658.6795,-21.7683 663.7964,-20.3972 658.9413,-18.2781 658.6795,-21.7683"/>
</g>
<!-- pyVHDLModel.ModelEntity -->
<g id="node4" class="node">
<title>pyVHDLModel.ModelEntity</title>
<g id="a_node4"><a xlink:title="``ModelEntity`` is the base class for all classes in the VHDL language model,">
<polygon fill="none" stroke="#000000" stroke-width=".5" points="146,-19 0,-19 0,0 146,0 146,-19"/>
<text text-anchor="middle" x="73" y="-7" font-family="Vera Sans, DejaVu Sans, Liberation Sans, Arial, Helvetica, sans" font-size="10.00" fill="#000000">pyVHDLModel.ModelEntity</text>
</a>
</g>
</g>
<!-- pyVHDLModel.SyntaxModel.Symbol -->
<g id="node5" class="node">
<title>pyVHDLModel.SyntaxModel.Symbol</title>
<polygon fill="none" stroke="#000000" stroke-width=".5" points="373,-19 182,-19 182,0 373,0 373,-19"/>
<text text-anchor="middle" x="277.5" y="-7" font-family="Vera Sans, DejaVu Sans, Liberation Sans, Arial, Helvetica, sans" font-size="10.00" fill="#000000">pyVHDLModel.SyntaxModel.Symbol</text>
</g>
<!-- pyVHDLModel.ModelEntity&#45;&gt;pyVHDLModel.SyntaxModel.Symbol -->
<g id="edge4" class="edge">
<title>pyVHDLModel.ModelEntity&#45;&gt;pyVHDLModel.SyntaxModel.Symbol</title>
<path fill="none" stroke="#000000" stroke-width=".5" d="M146.2516,-9.5C156.1992,-9.5 166.5459,-9.5 176.8707,-9.5"/>
<polygon fill="#000000" stroke="#000000" stroke-width=".5" points="176.9356,-11.2501 181.9356,-9.5 176.9355,-7.7501 176.9356,-11.2501"/>
</g>
<!-- pyVHDLModel.SyntaxModel.Symbol&#45;&gt;pyVHDLModel.SyntaxModel.EntitySymbol -->
<g id="edge3" class="edge">
<title>pyVHDLModel.SyntaxModel.Symbol&#45;&gt;pyVHDLModel.SyntaxModel.EntitySymbol</title>
<path fill="none" stroke="#000000" stroke-width=".5" d="M373.0957,-9.5C383.1471,-9.5 393.4402,-9.5 403.6786,-9.5"/>
<polygon fill="#000000" stroke="#000000" stroke-width=".5" points="403.699,-11.2501 408.6989,-9.5 403.6989,-7.7501 403.699,-11.2501"/>
</g>
</g>
</svg>
