<?xml version="1.0" encoding="UTF-8" standalone="no"?>
<!DOCTYPE svg PUBLIC "-//W3C//DTD SVG 1.1//EN"
 "http://www.w3.org/Graphics/SVG/1.1/DTD/svg11.dtd">
<!-- Generated by graphviz version 2.40.1 (20161225.0304)
 -->
<!-- Title: inheritancecc0aae58a9 Pages: 1 -->
<svg width="576pt" height="44pt"
 viewBox="0.00 0.00 576.00 44.31" xmlns="http://www.w3.org/2000/svg" xmlns:xlink="http://www.w3.org/1999/xlink">
<g id="graph0" class="graph" transform="scale(.4431 .4431) rotate(0) translate(4 96)">
<title>inheritancecc0aae58a9</title>
<polygon fill="#ffffff" stroke="transparent" points="-4,4 -4,-96 1296,-96 1296,4 -4,4"/>
<!-- pyGHDL.dom.DOMMixin -->
<g id="node1" class="node">
<title>pyGHDL.dom.DOMMixin</title>
<g id="a_node1"><a xlink:href="../pyGHDL.dom.html#pyGHDL.dom.DOMMixin" xlink:title="pyGHDL.dom.DOMMixin" target="_top">
<polygon fill="none" stroke="#000000" stroke-width=".5" points="928.5,-92 794.5,-92 794.5,-73 928.5,-73 928.5,-92"/>
<text text-anchor="middle" x="861.5" y="-80" font-family="Vera Sans, DejaVu Sans, Liberation Sans, Arial, Helvetica, sans" font-size="10.00" fill="#000000">pyGHDL.dom.DOMMixin</text>
</a>
</g>
</g>
<!-- pyGHDL.dom.Sequential.SequentialProcedureCall -->
<g id="node2" class="node">
<title>pyGHDL.dom.Sequential.SequentialProcedureCall</title>
<g id="a_node2"><a xlink:href="../pyGHDL/pyGHDL.dom.Sequential.html#pyGHDL.dom.Sequential.SequentialProcedureCall" xlink:title="pyGHDL.dom.Sequential.SequentialProcedureCall" target="_top">
<polygon fill="none" stroke="#000000" stroke-width=".5" points="1292,-73 1034,-73 1034,-54 1292,-54 1292,-73"/>
<text text-anchor="middle" x="1163" y="-61" font-family="Vera Sans, DejaVu Sans, Liberation Sans, Arial, Helvetica, sans" font-size="10.00" fill="#000000">pyGHDL.dom.Sequential.SequentialProcedureCall</text>
</a>
</g>
</g>
<!-- pyGHDL.dom.DOMMixin&#45;&gt;pyGHDL.dom.Sequential.SequentialProcedureCall -->
<g id="edge2" class="edge">
<title>pyGHDL.dom.DOMMixin&#45;&gt;pyGHDL.dom.Sequential.SequentialProcedureCall</title>
<path fill="none" stroke="#000000" stroke-width=".5" d="M928.7872,-78.2597C958.3142,-76.3989 994.0792,-74.1451 1028.6763,-71.9648"/>
<polygon fill="#000000" stroke="#000000" stroke-width=".5" points="1028.8914,-73.7049 1033.7714,-71.6438 1028.6712,-70.2118 1028.8914,-73.7049"/>
</g>
<!-- pyVHDLModel.SyntaxModel.SequentialProcedureCall -->
<g id="node3" class="node">
<title>pyVHDLModel.SyntaxModel.SequentialProcedureCall</title>
<polygon fill="none" stroke="#000000" stroke-width=".5" points="998,-55 725,-55 725,-36 998,-36 998,-55"/>
<text text-anchor="middle" x="861.5" y="-43" font-family="Vera Sans, DejaVu Sans, Liberation Sans, Arial, Helvetica, sans" font-size="10.00" fill="#000000">pyVHDLModel.SyntaxModel.SequentialProcedureCall</text>
</g>
<!-- pyVHDLModel.SyntaxModel.SequentialProcedureCall&#45;&gt;pyGHDL.dom.Sequential.SequentialProcedureCall -->
<g id="edge1" class="edge">
<title>pyVHDLModel.SyntaxModel.SequentialProcedureCall&#45;&gt;pyGHDL.dom.Sequential.SequentialProcedureCall</title>
<path fill="none" stroke="#000000" stroke-width=".5" d="M998.1356,-53.6573C1008.2192,-54.2594 1018.3878,-54.8664 1028.4588,-55.4677"/>
<polygon fill="#000000" stroke="#000000" stroke-width=".5" points="1028.62,-57.2303 1033.7154,-55.7815 1028.8286,-53.7366 1028.62,-57.2303"/>
</g>
<!-- pyVHDLModel.LabeledEntity -->
<g id="node4" class="node">
<title>pyVHDLModel.LabeledEntity</title>
<g id="a_node4"><a xlink:title="A ``LabeledEntity`` is a mixin class for all VHDL entities that can have">
<polygon fill="none" stroke="#000000" stroke-width=".5" points="155,-56 0,-56 0,-37 155,-37 155,-56"/>
<text text-anchor="middle" x="77.5" y="-44" font-family="Vera Sans, DejaVu Sans, Liberation Sans, Arial, Helvetica, sans" font-size="10.00" fill="#000000">pyVHDLModel.LabeledEntity</text>
</a>
</g>
</g>
<!-- pyVHDLModel.SyntaxModel.Statement -->
<g id="node8" class="node">
<title>pyVHDLModel.SyntaxModel.Statement</title>
<polygon fill="none" stroke="#000000" stroke-width=".5" points="396,-37 191,-37 191,-18 396,-18 396,-37"/>
<text text-anchor="middle" x="293.5" y="-25" font-family="Vera Sans, DejaVu Sans, Liberation Sans, Arial, Helvetica, sans" font-size="10.00" fill="#000000">pyVHDLModel.SyntaxModel.Statement</text>
</g>
<!-- pyVHDLModel.LabeledEntity&#45;&gt;pyVHDLModel.SyntaxModel.Statement -->
<g id="edge7" class="edge">
<title>pyVHDLModel.LabeledEntity&#45;&gt;pyVHDLModel.SyntaxModel.Statement</title>
<path fill="none" stroke="#000000" stroke-width=".5" d="M155.1758,-39.6674C165.154,-38.7897 175.5079,-37.8789 185.8575,-36.9686"/>
<polygon fill="#000000" stroke="#000000" stroke-width=".5" points="186.1088,-38.7033 190.9362,-36.5218 185.802,-35.2168 186.1088,-38.7033"/>
</g>
<!-- pyVHDLModel.ModelEntity -->
<g id="node5" class="node">
<title>pyVHDLModel.ModelEntity</title>
<g id="a_node5"><a xlink:title="``ModelEntity`` is the base class for all classes in the VHDL language model,">
<polygon fill="none" stroke="#000000" stroke-width=".5" points="150.5,-19 4.5,-19 4.5,0 150.5,0 150.5,-19"/>
<text text-anchor="middle" x="77.5" y="-7" font-family="Vera Sans, DejaVu Sans, Liberation Sans, Arial, Helvetica, sans" font-size="10.00" fill="#000000">pyVHDLModel.ModelEntity</text>
</a>
</g>
</g>
<!-- pyVHDLModel.ModelEntity&#45;&gt;pyVHDLModel.SyntaxModel.Statement -->
<g id="edge6" class="edge">
<title>pyVHDLModel.ModelEntity&#45;&gt;pyVHDLModel.SyntaxModel.Statement</title>
<path fill="none" stroke="#000000" stroke-width=".5" d="M150.6277,-15.594C161.9793,-16.5399 173.9067,-17.5339 185.8288,-18.5274"/>
<polygon fill="#000000" stroke="#000000" stroke-width=".5" points="185.8081,-20.2817 190.9362,-18.953 186.0988,-16.7937 185.8081,-20.2817"/>
</g>
<!-- pyVHDLModel.SyntaxModel.ProcedureCall -->
<g id="node6" class="node">
<title>pyVHDLModel.SyntaxModel.ProcedureCall</title>
<polygon fill="none" stroke="#000000" stroke-width=".5" points="671,-74 450,-74 450,-55 671,-55 671,-74"/>
<text text-anchor="middle" x="560.5" y="-62" font-family="Vera Sans, DejaVu Sans, Liberation Sans, Arial, Helvetica, sans" font-size="10.00" fill="#000000">pyVHDLModel.SyntaxModel.ProcedureCall</text>
</g>
<!-- pyVHDLModel.SyntaxModel.ProcedureCall&#45;&gt;pyVHDLModel.SyntaxModel.SequentialProcedureCall -->
<g id="edge4" class="edge">
<title>pyVHDLModel.SyntaxModel.ProcedureCall&#45;&gt;pyVHDLModel.SyntaxModel.SequentialProcedureCall</title>
<path fill="none" stroke="#000000" stroke-width=".5" d="M671.299,-57.506C687.0978,-56.5088 703.5252,-55.4718 719.8145,-54.4436"/>
<polygon fill="#000000" stroke="#000000" stroke-width=".5" points="719.9847,-56.1864 724.8645,-54.1248 719.7642,-52.6934 719.9847,-56.1864"/>
</g>
<!-- pyVHDLModel.SyntaxModel.SequentialStatement -->
<g id="node7" class="node">
<title>pyVHDLModel.SyntaxModel.SequentialStatement</title>
<g id="a_node7"><a xlink:title="A ``SequentialStatement`` is a base&#45;class for all sequential statements.">
<polygon fill="none" stroke="#000000" stroke-width=".5" points="689,-37 432,-37 432,-18 689,-18 689,-37"/>
<text text-anchor="middle" x="560.5" y="-25" font-family="Vera Sans, DejaVu Sans, Liberation Sans, Arial, Helvetica, sans" font-size="10.00" fill="#000000">pyVHDLModel.SyntaxModel.SequentialStatement</text>
</a>
</g>
</g>
<!-- pyVHDLModel.SyntaxModel.SequentialStatement&#45;&gt;pyVHDLModel.SyntaxModel.SequentialProcedureCall -->
<g id="edge3" class="edge">
<title>pyVHDLModel.SyntaxModel.SequentialStatement&#45;&gt;pyVHDLModel.SyntaxModel.SequentialProcedureCall</title>
<path fill="none" stroke="#000000" stroke-width=".5" d="M689.0242,-35.1858C699.1856,-35.7935 709.4837,-36.4093 719.7276,-37.0219"/>
<polygon fill="#000000" stroke="#000000" stroke-width=".5" points="719.6557,-38.7707 724.7513,-37.3223 719.8647,-35.2769 719.6557,-38.7707"/>
</g>
<!-- pyVHDLModel.SyntaxModel.Statement&#45;&gt;pyVHDLModel.SyntaxModel.SequentialStatement -->
<g id="edge5" class="edge">
<title>pyVHDLModel.SyntaxModel.Statement&#45;&gt;pyVHDLModel.SyntaxModel.SequentialStatement</title>
<path fill="none" stroke="#000000" stroke-width=".5" d="M396.3473,-27.5C406.3207,-27.5 416.5354,-27.5 426.752,-27.5"/>
<polygon fill="#000000" stroke="#000000" stroke-width=".5" points="426.7666,-29.2501 431.7666,-27.5 426.7665,-25.7501 426.7666,-29.2501"/>
</g>
</g>
</svg>
