<?xml version="1.0" encoding="UTF-8" standalone="no"?>
<!DOCTYPE svg PUBLIC "-//W3C//DTD SVG 1.1//EN"
 "http://www.w3.org/Graphics/SVG/1.1/DTD/svg11.dtd">
<!-- Generated by graphviz version 2.40.1 (20161225.0304)
 -->
<!-- Title: inheritance6db7b2a596 Pages: 1 -->
<svg width="576pt" height="30pt"
 viewBox="0.00 0.00 576.00 30.07" xmlns="http://www.w3.org/2000/svg" xmlns:xlink="http://www.w3.org/1999/xlink">
<g id="graph0" class="graph" transform="scale(.3623 .3623) rotate(0) translate(4 79)">
<title>inheritance6db7b2a596</title>
<polygon fill="#ffffff" stroke="transparent" points="-4,4 -4,-79 1586,-79 1586,4 -4,4"/>
<!-- pyGHDL.dom.Concurrent.CaseGenerateStatement -->
<g id="node1" class="node">
<title>pyGHDL.dom.Concurrent.CaseGenerateStatement</title>
<g id="a_node1"><a xlink:href="../pyGHDL/pyGHDL.dom.Concurrent.html#pyGHDL.dom.Concurrent.CaseGenerateStatement" xlink:title="pyGHDL.dom.Concurrent.CaseGenerateStatement" target="_top">
<polygon fill="none" stroke="#000000" stroke-width=".5" points="1582,-37 1322,-37 1322,-18 1582,-18 1582,-37"/>
<text text-anchor="middle" x="1452" y="-25" font-family="Vera Sans, DejaVu Sans, Liberation Sans, Arial, Helvetica, sans" font-size="10.00" fill="#000000">pyGHDL.dom.Concurrent.CaseGenerateStatement</text>
</a>
</g>
</g>
<!-- pyVHDLModel.SyntaxModel.CaseGenerateStatement -->
<g id="node2" class="node">
<title>pyVHDLModel.SyntaxModel.CaseGenerateStatement</title>
<polygon fill="none" stroke="#000000" stroke-width=".5" points="1286,-56 1012,-56 1012,-37 1286,-37 1286,-56"/>
<text text-anchor="middle" x="1149" y="-44" font-family="Vera Sans, DejaVu Sans, Liberation Sans, Arial, Helvetica, sans" font-size="10.00" fill="#000000">pyVHDLModel.SyntaxModel.CaseGenerateStatement</text>
</g>
<!-- pyVHDLModel.SyntaxModel.CaseGenerateStatement&#45;&gt;pyGHDL.dom.Concurrent.CaseGenerateStatement -->
<g id="edge1" class="edge">
<title>pyVHDLModel.SyntaxModel.CaseGenerateStatement&#45;&gt;pyGHDL.dom.Concurrent.CaseGenerateStatement</title>
<path fill="none" stroke="#000000" stroke-width=".5" d="M1286.3154,-37.8895C1296.3158,-37.2624 1306.3994,-36.6301 1316.3899,-36.0036"/>
<polygon fill="#000000" stroke="#000000" stroke-width=".5" points="1316.7241,-37.7362 1321.6048,-35.6766 1316.505,-34.243 1316.7241,-37.7362"/>
</g>
<!-- pyGHDL.dom.DOMMixin -->
<g id="node3" class="node">
<title>pyGHDL.dom.DOMMixin</title>
<g id="a_node3"><a xlink:href="../pyGHDL.dom.html#pyGHDL.dom.DOMMixin" xlink:title="pyGHDL.dom.DOMMixin" target="_top">
<polygon fill="none" stroke="#000000" stroke-width=".5" points="1216,-19 1082,-19 1082,0 1216,0 1216,-19"/>
<text text-anchor="middle" x="1149" y="-7" font-family="Vera Sans, DejaVu Sans, Liberation Sans, Arial, Helvetica, sans" font-size="10.00" fill="#000000">pyGHDL.dom.DOMMixin</text>
</a>
</g>
</g>
<!-- pyGHDL.dom.DOMMixin&#45;&gt;pyGHDL.dom.Concurrent.CaseGenerateStatement -->
<g id="edge2" class="edge">
<title>pyGHDL.dom.DOMMixin&#45;&gt;pyGHDL.dom.Concurrent.CaseGenerateStatement</title>
<path fill="none" stroke="#000000" stroke-width=".5" d="M1216.2455,-13.4948C1245.9079,-15.2569 1281.8885,-17.3944 1316.7132,-19.4632"/>
<polygon fill="#000000" stroke="#000000" stroke-width=".5" points="1316.7469,-21.2182 1321.8419,-19.7678 1316.9546,-17.7243 1316.7469,-21.2182"/>
</g>
<!-- pyVHDLModel.LabeledEntity -->
<g id="node4" class="node">
<title>pyVHDLModel.LabeledEntity</title>
<g id="a_node4"><a xlink:title="A ``LabeledEntity`` is a mixin class for all VHDL entities that can have">
<polygon fill="none" stroke="#000000" stroke-width=".5" points="155,-75 0,-75 0,-56 155,-56 155,-75"/>
<text text-anchor="middle" x="77.5" y="-63" font-family="Vera Sans, DejaVu Sans, Liberation Sans, Arial, Helvetica, sans" font-size="10.00" fill="#000000">pyVHDLModel.LabeledEntity</text>
</a>
</g>
</g>
<!-- pyVHDLModel.SyntaxModel.Statement -->
<g id="node8" class="node">
<title>pyVHDLModel.SyntaxModel.Statement</title>
<polygon fill="none" stroke="#000000" stroke-width=".5" points="396,-56 191,-56 191,-37 396,-37 396,-56"/>
<text text-anchor="middle" x="293.5" y="-44" font-family="Vera Sans, DejaVu Sans, Liberation Sans, Arial, Helvetica, sans" font-size="10.00" fill="#000000">pyVHDLModel.SyntaxModel.Statement</text>
</g>
<!-- pyVHDLModel.LabeledEntity&#45;&gt;pyVHDLModel.SyntaxModel.Statement -->
<g id="edge7" class="edge">
<title>pyVHDLModel.LabeledEntity&#45;&gt;pyVHDLModel.SyntaxModel.Statement</title>
<path fill="none" stroke="#000000" stroke-width=".5" d="M155.1758,-58.6674C165.154,-57.7897 175.5079,-56.8789 185.8575,-55.9686"/>
<polygon fill="#000000" stroke="#000000" stroke-width=".5" points="186.1088,-57.7033 190.9362,-55.5218 185.802,-54.2168 186.1088,-57.7033"/>
</g>
<!-- pyVHDLModel.ModelEntity -->
<g id="node5" class="node">
<title>pyVHDLModel.ModelEntity</title>
<g id="a_node5"><a xlink:title="``ModelEntity`` is the base class for all classes in the VHDL language model,">
<polygon fill="none" stroke="#000000" stroke-width=".5" points="150.5,-38 4.5,-38 4.5,-19 150.5,-19 150.5,-38"/>
<text text-anchor="middle" x="77.5" y="-26" font-family="Vera Sans, DejaVu Sans, Liberation Sans, Arial, Helvetica, sans" font-size="10.00" fill="#000000">pyVHDLModel.ModelEntity</text>
</a>
</g>
</g>
<!-- pyVHDLModel.ModelEntity&#45;&gt;pyVHDLModel.SyntaxModel.Statement -->
<g id="edge6" class="edge">
<title>pyVHDLModel.ModelEntity&#45;&gt;pyVHDLModel.SyntaxModel.Statement</title>
<path fill="none" stroke="#000000" stroke-width=".5" d="M150.6277,-34.594C161.9793,-35.5399 173.9067,-36.5339 185.8288,-37.5274"/>
<polygon fill="#000000" stroke="#000000" stroke-width=".5" points="185.8081,-39.2817 190.9362,-37.953 186.0988,-35.7937 185.8081,-39.2817"/>
</g>
<!-- pyVHDLModel.SyntaxModel.GenerateStatement -->
<g id="node6" class="node">
<title>pyVHDLModel.SyntaxModel.GenerateStatement</title>
<g id="a_node6"><a xlink:title="A ``GenerateStatement`` is a base&#45;class for all generate statements.">
<polygon fill="none" stroke="#000000" stroke-width=".5" points="976,-56 726,-56 726,-37 976,-37 976,-56"/>
<text text-anchor="middle" x="851" y="-44" font-family="Vera Sans, DejaVu Sans, Liberation Sans, Arial, Helvetica, sans" font-size="10.00" fill="#000000">pyVHDLModel.SyntaxModel.GenerateStatement</text>
</a>
</g>
</g>
<!-- pyVHDLModel.SyntaxModel.GenerateStatement&#45;&gt;pyVHDLModel.SyntaxModel.CaseGenerateStatement -->
<g id="edge3" class="edge">
<title>pyVHDLModel.SyntaxModel.GenerateStatement&#45;&gt;pyVHDLModel.SyntaxModel.CaseGenerateStatement</title>
<path fill="none" stroke="#000000" stroke-width=".5" d="M976.0836,-46.5C986.2127,-46.5 996.4933,-46.5 1006.7314,-46.5"/>
<polygon fill="#000000" stroke="#000000" stroke-width=".5" points="1006.7531,-48.2501 1011.7531,-46.5 1006.7531,-44.7501 1006.7531,-48.2501"/>
</g>
<!-- pyVHDLModel.SyntaxModel.ConcurrentStatement -->
<g id="node7" class="node">
<title>pyVHDLModel.SyntaxModel.ConcurrentStatement</title>
<g id="a_node7"><a xlink:title="A ``ConcurrentStatement`` is a base&#45;class for all concurrent statements.">
<polygon fill="none" stroke="#000000" stroke-width=".5" points="690,-56 432,-56 432,-37 690,-37 690,-56"/>
<text text-anchor="middle" x="561" y="-44" font-family="Vera Sans, DejaVu Sans, Liberation Sans, Arial, Helvetica, sans" font-size="10.00" fill="#000000">pyVHDLModel.SyntaxModel.ConcurrentStatement</text>
</a>
</g>
</g>
<!-- pyVHDLModel.SyntaxModel.ConcurrentStatement&#45;&gt;pyVHDLModel.SyntaxModel.GenerateStatement -->
<g id="edge5" class="edge">
<title>pyVHDLModel.SyntaxModel.ConcurrentStatement&#45;&gt;pyVHDLModel.SyntaxModel.GenerateStatement</title>
<path fill="none" stroke="#000000" stroke-width=".5" d="M690.3096,-46.5C700.3421,-46.5 710.4759,-46.5 720.516,-46.5"/>
<polygon fill="#000000" stroke="#000000" stroke-width=".5" points="720.7567,-48.2501 725.7567,-46.5 720.7567,-44.7501 720.7567,-48.2501"/>
</g>
<!-- pyVHDLModel.SyntaxModel.Statement&#45;&gt;pyVHDLModel.SyntaxModel.ConcurrentStatement -->
<g id="edge4" class="edge">
<title>pyVHDLModel.SyntaxModel.Statement&#45;&gt;pyVHDLModel.SyntaxModel.ConcurrentStatement</title>
<path fill="none" stroke="#000000" stroke-width=".5" d="M396.1575,-46.5C406.1602,-46.5 416.4086,-46.5 426.6617,-46.5"/>
<polygon fill="#000000" stroke="#000000" stroke-width=".5" points="426.6943,-48.2501 431.6943,-46.5 426.6942,-44.7501 426.6943,-48.2501"/>
</g>
</g>
</svg>
