<?xml version="1.0" encoding="UTF-8" standalone="no"?>
<!DOCTYPE svg PUBLIC "-//W3C//DTD SVG 1.1//EN"
 "http://www.w3.org/Graphics/SVG/1.1/DTD/svg11.dtd">
<!-- Generated by graphviz version 2.40.1 (20161225.0304)
 -->
<!-- Title: inheritance098d0f4b4c Pages: 1 -->
<svg width="576pt" height="61pt"
 viewBox="0.00 0.00 576.00 61.03" xmlns="http://www.w3.org/2000/svg" xmlns:xlink="http://www.w3.org/1999/xlink">
<g id="graph0" class="graph" transform="scale(.9536 .9536) rotate(0) translate(4 60)">
<title>inheritance098d0f4b4c</title>
<polygon fill="#ffffff" stroke="transparent" points="-4,4 -4,-60 600,-60 600,4 -4,4"/>
<!-- pyGHDL.dom.NonStandard.Library -->
<g id="node1" class="node">
<title>pyGHDL.dom.NonStandard.Library</title>
<g id="a_node1"><a xlink:href="../pyGHDL/pyGHDL.dom.NonStandard.html#pyGHDL.dom.NonStandard.Library" xlink:title="pyGHDL.dom.NonStandard.Library" target="_top">
<polygon fill="none" stroke="#000000" stroke-width=".5" points="596,-37 412,-37 412,-18 596,-18 596,-37"/>
<text text-anchor="middle" x="504" y="-25" font-family="Vera Sans, DejaVu Sans, Liberation Sans, Arial, Helvetica, sans" font-size="10.00" fill="#000000">pyGHDL.dom.NonStandard.Library</text>
</a>
</g>
</g>
<!-- pyVHDLModel.SyntaxModel.Library -->
<g id="node2" class="node">
<title>pyVHDLModel.SyntaxModel.Library</title>
<g id="a_node2"><a xlink:title="A ``Library`` represents a VHDL library. It contains all *primary* design">
<polygon fill="none" stroke="#000000" stroke-width=".5" points="376,-37 188,-37 188,-18 376,-18 376,-37"/>
<text text-anchor="middle" x="282" y="-25" font-family="Vera Sans, DejaVu Sans, Liberation Sans, Arial, Helvetica, sans" font-size="10.00" fill="#000000">pyVHDLModel.SyntaxModel.Library</text>
</a>
</g>
</g>
<!-- pyVHDLModel.SyntaxModel.Library&#45;&gt;pyGHDL.dom.NonStandard.Library -->
<g id="edge1" class="edge">
<title>pyVHDLModel.SyntaxModel.Library&#45;&gt;pyGHDL.dom.NonStandard.Library</title>
<path fill="none" stroke="#000000" stroke-width=".5" d="M376.148,-27.5C386.2114,-27.5 396.464,-27.5 406.5646,-27.5"/>
<polygon fill="#000000" stroke="#000000" stroke-width=".5" points="406.8308,-29.2501 411.8308,-27.5 406.8308,-25.7501 406.8308,-29.2501"/>
</g>
<!-- pyVHDLModel.ModelEntity -->
<g id="node3" class="node">
<title>pyVHDLModel.ModelEntity</title>
<g id="a_node3"><a xlink:title="``ModelEntity`` is the base class for all classes in the VHDL language model,">
<polygon fill="none" stroke="#000000" stroke-width=".5" points="149,-56 3,-56 3,-37 149,-37 149,-56"/>
<text text-anchor="middle" x="76" y="-44" font-family="Vera Sans, DejaVu Sans, Liberation Sans, Arial, Helvetica, sans" font-size="10.00" fill="#000000">pyVHDLModel.ModelEntity</text>
</a>
</g>
</g>
<!-- pyVHDLModel.ModelEntity&#45;&gt;pyVHDLModel.SyntaxModel.Library -->
<g id="edge2" class="edge">
<title>pyVHDLModel.ModelEntity&#45;&gt;pyVHDLModel.SyntaxModel.Library</title>
<path fill="none" stroke="#000000" stroke-width=".5" d="M149.2079,-39.7478C160.0388,-38.7488 171.3506,-37.7055 182.6049,-36.6675"/>
<polygon fill="#000000" stroke="#000000" stroke-width=".5" points="182.9517,-38.393 187.7698,-36.1911 182.6302,-34.9078 182.9517,-38.393"/>
</g>
<!-- pyVHDLModel.NamedEntity -->
<g id="node4" class="node">
<title>pyVHDLModel.NamedEntity</title>
<g id="a_node4"><a xlink:title="A ``NamedEntity`` is a mixin class for all VHDL entities that have identifiers.">
<polygon fill="none" stroke="#000000" stroke-width=".5" points="152,-19 0,-19 0,0 152,0 152,-19"/>
<text text-anchor="middle" x="76" y="-7" font-family="Vera Sans, DejaVu Sans, Liberation Sans, Arial, Helvetica, sans" font-size="10.00" fill="#000000">pyVHDLModel.NamedEntity</text>
</a>
</g>
</g>
<!-- pyVHDLModel.NamedEntity&#45;&gt;pyVHDLModel.SyntaxModel.Library -->
<g id="edge3" class="edge">
<title>pyVHDLModel.NamedEntity&#45;&gt;pyVHDLModel.SyntaxModel.Library</title>
<path fill="none" stroke="#000000" stroke-width=".5" d="M152.1215,-16.1514C162.0695,-17.0206 172.3772,-17.9213 182.6368,-18.8178"/>
<polygon fill="#000000" stroke="#000000" stroke-width=".5" points="182.5342,-20.5654 187.6676,-19.2574 182.8389,-17.0787 182.5342,-20.5654"/>
</g>
</g>
</svg>
