<?xml version="1.0" encoding="UTF-8" standalone="no"?>
<!DOCTYPE svg PUBLIC "-//W3C//DTD SVG 1.1//EN"
 "http://www.w3.org/Graphics/SVG/1.1/DTD/svg11.dtd">
<!-- Generated by graphviz version 2.40.1 (20161225.0304)
 -->
<!-- Title: inheritance7957d3aa8f Pages: 1 -->
<svg width="576pt" height="26pt"
 viewBox="0.00 0.00 576.00 26.01" xmlns="http://www.w3.org/2000/svg" xmlns:xlink="http://www.w3.org/1999/xlink">
<g id="graph0" class="graph" transform="scale(.9632 .9632) rotate(0) translate(4 23)">
<title>inheritance7957d3aa8f</title>
<polygon fill="#ffffff" stroke="transparent" points="-4,4 -4,-23 594,-23 594,4 -4,4"/>
<!-- pyGHDL.dom.NonStandard.Design -->
<g id="node1" class="node">
<title>pyGHDL.dom.NonStandard.Design</title>
<g id="a_node1"><a xlink:href="../pyGHDL/pyGHDL.dom.NonStandard.html#pyGHDL.dom.NonStandard.Design" xlink:title="pyGHDL.dom.NonStandard.Design" target="_top">
<polygon fill="none" stroke="#000000" stroke-width=".5" points="590,-19 406,-19 406,0 590,0 590,-19"/>
<text text-anchor="middle" x="498" y="-7" font-family="Vera Sans, DejaVu Sans, Liberation Sans, Arial, Helvetica, sans" font-size="10.00" fill="#000000">pyGHDL.dom.NonStandard.Design</text>
</a>
</g>
</g>
<!-- pyVHDLModel.SyntaxModel.Design -->
<g id="node2" class="node">
<title>pyVHDLModel.SyntaxModel.Design</title>
<g id="a_node2"><a xlink:title="A ``Design`` represents all loaded files (see :class:`~pyVHDLModel.VHDLModel.Document`)">
<polygon fill="none" stroke="#000000" stroke-width=".5" points="370,-19 182,-19 182,0 370,0 370,-19"/>
<text text-anchor="middle" x="276" y="-7" font-family="Vera Sans, DejaVu Sans, Liberation Sans, Arial, Helvetica, sans" font-size="10.00" fill="#000000">pyVHDLModel.SyntaxModel.Design</text>
</a>
</g>
</g>
<!-- pyVHDLModel.SyntaxModel.Design&#45;&gt;pyGHDL.dom.NonStandard.Design -->
<g id="edge1" class="edge">
<title>pyVHDLModel.SyntaxModel.Design&#45;&gt;pyGHDL.dom.NonStandard.Design</title>
<path fill="none" stroke="#000000" stroke-width=".5" d="M370.148,-9.5C380.2114,-9.5 390.464,-9.5 400.5646,-9.5"/>
<polygon fill="#000000" stroke="#000000" stroke-width=".5" points="400.8308,-11.2501 405.8308,-9.5 400.8308,-7.7501 400.8308,-11.2501"/>
</g>
<!-- pyVHDLModel.ModelEntity -->
<g id="node3" class="node">
<title>pyVHDLModel.ModelEntity</title>
<g id="a_node3"><a xlink:title="``ModelEntity`` is the base class for all classes in the VHDL language model,">
<polygon fill="none" stroke="#000000" stroke-width=".5" points="146,-19 0,-19 0,0 146,0 146,-19"/>
<text text-anchor="middle" x="73" y="-7" font-family="Vera Sans, DejaVu Sans, Liberation Sans, Arial, Helvetica, sans" font-size="10.00" fill="#000000">pyVHDLModel.ModelEntity</text>
</a>
</g>
</g>
<!-- pyVHDLModel.ModelEntity&#45;&gt;pyVHDLModel.SyntaxModel.Design -->
<g id="edge2" class="edge">
<title>pyVHDLModel.ModelEntity&#45;&gt;pyVHDLModel.SyntaxModel.Design</title>
<path fill="none" stroke="#000000" stroke-width=".5" d="M146.0009,-9.5C155.9646,-9.5 166.327,-9.5 176.6596,-9.5"/>
<polygon fill="#000000" stroke="#000000" stroke-width=".5" points="176.7277,-11.2501 181.7277,-9.5 176.7277,-7.7501 176.7277,-11.2501"/>
</g>
</g>
</svg>
