<?xml version="1.0" encoding="UTF-8" standalone="no"?>
<!DOCTYPE svg PUBLIC "-//W3C//DTD SVG 1.1//EN"
 "http://www.w3.org/Graphics/SVG/1.1/DTD/svg11.dtd">
<!-- Generated by graphviz version 2.40.1 (20161225.0304)
 -->
<!-- Title: inheritance78c203a763 Pages: 1 -->
<svg width="576pt" height="41pt"
 viewBox="0.00 0.00 576.00 41.29" xmlns="http://www.w3.org/2000/svg" xmlns:xlink="http://www.w3.org/1999/xlink">
<g id="graph0" class="graph" transform="scale(.4129 .4129) rotate(0) translate(4 96)">
<title>inheritance78c203a763</title>
<polygon fill="#ffffff" stroke="transparent" points="-4,4 -4,-96 1391,-96 1391,4 -4,4"/>
<!-- pyGHDL.dom.DOMMixin -->
<g id="node1" class="node">
<title>pyGHDL.dom.DOMMixin</title>
<g id="a_node1"><a xlink:href="../pyGHDL.dom.html#pyGHDL.dom.DOMMixin" xlink:title="pyGHDL.dom.DOMMixin" target="_top">
<polygon fill="none" stroke="#000000" stroke-width=".5" points="960,-92 826,-92 826,-73 960,-73 960,-92"/>
<text text-anchor="middle" x="893" y="-80" font-family="Vera Sans, DejaVu Sans, Liberation Sans, Arial, Helvetica, sans" font-size="10.00" fill="#000000">pyGHDL.dom.DOMMixin</text>
</a>
</g>
</g>
<!-- pyGHDL.dom.InterfaceItem.GenericProcedureInterfaceItem -->
<g id="node2" class="node">
<title>pyGHDL.dom.InterfaceItem.GenericProcedureInterfaceItem</title>
<g id="a_node2"><a xlink:href="../pyGHDL/pyGHDL.dom.InterfaceItem.html#pyGHDL.dom.InterfaceItem.GenericProcedureInterfaceItem" xlink:title="pyGHDL.dom.InterfaceItem.GenericProcedureInterfaceItem" target="_top">
<polygon fill="none" stroke="#000000" stroke-width=".5" points="1387,-73 1082,-73 1082,-54 1387,-54 1387,-73"/>
<text text-anchor="middle" x="1234.5" y="-61" font-family="Vera Sans, DejaVu Sans, Liberation Sans, Arial, Helvetica, sans" font-size="10.00" fill="#000000">pyGHDL.dom.InterfaceItem.GenericProcedureInterfaceItem</text>
</a>
</g>
</g>
<!-- pyGHDL.dom.DOMMixin&#45;&gt;pyGHDL.dom.InterfaceItem.GenericProcedureInterfaceItem -->
<g id="edge2" class="edge">
<title>pyGHDL.dom.DOMMixin&#45;&gt;pyGHDL.dom.InterfaceItem.GenericProcedureInterfaceItem</title>
<path fill="none" stroke="#000000" stroke-width=".5" d="M960.0619,-78.7689C993.5671,-76.9048 1035.6446,-74.5637 1076.7158,-72.2786"/>
<polygon fill="#000000" stroke="#000000" stroke-width=".5" points="1076.8239,-74.0254 1081.7189,-72.0003 1076.6294,-70.5308 1076.8239,-74.0254"/>
</g>
<!-- pyVHDLModel.SyntaxModel.GenericProcedureInterfaceItem -->
<g id="node3" class="node">
<title>pyVHDLModel.SyntaxModel.GenericProcedureInterfaceItem</title>
<polygon fill="none" stroke="#000000" stroke-width=".5" points="1046,-55 740,-55 740,-36 1046,-36 1046,-55"/>
<text text-anchor="middle" x="893" y="-43" font-family="Vera Sans, DejaVu Sans, Liberation Sans, Arial, Helvetica, sans" font-size="10.00" fill="#000000">pyVHDLModel.SyntaxModel.GenericProcedureInterfaceItem</text>
</g>
<!-- pyVHDLModel.SyntaxModel.GenericProcedureInterfaceItem&#45;&gt;pyGHDL.dom.InterfaceItem.GenericProcedureInterfaceItem -->
<g id="edge1" class="edge">
<title>pyVHDLModel.SyntaxModel.GenericProcedureInterfaceItem&#45;&gt;pyGHDL.dom.InterfaceItem.GenericProcedureInterfaceItem</title>
<path fill="none" stroke="#000000" stroke-width=".5" d="M1046.2687,-53.5786C1056.3098,-54.1078 1066.4325,-54.6414 1076.4957,-55.1718"/>
<polygon fill="#000000" stroke="#000000" stroke-width=".5" points="1076.6667,-56.9332 1081.752,-55.4489 1076.851,-53.438 1076.6667,-56.9332"/>
</g>
<!-- pyVHDLModel.ModelEntity -->
<g id="node4" class="node">
<title>pyVHDLModel.ModelEntity</title>
<g id="a_node4"><a xlink:title="``ModelEntity`` is the base class for all classes in the VHDL language model,">
<polygon fill="none" stroke="#000000" stroke-width=".5" points="149,-56 3,-56 3,-37 149,-37 149,-56"/>
<text text-anchor="middle" x="76" y="-44" font-family="Vera Sans, DejaVu Sans, Liberation Sans, Arial, Helvetica, sans" font-size="10.00" fill="#000000">pyVHDLModel.ModelEntity</text>
</a>
</g>
</g>
<!-- pyVHDLModel.SyntaxModel.SubProgramm -->
<g id="node9" class="node">
<title>pyVHDLModel.SyntaxModel.SubProgramm</title>
<polygon fill="none" stroke="#000000" stroke-width=".5" points="411,-37 188,-37 188,-18 411,-18 411,-37"/>
<text text-anchor="middle" x="299.5" y="-25" font-family="Vera Sans, DejaVu Sans, Liberation Sans, Arial, Helvetica, sans" font-size="10.00" fill="#000000">pyVHDLModel.SyntaxModel.SubProgramm</text>
</g>
<!-- pyVHDLModel.ModelEntity&#45;&gt;pyVHDLModel.SyntaxModel.SubProgramm -->
<g id="edge7" class="edge">
<title>pyVHDLModel.ModelEntity&#45;&gt;pyVHDLModel.SyntaxModel.SubProgramm</title>
<path fill="none" stroke="#000000" stroke-width=".5" d="M149.1823,-40.2787C159.8911,-39.3683 171.1385,-38.4122 182.4585,-37.4498"/>
<polygon fill="#000000" stroke="#000000" stroke-width=".5" points="182.8293,-39.1747 187.663,-37.0074 182.5327,-35.6873 182.8293,-39.1747"/>
</g>
<!-- pyVHDLModel.NamedEntity -->
<g id="node5" class="node">
<title>pyVHDLModel.NamedEntity</title>
<g id="a_node5"><a xlink:title="A ``NamedEntity`` is a mixin class for all VHDL entities that have identifiers.">
<polygon fill="none" stroke="#000000" stroke-width=".5" points="152,-19 0,-19 0,0 152,0 152,-19"/>
<text text-anchor="middle" x="76" y="-7" font-family="Vera Sans, DejaVu Sans, Liberation Sans, Arial, Helvetica, sans" font-size="10.00" fill="#000000">pyVHDLModel.NamedEntity</text>
</a>
</g>
</g>
<!-- pyVHDLModel.NamedEntity&#45;&gt;pyVHDLModel.SyntaxModel.SubProgramm -->
<g id="edge8" class="edge">
<title>pyVHDLModel.NamedEntity&#45;&gt;pyVHDLModel.SyntaxModel.SubProgramm</title>
<path fill="none" stroke="#000000" stroke-width=".5" d="M152.2909,-15.6442C162.1803,-16.4407 172.483,-17.2704 182.842,-18.1047"/>
<polygon fill="#000000" stroke="#000000" stroke-width=".5" points="182.8059,-19.8574 187.9303,-18.5145 183.087,-16.3687 182.8059,-19.8574"/>
</g>
<!-- pyVHDLModel.SyntaxModel.GenericInterfaceItem -->
<g id="node6" class="node">
<title>pyVHDLModel.SyntaxModel.GenericInterfaceItem</title>
<g id="a_node6"><a xlink:title="A ``GenericInterfaceItem`` is a mixin class for all generic interface items.">
<polygon fill="none" stroke="#000000" stroke-width=".5" points="704,-74 447,-74 447,-55 704,-55 704,-74"/>
<text text-anchor="middle" x="575.5" y="-62" font-family="Vera Sans, DejaVu Sans, Liberation Sans, Arial, Helvetica, sans" font-size="10.00" fill="#000000">pyVHDLModel.SyntaxModel.GenericInterfaceItem</text>
</a>
</g>
</g>
<!-- pyVHDLModel.SyntaxModel.GenericInterfaceItem&#45;&gt;pyVHDLModel.SyntaxModel.GenericProcedureInterfaceItem -->
<g id="edge5" class="edge">
<title>pyVHDLModel.SyntaxModel.GenericInterfaceItem&#45;&gt;pyVHDLModel.SyntaxModel.GenericProcedureInterfaceItem</title>
<path fill="none" stroke="#000000" stroke-width=".5" d="M704.1817,-56.7994C714.3007,-56.1938 724.5888,-55.5781 734.8735,-54.9627"/>
<polygon fill="#000000" stroke="#000000" stroke-width=".5" points="735.0348,-56.7063 739.9213,-54.6606 734.8256,-53.2125 735.0348,-56.7063"/>
</g>
<!-- pyVHDLModel.SyntaxModel.InterfaceItem -->
<g id="node7" class="node">
<title>pyVHDLModel.SyntaxModel.InterfaceItem</title>
<g id="a_node7"><a xlink:title="An ``InterfaceItem`` is a base&#45;class for all mixin&#45;classes for all interface">
<polygon fill="none" stroke="#000000" stroke-width=".5" points="409.5,-74 189.5,-74 189.5,-55 409.5,-55 409.5,-74"/>
<text text-anchor="middle" x="299.5" y="-62" font-family="Vera Sans, DejaVu Sans, Liberation Sans, Arial, Helvetica, sans" font-size="10.00" fill="#000000">pyVHDLModel.SyntaxModel.InterfaceItem</text>
</a>
</g>
</g>
<!-- pyVHDLModel.SyntaxModel.InterfaceItem&#45;&gt;pyVHDLModel.SyntaxModel.GenericInterfaceItem -->
<g id="edge3" class="edge">
<title>pyVHDLModel.SyntaxModel.InterfaceItem&#45;&gt;pyVHDLModel.SyntaxModel.GenericInterfaceItem</title>
<path fill="none" stroke="#000000" stroke-width=".5" d="M409.7724,-64.5C420.2242,-64.5 430.8974,-64.5 441.5385,-64.5"/>
<polygon fill="#000000" stroke="#000000" stroke-width=".5" points="441.7587,-66.2501 446.7587,-64.5 441.7587,-62.7501 441.7587,-66.2501"/>
</g>
<!-- pyVHDLModel.SyntaxModel.Procedure -->
<g id="node8" class="node">
<title>pyVHDLModel.SyntaxModel.Procedure</title>
<polygon fill="none" stroke="#000000" stroke-width=".5" points="677,-37 474,-37 474,-18 677,-18 677,-37"/>
<text text-anchor="middle" x="575.5" y="-25" font-family="Vera Sans, DejaVu Sans, Liberation Sans, Arial, Helvetica, sans" font-size="10.00" fill="#000000">pyVHDLModel.SyntaxModel.Procedure</text>
</g>
<!-- pyVHDLModel.SyntaxModel.Procedure&#45;&gt;pyVHDLModel.SyntaxModel.GenericProcedureInterfaceItem -->
<g id="edge4" class="edge">
<title>pyVHDLModel.SyntaxModel.Procedure&#45;&gt;pyVHDLModel.SyntaxModel.GenericProcedureInterfaceItem</title>
<path fill="none" stroke="#000000" stroke-width=".5" d="M677.2691,-33.2696C695.5064,-34.3035 714.9006,-35.403 734.2939,-36.5025"/>
<polygon fill="#000000" stroke="#000000" stroke-width=".5" points="734.6718,-38.2766 739.7628,-36.8125 734.8699,-34.7822 734.6718,-38.2766"/>
</g>
<!-- pyVHDLModel.SyntaxModel.SubProgramm&#45;&gt;pyVHDLModel.SyntaxModel.Procedure -->
<g id="edge6" class="edge">
<title>pyVHDLModel.SyntaxModel.SubProgramm&#45;&gt;pyVHDLModel.SyntaxModel.Procedure</title>
<path fill="none" stroke="#000000" stroke-width=".5" d="M411.3619,-27.5C430.2107,-27.5 449.7347,-27.5 468.4572,-27.5"/>
<polygon fill="#000000" stroke="#000000" stroke-width=".5" points="468.7155,-29.2501 473.7155,-27.5 468.7154,-25.7501 468.7155,-29.2501"/>
</g>
</g>
</svg>
