<?xml version="1.0" encoding="UTF-8" standalone="no"?>
<!DOCTYPE svg PUBLIC "-//W3C//DTD SVG 1.1//EN"
 "http://www.w3.org/Graphics/SVG/1.1/DTD/svg11.dtd">
<!-- Generated by graphviz version 2.40.1 (20161225.0304)
 -->
<!-- Title: inheritance55a76fa771 Pages: 1 -->
<svg width="576pt" height="38pt"
 viewBox="0.00 0.00 576.00 38.34" xmlns="http://www.w3.org/2000/svg" xmlns:xlink="http://www.w3.org/1999/xlink">
<g id="graph0" class="graph" transform="scale(.4675 .4675) rotate(0) translate(4 78)">
<title>inheritance55a76fa771</title>
<polygon fill="#ffffff" stroke="transparent" points="-4,4 -4,-78 1228,-78 1228,4 -4,4"/>
<!-- pyGHDL.dom.DOMMixin -->
<g id="node1" class="node">
<title>pyGHDL.dom.DOMMixin</title>
<g id="a_node1"><a xlink:href="../pyGHDL.dom.html#pyGHDL.dom.DOMMixin" xlink:title="pyGHDL.dom.DOMMixin" target="_top">
<polygon fill="none" stroke="#000000" stroke-width=".5" points="970,-74 836,-74 836,-55 970,-55 970,-74"/>
<text text-anchor="middle" x="903" y="-62" font-family="Vera Sans, DejaVu Sans, Liberation Sans, Arial, Helvetica, sans" font-size="10.00" fill="#000000">pyGHDL.dom.DOMMixin</text>
</a>
</g>
</g>
<!-- pyGHDL.dom.PSL.VerificationUnit -->
<g id="node2" class="node">
<title>pyGHDL.dom.PSL.VerificationUnit</title>
<g id="a_node2"><a xlink:href="../pyGHDL/pyGHDL.dom.PSL.html#pyGHDL.dom.PSL.VerificationUnit" xlink:title="pyGHDL.dom.PSL.VerificationUnit" target="_top">
<polygon fill="none" stroke="#000000" stroke-width=".5" points="1224,-55 1045,-55 1045,-36 1224,-36 1224,-55"/>
<text text-anchor="middle" x="1134.5" y="-43" font-family="Vera Sans, DejaVu Sans, Liberation Sans, Arial, Helvetica, sans" font-size="10.00" fill="#000000">pyGHDL.dom.PSL.VerificationUnit</text>
</a>
</g>
</g>
<!-- pyGHDL.dom.DOMMixin&#45;&gt;pyGHDL.dom.PSL.VerificationUnit -->
<g id="edge2" class="edge">
<title>pyGHDL.dom.DOMMixin&#45;&gt;pyGHDL.dom.PSL.VerificationUnit</title>
<path fill="none" stroke="#000000" stroke-width=".5" d="M970.2704,-58.9789C991.8658,-57.2065 1016.209,-55.2085 1039.4081,-53.3045"/>
<polygon fill="#000000" stroke="#000000" stroke-width=".5" points="1039.8104,-55.0275 1044.6505,-52.8743 1039.524,-51.5392 1039.8104,-55.0275"/>
</g>
<!-- pyVHDLModel.PSLModel.VerificationUnit -->
<g id="node3" class="node">
<title>pyVHDLModel.PSLModel.VerificationUnit</title>
<polygon fill="none" stroke="#000000" stroke-width=".5" points="1009,-37 797,-37 797,-18 1009,-18 1009,-37"/>
<text text-anchor="middle" x="903" y="-25" font-family="Vera Sans, DejaVu Sans, Liberation Sans, Arial, Helvetica, sans" font-size="10.00" fill="#000000">pyVHDLModel.PSLModel.VerificationUnit</text>
</g>
<!-- pyVHDLModel.PSLModel.VerificationUnit&#45;&gt;pyGHDL.dom.PSL.VerificationUnit -->
<g id="edge1" class="edge">
<title>pyVHDLModel.PSLModel.VerificationUnit&#45;&gt;pyGHDL.dom.PSL.VerificationUnit</title>
<path fill="none" stroke="#000000" stroke-width=".5" d="M1009.2643,-35.7625C1019.3862,-36.5495 1029.6055,-37.3441 1039.6097,-38.1219"/>
<polygon fill="#000000" stroke="#000000" stroke-width=".5" points="1039.6994,-39.8841 1044.8201,-38.527 1039.9708,-36.3946 1039.6994,-39.8841"/>
</g>
<!-- pyVHDLModel.DesignUnit -->
<g id="node4" class="node">
<title>pyVHDLModel.DesignUnit</title>
<g id="a_node4"><a xlink:title="A ``DesignUnit`` is a base&#45;class for all design units.">
<polygon fill="none" stroke="#000000" stroke-width=".5" points="330,-37 188,-37 188,-18 330,-18 330,-37"/>
<text text-anchor="middle" x="259" y="-25" font-family="Vera Sans, DejaVu Sans, Liberation Sans, Arial, Helvetica, sans" font-size="10.00" fill="#000000">pyVHDLModel.DesignUnit</text>
</a>
</g>
</g>
<!-- pyVHDLModel.PrimaryUnit -->
<g id="node8" class="node">
<title>pyVHDLModel.PrimaryUnit</title>
<g id="a_node8"><a xlink:title="A ``PrimaryUnit`` is a base&#45;class for all primary units.">
<polygon fill="none" stroke="#000000" stroke-width=".5" points="512,-37 366,-37 366,-18 512,-18 512,-37"/>
<text text-anchor="middle" x="439" y="-25" font-family="Vera Sans, DejaVu Sans, Liberation Sans, Arial, Helvetica, sans" font-size="10.00" fill="#000000">pyVHDLModel.PrimaryUnit</text>
</a>
</g>
</g>
<!-- pyVHDLModel.DesignUnit&#45;&gt;pyVHDLModel.PrimaryUnit -->
<g id="edge7" class="edge">
<title>pyVHDLModel.DesignUnit&#45;&gt;pyVHDLModel.PrimaryUnit</title>
<path fill="none" stroke="#000000" stroke-width=".5" d="M330.1408,-27.5C340.0988,-27.5 350.3794,-27.5 360.4647,-27.5"/>
<polygon fill="#000000" stroke="#000000" stroke-width=".5" points="360.7182,-29.2501 365.7182,-27.5 360.7181,-25.7501 360.7182,-29.2501"/>
</g>
<!-- pyVHDLModel.ModelEntity -->
<g id="node5" class="node">
<title>pyVHDLModel.ModelEntity</title>
<g id="a_node5"><a xlink:title="``ModelEntity`` is the base class for all classes in the VHDL language model,">
<polygon fill="none" stroke="#000000" stroke-width=".5" points="149,-56 3,-56 3,-37 149,-37 149,-56"/>
<text text-anchor="middle" x="76" y="-44" font-family="Vera Sans, DejaVu Sans, Liberation Sans, Arial, Helvetica, sans" font-size="10.00" fill="#000000">pyVHDLModel.ModelEntity</text>
</a>
</g>
</g>
<!-- pyVHDLModel.ModelEntity&#45;&gt;pyVHDLModel.DesignUnit -->
<g id="edge3" class="edge">
<title>pyVHDLModel.ModelEntity&#45;&gt;pyVHDLModel.DesignUnit</title>
<path fill="none" stroke="#000000" stroke-width=".5" d="M149.1154,-38.9088C160.1661,-37.7614 171.59,-36.5754 182.7058,-35.4213"/>
<polygon fill="#000000" stroke="#000000" stroke-width=".5" points="182.9964,-37.1506 187.789,-34.8935 182.6349,-33.6693 182.9964,-37.1506"/>
</g>
<!-- pyVHDLModel.NamedEntity -->
<g id="node6" class="node">
<title>pyVHDLModel.NamedEntity</title>
<g id="a_node6"><a xlink:title="A ``NamedEntity`` is a mixin class for all VHDL entities that have identifiers.">
<polygon fill="none" stroke="#000000" stroke-width=".5" points="152,-19 0,-19 0,0 152,0 152,-19"/>
<text text-anchor="middle" x="76" y="-7" font-family="Vera Sans, DejaVu Sans, Liberation Sans, Arial, Helvetica, sans" font-size="10.00" fill="#000000">pyVHDLModel.NamedEntity</text>
</a>
</g>
</g>
<!-- pyVHDLModel.NamedEntity&#45;&gt;pyVHDLModel.DesignUnit -->
<g id="edge4" class="edge">
<title>pyVHDLModel.NamedEntity&#45;&gt;pyVHDLModel.DesignUnit</title>
<path fill="none" stroke="#000000" stroke-width=".5" d="M152.0187,-16.9772C162.23,-17.9816 172.7064,-19.0121 182.9189,-20.0166"/>
<polygon fill="#000000" stroke="#000000" stroke-width=".5" points="182.7614,-21.7595 187.9087,-20.5074 183.1041,-18.2763 182.7614,-21.7595"/>
</g>
<!-- pyVHDLModel.PSLModel.PSLPrimaryUnit -->
<g id="node7" class="node">
<title>pyVHDLModel.PSLModel.PSLPrimaryUnit</title>
<polygon fill="none" stroke="#000000" stroke-width=".5" points="761,-37 548,-37 548,-18 761,-18 761,-37"/>
<text text-anchor="middle" x="654.5" y="-25" font-family="Vera Sans, DejaVu Sans, Liberation Sans, Arial, Helvetica, sans" font-size="10.00" fill="#000000">pyVHDLModel.PSLModel.PSLPrimaryUnit</text>
</g>
<!-- pyVHDLModel.PSLModel.PSLPrimaryUnit&#45;&gt;pyVHDLModel.PSLModel.VerificationUnit -->
<g id="edge6" class="edge">
<title>pyVHDLModel.PSLModel.PSLPrimaryUnit&#45;&gt;pyVHDLModel.PSLModel.VerificationUnit</title>
<path fill="none" stroke="#000000" stroke-width=".5" d="M761.3285,-27.5C771.2983,-27.5 781.4208,-27.5 791.4323,-27.5"/>
<polygon fill="#000000" stroke="#000000" stroke-width=".5" points="791.6562,-29.2501 796.6562,-27.5 791.6562,-25.7501 791.6562,-29.2501"/>
</g>
<!-- pyVHDLModel.PrimaryUnit&#45;&gt;pyVHDLModel.PSLModel.PSLPrimaryUnit -->
<g id="edge5" class="edge">
<title>pyVHDLModel.PrimaryUnit&#45;&gt;pyVHDLModel.PSLModel.PSLPrimaryUnit</title>
<path fill="none" stroke="#000000" stroke-width=".5" d="M512.2592,-27.5C522.116,-27.5 532.4034,-27.5 542.74,-27.5"/>
<polygon fill="#000000" stroke="#000000" stroke-width=".5" points="542.8167,-29.2501 547.8166,-27.5 542.8166,-25.7501 542.8167,-29.2501"/>
</g>
</g>
</svg>
