<?xml version="1.0" encoding="UTF-8" standalone="no"?>
<!DOCTYPE svg PUBLIC "-//W3C//DTD SVG 1.1//EN"
 "http://www.w3.org/Graphics/SVG/1.1/DTD/svg11.dtd">
<!-- Generated by graphviz version 2.40.1 (20161225.0304)
 -->
<!-- Title: inheritance9feaec56e1 Pages: 1 -->
<svg width="576pt" height="33pt"
 viewBox="0.00 0.00 576.00 33.39" xmlns="http://www.w3.org/2000/svg" xmlns:xlink="http://www.w3.org/1999/xlink">
<g id="graph0" class="graph" transform="scale(.5217 .5217) rotate(0) translate(4 60)">
<title>inheritance9feaec56e1</title>
<polygon fill="#ffffff" stroke="transparent" points="-4,4 -4,-60 1100,-60 1100,4 -4,4"/>
<!-- pyGHDL.dom.DOMMixin -->
<g id="node1" class="node">
<title>pyGHDL.dom.DOMMixin</title>
<g id="a_node1"><a xlink:href="../pyGHDL.dom.html#pyGHDL.dom.DOMMixin" xlink:title="pyGHDL.dom.DOMMixin" target="_top">
<polygon fill="none" stroke="#000000" stroke-width=".5" points="843.5,-56 709.5,-56 709.5,-37 843.5,-37 843.5,-56"/>
<text text-anchor="middle" x="776.5" y="-44" font-family="Vera Sans, DejaVu Sans, Liberation Sans, Arial, Helvetica, sans" font-size="10.00" fill="#000000">pyGHDL.dom.DOMMixin</text>
</a>
</g>
</g>
<!-- pyGHDL.dom.Literal.StringLiteral -->
<g id="node2" class="node">
<title>pyGHDL.dom.Literal.StringLiteral</title>
<g id="a_node2"><a xlink:href="../pyGHDL/pyGHDL.dom.Literal.html#pyGHDL.dom.Literal.StringLiteral" xlink:title="pyGHDL.dom.Literal.StringLiteral" target="_top">
<polygon fill="none" stroke="#000000" stroke-width=".5" points="1096,-37 919,-37 919,-18 1096,-18 1096,-37"/>
<text text-anchor="middle" x="1007.5" y="-25" font-family="Vera Sans, DejaVu Sans, Liberation Sans, Arial, Helvetica, sans" font-size="10.00" fill="#000000">pyGHDL.dom.Literal.StringLiteral</text>
</a>
</g>
</g>
<!-- pyGHDL.dom.DOMMixin&#45;&gt;pyGHDL.dom.Literal.StringLiteral -->
<g id="edge2" class="edge">
<title>pyGHDL.dom.DOMMixin&#45;&gt;pyGHDL.dom.Literal.StringLiteral</title>
<path fill="none" stroke="#000000" stroke-width=".5" d="M843.6251,-40.9789C865.5131,-39.1786 890.2301,-37.1456 913.706,-35.2147"/>
<polygon fill="#000000" stroke="#000000" stroke-width=".5" points="913.8556,-36.9584 918.6952,-34.8043 913.5686,-33.4701 913.8556,-36.9584"/>
</g>
<!-- pyVHDLModel.SyntaxModel.StringLiteral -->
<g id="node3" class="node">
<title>pyVHDLModel.SyntaxModel.StringLiteral</title>
<polygon fill="none" stroke="#000000" stroke-width=".5" points="883,-19 670,-19 670,0 883,0 883,-19"/>
<text text-anchor="middle" x="776.5" y="-7" font-family="Vera Sans, DejaVu Sans, Liberation Sans, Arial, Helvetica, sans" font-size="10.00" fill="#000000">pyVHDLModel.SyntaxModel.StringLiteral</text>
</g>
<!-- pyVHDLModel.SyntaxModel.StringLiteral&#45;&gt;pyGHDL.dom.Literal.StringLiteral -->
<g id="edge1" class="edge">
<title>pyVHDLModel.SyntaxModel.StringLiteral&#45;&gt;pyGHDL.dom.Literal.StringLiteral</title>
<path fill="none" stroke="#000000" stroke-width=".5" d="M883.2097,-17.815C893.3771,-18.6073 903.6359,-19.4067 913.6685,-20.1885"/>
<polygon fill="#000000" stroke="#000000" stroke-width=".5" points="913.7717,-21.9517 918.8926,-20.5955 914.0437,-18.4623 913.7717,-21.9517"/>
</g>
<!-- pyVHDLModel.ModelEntity -->
<g id="node4" class="node">
<title>pyVHDLModel.ModelEntity</title>
<g id="a_node4"><a xlink:title="``ModelEntity`` is the base class for all classes in the VHDL language model,">
<polygon fill="none" stroke="#000000" stroke-width=".5" points="146,-19 0,-19 0,0 146,0 146,-19"/>
<text text-anchor="middle" x="73" y="-7" font-family="Vera Sans, DejaVu Sans, Liberation Sans, Arial, Helvetica, sans" font-size="10.00" fill="#000000">pyVHDLModel.ModelEntity</text>
</a>
</g>
</g>
<!-- pyVHDLModel.SyntaxModel.BaseExpression -->
<g id="node5" class="node">
<title>pyVHDLModel.SyntaxModel.BaseExpression</title>
<g id="a_node5"><a xlink:title="A ``BaseExpression`` is a base&#45;class for all expressions.">
<polygon fill="none" stroke="#000000" stroke-width=".5" points="413,-19 182,-19 182,0 413,0 413,-19"/>
<text text-anchor="middle" x="297.5" y="-7" font-family="Vera Sans, DejaVu Sans, Liberation Sans, Arial, Helvetica, sans" font-size="10.00" fill="#000000">pyVHDLModel.SyntaxModel.BaseExpression</text>
</a>
</g>
</g>
<!-- pyVHDLModel.ModelEntity&#45;&gt;pyVHDLModel.SyntaxModel.BaseExpression -->
<g id="edge3" class="edge">
<title>pyVHDLModel.ModelEntity&#45;&gt;pyVHDLModel.SyntaxModel.BaseExpression</title>
<path fill="none" stroke="#000000" stroke-width=".5" d="M146.1991,-9.5C155.9857,-9.5 166.2247,-9.5 176.5627,-9.5"/>
<polygon fill="#000000" stroke="#000000" stroke-width=".5" points="176.6441,-11.2501 181.644,-9.5 176.644,-7.7501 176.6441,-11.2501"/>
</g>
<!-- pyVHDLModel.SyntaxModel.Literal -->
<g id="node6" class="node">
<title>pyVHDLModel.SyntaxModel.Literal</title>
<g id="a_node6"><a xlink:title="A ``Literal`` is a base&#45;class for all literals.">
<polygon fill="none" stroke="#000000" stroke-width=".5" points="634,-19 449,-19 449,0 634,0 634,-19"/>
<text text-anchor="middle" x="541.5" y="-7" font-family="Vera Sans, DejaVu Sans, Liberation Sans, Arial, Helvetica, sans" font-size="10.00" fill="#000000">pyVHDLModel.SyntaxModel.Literal</text>
</a>
</g>
</g>
<!-- pyVHDLModel.SyntaxModel.BaseExpression&#45;&gt;pyVHDLModel.SyntaxModel.Literal -->
<g id="edge4" class="edge">
<title>pyVHDLModel.SyntaxModel.BaseExpression&#45;&gt;pyVHDLModel.SyntaxModel.Literal</title>
<path fill="none" stroke="#000000" stroke-width=".5" d="M413.0691,-9.5C423.2436,-9.5 433.478,-9.5 443.4881,-9.5"/>
<polygon fill="#000000" stroke="#000000" stroke-width=".5" points="443.7009,-11.2501 448.7008,-9.5 443.7008,-7.7501 443.7009,-11.2501"/>
</g>
<!-- pyVHDLModel.SyntaxModel.Literal&#45;&gt;pyVHDLModel.SyntaxModel.StringLiteral -->
<g id="edge5" class="edge">
<title>pyVHDLModel.SyntaxModel.Literal&#45;&gt;pyVHDLModel.SyntaxModel.StringLiteral</title>
<path fill="none" stroke="#000000" stroke-width=".5" d="M634.0409,-9.5C644.0854,-9.5 654.385,-9.5 664.6275,-9.5"/>
<polygon fill="#000000" stroke="#000000" stroke-width=".5" points="664.6497,-11.2501 669.6496,-9.5 664.6496,-7.7501 664.6497,-11.2501"/>
</g>
</g>
</svg>
