<?xml version="1.0" encoding="UTF-8" standalone="no"?>
<!DOCTYPE svg PUBLIC "-//W3C//DTD SVG 1.1//EN"
 "http://www.w3.org/Graphics/SVG/1.1/DTD/svg11.dtd">
<!-- Generated by graphviz version 2.40.1 (20161225.0304)
 -->
<!-- Title: inheritancecb62370f5b Pages: 1 -->
<svg width="576pt" height="26pt"
 viewBox="0.00 0.00 576.00 25.67" xmlns="http://www.w3.org/2000/svg" xmlns:xlink="http://www.w3.org/1999/xlink">
<g id="graph0" class="graph" transform="scale(.4011 .4011) rotate(0) translate(4 60)">
<title>inheritancecb62370f5b</title>
<polygon fill="#ffffff" stroke="transparent" points="-4,4 -4,-60 1432,-60 1432,4 -4,4"/>
<!-- pyGHDL.dom.DOMMixin -->
<g id="node1" class="node">
<title>pyGHDL.dom.DOMMixin</title>
<g id="a_node1"><a xlink:href="../pyGHDL.dom.html#pyGHDL.dom.DOMMixin" xlink:title="pyGHDL.dom.DOMMixin" target="_top">
<polygon fill="none" stroke="#000000" stroke-width=".5" points="1123,-56 989,-56 989,-37 1123,-37 1123,-56"/>
<text text-anchor="middle" x="1056" y="-44" font-family="Vera Sans, DejaVu Sans, Liberation Sans, Arial, Helvetica, sans" font-size="10.00" fill="#000000">pyGHDL.dom.DOMMixin</text>
</a>
</g>
</g>
<!-- pyGHDL.dom.Literal.FloatingPointLiteral -->
<g id="node2" class="node">
<title>pyGHDL.dom.Literal.FloatingPointLiteral</title>
<g id="a_node2"><a xlink:href="../pyGHDL/pyGHDL.dom.Literal.html#pyGHDL.dom.Literal.FloatingPointLiteral" xlink:title="pyGHDL.dom.Literal.FloatingPointLiteral" target="_top">
<polygon fill="none" stroke="#000000" stroke-width=".5" points="1428,-37 1216,-37 1216,-18 1428,-18 1428,-37"/>
<text text-anchor="middle" x="1322" y="-25" font-family="Vera Sans, DejaVu Sans, Liberation Sans, Arial, Helvetica, sans" font-size="10.00" fill="#000000">pyGHDL.dom.Literal.FloatingPointLiteral</text>
</a>
</g>
</g>
<!-- pyGHDL.dom.DOMMixin&#45;&gt;pyGHDL.dom.Literal.FloatingPointLiteral -->
<g id="edge2" class="edge">
<title>pyGHDL.dom.DOMMixin&#45;&gt;pyGHDL.dom.Literal.FloatingPointLiteral</title>
<path fill="none" stroke="#000000" stroke-width=".5" d="M1123.123,-41.7055C1149.675,-39.8089 1180.9133,-37.5776 1210.6652,-35.4525"/>
<polygon fill="#000000" stroke="#000000" stroke-width=".5" points="1210.9501,-37.1867 1215.8126,-35.0848 1210.7006,-33.6956 1210.9501,-37.1867"/>
</g>
<!-- pyVHDLModel.SyntaxModel.FloatingPointLiteral -->
<g id="node3" class="node">
<title>pyVHDLModel.SyntaxModel.FloatingPointLiteral</title>
<polygon fill="none" stroke="#000000" stroke-width=".5" points="1180,-19 932,-19 932,0 1180,0 1180,-19"/>
<text text-anchor="middle" x="1056" y="-7" font-family="Vera Sans, DejaVu Sans, Liberation Sans, Arial, Helvetica, sans" font-size="10.00" fill="#000000">pyVHDLModel.SyntaxModel.FloatingPointLiteral</text>
</g>
<!-- pyVHDLModel.SyntaxModel.FloatingPointLiteral&#45;&gt;pyGHDL.dom.Literal.FloatingPointLiteral -->
<g id="edge1" class="edge">
<title>pyVHDLModel.SyntaxModel.FloatingPointLiteral&#45;&gt;pyGHDL.dom.Literal.FloatingPointLiteral</title>
<path fill="none" stroke="#000000" stroke-width=".5" d="M1180.0441,-17.894C1190.1939,-18.5808 1200.4136,-19.2723 1210.4652,-19.9525"/>
<polygon fill="#000000" stroke="#000000" stroke-width=".5" points="1210.5983,-21.7155 1215.705,-20.3071 1210.8346,-18.2234 1210.5983,-21.7155"/>
</g>
<!-- pyVHDLModel.ModelEntity -->
<g id="node4" class="node">
<title>pyVHDLModel.ModelEntity</title>
<g id="a_node4"><a xlink:title="``ModelEntity`` is the base class for all classes in the VHDL language model,">
<polygon fill="none" stroke="#000000" stroke-width=".5" points="146,-19 0,-19 0,0 146,0 146,-19"/>
<text text-anchor="middle" x="73" y="-7" font-family="Vera Sans, DejaVu Sans, Liberation Sans, Arial, Helvetica, sans" font-size="10.00" fill="#000000">pyVHDLModel.ModelEntity</text>
</a>
</g>
</g>
<!-- pyVHDLModel.SyntaxModel.BaseExpression -->
<g id="node5" class="node">
<title>pyVHDLModel.SyntaxModel.BaseExpression</title>
<g id="a_node5"><a xlink:title="A ``BaseExpression`` is a base&#45;class for all expressions.">
<polygon fill="none" stroke="#000000" stroke-width=".5" points="413,-19 182,-19 182,0 413,0 413,-19"/>
<text text-anchor="middle" x="297.5" y="-7" font-family="Vera Sans, DejaVu Sans, Liberation Sans, Arial, Helvetica, sans" font-size="10.00" fill="#000000">pyVHDLModel.SyntaxModel.BaseExpression</text>
</a>
</g>
</g>
<!-- pyVHDLModel.ModelEntity&#45;&gt;pyVHDLModel.SyntaxModel.BaseExpression -->
<g id="edge3" class="edge">
<title>pyVHDLModel.ModelEntity&#45;&gt;pyVHDLModel.SyntaxModel.BaseExpression</title>
<path fill="none" stroke="#000000" stroke-width=".5" d="M146.1991,-9.5C155.9857,-9.5 166.2247,-9.5 176.5627,-9.5"/>
<polygon fill="#000000" stroke="#000000" stroke-width=".5" points="176.6441,-11.2501 181.644,-9.5 176.644,-7.7501 176.6441,-11.2501"/>
</g>
<!-- pyVHDLModel.SyntaxModel.Literal -->
<g id="node7" class="node">
<title>pyVHDLModel.SyntaxModel.Literal</title>
<g id="a_node7"><a xlink:title="A ``Literal`` is a base&#45;class for all literals.">
<polygon fill="none" stroke="#000000" stroke-width=".5" points="634,-19 449,-19 449,0 634,0 634,-19"/>
<text text-anchor="middle" x="541.5" y="-7" font-family="Vera Sans, DejaVu Sans, Liberation Sans, Arial, Helvetica, sans" font-size="10.00" fill="#000000">pyVHDLModel.SyntaxModel.Literal</text>
</a>
</g>
</g>
<!-- pyVHDLModel.SyntaxModel.BaseExpression&#45;&gt;pyVHDLModel.SyntaxModel.Literal -->
<g id="edge5" class="edge">
<title>pyVHDLModel.SyntaxModel.BaseExpression&#45;&gt;pyVHDLModel.SyntaxModel.Literal</title>
<path fill="none" stroke="#000000" stroke-width=".5" d="M413.0691,-9.5C423.2436,-9.5 433.478,-9.5 443.4881,-9.5"/>
<polygon fill="#000000" stroke="#000000" stroke-width=".5" points="443.7009,-11.2501 448.7008,-9.5 443.7008,-7.7501 443.7009,-11.2501"/>
</g>
<!-- pyVHDLModel.SyntaxModel.NumericLiteral -->
<g id="node6" class="node">
<title>pyVHDLModel.SyntaxModel.NumericLiteral</title>
<g id="a_node6"><a xlink:title="A ``NumericLiteral`` is a base&#45;class for all numeric literals.">
<polygon fill="none" stroke="#000000" stroke-width=".5" points="896,-19 670,-19 670,0 896,0 896,-19"/>
<text text-anchor="middle" x="783" y="-7" font-family="Vera Sans, DejaVu Sans, Liberation Sans, Arial, Helvetica, sans" font-size="10.00" fill="#000000">pyVHDLModel.SyntaxModel.NumericLiteral</text>
</a>
</g>
</g>
<!-- pyVHDLModel.SyntaxModel.NumericLiteral&#45;&gt;pyVHDLModel.SyntaxModel.FloatingPointLiteral -->
<g id="edge4" class="edge">
<title>pyVHDLModel.SyntaxModel.NumericLiteral&#45;&gt;pyVHDLModel.SyntaxModel.FloatingPointLiteral</title>
<path fill="none" stroke="#000000" stroke-width=".5" d="M896.0102,-9.5C906.095,-9.5 916.3561,-9.5 926.5644,-9.5"/>
<polygon fill="#000000" stroke="#000000" stroke-width=".5" points="926.5706,-11.2501 931.5705,-9.5 926.5705,-7.7501 926.5706,-11.2501"/>
</g>
<!-- pyVHDLModel.SyntaxModel.Literal&#45;&gt;pyVHDLModel.SyntaxModel.NumericLiteral -->
<g id="edge6" class="edge">
<title>pyVHDLModel.SyntaxModel.Literal&#45;&gt;pyVHDLModel.SyntaxModel.NumericLiteral</title>
<path fill="none" stroke="#000000" stroke-width=".5" d="M634.1795,-9.5C644.2389,-9.5 654.5734,-9.5 664.8823,-9.5"/>
<polygon fill="#000000" stroke="#000000" stroke-width=".5" points="664.9397,-11.2501 669.9396,-9.5 664.9396,-7.7501 664.9397,-11.2501"/>
</g>
</g>
</svg>
