<?xml version="1.0" encoding="UTF-8" standalone="no"?>
<!DOCTYPE svg PUBLIC "-//W3C//DTD SVG 1.1//EN"
 "http://www.w3.org/Graphics/SVG/1.1/DTD/svg11.dtd">
<!-- Generated by graphviz version 2.40.1 (20161225.0304)
 -->
<!-- Title: inheritance6377a6d6a7 Pages: 1 -->
<svg width="576pt" height="35pt"
 viewBox="0.00 0.00 576.00 34.84" xmlns="http://www.w3.org/2000/svg" xmlns:xlink="http://www.w3.org/1999/xlink">
<g id="graph0" class="graph" transform="scale(.5444 .5444) rotate(0) translate(4 60)">
<title>inheritance6377a6d6a7</title>
<polygon fill="#ffffff" stroke="transparent" points="-4,4 -4,-60 1054,-60 1054,4 -4,4"/>
<!-- pyGHDL.dom.Aggregates.RangedAggregateElement -->
<g id="node1" class="node">
<title>pyGHDL.dom.Aggregates.RangedAggregateElement</title>
<g id="a_node1"><a xlink:href="../pyGHDL/pyGHDL.dom.Aggregates.html#pyGHDL.dom.Aggregates.RangedAggregateElement" xlink:title="pyGHDL.dom.Aggregates.RangedAggregateElement" target="_top">
<polygon fill="none" stroke="#000000" stroke-width=".5" points="1050,-37 780,-37 780,-18 1050,-18 1050,-37"/>
<text text-anchor="middle" x="915" y="-25" font-family="Vera Sans, DejaVu Sans, Liberation Sans, Arial, Helvetica, sans" font-size="10.00" fill="#000000">pyGHDL.dom.Aggregates.RangedAggregateElement</text>
</a>
</g>
</g>
<!-- pyVHDLModel.SyntaxModel.RangedAggregateElement -->
<g id="node2" class="node">
<title>pyVHDLModel.SyntaxModel.RangedAggregateElement</title>
<polygon fill="none" stroke="#000000" stroke-width=".5" points="744,-56 463,-56 463,-37 744,-37 744,-56"/>
<text text-anchor="middle" x="603.5" y="-44" font-family="Vera Sans, DejaVu Sans, Liberation Sans, Arial, Helvetica, sans" font-size="10.00" fill="#000000">pyVHDLModel.SyntaxModel.RangedAggregateElement</text>
</g>
<!-- pyVHDLModel.SyntaxModel.RangedAggregateElement&#45;&gt;pyGHDL.dom.Aggregates.RangedAggregateElement -->
<g id="edge1" class="edge">
<title>pyVHDLModel.SyntaxModel.RangedAggregateElement&#45;&gt;pyGHDL.dom.Aggregates.RangedAggregateElement</title>
<path fill="none" stroke="#000000" stroke-width=".5" d="M744.213,-37.9172C754.2357,-37.3058 764.3423,-36.6894 774.3646,-36.0781"/>
<polygon fill="#000000" stroke="#000000" stroke-width=".5" points="774.7129,-37.8102 779.597,-35.7589 774.4997,-34.3167 774.7129,-37.8102"/>
</g>
<!-- pyGHDL.dom.DOMMixin -->
<g id="node3" class="node">
<title>pyGHDL.dom.DOMMixin</title>
<g id="a_node3"><a xlink:href="../pyGHDL.dom.html#pyGHDL.dom.DOMMixin" xlink:title="pyGHDL.dom.DOMMixin" target="_top">
<polygon fill="none" stroke="#000000" stroke-width=".5" points="670.5,-19 536.5,-19 536.5,0 670.5,0 670.5,-19"/>
<text text-anchor="middle" x="603.5" y="-7" font-family="Vera Sans, DejaVu Sans, Liberation Sans, Arial, Helvetica, sans" font-size="10.00" fill="#000000">pyGHDL.dom.DOMMixin</text>
</a>
</g>
</g>
<!-- pyGHDL.dom.DOMMixin&#45;&gt;pyGHDL.dom.Aggregates.RangedAggregateElement -->
<g id="edge2" class="edge">
<title>pyGHDL.dom.DOMMixin&#45;&gt;pyGHDL.dom.Aggregates.RangedAggregateElement</title>
<path fill="none" stroke="#000000" stroke-width=".5" d="M670.7074,-13.3836C701.136,-15.1419 738.3165,-17.2904 774.4017,-19.3755"/>
<polygon fill="#000000" stroke="#000000" stroke-width=".5" points="774.6242,-21.1412 779.7169,-19.6827 774.8262,-17.6471 774.6242,-21.1412"/>
</g>
<!-- pyVHDLModel.ModelEntity -->
<g id="node4" class="node">
<title>pyVHDLModel.ModelEntity</title>
<g id="a_node4"><a xlink:title="``ModelEntity`` is the base class for all classes in the VHDL language model,">
<polygon fill="none" stroke="#000000" stroke-width=".5" points="146,-56 0,-56 0,-37 146,-37 146,-56"/>
<text text-anchor="middle" x="73" y="-44" font-family="Vera Sans, DejaVu Sans, Liberation Sans, Arial, Helvetica, sans" font-size="10.00" fill="#000000">pyVHDLModel.ModelEntity</text>
</a>
</g>
</g>
<!-- pyVHDLModel.SyntaxModel.AggregateElement -->
<g id="node5" class="node">
<title>pyVHDLModel.SyntaxModel.AggregateElement</title>
<g id="a_node5"><a xlink:title="A ``AggregateElement`` is a base&#45;class for all aggregate elements.">
<polygon fill="none" stroke="#000000" stroke-width=".5" points="427,-56 182,-56 182,-37 427,-37 427,-56"/>
<text text-anchor="middle" x="304.5" y="-44" font-family="Vera Sans, DejaVu Sans, Liberation Sans, Arial, Helvetica, sans" font-size="10.00" fill="#000000">pyVHDLModel.SyntaxModel.AggregateElement</text>
</a>
</g>
</g>
<!-- pyVHDLModel.ModelEntity&#45;&gt;pyVHDLModel.SyntaxModel.AggregateElement -->
<g id="edge3" class="edge">
<title>pyVHDLModel.ModelEntity&#45;&gt;pyVHDLModel.SyntaxModel.AggregateElement</title>
<path fill="none" stroke="#000000" stroke-width=".5" d="M146.248,-46.5C156.0381,-46.5 166.2991,-46.5 176.6913,-46.5"/>
<polygon fill="#000000" stroke="#000000" stroke-width=".5" points="176.802,-48.2501 181.8019,-46.5 176.8019,-44.7501 176.802,-48.2501"/>
</g>
<!-- pyVHDLModel.SyntaxModel.AggregateElement&#45;&gt;pyVHDLModel.SyntaxModel.RangedAggregateElement -->
<g id="edge4" class="edge">
<title>pyVHDLModel.SyntaxModel.AggregateElement&#45;&gt;pyVHDLModel.SyntaxModel.RangedAggregateElement</title>
<path fill="none" stroke="#000000" stroke-width=".5" d="M427.4091,-46.5C437.2848,-46.5 447.3204,-46.5 457.336,-46.5"/>
<polygon fill="#000000" stroke="#000000" stroke-width=".5" points="457.5708,-48.2501 462.5708,-46.5 457.5708,-44.7501 457.5708,-48.2501"/>
</g>
</g>
</svg>
