<?xml version="1.0" encoding="UTF-8" standalone="no"?>
<!DOCTYPE svg PUBLIC "-//W3C//DTD SVG 1.1//EN"
 "http://www.w3.org/Graphics/SVG/1.1/DTD/svg11.dtd">
<!-- Generated by graphviz version 2.40.1 (20161225.0304)
 -->
<!-- Title: inheritance668588a692 Pages: 1 -->
<svg width="576pt" height="43pt"
 viewBox="0.00 0.00 576.00 42.98" xmlns="http://www.w3.org/2000/svg" xmlns:xlink="http://www.w3.org/1999/xlink">
<g id="graph0" class="graph" transform="scale(.5241 .5241) rotate(0) translate(4 78)">
<title>inheritance668588a692</title>
<polygon fill="#ffffff" stroke="transparent" points="-4,4 -4,-78 1095,-78 1095,4 -4,4"/>
<!-- pyGHDL.dom.DOMMixin -->
<g id="node1" class="node">
<title>pyGHDL.dom.DOMMixin</title>
<g id="a_node1"><a xlink:href="../pyGHDL.dom.html#pyGHDL.dom.DOMMixin" xlink:title="pyGHDL.dom.DOMMixin" target="_top">
<polygon fill="none" stroke="#000000" stroke-width=".5" points="831.5,-74 697.5,-74 697.5,-55 831.5,-55 831.5,-74"/>
<text text-anchor="middle" x="764.5" y="-62" font-family="Vera Sans, DejaVu Sans, Liberation Sans, Arial, Helvetica, sans" font-size="10.00" fill="#000000">pyGHDL.dom.DOMMixin</text>
</a>
</g>
</g>
<!-- pyGHDL.dom.Type.ProtectedType -->
<g id="node2" class="node">
<title>pyGHDL.dom.Type.ProtectedType</title>
<g id="a_node2"><a xlink:href="../pyGHDL/pyGHDL.dom.Type.html#pyGHDL.dom.Type.ProtectedType" xlink:title="pyGHDL.dom.Type.ProtectedType" target="_top">
<polygon fill="none" stroke="#000000" stroke-width=".5" points="1091,-55 912,-55 912,-36 1091,-36 1091,-55"/>
<text text-anchor="middle" x="1001.5" y="-43" font-family="Vera Sans, DejaVu Sans, Liberation Sans, Arial, Helvetica, sans" font-size="10.00" fill="#000000">pyGHDL.dom.Type.ProtectedType</text>
</a>
</g>
</g>
<!-- pyGHDL.dom.DOMMixin&#45;&gt;pyGHDL.dom.Type.ProtectedType -->
<g id="edge2" class="edge">
<title>pyGHDL.dom.DOMMixin&#45;&gt;pyGHDL.dom.Type.ProtectedType</title>
<path fill="none" stroke="#000000" stroke-width=".5" d="M831.7807,-59.1062C855.1309,-57.2342 881.7666,-55.0989 906.9048,-53.0836"/>
<polygon fill="#000000" stroke="#000000" stroke-width=".5" points="907.0669,-54.8263 911.911,-52.6822 906.7871,-51.3375 907.0669,-54.8263"/>
</g>
<!-- pyVHDLModel.SyntaxModel.ProtectedType -->
<g id="node3" class="node">
<title>pyVHDLModel.SyntaxModel.ProtectedType</title>
<polygon fill="none" stroke="#000000" stroke-width=".5" points="876,-37 653,-37 653,-18 876,-18 876,-37"/>
<text text-anchor="middle" x="764.5" y="-25" font-family="Vera Sans, DejaVu Sans, Liberation Sans, Arial, Helvetica, sans" font-size="10.00" fill="#000000">pyVHDLModel.SyntaxModel.ProtectedType</text>
</g>
<!-- pyVHDLModel.SyntaxModel.ProtectedType&#45;&gt;pyGHDL.dom.Type.ProtectedType -->
<g id="edge1" class="edge">
<title>pyVHDLModel.SyntaxModel.ProtectedType&#45;&gt;pyGHDL.dom.Type.ProtectedType</title>
<path fill="none" stroke="#000000" stroke-width=".5" d="M876.0602,-35.9729C886.284,-36.7494 896.5769,-37.5312 906.6332,-38.2949"/>
<polygon fill="#000000" stroke="#000000" stroke-width=".5" points="906.7506,-40.0588 911.8688,-38.6926 907.0157,-36.5688 906.7506,-40.0588"/>
</g>
<!-- pyVHDLModel.ModelEntity -->
<g id="node4" class="node">
<title>pyVHDLModel.ModelEntity</title>
<g id="a_node4"><a xlink:title="``ModelEntity`` is the base class for all classes in the VHDL language model,">
<polygon fill="none" stroke="#000000" stroke-width=".5" points="149,-56 3,-56 3,-37 149,-37 149,-56"/>
<text text-anchor="middle" x="76" y="-44" font-family="Vera Sans, DejaVu Sans, Liberation Sans, Arial, Helvetica, sans" font-size="10.00" fill="#000000">pyVHDLModel.ModelEntity</text>
</a>
</g>
</g>
<!-- pyVHDLModel.SyntaxModel.BaseType -->
<g id="node6" class="node">
<title>pyVHDLModel.SyntaxModel.BaseType</title>
<g id="a_node6"><a xlink:title="``BaseType`` is the base class of all type entities in this model.">
<polygon fill="none" stroke="#000000" stroke-width=".5" points="388,-37 188,-37 188,-18 388,-18 388,-37"/>
<text text-anchor="middle" x="288" y="-25" font-family="Vera Sans, DejaVu Sans, Liberation Sans, Arial, Helvetica, sans" font-size="10.00" fill="#000000">pyVHDLModel.SyntaxModel.BaseType</text>
</a>
</g>
</g>
<!-- pyVHDLModel.ModelEntity&#45;&gt;pyVHDLModel.SyntaxModel.BaseType -->
<g id="edge3" class="edge">
<title>pyVHDLModel.ModelEntity&#45;&gt;pyVHDLModel.SyntaxModel.BaseType</title>
<path fill="none" stroke="#000000" stroke-width=".5" d="M149.2552,-39.9347C160.0491,-38.9673 171.3454,-37.9549 182.632,-36.9434"/>
<polygon fill="#000000" stroke="#000000" stroke-width=".5" points="182.9915,-38.6682 187.8153,-36.4788 182.679,-35.1822 182.9915,-38.6682"/>
</g>
<!-- pyVHDLModel.NamedEntity -->
<g id="node5" class="node">
<title>pyVHDLModel.NamedEntity</title>
<g id="a_node5"><a xlink:title="A ``NamedEntity`` is a mixin class for all VHDL entities that have identifiers.">
<polygon fill="none" stroke="#000000" stroke-width=".5" points="152,-19 0,-19 0,0 152,0 152,-19"/>
<text text-anchor="middle" x="76" y="-7" font-family="Vera Sans, DejaVu Sans, Liberation Sans, Arial, Helvetica, sans" font-size="10.00" fill="#000000">pyVHDLModel.NamedEntity</text>
</a>
</g>
</g>
<!-- pyVHDLModel.NamedEntity&#45;&gt;pyVHDLModel.SyntaxModel.BaseType -->
<g id="edge4" class="edge">
<title>pyVHDLModel.NamedEntity&#45;&gt;pyVHDLModel.SyntaxModel.BaseType</title>
<path fill="none" stroke="#000000" stroke-width=".5" d="M152.2374,-15.973C162.1327,-16.8132 172.4047,-17.6853 182.6683,-18.5567"/>
<polygon fill="#000000" stroke="#000000" stroke-width=".5" points="182.5743,-20.305 187.7045,-18.9843 182.8705,-16.8175 182.5743,-20.305"/>
</g>
<!-- pyVHDLModel.SyntaxModel.FullType -->
<g id="node7" class="node">
<title>pyVHDLModel.SyntaxModel.FullType</title>
<polygon fill="none" stroke="#000000" stroke-width=".5" points="617,-37 424,-37 424,-18 617,-18 617,-37"/>
<text text-anchor="middle" x="520.5" y="-25" font-family="Vera Sans, DejaVu Sans, Liberation Sans, Arial, Helvetica, sans" font-size="10.00" fill="#000000">pyVHDLModel.SyntaxModel.FullType</text>
</g>
<!-- pyVHDLModel.SyntaxModel.BaseType&#45;&gt;pyVHDLModel.SyntaxModel.FullType -->
<g id="edge5" class="edge">
<title>pyVHDLModel.SyntaxModel.BaseType&#45;&gt;pyVHDLModel.SyntaxModel.FullType</title>
<path fill="none" stroke="#000000" stroke-width=".5" d="M388.2879,-27.5C398.3351,-27.5 408.5445,-27.5 418.6082,-27.5"/>
<polygon fill="#000000" stroke="#000000" stroke-width=".5" points="418.8559,-29.2501 423.8559,-27.5 418.8558,-25.7501 418.8559,-29.2501"/>
</g>
<!-- pyVHDLModel.SyntaxModel.FullType&#45;&gt;pyVHDLModel.SyntaxModel.ProtectedType -->
<g id="edge6" class="edge">
<title>pyVHDLModel.SyntaxModel.FullType&#45;&gt;pyVHDLModel.SyntaxModel.ProtectedType</title>
<path fill="none" stroke="#000000" stroke-width=".5" d="M617.2857,-27.5C627.3479,-27.5 637.6493,-27.5 647.8998,-27.5"/>
<polygon fill="#000000" stroke="#000000" stroke-width=".5" points="647.9266,-29.2501 652.9265,-27.5 647.9265,-25.7501 647.9266,-29.2501"/>
</g>
</g>
</svg>
