<?xml version="1.0" encoding="UTF-8" standalone="no"?>
<!DOCTYPE svg PUBLIC "-//W3C//DTD SVG 1.1//EN"
 "http://www.w3.org/Graphics/SVG/1.1/DTD/svg11.dtd">
<!-- Generated by graphviz version 2.40.1 (20161225.0304)
 -->
<!-- Title: inheritance1207db77ed Pages: 1 -->
<svg width="576pt" height="30pt"
 viewBox="0.00 0.00 576.00 30.47" xmlns="http://www.w3.org/2000/svg" xmlns:xlink="http://www.w3.org/1999/xlink">
<g id="graph0" class="graph" transform="scale(.3671 .3671) rotate(0) translate(4 79)">
<title>inheritance1207db77ed</title>
<polygon fill="#ffffff" stroke="transparent" points="-4,4 -4,-79 1565,-79 1565,4 -4,4"/>
<!-- pyGHDL.dom.Concurrent.ConfigurationInstantiation -->
<g id="node1" class="node">
<title>pyGHDL.dom.Concurrent.ConfigurationInstantiation</title>
<g id="a_node1"><a xlink:href="../pyGHDL/pyGHDL.dom.Concurrent.html#pyGHDL.dom.Concurrent.ConfigurationInstantiation" xlink:title="pyGHDL.dom.Concurrent.ConfigurationInstantiation" target="_top">
<polygon fill="none" stroke="#000000" stroke-width=".5" points="1561,-37 1294,-37 1294,-18 1561,-18 1561,-37"/>
<text text-anchor="middle" x="1427.5" y="-25" font-family="Vera Sans, DejaVu Sans, Liberation Sans, Arial, Helvetica, sans" font-size="10.00" fill="#000000">pyGHDL.dom.Concurrent.ConfigurationInstantiation</text>
</a>
</g>
</g>
<!-- pyVHDLModel.SyntaxModel.ConfigurationInstantiation -->
<g id="node2" class="node">
<title>pyVHDLModel.SyntaxModel.ConfigurationInstantiation</title>
<polygon fill="none" stroke="#000000" stroke-width=".5" points="1258,-56 977,-56 977,-37 1258,-37 1258,-56"/>
<text text-anchor="middle" x="1117.5" y="-44" font-family="Vera Sans, DejaVu Sans, Liberation Sans, Arial, Helvetica, sans" font-size="10.00" fill="#000000">pyVHDLModel.SyntaxModel.ConfigurationInstantiation</text>
</g>
<!-- pyVHDLModel.SyntaxModel.ConfigurationInstantiation&#45;&gt;pyGHDL.dom.Concurrent.ConfigurationInstantiation -->
<g id="edge1" class="edge">
<title>pyVHDLModel.SyntaxModel.ConfigurationInstantiation&#45;&gt;pyGHDL.dom.Concurrent.ConfigurationInstantiation</title>
<path fill="none" stroke="#000000" stroke-width=".5" d="M1258.4401,-37.8617C1268.519,-37.244 1278.6779,-36.6214 1288.7444,-36.0044"/>
<polygon fill="#000000" stroke="#000000" stroke-width=".5" points="1289.1156,-37.735 1293.9991,-35.6823 1288.9014,-34.2416 1289.1156,-37.735"/>
</g>
<!-- pyGHDL.dom.DOMMixin -->
<g id="node3" class="node">
<title>pyGHDL.dom.DOMMixin</title>
<g id="a_node3"><a xlink:href="../pyGHDL.dom.html#pyGHDL.dom.DOMMixin" xlink:title="pyGHDL.dom.DOMMixin" target="_top">
<polygon fill="none" stroke="#000000" stroke-width=".5" points="1184.5,-19 1050.5,-19 1050.5,0 1184.5,0 1184.5,-19"/>
<text text-anchor="middle" x="1117.5" y="-7" font-family="Vera Sans, DejaVu Sans, Liberation Sans, Arial, Helvetica, sans" font-size="10.00" fill="#000000">pyGHDL.dom.DOMMixin</text>
</a>
</g>
</g>
<!-- pyGHDL.dom.DOMMixin&#45;&gt;pyGHDL.dom.Concurrent.ConfigurationInstantiation -->
<g id="edge2" class="edge">
<title>pyGHDL.dom.DOMMixin&#45;&gt;pyGHDL.dom.Concurrent.ConfigurationInstantiation</title>
<path fill="none" stroke="#000000" stroke-width=".5" d="M1184.7654,-13.4057C1215.2312,-15.1747 1252.4398,-17.3352 1288.4831,-19.4281"/>
<polygon fill="#000000" stroke="#000000" stroke-width=".5" points="1288.6986,-21.1934 1293.7916,-19.7363 1288.9015,-17.6993 1288.6986,-21.1934"/>
</g>
<!-- pyVHDLModel.LabeledEntity -->
<g id="node4" class="node">
<title>pyVHDLModel.LabeledEntity</title>
<g id="a_node4"><a xlink:title="A ``LabeledEntity`` is a mixin class for all VHDL entities that can have">
<polygon fill="none" stroke="#000000" stroke-width=".5" points="155,-75 0,-75 0,-56 155,-56 155,-75"/>
<text text-anchor="middle" x="77.5" y="-63" font-family="Vera Sans, DejaVu Sans, Liberation Sans, Arial, Helvetica, sans" font-size="10.00" fill="#000000">pyVHDLModel.LabeledEntity</text>
</a>
</g>
</g>
<!-- pyVHDLModel.SyntaxModel.Statement -->
<g id="node7" class="node">
<title>pyVHDLModel.SyntaxModel.Statement</title>
<polygon fill="none" stroke="#000000" stroke-width=".5" points="396,-56 191,-56 191,-37 396,-37 396,-56"/>
<text text-anchor="middle" x="293.5" y="-44" font-family="Vera Sans, DejaVu Sans, Liberation Sans, Arial, Helvetica, sans" font-size="10.00" fill="#000000">pyVHDLModel.SyntaxModel.Statement</text>
</g>
<!-- pyVHDLModel.LabeledEntity&#45;&gt;pyVHDLModel.SyntaxModel.Statement -->
<g id="edge7" class="edge">
<title>pyVHDLModel.LabeledEntity&#45;&gt;pyVHDLModel.SyntaxModel.Statement</title>
<path fill="none" stroke="#000000" stroke-width=".5" d="M155.1758,-58.6674C165.154,-57.7897 175.5079,-56.8789 185.8575,-55.9686"/>
<polygon fill="#000000" stroke="#000000" stroke-width=".5" points="186.1088,-57.7033 190.9362,-55.5218 185.802,-54.2168 186.1088,-57.7033"/>
</g>
<!-- pyVHDLModel.ModelEntity -->
<g id="node5" class="node">
<title>pyVHDLModel.ModelEntity</title>
<g id="a_node5"><a xlink:title="``ModelEntity`` is the base class for all classes in the VHDL language model,">
<polygon fill="none" stroke="#000000" stroke-width=".5" points="150.5,-38 4.5,-38 4.5,-19 150.5,-19 150.5,-38"/>
<text text-anchor="middle" x="77.5" y="-26" font-family="Vera Sans, DejaVu Sans, Liberation Sans, Arial, Helvetica, sans" font-size="10.00" fill="#000000">pyVHDLModel.ModelEntity</text>
</a>
</g>
</g>
<!-- pyVHDLModel.ModelEntity&#45;&gt;pyVHDLModel.SyntaxModel.Statement -->
<g id="edge6" class="edge">
<title>pyVHDLModel.ModelEntity&#45;&gt;pyVHDLModel.SyntaxModel.Statement</title>
<path fill="none" stroke="#000000" stroke-width=".5" d="M150.6277,-34.594C161.9793,-35.5399 173.9067,-36.5339 185.8288,-37.5274"/>
<polygon fill="#000000" stroke="#000000" stroke-width=".5" points="185.8081,-39.2817 190.9362,-37.953 186.0988,-35.7937 185.8081,-39.2817"/>
</g>
<!-- pyVHDLModel.SyntaxModel.ConcurrentStatement -->
<g id="node6" class="node">
<title>pyVHDLModel.SyntaxModel.ConcurrentStatement</title>
<g id="a_node6"><a xlink:title="A ``ConcurrentStatement`` is a base&#45;class for all concurrent statements.">
<polygon fill="none" stroke="#000000" stroke-width=".5" points="690,-56 432,-56 432,-37 690,-37 690,-56"/>
<text text-anchor="middle" x="561" y="-44" font-family="Vera Sans, DejaVu Sans, Liberation Sans, Arial, Helvetica, sans" font-size="10.00" fill="#000000">pyVHDLModel.SyntaxModel.ConcurrentStatement</text>
</a>
</g>
</g>
<!-- pyVHDLModel.SyntaxModel.Instantiation -->
<g id="node8" class="node">
<title>pyVHDLModel.SyntaxModel.Instantiation</title>
<polygon fill="none" stroke="#000000" stroke-width=".5" points="941,-56 726,-56 726,-37 941,-37 941,-56"/>
<text text-anchor="middle" x="833.5" y="-44" font-family="Vera Sans, DejaVu Sans, Liberation Sans, Arial, Helvetica, sans" font-size="10.00" fill="#000000">pyVHDLModel.SyntaxModel.Instantiation</text>
</g>
<!-- pyVHDLModel.SyntaxModel.ConcurrentStatement&#45;&gt;pyVHDLModel.SyntaxModel.Instantiation -->
<g id="edge5" class="edge">
<title>pyVHDLModel.SyntaxModel.ConcurrentStatement&#45;&gt;pyVHDLModel.SyntaxModel.Instantiation</title>
<path fill="none" stroke="#000000" stroke-width=".5" d="M690.0679,-46.5C700.2595,-46.5 710.5048,-46.5 720.5749,-46.5"/>
<polygon fill="#000000" stroke="#000000" stroke-width=".5" points="720.8237,-48.2501 725.8237,-46.5 720.8237,-44.7501 720.8237,-48.2501"/>
</g>
<!-- pyVHDLModel.SyntaxModel.Statement&#45;&gt;pyVHDLModel.SyntaxModel.ConcurrentStatement -->
<g id="edge3" class="edge">
<title>pyVHDLModel.SyntaxModel.Statement&#45;&gt;pyVHDLModel.SyntaxModel.ConcurrentStatement</title>
<path fill="none" stroke="#000000" stroke-width=".5" d="M396.1575,-46.5C406.1602,-46.5 416.4086,-46.5 426.6617,-46.5"/>
<polygon fill="#000000" stroke="#000000" stroke-width=".5" points="426.6943,-48.2501 431.6943,-46.5 426.6942,-44.7501 426.6943,-48.2501"/>
</g>
<!-- pyVHDLModel.SyntaxModel.Instantiation&#45;&gt;pyVHDLModel.SyntaxModel.ConfigurationInstantiation -->
<g id="edge4" class="edge">
<title>pyVHDLModel.SyntaxModel.Instantiation&#45;&gt;pyVHDLModel.SyntaxModel.ConfigurationInstantiation</title>
<path fill="none" stroke="#000000" stroke-width=".5" d="M941.2732,-46.5C951.2521,-46.5 961.4708,-46.5 971.7159,-46.5"/>
<polygon fill="#000000" stroke="#000000" stroke-width=".5" points="971.7464,-48.2501 976.7464,-46.5 971.7464,-44.7501 971.7464,-48.2501"/>
</g>
</g>
</svg>
