<?xml version="1.0" encoding="UTF-8" standalone="no"?>
<!DOCTYPE svg PUBLIC "-//W3C//DTD SVG 1.1//EN"
 "http://www.w3.org/Graphics/SVG/1.1/DTD/svg11.dtd">
<!-- Generated by graphviz version 2.40.1 (20161225.0304)
 -->
<!-- Title: inheritancea1ad23801a Pages: 1 -->
<svg width="576pt" height="57pt"
 viewBox="0.00 0.00 576.00 57.43" xmlns="http://www.w3.org/2000/svg" xmlns:xlink="http://www.w3.org/1999/xlink">
<g id="graph0" class="graph" transform="scale(.5686 .5686) rotate(0) translate(4 97)">
<title>inheritancea1ad23801a</title>
<polygon fill="#ffffff" stroke="transparent" points="-4,4 -4,-97 1009,-97 1009,4 -4,4"/>
<!-- pyGHDL.dom.Sequential.ElseBranch -->
<g id="node1" class="node">
<title>pyGHDL.dom.Sequential.ElseBranch</title>
<g id="a_node1"><a xlink:href="../pyGHDL/pyGHDL.dom.Sequential.html#pyGHDL.dom.Sequential.ElseBranch" xlink:title="pyGHDL.dom.Sequential.ElseBranch" target="_top">
<polygon fill="none" stroke="#000000" stroke-width=".5" points="1005,-37 812,-37 812,-18 1005,-18 1005,-37"/>
<text text-anchor="middle" x="908.5" y="-25" font-family="Vera Sans, DejaVu Sans, Liberation Sans, Arial, Helvetica, sans" font-size="10.00" fill="#000000">pyGHDL.dom.Sequential.ElseBranch</text>
</a>
</g>
</g>
<!-- pyVHDLModel.SyntaxModel.ElseBranch -->
<g id="node2" class="node">
<title>pyVHDLModel.SyntaxModel.ElseBranch</title>
<polygon fill="none" stroke="#000000" stroke-width=".5" points="776,-37 568,-37 568,-18 776,-18 776,-37"/>
<text text-anchor="middle" x="672" y="-25" font-family="Vera Sans, DejaVu Sans, Liberation Sans, Arial, Helvetica, sans" font-size="10.00" fill="#000000">pyVHDLModel.SyntaxModel.ElseBranch</text>
</g>
<!-- pyVHDLModel.SyntaxModel.ElseBranch&#45;&gt;pyGHDL.dom.Sequential.ElseBranch -->
<g id="edge1" class="edge">
<title>pyVHDLModel.SyntaxModel.ElseBranch&#45;&gt;pyGHDL.dom.Sequential.ElseBranch</title>
<path fill="none" stroke="#000000" stroke-width=".5" d="M776.0765,-27.5C786.2075,-27.5 796.4792,-27.5 806.5885,-27.5"/>
<polygon fill="#000000" stroke="#000000" stroke-width=".5" points="806.8587,-29.2501 811.8587,-27.5 806.8586,-25.7501 806.8587,-29.2501"/>
</g>
<!-- pyVHDLModel.ModelEntity -->
<g id="node3" class="node">
<title>pyVHDLModel.ModelEntity</title>
<g id="a_node3"><a xlink:title="``ModelEntity`` is the base class for all classes in the VHDL language model,">
<polygon fill="none" stroke="#000000" stroke-width=".5" points="204,-93 58,-93 58,-74 204,-74 204,-93"/>
<text text-anchor="middle" x="131" y="-81" font-family="Vera Sans, DejaVu Sans, Liberation Sans, Arial, Helvetica, sans" font-size="10.00" fill="#000000">pyVHDLModel.ModelEntity</text>
</a>
</g>
</g>
<!-- pyVHDLModel.SyntaxModel.Branch -->
<g id="node4" class="node">
<title>pyVHDLModel.SyntaxModel.Branch</title>
<g id="a_node4"><a xlink:title="A ``Branch`` is a base&#45;class for all branches in a if statement.">
<polygon fill="none" stroke="#000000" stroke-width=".5" points="509,-56 321,-56 321,-37 509,-37 509,-56"/>
<text text-anchor="middle" x="415" y="-44" font-family="Vera Sans, DejaVu Sans, Liberation Sans, Arial, Helvetica, sans" font-size="10.00" fill="#000000">pyVHDLModel.SyntaxModel.Branch</text>
</a>
</g>
</g>
<!-- pyVHDLModel.ModelEntity&#45;&gt;pyVHDLModel.SyntaxModel.Branch -->
<g id="edge2" class="edge">
<title>pyVHDLModel.ModelEntity&#45;&gt;pyVHDLModel.SyntaxModel.Branch</title>
<path fill="none" stroke="#000000" stroke-width=".5" d="M204.1371,-73.9716C244.7251,-68.6837 295.217,-62.1055 336.6155,-56.7121"/>
<polygon fill="#000000" stroke="#000000" stroke-width=".5" points="336.8858,-58.4417 341.6177,-56.0604 336.4335,-54.9711 336.8858,-58.4417"/>
</g>
<!-- pyVHDLModel.SyntaxModel.Branch&#45;&gt;pyVHDLModel.SyntaxModel.ElseBranch -->
<g id="edge4" class="edge">
<title>pyVHDLModel.SyntaxModel.Branch&#45;&gt;pyVHDLModel.SyntaxModel.ElseBranch</title>
<path fill="none" stroke="#000000" stroke-width=".5" d="M509.238,-39.533C526.6538,-38.2454 544.9755,-36.8909 562.7909,-35.5738"/>
<polygon fill="#000000" stroke="#000000" stroke-width=".5" points="562.9438,-37.3174 567.8011,-35.2034 562.6857,-33.8269 562.9438,-37.3174"/>
</g>
<!-- pyVHDLModel.SyntaxModel.SequentialStatements -->
<g id="node5" class="node">
<title>pyVHDLModel.SyntaxModel.SequentialStatements</title>
<polygon fill="none" stroke="#000000" stroke-width=".5" points="262,-56 0,-56 0,-37 262,-37 262,-56"/>
<text text-anchor="middle" x="131" y="-44" font-family="Vera Sans, DejaVu Sans, Liberation Sans, Arial, Helvetica, sans" font-size="10.00" fill="#000000">pyVHDLModel.SyntaxModel.SequentialStatements</text>
</g>
<!-- pyVHDLModel.SyntaxModel.SequentialStatements&#45;&gt;pyVHDLModel.SyntaxModel.Branch -->
<g id="edge3" class="edge">
<title>pyVHDLModel.SyntaxModel.SequentialStatements&#45;&gt;pyVHDLModel.SyntaxModel.Branch</title>
<path fill="none" stroke="#000000" stroke-width=".5" d="M262.1929,-46.5C280.1058,-46.5 298.2494,-46.5 315.4746,-46.5"/>
<polygon fill="#000000" stroke="#000000" stroke-width=".5" points="315.7897,-48.2501 320.7896,-46.5 315.7896,-44.7501 315.7897,-48.2501"/>
</g>
<!-- pyVHDLModel.SyntaxModel.MixinElseBranch -->
<g id="node6" class="node">
<title>pyVHDLModel.SyntaxModel.MixinElseBranch</title>
<g id="a_node6"><a xlink:title="A ``BaseElseBranch`` is a mixin&#45;class for all else&#45;branches.">
<polygon fill="none" stroke="#000000" stroke-width=".5" points="532,-19 298,-19 298,0 532,0 532,-19"/>
<text text-anchor="middle" x="415" y="-7" font-family="Vera Sans, DejaVu Sans, Liberation Sans, Arial, Helvetica, sans" font-size="10.00" fill="#000000">pyVHDLModel.SyntaxModel.MixinElseBranch</text>
</a>
</g>
</g>
<!-- pyVHDLModel.SyntaxModel.MixinElseBranch&#45;&gt;pyVHDLModel.SyntaxModel.ElseBranch -->
<g id="edge5" class="edge">
<title>pyVHDLModel.SyntaxModel.MixinElseBranch&#45;&gt;pyVHDLModel.SyntaxModel.ElseBranch</title>
<path fill="none" stroke="#000000" stroke-width=".5" d="M532.219,-17.7099C542.3651,-18.4205 552.6057,-19.1377 562.6851,-19.8437"/>
<polygon fill="#000000" stroke="#000000" stroke-width=".5" points="562.8299,-21.608 567.94,-20.2118 563.0745,-18.1166 562.8299,-21.608"/>
</g>
<!-- pyVHDLModel.SyntaxModel.MixinBranch -->
<g id="node7" class="node">
<title>pyVHDLModel.SyntaxModel.MixinBranch</title>
<g id="a_node7"><a xlink:title="A ``BaseBranch`` is a mixin&#45;class for all statements with branches.">
<polygon fill="none" stroke="#000000" stroke-width=".5" points="238,-19 24,-19 24,0 238,0 238,-19"/>
<text text-anchor="middle" x="131" y="-7" font-family="Vera Sans, DejaVu Sans, Liberation Sans, Arial, Helvetica, sans" font-size="10.00" fill="#000000">pyVHDLModel.SyntaxModel.MixinBranch</text>
</a>
</g>
</g>
<!-- pyVHDLModel.SyntaxModel.MixinBranch&#45;&gt;pyVHDLModel.SyntaxModel.MixinElseBranch -->
<g id="edge6" class="edge">
<title>pyVHDLModel.SyntaxModel.MixinBranch&#45;&gt;pyVHDLModel.SyntaxModel.MixinElseBranch</title>
<path fill="none" stroke="#000000" stroke-width=".5" d="M238.3682,-9.5C256.172,-9.5 274.7493,-9.5 292.8852,-9.5"/>
<polygon fill="#000000" stroke="#000000" stroke-width=".5" points="292.9877,-11.2501 297.9877,-9.5 292.9877,-7.7501 292.9877,-11.2501"/>
</g>
</g>
</svg>
