<?xml version="1.0" encoding="UTF-8" standalone="no"?>
<!DOCTYPE svg PUBLIC "-//W3C//DTD SVG 1.1//EN"
 "http://www.w3.org/Graphics/SVG/1.1/DTD/svg11.dtd">
<!-- Generated by graphviz version 2.40.1 (20161225.0304)
 -->
<!-- Title: inheritance55fef14a52 Pages: 1 -->
<svg width="576pt" height="35pt"
 viewBox="0.00 0.00 576.00 35.35" xmlns="http://www.w3.org/2000/svg" xmlns:xlink="http://www.w3.org/1999/xlink">
<g id="graph0" class="graph" transform="scale(.4311 .4311) rotate(0) translate(4 78)">
<title>inheritance55fef14a52</title>
<polygon fill="#ffffff" stroke="transparent" points="-4,4 -4,-78 1332,-78 1332,4 -4,4"/>
<!-- pyGHDL.dom.DOMMixin -->
<g id="node1" class="node">
<title>pyGHDL.dom.DOMMixin</title>
<g id="a_node1"><a xlink:href="../pyGHDL.dom.html#pyGHDL.dom.DOMMixin" xlink:title="pyGHDL.dom.DOMMixin" target="_top">
<polygon fill="none" stroke="#000000" stroke-width=".5" points="1089.5,-74 955.5,-74 955.5,-55 1089.5,-55 1089.5,-74"/>
<text text-anchor="middle" x="1022.5" y="-62" font-family="Vera Sans, DejaVu Sans, Liberation Sans, Arial, Helvetica, sans" font-size="10.00" fill="#000000">pyGHDL.dom.DOMMixin</text>
</a>
</g>
</g>
<!-- pyGHDL.dom.Type.RecordType -->
<g id="node2" class="node">
<title>pyGHDL.dom.Type.RecordType</title>
<g id="a_node2"><a xlink:href="../pyGHDL/pyGHDL.dom.Type.html#pyGHDL.dom.Type.RecordType" xlink:title="pyGHDL.dom.Type.RecordType" target="_top">
<polygon fill="none" stroke="#000000" stroke-width=".5" points="1328,-55 1163,-55 1163,-36 1328,-36 1328,-55"/>
<text text-anchor="middle" x="1245.5" y="-43" font-family="Vera Sans, DejaVu Sans, Liberation Sans, Arial, Helvetica, sans" font-size="10.00" fill="#000000">pyGHDL.dom.Type.RecordType</text>
</a>
</g>
</g>
<!-- pyGHDL.dom.DOMMixin&#45;&gt;pyGHDL.dom.Type.RecordType -->
<g id="edge2" class="edge">
<title>pyGHDL.dom.DOMMixin&#45;&gt;pyGHDL.dom.Type.RecordType</title>
<path fill="none" stroke="#000000" stroke-width=".5" d="M1089.7098,-58.7736C1111.0513,-56.9553 1134.9778,-54.9167 1157.5543,-52.9931"/>
<polygon fill="#000000" stroke="#000000" stroke-width=".5" points="1157.8185,-54.7271 1162.6518,-52.5588 1157.5213,-51.2397 1157.8185,-54.7271"/>
</g>
<!-- pyVHDLModel.SyntaxModel.RecordType -->
<g id="node3" class="node">
<title>pyVHDLModel.SyntaxModel.RecordType</title>
<polygon fill="none" stroke="#000000" stroke-width=".5" points="1127,-37 918,-37 918,-18 1127,-18 1127,-37"/>
<text text-anchor="middle" x="1022.5" y="-25" font-family="Vera Sans, DejaVu Sans, Liberation Sans, Arial, Helvetica, sans" font-size="10.00" fill="#000000">pyVHDLModel.SyntaxModel.RecordType</text>
</g>
<!-- pyVHDLModel.SyntaxModel.RecordType&#45;&gt;pyGHDL.dom.Type.RecordType -->
<g id="edge1" class="edge">
<title>pyVHDLModel.SyntaxModel.RecordType&#45;&gt;pyGHDL.dom.Type.RecordType</title>
<path fill="none" stroke="#000000" stroke-width=".5" d="M1127.144,-35.9466C1137.3586,-36.7711 1147.6503,-37.6018 1157.6743,-38.4109"/>
<polygon fill="#000000" stroke="#000000" stroke-width=".5" points="1157.7654,-40.1739 1162.8901,-38.8319 1158.0471,-36.6852 1157.7654,-40.1739"/>
</g>
<!-- pyVHDLModel.ModelEntity -->
<g id="node4" class="node">
<title>pyVHDLModel.ModelEntity</title>
<g id="a_node4"><a xlink:title="``ModelEntity`` is the base class for all classes in the VHDL language model,">
<polygon fill="none" stroke="#000000" stroke-width=".5" points="149,-56 3,-56 3,-37 149,-37 149,-56"/>
<text text-anchor="middle" x="76" y="-44" font-family="Vera Sans, DejaVu Sans, Liberation Sans, Arial, Helvetica, sans" font-size="10.00" fill="#000000">pyVHDLModel.ModelEntity</text>
</a>
</g>
</g>
<!-- pyVHDLModel.SyntaxModel.BaseType -->
<g id="node6" class="node">
<title>pyVHDLModel.SyntaxModel.BaseType</title>
<g id="a_node6"><a xlink:title="``BaseType`` is the base class of all type entities in this model.">
<polygon fill="none" stroke="#000000" stroke-width=".5" points="388,-37 188,-37 188,-18 388,-18 388,-37"/>
<text text-anchor="middle" x="288" y="-25" font-family="Vera Sans, DejaVu Sans, Liberation Sans, Arial, Helvetica, sans" font-size="10.00" fill="#000000">pyVHDLModel.SyntaxModel.BaseType</text>
</a>
</g>
</g>
<!-- pyVHDLModel.ModelEntity&#45;&gt;pyVHDLModel.SyntaxModel.BaseType -->
<g id="edge3" class="edge">
<title>pyVHDLModel.ModelEntity&#45;&gt;pyVHDLModel.SyntaxModel.BaseType</title>
<path fill="none" stroke="#000000" stroke-width=".5" d="M149.2552,-39.9347C160.0491,-38.9673 171.3454,-37.9549 182.632,-36.9434"/>
<polygon fill="#000000" stroke="#000000" stroke-width=".5" points="182.9915,-38.6682 187.8153,-36.4788 182.679,-35.1822 182.9915,-38.6682"/>
</g>
<!-- pyVHDLModel.NamedEntity -->
<g id="node5" class="node">
<title>pyVHDLModel.NamedEntity</title>
<g id="a_node5"><a xlink:title="A ``NamedEntity`` is a mixin class for all VHDL entities that have identifiers.">
<polygon fill="none" stroke="#000000" stroke-width=".5" points="152,-19 0,-19 0,0 152,0 152,-19"/>
<text text-anchor="middle" x="76" y="-7" font-family="Vera Sans, DejaVu Sans, Liberation Sans, Arial, Helvetica, sans" font-size="10.00" fill="#000000">pyVHDLModel.NamedEntity</text>
</a>
</g>
</g>
<!-- pyVHDLModel.NamedEntity&#45;&gt;pyVHDLModel.SyntaxModel.BaseType -->
<g id="edge4" class="edge">
<title>pyVHDLModel.NamedEntity&#45;&gt;pyVHDLModel.SyntaxModel.BaseType</title>
<path fill="none" stroke="#000000" stroke-width=".5" d="M152.2374,-15.973C162.1327,-16.8132 172.4047,-17.6853 182.6683,-18.5567"/>
<polygon fill="#000000" stroke="#000000" stroke-width=".5" points="182.5743,-20.305 187.7045,-18.9843 182.8705,-16.8175 182.5743,-20.305"/>
</g>
<!-- pyVHDLModel.SyntaxModel.FullType -->
<g id="node8" class="node">
<title>pyVHDLModel.SyntaxModel.FullType</title>
<polygon fill="none" stroke="#000000" stroke-width=".5" points="617,-37 424,-37 424,-18 617,-18 617,-37"/>
<text text-anchor="middle" x="520.5" y="-25" font-family="Vera Sans, DejaVu Sans, Liberation Sans, Arial, Helvetica, sans" font-size="10.00" fill="#000000">pyVHDLModel.SyntaxModel.FullType</text>
</g>
<!-- pyVHDLModel.SyntaxModel.BaseType&#45;&gt;pyVHDLModel.SyntaxModel.FullType -->
<g id="edge6" class="edge">
<title>pyVHDLModel.SyntaxModel.BaseType&#45;&gt;pyVHDLModel.SyntaxModel.FullType</title>
<path fill="none" stroke="#000000" stroke-width=".5" d="M388.2879,-27.5C398.3351,-27.5 408.5445,-27.5 418.6082,-27.5"/>
<polygon fill="#000000" stroke="#000000" stroke-width=".5" points="418.8559,-29.2501 423.8559,-27.5 418.8558,-25.7501 418.8559,-29.2501"/>
</g>
<!-- pyVHDLModel.SyntaxModel.CompositeType -->
<g id="node7" class="node">
<title>pyVHDLModel.SyntaxModel.CompositeType</title>
<g id="a_node7"><a xlink:title="A ``CompositeType`` is a base&#45;class for all composite types.">
<polygon fill="none" stroke="#000000" stroke-width=".5" points="882,-37 653,-37 653,-18 882,-18 882,-37"/>
<text text-anchor="middle" x="767.5" y="-25" font-family="Vera Sans, DejaVu Sans, Liberation Sans, Arial, Helvetica, sans" font-size="10.00" fill="#000000">pyVHDLModel.SyntaxModel.CompositeType</text>
</a>
</g>
</g>
<!-- pyVHDLModel.SyntaxModel.CompositeType&#45;&gt;pyVHDLModel.SyntaxModel.RecordType -->
<g id="edge7" class="edge">
<title>pyVHDLModel.SyntaxModel.CompositeType&#45;&gt;pyVHDLModel.SyntaxModel.RecordType</title>
<path fill="none" stroke="#000000" stroke-width=".5" d="M882.3185,-27.5C892.3374,-27.5 902.4618,-27.5 912.4409,-27.5"/>
<polygon fill="#000000" stroke="#000000" stroke-width=".5" points="912.6448,-29.2501 917.6448,-27.5 912.6447,-25.7501 912.6448,-29.2501"/>
</g>
<!-- pyVHDLModel.SyntaxModel.FullType&#45;&gt;pyVHDLModel.SyntaxModel.CompositeType -->
<g id="edge5" class="edge">
<title>pyVHDLModel.SyntaxModel.FullType&#45;&gt;pyVHDLModel.SyntaxModel.CompositeType</title>
<path fill="none" stroke="#000000" stroke-width=".5" d="M617.0579,-27.5C627.174,-27.5 637.5438,-27.5 647.8772,-27.5"/>
<polygon fill="#000000" stroke="#000000" stroke-width=".5" points="647.9459,-29.2501 652.9459,-27.5 647.9458,-25.7501 647.9459,-29.2501"/>
</g>
</g>
</svg>
