<?xml version="1.0" encoding="UTF-8" standalone="no"?>
<!DOCTYPE svg PUBLIC "-//W3C//DTD SVG 1.1//EN"
 "http://www.w3.org/Graphics/SVG/1.1/DTD/svg11.dtd">
<!-- Generated by graphviz version 2.40.1 (20161225.0304)
 -->
<!-- Title: inheritance7768573f95 Pages: 1 -->
<svg width="576pt" height="39pt"
 viewBox="0.00 0.00 576.00 39.29" xmlns="http://www.w3.org/2000/svg" xmlns:xlink="http://www.w3.org/1999/xlink">
<g id="graph0" class="graph" transform="scale(.4792 .4792) rotate(0) translate(4 78)">
<title>inheritance7768573f95</title>
<polygon fill="#ffffff" stroke="transparent" points="-4,4 -4,-78 1198,-78 1198,4 -4,4"/>
<!-- pyGHDL.dom.DOMMixin -->
<g id="node1" class="node">
<title>pyGHDL.dom.DOMMixin</title>
<g id="a_node1"><a xlink:href="../pyGHDL.dom.html#pyGHDL.dom.DOMMixin" xlink:title="pyGHDL.dom.DOMMixin" target="_top">
<polygon fill="none" stroke="#000000" stroke-width=".5" points="904,-74 770,-74 770,-55 904,-55 904,-74"/>
<text text-anchor="middle" x="837" y="-62" font-family="Vera Sans, DejaVu Sans, Liberation Sans, Arial, Helvetica, sans" font-size="10.00" fill="#000000">pyGHDL.dom.DOMMixin</text>
</a>
</g>
</g>
<!-- pyGHDL.dom.Sequential.NullStatement -->
<g id="node2" class="node">
<title>pyGHDL.dom.Sequential.NullStatement</title>
<g id="a_node2"><a xlink:href="../pyGHDL/pyGHDL.dom.Sequential.html#pyGHDL.dom.Sequential.NullStatement" xlink:title="pyGHDL.dom.Sequential.NullStatement" target="_top">
<polygon fill="none" stroke="#000000" stroke-width=".5" points="1194,-55 985,-55 985,-36 1194,-36 1194,-55"/>
<text text-anchor="middle" x="1089.5" y="-43" font-family="Vera Sans, DejaVu Sans, Liberation Sans, Arial, Helvetica, sans" font-size="10.00" fill="#000000">pyGHDL.dom.Sequential.NullStatement</text>
</a>
</g>
</g>
<!-- pyGHDL.dom.DOMMixin&#45;&gt;pyGHDL.dom.Sequential.NullStatement -->
<g id="edge2" class="edge">
<title>pyGHDL.dom.DOMMixin&#45;&gt;pyGHDL.dom.Sequential.NullStatement</title>
<path fill="none" stroke="#000000" stroke-width=".5" d="M904.0024,-59.4582C927.1505,-57.7164 953.7353,-55.716 979.4131,-53.7838"/>
<polygon fill="#000000" stroke="#000000" stroke-width=".5" points="979.6807,-55.5187 984.5353,-53.3983 979.418,-52.0285 979.6807,-55.5187"/>
</g>
<!-- pyVHDLModel.SyntaxModel.NullStatement -->
<g id="node3" class="node">
<title>pyVHDLModel.SyntaxModel.NullStatement</title>
<polygon fill="none" stroke="#000000" stroke-width=".5" points="949,-37 725,-37 725,-18 949,-18 949,-37"/>
<text text-anchor="middle" x="837" y="-25" font-family="Vera Sans, DejaVu Sans, Liberation Sans, Arial, Helvetica, sans" font-size="10.00" fill="#000000">pyVHDLModel.SyntaxModel.NullStatement</text>
</g>
<!-- pyVHDLModel.SyntaxModel.NullStatement&#45;&gt;pyGHDL.dom.Sequential.NullStatement -->
<g id="edge1" class="edge">
<title>pyVHDLModel.SyntaxModel.NullStatement&#45;&gt;pyGHDL.dom.Sequential.NullStatement</title>
<path fill="none" stroke="#000000" stroke-width=".5" d="M949.2206,-35.4999C959.3151,-36.2195 969.5307,-36.9477 979.6051,-37.6659"/>
<polygon fill="#000000" stroke="#000000" stroke-width=".5" points="979.7472,-39.4304 984.859,-38.0404 979.9961,-35.9393 979.7472,-39.4304"/>
</g>
<!-- pyVHDLModel.LabeledEntity -->
<g id="node4" class="node">
<title>pyVHDLModel.LabeledEntity</title>
<g id="a_node4"><a xlink:title="A ``LabeledEntity`` is a mixin class for all VHDL entities that can have">
<polygon fill="none" stroke="#000000" stroke-width=".5" points="155,-56 0,-56 0,-37 155,-37 155,-56"/>
<text text-anchor="middle" x="77.5" y="-44" font-family="Vera Sans, DejaVu Sans, Liberation Sans, Arial, Helvetica, sans" font-size="10.00" fill="#000000">pyVHDLModel.LabeledEntity</text>
</a>
</g>
</g>
<!-- pyVHDLModel.SyntaxModel.Statement -->
<g id="node7" class="node">
<title>pyVHDLModel.SyntaxModel.Statement</title>
<polygon fill="none" stroke="#000000" stroke-width=".5" points="396,-37 191,-37 191,-18 396,-18 396,-37"/>
<text text-anchor="middle" x="293.5" y="-25" font-family="Vera Sans, DejaVu Sans, Liberation Sans, Arial, Helvetica, sans" font-size="10.00" fill="#000000">pyVHDLModel.SyntaxModel.Statement</text>
</g>
<!-- pyVHDLModel.LabeledEntity&#45;&gt;pyVHDLModel.SyntaxModel.Statement -->
<g id="edge6" class="edge">
<title>pyVHDLModel.LabeledEntity&#45;&gt;pyVHDLModel.SyntaxModel.Statement</title>
<path fill="none" stroke="#000000" stroke-width=".5" d="M155.1758,-39.6674C165.154,-38.7897 175.5079,-37.8789 185.8575,-36.9686"/>
<polygon fill="#000000" stroke="#000000" stroke-width=".5" points="186.1088,-38.7033 190.9362,-36.5218 185.802,-35.2168 186.1088,-38.7033"/>
</g>
<!-- pyVHDLModel.ModelEntity -->
<g id="node5" class="node">
<title>pyVHDLModel.ModelEntity</title>
<g id="a_node5"><a xlink:title="``ModelEntity`` is the base class for all classes in the VHDL language model,">
<polygon fill="none" stroke="#000000" stroke-width=".5" points="150.5,-19 4.5,-19 4.5,0 150.5,0 150.5,-19"/>
<text text-anchor="middle" x="77.5" y="-7" font-family="Vera Sans, DejaVu Sans, Liberation Sans, Arial, Helvetica, sans" font-size="10.00" fill="#000000">pyVHDLModel.ModelEntity</text>
</a>
</g>
</g>
<!-- pyVHDLModel.ModelEntity&#45;&gt;pyVHDLModel.SyntaxModel.Statement -->
<g id="edge5" class="edge">
<title>pyVHDLModel.ModelEntity&#45;&gt;pyVHDLModel.SyntaxModel.Statement</title>
<path fill="none" stroke="#000000" stroke-width=".5" d="M150.6277,-15.594C161.9793,-16.5399 173.9067,-17.5339 185.8288,-18.5274"/>
<polygon fill="#000000" stroke="#000000" stroke-width=".5" points="185.8081,-20.2817 190.9362,-18.953 186.0988,-16.7937 185.8081,-20.2817"/>
</g>
<!-- pyVHDLModel.SyntaxModel.SequentialStatement -->
<g id="node6" class="node">
<title>pyVHDLModel.SyntaxModel.SequentialStatement</title>
<g id="a_node6"><a xlink:title="A ``SequentialStatement`` is a base&#45;class for all sequential statements.">
<polygon fill="none" stroke="#000000" stroke-width=".5" points="689,-37 432,-37 432,-18 689,-18 689,-37"/>
<text text-anchor="middle" x="560.5" y="-25" font-family="Vera Sans, DejaVu Sans, Liberation Sans, Arial, Helvetica, sans" font-size="10.00" fill="#000000">pyVHDLModel.SyntaxModel.SequentialStatement</text>
</a>
</g>
</g>
<!-- pyVHDLModel.SyntaxModel.SequentialStatement&#45;&gt;pyVHDLModel.SyntaxModel.NullStatement -->
<g id="edge3" class="edge">
<title>pyVHDLModel.SyntaxModel.SequentialStatement&#45;&gt;pyVHDLModel.SyntaxModel.NullStatement</title>
<path fill="none" stroke="#000000" stroke-width=".5" d="M689.0364,-27.5C699.3381,-27.5 709.712,-27.5 719.9279,-27.5"/>
<polygon fill="#000000" stroke="#000000" stroke-width=".5" points="719.9293,-29.2501 724.9292,-27.5 719.9292,-25.7501 719.9293,-29.2501"/>
</g>
<!-- pyVHDLModel.SyntaxModel.Statement&#45;&gt;pyVHDLModel.SyntaxModel.SequentialStatement -->
<g id="edge4" class="edge">
<title>pyVHDLModel.SyntaxModel.Statement&#45;&gt;pyVHDLModel.SyntaxModel.SequentialStatement</title>
<path fill="none" stroke="#000000" stroke-width=".5" d="M396.3473,-27.5C406.3207,-27.5 416.5354,-27.5 426.752,-27.5"/>
<polygon fill="#000000" stroke="#000000" stroke-width=".5" points="426.7666,-29.2501 431.7666,-27.5 426.7665,-25.7501 426.7666,-29.2501"/>
</g>
</g>
</svg>
