<?xml version="1.0" encoding="UTF-8" standalone="no"?>
<!DOCTYPE svg PUBLIC "-//W3C//DTD SVG 1.1//EN"
 "http://www.w3.org/Graphics/SVG/1.1/DTD/svg11.dtd">
<!-- Generated by graphviz version 2.40.1 (20161225.0304)
 -->
<!-- Title: inheritancebf1009b5ff Pages: 1 -->
<svg width="576pt" height="42pt"
 viewBox="0.00 0.00 576.00 41.83" xmlns="http://www.w3.org/2000/svg" xmlns:xlink="http://www.w3.org/1999/xlink">
<g id="graph0" class="graph" transform="scale(.4183 .4183) rotate(0) translate(4 96)">
<title>inheritancebf1009b5ff</title>
<polygon fill="#ffffff" stroke="transparent" points="-4,4 -4,-96 1373,-96 1373,4 -4,4"/>
<!-- pyGHDL.dom.DOMMixin -->
<g id="node1" class="node">
<title>pyGHDL.dom.DOMMixin</title>
<g id="a_node1"><a xlink:href="../pyGHDL.dom.html#pyGHDL.dom.DOMMixin" xlink:title="pyGHDL.dom.DOMMixin" target="_top">
<polygon fill="none" stroke="#000000" stroke-width=".5" points="1091,-92 957,-92 957,-73 1091,-73 1091,-92"/>
<text text-anchor="middle" x="1024" y="-80" font-family="Vera Sans, DejaVu Sans, Liberation Sans, Arial, Helvetica, sans" font-size="10.00" fill="#000000">pyGHDL.dom.DOMMixin</text>
</a>
</g>
</g>
<!-- pyGHDL.dom.Type.EnumeratedType -->
<g id="node2" class="node">
<title>pyGHDL.dom.Type.EnumeratedType</title>
<g id="a_node2"><a xlink:href="../pyGHDL/pyGHDL.dom.Type.html#pyGHDL.dom.Type.EnumeratedType" xlink:title="pyGHDL.dom.Type.EnumeratedType" target="_top">
<polygon fill="none" stroke="#000000" stroke-width=".5" points="1369,-73 1178,-73 1178,-54 1369,-54 1369,-73"/>
<text text-anchor="middle" x="1273.5" y="-61" font-family="Vera Sans, DejaVu Sans, Liberation Sans, Arial, Helvetica, sans" font-size="10.00" fill="#000000">pyGHDL.dom.Type.EnumeratedType</text>
</a>
</g>
</g>
<!-- pyGHDL.dom.DOMMixin&#45;&gt;pyGHDL.dom.Type.EnumeratedType -->
<g id="edge2" class="edge">
<title>pyGHDL.dom.DOMMixin&#45;&gt;pyGHDL.dom.Type.EnumeratedType</title>
<path fill="none" stroke="#000000" stroke-width=".5" d="M1091.1896,-77.3834C1116.1907,-75.4795 1145.1422,-73.2747 1172.5096,-71.1907"/>
<polygon fill="#000000" stroke="#000000" stroke-width=".5" points="1172.7472,-72.9277 1177.5999,-70.803 1172.4814,-69.4378 1172.7472,-72.9277"/>
</g>
<!-- pyVHDLModel.SyntaxModel.EnumeratedType -->
<g id="node3" class="node">
<title>pyVHDLModel.SyntaxModel.EnumeratedType</title>
<polygon fill="none" stroke="#000000" stroke-width=".5" points="1142,-55 906,-55 906,-36 1142,-36 1142,-55"/>
<text text-anchor="middle" x="1024" y="-43" font-family="Vera Sans, DejaVu Sans, Liberation Sans, Arial, Helvetica, sans" font-size="10.00" fill="#000000">pyVHDLModel.SyntaxModel.EnumeratedType</text>
</g>
<!-- pyVHDLModel.SyntaxModel.EnumeratedType&#45;&gt;pyGHDL.dom.Type.EnumeratedType -->
<g id="edge1" class="edge">
<title>pyVHDLModel.SyntaxModel.EnumeratedType&#45;&gt;pyGHDL.dom.Type.EnumeratedType</title>
<path fill="none" stroke="#000000" stroke-width=".5" d="M1142.1741,-54.0256C1152.3635,-54.7607 1162.6116,-55.5 1172.6454,-56.2239"/>
<polygon fill="#000000" stroke="#000000" stroke-width=".5" points="1172.7585,-57.9865 1177.8715,-56.6009 1173.0104,-54.4956 1172.7585,-57.9865"/>
</g>
<!-- pyVHDLModel.ModelEntity -->
<g id="node4" class="node">
<title>pyVHDLModel.ModelEntity</title>
<g id="a_node4"><a xlink:title="``ModelEntity`` is the base class for all classes in the VHDL language model,">
<polygon fill="none" stroke="#000000" stroke-width=".5" points="149,-56 3,-56 3,-37 149,-37 149,-56"/>
<text text-anchor="middle" x="76" y="-44" font-family="Vera Sans, DejaVu Sans, Liberation Sans, Arial, Helvetica, sans" font-size="10.00" fill="#000000">pyVHDLModel.ModelEntity</text>
</a>
</g>
</g>
<!-- pyVHDLModel.SyntaxModel.BaseType -->
<g id="node6" class="node">
<title>pyVHDLModel.SyntaxModel.BaseType</title>
<g id="a_node6"><a xlink:title="``BaseType`` is the base class of all type entities in this model.">
<polygon fill="none" stroke="#000000" stroke-width=".5" points="388,-37 188,-37 188,-18 388,-18 388,-37"/>
<text text-anchor="middle" x="288" y="-25" font-family="Vera Sans, DejaVu Sans, Liberation Sans, Arial, Helvetica, sans" font-size="10.00" fill="#000000">pyVHDLModel.SyntaxModel.BaseType</text>
</a>
</g>
</g>
<!-- pyVHDLModel.ModelEntity&#45;&gt;pyVHDLModel.SyntaxModel.BaseType -->
<g id="edge3" class="edge">
<title>pyVHDLModel.ModelEntity&#45;&gt;pyVHDLModel.SyntaxModel.BaseType</title>
<path fill="none" stroke="#000000" stroke-width=".5" d="M149.2552,-39.9347C160.0491,-38.9673 171.3454,-37.9549 182.632,-36.9434"/>
<polygon fill="#000000" stroke="#000000" stroke-width=".5" points="182.9915,-38.6682 187.8153,-36.4788 182.679,-35.1822 182.9915,-38.6682"/>
</g>
<!-- pyVHDLModel.NamedEntity -->
<g id="node5" class="node">
<title>pyVHDLModel.NamedEntity</title>
<g id="a_node5"><a xlink:title="A ``NamedEntity`` is a mixin class for all VHDL entities that have identifiers.">
<polygon fill="none" stroke="#000000" stroke-width=".5" points="152,-19 0,-19 0,0 152,0 152,-19"/>
<text text-anchor="middle" x="76" y="-7" font-family="Vera Sans, DejaVu Sans, Liberation Sans, Arial, Helvetica, sans" font-size="10.00" fill="#000000">pyVHDLModel.NamedEntity</text>
</a>
</g>
</g>
<!-- pyVHDLModel.NamedEntity&#45;&gt;pyVHDLModel.SyntaxModel.BaseType -->
<g id="edge4" class="edge">
<title>pyVHDLModel.NamedEntity&#45;&gt;pyVHDLModel.SyntaxModel.BaseType</title>
<path fill="none" stroke="#000000" stroke-width=".5" d="M152.2374,-15.973C162.1327,-16.8132 172.4047,-17.6853 182.6683,-18.5567"/>
<polygon fill="#000000" stroke="#000000" stroke-width=".5" points="182.5743,-20.305 187.7045,-18.9843 182.8705,-16.8175 182.5743,-20.305"/>
</g>
<!-- pyVHDLModel.SyntaxModel.FullType -->
<g id="node9" class="node">
<title>pyVHDLModel.SyntaxModel.FullType</title>
<polygon fill="none" stroke="#000000" stroke-width=".5" points="617,-37 424,-37 424,-18 617,-18 617,-37"/>
<text text-anchor="middle" x="520.5" y="-25" font-family="Vera Sans, DejaVu Sans, Liberation Sans, Arial, Helvetica, sans" font-size="10.00" fill="#000000">pyVHDLModel.SyntaxModel.FullType</text>
</g>
<!-- pyVHDLModel.SyntaxModel.BaseType&#45;&gt;pyVHDLModel.SyntaxModel.FullType -->
<g id="edge7" class="edge">
<title>pyVHDLModel.SyntaxModel.BaseType&#45;&gt;pyVHDLModel.SyntaxModel.FullType</title>
<path fill="none" stroke="#000000" stroke-width=".5" d="M388.2879,-27.5C398.3351,-27.5 408.5445,-27.5 418.6082,-27.5"/>
<polygon fill="#000000" stroke="#000000" stroke-width=".5" points="418.8559,-29.2501 423.8559,-27.5 418.8558,-25.7501 418.8559,-29.2501"/>
</g>
<!-- pyVHDLModel.SyntaxModel.DiscreteType -->
<g id="node7" class="node">
<title>pyVHDLModel.SyntaxModel.DiscreteType</title>
<g id="a_node7"><a xlink:title="A ``DiscreteType`` is a mixin class for all discrete types.">
<polygon fill="none" stroke="#000000" stroke-width=".5" points="870,-74 653,-74 653,-55 870,-55 870,-74"/>
<text text-anchor="middle" x="761.5" y="-62" font-family="Vera Sans, DejaVu Sans, Liberation Sans, Arial, Helvetica, sans" font-size="10.00" fill="#000000">pyVHDLModel.SyntaxModel.DiscreteType</text>
</a>
</g>
</g>
<!-- pyVHDLModel.SyntaxModel.DiscreteType&#45;&gt;pyVHDLModel.SyntaxModel.EnumeratedType -->
<g id="edge6" class="edge">
<title>pyVHDLModel.SyntaxModel.DiscreteType&#45;&gt;pyVHDLModel.SyntaxModel.EnumeratedType</title>
<path fill="none" stroke="#000000" stroke-width=".5" d="M870.1637,-56.6348C880.2242,-55.9066 890.4672,-55.1652 900.6467,-54.4284"/>
<polygon fill="#000000" stroke="#000000" stroke-width=".5" points="900.7772,-56.1737 905.6378,-54.0672 900.5244,-52.6828 900.7772,-56.1737"/>
</g>
<!-- pyVHDLModel.SyntaxModel.ScalarType -->
<g id="node8" class="node">
<title>pyVHDLModel.SyntaxModel.ScalarType</title>
<g id="a_node8"><a xlink:title="A ``ScalarType`` is a base&#45;class for all scalar types.">
<polygon fill="none" stroke="#000000" stroke-width=".5" points="864.5,-37 658.5,-37 658.5,-18 864.5,-18 864.5,-37"/>
<text text-anchor="middle" x="761.5" y="-25" font-family="Vera Sans, DejaVu Sans, Liberation Sans, Arial, Helvetica, sans" font-size="10.00" fill="#000000">pyVHDLModel.SyntaxModel.ScalarType</text>
</a>
</g>
</g>
<!-- pyVHDLModel.SyntaxModel.ScalarType&#45;&gt;pyVHDLModel.SyntaxModel.EnumeratedType -->
<g id="edge5" class="edge">
<title>pyVHDLModel.SyntaxModel.ScalarType&#45;&gt;pyVHDLModel.SyntaxModel.EnumeratedType</title>
<path fill="none" stroke="#000000" stroke-width=".5" d="M864.8701,-34.5882C876.6707,-35.3974 888.7864,-36.2282 900.8116,-37.0528"/>
<polygon fill="#000000" stroke="#000000" stroke-width=".5" points="900.8505,-38.8095 905.9585,-37.4057 901.09,-35.3177 900.8505,-38.8095"/>
</g>
<!-- pyVHDLModel.SyntaxModel.FullType&#45;&gt;pyVHDLModel.SyntaxModel.ScalarType -->
<g id="edge8" class="edge">
<title>pyVHDLModel.SyntaxModel.FullType&#45;&gt;pyVHDLModel.SyntaxModel.ScalarType</title>
<path fill="none" stroke="#000000" stroke-width=".5" d="M617.1353,-27.5C628.9374,-27.5 641.0578,-27.5 653.0186,-27.5"/>
<polygon fill="#000000" stroke="#000000" stroke-width=".5" points="653.1335,-29.2501 658.1335,-27.5 653.1334,-25.7501 653.1335,-29.2501"/>
</g>
</g>
</svg>
