<?xml version="1.0" encoding="UTF-8" standalone="no"?>
<!DOCTYPE svg PUBLIC "-//W3C//DTD SVG 1.1//EN"
 "http://www.w3.org/Graphics/SVG/1.1/DTD/svg11.dtd">
<!-- Generated by graphviz version 2.40.1 (20161225.0304)
 -->
<!-- Title: inheritance7467f46b52 Pages: 1 -->
<svg width="576pt" height="28pt"
 viewBox="0.00 0.00 576.00 27.65" xmlns="http://www.w3.org/2000/svg" xmlns:xlink="http://www.w3.org/1999/xlink">
<g id="graph0" class="graph" transform="scale(.4321 .4321) rotate(0) translate(4 60)">
<title>inheritance7467f46b52</title>
<polygon fill="#ffffff" stroke="transparent" points="-4,4 -4,-60 1329,-60 1329,4 -4,4"/>
<!-- pyGHDL.dom.DOMMixin -->
<g id="node1" class="node">
<title>pyGHDL.dom.DOMMixin</title>
<g id="a_node1"><a xlink:href="../pyGHDL.dom.html#pyGHDL.dom.DOMMixin" xlink:title="pyGHDL.dom.DOMMixin" target="_top">
<polygon fill="none" stroke="#000000" stroke-width=".5" points="897,-56 763,-56 763,-37 897,-37 897,-56"/>
<text text-anchor="middle" x="830" y="-44" font-family="Vera Sans, DejaVu Sans, Liberation Sans, Arial, Helvetica, sans" font-size="10.00" fill="#000000">pyGHDL.dom.DOMMixin</text>
</a>
</g>
</g>
<!-- pyGHDL.dom.Symbol.SimpleObjectOrFunctionCallSymbol -->
<g id="node2" class="node">
<title>pyGHDL.dom.Symbol.SimpleObjectOrFunctionCallSymbol</title>
<g id="a_node2"><a xlink:href="../pyGHDL/pyGHDL.dom.Symbol.html#pyGHDL.dom.Symbol.SimpleObjectOrFunctionCallSymbol" xlink:title="pyGHDL.dom.Symbol.SimpleObjectOrFunctionCallSymbol" target="_top">
<polygon fill="none" stroke="#000000" stroke-width=".5" points="1325,-37 1029,-37 1029,-18 1325,-18 1325,-37"/>
<text text-anchor="middle" x="1177" y="-25" font-family="Vera Sans, DejaVu Sans, Liberation Sans, Arial, Helvetica, sans" font-size="10.00" fill="#000000">pyGHDL.dom.Symbol.SimpleObjectOrFunctionCallSymbol</text>
</a>
</g>
</g>
<!-- pyGHDL.dom.DOMMixin&#45;&gt;pyGHDL.dom.Symbol.SimpleObjectOrFunctionCallSymbol -->
<g id="edge2" class="edge">
<title>pyGHDL.dom.DOMMixin&#45;&gt;pyGHDL.dom.Symbol.SimpleObjectOrFunctionCallSymbol</title>
<path fill="none" stroke="#000000" stroke-width=".5" d="M897.3165,-42.8141C933.3738,-40.8398 979.3727,-38.3211 1023.6048,-35.8992"/>
<polygon fill="#000000" stroke="#000000" stroke-width=".5" points="1023.8135,-37.6404 1028.7103,-35.6196 1023.6221,-34.1457 1023.8135,-37.6404"/>
</g>
<!-- pyVHDLModel.SyntaxModel.SimpleObjectOrFunctionCallSymbol -->
<g id="node3" class="node">
<title>pyVHDLModel.SyntaxModel.SimpleObjectOrFunctionCallSymbol</title>
<polygon fill="none" stroke="#000000" stroke-width=".5" points="993,-19 667,-19 667,0 993,0 993,-19"/>
<text text-anchor="middle" x="830" y="-7" font-family="Vera Sans, DejaVu Sans, Liberation Sans, Arial, Helvetica, sans" font-size="10.00" fill="#000000">pyVHDLModel.SyntaxModel.SimpleObjectOrFunctionCallSymbol</text>
</g>
<!-- pyVHDLModel.SyntaxModel.SimpleObjectOrFunctionCallSymbol&#45;&gt;pyGHDL.dom.Symbol.SimpleObjectOrFunctionCallSymbol -->
<g id="edge1" class="edge">
<title>pyVHDLModel.SyntaxModel.SimpleObjectOrFunctionCallSymbol&#45;&gt;pyGHDL.dom.Symbol.SimpleObjectOrFunctionCallSymbol</title>
<path fill="none" stroke="#000000" stroke-width=".5" d="M993.0854,-17.9598C1003.3666,-18.4931 1013.6968,-19.0289 1023.9307,-19.5598"/>
<polygon fill="#000000" stroke="#000000" stroke-width=".5" points="1023.8624,-21.3085 1028.9463,-19.82 1024.0437,-17.8132 1023.8624,-21.3085"/>
</g>
<!-- pyVHDLModel.ModelEntity -->
<g id="node4" class="node">
<title>pyVHDLModel.ModelEntity</title>
<g id="a_node4"><a xlink:title="``ModelEntity`` is the base class for all classes in the VHDL language model,">
<polygon fill="none" stroke="#000000" stroke-width=".5" points="146,-19 0,-19 0,0 146,0 146,-19"/>
<text text-anchor="middle" x="73" y="-7" font-family="Vera Sans, DejaVu Sans, Liberation Sans, Arial, Helvetica, sans" font-size="10.00" fill="#000000">pyVHDLModel.ModelEntity</text>
</a>
</g>
</g>
<!-- pyVHDLModel.SyntaxModel.Symbol -->
<g id="node6" class="node">
<title>pyVHDLModel.SyntaxModel.Symbol</title>
<polygon fill="none" stroke="#000000" stroke-width=".5" points="373,-19 182,-19 182,0 373,0 373,-19"/>
<text text-anchor="middle" x="277.5" y="-7" font-family="Vera Sans, DejaVu Sans, Liberation Sans, Arial, Helvetica, sans" font-size="10.00" fill="#000000">pyVHDLModel.SyntaxModel.Symbol</text>
</g>
<!-- pyVHDLModel.ModelEntity&#45;&gt;pyVHDLModel.SyntaxModel.Symbol -->
<g id="edge5" class="edge">
<title>pyVHDLModel.ModelEntity&#45;&gt;pyVHDLModel.SyntaxModel.Symbol</title>
<path fill="none" stroke="#000000" stroke-width=".5" d="M146.2516,-9.5C156.1992,-9.5 166.5459,-9.5 176.8707,-9.5"/>
<polygon fill="#000000" stroke="#000000" stroke-width=".5" points="176.9356,-11.2501 181.9356,-9.5 176.9355,-7.7501 176.9356,-11.2501"/>
</g>
<!-- pyVHDLModel.SyntaxModel.ObjectSymbol -->
<g id="node5" class="node">
<title>pyVHDLModel.SyntaxModel.ObjectSymbol</title>
<polygon fill="none" stroke="#000000" stroke-width=".5" points="631,-19 409,-19 409,0 631,0 631,-19"/>
<text text-anchor="middle" x="520" y="-7" font-family="Vera Sans, DejaVu Sans, Liberation Sans, Arial, Helvetica, sans" font-size="10.00" fill="#000000">pyVHDLModel.SyntaxModel.ObjectSymbol</text>
</g>
<!-- pyVHDLModel.SyntaxModel.ObjectSymbol&#45;&gt;pyVHDLModel.SyntaxModel.SimpleObjectOrFunctionCallSymbol -->
<g id="edge4" class="edge">
<title>pyVHDLModel.SyntaxModel.ObjectSymbol&#45;&gt;pyVHDLModel.SyntaxModel.SimpleObjectOrFunctionCallSymbol</title>
<path fill="none" stroke="#000000" stroke-width=".5" d="M631.0415,-9.5C641.0447,-9.5 651.3142,-9.5 661.6636,-9.5"/>
<polygon fill="#000000" stroke="#000000" stroke-width=".5" points="661.7499,-11.2501 666.7498,-9.5 661.7498,-7.7501 661.7499,-11.2501"/>
</g>
<!-- pyVHDLModel.SyntaxModel.Symbol&#45;&gt;pyVHDLModel.SyntaxModel.ObjectSymbol -->
<g id="edge3" class="edge">
<title>pyVHDLModel.SyntaxModel.Symbol&#45;&gt;pyVHDLModel.SyntaxModel.ObjectSymbol</title>
<path fill="none" stroke="#000000" stroke-width=".5" d="M373.3424,-9.5C383.3543,-9.5 393.6082,-9.5 403.8141,-9.5"/>
<polygon fill="#000000" stroke="#000000" stroke-width=".5" points="403.8192,-11.2501 408.8192,-9.5 403.8191,-7.7501 403.8192,-11.2501"/>
</g>
</g>
</svg>
