<?xml version="1.0" encoding="UTF-8" standalone="no"?>
<!DOCTYPE svg PUBLIC "-//W3C//DTD SVG 1.1//EN"
 "http://www.w3.org/Graphics/SVG/1.1/DTD/svg11.dtd">
<!-- Generated by graphviz version 2.40.1 (20161225.0304)
 -->
<!-- Title: inheritance221adf89f0 Pages: 1 -->
<svg width="576pt" height="38pt"
 viewBox="0.00 0.00 576.00 37.97" xmlns="http://www.w3.org/2000/svg" xmlns:xlink="http://www.w3.org/1999/xlink">
<g id="graph0" class="graph" transform="scale(.463 .463) rotate(0) translate(4 78)">
<title>inheritance221adf89f0</title>
<polygon fill="#ffffff" stroke="transparent" points="-4,4 -4,-78 1240,-78 1240,4 -4,4"/>
<!-- pyGHDL.dom.DOMMixin -->
<g id="node1" class="node">
<title>pyGHDL.dom.DOMMixin</title>
<g id="a_node1"><a xlink:href="../pyGHDL.dom.html#pyGHDL.dom.DOMMixin" xlink:title="pyGHDL.dom.DOMMixin" target="_top">
<polygon fill="none" stroke="#000000" stroke-width=".5" points="973,-74 839,-74 839,-55 973,-55 973,-74"/>
<text text-anchor="middle" x="906" y="-62" font-family="Vera Sans, DejaVu Sans, Liberation Sans, Arial, Helvetica, sans" font-size="10.00" fill="#000000">pyGHDL.dom.DOMMixin</text>
</a>
</g>
</g>
<!-- pyGHDL.dom.PSL.VerificationMode -->
<g id="node2" class="node">
<title>pyGHDL.dom.PSL.VerificationMode</title>
<g id="a_node2"><a xlink:href="../pyGHDL/pyGHDL.dom.PSL.html#pyGHDL.dom.PSL.VerificationMode" xlink:title="pyGHDL.dom.PSL.VerificationMode" target="_top">
<polygon fill="none" stroke="#000000" stroke-width=".5" points="1236,-55 1051,-55 1051,-36 1236,-36 1236,-55"/>
<text text-anchor="middle" x="1143.5" y="-43" font-family="Vera Sans, DejaVu Sans, Liberation Sans, Arial, Helvetica, sans" font-size="10.00" fill="#000000">pyGHDL.dom.PSL.VerificationMode</text>
</a>
</g>
</g>
<!-- pyGHDL.dom.DOMMixin&#45;&gt;pyGHDL.dom.PSL.VerificationMode -->
<g id="edge2" class="edge">
<title>pyGHDL.dom.DOMMixin&#45;&gt;pyGHDL.dom.PSL.VerificationMode</title>
<path fill="none" stroke="#000000" stroke-width=".5" d="M973.1057,-59.1315C995.6445,-57.3284 1021.2661,-55.2787 1045.6704,-53.3264"/>
<polygon fill="#000000" stroke="#000000" stroke-width=".5" points="1046.0135,-55.0546 1050.858,-52.9114 1045.7343,-51.5657 1046.0135,-55.0546"/>
</g>
<!-- pyVHDLModel.PSLModel.VerificationMode -->
<g id="node3" class="node">
<title>pyVHDLModel.PSLModel.VerificationMode</title>
<polygon fill="none" stroke="#000000" stroke-width=".5" points="1015,-37 797,-37 797,-18 1015,-18 1015,-37"/>
<text text-anchor="middle" x="906" y="-25" font-family="Vera Sans, DejaVu Sans, Liberation Sans, Arial, Helvetica, sans" font-size="10.00" fill="#000000">pyVHDLModel.PSLModel.VerificationMode</text>
</g>
<!-- pyVHDLModel.PSLModel.VerificationMode&#45;&gt;pyGHDL.dom.PSL.VerificationMode -->
<g id="edge1" class="edge">
<title>pyVHDLModel.PSLModel.VerificationMode&#45;&gt;pyGHDL.dom.PSL.VerificationMode</title>
<path fill="none" stroke="#000000" stroke-width=".5" d="M1015.0185,-35.7625C1025.195,-36.5337 1035.4675,-37.3123 1045.5343,-38.0752"/>
<polygon fill="#000000" stroke="#000000" stroke-width=".5" points="1045.6602,-39.8397 1050.7782,-38.4727 1045.9248,-36.3497 1045.6602,-39.8397"/>
</g>
<!-- pyVHDLModel.DesignUnit -->
<g id="node4" class="node">
<title>pyVHDLModel.DesignUnit</title>
<g id="a_node4"><a xlink:title="A ``DesignUnit`` is a base&#45;class for all design units.">
<polygon fill="none" stroke="#000000" stroke-width=".5" points="330,-37 188,-37 188,-18 330,-18 330,-37"/>
<text text-anchor="middle" x="259" y="-25" font-family="Vera Sans, DejaVu Sans, Liberation Sans, Arial, Helvetica, sans" font-size="10.00" fill="#000000">pyVHDLModel.DesignUnit</text>
</a>
</g>
</g>
<!-- pyVHDLModel.PrimaryUnit -->
<g id="node8" class="node">
<title>pyVHDLModel.PrimaryUnit</title>
<g id="a_node8"><a xlink:title="A ``PrimaryUnit`` is a base&#45;class for all primary units.">
<polygon fill="none" stroke="#000000" stroke-width=".5" points="512,-37 366,-37 366,-18 512,-18 512,-37"/>
<text text-anchor="middle" x="439" y="-25" font-family="Vera Sans, DejaVu Sans, Liberation Sans, Arial, Helvetica, sans" font-size="10.00" fill="#000000">pyVHDLModel.PrimaryUnit</text>
</a>
</g>
</g>
<!-- pyVHDLModel.DesignUnit&#45;&gt;pyVHDLModel.PrimaryUnit -->
<g id="edge7" class="edge">
<title>pyVHDLModel.DesignUnit&#45;&gt;pyVHDLModel.PrimaryUnit</title>
<path fill="none" stroke="#000000" stroke-width=".5" d="M330.1408,-27.5C340.0988,-27.5 350.3794,-27.5 360.4647,-27.5"/>
<polygon fill="#000000" stroke="#000000" stroke-width=".5" points="360.7182,-29.2501 365.7182,-27.5 360.7181,-25.7501 360.7182,-29.2501"/>
</g>
<!-- pyVHDLModel.ModelEntity -->
<g id="node5" class="node">
<title>pyVHDLModel.ModelEntity</title>
<g id="a_node5"><a xlink:title="``ModelEntity`` is the base class for all classes in the VHDL language model,">
<polygon fill="none" stroke="#000000" stroke-width=".5" points="149,-56 3,-56 3,-37 149,-37 149,-56"/>
<text text-anchor="middle" x="76" y="-44" font-family="Vera Sans, DejaVu Sans, Liberation Sans, Arial, Helvetica, sans" font-size="10.00" fill="#000000">pyVHDLModel.ModelEntity</text>
</a>
</g>
</g>
<!-- pyVHDLModel.ModelEntity&#45;&gt;pyVHDLModel.DesignUnit -->
<g id="edge3" class="edge">
<title>pyVHDLModel.ModelEntity&#45;&gt;pyVHDLModel.DesignUnit</title>
<path fill="none" stroke="#000000" stroke-width=".5" d="M149.1154,-38.9088C160.1661,-37.7614 171.59,-36.5754 182.7058,-35.4213"/>
<polygon fill="#000000" stroke="#000000" stroke-width=".5" points="182.9964,-37.1506 187.789,-34.8935 182.6349,-33.6693 182.9964,-37.1506"/>
</g>
<!-- pyVHDLModel.NamedEntity -->
<g id="node6" class="node">
<title>pyVHDLModel.NamedEntity</title>
<g id="a_node6"><a xlink:title="A ``NamedEntity`` is a mixin class for all VHDL entities that have identifiers.">
<polygon fill="none" stroke="#000000" stroke-width=".5" points="152,-19 0,-19 0,0 152,0 152,-19"/>
<text text-anchor="middle" x="76" y="-7" font-family="Vera Sans, DejaVu Sans, Liberation Sans, Arial, Helvetica, sans" font-size="10.00" fill="#000000">pyVHDLModel.NamedEntity</text>
</a>
</g>
</g>
<!-- pyVHDLModel.NamedEntity&#45;&gt;pyVHDLModel.DesignUnit -->
<g id="edge4" class="edge">
<title>pyVHDLModel.NamedEntity&#45;&gt;pyVHDLModel.DesignUnit</title>
<path fill="none" stroke="#000000" stroke-width=".5" d="M152.0187,-16.9772C162.23,-17.9816 172.7064,-19.0121 182.9189,-20.0166"/>
<polygon fill="#000000" stroke="#000000" stroke-width=".5" points="182.7614,-21.7595 187.9087,-20.5074 183.1041,-18.2763 182.7614,-21.7595"/>
</g>
<!-- pyVHDLModel.PSLModel.PSLPrimaryUnit -->
<g id="node7" class="node">
<title>pyVHDLModel.PSLModel.PSLPrimaryUnit</title>
<polygon fill="none" stroke="#000000" stroke-width=".5" points="761,-37 548,-37 548,-18 761,-18 761,-37"/>
<text text-anchor="middle" x="654.5" y="-25" font-family="Vera Sans, DejaVu Sans, Liberation Sans, Arial, Helvetica, sans" font-size="10.00" fill="#000000">pyVHDLModel.PSLModel.PSLPrimaryUnit</text>
</g>
<!-- pyVHDLModel.PSLModel.PSLPrimaryUnit&#45;&gt;pyVHDLModel.PSLModel.VerificationMode -->
<g id="edge6" class="edge">
<title>pyVHDLModel.PSLModel.PSLPrimaryUnit&#45;&gt;pyVHDLModel.PSLModel.VerificationMode</title>
<path fill="none" stroke="#000000" stroke-width=".5" d="M761.1586,-27.5C771.1912,-27.5 781.3898,-27.5 791.4909,-27.5"/>
<polygon fill="#000000" stroke="#000000" stroke-width=".5" points="791.7629,-29.2501 796.7628,-27.5 791.7628,-25.7501 791.7629,-29.2501"/>
</g>
<!-- pyVHDLModel.PrimaryUnit&#45;&gt;pyVHDLModel.PSLModel.PSLPrimaryUnit -->
<g id="edge5" class="edge">
<title>pyVHDLModel.PrimaryUnit&#45;&gt;pyVHDLModel.PSLModel.PSLPrimaryUnit</title>
<path fill="none" stroke="#000000" stroke-width=".5" d="M512.2592,-27.5C522.116,-27.5 532.4034,-27.5 542.74,-27.5"/>
<polygon fill="#000000" stroke="#000000" stroke-width=".5" points="542.8167,-29.2501 547.8166,-27.5 542.8166,-25.7501 542.8167,-29.2501"/>
</g>
</g>
</svg>
