<?xml version="1.0" encoding="UTF-8" standalone="no"?>
<!DOCTYPE svg PUBLIC "-//W3C//DTD SVG 1.1//EN"
 "http://www.w3.org/Graphics/SVG/1.1/DTD/svg11.dtd">
<!-- Generated by graphviz version 2.40.1 (20161225.0304)
 -->
<!-- Title: inheritancee5a61e2e0d Pages: 1 -->
<svg width="576pt" height="23pt"
 viewBox="0.00 0.00 576.00 22.97" xmlns="http://www.w3.org/2000/svg" xmlns:xlink="http://www.w3.org/1999/xlink">
<g id="graph0" class="graph" transform="scale(.3589 .3589) rotate(0) translate(4 60)">
<title>inheritancee5a61e2e0d</title>
<polygon fill="#ffffff" stroke="transparent" points="-4,4 -4,-60 1601,-60 1601,4 -4,4"/>
<!-- pyGHDL.dom.DOMMixin -->
<g id="node1" class="node">
<title>pyGHDL.dom.DOMMixin</title>
<g id="a_node1"><a xlink:href="../pyGHDL.dom.html#pyGHDL.dom.DOMMixin" xlink:title="pyGHDL.dom.DOMMixin" target="_top">
<polygon fill="none" stroke="#000000" stroke-width=".5" points="1209,-56 1075,-56 1075,-37 1209,-37 1209,-56"/>
<text text-anchor="middle" x="1142" y="-44" font-family="Vera Sans, DejaVu Sans, Liberation Sans, Arial, Helvetica, sans" font-size="10.00" fill="#000000">pyGHDL.dom.DOMMixin</text>
</a>
</g>
</g>
<!-- pyGHDL.dom.Expression.AscendingRangeExpression -->
<g id="node2" class="node">
<title>pyGHDL.dom.Expression.AscendingRangeExpression</title>
<g id="a_node2"><a xlink:href="../pyGHDL/pyGHDL.dom.Expression.html#pyGHDL.dom.Expression.AscendingRangeExpression" xlink:title="pyGHDL.dom.Expression.AscendingRangeExpression" target="_top">
<polygon fill="none" stroke="#000000" stroke-width=".5" points="1597,-37 1322,-37 1322,-18 1597,-18 1597,-37"/>
<text text-anchor="middle" x="1459.5" y="-25" font-family="Vera Sans, DejaVu Sans, Liberation Sans, Arial, Helvetica, sans" font-size="10.00" fill="#000000">pyGHDL.dom.Expression.AscendingRangeExpression</text>
</a>
</g>
</g>
<!-- pyGHDL.dom.DOMMixin&#45;&gt;pyGHDL.dom.Expression.AscendingRangeExpression -->
<g id="edge2" class="edge">
<title>pyGHDL.dom.DOMMixin&#45;&gt;pyGHDL.dom.Expression.AscendingRangeExpression</title>
<path fill="none" stroke="#000000" stroke-width=".5" d="M1209.3336,-42.4706C1240.6911,-40.5941 1279.2672,-38.2856 1316.6548,-36.0482"/>
<polygon fill="#000000" stroke="#000000" stroke-width=".5" points="1316.7962,-37.793 1321.6828,-35.7473 1316.5871,-34.2992 1316.7962,-37.793"/>
</g>
<!-- pyVHDLModel.SyntaxModel.AscendingRangeExpression -->
<g id="node3" class="node">
<title>pyVHDLModel.SyntaxModel.AscendingRangeExpression</title>
<polygon fill="none" stroke="#000000" stroke-width=".5" points="1286,-19 998,-19 998,0 1286,0 1286,-19"/>
<text text-anchor="middle" x="1142" y="-7" font-family="Vera Sans, DejaVu Sans, Liberation Sans, Arial, Helvetica, sans" font-size="10.00" fill="#000000">pyVHDLModel.SyntaxModel.AscendingRangeExpression</text>
</g>
<!-- pyVHDLModel.SyntaxModel.AscendingRangeExpression&#45;&gt;pyGHDL.dom.Expression.AscendingRangeExpression -->
<g id="edge1" class="edge">
<title>pyVHDLModel.SyntaxModel.AscendingRangeExpression&#45;&gt;pyGHDL.dom.Expression.AscendingRangeExpression</title>
<path fill="none" stroke="#000000" stroke-width=".5" d="M1286.3499,-17.6836C1296.3937,-18.253 1306.515,-18.8268 1316.5512,-19.3958"/>
<polygon fill="#000000" stroke="#000000" stroke-width=".5" points="1316.6998,-21.157 1321.7909,-19.6929 1316.898,-17.6626 1316.6998,-21.157"/>
</g>
<!-- pyVHDLModel.ModelEntity -->
<g id="node4" class="node">
<title>pyVHDLModel.ModelEntity</title>
<g id="a_node4"><a xlink:title="``ModelEntity`` is the base class for all classes in the VHDL language model,">
<polygon fill="none" stroke="#000000" stroke-width=".5" points="146,-19 0,-19 0,0 146,0 146,-19"/>
<text text-anchor="middle" x="73" y="-7" font-family="Vera Sans, DejaVu Sans, Liberation Sans, Arial, Helvetica, sans" font-size="10.00" fill="#000000">pyVHDLModel.ModelEntity</text>
</a>
</g>
</g>
<!-- pyVHDLModel.SyntaxModel.BaseExpression -->
<g id="node6" class="node">
<title>pyVHDLModel.SyntaxModel.BaseExpression</title>
<g id="a_node6"><a xlink:title="A ``BaseExpression`` is a base&#45;class for all expressions.">
<polygon fill="none" stroke="#000000" stroke-width=".5" points="413,-19 182,-19 182,0 413,0 413,-19"/>
<text text-anchor="middle" x="297.5" y="-7" font-family="Vera Sans, DejaVu Sans, Liberation Sans, Arial, Helvetica, sans" font-size="10.00" fill="#000000">pyVHDLModel.SyntaxModel.BaseExpression</text>
</a>
</g>
</g>
<!-- pyVHDLModel.ModelEntity&#45;&gt;pyVHDLModel.SyntaxModel.BaseExpression -->
<g id="edge4" class="edge">
<title>pyVHDLModel.ModelEntity&#45;&gt;pyVHDLModel.SyntaxModel.BaseExpression</title>
<path fill="none" stroke="#000000" stroke-width=".5" d="M146.1991,-9.5C155.9857,-9.5 166.2247,-9.5 176.5627,-9.5"/>
<polygon fill="#000000" stroke="#000000" stroke-width=".5" points="176.6441,-11.2501 181.644,-9.5 176.644,-7.7501 176.6441,-11.2501"/>
</g>
<!-- pyVHDLModel.SyntaxModel.RangeExpression -->
<g id="node5" class="node">
<title>pyVHDLModel.SyntaxModel.RangeExpression</title>
<polygon fill="none" stroke="#000000" stroke-width=".5" points="962,-19 724,-19 724,0 962,0 962,-19"/>
<text text-anchor="middle" x="843" y="-7" font-family="Vera Sans, DejaVu Sans, Liberation Sans, Arial, Helvetica, sans" font-size="10.00" fill="#000000">pyVHDLModel.SyntaxModel.RangeExpression</text>
</g>
<!-- pyVHDLModel.SyntaxModel.RangeExpression&#45;&gt;pyVHDLModel.SyntaxModel.AscendingRangeExpression -->
<g id="edge3" class="edge">
<title>pyVHDLModel.SyntaxModel.RangeExpression&#45;&gt;pyVHDLModel.SyntaxModel.AscendingRangeExpression</title>
<path fill="none" stroke="#000000" stroke-width=".5" d="M962.0318,-9.5C972.1085,-9.5 982.3779,-9.5 992.6465,-9.5"/>
<polygon fill="#000000" stroke="#000000" stroke-width=".5" points="992.6865,-11.2501 997.6865,-9.5 992.6865,-7.7501 992.6865,-11.2501"/>
</g>
<!-- pyVHDLModel.SyntaxModel.BinaryExpression -->
<g id="node7" class="node">
<title>pyVHDLModel.SyntaxModel.BinaryExpression</title>
<g id="a_node7"><a xlink:title="A ``BinaryExpression`` is a base&#45;class for all binary expressions.">
<polygon fill="none" stroke="#000000" stroke-width=".5" points="688,-19 449,-19 449,0 688,0 688,-19"/>
<text text-anchor="middle" x="568.5" y="-7" font-family="Vera Sans, DejaVu Sans, Liberation Sans, Arial, Helvetica, sans" font-size="10.00" fill="#000000">pyVHDLModel.SyntaxModel.BinaryExpression</text>
</a>
</g>
</g>
<!-- pyVHDLModel.SyntaxModel.BaseExpression&#45;&gt;pyVHDLModel.SyntaxModel.BinaryExpression -->
<g id="edge5" class="edge">
<title>pyVHDLModel.SyntaxModel.BaseExpression&#45;&gt;pyVHDLModel.SyntaxModel.BinaryExpression</title>
<path fill="none" stroke="#000000" stroke-width=".5" d="M413.2145,-9.5C423.3522,-9.5 433.6409,-9.5 443.8471,-9.5"/>
<polygon fill="#000000" stroke="#000000" stroke-width=".5" points="443.8497,-11.2501 448.8497,-9.5 443.8496,-7.7501 443.8497,-11.2501"/>
</g>
<!-- pyVHDLModel.SyntaxModel.BinaryExpression&#45;&gt;pyVHDLModel.SyntaxModel.RangeExpression -->
<g id="edge6" class="edge">
<title>pyVHDLModel.SyntaxModel.BinaryExpression&#45;&gt;pyVHDLModel.SyntaxModel.RangeExpression</title>
<path fill="none" stroke="#000000" stroke-width=".5" d="M688.1012,-9.5C698.2823,-9.5 708.5951,-9.5 718.8106,-9.5"/>
<polygon fill="#000000" stroke="#000000" stroke-width=".5" points="718.8166,-11.2501 723.8166,-9.5 718.8166,-7.7501 718.8166,-11.2501"/>
</g>
</g>
</svg>
