<?xml version="1.0" encoding="UTF-8" standalone="no"?>
<!DOCTYPE svg PUBLIC "-//W3C//DTD SVG 1.1//EN"
 "http://www.w3.org/Graphics/SVG/1.1/DTD/svg11.dtd">
<!-- Generated by graphviz version 2.40.1 (20161225.0304)
 -->
<!-- Title: inheritance603f005e44 Pages: 1 -->
<svg width="576pt" height="25pt"
 viewBox="0.00 0.00 576.00 24.69" xmlns="http://www.w3.org/2000/svg" xmlns:xlink="http://www.w3.org/1999/xlink">
<g id="graph0" class="graph" transform="scale(.9143 .9143) rotate(0) translate(4 23)">
<title>inheritance603f005e44</title>
<polygon fill="#ffffff" stroke="transparent" points="-4,4 -4,-23 626,-23 626,4 -4,4"/>
<!-- pyGHDL.dom.NonStandard.Document -->
<g id="node1" class="node">
<title>pyGHDL.dom.NonStandard.Document</title>
<g id="a_node1"><a xlink:href="../pyGHDL/pyGHDL.dom.NonStandard.html#pyGHDL.dom.NonStandard.Document" xlink:title="pyGHDL.dom.NonStandard.Document" target="_top">
<polygon fill="none" stroke="#000000" stroke-width=".5" points="622,-19 422,-19 422,0 622,0 622,-19"/>
<text text-anchor="middle" x="522" y="-7" font-family="Vera Sans, DejaVu Sans, Liberation Sans, Arial, Helvetica, sans" font-size="10.00" fill="#000000">pyGHDL.dom.NonStandard.Document</text>
</a>
</g>
</g>
<!-- pyVHDLModel.SyntaxModel.Document -->
<g id="node2" class="node">
<title>pyVHDLModel.SyntaxModel.Document</title>
<g id="a_node2"><a xlink:title="A ``Document`` represents a sourcefile. It contains primary and secondary">
<polygon fill="none" stroke="#000000" stroke-width=".5" points="386,-19 182,-19 182,0 386,0 386,-19"/>
<text text-anchor="middle" x="284" y="-7" font-family="Vera Sans, DejaVu Sans, Liberation Sans, Arial, Helvetica, sans" font-size="10.00" fill="#000000">pyVHDLModel.SyntaxModel.Document</text>
</a>
</g>
</g>
<!-- pyVHDLModel.SyntaxModel.Document&#45;&gt;pyGHDL.dom.NonStandard.Document -->
<g id="edge1" class="edge">
<title>pyVHDLModel.SyntaxModel.Document&#45;&gt;pyGHDL.dom.NonStandard.Document</title>
<path fill="none" stroke="#000000" stroke-width=".5" d="M386.3147,-9.5C396.2924,-9.5 406.4297,-9.5 416.4386,-9.5"/>
<polygon fill="#000000" stroke="#000000" stroke-width=".5" points="416.6594,-11.2501 421.6594,-9.5 416.6594,-7.7501 416.6594,-11.2501"/>
</g>
<!-- pyVHDLModel.ModelEntity -->
<g id="node3" class="node">
<title>pyVHDLModel.ModelEntity</title>
<g id="a_node3"><a xlink:title="``ModelEntity`` is the base class for all classes in the VHDL language model,">
<polygon fill="none" stroke="#000000" stroke-width=".5" points="146,-19 0,-19 0,0 146,0 146,-19"/>
<text text-anchor="middle" x="73" y="-7" font-family="Vera Sans, DejaVu Sans, Liberation Sans, Arial, Helvetica, sans" font-size="10.00" fill="#000000">pyVHDLModel.ModelEntity</text>
</a>
</g>
</g>
<!-- pyVHDLModel.ModelEntity&#45;&gt;pyVHDLModel.SyntaxModel.Document -->
<g id="edge2" class="edge">
<title>pyVHDLModel.ModelEntity&#45;&gt;pyVHDLModel.SyntaxModel.Document</title>
<path fill="none" stroke="#000000" stroke-width=".5" d="M146.2054,-9.5C156.1274,-9.5 166.4712,-9.5 176.8364,-9.5"/>
<polygon fill="#000000" stroke="#000000" stroke-width=".5" points="176.9248,-11.2501 181.9247,-9.5 176.9247,-7.7501 176.9248,-11.2501"/>
</g>
</g>
</svg>
