<?xml version="1.0" encoding="UTF-8" standalone="no"?>
<!DOCTYPE svg PUBLIC "-//W3C//DTD SVG 1.1//EN"
 "http://www.w3.org/Graphics/SVG/1.1/DTD/svg11.dtd">
<!-- Generated by graphviz version 2.40.1 (20161225.0304)
 -->
<!-- Title: inheritance1e2dbad43f Pages: 1 -->
<svg width="576pt" height="32pt"
 viewBox="0.00 0.00 576.00 32.11" xmlns="http://www.w3.org/2000/svg" xmlns:xlink="http://www.w3.org/1999/xlink">
<g id="graph0" class="graph" transform="scale(.3916 .3916) rotate(0) translate(4 78)">
<title>inheritance1e2dbad43f</title>
<polygon fill="#ffffff" stroke="transparent" points="-4,4 -4,-78 1467,-78 1467,4 -4,4"/>
<!-- pyGHDL.dom.DOMMixin -->
<g id="node1" class="node">
<title>pyGHDL.dom.DOMMixin</title>
<g id="a_node1"><a xlink:href="../pyGHDL.dom.html#pyGHDL.dom.DOMMixin" xlink:title="pyGHDL.dom.DOMMixin" target="_top">
<polygon fill="none" stroke="#000000" stroke-width=".5" points="1191,-74 1057,-74 1057,-55 1191,-55 1191,-74"/>
<text text-anchor="middle" x="1124" y="-62" font-family="Vera Sans, DejaVu Sans, Liberation Sans, Arial, Helvetica, sans" font-size="10.00" fill="#000000">pyGHDL.dom.DOMMixin</text>
</a>
</g>
</g>
<!-- pyGHDL.dom.Sequential.IfStatement -->
<g id="node2" class="node">
<title>pyGHDL.dom.Sequential.IfStatement</title>
<g id="a_node2"><a xlink:href="../pyGHDL/pyGHDL.dom.Sequential.html#pyGHDL.dom.Sequential.IfStatement" xlink:title="pyGHDL.dom.Sequential.IfStatement" target="_top">
<polygon fill="none" stroke="#000000" stroke-width=".5" points="1463,-55 1266,-55 1266,-36 1463,-36 1463,-55"/>
<text text-anchor="middle" x="1364.5" y="-43" font-family="Vera Sans, DejaVu Sans, Liberation Sans, Arial, Helvetica, sans" font-size="10.00" fill="#000000">pyGHDL.dom.Sequential.IfStatement</text>
</a>
</g>
</g>
<!-- pyGHDL.dom.DOMMixin&#45;&gt;pyGHDL.dom.Sequential.IfStatement -->
<g id="edge2" class="edge">
<title>pyGHDL.dom.DOMMixin&#45;&gt;pyGHDL.dom.Sequential.IfStatement</title>
<path fill="none" stroke="#000000" stroke-width=".5" d="M1191.3125,-59.1822C1212.8483,-57.4808 1237.2143,-55.5558 1260.7241,-53.6985"/>
<polygon fill="#000000" stroke="#000000" stroke-width=".5" points="1260.8799,-55.4418 1265.7265,-53.3033 1260.6042,-51.9526 1260.8799,-55.4418"/>
</g>
<!-- pyVHDLModel.SyntaxModel.IfStatement -->
<g id="node3" class="node">
<title>pyVHDLModel.SyntaxModel.IfStatement</title>
<polygon fill="none" stroke="#000000" stroke-width=".5" points="1230,-37 1018,-37 1018,-18 1230,-18 1230,-37"/>
<text text-anchor="middle" x="1124" y="-25" font-family="Vera Sans, DejaVu Sans, Liberation Sans, Arial, Helvetica, sans" font-size="10.00" fill="#000000">pyVHDLModel.SyntaxModel.IfStatement</text>
</g>
<!-- pyVHDLModel.SyntaxModel.IfStatement&#45;&gt;pyGHDL.dom.Sequential.IfStatement -->
<g id="edge1" class="edge">
<title>pyVHDLModel.SyntaxModel.IfStatement&#45;&gt;pyGHDL.dom.Sequential.IfStatement</title>
<path fill="none" stroke="#000000" stroke-width=".5" d="M1230.1869,-35.4475C1240.2594,-36.2013 1250.4654,-36.9652 1260.517,-37.7175"/>
<polygon fill="#000000" stroke="#000000" stroke-width=".5" points="1260.641,-39.4816 1265.7577,-38.1097 1260.9023,-35.9913 1260.641,-39.4816"/>
</g>
<!-- pyVHDLModel.LabeledEntity -->
<g id="node4" class="node">
<title>pyVHDLModel.LabeledEntity</title>
<g id="a_node4"><a xlink:title="A ``LabeledEntity`` is a mixin class for all VHDL entities that can have">
<polygon fill="none" stroke="#000000" stroke-width=".5" points="155,-56 0,-56 0,-37 155,-37 155,-56"/>
<text text-anchor="middle" x="77.5" y="-44" font-family="Vera Sans, DejaVu Sans, Liberation Sans, Arial, Helvetica, sans" font-size="10.00" fill="#000000">pyVHDLModel.LabeledEntity</text>
</a>
</g>
</g>
<!-- pyVHDLModel.SyntaxModel.Statement -->
<g id="node8" class="node">
<title>pyVHDLModel.SyntaxModel.Statement</title>
<polygon fill="none" stroke="#000000" stroke-width=".5" points="396,-37 191,-37 191,-18 396,-18 396,-37"/>
<text text-anchor="middle" x="293.5" y="-25" font-family="Vera Sans, DejaVu Sans, Liberation Sans, Arial, Helvetica, sans" font-size="10.00" fill="#000000">pyVHDLModel.SyntaxModel.Statement</text>
</g>
<!-- pyVHDLModel.LabeledEntity&#45;&gt;pyVHDLModel.SyntaxModel.Statement -->
<g id="edge7" class="edge">
<title>pyVHDLModel.LabeledEntity&#45;&gt;pyVHDLModel.SyntaxModel.Statement</title>
<path fill="none" stroke="#000000" stroke-width=".5" d="M155.1758,-39.6674C165.154,-38.7897 175.5079,-37.8789 185.8575,-36.9686"/>
<polygon fill="#000000" stroke="#000000" stroke-width=".5" points="186.1088,-38.7033 190.9362,-36.5218 185.802,-35.2168 186.1088,-38.7033"/>
</g>
<!-- pyVHDLModel.ModelEntity -->
<g id="node5" class="node">
<title>pyVHDLModel.ModelEntity</title>
<g id="a_node5"><a xlink:title="``ModelEntity`` is the base class for all classes in the VHDL language model,">
<polygon fill="none" stroke="#000000" stroke-width=".5" points="150.5,-19 4.5,-19 4.5,0 150.5,0 150.5,-19"/>
<text text-anchor="middle" x="77.5" y="-7" font-family="Vera Sans, DejaVu Sans, Liberation Sans, Arial, Helvetica, sans" font-size="10.00" fill="#000000">pyVHDLModel.ModelEntity</text>
</a>
</g>
</g>
<!-- pyVHDLModel.ModelEntity&#45;&gt;pyVHDLModel.SyntaxModel.Statement -->
<g id="edge6" class="edge">
<title>pyVHDLModel.ModelEntity&#45;&gt;pyVHDLModel.SyntaxModel.Statement</title>
<path fill="none" stroke="#000000" stroke-width=".5" d="M150.6277,-15.594C161.9793,-16.5399 173.9067,-17.5339 185.8288,-18.5274"/>
<polygon fill="#000000" stroke="#000000" stroke-width=".5" points="185.8081,-20.2817 190.9362,-18.953 186.0988,-16.7937 185.8081,-20.2817"/>
</g>
<!-- pyVHDLModel.SyntaxModel.CompoundStatement -->
<g id="node6" class="node">
<title>pyVHDLModel.SyntaxModel.CompoundStatement</title>
<g id="a_node6"><a xlink:title="A ``CompoundStatement`` is a base&#45;class for all compound statements.">
<polygon fill="none" stroke="#000000" stroke-width=".5" points="982,-37 725,-37 725,-18 982,-18 982,-37"/>
<text text-anchor="middle" x="853.5" y="-25" font-family="Vera Sans, DejaVu Sans, Liberation Sans, Arial, Helvetica, sans" font-size="10.00" fill="#000000">pyVHDLModel.SyntaxModel.CompoundStatement</text>
</a>
</g>
</g>
<!-- pyVHDLModel.SyntaxModel.CompoundStatement&#45;&gt;pyVHDLModel.SyntaxModel.IfStatement -->
<g id="edge4" class="edge">
<title>pyVHDLModel.SyntaxModel.CompoundStatement&#45;&gt;pyVHDLModel.SyntaxModel.IfStatement</title>
<path fill="none" stroke="#000000" stroke-width=".5" d="M982.0164,-27.5C992.2315,-27.5 1002.498,-27.5 1012.5819,-27.5"/>
<polygon fill="#000000" stroke="#000000" stroke-width=".5" points="1012.8373,-29.2501 1017.8373,-27.5 1012.8373,-25.7501 1012.8373,-29.2501"/>
</g>
<!-- pyVHDLModel.SyntaxModel.SequentialStatement -->
<g id="node7" class="node">
<title>pyVHDLModel.SyntaxModel.SequentialStatement</title>
<g id="a_node7"><a xlink:title="A ``SequentialStatement`` is a base&#45;class for all sequential statements.">
<polygon fill="none" stroke="#000000" stroke-width=".5" points="689,-37 432,-37 432,-18 689,-18 689,-37"/>
<text text-anchor="middle" x="560.5" y="-25" font-family="Vera Sans, DejaVu Sans, Liberation Sans, Arial, Helvetica, sans" font-size="10.00" fill="#000000">pyVHDLModel.SyntaxModel.SequentialStatement</text>
</a>
</g>
</g>
<!-- pyVHDLModel.SyntaxModel.SequentialStatement&#45;&gt;pyVHDLModel.SyntaxModel.CompoundStatement -->
<g id="edge3" class="edge">
<title>pyVHDLModel.SyntaxModel.SequentialStatement&#45;&gt;pyVHDLModel.SyntaxModel.CompoundStatement</title>
<path fill="none" stroke="#000000" stroke-width=".5" d="M689.0141,-27.5C699.1887,-27.5 709.4808,-27.5 719.6902,-27.5"/>
<polygon fill="#000000" stroke="#000000" stroke-width=".5" points="719.6945,-29.2501 724.6945,-27.5 719.6944,-25.7501 719.6945,-29.2501"/>
</g>
<!-- pyVHDLModel.SyntaxModel.Statement&#45;&gt;pyVHDLModel.SyntaxModel.SequentialStatement -->
<g id="edge5" class="edge">
<title>pyVHDLModel.SyntaxModel.Statement&#45;&gt;pyVHDLModel.SyntaxModel.SequentialStatement</title>
<path fill="none" stroke="#000000" stroke-width=".5" d="M396.3473,-27.5C406.3207,-27.5 416.5354,-27.5 426.752,-27.5"/>
<polygon fill="#000000" stroke="#000000" stroke-width=".5" points="426.7666,-29.2501 431.7666,-27.5 426.7665,-25.7501 426.7666,-29.2501"/>
</g>
</g>
</svg>
