<?xml version="1.0" encoding="UTF-8" standalone="no"?>
<!DOCTYPE svg PUBLIC "-//W3C//DTD SVG 1.1//EN"
 "http://www.w3.org/Graphics/SVG/1.1/DTD/svg11.dtd">
<!-- Generated by graphviz version 2.40.1 (20161225.0304)
 -->
<!-- Title: inheritance746f03ff0b Pages: 1 -->
<svg width="576pt" height="20pt"
 viewBox="0.00 0.00 576.00 20.21" xmlns="http://www.w3.org/2000/svg" xmlns:xlink="http://www.w3.org/1999/xlink">
<g id="graph0" class="graph" transform="scale(.3158 .3158) rotate(0) translate(4 60)">
<title>inheritance746f03ff0b</title>
<polygon fill="#ffffff" stroke="transparent" points="-4,4 -4,-60 1820,-60 1820,4 -4,4"/>
<!-- pyGHDL.dom.DOMMixin -->
<g id="node1" class="node">
<title>pyGHDL.dom.DOMMixin</title>
<g id="a_node1"><a xlink:href="../pyGHDL.dom.html#pyGHDL.dom.DOMMixin" xlink:title="pyGHDL.dom.DOMMixin" target="_top">
<polygon fill="none" stroke="#000000" stroke-width=".5" points="1464,-56 1330,-56 1330,-37 1464,-37 1464,-56"/>
<text text-anchor="middle" x="1397" y="-44" font-family="Vera Sans, DejaVu Sans, Liberation Sans, Arial, Helvetica, sans" font-size="10.00" fill="#000000">pyGHDL.dom.DOMMixin</text>
</a>
</g>
</g>
<!-- pyGHDL.dom.Expression.RotateRightExpression -->
<g id="node2" class="node">
<title>pyGHDL.dom.Expression.RotateRightExpression</title>
<g id="a_node2"><a xlink:href="../pyGHDL/pyGHDL.dom.Expression.html#pyGHDL.dom.Expression.RotateRightExpression" xlink:title="pyGHDL.dom.Expression.RotateRightExpression" target="_top">
<polygon fill="none" stroke="#000000" stroke-width=".5" points="1816,-37 1565,-37 1565,-18 1816,-18 1816,-37"/>
<text text-anchor="middle" x="1690.5" y="-25" font-family="Vera Sans, DejaVu Sans, Liberation Sans, Arial, Helvetica, sans" font-size="10.00" fill="#000000">pyGHDL.dom.Expression.RotateRightExpression</text>
</a>
</g>
</g>
<!-- pyGHDL.dom.DOMMixin&#45;&gt;pyGHDL.dom.Expression.RotateRightExpression -->
<g id="edge2" class="edge">
<title>pyGHDL.dom.DOMMixin&#45;&gt;pyGHDL.dom.Expression.RotateRightExpression</title>
<path fill="none" stroke="#000000" stroke-width=".5" d="M1464.3348,-42.141C1492.6889,-40.3055 1526.7032,-38.1035 1559.6375,-35.9715"/>
<polygon fill="#000000" stroke="#000000" stroke-width=".5" points="1560.0364,-37.6994 1564.9129,-35.63 1559.8103,-34.2067 1560.0364,-37.6994"/>
</g>
<!-- pyVHDLModel.SyntaxModel.RotateRightExpression -->
<g id="node3" class="node">
<title>pyVHDLModel.SyntaxModel.RotateRightExpression</title>
<polygon fill="none" stroke="#000000" stroke-width=".5" points="1529,-19 1265,-19 1265,0 1529,0 1529,-19"/>
<text text-anchor="middle" x="1397" y="-7" font-family="Vera Sans, DejaVu Sans, Liberation Sans, Arial, Helvetica, sans" font-size="10.00" fill="#000000">pyVHDLModel.SyntaxModel.RotateRightExpression</text>
</g>
<!-- pyVHDLModel.SyntaxModel.RotateRightExpression&#45;&gt;pyGHDL.dom.Expression.RotateRightExpression -->
<g id="edge1" class="edge">
<title>pyVHDLModel.SyntaxModel.RotateRightExpression&#45;&gt;pyGHDL.dom.Expression.RotateRightExpression</title>
<path fill="none" stroke="#000000" stroke-width=".5" d="M1529.1538,-17.6048C1539.3528,-18.2303 1549.6468,-18.8616 1559.8361,-19.4865"/>
<polygon fill="#000000" stroke="#000000" stroke-width=".5" points="1559.7311,-21.2333 1564.8289,-19.7927 1559.9454,-17.7399 1559.7311,-21.2333"/>
</g>
<!-- pyVHDLModel.ModelEntity -->
<g id="node4" class="node">
<title>pyVHDLModel.ModelEntity</title>
<g id="a_node4"><a xlink:title="``ModelEntity`` is the base class for all classes in the VHDL language model,">
<polygon fill="none" stroke="#000000" stroke-width=".5" points="146,-19 0,-19 0,0 146,0 146,-19"/>
<text text-anchor="middle" x="73" y="-7" font-family="Vera Sans, DejaVu Sans, Liberation Sans, Arial, Helvetica, sans" font-size="10.00" fill="#000000">pyVHDLModel.ModelEntity</text>
</a>
</g>
</g>
<!-- pyVHDLModel.SyntaxModel.BaseExpression -->
<g id="node5" class="node">
<title>pyVHDLModel.SyntaxModel.BaseExpression</title>
<g id="a_node5"><a xlink:title="A ``BaseExpression`` is a base&#45;class for all expressions.">
<polygon fill="none" stroke="#000000" stroke-width=".5" points="413,-19 182,-19 182,0 413,0 413,-19"/>
<text text-anchor="middle" x="297.5" y="-7" font-family="Vera Sans, DejaVu Sans, Liberation Sans, Arial, Helvetica, sans" font-size="10.00" fill="#000000">pyVHDLModel.SyntaxModel.BaseExpression</text>
</a>
</g>
</g>
<!-- pyVHDLModel.ModelEntity&#45;&gt;pyVHDLModel.SyntaxModel.BaseExpression -->
<g id="edge3" class="edge">
<title>pyVHDLModel.ModelEntity&#45;&gt;pyVHDLModel.SyntaxModel.BaseExpression</title>
<path fill="none" stroke="#000000" stroke-width=".5" d="M146.1991,-9.5C155.9857,-9.5 166.2247,-9.5 176.5627,-9.5"/>
<polygon fill="#000000" stroke="#000000" stroke-width=".5" points="176.6441,-11.2501 181.644,-9.5 176.644,-7.7501 176.6441,-11.2501"/>
</g>
<!-- pyVHDLModel.SyntaxModel.BinaryExpression -->
<g id="node6" class="node">
<title>pyVHDLModel.SyntaxModel.BinaryExpression</title>
<g id="a_node6"><a xlink:title="A ``BinaryExpression`` is a base&#45;class for all binary expressions.">
<polygon fill="none" stroke="#000000" stroke-width=".5" points="688,-19 449,-19 449,0 688,0 688,-19"/>
<text text-anchor="middle" x="568.5" y="-7" font-family="Vera Sans, DejaVu Sans, Liberation Sans, Arial, Helvetica, sans" font-size="10.00" fill="#000000">pyVHDLModel.SyntaxModel.BinaryExpression</text>
</a>
</g>
</g>
<!-- pyVHDLModel.SyntaxModel.BaseExpression&#45;&gt;pyVHDLModel.SyntaxModel.BinaryExpression -->
<g id="edge4" class="edge">
<title>pyVHDLModel.SyntaxModel.BaseExpression&#45;&gt;pyVHDLModel.SyntaxModel.BinaryExpression</title>
<path fill="none" stroke="#000000" stroke-width=".5" d="M413.2145,-9.5C423.3522,-9.5 433.6409,-9.5 443.8471,-9.5"/>
<polygon fill="#000000" stroke="#000000" stroke-width=".5" points="443.8497,-11.2501 448.8497,-9.5 443.8496,-7.7501 443.8497,-11.2501"/>
</g>
<!-- pyVHDLModel.SyntaxModel.ShiftExpression -->
<g id="node8" class="node">
<title>pyVHDLModel.SyntaxModel.ShiftExpression</title>
<g id="a_node8"><a xlink:title="A ``ShiftExpression`` is a base&#45;class for all shifting expressions.">
<polygon fill="none" stroke="#000000" stroke-width=".5" points="954,-19 724,-19 724,0 954,0 954,-19"/>
<text text-anchor="middle" x="839" y="-7" font-family="Vera Sans, DejaVu Sans, Liberation Sans, Arial, Helvetica, sans" font-size="10.00" fill="#000000">pyVHDLModel.SyntaxModel.ShiftExpression</text>
</a>
</g>
</g>
<!-- pyVHDLModel.SyntaxModel.BinaryExpression&#45;&gt;pyVHDLModel.SyntaxModel.ShiftExpression -->
<g id="edge7" class="edge">
<title>pyVHDLModel.SyntaxModel.BinaryExpression&#45;&gt;pyVHDLModel.SyntaxModel.ShiftExpression</title>
<path fill="none" stroke="#000000" stroke-width=".5" d="M688.3265,-9.5C698.3147,-9.5 708.4166,-9.5 718.4104,-9.5"/>
<polygon fill="#000000" stroke="#000000" stroke-width=".5" points="718.6255,-11.2501 723.6255,-9.5 718.6255,-7.7501 718.6255,-11.2501"/>
</g>
<!-- pyVHDLModel.SyntaxModel.RotateExpression -->
<g id="node7" class="node">
<title>pyVHDLModel.SyntaxModel.RotateExpression</title>
<polygon fill="none" stroke="#000000" stroke-width=".5" points="1229,-19 990,-19 990,0 1229,0 1229,-19"/>
<text text-anchor="middle" x="1109.5" y="-7" font-family="Vera Sans, DejaVu Sans, Liberation Sans, Arial, Helvetica, sans" font-size="10.00" fill="#000000">pyVHDLModel.SyntaxModel.RotateExpression</text>
</g>
<!-- pyVHDLModel.SyntaxModel.RotateExpression&#45;&gt;pyVHDLModel.SyntaxModel.RotateRightExpression -->
<g id="edge6" class="edge">
<title>pyVHDLModel.SyntaxModel.RotateExpression&#45;&gt;pyVHDLModel.SyntaxModel.RotateRightExpression</title>
<path fill="none" stroke="#000000" stroke-width=".5" d="M1229.344,-9.5C1239.3156,-9.5 1249.4451,-9.5 1259.5333,-9.5"/>
<polygon fill="#000000" stroke="#000000" stroke-width=".5" points="1259.8039,-11.2501 1264.8039,-9.5 1259.8038,-7.7501 1259.8039,-11.2501"/>
</g>
<!-- pyVHDLModel.SyntaxModel.ShiftExpression&#45;&gt;pyVHDLModel.SyntaxModel.RotateExpression -->
<g id="edge5" class="edge">
<title>pyVHDLModel.SyntaxModel.ShiftExpression&#45;&gt;pyVHDLModel.SyntaxModel.RotateExpression</title>
<path fill="none" stroke="#000000" stroke-width=".5" d="M954.1086,-9.5C964.2417,-9.5 974.529,-9.5 984.7363,-9.5"/>
<polygon fill="#000000" stroke="#000000" stroke-width=".5" points="984.7397,-11.2501 989.7396,-9.5 984.7396,-7.7501 984.7397,-11.2501"/>
</g>
</g>
</svg>
