<?xml version="1.0" encoding="UTF-8" standalone="no"?>
<!DOCTYPE svg PUBLIC "-//W3C//DTD SVG 1.1//EN"
 "http://www.w3.org/Graphics/SVG/1.1/DTD/svg11.dtd">
<!-- Generated by graphviz version 2.40.1 (20161225.0304)
 -->
<!-- Title: inheritancea4c125b1d9 Pages: 1 -->
<svg width="576pt" height="24pt"
 viewBox="0.00 0.00 576.00 24.14" xmlns="http://www.w3.org/2000/svg" xmlns:xlink="http://www.w3.org/1999/xlink">
<g id="graph0" class="graph" transform="scale(.3772 .3772) rotate(0) translate(4 60)">
<title>inheritancea4c125b1d9</title>
<polygon fill="#ffffff" stroke="transparent" points="-4,4 -4,-60 1523,-60 1523,4 -4,4"/>
<!-- pyGHDL.dom.DOMMixin -->
<g id="node1" class="node">
<title>pyGHDL.dom.DOMMixin</title>
<g id="a_node1"><a xlink:href="../pyGHDL.dom.html#pyGHDL.dom.DOMMixin" xlink:title="pyGHDL.dom.DOMMixin" target="_top">
<polygon fill="none" stroke="#000000" stroke-width=".5" points="1192,-56 1058,-56 1058,-37 1192,-37 1192,-56"/>
<text text-anchor="middle" x="1125" y="-44" font-family="Vera Sans, DejaVu Sans, Liberation Sans, Arial, Helvetica, sans" font-size="10.00" fill="#000000">pyGHDL.dom.DOMMixin</text>
</a>
</g>
</g>
<!-- pyGHDL.dom.Expression.AdditionExpression -->
<g id="node2" class="node">
<title>pyGHDL.dom.Expression.AdditionExpression</title>
<g id="a_node2"><a xlink:href="../pyGHDL/pyGHDL.dom.Expression.html#pyGHDL.dom.Expression.AdditionExpression" xlink:title="pyGHDL.dom.Expression.AdditionExpression" target="_top">
<polygon fill="none" stroke="#000000" stroke-width=".5" points="1519,-37 1285,-37 1285,-18 1519,-18 1519,-37"/>
<text text-anchor="middle" x="1402" y="-25" font-family="Vera Sans, DejaVu Sans, Liberation Sans, Arial, Helvetica, sans" font-size="10.00" fill="#000000">pyGHDL.dom.Expression.AdditionExpression</text>
</a>
</g>
</g>
<!-- pyGHDL.dom.DOMMixin&#45;&gt;pyGHDL.dom.Expression.AdditionExpression -->
<g id="edge2" class="edge">
<title>pyGHDL.dom.DOMMixin&#45;&gt;pyGHDL.dom.Expression.AdditionExpression</title>
<path fill="none" stroke="#000000" stroke-width=".5" d="M1192.054,-41.9006C1218.3904,-40.0942 1249.4731,-37.9621 1279.5345,-35.9002"/>
<polygon fill="#000000" stroke="#000000" stroke-width=".5" points="1279.8719,-37.6312 1284.7404,-35.5431 1279.6323,-34.1394 1279.8719,-37.6312"/>
</g>
<!-- pyVHDLModel.SyntaxModel.AdditionExpression -->
<g id="node3" class="node">
<title>pyVHDLModel.SyntaxModel.AdditionExpression</title>
<polygon fill="none" stroke="#000000" stroke-width=".5" points="1249,-19 1001,-19 1001,0 1249,0 1249,-19"/>
<text text-anchor="middle" x="1125" y="-7" font-family="Vera Sans, DejaVu Sans, Liberation Sans, Arial, Helvetica, sans" font-size="10.00" fill="#000000">pyVHDLModel.SyntaxModel.AdditionExpression</text>
</g>
<!-- pyVHDLModel.SyntaxModel.AdditionExpression&#45;&gt;pyGHDL.dom.Expression.AdditionExpression -->
<g id="edge1" class="edge">
<title>pyVHDLModel.SyntaxModel.AdditionExpression&#45;&gt;pyGHDL.dom.Expression.AdditionExpression</title>
<path fill="none" stroke="#000000" stroke-width=".5" d="M1249.3205,-17.5786C1259.3635,-18.2312 1269.507,-18.8903 1279.5367,-19.5421"/>
<polygon fill="#000000" stroke="#000000" stroke-width=".5" points="1279.6672,-21.3042 1284.7702,-19.8822 1279.8942,-17.8115 1279.6672,-21.3042"/>
</g>
<!-- pyVHDLModel.ModelEntity -->
<g id="node4" class="node">
<title>pyVHDLModel.ModelEntity</title>
<g id="a_node4"><a xlink:title="``ModelEntity`` is the base class for all classes in the VHDL language model,">
<polygon fill="none" stroke="#000000" stroke-width=".5" points="146,-19 0,-19 0,0 146,0 146,-19"/>
<text text-anchor="middle" x="73" y="-7" font-family="Vera Sans, DejaVu Sans, Liberation Sans, Arial, Helvetica, sans" font-size="10.00" fill="#000000">pyVHDLModel.ModelEntity</text>
</a>
</g>
</g>
<!-- pyVHDLModel.SyntaxModel.BaseExpression -->
<g id="node7" class="node">
<title>pyVHDLModel.SyntaxModel.BaseExpression</title>
<g id="a_node7"><a xlink:title="A ``BaseExpression`` is a base&#45;class for all expressions.">
<polygon fill="none" stroke="#000000" stroke-width=".5" points="413,-19 182,-19 182,0 413,0 413,-19"/>
<text text-anchor="middle" x="297.5" y="-7" font-family="Vera Sans, DejaVu Sans, Liberation Sans, Arial, Helvetica, sans" font-size="10.00" fill="#000000">pyVHDLModel.SyntaxModel.BaseExpression</text>
</a>
</g>
</g>
<!-- pyVHDLModel.ModelEntity&#45;&gt;pyVHDLModel.SyntaxModel.BaseExpression -->
<g id="edge5" class="edge">
<title>pyVHDLModel.ModelEntity&#45;&gt;pyVHDLModel.SyntaxModel.BaseExpression</title>
<path fill="none" stroke="#000000" stroke-width=".5" d="M146.1991,-9.5C155.9857,-9.5 166.2247,-9.5 176.5627,-9.5"/>
<polygon fill="#000000" stroke="#000000" stroke-width=".5" points="176.6441,-11.2501 181.644,-9.5 176.644,-7.7501 176.6441,-11.2501"/>
</g>
<!-- pyVHDLModel.SyntaxModel.AddingExpression -->
<g id="node5" class="node">
<title>pyVHDLModel.SyntaxModel.AddingExpression</title>
<g id="a_node5"><a xlink:title="A ``AddingExpression`` is a base&#45;class for all adding expressions.">
<polygon fill="none" stroke="#000000" stroke-width=".5" points="965,-19 724,-19 724,0 965,0 965,-19"/>
<text text-anchor="middle" x="844.5" y="-7" font-family="Vera Sans, DejaVu Sans, Liberation Sans, Arial, Helvetica, sans" font-size="10.00" fill="#000000">pyVHDLModel.SyntaxModel.AddingExpression</text>
</a>
</g>
</g>
<!-- pyVHDLModel.SyntaxModel.AddingExpression&#45;&gt;pyVHDLModel.SyntaxModel.AdditionExpression -->
<g id="edge4" class="edge">
<title>pyVHDLModel.SyntaxModel.AddingExpression&#45;&gt;pyVHDLModel.SyntaxModel.AdditionExpression</title>
<path fill="none" stroke="#000000" stroke-width=".5" d="M965.0851,-9.5C975.2936,-9.5 985.6438,-9.5 995.9137,-9.5"/>
<polygon fill="#000000" stroke="#000000" stroke-width=".5" points="995.9479,-11.2501 1000.9479,-9.5 995.9479,-7.7501 995.9479,-11.2501"/>
</g>
<!-- pyVHDLModel.SyntaxModel.BinaryExpression -->
<g id="node6" class="node">
<title>pyVHDLModel.SyntaxModel.BinaryExpression</title>
<g id="a_node6"><a xlink:title="A ``BinaryExpression`` is a base&#45;class for all binary expressions.">
<polygon fill="none" stroke="#000000" stroke-width=".5" points="688,-19 449,-19 449,0 688,0 688,-19"/>
<text text-anchor="middle" x="568.5" y="-7" font-family="Vera Sans, DejaVu Sans, Liberation Sans, Arial, Helvetica, sans" font-size="10.00" fill="#000000">pyVHDLModel.SyntaxModel.BinaryExpression</text>
</a>
</g>
</g>
<!-- pyVHDLModel.SyntaxModel.BinaryExpression&#45;&gt;pyVHDLModel.SyntaxModel.AddingExpression -->
<g id="edge3" class="edge">
<title>pyVHDLModel.SyntaxModel.BinaryExpression&#45;&gt;pyVHDLModel.SyntaxModel.AddingExpression</title>
<path fill="none" stroke="#000000" stroke-width=".5" d="M688.3535,-9.5C698.388,-9.5 708.5529,-9.5 718.6307,-9.5"/>
<polygon fill="#000000" stroke="#000000" stroke-width=".5" points="718.8918,-11.2501 723.8917,-9.5 718.8917,-7.7501 718.8918,-11.2501"/>
</g>
<!-- pyVHDLModel.SyntaxModel.BaseExpression&#45;&gt;pyVHDLModel.SyntaxModel.BinaryExpression -->
<g id="edge6" class="edge">
<title>pyVHDLModel.SyntaxModel.BaseExpression&#45;&gt;pyVHDLModel.SyntaxModel.BinaryExpression</title>
<path fill="none" stroke="#000000" stroke-width=".5" d="M413.2145,-9.5C423.3522,-9.5 433.6409,-9.5 443.8471,-9.5"/>
<polygon fill="#000000" stroke="#000000" stroke-width=".5" points="443.8497,-11.2501 448.8497,-9.5 443.8496,-7.7501 443.8497,-11.2501"/>
</g>
</g>
</svg>
