<?xml version="1.0" encoding="UTF-8" standalone="no"?>
<!DOCTYPE svg PUBLIC "-//W3C//DTD SVG 1.1//EN"
 "http://www.w3.org/Graphics/SVG/1.1/DTD/svg11.dtd">
<!-- Generated by graphviz version 2.40.1 (20161225.0304)
 -->
<!-- Title: inheritancee08022425f Pages: 1 -->
<svg width="576pt" height="29pt"
 viewBox="0.00 0.00 576.00 29.40" xmlns="http://www.w3.org/2000/svg" xmlns:xlink="http://www.w3.org/1999/xlink">
<g id="graph0" class="graph" transform="scale(.4593 .4593) rotate(0) translate(4 60)">
<title>inheritancee08022425f</title>
<polygon fill="#ffffff" stroke="transparent" points="-4,4 -4,-60 1250,-60 1250,4 -4,4"/>
<!-- pyGHDL.dom.DOMMixin -->
<g id="node1" class="node">
<title>pyGHDL.dom.DOMMixin</title>
<g id="a_node1"><a xlink:href="../pyGHDL.dom.html#pyGHDL.dom.DOMMixin" xlink:title="pyGHDL.dom.DOMMixin" target="_top">
<polygon fill="none" stroke="#000000" stroke-width=".5" points="913.5,-56 779.5,-56 779.5,-37 913.5,-37 913.5,-56"/>
<text text-anchor="middle" x="846.5" y="-44" font-family="Vera Sans, DejaVu Sans, Liberation Sans, Arial, Helvetica, sans" font-size="10.00" fill="#000000">pyGHDL.dom.DOMMixin</text>
</a>
</g>
</g>
<!-- pyGHDL.dom.Expression.NegationExpression -->
<g id="node2" class="node">
<title>pyGHDL.dom.Expression.NegationExpression</title>
<g id="a_node2"><a xlink:href="../pyGHDL/pyGHDL.dom.Expression.html#pyGHDL.dom.Expression.NegationExpression" xlink:title="pyGHDL.dom.Expression.NegationExpression" target="_top">
<polygon fill="none" stroke="#000000" stroke-width=".5" points="1246,-37 1008,-37 1008,-18 1246,-18 1246,-37"/>
<text text-anchor="middle" x="1127" y="-25" font-family="Vera Sans, DejaVu Sans, Liberation Sans, Arial, Helvetica, sans" font-size="10.00" fill="#000000">pyGHDL.dom.Expression.NegationExpression</text>
</a>
</g>
</g>
<!-- pyGHDL.dom.DOMMixin&#45;&gt;pyGHDL.dom.Expression.NegationExpression -->
<g id="edge2" class="edge">
<title>pyGHDL.dom.DOMMixin&#45;&gt;pyGHDL.dom.Expression.NegationExpression</title>
<path fill="none" stroke="#000000" stroke-width=".5" d="M913.6867,-41.949C940.4225,-40.138 972.0728,-37.9942 1002.6958,-35.9199"/>
<polygon fill="#000000" stroke="#000000" stroke-width=".5" points="1003.1288,-37.6447 1007.9991,-35.5607 1002.8922,-34.1527 1003.1288,-37.6447"/>
</g>
<!-- pyVHDLModel.SyntaxModel.NegationExpression -->
<g id="node3" class="node">
<title>pyVHDLModel.SyntaxModel.NegationExpression</title>
<polygon fill="none" stroke="#000000" stroke-width=".5" points="972,-19 721,-19 721,0 972,0 972,-19"/>
<text text-anchor="middle" x="846.5" y="-7" font-family="Vera Sans, DejaVu Sans, Liberation Sans, Arial, Helvetica, sans" font-size="10.00" fill="#000000">pyVHDLModel.SyntaxModel.NegationExpression</text>
</g>
<!-- pyVHDLModel.SyntaxModel.NegationExpression&#45;&gt;pyGHDL.dom.Expression.NegationExpression -->
<g id="edge1" class="edge">
<title>pyVHDLModel.SyntaxModel.NegationExpression&#45;&gt;pyGHDL.dom.Expression.NegationExpression</title>
<path fill="none" stroke="#000000" stroke-width=".5" d="M972.3913,-17.5786C982.4372,-18.2232 992.5823,-18.8743 1002.6177,-19.5183"/>
<polygon fill="#000000" stroke="#000000" stroke-width=".5" points="1002.7527,-21.2804 1007.8545,-19.8543 1002.9769,-17.7876 1002.7527,-21.2804"/>
</g>
<!-- pyVHDLModel.ModelEntity -->
<g id="node4" class="node">
<title>pyVHDLModel.ModelEntity</title>
<g id="a_node4"><a xlink:title="``ModelEntity`` is the base class for all classes in the VHDL language model,">
<polygon fill="none" stroke="#000000" stroke-width=".5" points="146,-19 0,-19 0,0 146,0 146,-19"/>
<text text-anchor="middle" x="73" y="-7" font-family="Vera Sans, DejaVu Sans, Liberation Sans, Arial, Helvetica, sans" font-size="10.00" fill="#000000">pyVHDLModel.ModelEntity</text>
</a>
</g>
</g>
<!-- pyVHDLModel.SyntaxModel.BaseExpression -->
<g id="node5" class="node">
<title>pyVHDLModel.SyntaxModel.BaseExpression</title>
<g id="a_node5"><a xlink:title="A ``BaseExpression`` is a base&#45;class for all expressions.">
<polygon fill="none" stroke="#000000" stroke-width=".5" points="413,-19 182,-19 182,0 413,0 413,-19"/>
<text text-anchor="middle" x="297.5" y="-7" font-family="Vera Sans, DejaVu Sans, Liberation Sans, Arial, Helvetica, sans" font-size="10.00" fill="#000000">pyVHDLModel.SyntaxModel.BaseExpression</text>
</a>
</g>
</g>
<!-- pyVHDLModel.ModelEntity&#45;&gt;pyVHDLModel.SyntaxModel.BaseExpression -->
<g id="edge3" class="edge">
<title>pyVHDLModel.ModelEntity&#45;&gt;pyVHDLModel.SyntaxModel.BaseExpression</title>
<path fill="none" stroke="#000000" stroke-width=".5" d="M146.1991,-9.5C155.9857,-9.5 166.2247,-9.5 176.5627,-9.5"/>
<polygon fill="#000000" stroke="#000000" stroke-width=".5" points="176.6441,-11.2501 181.644,-9.5 176.644,-7.7501 176.6441,-11.2501"/>
</g>
<!-- pyVHDLModel.SyntaxModel.UnaryExpression -->
<g id="node6" class="node">
<title>pyVHDLModel.SyntaxModel.UnaryExpression</title>
<g id="a_node6"><a xlink:title="A ``UnaryExpression`` is a base&#45;class for all unary expressions.">
<polygon fill="none" stroke="#000000" stroke-width=".5" points="685,-19 449,-19 449,0 685,0 685,-19"/>
<text text-anchor="middle" x="567" y="-7" font-family="Vera Sans, DejaVu Sans, Liberation Sans, Arial, Helvetica, sans" font-size="10.00" fill="#000000">pyVHDLModel.SyntaxModel.UnaryExpression</text>
</a>
</g>
</g>
<!-- pyVHDLModel.SyntaxModel.BaseExpression&#45;&gt;pyVHDLModel.SyntaxModel.UnaryExpression -->
<g id="edge5" class="edge">
<title>pyVHDLModel.SyntaxModel.BaseExpression&#45;&gt;pyVHDLModel.SyntaxModel.UnaryExpression</title>
<path fill="none" stroke="#000000" stroke-width=".5" d="M413.3563,-9.5C423.3182,-9.5 433.4207,-9.5 443.4401,-9.5"/>
<polygon fill="#000000" stroke="#000000" stroke-width=".5" points="443.6709,-11.2501 448.6708,-9.5 443.6708,-7.7501 443.6709,-11.2501"/>
</g>
<!-- pyVHDLModel.SyntaxModel.UnaryExpression&#45;&gt;pyVHDLModel.SyntaxModel.NegationExpression -->
<g id="edge4" class="edge">
<title>pyVHDLModel.SyntaxModel.UnaryExpression&#45;&gt;pyVHDLModel.SyntaxModel.NegationExpression</title>
<path fill="none" stroke="#000000" stroke-width=".5" d="M685.128,-9.5C695.2429,-9.5 705.5127,-9.5 715.7184,-9.5"/>
<polygon fill="#000000" stroke="#000000" stroke-width=".5" points="715.7224,-11.2501 720.7224,-9.5 715.7224,-7.7501 715.7224,-11.2501"/>
</g>
</g>
</svg>
