<?xml version="1.0" encoding="UTF-8" standalone="no"?>
<!DOCTYPE svg PUBLIC "-//W3C//DTD SVG 1.1//EN"
 "http://www.w3.org/Graphics/SVG/1.1/DTD/svg11.dtd">
<!-- Generated by graphviz version 2.40.1 (20161225.0304)
 -->
<!-- Title: inheritance5944f6e491 Pages: 1 -->
<svg width="576pt" height="65pt"
 viewBox="0.00 0.00 576.00 64.62" xmlns="http://www.w3.org/2000/svg" xmlns:xlink="http://www.w3.org/1999/xlink">
<g id="graph0" class="graph" transform="scale(.4683 .4683) rotate(0) translate(4 134)">
<title>inheritance5944f6e491</title>
<polygon fill="#ffffff" stroke="transparent" points="-4,4 -4,-134 1226,-134 1226,4 -4,4"/>
<!-- pyGHDL.dom.Concurrent.GenerateCase -->
<g id="node1" class="node">
<title>pyGHDL.dom.Concurrent.GenerateCase</title>
<g id="a_node1"><a xlink:href="../pyGHDL/pyGHDL.dom.Concurrent.html#pyGHDL.dom.Concurrent.GenerateCase" xlink:title="pyGHDL.dom.Concurrent.GenerateCase" target="_top">
<polygon fill="none" stroke="#000000" stroke-width=".5" points="1222,-55 1013,-55 1013,-36 1222,-36 1222,-55"/>
<text text-anchor="middle" x="1117.5" y="-43" font-family="Vera Sans, DejaVu Sans, Liberation Sans, Arial, Helvetica, sans" font-size="10.00" fill="#000000">pyGHDL.dom.Concurrent.GenerateCase</text>
</a>
</g>
</g>
<!-- pyVHDLModel.SyntaxModel.GenerateCase -->
<g id="node2" class="node">
<title>pyVHDLModel.SyntaxModel.GenerateCase</title>
<polygon fill="none" stroke="#000000" stroke-width=".5" points="977,-74 754,-74 754,-55 977,-55 977,-74"/>
<text text-anchor="middle" x="865.5" y="-62" font-family="Vera Sans, DejaVu Sans, Liberation Sans, Arial, Helvetica, sans" font-size="10.00" fill="#000000">pyVHDLModel.SyntaxModel.GenerateCase</text>
</g>
<!-- pyVHDLModel.SyntaxModel.GenerateCase&#45;&gt;pyGHDL.dom.Concurrent.GenerateCase -->
<g id="edge1" class="edge">
<title>pyVHDLModel.SyntaxModel.GenerateCase&#45;&gt;pyGHDL.dom.Concurrent.GenerateCase</title>
<path fill="none" stroke="#000000" stroke-width=".5" d="M977.1314,-56.0833C987.2212,-55.3226 997.4356,-54.5525 1007.5111,-53.7928"/>
<polygon fill="#000000" stroke="#000000" stroke-width=".5" points="1007.9117,-55.5177 1012.7659,-53.3966 1007.6485,-52.0276 1007.9117,-55.5177"/>
</g>
<!-- pyGHDL.dom.DOMMixin -->
<g id="node3" class="node">
<title>pyGHDL.dom.DOMMixin</title>
<g id="a_node3"><a xlink:href="../pyGHDL.dom.html#pyGHDL.dom.DOMMixin" xlink:title="pyGHDL.dom.DOMMixin" target="_top">
<polygon fill="none" stroke="#000000" stroke-width=".5" points="932.5,-37 798.5,-37 798.5,-18 932.5,-18 932.5,-37"/>
<text text-anchor="middle" x="865.5" y="-25" font-family="Vera Sans, DejaVu Sans, Liberation Sans, Arial, Helvetica, sans" font-size="10.00" fill="#000000">pyGHDL.dom.DOMMixin</text>
</a>
</g>
</g>
<!-- pyGHDL.dom.DOMMixin&#45;&gt;pyGHDL.dom.Concurrent.GenerateCase -->
<g id="edge2" class="edge">
<title>pyGHDL.dom.DOMMixin&#45;&gt;pyGHDL.dom.Concurrent.GenerateCase</title>
<path fill="none" stroke="#000000" stroke-width=".5" d="M932.7003,-32.3C955.8011,-33.9501 982.3009,-35.8429 1007.8841,-37.6703"/>
<polygon fill="#000000" stroke="#000000" stroke-width=".5" points="1007.8752,-39.424 1012.9872,-38.0348 1008.1247,-35.9329 1007.8752,-39.424"/>
</g>
<!-- pyVHDLModel.LabeledEntity -->
<g id="node4" class="node">
<title>pyVHDLModel.LabeledEntity</title>
<g id="a_node4"><a xlink:title="A ``LabeledEntity`` is a mixin class for all VHDL entities that can have">
<polygon fill="none" stroke="#000000" stroke-width=".5" points="394,-130 239,-130 239,-111 394,-111 394,-130"/>
<text text-anchor="middle" x="316.5" y="-118" font-family="Vera Sans, DejaVu Sans, Liberation Sans, Arial, Helvetica, sans" font-size="10.00" fill="#000000">pyVHDLModel.LabeledEntity</text>
</a>
</g>
</g>
<!-- pyVHDLModel.SyntaxModel.ConcurrentCase -->
<g id="node7" class="node">
<title>pyVHDLModel.SyntaxModel.ConcurrentCase</title>
<polygon fill="none" stroke="#000000" stroke-width=".5" points="718,-74 487,-74 487,-55 718,-55 718,-74"/>
<text text-anchor="middle" x="602.5" y="-62" font-family="Vera Sans, DejaVu Sans, Liberation Sans, Arial, Helvetica, sans" font-size="10.00" fill="#000000">pyVHDLModel.SyntaxModel.ConcurrentCase</text>
</g>
<!-- pyVHDLModel.LabeledEntity&#45;&gt;pyVHDLModel.SyntaxModel.ConcurrentCase -->
<g id="edge5" class="edge">
<title>pyVHDLModel.LabeledEntity&#45;&gt;pyVHDLModel.SyntaxModel.ConcurrentCase</title>
<path fill="none" stroke="#000000" stroke-width=".5" d="M394.2659,-111.6096C412.9155,-109.0594 432.7213,-106.0039 451,-102.5 489.7703,-95.068 533.438,-83.8002 563.8956,-75.4625"/>
<polygon fill="#000000" stroke="#000000" stroke-width=".5" points="564.6885,-77.0595 569.0455,-74.0462 563.7604,-73.6848 564.6885,-77.0595"/>
</g>
<!-- pyVHDLModel.ModelEntity -->
<g id="node5" class="node">
<title>pyVHDLModel.ModelEntity</title>
<g id="a_node5"><a xlink:title="``ModelEntity`` is the base class for all classes in the VHDL language model,">
<polygon fill="none" stroke="#000000" stroke-width=".5" points="146,-93 0,-93 0,-74 146,-74 146,-93"/>
<text text-anchor="middle" x="73" y="-81" font-family="Vera Sans, DejaVu Sans, Liberation Sans, Arial, Helvetica, sans" font-size="10.00" fill="#000000">pyVHDLModel.ModelEntity</text>
</a>
</g>
</g>
<!-- pyVHDLModel.SyntaxModel.BaseCase -->
<g id="node6" class="node">
<title>pyVHDLModel.SyntaxModel.BaseCase</title>
<g id="a_node6"><a xlink:title="A ``Case`` is a base&#45;class for all cases.">
<polygon fill="none" stroke="#000000" stroke-width=".5" points="417.5,-93 215.5,-93 215.5,-74 417.5,-74 417.5,-93"/>
<text text-anchor="middle" x="316.5" y="-81" font-family="Vera Sans, DejaVu Sans, Liberation Sans, Arial, Helvetica, sans" font-size="10.00" fill="#000000">pyVHDLModel.SyntaxModel.BaseCase</text>
</a>
</g>
</g>
<!-- pyVHDLModel.ModelEntity&#45;&gt;pyVHDLModel.SyntaxModel.BaseCase -->
<g id="edge3" class="edge">
<title>pyVHDLModel.ModelEntity&#45;&gt;pyVHDLModel.SyntaxModel.BaseCase</title>
<path fill="none" stroke="#000000" stroke-width=".5" d="M146.058,-83.5C166.1599,-83.5 188.3821,-83.5 209.9571,-83.5"/>
<polygon fill="#000000" stroke="#000000" stroke-width=".5" points="210.1322,-85.2501 215.1321,-83.5 210.1321,-81.7501 210.1322,-85.2501"/>
</g>
<!-- pyVHDLModel.SyntaxModel.BaseCase&#45;&gt;pyVHDLModel.SyntaxModel.ConcurrentCase -->
<g id="edge4" class="edge">
<title>pyVHDLModel.SyntaxModel.BaseCase&#45;&gt;pyVHDLModel.SyntaxModel.ConcurrentCase</title>
<path fill="none" stroke="#000000" stroke-width=".5" d="M417.7354,-76.7746C438.4136,-75.4008 460.3689,-73.9423 481.6532,-72.5283"/>
<polygon fill="#000000" stroke="#000000" stroke-width=".5" points="481.8853,-74.2668 486.7582,-72.1891 481.6532,-70.7745 481.8853,-74.2668"/>
</g>
<!-- pyVHDLModel.SyntaxModel.ConcurrentCase&#45;&gt;pyVHDLModel.SyntaxModel.GenerateCase -->
<g id="edge8" class="edge">
<title>pyVHDLModel.SyntaxModel.ConcurrentCase&#45;&gt;pyVHDLModel.SyntaxModel.GenerateCase</title>
<path fill="none" stroke="#000000" stroke-width=".5" d="M718.2384,-64.5C728.3309,-64.5 738.5492,-64.5 748.6506,-64.5"/>
<polygon fill="#000000" stroke="#000000" stroke-width=".5" points="748.9212,-66.2501 753.9211,-64.5 748.9211,-62.7501 748.9212,-66.2501"/>
</g>
<!-- pyVHDLModel.SyntaxModel.ConcurrentDeclarations -->
<g id="node8" class="node">
<title>pyVHDLModel.SyntaxModel.ConcurrentDeclarations</title>
<polygon fill="none" stroke="#000000" stroke-width=".5" points="451,-56 182,-56 182,-37 451,-37 451,-56"/>
<text text-anchor="middle" x="316.5" y="-44" font-family="Vera Sans, DejaVu Sans, Liberation Sans, Arial, Helvetica, sans" font-size="10.00" fill="#000000">pyVHDLModel.SyntaxModel.ConcurrentDeclarations</text>
</g>
<!-- pyVHDLModel.SyntaxModel.ConcurrentDeclarations&#45;&gt;pyVHDLModel.SyntaxModel.ConcurrentCase -->
<g id="edge6" class="edge">
<title>pyVHDLModel.SyntaxModel.ConcurrentDeclarations&#45;&gt;pyVHDLModel.SyntaxModel.ConcurrentCase</title>
<path fill="none" stroke="#000000" stroke-width=".5" d="M451.1254,-54.9729C461.2422,-55.6096 471.4151,-56.2499 481.4407,-56.8809"/>
<polygon fill="#000000" stroke="#000000" stroke-width=".5" points="481.5688,-58.6423 486.6689,-57.2099 481.7887,-55.1492 481.5688,-58.6423"/>
</g>
<!-- pyVHDLModel.SyntaxModel.ConcurrentStatements -->
<g id="node9" class="node">
<title>pyVHDLModel.SyntaxModel.ConcurrentStatements</title>
<polygon fill="none" stroke="#000000" stroke-width=".5" points="448,-19 185,-19 185,0 448,0 448,-19"/>
<text text-anchor="middle" x="316.5" y="-7" font-family="Vera Sans, DejaVu Sans, Liberation Sans, Arial, Helvetica, sans" font-size="10.00" fill="#000000">pyVHDLModel.SyntaxModel.ConcurrentStatements</text>
</g>
<!-- pyVHDLModel.SyntaxModel.ConcurrentStatements&#45;&gt;pyVHDLModel.SyntaxModel.ConcurrentCase -->
<g id="edge7" class="edge">
<title>pyVHDLModel.SyntaxModel.ConcurrentStatements&#45;&gt;pyVHDLModel.SyntaxModel.ConcurrentCase</title>
<path fill="none" stroke="#000000" stroke-width=".5" d="M398.1616,-19.0111C415.6516,-21.4436 433.9838,-24.2929 451,-27.5 489.3562,-34.7291 532.556,-45.5495 562.981,-53.6241"/>
<polygon fill="#000000" stroke="#000000" stroke-width=".5" points="562.8476,-55.3996 568.1297,-54.9966 563.7492,-52.0177 562.8476,-55.3996"/>
</g>
</g>
</svg>
