<?xml version="1.0" encoding="UTF-8" standalone="no"?>
<!DOCTYPE svg PUBLIC "-//W3C//DTD SVG 1.1//EN"
 "http://www.w3.org/Graphics/SVG/1.1/DTD/svg11.dtd">
<!-- Generated by graphviz version 2.40.1 (20161225.0304)
 -->
<!-- Title: inheritance72c1710d0b Pages: 1 -->
<svg width="576pt" height="39pt"
 viewBox="0.00 0.00 576.00 39.00" xmlns="http://www.w3.org/2000/svg" xmlns:xlink="http://www.w3.org/1999/xlink">
<g id="graph0" class="graph" transform="scale(.4698 .4698) rotate(0) translate(4 79)">
<title>inheritance72c1710d0b</title>
<polygon fill="#ffffff" stroke="transparent" points="-4,4 -4,-79 1222,-79 1222,4 -4,4"/>
<!-- pyGHDL.dom.DOMMixin -->
<g id="node1" class="node">
<title>pyGHDL.dom.DOMMixin</title>
<g id="a_node1"><a xlink:href="../pyGHDL.dom.html#pyGHDL.dom.DOMMixin" xlink:title="pyGHDL.dom.DOMMixin" target="_top">
<polygon fill="none" stroke="#000000" stroke-width=".5" points="878,-74 744,-74 744,-55 878,-55 878,-74"/>
<text text-anchor="middle" x="811" y="-62" font-family="Vera Sans, DejaVu Sans, Liberation Sans, Arial, Helvetica, sans" font-size="10.00" fill="#000000">pyGHDL.dom.DOMMixin</text>
</a>
</g>
</g>
<!-- pyGHDL.dom.DesignUnit.PackageInstantiation -->
<g id="node2" class="node">
<title>pyGHDL.dom.DesignUnit.PackageInstantiation</title>
<g id="a_node2"><a xlink:href="../pyGHDL/pyGHDL.dom.DesignUnit.html#pyGHDL.dom.DesignUnit.PackageInstantiation" xlink:title="pyGHDL.dom.DesignUnit.PackageInstantiation" target="_top">
<polygon fill="none" stroke="#000000" stroke-width=".5" points="1218,-55 975,-55 975,-36 1218,-36 1218,-55"/>
<text text-anchor="middle" x="1096.5" y="-43" font-family="Vera Sans, DejaVu Sans, Liberation Sans, Arial, Helvetica, sans" font-size="10.00" fill="#000000">pyGHDL.dom.DesignUnit.PackageInstantiation</text>
</a>
</g>
</g>
<!-- pyGHDL.dom.DOMMixin&#45;&gt;pyGHDL.dom.DesignUnit.PackageInstantiation -->
<g id="edge2" class="edge">
<title>pyGHDL.dom.DOMMixin&#45;&gt;pyGHDL.dom.DesignUnit.PackageInstantiation</title>
<path fill="none" stroke="#000000" stroke-width=".5" d="M878.298,-60.0213C905.6828,-58.1989 938.2663,-56.0304 969.7928,-53.9324"/>
<polygon fill="#000000" stroke="#000000" stroke-width=".5" points="969.9698,-55.6745 974.8425,-53.5963 969.7373,-52.1823 969.9698,-55.6745"/>
</g>
<!-- pyVHDLModel.SyntaxModel.PackageInstantiation -->
<g id="node3" class="node">
<title>pyVHDLModel.SyntaxModel.PackageInstantiation</title>
<polygon fill="none" stroke="#000000" stroke-width=".5" points="939,-37 683,-37 683,-18 939,-18 939,-37"/>
<text text-anchor="middle" x="811" y="-25" font-family="Vera Sans, DejaVu Sans, Liberation Sans, Arial, Helvetica, sans" font-size="10.00" fill="#000000">pyVHDLModel.SyntaxModel.PackageInstantiation</text>
</g>
<!-- pyVHDLModel.SyntaxModel.PackageInstantiation&#45;&gt;pyGHDL.dom.DesignUnit.PackageInstantiation -->
<g id="edge1" class="edge">
<title>pyVHDLModel.SyntaxModel.PackageInstantiation&#45;&gt;pyGHDL.dom.DesignUnit.PackageInstantiation</title>
<path fill="none" stroke="#000000" stroke-width=".5" d="M939.1353,-35.5786C949.2341,-36.2153 959.4314,-36.8582 969.5222,-37.4944"/>
<polygon fill="#000000" stroke="#000000" stroke-width=".5" points="969.6881,-39.2582 974.7883,-37.8264 969.9084,-35.7652 969.6881,-39.2582"/>
</g>
<!-- pyVHDLModel.DesignUnit -->
<g id="node4" class="node">
<title>pyVHDLModel.DesignUnit</title>
<g id="a_node4"><a xlink:title="A ``DesignUnit`` is a base&#45;class for all design units.">
<polygon fill="none" stroke="#000000" stroke-width=".5" points="330,-56 188,-56 188,-37 330,-37 330,-56"/>
<text text-anchor="middle" x="259" y="-44" font-family="Vera Sans, DejaVu Sans, Liberation Sans, Arial, Helvetica, sans" font-size="10.00" fill="#000000">pyVHDLModel.DesignUnit</text>
</a>
</g>
</g>
<!-- pyVHDLModel.PrimaryUnit -->
<g id="node7" class="node">
<title>pyVHDLModel.PrimaryUnit</title>
<g id="a_node7"><a xlink:title="A ``PrimaryUnit`` is a base&#45;class for all primary units.">
<polygon fill="none" stroke="#000000" stroke-width=".5" points="579.5,-56 433.5,-56 433.5,-37 579.5,-37 579.5,-56"/>
<text text-anchor="middle" x="506.5" y="-44" font-family="Vera Sans, DejaVu Sans, Liberation Sans, Arial, Helvetica, sans" font-size="10.00" fill="#000000">pyVHDLModel.PrimaryUnit</text>
</a>
</g>
</g>
<!-- pyVHDLModel.DesignUnit&#45;&gt;pyVHDLModel.PrimaryUnit -->
<g id="edge5" class="edge">
<title>pyVHDLModel.DesignUnit&#45;&gt;pyVHDLModel.PrimaryUnit</title>
<path fill="none" stroke="#000000" stroke-width=".5" d="M330.2552,-46.5C360.7643,-46.5 396.4987,-46.5 427.7859,-46.5"/>
<polygon fill="#000000" stroke="#000000" stroke-width=".5" points="428.1694,-48.2501 433.1694,-46.5 428.1693,-44.7501 428.1694,-48.2501"/>
</g>
<!-- pyVHDLModel.ModelEntity -->
<g id="node5" class="node">
<title>pyVHDLModel.ModelEntity</title>
<g id="a_node5"><a xlink:title="``ModelEntity`` is the base class for all classes in the VHDL language model,">
<polygon fill="none" stroke="#000000" stroke-width=".5" points="149,-75 3,-75 3,-56 149,-56 149,-75"/>
<text text-anchor="middle" x="76" y="-63" font-family="Vera Sans, DejaVu Sans, Liberation Sans, Arial, Helvetica, sans" font-size="10.00" fill="#000000">pyVHDLModel.ModelEntity</text>
</a>
</g>
</g>
<!-- pyVHDLModel.ModelEntity&#45;&gt;pyVHDLModel.DesignUnit -->
<g id="edge3" class="edge">
<title>pyVHDLModel.ModelEntity&#45;&gt;pyVHDLModel.DesignUnit</title>
<path fill="none" stroke="#000000" stroke-width=".5" d="M149.1154,-57.9088C160.1661,-56.7614 171.59,-55.5754 182.7058,-54.4213"/>
<polygon fill="#000000" stroke="#000000" stroke-width=".5" points="182.9964,-56.1506 187.789,-53.8935 182.6349,-52.6693 182.9964,-56.1506"/>
</g>
<!-- pyVHDLModel.NamedEntity -->
<g id="node6" class="node">
<title>pyVHDLModel.NamedEntity</title>
<g id="a_node6"><a xlink:title="A ``NamedEntity`` is a mixin class for all VHDL entities that have identifiers.">
<polygon fill="none" stroke="#000000" stroke-width=".5" points="152,-38 0,-38 0,-19 152,-19 152,-38"/>
<text text-anchor="middle" x="76" y="-26" font-family="Vera Sans, DejaVu Sans, Liberation Sans, Arial, Helvetica, sans" font-size="10.00" fill="#000000">pyVHDLModel.NamedEntity</text>
</a>
</g>
</g>
<!-- pyVHDLModel.NamedEntity&#45;&gt;pyVHDLModel.DesignUnit -->
<g id="edge4" class="edge">
<title>pyVHDLModel.NamedEntity&#45;&gt;pyVHDLModel.DesignUnit</title>
<path fill="none" stroke="#000000" stroke-width=".5" d="M152.0187,-35.9772C162.23,-36.9816 172.7064,-38.0121 182.9189,-39.0166"/>
<polygon fill="#000000" stroke="#000000" stroke-width=".5" points="182.7614,-40.7595 187.9087,-39.5074 183.1041,-37.2763 182.7614,-40.7595"/>
</g>
<!-- pyVHDLModel.PrimaryUnit&#45;&gt;pyVHDLModel.SyntaxModel.PackageInstantiation -->
<g id="edge6" class="edge">
<title>pyVHDLModel.PrimaryUnit&#45;&gt;pyVHDLModel.SyntaxModel.PackageInstantiation</title>
<path fill="none" stroke="#000000" stroke-width=".5" d="M579.8228,-41.9248C609.1388,-40.0956 643.8511,-37.9297 677.3447,-35.8397"/>
<polygon fill="#000000" stroke="#000000" stroke-width=".5" points="677.8275,-37.5631 682.7088,-35.505 677.6095,-34.0699 677.8275,-37.5631"/>
</g>
<!-- pyVHDLModel.SyntaxModel.GenericEntityInstantiation -->
<g id="node8" class="node">
<title>pyVHDLModel.SyntaxModel.GenericEntityInstantiation</title>
<polygon fill="none" stroke="#000000" stroke-width=".5" points="647,-19 366,-19 366,0 647,0 647,-19"/>
<text text-anchor="middle" x="506.5" y="-7" font-family="Vera Sans, DejaVu Sans, Liberation Sans, Arial, Helvetica, sans" font-size="10.00" fill="#000000">pyVHDLModel.SyntaxModel.GenericEntityInstantiation</text>
</g>
<!-- pyVHDLModel.SyntaxModel.GenericEntityInstantiation&#45;&gt;pyVHDLModel.SyntaxModel.PackageInstantiation -->
<g id="edge7" class="edge">
<title>pyVHDLModel.SyntaxModel.GenericEntityInstantiation&#45;&gt;pyVHDLModel.SyntaxModel.PackageInstantiation</title>
<path fill="none" stroke="#000000" stroke-width=".5" d="M647.1628,-17.815C657.2479,-18.4112 667.4011,-19.0114 677.4442,-19.6051"/>
<polygon fill="#000000" stroke="#000000" stroke-width=".5" points="677.5905,-21.3667 682.6851,-19.9149 677.7971,-17.8728 677.5905,-21.3667"/>
</g>
</g>
</svg>
