<?xml version="1.0" encoding="UTF-8" standalone="no"?>
<!DOCTYPE svg PUBLIC "-//W3C//DTD SVG 1.1//EN"
 "http://www.w3.org/Graphics/SVG/1.1/DTD/svg11.dtd">
<!-- Generated by graphviz version 2.40.1 (20161225.0304)
 -->
<!-- Title: inheritance72bd48b9e8 Pages: 1 -->
<svg width="576pt" height="53pt"
 viewBox="0.00 0.00 576.00 52.71" xmlns="http://www.w3.org/2000/svg" xmlns:xlink="http://www.w3.org/1999/xlink">
<g id="graph0" class="graph" transform="scale(.6429 .6429) rotate(0) translate(4 78)">
<title>inheritance72bd48b9e8</title>
<polygon fill="#ffffff" stroke="transparent" points="-4,4 -4,-78 892,-78 892,4 -4,4"/>
<!-- pyGHDL.dom.DOMMixin -->
<g id="node1" class="node">
<title>pyGHDL.dom.DOMMixin</title>
<g id="a_node1"><a xlink:href="../pyGHDL.dom.html#pyGHDL.dom.DOMMixin" xlink:title="pyGHDL.dom.DOMMixin" target="_top">
<polygon fill="none" stroke="#000000" stroke-width=".5" points="613.5,-74 479.5,-74 479.5,-55 613.5,-55 613.5,-74"/>
<text text-anchor="middle" x="546.5" y="-62" font-family="Vera Sans, DejaVu Sans, Liberation Sans, Arial, Helvetica, sans" font-size="10.00" fill="#000000">pyGHDL.dom.DOMMixin</text>
</a>
</g>
</g>
<!-- pyGHDL.dom.Object.SharedVariable -->
<g id="node2" class="node">
<title>pyGHDL.dom.Object.SharedVariable</title>
<g id="a_node2"><a xlink:href="../pyGHDL/pyGHDL.dom.Object.html#pyGHDL.dom.Object.SharedVariable" xlink:title="pyGHDL.dom.Object.SharedVariable" target="_top">
<polygon fill="none" stroke="#000000" stroke-width=".5" points="888,-55 696,-55 696,-36 888,-36 888,-55"/>
<text text-anchor="middle" x="792" y="-43" font-family="Vera Sans, DejaVu Sans, Liberation Sans, Arial, Helvetica, sans" font-size="10.00" fill="#000000">pyGHDL.dom.Object.SharedVariable</text>
</a>
</g>
</g>
<!-- pyGHDL.dom.DOMMixin&#45;&gt;pyGHDL.dom.Object.SharedVariable -->
<g id="edge2" class="edge">
<title>pyGHDL.dom.DOMMixin&#45;&gt;pyGHDL.dom.Object.SharedVariable</title>
<path fill="none" stroke="#000000" stroke-width=".5" d="M613.584,-59.3082C637.275,-57.4746 664.4758,-55.3695 690.3819,-53.3645"/>
<polygon fill="#000000" stroke="#000000" stroke-width=".5" points="690.6944,-55.0957 695.5445,-52.965 690.4243,-51.6061 690.6944,-55.0957"/>
</g>
<!-- pyVHDLModel.SyntaxModel.SharedVariable -->
<g id="node3" class="node">
<title>pyVHDLModel.SyntaxModel.SharedVariable</title>
<polygon fill="none" stroke="#000000" stroke-width=".5" points="660,-37 433,-37 433,-18 660,-18 660,-37"/>
<text text-anchor="middle" x="546.5" y="-25" font-family="Vera Sans, DejaVu Sans, Liberation Sans, Arial, Helvetica, sans" font-size="10.00" fill="#000000">pyVHDLModel.SyntaxModel.SharedVariable</text>
</g>
<!-- pyVHDLModel.SyntaxModel.SharedVariable&#45;&gt;pyGHDL.dom.Object.SharedVariable -->
<g id="edge1" class="edge">
<title>pyVHDLModel.SyntaxModel.SharedVariable&#45;&gt;pyGHDL.dom.Object.SharedVariable</title>
<path fill="none" stroke="#000000" stroke-width=".5" d="M660.2667,-35.8413C670.4135,-36.5853 680.6426,-37.3353 690.6747,-38.0709"/>
<polygon fill="#000000" stroke="#000000" stroke-width=".5" points="690.7867,-39.8337 695.9014,-38.4541 691.0427,-36.343 690.7867,-39.8337"/>
</g>
<!-- pyVHDLModel.ModelEntity -->
<g id="node4" class="node">
<title>pyVHDLModel.ModelEntity</title>
<g id="a_node4"><a xlink:title="``ModelEntity`` is the base class for all classes in the VHDL language model,">
<polygon fill="none" stroke="#000000" stroke-width=".5" points="168.5,-56 22.5,-56 22.5,-37 168.5,-37 168.5,-56"/>
<text text-anchor="middle" x="95.5" y="-44" font-family="Vera Sans, DejaVu Sans, Liberation Sans, Arial, Helvetica, sans" font-size="10.00" fill="#000000">pyVHDLModel.ModelEntity</text>
</a>
</g>
</g>
<!-- pyVHDLModel.SyntaxModel.Obj -->
<g id="node6" class="node">
<title>pyVHDLModel.SyntaxModel.Obj</title>
<polygon fill="none" stroke="#000000" stroke-width=".5" points="397,-37 227,-37 227,-18 397,-18 397,-37"/>
<text text-anchor="middle" x="312" y="-25" font-family="Vera Sans, DejaVu Sans, Liberation Sans, Arial, Helvetica, sans" font-size="10.00" fill="#000000">pyVHDLModel.SyntaxModel.Obj</text>
</g>
<!-- pyVHDLModel.ModelEntity&#45;&gt;pyVHDLModel.SyntaxModel.Obj -->
<g id="edge3" class="edge">
<title>pyVHDLModel.ModelEntity&#45;&gt;pyVHDLModel.SyntaxModel.Obj</title>
<path fill="none" stroke="#000000" stroke-width=".5" d="M168.797,-40.0675C185.6952,-38.5845 203.8663,-36.9898 221.4022,-35.4508"/>
<polygon fill="#000000" stroke="#000000" stroke-width=".5" points="221.9941,-37.1557 226.8219,-34.9752 221.688,-33.6691 221.9941,-37.1557"/>
</g>
<!-- pyVHDLModel.MultipleNamedEntity -->
<g id="node5" class="node">
<title>pyVHDLModel.MultipleNamedEntity</title>
<g id="a_node5"><a xlink:title="A ``MultipleNamedEntity`` is a mixin class for all VHDL entities that declare">
<polygon fill="none" stroke="#000000" stroke-width=".5" points="191,-19 0,-19 0,0 191,0 191,-19"/>
<text text-anchor="middle" x="95.5" y="-7" font-family="Vera Sans, DejaVu Sans, Liberation Sans, Arial, Helvetica, sans" font-size="10.00" fill="#000000">pyVHDLModel.MultipleNamedEntity</text>
</a>
</g>
</g>
<!-- pyVHDLModel.MultipleNamedEntity&#45;&gt;pyVHDLModel.SyntaxModel.Obj -->
<g id="edge4" class="edge">
<title>pyVHDLModel.MultipleNamedEntity&#45;&gt;pyVHDLModel.SyntaxModel.Obj</title>
<path fill="none" stroke="#000000" stroke-width=".5" d="M191.0903,-17.4475C201.2187,-18.2895 211.4971,-19.1441 221.5641,-19.9811"/>
<polygon fill="#000000" stroke="#000000" stroke-width=".5" points="221.6795,-21.7466 226.8074,-20.417 221.9696,-18.2587 221.6795,-21.7466"/>
</g>
<!-- pyVHDLModel.SyntaxModel.Obj&#45;&gt;pyVHDLModel.SyntaxModel.SharedVariable -->
<g id="edge5" class="edge">
<title>pyVHDLModel.SyntaxModel.Obj&#45;&gt;pyVHDLModel.SyntaxModel.SharedVariable</title>
<path fill="none" stroke="#000000" stroke-width=".5" d="M397.3232,-27.5C407.2268,-27.5 417.4593,-27.5 427.7075,-27.5"/>
<polygon fill="#000000" stroke="#000000" stroke-width=".5" points="427.7383,-29.2501 432.7383,-27.5 427.7382,-25.7501 427.7383,-29.2501"/>
</g>
</g>
</svg>
