<?xml version="1.0" encoding="UTF-8" standalone="no"?>
<!DOCTYPE svg PUBLIC "-//W3C//DTD SVG 1.1//EN"
 "http://www.w3.org/Graphics/SVG/1.1/DTD/svg11.dtd">
<!-- Generated by graphviz version 2.40.1 (20161225.0304)
 -->
<!-- Title: inheritancee603800447 Pages: 1 -->
<svg width="576pt" height="43pt"
 viewBox="0.00 0.00 576.00 43.11" xmlns="http://www.w3.org/2000/svg" xmlns:xlink="http://www.w3.org/1999/xlink">
<g id="graph0" class="graph" transform="scale(.4311 .4311) rotate(0) translate(4 96)">
<title>inheritancee603800447</title>
<polygon fill="#ffffff" stroke="transparent" points="-4,4 -4,-96 1332,-96 1332,4 -4,4"/>
<!-- pyGHDL.dom.DOMMixin -->
<g id="node1" class="node">
<title>pyGHDL.dom.DOMMixin</title>
<g id="a_node1"><a xlink:href="../pyGHDL.dom.html#pyGHDL.dom.DOMMixin" xlink:title="pyGHDL.dom.DOMMixin" target="_top">
<polygon fill="none" stroke="#000000" stroke-width=".5" points="942,-92 808,-92 808,-73 942,-73 942,-92"/>
<text text-anchor="middle" x="875" y="-80" font-family="Vera Sans, DejaVu Sans, Liberation Sans, Arial, Helvetica, sans" font-size="10.00" fill="#000000">pyGHDL.dom.DOMMixin</text>
</a>
</g>
</g>
<!-- pyGHDL.dom.Sequential.SequentialReportStatement -->
<g id="node2" class="node">
<title>pyGHDL.dom.Sequential.SequentialReportStatement</title>
<g id="a_node2"><a xlink:href="../pyGHDL/pyGHDL.dom.Sequential.html#pyGHDL.dom.Sequential.SequentialReportStatement" xlink:title="pyGHDL.dom.Sequential.SequentialReportStatement" target="_top">
<polygon fill="none" stroke="#000000" stroke-width=".5" points="1328,-73 1055,-73 1055,-54 1328,-54 1328,-73"/>
<text text-anchor="middle" x="1191.5" y="-61" font-family="Vera Sans, DejaVu Sans, Liberation Sans, Arial, Helvetica, sans" font-size="10.00" fill="#000000">pyGHDL.dom.Sequential.SequentialReportStatement</text>
</a>
</g>
</g>
<!-- pyGHDL.dom.DOMMixin&#45;&gt;pyGHDL.dom.Sequential.SequentialReportStatement -->
<g id="edge2" class="edge">
<title>pyGHDL.dom.DOMMixin&#45;&gt;pyGHDL.dom.Sequential.SequentialReportStatement</title>
<path fill="none" stroke="#000000" stroke-width=".5" d="M942.1215,-78.4706C973.5539,-76.5837 1012.2624,-74.2599 1049.7258,-72.0109"/>
<polygon fill="#000000" stroke="#000000" stroke-width=".5" points="1049.8775,-73.7551 1054.7636,-71.7085 1049.6677,-70.2614 1049.8775,-73.7551"/>
</g>
<!-- pyVHDLModel.SyntaxModel.SequentialReportStatement -->
<g id="node3" class="node">
<title>pyVHDLModel.SyntaxModel.SequentialReportStatement</title>
<polygon fill="none" stroke="#000000" stroke-width=".5" points="1019,-55 731,-55 731,-36 1019,-36 1019,-55"/>
<text text-anchor="middle" x="875" y="-43" font-family="Vera Sans, DejaVu Sans, Liberation Sans, Arial, Helvetica, sans" font-size="10.00" fill="#000000">pyVHDLModel.SyntaxModel.SequentialReportStatement</text>
</g>
<!-- pyVHDLModel.SyntaxModel.SequentialReportStatement&#45;&gt;pyGHDL.dom.Sequential.SequentialReportStatement -->
<g id="edge1" class="edge">
<title>pyVHDLModel.SyntaxModel.SequentialReportStatement&#45;&gt;pyGHDL.dom.Sequential.SequentialReportStatement</title>
<path fill="none" stroke="#000000" stroke-width=".5" d="M1019.3572,-53.7099C1029.3533,-54.2784 1039.4238,-54.8511 1049.4077,-55.4189"/>
<polygon fill="#000000" stroke="#000000" stroke-width=".5" points="1049.5285,-57.1785 1054.6199,-55.7153 1049.7273,-53.6842 1049.5285,-57.1785"/>
</g>
<!-- pyVHDLModel.LabeledEntity -->
<g id="node4" class="node">
<title>pyVHDLModel.LabeledEntity</title>
<g id="a_node4"><a xlink:title="A ``LabeledEntity`` is a mixin class for all VHDL entities that can have">
<polygon fill="none" stroke="#000000" stroke-width=".5" points="155,-56 0,-56 0,-37 155,-37 155,-56"/>
<text text-anchor="middle" x="77.5" y="-44" font-family="Vera Sans, DejaVu Sans, Liberation Sans, Arial, Helvetica, sans" font-size="10.00" fill="#000000">pyVHDLModel.LabeledEntity</text>
</a>
</g>
</g>
<!-- pyVHDLModel.SyntaxModel.Statement -->
<g id="node8" class="node">
<title>pyVHDLModel.SyntaxModel.Statement</title>
<polygon fill="none" stroke="#000000" stroke-width=".5" points="396,-37 191,-37 191,-18 396,-18 396,-37"/>
<text text-anchor="middle" x="293.5" y="-25" font-family="Vera Sans, DejaVu Sans, Liberation Sans, Arial, Helvetica, sans" font-size="10.00" fill="#000000">pyVHDLModel.SyntaxModel.Statement</text>
</g>
<!-- pyVHDLModel.LabeledEntity&#45;&gt;pyVHDLModel.SyntaxModel.Statement -->
<g id="edge7" class="edge">
<title>pyVHDLModel.LabeledEntity&#45;&gt;pyVHDLModel.SyntaxModel.Statement</title>
<path fill="none" stroke="#000000" stroke-width=".5" d="M155.1758,-39.6674C165.154,-38.7897 175.5079,-37.8789 185.8575,-36.9686"/>
<polygon fill="#000000" stroke="#000000" stroke-width=".5" points="186.1088,-38.7033 190.9362,-36.5218 185.802,-35.2168 186.1088,-38.7033"/>
</g>
<!-- pyVHDLModel.ModelEntity -->
<g id="node5" class="node">
<title>pyVHDLModel.ModelEntity</title>
<g id="a_node5"><a xlink:title="``ModelEntity`` is the base class for all classes in the VHDL language model,">
<polygon fill="none" stroke="#000000" stroke-width=".5" points="150.5,-19 4.5,-19 4.5,0 150.5,0 150.5,-19"/>
<text text-anchor="middle" x="77.5" y="-7" font-family="Vera Sans, DejaVu Sans, Liberation Sans, Arial, Helvetica, sans" font-size="10.00" fill="#000000">pyVHDLModel.ModelEntity</text>
</a>
</g>
</g>
<!-- pyVHDLModel.ModelEntity&#45;&gt;pyVHDLModel.SyntaxModel.Statement -->
<g id="edge6" class="edge">
<title>pyVHDLModel.ModelEntity&#45;&gt;pyVHDLModel.SyntaxModel.Statement</title>
<path fill="none" stroke="#000000" stroke-width=".5" d="M150.6277,-15.594C161.9793,-16.5399 173.9067,-17.5339 185.8288,-18.5274"/>
<polygon fill="#000000" stroke="#000000" stroke-width=".5" points="185.8081,-20.2817 190.9362,-18.953 186.0988,-16.7937 185.8081,-20.2817"/>
</g>
<!-- pyVHDLModel.SyntaxModel.MixinReportStatement -->
<g id="node6" class="node">
<title>pyVHDLModel.SyntaxModel.MixinReportStatement</title>
<g id="a_node6"><a xlink:title="A ``MixinReportStatement`` is a mixin&#45;class for all report and assert statements.">
<polygon fill="none" stroke="#000000" stroke-width=".5" points="695,-74 432,-74 432,-55 695,-55 695,-74"/>
<text text-anchor="middle" x="563.5" y="-62" font-family="Vera Sans, DejaVu Sans, Liberation Sans, Arial, Helvetica, sans" font-size="10.00" fill="#000000">pyVHDLModel.SyntaxModel.MixinReportStatement</text>
</a>
</g>
</g>
<!-- pyVHDLModel.SyntaxModel.MixinReportStatement&#45;&gt;pyVHDLModel.SyntaxModel.SequentialReportStatement -->
<g id="edge4" class="edge">
<title>pyVHDLModel.SyntaxModel.MixinReportStatement&#45;&gt;pyVHDLModel.SyntaxModel.SequentialReportStatement</title>
<path fill="none" stroke="#000000" stroke-width=".5" d="M695.1525,-56.4698C705.2839,-55.8519 715.5547,-55.2254 725.7878,-54.6012"/>
<polygon fill="#000000" stroke="#000000" stroke-width=".5" points="725.9234,-56.3463 730.8075,-54.295 725.7102,-52.8528 725.9234,-56.3463"/>
</g>
<!-- pyVHDLModel.SyntaxModel.SequentialStatement -->
<g id="node7" class="node">
<title>pyVHDLModel.SyntaxModel.SequentialStatement</title>
<g id="a_node7"><a xlink:title="A ``SequentialStatement`` is a base&#45;class for all sequential statements.">
<polygon fill="none" stroke="#000000" stroke-width=".5" points="692,-37 435,-37 435,-18 692,-18 692,-37"/>
<text text-anchor="middle" x="563.5" y="-25" font-family="Vera Sans, DejaVu Sans, Liberation Sans, Arial, Helvetica, sans" font-size="10.00" fill="#000000">pyVHDLModel.SyntaxModel.SequentialStatement</text>
</a>
</g>
</g>
<!-- pyVHDLModel.SyntaxModel.SequentialStatement&#45;&gt;pyVHDLModel.SyntaxModel.SequentialReportStatement -->
<g id="edge3" class="edge">
<title>pyVHDLModel.SyntaxModel.SequentialStatement&#45;&gt;pyVHDLModel.SyntaxModel.SequentialReportStatement</title>
<path fill="none" stroke="#000000" stroke-width=".5" d="M692.4475,-34.9512C703.4785,-35.5886 714.6945,-36.2368 725.865,-36.8822"/>
<polygon fill="#000000" stroke="#000000" stroke-width=".5" points="725.9007,-38.6371 730.9933,-37.1786 726.1027,-35.143 725.9007,-38.6371"/>
</g>
<!-- pyVHDLModel.SyntaxModel.Statement&#45;&gt;pyVHDLModel.SyntaxModel.SequentialStatement -->
<g id="edge5" class="edge">
<title>pyVHDLModel.SyntaxModel.Statement&#45;&gt;pyVHDLModel.SyntaxModel.SequentialStatement</title>
<path fill="none" stroke="#000000" stroke-width=".5" d="M396.3457,-27.5C407.2013,-27.5 418.3516,-27.5 429.4928,-27.5"/>
<polygon fill="#000000" stroke="#000000" stroke-width=".5" points="429.61,-29.2501 434.61,-27.5 429.6099,-25.7501 429.61,-29.2501"/>
</g>
</g>
</svg>
