<?xml version="1.0" encoding="UTF-8" standalone="no"?>
<!DOCTYPE svg PUBLIC "-//W3C//DTD SVG 1.1//EN"
 "http://www.w3.org/Graphics/SVG/1.1/DTD/svg11.dtd">
<!-- Generated by graphviz version 2.40.1 (20161225.0304)
 -->
<!-- Title: inheritance8544303aee Pages: 1 -->
<svg width="576pt" height="18pt"
 viewBox="0.00 0.00 576.00 18.37" xmlns="http://www.w3.org/2000/svg" xmlns:xlink="http://www.w3.org/1999/xlink">
<g id="graph0" class="graph" transform="scale(.287 .287) rotate(0) translate(4 60)">
<title>inheritance8544303aee</title>
<polygon fill="#ffffff" stroke="transparent" points="-4,4 -4,-60 2003,-60 2003,4 -4,4"/>
<!-- pyGHDL.dom.DOMMixin -->
<g id="node1" class="node">
<title>pyGHDL.dom.DOMMixin</title>
<g id="a_node1"><a xlink:href="../pyGHDL.dom.html#pyGHDL.dom.DOMMixin" xlink:title="pyGHDL.dom.DOMMixin" target="_top">
<polygon fill="none" stroke="#000000" stroke-width=".5" points="1575,-56 1441,-56 1441,-37 1575,-37 1575,-56"/>
<text text-anchor="middle" x="1508" y="-44" font-family="Vera Sans, DejaVu Sans, Liberation Sans, Arial, Helvetica, sans" font-size="10.00" fill="#000000">pyGHDL.dom.DOMMixin</text>
</a>
</g>
</g>
<!-- pyGHDL.dom.Expression.MatchingGreaterThanExpression -->
<g id="node2" class="node">
<title>pyGHDL.dom.Expression.MatchingGreaterThanExpression</title>
<g id="a_node2"><a xlink:href="../pyGHDL/pyGHDL.dom.Expression.html#pyGHDL.dom.Expression.MatchingGreaterThanExpression" xlink:title="pyGHDL.dom.Expression.MatchingGreaterThanExpression" target="_top">
<polygon fill="none" stroke="#000000" stroke-width=".5" points="1999,-37 1700,-37 1700,-18 1999,-18 1999,-37"/>
<text text-anchor="middle" x="1849.5" y="-25" font-family="Vera Sans, DejaVu Sans, Liberation Sans, Arial, Helvetica, sans" font-size="10.00" fill="#000000">pyGHDL.dom.Expression.MatchingGreaterThanExpression</text>
</a>
</g>
</g>
<!-- pyGHDL.dom.DOMMixin&#45;&gt;pyGHDL.dom.Expression.MatchingGreaterThanExpression -->
<g id="edge2" class="edge">
<title>pyGHDL.dom.DOMMixin&#45;&gt;pyGHDL.dom.Expression.MatchingGreaterThanExpression</title>
<path fill="none" stroke="#000000" stroke-width=".5" d="M1575.0619,-42.7689C1609.407,-40.858 1652.7597,-38.446 1694.8027,-36.1069"/>
<polygon fill="#000000" stroke="#000000" stroke-width=".5" points="1695.0277,-37.8472 1699.9227,-35.822 1694.8332,-34.3526 1695.0277,-37.8472"/>
</g>
<!-- pyVHDLModel.SyntaxModel.MatchingGreaterThanExpression -->
<g id="node3" class="node">
<title>pyVHDLModel.SyntaxModel.MatchingGreaterThanExpression</title>
<polygon fill="none" stroke="#000000" stroke-width=".5" points="1664,-19 1352,-19 1352,0 1664,0 1664,-19"/>
<text text-anchor="middle" x="1508" y="-7" font-family="Vera Sans, DejaVu Sans, Liberation Sans, Arial, Helvetica, sans" font-size="10.00" fill="#000000">pyVHDLModel.SyntaxModel.MatchingGreaterThanExpression</text>
</g>
<!-- pyVHDLModel.SyntaxModel.MatchingGreaterThanExpression&#45;&gt;pyGHDL.dom.Expression.MatchingGreaterThanExpression -->
<g id="edge1" class="edge">
<title>pyVHDLModel.SyntaxModel.MatchingGreaterThanExpression&#45;&gt;pyGHDL.dom.Expression.MatchingGreaterThanExpression</title>
<path fill="none" stroke="#000000" stroke-width=".5" d="M1664.2584,-17.7362C1674.3536,-18.2683 1684.5168,-18.804 1694.6055,-19.3357"/>
<polygon fill="#000000" stroke="#000000" stroke-width=".5" points="1694.7885,-21.0977 1699.8737,-19.6134 1694.9728,-17.6026 1694.7885,-21.0977"/>
</g>
<!-- pyVHDLModel.ModelEntity -->
<g id="node4" class="node">
<title>pyVHDLModel.ModelEntity</title>
<g id="a_node4"><a xlink:title="``ModelEntity`` is the base class for all classes in the VHDL language model,">
<polygon fill="none" stroke="#000000" stroke-width=".5" points="146,-19 0,-19 0,0 146,0 146,-19"/>
<text text-anchor="middle" x="73" y="-7" font-family="Vera Sans, DejaVu Sans, Liberation Sans, Arial, Helvetica, sans" font-size="10.00" fill="#000000">pyVHDLModel.ModelEntity</text>
</a>
</g>
</g>
<!-- pyVHDLModel.SyntaxModel.BaseExpression -->
<g id="node5" class="node">
<title>pyVHDLModel.SyntaxModel.BaseExpression</title>
<g id="a_node5"><a xlink:title="A ``BaseExpression`` is a base&#45;class for all expressions.">
<polygon fill="none" stroke="#000000" stroke-width=".5" points="413,-19 182,-19 182,0 413,0 413,-19"/>
<text text-anchor="middle" x="297.5" y="-7" font-family="Vera Sans, DejaVu Sans, Liberation Sans, Arial, Helvetica, sans" font-size="10.00" fill="#000000">pyVHDLModel.SyntaxModel.BaseExpression</text>
</a>
</g>
</g>
<!-- pyVHDLModel.ModelEntity&#45;&gt;pyVHDLModel.SyntaxModel.BaseExpression -->
<g id="edge3" class="edge">
<title>pyVHDLModel.ModelEntity&#45;&gt;pyVHDLModel.SyntaxModel.BaseExpression</title>
<path fill="none" stroke="#000000" stroke-width=".5" d="M146.1991,-9.5C155.9857,-9.5 166.2247,-9.5 176.5627,-9.5"/>
<polygon fill="#000000" stroke="#000000" stroke-width=".5" points="176.6441,-11.2501 181.644,-9.5 176.644,-7.7501 176.6441,-11.2501"/>
</g>
<!-- pyVHDLModel.SyntaxModel.BinaryExpression -->
<g id="node6" class="node">
<title>pyVHDLModel.SyntaxModel.BinaryExpression</title>
<g id="a_node6"><a xlink:title="A ``BinaryExpression`` is a base&#45;class for all binary expressions.">
<polygon fill="none" stroke="#000000" stroke-width=".5" points="688,-19 449,-19 449,0 688,0 688,-19"/>
<text text-anchor="middle" x="568.5" y="-7" font-family="Vera Sans, DejaVu Sans, Liberation Sans, Arial, Helvetica, sans" font-size="10.00" fill="#000000">pyVHDLModel.SyntaxModel.BinaryExpression</text>
</a>
</g>
</g>
<!-- pyVHDLModel.SyntaxModel.BaseExpression&#45;&gt;pyVHDLModel.SyntaxModel.BinaryExpression -->
<g id="edge4" class="edge">
<title>pyVHDLModel.SyntaxModel.BaseExpression&#45;&gt;pyVHDLModel.SyntaxModel.BinaryExpression</title>
<path fill="none" stroke="#000000" stroke-width=".5" d="M413.2145,-9.5C423.3522,-9.5 433.6409,-9.5 443.8471,-9.5"/>
<polygon fill="#000000" stroke="#000000" stroke-width=".5" points="443.8497,-11.2501 448.8497,-9.5 443.8496,-7.7501 443.8497,-11.2501"/>
</g>
<!-- pyVHDLModel.SyntaxModel.RelationalExpression -->
<g id="node8" class="node">
<title>pyVHDLModel.SyntaxModel.RelationalExpression</title>
<g id="a_node8"><a xlink:title="A ``RelationalExpression`` is a base&#45;class for all shifting expressions.">
<polygon fill="none" stroke="#000000" stroke-width=".5" points="980,-19 724,-19 724,0 980,0 980,-19"/>
<text text-anchor="middle" x="852" y="-7" font-family="Vera Sans, DejaVu Sans, Liberation Sans, Arial, Helvetica, sans" font-size="10.00" fill="#000000">pyVHDLModel.SyntaxModel.RelationalExpression</text>
</a>
</g>
</g>
<!-- pyVHDLModel.SyntaxModel.BinaryExpression&#45;&gt;pyVHDLModel.SyntaxModel.RelationalExpression -->
<g id="edge7" class="edge">
<title>pyVHDLModel.SyntaxModel.BinaryExpression&#45;&gt;pyVHDLModel.SyntaxModel.RelationalExpression</title>
<path fill="none" stroke="#000000" stroke-width=".5" d="M688.3186,-9.5C698.4484,-9.5 708.7313,-9.5 718.9536,-9.5"/>
<polygon fill="#000000" stroke="#000000" stroke-width=".5" points="718.9661,-11.2501 723.9661,-9.5 718.966,-7.7501 718.9661,-11.2501"/>
</g>
<!-- pyVHDLModel.SyntaxModel.MatchingRelationalExpression -->
<g id="node7" class="node">
<title>pyVHDLModel.SyntaxModel.MatchingRelationalExpression</title>
<polygon fill="none" stroke="#000000" stroke-width=".5" points="1316,-19 1016,-19 1016,0 1316,0 1316,-19"/>
<text text-anchor="middle" x="1166" y="-7" font-family="Vera Sans, DejaVu Sans, Liberation Sans, Arial, Helvetica, sans" font-size="10.00" fill="#000000">pyVHDLModel.SyntaxModel.MatchingRelationalExpression</text>
</g>
<!-- pyVHDLModel.SyntaxModel.MatchingRelationalExpression&#45;&gt;pyVHDLModel.SyntaxModel.MatchingGreaterThanExpression -->
<g id="edge5" class="edge">
<title>pyVHDLModel.SyntaxModel.MatchingRelationalExpression&#45;&gt;pyVHDLModel.SyntaxModel.MatchingGreaterThanExpression</title>
<path fill="none" stroke="#000000" stroke-width=".5" d="M1316.0062,-9.5C1326.2629,-9.5 1336.6219,-9.5 1346.9326,-9.5"/>
<polygon fill="#000000" stroke="#000000" stroke-width=".5" points="1346.9897,-11.2501 1351.9897,-9.5 1346.9896,-7.7501 1346.9897,-11.2501"/>
</g>
<!-- pyVHDLModel.SyntaxModel.RelationalExpression&#45;&gt;pyVHDLModel.SyntaxModel.MatchingRelationalExpression -->
<g id="edge6" class="edge">
<title>pyVHDLModel.SyntaxModel.RelationalExpression&#45;&gt;pyVHDLModel.SyntaxModel.MatchingRelationalExpression</title>
<path fill="none" stroke="#000000" stroke-width=".5" d="M980.1687,-9.5C990.2971,-9.5 1000.5912,-9.5 1010.8746,-9.5"/>
<polygon fill="#000000" stroke="#000000" stroke-width=".5" points="1010.9213,-11.2501 1015.9212,-9.5 1010.9212,-7.7501 1010.9213,-11.2501"/>
</g>
</g>
</svg>
