<?xml version="1.0" encoding="UTF-8" standalone="no"?>
<!DOCTYPE svg PUBLIC "-//W3C//DTD SVG 1.1//EN"
 "http://www.w3.org/Graphics/SVG/1.1/DTD/svg11.dtd">
<!-- Generated by graphviz version 2.40.1 (20161225.0304)
 -->
<!-- Title: inheritanceb9f039974e Pages: 1 -->
<svg width="576pt" height="32pt"
 viewBox="0.00 0.00 576.00 31.98" xmlns="http://www.w3.org/2000/svg" xmlns:xlink="http://www.w3.org/1999/xlink">
<g id="graph0" class="graph" transform="scale(.3853 .3853) rotate(0) translate(4 79)">
<title>inheritanceb9f039974e</title>
<polygon fill="#ffffff" stroke="transparent" points="-4,4 -4,-79 1491,-79 1491,4 -4,4"/>
<!-- pyGHDL.dom.Concurrent.EntityInstantiation -->
<g id="node1" class="node">
<title>pyGHDL.dom.Concurrent.EntityInstantiation</title>
<g id="a_node1"><a xlink:href="../pyGHDL/pyGHDL.dom.Concurrent.html#pyGHDL.dom.Concurrent.EntityInstantiation" xlink:title="pyGHDL.dom.Concurrent.EntityInstantiation" target="_top">
<polygon fill="none" stroke="#000000" stroke-width=".5" points="1487,-37 1257,-37 1257,-18 1487,-18 1487,-37"/>
<text text-anchor="middle" x="1372" y="-25" font-family="Vera Sans, DejaVu Sans, Liberation Sans, Arial, Helvetica, sans" font-size="10.00" fill="#000000">pyGHDL.dom.Concurrent.EntityInstantiation</text>
</a>
</g>
</g>
<!-- pyVHDLModel.SyntaxModel.EntityInstantiation -->
<g id="node2" class="node">
<title>pyVHDLModel.SyntaxModel.EntityInstantiation</title>
<polygon fill="none" stroke="#000000" stroke-width=".5" points="1221,-56 977,-56 977,-37 1221,-37 1221,-56"/>
<text text-anchor="middle" x="1099" y="-44" font-family="Vera Sans, DejaVu Sans, Liberation Sans, Arial, Helvetica, sans" font-size="10.00" fill="#000000">pyVHDLModel.SyntaxModel.EntityInstantiation</text>
</g>
<!-- pyVHDLModel.SyntaxModel.EntityInstantiation&#45;&gt;pyGHDL.dom.Concurrent.EntityInstantiation -->
<g id="edge1" class="edge">
<title>pyVHDLModel.SyntaxModel.EntityInstantiation&#45;&gt;pyGHDL.dom.Concurrent.EntityInstantiation</title>
<path fill="none" stroke="#000000" stroke-width=".5" d="M1221.1272,-38.0003C1231.3756,-37.287 1241.7332,-36.5662 1251.9655,-35.854"/>
<polygon fill="#000000" stroke="#000000" stroke-width=".5" points="1252.1112,-37.5982 1256.9776,-35.5052 1251.8681,-34.1067 1252.1112,-37.5982"/>
</g>
<!-- pyGHDL.dom.DOMMixin -->
<g id="node3" class="node">
<title>pyGHDL.dom.DOMMixin</title>
<g id="a_node3"><a xlink:href="../pyGHDL.dom.html#pyGHDL.dom.DOMMixin" xlink:title="pyGHDL.dom.DOMMixin" target="_top">
<polygon fill="none" stroke="#000000" stroke-width=".5" points="1166,-19 1032,-19 1032,0 1166,0 1166,-19"/>
<text text-anchor="middle" x="1099" y="-7" font-family="Vera Sans, DejaVu Sans, Liberation Sans, Arial, Helvetica, sans" font-size="10.00" fill="#000000">pyGHDL.dom.DOMMixin</text>
</a>
</g>
</g>
<!-- pyGHDL.dom.DOMMixin&#45;&gt;pyGHDL.dom.Concurrent.EntityInstantiation -->
<g id="edge2" class="edge">
<title>pyGHDL.dom.DOMMixin&#45;&gt;pyGHDL.dom.Concurrent.EntityInstantiation</title>
<path fill="none" stroke="#000000" stroke-width=".5" d="M1166.133,-13.9263C1192.0265,-15.6336 1222.4559,-17.6399 1251.8579,-19.5785"/>
<polygon fill="#000000" stroke="#000000" stroke-width=".5" points="1251.8451,-21.3314 1256.9494,-19.9142 1252.0754,-17.839 1251.8451,-21.3314"/>
</g>
<!-- pyVHDLModel.LabeledEntity -->
<g id="node4" class="node">
<title>pyVHDLModel.LabeledEntity</title>
<g id="a_node4"><a xlink:title="A ``LabeledEntity`` is a mixin class for all VHDL entities that can have">
<polygon fill="none" stroke="#000000" stroke-width=".5" points="155,-75 0,-75 0,-56 155,-56 155,-75"/>
<text text-anchor="middle" x="77.5" y="-63" font-family="Vera Sans, DejaVu Sans, Liberation Sans, Arial, Helvetica, sans" font-size="10.00" fill="#000000">pyVHDLModel.LabeledEntity</text>
</a>
</g>
</g>
<!-- pyVHDLModel.SyntaxModel.Statement -->
<g id="node7" class="node">
<title>pyVHDLModel.SyntaxModel.Statement</title>
<polygon fill="none" stroke="#000000" stroke-width=".5" points="396,-56 191,-56 191,-37 396,-37 396,-56"/>
<text text-anchor="middle" x="293.5" y="-44" font-family="Vera Sans, DejaVu Sans, Liberation Sans, Arial, Helvetica, sans" font-size="10.00" fill="#000000">pyVHDLModel.SyntaxModel.Statement</text>
</g>
<!-- pyVHDLModel.LabeledEntity&#45;&gt;pyVHDLModel.SyntaxModel.Statement -->
<g id="edge7" class="edge">
<title>pyVHDLModel.LabeledEntity&#45;&gt;pyVHDLModel.SyntaxModel.Statement</title>
<path fill="none" stroke="#000000" stroke-width=".5" d="M155.1758,-58.6674C165.154,-57.7897 175.5079,-56.8789 185.8575,-55.9686"/>
<polygon fill="#000000" stroke="#000000" stroke-width=".5" points="186.1088,-57.7033 190.9362,-55.5218 185.802,-54.2168 186.1088,-57.7033"/>
</g>
<!-- pyVHDLModel.ModelEntity -->
<g id="node5" class="node">
<title>pyVHDLModel.ModelEntity</title>
<g id="a_node5"><a xlink:title="``ModelEntity`` is the base class for all classes in the VHDL language model,">
<polygon fill="none" stroke="#000000" stroke-width=".5" points="150.5,-38 4.5,-38 4.5,-19 150.5,-19 150.5,-38"/>
<text text-anchor="middle" x="77.5" y="-26" font-family="Vera Sans, DejaVu Sans, Liberation Sans, Arial, Helvetica, sans" font-size="10.00" fill="#000000">pyVHDLModel.ModelEntity</text>
</a>
</g>
</g>
<!-- pyVHDLModel.ModelEntity&#45;&gt;pyVHDLModel.SyntaxModel.Statement -->
<g id="edge6" class="edge">
<title>pyVHDLModel.ModelEntity&#45;&gt;pyVHDLModel.SyntaxModel.Statement</title>
<path fill="none" stroke="#000000" stroke-width=".5" d="M150.6277,-34.594C161.9793,-35.5399 173.9067,-36.5339 185.8288,-37.5274"/>
<polygon fill="#000000" stroke="#000000" stroke-width=".5" points="185.8081,-39.2817 190.9362,-37.953 186.0988,-35.7937 185.8081,-39.2817"/>
</g>
<!-- pyVHDLModel.SyntaxModel.ConcurrentStatement -->
<g id="node6" class="node">
<title>pyVHDLModel.SyntaxModel.ConcurrentStatement</title>
<g id="a_node6"><a xlink:title="A ``ConcurrentStatement`` is a base&#45;class for all concurrent statements.">
<polygon fill="none" stroke="#000000" stroke-width=".5" points="690,-56 432,-56 432,-37 690,-37 690,-56"/>
<text text-anchor="middle" x="561" y="-44" font-family="Vera Sans, DejaVu Sans, Liberation Sans, Arial, Helvetica, sans" font-size="10.00" fill="#000000">pyVHDLModel.SyntaxModel.ConcurrentStatement</text>
</a>
</g>
</g>
<!-- pyVHDLModel.SyntaxModel.Instantiation -->
<g id="node8" class="node">
<title>pyVHDLModel.SyntaxModel.Instantiation</title>
<polygon fill="none" stroke="#000000" stroke-width=".5" points="941,-56 726,-56 726,-37 941,-37 941,-56"/>
<text text-anchor="middle" x="833.5" y="-44" font-family="Vera Sans, DejaVu Sans, Liberation Sans, Arial, Helvetica, sans" font-size="10.00" fill="#000000">pyVHDLModel.SyntaxModel.Instantiation</text>
</g>
<!-- pyVHDLModel.SyntaxModel.ConcurrentStatement&#45;&gt;pyVHDLModel.SyntaxModel.Instantiation -->
<g id="edge5" class="edge">
<title>pyVHDLModel.SyntaxModel.ConcurrentStatement&#45;&gt;pyVHDLModel.SyntaxModel.Instantiation</title>
<path fill="none" stroke="#000000" stroke-width=".5" d="M690.0679,-46.5C700.2595,-46.5 710.5048,-46.5 720.5749,-46.5"/>
<polygon fill="#000000" stroke="#000000" stroke-width=".5" points="720.8237,-48.2501 725.8237,-46.5 720.8237,-44.7501 720.8237,-48.2501"/>
</g>
<!-- pyVHDLModel.SyntaxModel.Statement&#45;&gt;pyVHDLModel.SyntaxModel.ConcurrentStatement -->
<g id="edge3" class="edge">
<title>pyVHDLModel.SyntaxModel.Statement&#45;&gt;pyVHDLModel.SyntaxModel.ConcurrentStatement</title>
<path fill="none" stroke="#000000" stroke-width=".5" d="M396.1575,-46.5C406.1602,-46.5 416.4086,-46.5 426.6617,-46.5"/>
<polygon fill="#000000" stroke="#000000" stroke-width=".5" points="426.6943,-48.2501 431.6943,-46.5 426.6942,-44.7501 426.6943,-48.2501"/>
</g>
<!-- pyVHDLModel.SyntaxModel.Instantiation&#45;&gt;pyVHDLModel.SyntaxModel.EntityInstantiation -->
<g id="edge4" class="edge">
<title>pyVHDLModel.SyntaxModel.Instantiation&#45;&gt;pyVHDLModel.SyntaxModel.EntityInstantiation</title>
<path fill="none" stroke="#000000" stroke-width=".5" d="M941.1063,-46.5C951.2356,-46.5 961.5676,-46.5 971.8547,-46.5"/>
<polygon fill="#000000" stroke="#000000" stroke-width=".5" points="971.9001,-48.2501 976.9001,-46.5 971.9,-44.7501 971.9001,-48.2501"/>
</g>
</g>
</svg>
