<?xml version="1.0" encoding="UTF-8" standalone="no"?>
<!DOCTYPE svg PUBLIC "-//W3C//DTD SVG 1.1//EN"
 "http://www.w3.org/Graphics/SVG/1.1/DTD/svg11.dtd">
<!-- Generated by graphviz version 2.40.1 (20161225.0304)
 -->
<!-- Title: inheritanceed1c6525ec Pages: 1 -->
<svg width="576pt" height="53pt"
 viewBox="0.00 0.00 576.00 53.13" xmlns="http://www.w3.org/2000/svg" xmlns:xlink="http://www.w3.org/1999/xlink">
<g id="graph0" class="graph" transform="scale(.6479 .6479) rotate(0) translate(4 78)">
<title>inheritanceed1c6525ec</title>
<polygon fill="#ffffff" stroke="transparent" points="-4,4 -4,-78 885,-78 885,4 -4,4"/>
<!-- pyGHDL.dom.DOMMixin -->
<g id="node1" class="node">
<title>pyGHDL.dom.DOMMixin</title>
<g id="a_node1"><a xlink:href="../pyGHDL.dom.html#pyGHDL.dom.DOMMixin" xlink:title="pyGHDL.dom.DOMMixin" target="_top">
<polygon fill="none" stroke="#000000" stroke-width=".5" points="615.5,-74 481.5,-74 481.5,-55 615.5,-55 615.5,-74"/>
<text text-anchor="middle" x="548.5" y="-62" font-family="Vera Sans, DejaVu Sans, Liberation Sans, Arial, Helvetica, sans" font-size="10.00" fill="#000000">pyGHDL.dom.DOMMixin</text>
</a>
</g>
</g>
<!-- pyGHDL.dom.Subprogram.Procedure -->
<g id="node2" class="node">
<title>pyGHDL.dom.Subprogram.Procedure</title>
<g id="a_node2"><a xlink:href="../pyGHDL/pyGHDL.dom.Subprogram.html#pyGHDL.dom.Subprogram.Procedure" xlink:title="pyGHDL.dom.Subprogram.Procedure" target="_top">
<polygon fill="none" stroke="#000000" stroke-width=".5" points="881,-55 686,-55 686,-36 881,-36 881,-55"/>
<text text-anchor="middle" x="783.5" y="-43" font-family="Vera Sans, DejaVu Sans, Liberation Sans, Arial, Helvetica, sans" font-size="10.00" fill="#000000">pyGHDL.dom.Subprogram.Procedure</text>
</a>
</g>
</g>
<!-- pyGHDL.dom.DOMMixin&#45;&gt;pyGHDL.dom.Subprogram.Procedure -->
<g id="edge2" class="edge">
<title>pyGHDL.dom.DOMMixin&#45;&gt;pyGHDL.dom.Subprogram.Procedure</title>
<path fill="none" stroke="#000000" stroke-width=".5" d="M615.5271,-59.0808C635.8331,-57.439 658.6222,-55.5965 680.7071,-53.8109"/>
<polygon fill="#000000" stroke="#000000" stroke-width=".5" points="680.8618,-55.5542 685.7045,-53.4069 680.5797,-52.0656 680.8618,-55.5542"/>
</g>
<!-- pyVHDLModel.SyntaxModel.Procedure -->
<g id="node3" class="node">
<title>pyVHDLModel.SyntaxModel.Procedure</title>
<polygon fill="none" stroke="#000000" stroke-width=".5" points="650,-37 447,-37 447,-18 650,-18 650,-37"/>
<text text-anchor="middle" x="548.5" y="-25" font-family="Vera Sans, DejaVu Sans, Liberation Sans, Arial, Helvetica, sans" font-size="10.00" fill="#000000">pyVHDLModel.SyntaxModel.Procedure</text>
</g>
<!-- pyVHDLModel.SyntaxModel.Procedure&#45;&gt;pyGHDL.dom.Subprogram.Procedure -->
<g id="edge1" class="edge">
<title>pyVHDLModel.SyntaxModel.Procedure&#45;&gt;pyGHDL.dom.Subprogram.Procedure</title>
<path fill="none" stroke="#000000" stroke-width=".5" d="M650.2076,-35.2904C660.2428,-36.059 670.4344,-36.8397 680.4826,-37.6093"/>
<polygon fill="#000000" stroke="#000000" stroke-width=".5" points="680.6034,-39.3736 685.7224,-38.0107 680.8707,-35.8838 680.6034,-39.3736"/>
</g>
<!-- pyVHDLModel.ModelEntity -->
<g id="node4" class="node">
<title>pyVHDLModel.ModelEntity</title>
<g id="a_node4"><a xlink:title="``ModelEntity`` is the base class for all classes in the VHDL language model,">
<polygon fill="none" stroke="#000000" stroke-width=".5" points="149,-56 3,-56 3,-37 149,-37 149,-56"/>
<text text-anchor="middle" x="76" y="-44" font-family="Vera Sans, DejaVu Sans, Liberation Sans, Arial, Helvetica, sans" font-size="10.00" fill="#000000">pyVHDLModel.ModelEntity</text>
</a>
</g>
</g>
<!-- pyVHDLModel.SyntaxModel.SubProgramm -->
<g id="node6" class="node">
<title>pyVHDLModel.SyntaxModel.SubProgramm</title>
<polygon fill="none" stroke="#000000" stroke-width=".5" points="411,-37 188,-37 188,-18 411,-18 411,-37"/>
<text text-anchor="middle" x="299.5" y="-25" font-family="Vera Sans, DejaVu Sans, Liberation Sans, Arial, Helvetica, sans" font-size="10.00" fill="#000000">pyVHDLModel.SyntaxModel.SubProgramm</text>
</g>
<!-- pyVHDLModel.ModelEntity&#45;&gt;pyVHDLModel.SyntaxModel.SubProgramm -->
<g id="edge4" class="edge">
<title>pyVHDLModel.ModelEntity&#45;&gt;pyVHDLModel.SyntaxModel.SubProgramm</title>
<path fill="none" stroke="#000000" stroke-width=".5" d="M149.1823,-40.2787C159.8911,-39.3683 171.1385,-38.4122 182.4585,-37.4498"/>
<polygon fill="#000000" stroke="#000000" stroke-width=".5" points="182.8293,-39.1747 187.663,-37.0074 182.5327,-35.6873 182.8293,-39.1747"/>
</g>
<!-- pyVHDLModel.NamedEntity -->
<g id="node5" class="node">
<title>pyVHDLModel.NamedEntity</title>
<g id="a_node5"><a xlink:title="A ``NamedEntity`` is a mixin class for all VHDL entities that have identifiers.">
<polygon fill="none" stroke="#000000" stroke-width=".5" points="152,-19 0,-19 0,0 152,0 152,-19"/>
<text text-anchor="middle" x="76" y="-7" font-family="Vera Sans, DejaVu Sans, Liberation Sans, Arial, Helvetica, sans" font-size="10.00" fill="#000000">pyVHDLModel.NamedEntity</text>
</a>
</g>
</g>
<!-- pyVHDLModel.NamedEntity&#45;&gt;pyVHDLModel.SyntaxModel.SubProgramm -->
<g id="edge5" class="edge">
<title>pyVHDLModel.NamedEntity&#45;&gt;pyVHDLModel.SyntaxModel.SubProgramm</title>
<path fill="none" stroke="#000000" stroke-width=".5" d="M152.2909,-15.6442C162.1803,-16.4407 172.483,-17.2704 182.842,-18.1047"/>
<polygon fill="#000000" stroke="#000000" stroke-width=".5" points="182.8059,-19.8574 187.9303,-18.5145 183.087,-16.3687 182.8059,-19.8574"/>
</g>
<!-- pyVHDLModel.SyntaxModel.SubProgramm&#45;&gt;pyVHDLModel.SyntaxModel.Procedure -->
<g id="edge3" class="edge">
<title>pyVHDLModel.SyntaxModel.SubProgramm&#45;&gt;pyVHDLModel.SyntaxModel.Procedure</title>
<path fill="none" stroke="#000000" stroke-width=".5" d="M411.2538,-27.5C421.3825,-27.5 431.625,-27.5 441.7093,-27.5"/>
<polygon fill="#000000" stroke="#000000" stroke-width=".5" points="441.9669,-29.2501 446.9669,-27.5 441.9668,-25.7501 441.9669,-29.2501"/>
</g>
</g>
</svg>
